<?xml version="1.0" encoding="utf-8"?>
<!-- Created with Inkscape (http://www.inkscape.org/) --><svg height="152.42821mm" id="svg6779" inkscape:version="0.91 r13725" sodipodi:docname="niveau2.svg" version="1.1" viewBox="0 0 338.49999 540.09995" width="95.532219mm" xmlns="http://www.w3.org/2000/svg" xmlns:cc="http://creativecommons.org/ns#" xmlns:dc="http://purl.org/dc/elements/1.1/" xmlns:inkscape="http://www.inkscape.org/namespaces/inkscape" xmlns:rdf="http://www.w3.org/1999/02/22-rdf-syntax-ns#" xmlns:sodipodi="http://sodipodi.sourceforge.net/DTD/sodipodi-0.dtd" xmlns:svg="http://www.w3.org/2000/svg">
<defs id="defs6781"/>
<sodipodi:namedview bordercolor="#666666" borderopacity="1.0" id="base" inkscape:current-layer="layer1" inkscape:cx="236.74062" inkscape:cy="267.59369" inkscape:document-units="px" inkscape:pageopacity="0.0" inkscape:pageshadow="2" inkscape:window-height="722" inkscape:window-maximized="0" inkscape:window-width="1346" inkscape:window-x="75" inkscape:window-y="34" inkscape:zoom="0.9050967" pagecolor="#ffffff" showgrid="false"/>
<metadata id="metadata6784">
<rdf:RDF>
<cc:Work rdf:about="">
<dc:format>image/svg+xml</dc:format>
<dc:type rdf:resource="http://purl.org/dc/dcmitype/StillImage"/>
<dc:title/>
</cc:Work>
</rdf:RDF>
</metadata>
<g id="layer1" inkscape:groupmode="layer" inkscape:label="Calque 1" transform="translate(0,0.58533621)">
<rect height="539.09998" id="rect4326-0-3-6-4-3-2-61-6-9-9-5-0-7-0-5-8-8-9-4-5-5-9" inkscape:export-xdpi="90" inkscape:export-ydpi="90" style="fill:#ffffff;fill-opacity:1;stroke:none;stroke-opacity:1" width="337.5" x="0.5" y="-0.085336208"/>
<path d="m 130.52594,353.37015 c -15.3738,-12.7245 -30.1139,-35.6783 -46.39294,-53.2035 -21.3224,-27.1442 -39.6243,-59.8886 -39.2009,-95.2479 7.7085,-29.3075 43.5327,-27.7809 63.77714,-43.7739 22.2365,-6.781 36.9664,-22.1115 55.5568,-32.3545 21.8466,-3.1782 13.3402,-47.0349 34.363,-57.7024 1.5322,21.3504 -6.0476,71.1885 30.6893,55.6116 16.9231,-11.9302 31.7638,-65.4677 27.2052,-17.4756 8.4179,24.7972 -30.2579,49.1967 -4.2786,68.1694 24.6173,7.1739 50.3366,48.2231 30.3102,65.9854 -33.1364,18.1149 3.9851,48.8829 2.9241,74.7912 6.6826,23.0171 10.9649,47.0127 9.6395,71.1114 -13.6333,20.2716 -45.7116,18.7809 -65.2208,9.5029 -29.4001,-15.6669 -34.4095,-55.7128 -66.78,-67.4505 -26.2448,-16.5953 -28.3527,-1.5195 -32.592,22.0364 z" id="path4378-28-9-7-0-6-8" inkscape:connector-curvature="0" style="fill:#a901ef;fill-opacity:1;fill-rule:evenodd;stroke:none"/>
<path d="m 251.47654,414.45696 c -1.72,-0.79371 -1.9247,-1.04961 -4.8081,-6.01001 -3.5364,-6.0839 -5.2435,-9.9489 -4.8906,-11.0719 0.1891,-0.6015 -0.072,-2.4681 -0.5787,-4.1481 -0.5074,-1.6799 -0.9225,-3.9678 -0.9225,-5.0842 0,-2.1385 -2.0514,-11.5349 -3.3057,-15.1415 l -0.7388,-2.1248 -0.3497,4.0083 c -0.1924,2.2046 -1.0178,5.6203 -1.8345,7.5905 -1.3697,3.3048 -1.4219,3.8094 -0.6739,6.5164 0.446,1.6138 1.1444,4.4975 1.5521,6.4081 0.4076,1.9107 1.3583,4.2584 2.1124,5.2172 0.7543,0.9588 1.3714,2.4056 1.3714,3.215 0,1.9885 1.9021,3.7545 4.9186,4.5668 2.7956,0.7528 3.7574,1.7507 2.4721,2.5648 -2.2572,1.4297 -6.7022,0.1502 -8.3814,-2.4125 -0.9182,-1.4013 -1.2894,-1.5052 -4.1632,-1.1649 -2.9545,0.35 -3.5002,0.1764 -8.5739,-2.7271 -2.9803,-1.7055 -5.7149,-3.4578 -6.077,-3.8942 -0.362,-0.4362 -0.7441,-2.4635 -0.8489,-4.505 -0.1766,-3.4382 -0.3053,-3.7247 -1.7462,-3.8869 -4.5246,-0.5093 -9.4886,-2.3274 -11.8324,-4.3336 -4.0629,-3.4777 -5.1907,-6.8386 -4.4377,-13.2245 l 0.4035,-3.4222 -9.1491,-9.22 c -5.0321,-5.071 -9.3397,-9.831 -9.5727,-10.5777 -0.2328,-0.7467 -1.4648,-2.6177 -2.7375,-4.1577 -3.05,-3.6904 -3.7501,-5.1173 -3.3195,-6.7642 0.5167,-1.9755 -1.3902,-3.8135 -3.9562,-3.8135 -1.1539,0 -4.4004,-0.7239 -7.2147,-1.6087 -2.8141,-0.8848 -6.3766,-2.0061 -7.9166,-2.4919 -1.5399,-0.4858 -3.264,-0.8819 -3.8312,-0.8802 -1.2839,0 -6.5706,-5.7968 -7.6142,-8.3544 l -0.7737,-1.8961 -2.6071,2.7935 c -1.5239,1.6326 -2.9691,3.9885 -3.4777,5.6692 -0.4787,1.5817 -1.315,3.7356 -1.8584,4.7864 -0.5434,1.0508 -1.2495,3.7568 -1.569,6.0133 -0.5459,3.8541 -1.5815,6.0605 -5.3363,11.3688 -1.0833,1.5316 -2.1858,1.849 -2.1608,0.6222 0.011,-0.4277 1.1286,-3.0146 2.4888,-5.7486 1.3602,-2.734 2.4731,-5.8683 2.4731,-6.9651 0,-1.0968 0.9801,-4.4251 2.1777,-7.3961 1.1978,-2.9711 2.1779,-5.777 2.1779,-6.2354 0,-1.4425 3.7073,-5.1277 5.5699,-5.5368 1.9331,-0.4246 1.877,-0.7878 -0.7202,-4.6733 -1.5484,-2.3162 -5.3414,-18.6747 -6.0321,-26.0139 -0.3988,-4.2391 -0.3908,-7.7204 0.024,-10.2666 l 0.6273,-3.8525 -2.6899,-2.4072 c -5.2227,-4.6737 -19.2268,-13.7506 -28.1833,-18.2671 -1.7208,-0.8677 -3.2686,-1.7871 -3.4397,-2.0431 -0.1711,-0.256 -2.7611,-1.6379 -5.7555,-3.0709 -3.1006,-1.4838 -5.44444,-2.9894 -5.44444,-3.4974 0,-0.4905 0.1212,-0.8919 0.2694,-0.8919 0.99,0 19.08784,9.2247 22.29684,11.365 4.307,2.8726 5.0015,3.3139 9.1668,5.8252 1.5401,0.9284 4.8507,3.0404 7.3568,4.6933 2.7279,1.7991 5.2589,3.0052 6.3062,3.0052 1.7849,0 3.7592,2.0893 3.7592,3.9781 0,1.8593 1.8737,2.8663 5.3333,2.8663 1.8578,0 3.3803,-0.21 3.3833,-0.4666 0,-0.2567 -0.8324,-1.1667 -1.8567,-2.0222 -1.3337,-1.1139 -1.8528,-2.0856 -1.8288,-3.4222 0.019,-1.0267 0.1747,-5.9967 0.3472,-11.0444 0.2689,-7.8726 0.1811,-9.1777 -0.6176,-9.1777 -1.3481,0 -2.6651,5.1465 -3.8572,15.0742 -0.1942,1.6176 -0.5876,3.086 -0.8743,3.2631 -1.6542,1.0224 -1.2965,-6.1982 0.6312,-12.7374 0.6557,-2.2244 1.5728,-5.5844 2.0379,-7.4666 0.4652,-1.8822 0.9584,-3.8355 1.096,-4.3408 0.1593,-0.585 -0.2842,-0.9995 -1.2216,-1.1415 -2.5381,-0.3846 -2.6233,-0.1513 -3.8205,10.46 -0.3283,2.9089 -0.6017,7.1624 -0.6078,9.4522 -0.011,2.2897 -0.2672,4.3215 -0.5802,4.515 -0.313,0.1934 -1.8226,-0.9018 -3.3547,-2.4338 -1.532,-1.532 -4.081,-3.4744 -5.6646,-4.3163 -1.5835,-0.842 -3.9238,-2.3338 -5.2008,-3.3151 -3.359,-2.5814 -4.9427,-3.5175 -16.3217,-9.6477 -11.8259,-6.371 -14.93324,-8.2412 -14.93324,-8.9878 0,-0.452 0.2697,-0.8219 0.59924,-0.8219 1.3037,0 7.2663,2.6699 9.8368,4.4047 1.496,1.0096 2.9627,1.6857 3.2593,1.5024 0.2966,-0.1833 0.7665,0.058 1.0442,0.5356 0.2776,0.4779 2.1849,1.7377 4.2381,2.7996 9.5877,4.9582 20.5512,11.9977 22.8059,14.6433 0.9077,1.065 1.8122,1.7786 2.01,1.5857 0.5993,-0.5846 1.6681,-20.3375 1.2439,-22.9902 -0.2512,-1.5706 -0.121,-2.8052 0.3561,-3.3802 0.4271,-0.5146 0.8351,-3.3313 0.9445,-6.5218 0.1612,-4.6975 0.4547,-6.063 1.7943,-8.3489 0.8809,-1.5031 1.4741,-2.8604 1.3182,-3.0163 -0.1559,-0.1559 -0.035,-4.0427 0.2683,-8.6374 0.3541,-5.3608 0.3338,-8.6216 -0.056,-9.1008 -0.8364,-1.0273 -0.7337,-7.934 0.1425,-9.5711 0.938,-1.7528 0.2512,-6.2498 -1.3759,-9.0073 -1.797,-3.0458 -3.3252,-9.7528 -3.539,-15.5317 -0.124,-3.3565 -0.4904,-5.3049 -1.1304,-6.0139 -0.7943,-0.8798 -0.8341,-1.5749 -0.2468,-4.3131 0.801,-3.7351 1.5711,-4.9047 3.2297,-4.9047 0.8338,0 1.1682,-0.4489 1.1682,-1.5679 0,-2.5356 2.8881,-8.9548 6.3885,-14.1991 3.0045,-4.5014 3.6273,-5.066 8.0643,-7.311 3.6102,-1.8267 5.5483,-2.4308 7.7778,-2.4244 4.7977,0.014 5.8258,0.4732 5.3599,2.3958 -0.2186,0.902 -1.307,2.5355 -2.4187,3.6299 -2.403,2.3656 -5.2781,7.3353 -6.851,11.8425 -1.037,2.9714 -1.0531,3.4293 -0.1848,5.2626 0.8692,1.8354 0.8526,2.2772 -0.1925,5.1366 -0.629,1.7207 -1.1436,4.2009 -1.1436,5.5115 0,1.3107 -0.2467,2.8546 -0.5483,3.431 -1.0039,1.9191 1.802,10.7264 4.5651,14.3283 1.3536,1.7647 2.8049,3.2085 3.2252,3.2085 0.4203,0 2.1561,-0.8654 3.8575,-1.9229 1.9614,-1.2193 4.1964,-2.0255 6.108,-2.2032 1.7871,-0.1661 3.9014,-0.8899 5.1924,-1.7777 2.0633,-1.4188 19.8654,-7.8455 25.1999,-9.0974 1.3688,-0.3212 3.1887,-0.8397 4.0443,-1.1523 0.8556,-0.3126 4.0055,-1.2859 7,-2.1629 2.9943,-0.8771 7.7543,-2.2746 10.5777,-3.1057 7.2499,-2.134 12.1089,-3.0199 15.711,-2.8642 1.711,0.074 3.782,0.1084 4.6022,0.077 0.8201,-0.032 1.8918,0.2748 2.3818,0.6813 1.6953,1.407 3.8859,6.6618 4.2795,10.2654 0.4381,4.0123 1.375,5.1742 4.1716,5.1742 1.9101,0 9.7323,4.7682 11.1613,6.8037 0.4296,0.612 2.2336,1.8717 4.0088,2.7993 4.0144,2.0977 4.4939,2.6776 6.1324,7.4176 1.0331,2.9887 1.627,3.8685 2.7197,4.0291 1.2539,0.1842 6.4289,5.0902 8.4379,7.9994 2.0299,2.9394 4.8323,9.1546 6.0064,13.321 1.0964,3.8911 1.2439,5.6803 0.9484,11.5089 -0.4585,9.0468 -1.8997,12.9919 -6.5131,17.8285 -4.1357,4.3358 -8.422,6.4884 -14.073,7.0674 l -4.1943,0.4297 0.4263,4.4196 c 0.2344,2.4308 0.8087,6.2396 1.2762,8.4641 2.1729,10.3391 2.5102,11.366 4.1692,12.6888 2.0103,1.603 4.3492,8.6439 4.1241,12.4148 -0.085,1.4218 0.1507,3.1502 0.5236,3.841 0.3728,0.6907 0.8725,2.3707 1.1103,3.7333 0.376,2.155 2.9243,8.9961 5.5582,14.9217 0.4564,1.0267 1.2574,2.8467 1.7799,4.0445 0.5226,1.1977 2.0521,4.6977 3.399,7.7777 1.3468,3.0799 2.812,6.7199 3.2559,8.0888 0.4438,1.3689 1.153,3.0489 1.5758,3.7333 0.9317,1.5081 3.6528,9.9675 4.6526,14.4636 0.5559,2.5004 0.5519,4.2935 -0.018,7.6674 -0.4257,2.5237 -0.5502,5.6464 -0.2914,7.3141 0.2483,1.6007 0.4148,5.2227 0.3701,8.0491 -0.142,8.9784 -2.8238,13.8176 -10.2071,18.4181 -1.0829,0.6748 -2.6349,2.9216 -4.1269,5.9749 -3.0526,6.2466 -3.6836,7.119 -6.5618,9.0722 -7.1361,4.8428 -11.8256,6.23551 -15.4437,4.5869 -1.2018,-0.5475 -1.8846,-0.4302 -3.6071,0.6199 -2.4141,1.47171 -9.0504,1.75251 -11.7691,0.49791 z m 9.2971,-2.67831 c 1.3629,-0.5453 2.6475,-1.5253 2.8546,-2.1777 0.4747,-1.496 1.013,-1.4875 3.5442,0.056 3.0346,1.8503 5.6701,1.5806 10.0446,-1.0276 5.4836,-3.2694 6.1179,-3.9795 9.3717,-10.4915 2.5443,-5.0921 3.3482,-6.139 6.0658,-7.9 2.4929,-1.6153 3.5641,-2.8862 5.2439,-6.222 1.9042,-3.7812 2.1082,-4.6963 2.083,-9.3407 -0.015,-2.8319 -0.388,-5.9889 -0.8278,-7.0155 -0.6832,-1.5948 -0.6338,-2.3402 0.3392,-5.1178 1.4044,-4.009 1.4585,-9.1699 0.141,-13.4319 -1.2507,-4.0456 -6.9403,-18.8759 -8.0416,-20.9612 -1.6621,-3.1468 -7.6328,-16.6004 -8.9747,-20.2221 -0.7609,-2.0533 -2.1288,-5.2733 -3.0401,-7.1555 l -1.6567,-3.4221 -4.0445,0.1521 c -2.2243,0.084 -5.7243,0.6957 -7.7777,1.36 -2.0532,0.6644 -5.9732,1.8026 -8.711,2.5293 -2.7377,0.7268 -5.6777,1.6139 -6.5333,1.9715 -0.8556,0.3575 -4.2156,1.4549 -7.4666,2.4387 -3.2511,0.9838 -7.0311,2.3357 -8.3999,3.0042 -2.4117,1.1778 -14.9885,6.2156 -20.9999,8.4117 -3.4065,1.2445 -3.7306,2.3758 -1.6463,5.748 1.0961,1.7737 1.4612,1.9919 2.245,1.3414 1.4591,-1.2109 2.6679,0.9957 2.6679,4.8699 0,2.6412 0.2883,3.555 1.4839,4.7033 2.3985,2.3035 4.7383,6.5423 4.7383,8.5837 0,1.4482 -0.3664,2.0337 -1.5555,2.4858 -1.8908,0.7189 -1.8955,0.843 -0.2028,5.3891 1.6872,4.5315 2.0582,5.019 4.1733,5.4835 0.9387,0.2062 3.3693,1.9019 5.4014,3.7683 2.0321,1.8664 3.9046,3.3957 4.1613,3.3984 1.0767,0.011 0.3487,-2.6525 -1.0889,-3.9849 -3.1428,-2.9127 -1.2675,-4.7755 1.9876,-1.9742 1.7299,1.4888 1.7457,1.5693 1.7457,8.8666 0,5.7146 0.2404,7.852 1.0729,9.5419 1.7024,3.4559 3.4328,9.9129 3.8468,14.3551 0.2746,2.9465 1.2275,6.0188 3.4115,10.999 4.4477,10.1421 5.149,10.8737 11.4117,11.9043 0.2497,0.041 1.5691,-0.3715 2.932,-0.9168 z m 5.4177,-21.8804 c -0.1604,-0.2596 -0.063,-1.7257 0.2178,-3.2579 0.5775,-3.1584 0.1522,-4.3168 -2.685,-7.3144 -1.9654,-2.0764 -3.5366,-2.6265 -3.5366,-1.2381 0,1.3716 -3.1061,4.1936 -4.6157,4.1936 -2.0655,0 -2.6971,-1.0527 -3.1769,-5.295 -0.8063,-7.128 2.7064,-15.275 7.6141,-17.6594 3.6339,-1.7655 5.8646,-1.6785 7.8494,0.3063 2.5382,2.5383 2.7239,3.9791 0.7334,5.6912 l -1.7106,1.4714 2.0486,4.036 c 2.5569,5.0377 3.0271,9.3882 1.516,14.0288 -1.4029,4.3083 -3.3097,6.5661 -4.2545,5.0375 z m 2.3996,-10.7334 c 0.2133,-0.3453 0.2011,-1.2165 -0.028,-1.9361 -0.3732,-1.1757 -0.5119,-1.2116 -1.3697,-0.3538 -0.525,0.525 -0.785,1.3962 -0.5778,1.9361 0.4274,1.1138 1.3976,1.2876 1.9747,0.3538 z m -1.559,-5.9745 c 0,-1.5438 -2.4355,-0.9828 -2.8467,0.6558 -0.6014,2.3958 0.3448,3.2983 1.7014,1.623 0.6299,-0.7779 1.1453,-1.8033 1.1453,-2.2788 z m -8.5577,-2.1347 c 1.0256,-1.868 2.9507,-4.7065 4.2779,-6.3079 1.3272,-1.6014 2.4131,-3.0714 2.4131,-3.2667 0,-0.878 -3.1238,-0.2236 -5.0412,1.056 -1.6286,1.0867 -2.4309,2.3376 -3.4923,5.4444 -2.5122,7.3537 -1.4656,9.0998 1.8425,3.0742 z m 5.2094,0.9337 c 0.8296,-1.266 0.897,-1.8858 0.3388,-3.111 -0.3834,-0.8416 -0.9733,-1.5301 -1.3108,-1.5301 -1.3831,0 -2.5883,4.7062 -1.4871,5.8074 0.7497,0.7497 1.4084,0.4373 2.4591,-1.1663 z m 14.5777,15.1662 c 0.05,-1.389 5.2825,-13.0613 5.9049,-13.1713 1.6306,-0.2879 0.086,4.8532 -3.6002,11.9807 -0.8765,1.695 -2.3498,2.456 -2.3047,1.1906 z m 6.1927,-0.3828 c 0,-0.6668 0.596,-1.9701 1.3245,-2.8962 1.8294,-2.3256 2.8342,-1.1574 1.3263,1.5418 -1.3517,2.4195 -2.6508,3.0833 -2.6508,1.3544 z m -40.8966,-5.9564 c 0.1891,-1.8325 0.9613,-6.4736 1.7159,-10.3136 1.2563,-6.3926 1.2972,-7.2535 0.4849,-10.2014 -1.0529,-3.8209 -0.8343,-5.3975 0.7479,-5.3975 0.8956,0 1.2413,0.6043 1.5128,2.6445 0.5442,4.088 0.051,9.7941 -1.1418,13.2083 -0.5951,1.7035 -1.3811,5.4134 -1.7465,8.2443 -0.734,5.6858 -2.1401,7.3084 -1.5732,1.8154 z m -7.6364,22.6967 c 0,-0.3003 -0.4634,-0.9303 -1.0298,-1.4 -1.362,-1.1296 -2.7035,-4.4214 -2.7035,-6.6342 0,-1.6894 -1.7241,-7.5974 -2.2171,-7.5974 -0.2091,0 -2.587,1.1112 -7.1162,3.3254 -1.343,0.6565 -1.5758,1.2251 -1.7043,4.1619 l -0.1488,3.4015 4.1932,2.6285 c 3.5279,2.2114 4.7114,2.631 7.4598,2.6444 1.7967,0.01 3.2667,-0.2297 3.2667,-0.5301 z m -11.1749,-16.2666 c 3.8524,-1.9654 7.4416,-8.7098 7.4416,-13.9837 0,-2.4753 -0.208,-2.879 -1.9465,-3.7781 -1.8621,-0.9628 -1.9313,-1.1355 -1.5949,-3.9753 0.4925,-4.1586 -1.4978,-5.836 -3.8255,-3.224 -1.2524,1.4055 -8.3931,3.815 -11.3436,3.8276 -2.9292,0.013 -4.9092,1.1651 -6.2157,3.618 -0.6069,1.1394 -1.5811,2.5994 -2.1649,3.2445 -0.8309,0.9182 -1.0023,1.9903 -0.7892,4.9367 0.3354,4.6365 1.6564,6.5648 6.0841,8.8804 4.2133,2.2036 10.5333,2.4034 14.3546,0.4539 z m -19.3013,-19.5935 c 0.9995,-0.5169 2.1076,-1.4821 2.4623,-2.145 0.5441,-1.0165 0.2668,-1.5092 -1.7713,-3.147 -1.329,-1.068 -3.9157,-4.1627 -5.7484,-6.8772 -3.3994,-5.0352 -5.266,-6.2042 -5.6451,-3.5354 -0.1091,0.77 -0.4788,1.4242 -0.821,1.4537 -4.734,0.4089 -3.0838,5.4201 3.7333,11.3371 2.3956,2.0793 4.7195,3.7969 5.1643,3.817 0.4447,0.02 1.6264,-0.3863 2.6259,-0.9032 z m 28.9425,-0.3401 c 0.7165,-1.1593 -0.2971,-3.7964 -1.3774,-3.5837 -1.6246,0.3199 -2.4413,2.1069 -1.4878,3.2558 0.9403,1.1328 2.2734,1.2854 2.8652,0.3279 z m -13.8662,-5.5252 c 2.5241,-0.7789 2.7486,-1.2621 1.5555,-3.3469 -0.4277,-0.7475 -1.1978,-2.6191 -1.7113,-4.1591 -0.7898,-2.3692 -1.1559,-2.7688 -2.3793,-2.5975 -1.2937,0.1812 -1.4247,-0.013 -1.2443,-1.8482 0.2513,-2.556 -1.2771,-3.0969 -3.1304,-1.1076 -0.8034,0.8622 -1.7225,1.2415 -2.5101,1.0355 -0.7538,-0.1971 -1.6576,0.1336 -2.2974,0.8407 -1.0909,1.2053 -1.0168,1.5641 2.502,12.1169 0.2513,0.7532 5.4585,0.2255 9.2153,-0.9338 z m -12.5998,-1.9469 c 0,-1.6333 -2.5524,-4.8604 -3.889,-4.9171 -0.9838,-0.041 -0.3991,1.8316 1.1442,3.6658 1.6374,1.9458 2.7448,2.4507 2.7448,1.2513 z m -19.248,-7.4476 c 0.6993,-0.3742 1.2036,-1.2986 1.2036,-2.206 0,-1.4356 0.169,-1.5301 2.0909,-1.1696 1.6306,0.3059 2.1802,0.1596 2.4965,-0.6647 0.4962,-1.2932 -2.0487,-6.1179 -3.3603,-6.3705 -1.1769,-0.2266 -7.4493,5.5063 -7.4493,6.8086 0,1.1597 2.324,4.2463 3.1971,4.2463 0.3399,0 1.1597,-0.2898 1.8215,-0.6441 z m 14.8637,-6.3958 c -0.7718,-2.4591 -2.0875,-5.3969 -2.9235,-6.5284 -0.8848,-1.1974 -1.7049,-3.4081 -1.9621,-5.2889 -0.5476,-4.0049 -3.3822,-9.0148 -5.3847,-9.5174 -1.9998,-0.502 -7.1096,-6.0829 -7.1808,-7.8429 -0.1717,-4.2449 0.2791,-7.2509 1.3674,-9.1182 1.2543,-2.1521 1.1334,-3.9099 -0.3913,-5.6862 -0.4406,-0.5133 -2.2416,-4.7133 -4.0022,-9.3333 -1.7607,-4.6199 -4.9942,-13.0199 -7.1857,-18.6665 -2.1914,-5.6466 -6.3859,-16.5666 -9.3208,-24.2665 -2.9351,-7.6999 -5.7142,-14.8399 -6.1759,-15.8666 -0.4615,-1.0266 -1.4676,-3.8266 -2.2356,-6.2222 -0.7681,-2.3955 -1.6535,-4.6331 -1.9676,-4.9725 -0.8464,-0.9144 -1.8014,0.9396 -1.1301,2.194 0.3008,0.562 0.4232,1.5571 0.2719,2.2113 -0.8019,3.469 -1.417,13.6399 -0.865,14.3048 0.3992,0.4811 0.2564,4.4482 -0.4155,11.5421 -0.5631,5.9449 -1.1211,13.1675 -1.2401,16.0502 -0.1337,3.2432 -0.506,5.4203 -0.9763,5.711 -1.2022,0.7429 0.04,2.8348 7.486,12.6106 3.7151,4.8773 8.1655,11.5109 9.8897,14.7413 1.7243,3.2304 3.8992,7.2734 4.833,8.9845 0.934,1.7111 2.1,3.9511 2.5914,4.9777 0.4914,1.0267 1.2018,2.4267 1.5787,3.1111 0.377,0.6844 1.3224,2.5122 2.1011,4.0617 1.0064,2.0028 2.0109,3.0405 3.4746,3.5893 2.6782,1.0042 5.0981,3.1805 6.4532,5.8037 0.5968,1.1554 1.8123,3.199 2.701,4.5413 0.8886,1.3423 2.045,3.8623 2.5696,5.6 0.7502,2.4854 1.3732,3.3585 2.9198,4.0927 1.0813,0.5133 2.8827,1.8714 4.0031,3.0179 1.1628,1.1898 2.1408,1.7736 2.2787,1.36 0.1328,-0.3985 -0.3901,-2.7365 -1.162,-5.1956 z m 5.2932,1.052 c 0.8129,-0.3119 0.9309,-0.9211 0.6025,-3.1111 -0.3433,-2.2895 -0.2433,-2.7232 0.6281,-2.7232 0.592,0 1.3152,0.8003 1.6869,1.8667 0.7006,2.0095 2.5822,2.4766 4.9255,1.2225 1.446,-0.7739 1.5413,-1.7715 0.2588,-2.7094 -0.5195,-0.38 -1.7165,-2.7824 -2.66,-5.3387 -1.5076,-4.0844 -1.9517,-4.7156 -3.6631,-5.2064 -1.5516,-0.445 -2.5341,-0.2656 -4.8327,0.8824 -3.5745,1.7852 -4.5496,2.8373 -3.553,3.8338 0.3961,0.3962 0.7202,1.3962 0.7202,2.2222 0,0.8261 0.539,2.5201 1.1977,3.7644 0.6588,1.2444 1.3641,3.0325 1.5674,3.9736 0.3686,1.7054 1.2035,2.0593 3.1217,1.3232 z m -25.0162,-3.1447 c 3.6519,-2.5307 3.8516,-3.3466 1.5514,-6.3394 -1.0873,-1.4148 -2.1753,-2.5723 -2.4175,-2.5723 -0.7499,0 -4.8931,5.1504 -4.8931,6.0825 0,0.9596 2.3317,4.4952 2.9644,4.4952 0.215,0 1.4727,-0.7497 2.7948,-1.666 z m 34.2592,-7.2006 c -0.1484,-0.2567 -0.6735,-0.4667 -1.1666,-0.4667 -1.0966,0 -1.1716,1.3428 -0.1329,2.3814 0.6033,0.6034 0.8482,0.5316 1.1665,-0.3422 0.2216,-0.6082 0.2815,-1.3159 0.133,-1.5725 z m -27.771,1.05 c 0.3106,-0.9437 -2.254,-4.7247 -2.9238,-4.3108 -0.9122,0.5639 -0.7419,2.3326 0.3788,3.9326 0.9654,1.3783 2.1576,1.5555 2.545,0.3782 z m -9.832,-2.9965 c 3.1556,-3.2558 2.614,-5.0881 -2.065,-6.9859 -2.4902,-1.0101 -3.8293,-1.2792 -4.1094,-0.8261 -0.713,1.1537 -0.1058,5.6259 0.9167,6.7562 0.5366,0.5929 0.9756,1.3826 0.9756,1.755 0,0.5943 0.8572,1.205 1.9001,1.3537 0.1895,0.027 1.2614,-0.8968 2.382,-2.0529 z m -9.2598,-5.3764 c 0,-4.7184 -0.1706,-5.3431 -3.1381,-11.4953 -1.7259,-3.5781 -3.7771,-7.2828 -4.5584,-8.2326 -0.7812,-0.9497 -2.2788,-3.5835 -3.328,-5.8527 -2.339,-5.0594 -6.4409,-10.7019 -7.2162,-9.9265 -0.332,0.3319 -0.2571,2.5473 0.1839,5.4396 0.4092,2.6837 0.9599,6.6995 1.2237,8.9239 0.5009,4.2227 2.8135,14.6126 3.9171,17.599 1.2245,3.3132 8.0734,8.3586 11.516,8.4834 1.3397,0.049 1.4,-0.1642 1.4,-4.9388 z m 35.9448,-0.4645 c 1.803,-0.8509 3.4198,-1.776 3.5927,-2.0556 0.4796,-0.7761 -3.9871,-7.4236 -4.9882,-7.4236 -0.4835,0 -1.2574,0.5403 -1.7199,1.2006 -0.6605,0.943 -1.5024,1.1766 -3.9241,1.0889 -3.4381,-0.1246 -3.399,-0.2528 -1.3869,4.5549 2.4144,5.7687 2.0364,5.6505 8.4264,2.6348 z m -50.8781,0.4377 c 0,-0.3635 -0.3922,-1.9735 -0.8716,-3.5778 -2.6856,-8.9885 -5.6214,-28.2864 -4.8872,-32.1268 0.1647,-0.8618 0.1105,-2.3204 -0.1208,-3.2413 l -0.4202,-1.6744 -1.5808,1.7049 c -0.9498,1.0243 -1.9593,1.5596 -2.529,1.341 -0.5215,-0.2 -1.3341,-0.043 -1.806,0.3482 -0.5216,0.4329 -1.8124,0.5593 -3.294,0.3224 -2.2804,-0.3647 -2.46,-0.2802 -2.8093,1.3209 -0.7584,3.4774 4.2354,19.6877 8.2903,26.9104 2.2832,4.0671 3.6571,5.7561 5.947,7.3111 3.1393,2.1319 4.0816,2.4462 4.0816,1.3614 z m 58.4885,-0.6032 c 0,-0.8019 -1.7728,-1.5262 -2.3421,-0.9568 -0.232,0.232 -0.011,0.6823 0.4935,1.0007 1.2043,0.7617 1.8486,0.7464 1.8486,-0.044 z m -37.9556,-5.7359 c -2e-4,-0.086 -0.5409,-1.5556 -1.2015,-3.2667 -2.3666,-6.1296 -8.3965,-17.5005 -11.5485,-21.7776 -1.7654,-2.3955 -4.8087,-6.5955 -6.763,-9.3333 -5.3336,-7.472 -6.1574,-8.3386 -8.3439,-8.7759 -1.5863,-0.3172 -2.0092,-0.1947 -2.0092,0.5817 0,1.3521 2.8205,5.4169 4.8984,7.0592 0.942,0.7446 2.5293,2.5646 3.5272,4.0444 0.998,1.4798 2.7388,3.8496 3.8684,5.2661 1.1297,1.4166 2.6999,3.7966 3.4895,5.2889 6.8243,12.9001 10.2347,19.1081 11.1467,20.2909 0.4926,0.6389 2.9369,1.1569 2.9359,0.6223 z m 24.7544,-4.8499 c 2.4926,-0.7718 4.6782,-1.6398 4.8569,-1.9289 0.4877,-0.7893 -2.3215,-8.0718 -3.2515,-8.4287 -0.4443,-0.1704 -2.5417,0.5565 -4.6609,1.6155 -2.2423,1.1205 -4.8241,1.9254 -6.1759,1.9254 -2.4719,0 -3.0783,0.6986 -3.0783,3.5463 0,1.0074 0.887,2.4648 2.4532,4.0311 2.3078,2.3077 2.5386,2.3996 3.8889,1.548 0.7896,-0.498 3.475,-1.5369 5.9676,-2.3087 z m 15.6972,-5.2994 c 20.7505,-9.0245 50.2938,-18.3172 58.234,-18.3172 l 3.3585,0 -0.011,-2.6444 c 0,-1.4545 -0.6523,-4.0371 -1.4396,-5.7391 l -1.4314,-3.0947 -5.2494,0.1965 c -3.0027,0.1124 -6.714,0.6973 -8.6716,1.3665 -1.8821,0.6435 -6.2221,1.8697 -9.6444,2.7249 -7.7761,1.9432 -14.4192,4.2178 -25.347,8.6788 -4.7008,1.9191 -8.9008,3.4922 -9.3331,3.4958 -1.6194,0.013 -11.3713,5.4547 -11.5681,6.4546 -0.2805,1.4243 3.0371,9.7165 3.8874,9.7165 0.3776,0 3.6232,-1.2772 7.2126,-2.8382 z m -19.4518,-5.572 c 1.297,-0.5189 2.7253,-1.5312 3.1738,-2.2495 0.7125,-1.1409 0.5698,-1.8053 -1.1292,-5.2564 -1.0696,-2.1728 -3.2198,-7.1105 -4.7781,-10.9726 -1.5582,-3.8622 -4.0901,-10.1021 -5.6263,-13.8666 -1.5363,-3.7644 -4.8419,-12.4443 -7.3461,-19.2887 -5.2168,-14.259 -8.5986,-23.2252 -12.4384,-32.9776 -1.4822,-3.7644 -3.1526,-8.4676 -3.7121,-10.4516 -0.5594,-1.984 -1.3581,-3.7381 -1.7749,-3.8981 -0.4168,-0.1599 -1.8644,0.2734 -3.2167,0.9629 -1.3524,0.6894 -2.8325,1.2536 -3.2889,1.2536 -0.5845,0 -0.7393,0.5981 -0.5232,2.0222 0.1688,1.1122 0.4738,3.2683 0.6778,4.7913 0.2039,1.523 0.5951,3.063 0.8692,3.4222 0.2741,0.3592 0.8702,2.0531 1.3246,3.7642 0.4545,1.7111 1.365,4.371 2.0236,5.911 0.6586,1.54 2.2618,5.74 3.5628,9.3333 1.301,3.5933 3.0532,8.3533 3.8939,10.5777 0.8405,2.2245 2.5695,6.8444 3.8421,10.2666 1.2725,3.4222 2.8931,7.4822 3.6012,9.0222 0.708,1.54 2.0603,4.8999 3.0051,7.4666 0.9447,2.5666 2.8957,7.6066 4.3355,11.1999 1.4398,3.5933 3.0358,7.9333 3.5468,9.6444 1.1988,4.0147 5.146,10.1871 6.5431,10.232 0.592,0.019 2.1374,-0.39 3.4344,-0.909 z m 16.4939,-8.2706 c 4.5561,-1.7303 4.7943,-2.2346 2.2961,-4.8624 -2.5114,-2.6421 -7.0427,-4.8255 -12.2436,-5.8997 -6.3297,-1.3074 -7.0564,-0.1184 -3.7938,6.2078 1.4012,2.7169 2.2593,3.7453 2.9556,3.5419 0.5396,-0.1575 2.381,0.2216 4.0921,0.8425 1.7111,0.6209 3.2511,1.1661 3.4222,1.2116 0.1711,0.046 1.6433,-0.4233 3.2714,-1.0417 z m 17.5729,-7.2664 c 5.8703,-2.7356 11.7501,-4.605 30.4886,-9.6931 2.3956,-0.6504 5.2473,-1.1874 6.3373,-1.1933 1.0899,-0.01 2.6974,-0.2827 3.5723,-0.6154 1.3452,-0.5114 1.504,-0.8235 1.0283,-2.0222 -0.7501,-1.8907 -2.5365,-9.2985 -3.2677,-13.5507 -0.8042,-4.6771 -0.6659,-26.8479 0.1887,-30.2419 0.7123,-2.8291 0.4611,-12.7581 -0.3723,-14.7133 -0.3274,-0.768 -0.1803,-1.0889 0.499,-1.0889 1.5614,0 1.8403,1.0868 2.0413,7.9526 0.1047,3.5842 0.3327,6.6589 0.5064,6.8325 0.6444,0.6445 3.982,-1.2465 6.1218,-3.4686 2.5888,-2.6883 6.3779,-9.6699 5.7763,-10.6432 -0.7026,-1.1369 -2.0406,-0.7485 -2.5032,0.7267 l -0.4391,1.4 -0.446,-1.5556 c -0.376,-1.3114 -0.8206,-1.5555 -2.8327,-1.5555 -1.5385,0 -2.5213,-0.3317 -2.7653,-0.9333 -0.7103,-1.7514 -4.8678,-7.7741 -6.4428,-9.3333 -0.8643,-0.8555 -3.2833,-3.0924 -5.3757,-4.9708 -2.0924,-1.8784 -3.8043,-3.8203 -3.8043,-4.3154 0,-0.4951 -0.5248,-1.4782 -1.1663,-2.1847 -1.6707,-1.8401 -3.978,-9.0071 -3.5649,-11.073 0.3767,-1.8833 0.2593,-1.9862 -1.3439,-1.1778 -0.5943,0.2996 -2.7604,1.0236 -4.8138,1.6088 -2.0532,0.5853 -5.1333,1.7816 -6.8443,2.6586 -1.7111,0.877 -4.8189,2.463 -6.906,3.5244 -2.0872,1.0615 -4.7157,2.63 -5.8413,3.4855 -2.9109,2.2126 -8.4911,7.8368 -11.2952,11.3844 -2.6943,3.4084 -2.636,3.8711 1.0007,7.9405 3.218,3.601 7.109,11.3011 9.8167,19.4269 2.2143,6.6454 2.5408,8.3483 2.5905,13.5145 0.051,5.261 -0.1322,6.2962 -1.6625,9.4124 -2.2451,4.5714 -4.0824,6.3296 -9.0839,8.6927 -3.8815,1.834 -4.4065,1.9237 -9.1023,1.5557 -2.7407,-0.2148 -6.3259,-0.5556 -7.9671,-0.7573 -2.5771,-0.3167 -3.3194,-0.1343 -5.4444,1.3383 -1.4628,1.0138 -2.4604,2.2045 -2.4604,2.9367 0,0.6774 0.959,3.2794 2.131,5.7822 1.1721,2.5029 1.9927,5.0801 1.8235,5.7272 -0.4197,1.6049 0.7837,2.4015 4.3256,2.8634 7.8858,1.0283 13.8786,4.4082 15.7478,8.8816 l 0.844,2.0198 3.8972,-1.5642 c 2.1434,-0.8603 5.2972,-2.2165 7.0084,-3.0139 z m 44.7996,-63.7855 c 0.2116,-0.3422 0.6481,-0.6223 0.9701,-0.6223 0.322,0 0.5855,0.2801 0.5855,0.6223 0,0.3422 -0.4365,0.6222 -0.97,0.6222 -0.5335,0 -0.797,-0.28 -0.5856,-0.6222 z m -129.7489,60.71 c 0.7712,-2.0285 0.087,-5.878 -1.1576,-6.5189 -0.552,-0.2841 -2.0193,-0.6997 -3.2607,-0.9235 -1.99,-0.3587 -2.3019,-0.2395 -2.636,1.007 -0.7346,2.7422 -0.378,4.4754 1.2762,6.202 2.1763,2.2716 4.9604,2.384 5.7781,0.2334 z m 50.8133,-4.5549 c -0.2114,-1.2833 -1.0805,-4.0133 -1.9314,-6.0666 -0.851,-2.0533 -1.5538,-4.0833 -1.562,-4.511 -0.024,-1.2715 -1.0864,-0.8835 -1.4566,0.5319 -0.1884,0.7203 0.098,2.3303 0.636,3.5777 0.9675,2.2428 1.1999,2.8296 2.6852,6.7791 1.0517,2.7966 2.1073,2.5949 1.6288,-0.3111 z m -46.8799,-21.9331 c -0.1619,-2.5667 -0.013,-7.3267 0.3306,-10.5777 0.3438,-3.2511 0.4299,-6.1159 0.1915,-6.3661 -0.2383,-0.2503 -1.2647,-0.6213 -2.2806,-0.8245 l -1.8473,-0.3695 0.065,14.1539 c 0.065,14.1464 0.065,14.1546 1.5556,15.366 l 1.491,1.2119 0.3944,-3.9637 c 0.217,-2.18 0.262,-6.0637 0.1004,-8.6303 z m 46.085,2.4195 c 3.333,-2.3237 5.8866,-2.6051 14.093,-1.5531 3.3058,0.4238 4.5075,0.3193 6.5334,-0.5684 1.3652,-0.5982 3.0277,-1.1473 3.6944,-1.2202 0.6667,-0.073 2.5176,-1.5522 4.1131,-3.2873 2.4296,-2.6423 2.9721,-3.6912 3.3388,-6.4562 0.78,-5.8796 -1.2162,-13.7227 -5.9162,-23.2452 -1.3514,-2.7378 -2.4524,-5.4004 -2.4468,-5.917 0.011,-0.5165 -0.5433,-1.2848 -1.2197,-1.7072 -0.6764,-0.4224 -1.7716,-1.8198 -2.4337,-3.1052 -0.662,-1.2855 -3.0644,-4.1355 -5.3386,-6.3334 -3.868,-3.7381 -4.3517,-4.0141 -7.4932,-4.2746 -1.8469,-0.1532 -4.0781,-0.098 -4.9581,0.1231 -2.2295,0.5596 -6.3589,4.4286 -8.8182,8.262 -1.138,1.774 -3.2275,4.154 -4.6433,5.2889 -1.4156,1.1349 -3.7603,3.1134 -5.2101,4.3967 -1.4499,1.2834 -3.0947,2.3333 -3.6554,2.3333 -0.7131,0 -1.0193,0.5496 -1.0193,1.83 0,2.5721 0.6773,2.7286 4.049,0.9359 6.4624,-3.4361 12.7509,-8.9569 12.7509,-11.1943 0,-0.527 1.2759,-2.322 2.8351,-3.989 2.4326,-2.6007 3.2759,-3.0915 5.9414,-3.4581 2.7376,-0.3765 3.4169,-0.2243 5.7205,1.2813 3.4504,2.2552 5.3652,4.5009 9.2281,10.8231 6.548,10.7166 9.292,19.5335 8.3718,26.899 -0.4993,3.9952 -0.5158,4.0233 -4.2904,7.2728 -3.4789,2.9948 -5.5791,3.2606 -12.2526,1.5506 -2.5167,-0.6448 -4.8934,-0.8776 -6.2882,-0.616 -3.352,0.6289 -7.678,3.7985 -9.891,7.2472 -2.3269,3.6262 -1.9201,5.5458 0.5647,2.6642 0.8888,-1.031 2.9772,-2.8233 4.6406,-3.9829 z m 82.2195,-15.6273 c 2.7705,-0.7741 5.6693,-2.6682 9.1962,-6.0088 1.8081,-1.7126 2.7188,-3.381 3.9392,-7.2165 1.3889,-4.3653 1.5376,-5.65 1.1896,-10.2778 -0.5033,-6.6948 -1.7162,-11.0877 -4.4429,-16.0912 -3.0259,-5.5526 -5.5975,-8.5735 -9.6447,-11.3297 -3.4868,-2.3745 -6.7911,-3.6812 -6.748,-2.6686 0.012,0.2938 1.2656,1.3217 2.7848,2.2842 1.5193,0.9625 3.399,2.5756 4.1773,3.5847 0.7783,1.0091 2.7133,3.4446 4.3001,5.4122 3.2673,4.0514 4.5087,6.692 5.8351,12.4114 1.2616,5.4398 1.1598,10.4954 -0.2966,14.7284 -3.0403,8.8367 -5.3363,10.8368 -15.4235,13.4352 -2.9143,0.7507 -3.3815,1.6451 -1.2676,2.4271 1.4503,0.5365 2.3608,0.4382 6.401,-0.6906 z m -127.9888,-7.8153 c -0.1588,-0.825 -1.2332,-1.0103 -6.2565,-1.0789 -5.4589,-0.074 -6.0649,0.029 -6.0649,1.0385 0,0.8832 0.3634,1.0559 1.7111,0.8133 0.9411,-0.1695 3.5312,-0.075 5.7555,0.2099 4.5161,0.5784 5.1316,0.4538 4.8548,-0.9828 z m 0.8761,-7.3631 c 0.2432,-2.4369 0.8238,-5.5387 1.2904,-6.8929 l 0.8483,-2.4621 -3.182,-0.084 c -3.1448,-0.083 -3.1837,-0.061 -3.3318,1.8825 -0.083,1.0815 -0.2625,2.079 -0.4003,2.2167 -0.541,0.5411 -1.5777,-0.6357 -1.5777,-1.7908 0,-1.5621 -2.957,-3.0725 -3.6909,-1.8852 -0.7982,1.2915 -1.3167,9.8644 -0.6956,11.4983 0.7527,1.9798 1.4477,2.2095 6.2532,2.0675 l 4.0444,-0.1196 0.442,-4.4307 z m 23.2602,-10.5119 c 0.2701,-1.076 -0.2961,-3.1687 -1.8128,-6.6991 -1.2131,-2.8238 -2.6607,-6.5296 -3.2169,-8.235 -0.5561,-1.7054 -1.1453,-3.5005 -1.3091,-3.989 -0.2538,-0.7563 -0.4392,-0.7473 -1.2471,0.061 -0.8506,0.8506 -0.811,1.3624 0.3808,4.9327 2.3585,7.0649 5.7907,15.4947 6.3086,15.4947 0.2771,0 0.6805,-0.7042 0.8965,-1.565 z m -21.2521,-3.8794 c 0.1989,-1.9678 0.6289,-5.225 0.9556,-7.2383 0.8208,-5.0581 0.3902,-5.6087 -5.044,-6.4498 -2.4856,-0.3848 -4.7176,-0.577 -4.96,-0.4272 -1.1278,0.697 -2.0768,17.0708 -0.9893,17.0708 0.3549,0 1.1319,-0.4405 1.7267,-0.9788 0.9919,-0.8975 1.1155,-0.8717 1.491,0.3111 0.3401,1.072 0.9203,1.2899 3.4337,1.2899 l 3.0244,0 z m 28.3598,-0.3141 c 1.2033,-1.1106 3.8119,-4.3284 5.797,-7.1506 3.8773,-5.5126 6.9203,-7.8242 11.3039,-8.5865 2.8644,-0.4981 5.1699,-2.4403 7.8445,-6.6084 1.809,-2.819 8.5166,-8.7802 11.7553,-10.4472 0.8556,-0.4403 2.2556,-1.4488 3.1112,-2.2411 0.8554,-0.7923 3.5854,-2.4419 6.0665,-3.6658 2.4811,-1.224 4.5111,-2.5248 4.5111,-2.8909 0,-0.366 -0.35,-0.5204 -0.7778,-0.343 -2.1704,0.9001 -10.2638,2.9644 -13.8443,3.5313 -4.3081,0.682 -11.9485,2.7521 -14.9332,4.046 -2.4611,1.0668 -11.7647,4.6353 -19.5999,7.5177 -5.2912,1.9466 -14.311,6.4465 -14.311,7.1398 0,0.2991 0.6845,2.2994 1.5211,4.445 0.8367,2.1456 2.2841,6.0012 3.2165,8.5678 2.9864,8.2204 3.2548,8.7113 4.7596,8.7081 0.7654,0 2.3762,-0.9116 3.5795,-2.0222 z m 35.2745,-14.5496 c 5.4677,-7.5738 10.3519,-11.5491 20.4038,-16.6066 7.3909,-3.7186 15.2684,-6.0184 20.615,-6.0184 1.7968,0 3.4149,-0.2393 3.5956,-0.5317 0.4247,-0.6872 -1.8377,-2.745 -4.6107,-4.1938 -2.847,-1.4875 -11.2569,-1.5532 -14.011,-0.1095 -1.0329,0.5414 -2.5729,0.8532 -3.4223,0.693 -0.9812,-0.1852 -2.9055,0.4286 -5.2776,1.6832 -2.0534,1.086 -4.8534,2.5469 -6.2223,3.2464 -1.3688,0.6995 -3.7488,2.2888 -5.2888,3.5318 -1.5399,1.2429 -4.2372,3.2993 -5.9937,4.5697 -4.8608,3.5155 -10.8248,10.7142 -10.7965,13.0317 0.011,0.6763 6.3134,4.6563 7.5862,4.7888 0.2423,0.025 1.7823,-1.8129 3.4223,-4.0846 z m -56.7511,1.0193 c 0.2115,-0.3422 0.1047,-0.6222 -0.2377,-0.6222 -0.3422,0 -0.7953,0.28 -1.0067,0.6222 -0.2116,0.3422 -0.1048,0.6222 0.2376,0.6222 0.3422,0 0.7952,-0.28 1.0068,-0.6222 z m 0.1317,-2.2095 c 3.3488,-0.5182 4.479,-1.7333 3.0652,-3.2956 -0.5605,-0.6194 -1.0192,-1.3368 -1.0192,-1.5942 0,-0.2575 -1.0034,-2.4674 -2.2297,-4.911 -1.575,-3.1383 -2.1598,-5.042 -1.9917,-6.4829 0.3181,-2.7241 -0.4126,-2.6223 -5.4566,0.76 -2.2966,1.54 -4.8042,2.8 -5.5725,2.8 -1.9114,0 -2.5668,1.0665 -2.6594,4.3287 -0.1165,4.1014 1.6948,7.7248 4.2911,8.5843 2.0687,0.6849 6.38,0.6144 11.5728,-0.1893 z m 6.0503,-7.0257 c 0.7065,-0.6305 2.9645,-1.778 5.0179,-2.55 2.0533,-0.772 6.5333,-2.6025 9.9554,-4.0678 3.4223,-1.4653 8.4622,-3.3827 11.2,-4.2608 2.7377,-0.8782 8.317,-2.7572 12.3984,-4.1757 12.2775,-4.2671 19.6717,-6.2754 25.2458,-6.8571 2.9088,-0.3035 6.7819,-0.8368 8.6067,-1.185 1.8249,-0.3483 5.0773,-0.6713 7.2275,-0.718 l 3.9094,-0.085 -0.5022,-1.6327 c -0.2763,-0.898 -0.7924,-2.7644 -1.1469,-4.1475 -0.3546,-1.3831 -1.461,-3.2967 -2.4587,-4.2526 l -1.814,-1.7379 -4.8887,0.7122 c -2.6888,0.3917 -7.4088,1.2686 -10.4887,1.9488 -3.08,0.6802 -7,1.5427 -8.711,1.9166 -3.8687,0.8455 -12.191,3.5218 -13.0499,4.1967 -0.3514,0.2761 -1.6189,0.6795 -2.8167,0.8964 -1.1977,0.2169 -3.5552,1.0934 -5.2388,1.9478 -1.6834,0.8543 -3.6574,1.5534 -4.3865,1.5534 -0.7291,0 -1.6275,0.3018 -1.9963,0.6706 -0.3688,0.3688 -1.6148,0.9003 -2.7689,1.181 -1.154,0.2808 -4.0583,1.2707 -6.4538,2.1998 -2.3956,0.9291 -5.4755,2.015 -6.8444,2.413 -4.5624,1.3265 -8.6973,3.0642 -9.9639,4.1873 -0.6891,0.6111 -2.2992,1.5482 -3.5778,2.0824 -1.2787,0.5343 -2.3249,1.3823 -2.3249,1.8846 0,0.9979 3.8189,9.0256 4.2935,9.0256 0.1611,0 0.871,-0.5159 1.5775,-1.1464 z m 4.0846,-9.0422 c 0,-1.8667 0.8032,-2.4797 2.5306,-1.9314 1.956,0.6208 1.3531,3.0447 -0.8195,3.2947 -1.464,0.1685 -1.7111,-0.028 -1.7111,-1.3633 z m 13.2885,-5.0637 c -0.5074,-1.3222 0.9744,-2.8878 2.5236,-2.6665 0.8956,0.128 1.36,0.7167 1.4957,1.8967 0.1773,1.5408 0,1.7111 -1.7306,1.7111 -1.1466,0 -2.0738,-0.3814 -2.2887,-0.9413 z m 13.117,-4.0992 c -0.2329,-0.3768 0.1694,-1.2779 0.894,-2.0025 1.1867,-1.1866 1.4128,-1.2222 2.2762,-0.3588 0.5428,0.5428 0.7849,1.4114 0.5581,2.0025 -0.4477,1.1669 -3.0727,1.4195 -3.7283,0.3588 z m 13.0379,-3.3109 c -0.5675,-1.4785 0.9125,-3.4708 2.5781,-3.4708 1.0999,0 1.5337,0.3394 1.5337,1.2 0,2.3909 -3.3548,4.2437 -4.1118,2.2708 z m 13.8599,-3.2634 c -0.9388,-0.9387 -0.3743,-3.2475 0.8922,-3.6494 1.909,-0.6059 2.8068,0.5563 1.9249,2.4918 -0.6886,1.5114 -1.9465,2.0283 -2.8171,1.1576 z m 11.0417,-2.3028 c -0.6416,-1.6718 0.03,-3.1881 1.5039,-3.3979 1.2846,-0.1828 1.4156,0.014 1.2381,1.8616 -0.2132,2.2173 -2.0795,3.2629 -2.742,1.5363 z m 9.3131,-1.9192 c -0.4379,-1.141 0.1994,-2.2076 1.3191,-2.2076 1.2806,0 1.7657,1.1748 0.9107,2.2051 -0.9572,1.1534 -1.7879,1.1543 -2.2298,0 z m 21.4868,28.4367 c 3.4062,-1.9387 1.9001,-2.8476 -1.7233,-1.04 -1.0828,0.5401 -1.8092,1.2401 -1.6143,1.5555 0.5069,0.8204 1.1704,0.7179 3.3376,-0.5155 z m 9.5299,-2.3718 c 0.7852,-0.7853 -1.7412,-5.4844 -3.5376,-6.5799 -2.4156,-1.4731 -3.7017,-1.5009 -3.2514,-0.071 1.4384,4.5691 2.2924,6.0897 3.6315,6.4659 1.9738,0.5545 2.7426,0.5994 3.1575,0.1844 z m -10.8756,-0.6758 c 3.7833,-0.4544 4.0834,-1.2086 1.7161,-4.3122 -2.0682,-2.7118 -4.9732,-4.1122 -7.5333,-3.632 -1.9249,0.3612 -2.0021,0.4839 -1.6682,2.6519 0.4903,3.1843 1.8792,5.6964 3.146,5.69 0.59,0 2.5429,-0.1819 4.3394,-0.3977 z m -114.4632,-5.1756 c 1.2697,-0.6728 3.0045,-1.7738 3.8551,-2.4465 l 1.5464,-1.2233 -1.4222,-2.3757 c -0.7821,-1.3066 -1.9581,-3.5656 -2.6132,-5.0201 -0.6551,-1.4544 -1.488,-2.6444 -1.851,-2.6444 -1.5069,0 -9.4282,4.4713 -9.1553,5.168 0.1601,0.4087 1.2015,2.7731 2.3143,5.2542 2.2835,5.0912 3.1709,5.4895 7.3259,3.2878 z m 8.2197,-5.8561 c 0,-0.4714 -0.3594,-1.1553 -0.7984,-1.5196 -0.439,-0.3644 -1.489,-2.4969 -2.3333,-4.7388 -1.3378,-3.5525 -2.4683,-5.1874 -2.4683,-3.5693 0,1.1069 2.909,8.7584 3.6855,9.6941 1.011,1.2181 1.9145,1.2812 1.9145,0.1336 z m 76.8438,-4.7428 c 0.4866,-0.7875 -0.3371,-0.7875 -1.5556,0 -0.8043,0.5198 -0.7879,0.6045 0.1189,0.6127 0.5787,0 1.2252,-0.2705 1.4367,-0.6127 z m -89.0545,-3.4144 c 3.1584,-1.3968 3.4995,-1.7344 3.4995,-3.4635 0,-1.7216 -0.1728,-1.8959 -1.7057,-1.7189 -1.1388,0.1314 -1.7713,0.6105 -1.9031,1.4413 -0.4472,2.8204 -0.6596,3.0001 -2.2866,1.934 -2.8725,-1.882 -5.8654,-0.6373 -5.0028,2.0805 0.5547,1.7477 3.0359,1.656 7.3987,-0.2734 z m 6.9565,-6.2634 c -0.2212,-1.1794 -0.6626,-2.1444 -0.9807,-2.1444 -0.5436,0 -0.2807,2.9095 0.45,4.9778 0.5779,1.6358 0.9732,-0.4747 0.5307,-2.8334 z m -9.23,-0.7243 c 0.2645,-0.6893 0.9757,-0.8191 2.9061,-0.5305 l 2.5558,0.3821 0.108,-5.3293 c 0.1026,-5.0773 0.048,-5.3105 -1.1423,-4.9325 -3.3233,1.0548 -8.0601,3.6069 -8.6134,4.6409 -0.6643,1.2412 -0.8575,7.0143 -0.2549,7.6169 0.5897,0.5897 4.0595,-0.854 4.4407,-1.8476 z m 9.765,-4.3077 c 0.5008,-1.3049 -0.1667,-3.4648 -0.9257,-2.9957 -0.7396,0.4571 -0.7589,4.0167 -0.022,4.0167 0.3056,0 0.732,-0.4595 0.9474,-1.021 z m -9.8268,-5.5972 c 4.3505,-2.1164 6.0894,-3.3036 6.5279,-4.4569 1.0998,-2.8927 -0.282,-2.9452 -5.8555,-0.2222 -2.883,1.4085 -5.5383,2.9182 -5.9007,3.3548 -0.815,0.982 -1.6653,4.2092 -1.109,4.2092 0.2238,0 3.0757,-1.2982 6.3373,-2.8849 z m 11.9451,-3.1909 c 0.122,-0.8555 -0.1954,-1.5478 -0.8195,-1.7873 -1.4026,-0.5383 -2.2128,0.4464 -1.7677,2.1484 0.472,1.8048 2.315,1.5476 2.5872,-0.3611 z m -9.8566,-3.7411 c 0.8483,-0.537 2.6684,-1.3083 4.0445,-1.7142 2.3527,-0.6939 2.5981,-0.9981 4.1161,-5.1046 1.705,-4.6124 3.3282,-7.3149 6.3163,-10.5162 1.016,-1.0886 1.5499,-2.1202 1.2071,-2.3321 -1.2063,-0.7455 -9.6166,3.2564 -12.2263,5.8177 -2.9706,2.9153 -6.8801,9.8348 -7.5214,13.3121 -0.4267,2.3139 -0.3889,2.3851 1.0393,1.9574 0.8149,-0.2441 2.176,-0.8832 3.0244,-1.4201 z M 41.4769,208.05885 c -0.2343,-0.3792 -0.33,-2.284 -0.2126,-4.2328 0.1753,-2.9084 0.046,-3.5002 -0.7197,-3.3027 -3.1149,0.803 -3.7333,0.7945 -3.7333,-0.051 0,-1.0714 3.2862,-3.6117 4.6723,-3.6117 0.5443,0 1.8416,-0.4407 2.8831,-0.9793 1.0414,-0.5385 1.9962,-0.8765 2.1216,-0.751 0.1255,0.1255 -0.341,2.0361 -1.0366,4.2458 -0.6957,2.2098 -1.4584,5.1157 -1.6949,6.4577 -0.4338,2.4617 -1.4941,3.4965 -2.2799,2.2251 z m 19.3172,-9.2454 c -0.5316,-1.6748 1.7794,-9.6635 4.9297,-17.0417 0.7248,-1.6974 -0.9414,-1.3451 -3.8886,0.8223 -2.4194,1.7792 -3.8685,1.9707 -3.8685,0.5111 0,-0.9425 3.047,-3.4532 6.8444,-5.6399 1.8822,-1.0838 4.5422,-2.9819 5.911,-4.218 3.683,-3.3256 14.6222,-8.2615 14.6222,-6.5976 0,0.5368 -1.638,2.211 -2.1632,2.211 -0.212,0 -1.8643,0.946 -3.6717,2.1022 -1.8074,1.1562 -3.8908,2.2941 -4.6299,2.5286 -3.4405,1.092 -11.4563,17.2217 -11.536,23.2135 -0.035,2.6565 -0.2432,3.2667 -1.1127,3.2667 -0.5881,0 -1.2346,-0.5212 -1.4367,-1.1582 z m -13.4052,-6.8854 c 0,-1.2587 4.0698,-5.023 5.4307,-5.023 1.2806,0 0.9205,1.2137 -1.1274,3.7993 -2.0662,2.6089 -4.3033,3.245 -4.3033,1.2237 z m 54.36984,-11.009 c -1.0275,-4.0936 3.2412,-18.0829 7.5584,-24.7701 2.3879,-3.6988 5.6294,-6.8886 7.6048,-7.4836 0.77,-0.2319 1.4,-0.2877 1.4,-0.1239 0,0.1638 -1.47,1.8105 -3.2667,3.6592 -5.5257,5.6859 -9.6322,15.1547 -11.2054,25.8378 -0.6915,4.696 -1.393,5.6622 -2.0911,2.8806 z M 86.5887,165.86485 c 0,-0.6118 4.0397,-2.6041 5.2801,-2.6041 0.48534,0 1.70834,-1.2006 2.71794,-2.6679 2.1567,-3.1347 6.5933,-5.7458 10.8241,-6.3703 4.2081,-0.6213 3.7316,0.5003 -0.9334,2.197 -2.9462,1.0716 -4.6549,2.223 -7.0492,4.75 -1.8179,1.9187 -3.7019,3.3356 -4.4351,3.3356 -0.7011,0 -2.27984,0.42 -3.50854,0.9334 -2.5703,1.0739 -2.8959,1.1219 -2.8959,0.4263 z m 28.62204,-2.3493 c 0,-0.8589 5.8286,-7.0992 6.6308,-7.0992 1.1846,0 0.3572,1.4303 -2.7894,4.8222 -2.1786,2.3485 -3.8414,3.3341 -3.8414,2.277 z m 124.7959,-9.2773 c -3.0815,-3.0815 -5.1029,-6.3312 -5.9512,-9.5676 -1.1885,-4.5345 0.2163,-4.4242 2.3739,0.1864 1.9124,4.0869 5.03,8.7173 5.5314,8.2159 0.1463,-0.1464 -0.5211,-1.764 -1.4832,-3.5947 -0.9622,-1.8307 -1.8444,-3.5385 -1.9604,-3.7952 -0.1161,-0.2566 0.3024,-0.4587 0.9298,-0.449 1.7166,0.027 5.3145,6.3052 5.0689,8.8456 -0.2719,2.8117 -1.8023,2.8656 -4.5092,0.1586 z m -122.307,-0.2812 c 0,-1.3748 6.3623,-6.7934 10.5771,-9.0083 3.7974,-1.9955 5.2082,-2.405 8.4844,-2.4629 4.2646,-0.075 5.6109,0.9157 2.0939,1.5413 -1.1977,0.2131 -3.5778,0.9485 -5.2888,1.6343 -1.7112,0.6858 -3.4717,1.1194 -3.9123,0.9635 -1.064,-0.3764 -7.0808,3.8074 -8.7792,6.1046 -1.2883,1.7426 -3.1751,2.472 -3.1751,1.2275 z m 95.5618,-1.8962 c -0.1937,-0.5134 -0.1446,-3.1734 0.1091,-5.9111 0.4289,-4.6262 0.5671,-4.9926 1.9548,-5.1888 1.4568,-0.2059 1.4835,-0.13 1.0943,3.1111 -0.2194,1.8272 -0.4015,3.9211 -0.4044,4.6532 0,0.7321 -0.5446,1.9921 -1.2037,2.8 -0.9637,1.1815 -1.267,1.2863 -1.5504,0.5356 z m 6.5136,-2.7407 c -0.8505,-1.5892 -0.478,-2.8593 0.8385,-2.8593 0.9371,0 2.4177,2.944 1.901,3.78 -0.6403,1.036 -1.9229,0.6049 -2.7395,-0.9207 z m 4.4455,-7.0593 c -4.6462,-4.7224 -5.9501,-6.3777 -5.024,-6.3777 0.688,0 1.762,0.2735 2.3867,0.6079 1.7346,0.9283 9.4805,10.5486 9.1781,11.399 -0.1464,0.4117 -3.0898,-2.1214 -6.5408,-5.6292 z m -12.0176,5.1333 c -0.2117,-0.3422 -0.7395,-1.7422 -1.1728,-3.1111 -1.034,-3.2663 -3.3247,-7.1789 -5.2767,-9.0128 -0.861,-0.8089 -1.5655,-1.8381 -1.5655,-2.2872 0,-1.2354 -4.3265,-2.8764 -5.3481,-2.0285 -0.4507,0.3741 -1.1118,0.4996 -1.469,0.2788 -1.0658,-0.6587 -0.7448,-2.3878 0.8903,-4.7939 1.7857,-2.6279 2.8963,-6.8508 2.1228,-8.0714 -0.2928,-0.4622 -0.5367,-2.1922 -0.542,-3.8444 -0.011,-2.8976 -2.2409,-16.9203 -2.8496,-17.9053 -0.4473,-0.7236 2.0037,-11.4048 3.1064,-13.537 0.5283,-1.0217 1.4005,-4.5918 1.9382,-7.9336 0.5379,-3.3418 1.0899,-6.2573 1.2268,-6.4789 0.137,-0.2217 0.02,-1.219 -0.2609,-2.2163 l -0.5101,-1.8134 -0.8577,1.8667 c -0.4718,1.0267 -3.2219,5.2266 -6.1111,9.3333 -7.995,11.3636 -9.7446,14.0798 -12.7957,19.8646 -3.4673,6.5742 -6.7345,16.1733 -6.3639,18.6979 0.1497,1.0203 0.022,5.4672 -0.2834,9.882 -0.5436,7.8544 -0.5968,8.0655 -2.4678,9.8133 -2.363,2.2074 -3.025,2.2451 -3.025,0.1724 0,-1.1013 -0.4033,-1.7193 -1.2699,-1.9459 -1.8832,-0.4925 -1.1153,-1.6843 1.3147,-2.0403 2.6609,-0.3898 2.8928,-1.2986 2.9927,-11.7303 0.064,-6.7123 0.3025,-8.3691 1.8803,-13.0783 2.4041,-7.1761 6.7144,-15.8551 10.0801,-20.2969 7.5148,-9.9175 10.7555,-14.7121 12.7257,-18.8274 2.1975,-4.59 2.7272,-4.9678 5.4912,-3.9169 1.7364,0.6601 2.8829,4.4142 1.7684,5.7904 -0.3433,0.424 -0.9693,3.8509 -1.3911,7.6154 -0.4219,3.7644 -1.0486,7.5443 -1.3927,8.3999 -0.3439,0.8555 -0.885,2.6755 -1.202,4.0444 -1.5187,6.5544 -1.5553,7.8347 -0.3969,13.8595 1.894,9.8492 2.2847,17.494 1.0809,21.1418 -1.2175,3.6887 0.8383,4.6707 6.5691,3.138 2.4293,-0.6498 3.3758,-0.5804 7.1188,0.5219 l 4.317,1.2713 2.4157,-2.233 c 1.3287,-1.2282 3.3585,-3.633 4.5106,-5.3442 5.4894,-8.1524 11.8448,-15.6724 15.1923,-17.9762 3.7658,-2.5917 6.7505,-5.9465 7.5338,-8.468 1.7862,-5.7495 7.2127,-15.0139 10.1107,-17.2615 0.8095,-0.6279 1.2086,-0.5807 2.1287,0.2519 1.5535,1.4059 1.4498,2.561 -0.9972,11.1182 -3.0169,10.5495 -3.7642,14.7575 -2.9057,16.3617 0.7311,1.3661 0.4137,7.9734 -0.5731,11.9295 -1.861,7.461 -7.0358,18.7597 -9.8449,21.4957 -1.0705,1.0427 -2.3294,3.0027 -2.7973,4.3555 -1.0338,2.9886 -2.4549,3.4138 -3.9226,1.1739 -1.0905,-1.6644 -1.0851,-1.6831 1.0287,-3.5718 1.1687,-1.0442 2.7443,-2.8114 3.5015,-3.9272 2.0382,-3.0034 6.443,-11.5206 6.443,-12.4582 0,-0.4473 0.8492,-2.9509 1.887,-5.5635 1.46,-3.6753 1.725,-4.9453 1.171,-5.6128 -0.885,-1.0664 -0.3257,-8.742 1.061,-14.5581 1.698,-7.1225 3.2288,-12.7002 4.0489,-14.7539 0.4389,-1.0992 0.6162,-2.1803 0.394,-2.4026 -0.7069,-0.7069 -3.4888,2.8596 -4.5718,5.8611 -4.0286,11.165 -8.249,20.2987 -9.2788,20.0813 -0.3423,-0.072 -0.5348,-0.6787 -0.4276,-1.3476 0.4789,-2.9927 -4.5711,0.2323 -8.9874,5.7395 -4.9739,6.2024 -10.1653,13.8172 -10.1754,14.9257 0,0.5703 -0.7611,1.5844 -1.6796,2.2535 l -1.6702,1.2166 2.759,1.3383 c 4.3915,2.1301 5.7941,3.035 6.9987,4.515 0.6207,0.7626 1.7186,1.6835 2.4397,2.0464 2.072,1.0426 1.9578,2.037 -0.2747,2.3922 -1.4685,0.2337 -2.2598,0.034 -2.7926,-0.7032 -3.7925,-5.2504 -5.2546,-6.4418 -9.4168,-7.6728 -1.9407,-0.574 -5.1652,-1.5306 -7.1656,-2.1258 -2.9679,-0.8831 -4.0062,-0.9486 -5.6441,-0.3564 -1.1039,0.3992 -2.6006,0.7258 -3.3262,0.7258 -2.661,0 -2.3321,1.7955 1.1397,6.2222 2.329,2.9697 4.4512,8.1966 4.2044,10.3551 -0.1118,0.978 -0.3765,1.4982 -0.5883,1.1559 z m -25.937,-12.4217 c -1.3774,-1.4526 -1.3938,-1.5878 -0.4215,-3.4681 0.8843,-1.7098 0.8986,-2.0867 0.1139,-2.9888 -0.7507,-0.8631 -0.821,-2.9195 -0.4287,-12.5434 0.5445,-13.3597 1.5879,-18.8187 4.7976,-25.0989 2.6247,-5.1359 3.6687,-4.2642 1.145,0.956 -0.877,1.8142 -1.892,5.1186 -2.2554,7.343 -0.3634,2.2245 -0.9491,5.4444 -1.3016,7.1556 -0.441,2.141 -0.4386,4.9082 0.011,8.8748 0.5231,4.649 0.4785,6.2457 -0.2305,8.2554 -0.9656,2.7367 -0.6823,4.3363 0.768,4.3363 0.9374,0 0.901,1.4556 -0.095,3.8094 -0.3464,0.8184 -0.1212,0.951 1.189,0.7006 l 1.6162,-0.309 -1.3304,2.255 c -0.7318,1.2403 -1.5129,2.2502 -1.7358,2.2443 -0.2228,-0.01 -1.0501,-0.6909 -1.8383,-1.5222 z" id="path4339-88-7-4-9-1-5" inkscape:connector-curvature="0" style="fill:#a901ef;fill-opacity:1"/>
<rect height="486.97104" id="rect2985-3-0-7-7-6-9-6-2-0-3-5-4-5-0-77-3-1-3-5-5-4-3-9-7-0" inkscape:export-filename="/home/thomas/Documents/fallacies/png/rect2985-3-0-7-7.png" inkscape:export-xdpi="90" inkscape:export-ydpi="90" rx="9.2935619" ry="7.1613393" style="fill:#ffffff;fill-opacity:1;stroke:#a901ef;stroke-width:12;stroke-miterlimit:4;stroke-dasharray:none;stroke-dashoffset:0;stroke-opacity:1" width="285.0025" x="27.676758" y="26.257725"/>
<path d="m 303.87114,492.75106 0,-85.00001 c -13.2539,39.47621 -29.5078,65.45241 -71.9999,85.00001 z" id="path9668-2-7-0-6-6-9" inkscape:connector-curvature="0" sodipodi:nodetypes="cccc" style="fill:#a901ef;fill-opacity:1;fill-rule:evenodd;stroke:none"/>
<path d="m 36.485,35.70585 0,85 c 11.5446,-39.4762 25.7023,-65.4525 62.71433,-85 z" id="path9668-6-9-7-9" inkscape:connector-curvature="0" sodipodi:nodetypes="cccc" style="fill:#a901ef;fill-opacity:1;fill-rule:evenodd;stroke:none"/>
<rect height="15" id="sfam_1_active" inkscape:label="#rect13148-3-0-9-3-80-7-76" style="fill:#ffffff;fill-opacity:1;stroke:none;stroke-width:5.83799982;stroke-linecap:round;stroke-linejoin:bevel;stroke-miterlimit:4;stroke-dasharray:none;stroke-dashoffset:0;stroke-opacity:1;display:none;" transform="matrix(0,1,-1,0,0,0)" width="65.714287" x="424.52872" y="-35.178345"/>
<rect height="15" id="sfam_2_active" inkscape:label="#rect13148-3-0-9-3-80-7-76" style="fill:#ffffff;fill-opacity:1;stroke:none;stroke-width:5.83799982;stroke-linecap:round;stroke-linejoin:bevel;stroke-miterlimit:4;stroke-dasharray:none;stroke-dashoffset:0;stroke-opacity:1" transform="matrix(0,1,-1,0,0,0)" width="65.714287" x="233.33081" y="-35.178345"/>
<rect height="15" id="sfam_3_active" inkscape:label="#rect13148-3-0-9-3-80-7-76" style="fill:#ffffff;fill-opacity:1;stroke:none;stroke-width:5.83799982;stroke-linecap:round;stroke-linejoin:bevel;stroke-miterlimit:4;stroke-dasharray:none;stroke-dashoffset:0;stroke-opacity:1;display:none;" transform="matrix(0,1,-1,0,0,0)" width="65.714287" x="41.829155" y="-35.178345"/>
<text id="sfam_3" inkscape:label="#text4212-1-29-1-2-8-9-0-9-6-9-8-3-1-0-6-8-0-4-2-3-6-9-3-6-2" sodipodi:linespacing="0%" style="font-style:normal;font-variant:normal;font-weight:bold;font-stretch:normal;font-size:11.25px;line-height:0%;font-family:stix;-inkscape-font-specification:'stix, bold';text-align:end;letter-spacing:0px;word-spacing:0px;writing-mode:lr-tb;text-anchor:end;fill:#FFFFFF;fill-opacity:1;stroke:none" transform="matrix(0,-1,1,0,0,0)" x="-45.469135" xml:space="preserve" y="30.592529"><tspan id="tspan4214-27-1-2-9-7-6-4-1-1-1-3-9-59-96-1-6-2-1-8-8-2-7-4-5-4" sodipodi:role="line" style="font-style:normal;font-variant:normal;font-weight:bold;font-stretch:normal;font-size:11.25px;line-height:0%;font-family:stix;-inkscape-font-specification:'stix, bold';text-align:end;letter-spacing:0px;word-spacing:0px;writing-mode:lr-tb;text-anchor:end;fill:#FFFFFF;fill-opacity:1;stroke:none" x="-45.469135" y="30.592529">Surinterprétation</tspan></text>
<rect height="17.763229" id="rect5818-6-6-9" style="fill:#a901ef;fill-opacity:1;stroke:none" width="278.215" x="31.070435" y="495.40732"/>
<text id="fam_num" inkscape:label="#text5665-3-4-9-4-3-3-5-7-5-8-4-6-8-6-6-3-0" sodipodi:linespacing="0%" style="font-style:normal;font-weight:normal;line-height:0%;font-family:sans-serif;letter-spacing:0px;word-spacing:0px;fill:#000000;fill-opacity:1;stroke:none" x="41.492676" xml:space="preserve" y="513.47742"><tspan id="tspan5667-04-4-6-18-8-8-0-0-1-5-7-0-9-2-1-9-1" sodipodi:role="line" style="font-style:normal;font-variant:normal;font-weight:bold;font-stretch:normal;font-size:17.5px;line-height:1.25;font-family:STIX;-inkscape-font-specification:'STIX Bold';fill:#ffffff" x="41.492676" y="513.47742">1</tspan></text>
<text id="sfam_2" sodipodi:linespacing="0%" style="font-style:normal;font-variant:normal;font-weight:bold;font-stretch:normal;font-size:11.25px;line-height:0%;font-family:stix;-inkscape-font-specification:'stix, bold';text-align:center;letter-spacing:0px;word-spacing:0px;writing-mode:lr-tb;text-anchor:middle;fill:#120915;fill-opacity:1;stroke:none" transform="matrix(0,-1,1,0,0,0)" x="-266.51984" xml:space="preserve" y="30.597168"><tspan id="tspan4214-27-1-2-9-7-6-4-1-1-1-9-8-7-7-0-88-0-1-6-8-0" sodipodi:role="line" style="font-style:normal;font-variant:normal;font-weight:bold;font-stretch:normal;font-size:11.25px;line-height:0%;font-family:stix;-inkscape-font-specification:'stix, bold';text-align:center;letter-spacing:0px;word-spacing:0px;writing-mode:lr-tb;text-anchor:middle;fill:#120915;fill-opacity:1;stroke:none" x="-266.51984" y="30.597168">Préjugé</tspan></text>
<text id="sfam1" sodipodi:linespacing="0%" style="font-style:normal;font-variant:normal;font-weight:bold;font-stretch:normal;font-size:11.25px;line-height:0%;font-family:STIX;-inkscape-font-specification:'STIX, Bold';text-align:start;letter-spacing:0px;word-spacing:0px;writing-mode:lr-tb;text-anchor:start;fill:#000000;fill-opacity:1;stroke:none" transform="matrix(0,-1,1,0,0,0)" x="-487.15427" xml:space="preserve" y="30.690918"><tspan id="tspan4214-27-1-2-9-7-6-4-1-1-1-85-8-3-3-2-9-0-8-7-9-6" sodipodi:role="line" style="font-style:normal;font-variant:normal;font-weight:bold;font-stretch:normal;font-size:11.25px;line-height:125%;font-family:STIX;-inkscape-font-specification:'STIX, Bold';text-align:start;writing-mode:lr-tb;text-anchor:start" x="-487.15427" y="30.690918">Argument
bâclé</tspan></text>
<text id="ssfam_3" inkscape:label="#text4212-1-29-1-2-8-9-0-9-6-9-8-3-1-0-6-92-3-6-9-3-6-2-3-39" sodipodi:linespacing="0%" style="font-style:normal;font-variant:normal;font-weight:bold;font-stretch:normal;font-size:11.25px;line-height:0%;font-family:stix;-inkscape-font-specification:'stix, bold';text-align:start;letter-spacing:0px;word-spacing:0px;writing-mode:lr-tb;text-anchor:start;fill:#FFFFFF;fill-opacity:1;stroke:none" transform="matrix(0,1,-1,0,0,0)" x="44.917904" xml:space="preserve" y="-309.61694"><tspan id="tspan4214-27-1-2-9-7-6-4-1-1-1-3-9-59-96-1-318-6-04-1-7-5-8-9-0" sodipodi:role="line" style="font-style:normal;font-variant:normal;font-weight:bold;font-stretch:normal;font-size:11.25px;line-height:0%;font-family:stix;-inkscape-font-specification:'stix, bold';text-align:start;letter-spacing:0px;word-spacing:0px;writing-mode:lr-tb;text-anchor:start;fill:#FFFFFF;fill-opacity:1;stroke:none" x="44.917904" y="-309.61694">Sophisme moraliste</tspan></text>
<text id="ssfam_2" inkscape:label="#text4212-1-29-1-2-8-9-0-9-6-9-15-7-7-8-9-7-6-1-0-8" sodipodi:linespacing="0%" style="font-style:normal;font-variant:normal;font-weight:bold;font-stretch:normal;font-size:11.25px;line-height:0%;font-family:stix;-inkscape-font-specification:'stix, bold';text-align:center;letter-spacing:0px;word-spacing:0px;writing-mode:lr-tb;text-anchor:middle;fill:#FFFFFF;fill-opacity:1;stroke:none" transform="matrix(0,1,-1,0,0,0)" x="265.85608" xml:space="preserve" y="-309.61755"><tspan id="tspan4214-27-1-2-9-7-6-4-1-1-1-9-41-5-8-6-2-8-2-8-38" sodipodi:role="line" style="font-style:normal;font-variant:normal;font-weight:bold;font-stretch:normal;font-size:11.25px;line-height:0%;font-family:stix;-inkscape-font-specification:'stix, bold';text-align:center;letter-spacing:0px;word-spacing:0px;writing-mode:lr-tb;text-anchor:middle;fill:#FFFFFF;fill-opacity:1;stroke:none" x="265.85608" y="-309.61755">Sophisme naturaliste</tspan></text>
<text id="ssfam_1" inkscape:label="#text4212-1-29-1-2-8-9-0-9-6-9-17-63-3-97-3-6-4-4-8-73" sodipodi:linespacing="0%" style="font-style:normal;font-variant:normal;font-weight:bold;font-stretch:normal;font-size:11.25px;line-height:0%;font-family:stix;-inkscape-font-specification:'stix, bold';text-align:end;letter-spacing:0px;word-spacing:0px;writing-mode:lr-tb;text-anchor:end;fill:#FFFFFF;fill-opacity:1;stroke:none" transform="matrix(0,1,-1,0,0,0)" x="486.90677" xml:space="preserve" y="-309.68854"><tspan id="tspan4214-27-1-2-9-7-6-4-1-1-1-85-85-5-76-3-4-8-7-5-1" sodipodi:role="line" style="font-style:normal;font-variant:normal;font-weight:bold;font-stretch:normal;font-size:11.25px;line-height:0%;font-family:stix;-inkscape-font-specification:'stix, bold';text-align:end;letter-spacing:0px;word-spacing:0px;writing-mode:lr-tb;text-anchor:end;fill:#FFFFFF;fill-opacity:1;stroke:none" x="486.90677" y="-309.68854">Argument d'autorité</tspan></text>
<ellipse cx="170.17801" cy="264.22845" id="oval" inkscape:label="#path6246-7-6-6-9-7-6-9-3-1-1-722-4-6-4-7-1-9-6-4-8-2-9-5-42-1-5-9-0-8-00" rx="88.621117" ry="143.69008" style="fill:#df91ff;fill-opacity:1;stroke:none"/>
<rect height="23.57143" id="rect13148-3-36-1-5" rx="12.181818" ry="9.7777777" style="fill:#ffffff;fill-opacity:1;stroke:none" width="143.57144" x="98.392288" y="18.257725"/>
<text id="text" inkscape:label="#text5516-78-3-4-89-9-1-3-6-2-4-3-9-5-3-7-7-2-6-1-6-5-0" sodipodi:linespacing="0%" style="font-style:normal;font-variant:normal;font-weight:bold;font-stretch:normal;line-height:0%;font-family:stix;-inkscape-font-specification:'stix bold';text-align:center;letter-spacing:0px;word-spacing:0px;text-anchor:middle;fill:#380050;fill-opacity:1;stroke:none" x="169.44051" xml:space="preserve" y="39.208134"><tspan id="tspan3434" sodipodi:role="line" style="font-style:normal;font-variant:normal;font-weight:bold;font-stretch:normal;font-size:25px;line-height:100%;font-family:STIX;-inkscape-font-specification:'STIX Bold';text-align:center;text-anchor:middle;fill:#490f07;fill-opacity:1" x="169.44051" y="39.208134">Préjugé</tspan><tspan id="tspan5046" sodipodi:role="line" style="font-style:normal;font-variant:normal;font-weight:bold;font-stretch:normal;font-size:25px;line-height:100%;font-family:STIX;-inkscape-font-specification:'STIX Bold';text-align:center;text-anchor:middle;fill:#490f07;fill-opacity:1" x="169.44051" y="64.20813"/></text>
<rect height="26.428572" id="rect13148-3-3-2-4-1" rx="8.4705887" ry="15" style="fill:#ffffff;fill-opacity:1;stroke:none" width="68.571434" x="135.89229" y="494.24301"/>
<text id="text4212-1-29-1-2-8-9-0-9-67-9-6-3-5-23-0-1-7-3-2-3-4-7-8-8" sodipodi:linespacing="0%" style="font-style:normal;font-variant:normal;font-weight:bold;font-stretch:normal;font-size:15px;line-height:0%;font-family:STIX;-inkscape-font-specification:'STIX, Bold';text-align:center;letter-spacing:0px;word-spacing:0px;writing-mode:lr-tb;text-anchor:middle;fill:#1b0603;fill-opacity:1;stroke:none" x="169.58539" xml:space="preserve" y="513.11243"><tspan id="tspan4214-27-1-2-9-7-6-4-1-5-2-3-65-0-7-6-31-5-8-5-4-6-0-1-0" sodipodi:role="line" style="font-style:normal;font-variant:normal;font-weight:bold;font-stretch:normal;font-size:15px;line-height:1.25;font-family:STIX;-inkscape-font-specification:'STIX, Bold';text-align:center;writing-mode:lr-tb;text-anchor:middle;fill:#1b0603;fill-opacity:1" x="169.58539" y="513.11243">Insuffisance</tspan></text>
<flowRoot id="desc" inkscape:label="#flowRoot5388-1-9-2-7-9-4-63-8-65-6-8-7-2-3-5-4-9-17" style="font-style:normal;font-variant:normal;font-weight:bold;font-stretch:normal;line-height:0.01%;font-family:STIX;-inkscape-font-specification:'STIX Bold';text-align:center;letter-spacing:0px;word-spacing:0px;text-anchor:middle;fill:#1b0603;fill-opacity:1;stroke:none" transform="translate(160.86602,944.80751)" xml:space="preserve"><flowRegion id="flowRegion5390-2-2-5-6-3-9-94-3-6-8-8-5-1-8-5-4-6-9"><rect height="77.283951" id="rect5392-7-0-4-8-6-2-8-5-84-3-3-4-2-2-3-3-0-1" style="font-style:normal;font-variant:normal;font-weight:bold;font-stretch:normal;font-size:15px;line-height:100%;font-family:stix;-inkscape-font-specification:'stix bold';text-align:center;text-anchor:middle;fill:#a901ef;fill-opacity:1" width="264.06375" x="-123.22692" y="-557.27393"/></flowRegion><flowPara id="flowPara3438" style="font-style:normal;font-variant:normal;font-weight:bold;font-stretch:normal;font-size:15px;line-height:100%;font-family:STIX;-inkscape-font-specification:'STIX Bold';text-align:center;text-anchor:middle;fill:#1b0603;fill-opacity:1">Votre thèse repose sur des jugements opinions préconçues.</flowPara></flowRoot> <flowRoot id="example" inkscape:label="#flowRoot5388-1-9-2-7-9-4-63-8-92-2-3-8-9-5-4-5-19-0-3" style="font-style:normal;font-variant:normal;font-weight:bold;font-stretch:normal;line-height:0.01%;font-family:STIX;-inkscape-font-specification:'STIX Bold';text-align:center;letter-spacing:0px;word-spacing:0px;text-anchor:middle;fill:#1b0603;fill-opacity:1;stroke:none" transform="translate(159.42947,1031.7463)" xml:space="preserve"><flowRegion id="flowRegion5390-2-2-5-6-3-9-94-3-17-8-6-9-1-6-0-9-6-1-59"><rect height="47.953594" id="rect5392-7-0-4-8-6-2-8-5-7-1-2-6-5-5-9-91-21-0-4" style="font-style:normal;font-variant:normal;font-weight:bold;font-stretch:normal;font-size:15px;line-height:100%;font-family:stix;-inkscape-font-specification:'stix bold';text-align:center;text-anchor:middle;fill:#a901ef;fill-opacity:1;stroke-width:0.57764798" width="267.68024" x="-123.22692" y="-557.27393"/></flowRegion><flowPara id="flowPara5394-0-2-4-9-0-06-12-6-9-2-2-4-4-0-4-4-2-1-8" style="font-style:italic;font-variant:normal;font-weight:bold;font-stretch:normal;font-size:12.5px;line-height:100%;font-family:STIX;-inkscape-font-specification:'STIX Bold Italic';text-align:center;text-anchor:middle;fill:#1b0603;fill-opacity:1">Laisse donc ton père ouvrir ce pot de cornichons: c'est une affaire d'hommes !</flowPara></flowRoot> <g id="illustration" inkscape:groupmode="layer" inkscape:label="#illustration" transform="translate(-5.468633,-71.03971)"><g id="64" inkscape:label="#g6944" transform="translate(-3515.9756,413.59001)">
<path d="m 3653.2907,7.07788 c -14.678,-12.14854 -28.751,-34.06343 -44.293,-50.79534 -20.3572,-25.91565 -37.8308,-57.17794 -37.4266,-90.93673 7.3596,-27.98099 41.5623,-26.52345 60.8904,-41.79261 21.23,-6.47404 35.2931,-21.11068 53.042,-30.88998 20.8579,-3.03437 12.7364,-44.90605 32.8078,-55.09072 1.4627,20.3841 -5.7739,67.96636 29.3001,53.09451 16.1572,-11.39015 30.3261,-62.50449 25.9739,-16.68463 8.0369,23.67483 -28.8883,46.96994 -4.0849,65.08393 23.503,6.84911 48.0582,46.04031 28.9382,62.99863 -31.6365,17.29498 3.8047,46.67038 2.7918,71.40601 6.3801,21.97521 10.4686,44.88471 9.2032,67.89265 -13.0163,19.35404 -43.6426,17.93087 -62.2688,9.07283 -28.0693,-14.95779 -32.852,-53.19116 -63.7573,-64.3975 -25.0569,-15.84419 -27.0694,-1.45081 -31.1168,21.03895 z" id="path4378" inkscape:connector-curvature="0" style="fill:#ffffff;fill-opacity:1;fill-rule:evenodd;stroke:none;stroke-width:1px;stroke-linecap:butt;stroke-linejoin:miter;stroke-opacity:1"/>
<path d="m 3768.7667,65.39971 c -1.6421,-0.7578 -1.8375,-1.00207 -4.5904,-5.73797 -3.3763,-5.80853 -5.0062,-9.49861 -4.6692,-10.57079 0.1805,-0.57428 -0.068,-2.35641 -0.5526,-3.96031 -0.4844,-1.60389 -0.8808,-3.78821 -0.8808,-4.85404 0,-2.04178 -1.9584,-11.01287 -3.1559,-14.45622 l -0.7054,-2.02856 -0.3339,3.82686 c -0.1836,2.10478 -0.9718,5.3659 -1.7514,7.24694 -1.3078,3.15521 -1.3576,3.63698 -0.6434,6.22143 0.4257,1.54076 1.0925,4.29389 1.4818,6.11804 0.3892,1.82418 1.2968,4.06566 2.0168,4.98108 0.7201,0.9154 1.3093,2.29665 1.3093,3.06941 0,1.89852 1.8159,3.58458 4.696,4.3601 2.6691,0.71872 3.5874,1.67145 2.3602,2.44874 -2.155,1.36498 -6.3988,0.14344 -8.002,-2.30335 -0.8766,-1.33787 -1.2311,-1.43704 -3.9749,-1.11208 -2.8207,0.33407 -3.3416,0.16834 -8.1857,-2.60373 -2.8454,-1.62826 -5.4563,-3.30129 -5.802,-3.71787 -0.3457,-0.41653 -0.7104,-2.35205 -0.8105,-4.30111 -0.1686,-3.28257 -0.2915,-3.55612 -1.6671,-3.71099 -4.3198,-0.48625 -9.0592,-2.22207 -11.2969,-4.13744 -3.8791,-3.32033 -4.9558,-6.52908 -4.2368,-12.62592 l 0.3853,-3.26731 -8.7351,-8.80269 c -4.8043,-4.84147 -8.917,-9.386 -9.1394,-10.09892 -0.2223,-0.71295 -1.3985,-2.4992 -2.6136,-3.96949 -2.9119,-3.52342 -3.5804,-4.88569 -3.1692,-6.45809 0.4932,-1.88604 -1.3273,-3.64085 -3.7772,-3.64085 -1.1016,0 -4.2012,-0.69114 -6.888,-1.53586 -2.6868,-0.84474 -6.0881,-1.91534 -7.5584,-2.37914 -1.4703,-0.46382 -3.1163,-0.84198 -3.6577,-0.84038 -1.2258,0.002 -6.2733,-5.53441 -7.2696,-7.9762 l -0.7387,-1.81028 -2.4892,2.66703 c -1.4548,1.55872 -2.8346,3.80793 -3.3202,5.41261 -0.457,1.51009 -1.2555,3.56646 -1.7743,4.56973 -0.5188,1.00327 -1.1929,3.58679 -1.498,5.74114 -0.5211,3.6796 -1.5099,5.78614 -5.0947,10.8542 -1.0344,1.46231 -2.0868,1.76533 -2.0631,0.59407 0.01,-0.40842 1.0776,-2.87822 2.3762,-5.48844 1.2987,-2.61023 2.3612,-5.60266 2.3612,-6.64983 0,-1.04715 0.9356,-4.22477 2.0792,-7.06134 1.1435,-2.83659 2.0792,-5.51552 2.0792,-5.95319 0,-1.37718 3.5394,-4.89561 5.3178,-5.28619 1.8456,-0.40538 1.7921,-0.75207 -0.6876,-4.46172 -1.4782,-2.21142 -5.0997,-17.8295 -5.759,-24.83646 -0.3808,-4.04726 -0.3731,-7.37096 0.023,-9.8019 l 0.5988,-3.67816 -2.5681,-2.2982 c -4.9862,-4.4622 -18.3565,-13.12819 -26.9077,-17.44033 -1.6428,-0.82844 -3.1205,-1.70619 -3.2839,-1.95058 -0.1634,-0.24439 -2.6361,-1.56373 -5.495,-2.93187 -2.9603,-1.41669 -5.198,-2.85411 -5.198,-3.33911 0,-0.46837 0.1157,-0.85158 0.2572,-0.85158 0.9453,0 18.2238,8.80714 21.2877,10.85062 4.112,2.74254 4.775,3.16392 8.7519,5.56149 1.4703,0.88641 4.631,2.90279 7.0238,4.48087 2.6044,1.7177 5.0208,2.86921 6.0207,2.86921 1.7041,0 3.589,1.9947 3.589,3.79804 0,1.77515 1.7889,2.73656 5.0919,2.73656 1.7737,0 3.2273,-0.20049 3.2302,-0.44552 0,-0.24505 -0.7947,-1.11387 -1.7727,-1.93067 -1.2732,-1.06348 -1.769,-1.99119 -1.746,-3.26731 0.018,-0.98019 0.1668,-5.72521 0.3314,-10.54447 0.2568,-7.51623 0.173,-8.7623 -0.5895,-8.7623 -1.2872,0 -2.5445,4.91358 -3.6827,14.39197 -0.1854,1.54435 -0.561,2.94626 -0.8346,3.11538 -1.5795,0.97613 -1.2379,-5.91766 0.6025,-12.16088 0.6261,-2.12373 1.5017,-5.33163 1.9458,-7.12866 0.4441,-1.797 0.9149,-3.66193 1.0463,-4.14427 0.1521,-0.55858 -0.2714,-0.95428 -1.1664,-1.0899 -2.4232,-0.36717 -2.5045,-0.14443 -3.6475,9.98662 -0.3134,2.77721 -0.5745,6.83813 -0.5803,9.02428 -0.01,2.18614 -0.2551,4.12594 -0.5539,4.31064 -0.2989,0.18472 -1.7402,-0.8609 -3.2029,-2.3236 -1.4627,-1.4627 -3.8964,-3.31713 -5.4082,-4.12096 -1.5118,-0.80384 -3.7462,-2.22809 -4.9654,-3.16503 -3.2069,-2.46451 -4.7189,-3.35825 -15.5829,-9.211 -11.2907,-6.08268 -14.2573,-7.86814 -14.2573,-8.58095 0,-0.43162 0.2575,-0.78474 0.5721,-0.78474 1.2447,0 6.9374,2.54908 9.3915,4.20531 1.4283,0.96393 2.8286,1.60942 3.1118,1.43439 0.2832,-0.17502 0.7318,0.0551 0.9969,0.51138 0.2651,0.45627 2.086,1.65905 4.0464,2.67286 9.1537,4.7338 19.6209,11.45467 21.7736,13.98048 0.8666,1.01687 1.7301,1.69815 1.9189,1.51399 0.5723,-0.55815 1.5927,-19.41697 1.1877,-21.94961 -0.2398,-1.49951 -0.1156,-2.67823 0.34,-3.2272 0.4078,-0.49133 0.7972,-3.18051 0.9017,-6.22665 0.154,-4.48486 0.4341,-5.78857 1.7131,-7.971 0.841,-1.43504 1.4073,-2.73094 1.2585,-2.87975 -0.1488,-0.1488 -0.033,-3.85971 0.2562,-8.24646 0.338,-5.11818 0.3187,-8.23136 -0.054,-8.68887 -0.7986,-0.98076 -0.7005,-7.57484 0.136,-9.13785 0.8956,-1.67345 0.2398,-5.96695 -1.3135,-8.59963 -1.7157,-2.90792 -3.1748,-9.31133 -3.3788,-14.82868 -0.1185,-3.20453 -0.4682,-5.06478 -1.0793,-5.74169 -0.7583,-0.83994 -0.7963,-1.50363 -0.2356,-4.11787 0.7647,-3.56603 1.5,-4.6827 3.0835,-4.6827 0.796,0 1.1154,-0.42858 1.1154,-1.49694 0,-2.42084 2.7573,-8.54949 6.0992,-13.55638 2.8685,-4.2977 3.4631,-4.83675 7.6993,-6.98015 3.4469,-1.74398 5.2972,-2.32076 7.4257,-2.31467 4.5806,0.013 5.5622,0.45186 5.1174,2.2874 -0.2087,0.86121 -1.2478,2.42073 -2.3092,3.4656 -2.2943,2.25852 -5.0392,7.00328 -6.5409,11.30648 -0.9901,2.83694 -1.0055,3.2741 -0.1765,5.02443 0.8298,1.75225 0.814,2.17407 -0.1838,4.90407 -0.6005,1.64279 -1.0918,4.01072 -1.0918,5.26204 0,1.25134 -0.2355,2.72539 -0.5234,3.27569 -0.9586,1.83227 1.7204,10.2409 4.3583,13.6798 1.2924,1.68476 2.6781,3.06319 3.0794,3.06319 0.4012,0 2.0585,-0.82614 3.6828,-1.83587 1.8726,-1.1641 4.0065,-1.93377 5.8315,-2.10338 1.7063,-0.15857 3.7248,-0.84964 4.9574,-1.69723 1.9699,-1.35462 18.9662,-7.49046 24.0592,-8.68562 1.3069,-0.3067 3.0445,-0.80179 3.8614,-1.10021 0.8168,-0.29842 3.8242,-1.22766 6.6831,-2.06501 2.8589,-0.83733 7.4034,-2.17161 10.0989,-2.96506 6.9218,-2.03749 11.5609,-2.88325 14.9999,-2.7346 1.6337,0.0707 3.6109,0.10345 4.3939,0.0731 0.783,-0.0303 1.8063,0.26229 2.274,0.65048 1.6186,1.34326 3.7101,6.36024 4.0858,9.80071 0.4184,3.83069 1.3127,4.93999 3.9828,4.93999 1.8237,0 9.2917,4.5524 10.6561,6.49574 0.4102,0.58427 2.1325,1.78694 3.8274,2.67258 3.8327,2.00278 4.2904,2.55648 5.8547,7.08189 0.9864,2.85342 1.5534,3.69344 2.5967,3.84673 1.1972,0.17588 6.1379,4.85984 8.056,7.63733 1.938,2.80632 4.6136,8.74026 5.7345,12.71808 1.0468,3.71494 1.1876,5.42315 0.9055,10.98793 -0.4378,8.63732 -1.8138,12.40387 -6.2183,17.02155 -3.9485,4.13956 -8.0409,6.19474 -13.436,6.74747 l -4.0045,0.41028 0.407,4.21958 c 0.2238,2.32077 0.7722,5.95719 1.2185,8.08094 2.0745,9.87119 2.3966,10.85162 3.9804,12.11451 1.9194,1.53043 4.1524,8.25264 3.9374,11.85288 -0.081,1.35743 0.1439,3.0076 0.4999,3.66708 0.3561,0.65948 0.8331,2.26342 1.0601,3.56434 0.359,2.05747 2.7919,8.58894 5.3067,14.24636 0.4357,0.98019 1.2004,2.71782 1.6993,3.86137 0.4989,1.14355 1.9592,4.48511 3.2451,7.42567 1.2859,2.94056 2.6847,6.4158 3.1085,7.72272 0.4238,1.30692 1.1009,2.91086 1.5046,3.56432 0.8894,1.43978 3.4874,9.5163 4.4419,13.80889 0.5308,2.38722 0.527,4.09919 -0.016,7.32042 -0.4064,2.40945 -0.5252,5.39075 -0.2782,6.98301 0.237,1.5282 0.396,4.98633 0.3534,7.68477 -0.1356,8.57203 -2.6961,13.19217 -9.7452,17.58449 -1.0339,0.64422 -2.5156,2.78935 -3.9401,5.70437 -2.9144,5.9639 -3.5168,6.79684 -6.2647,8.66162 -6.8132,4.62355 -11.2903,5.95328 -14.7448,4.37929 -1.1474,-0.52277 -1.7992,-0.41074 -3.4438,0.59184 -2.3048,1.4051 -8.6407,1.67314 -11.2363,0.47534 z m 8.8764,-2.55708 c 1.3012,-0.52065 2.5276,-1.45627 2.7253,-2.07917 0.4533,-1.42823 0.9671,-1.42015 3.3838,0.0532 2.8973,1.76649 5.4135,1.50906 9.59,-0.98112 5.2354,-3.12143 5.841,-3.79939 8.9475,-10.01662 2.4291,-4.86161 3.1966,-5.86115 5.7913,-7.54242 2.3801,-1.54225 3.4026,-2.75557 5.0065,-5.94034 1.818,-3.61014 2.0128,-4.48382 1.9887,-8.918 -0.015,-2.7037 -0.3704,-5.71777 -0.7903,-6.69796 -0.6523,-1.52257 -0.6051,-2.23426 0.3238,-4.88612 1.3408,-3.8275 1.3925,-8.75483 0.1346,-12.8239 -1.1941,-3.86253 -6.6261,-18.02156 -7.6776,-20.01244 -1.5868,-3.00441 -7.2874,-15.84907 -8.5685,-19.30678 -0.7264,-1.96037 -2.0324,-5.03462 -2.9024,-6.83164 l -1.5818,-3.26725 -3.8614,0.14523 c -2.1237,0.0798 -5.4652,0.66418 -7.4256,1.29848 -1.9604,0.63428 -5.7029,1.72095 -8.3168,2.41483 -2.6138,0.69384 -5.4207,1.54084 -6.2376,1.88219 -0.8168,0.34134 -4.0247,1.3891 -7.1286,2.32835 -3.1039,0.93924 -6.7128,2.22994 -8.0197,2.86823 -2.3025,1.12448 -14.3101,5.93424 -20.0494,8.03092 -3.2524,1.18818 -3.5617,2.26825 -1.5719,5.4879 1.0466,1.69336 1.3952,1.90166 2.1435,1.28066 1.393,-1.15613 2.5472,0.9506 2.5472,4.64949 0,2.52166 0.2752,3.39408 1.4167,4.49038 2.2899,2.19928 4.5238,6.24623 4.5238,8.19518 0,1.38265 -0.3498,1.94168 -1.4851,2.37333 -1.8052,0.68635 -1.8097,0.8048 -0.1936,5.14512 1.6108,4.32639 1.965,4.7918 3.9844,5.23533 0.8962,0.19685 3.2168,1.81581 5.1569,3.5977 1.9401,1.78191 3.7279,3.24198 3.973,3.24463 1.028,0.0105 0.3329,-2.53249 -1.0396,-3.80452 -3.0006,-2.7809 -1.2102,-4.5594 1.8976,-1.8849 1.6516,1.42141 1.6667,1.49824 1.6667,8.46528 0,5.45599 0.2295,7.49658 1.0243,9.11004 1.6254,3.29943 3.2774,9.4642 3.6727,13.70537 0.2621,2.81312 1.172,5.74637 3.2571,10.50113 4.2464,9.683 4.9159,10.38149 10.8951,11.36544 0.2385,0.0391 1.4982,-0.35464 2.7994,-0.87529 z m 5.1725,-20.89003 c -0.1532,-0.24787 -0.06,-1.64757 0.2078,-3.11045 0.5514,-3.01541 0.1454,-4.12137 -2.5634,-6.98333 -1.8764,-1.98242 -3.3765,-2.50759 -3.3765,-1.18204 0,1.30946 -2.9655,4.00381 -4.4067,4.00381 -1.9721,0 -2.5751,-1.00507 -3.0332,-5.05535 -0.7698,-6.80542 2.5838,-14.58367 7.2694,-16.86007 3.4695,-1.68563 5.5992,-1.60252 7.4942,0.29244 2.4233,2.42333 2.6005,3.79895 0.7002,5.43356 l -1.6332,1.40482 1.9558,3.8533 c 2.4413,4.80964 2.8902,8.96328 1.4475,13.39382 -1.3394,4.1133 -3.1599,6.2689 -4.0619,4.80949 z m 2.2909,-10.2476 c 0.2037,-0.32967 0.192,-1.16145 -0.026,-1.84842 -0.3563,-1.12254 -0.4887,-1.15675 -1.3077,-0.33777 -0.5012,0.5012 -0.7495,1.33297 -0.5517,1.84841 0.4081,1.06337 1.3344,1.22933 1.8854,0.33778 z m -1.4884,-5.70402 c 0,-1.474 -2.3252,-0.93834 -2.7179,0.62608 -0.5741,2.28735 0.3292,3.14902 1.6244,1.54953 0.6014,-0.74268 1.0935,-1.72171 1.0935,-2.17561 z m -8.1703,-2.03811 c 0.9791,-1.78343 2.817,-4.49349 4.0842,-6.0224 1.2671,-1.5289 2.3039,-2.93234 2.3039,-3.11879 0,-0.83826 -2.9825,-0.21355 -4.8131,1.00814 -1.5548,1.03758 -2.3208,2.23183 -3.3341,5.19796 -2.3986,7.02088 -1.3994,8.688 1.7591,2.93509 z m 4.9735,0.89148 c 0.7921,-1.20878 0.8565,-1.80048 0.3235,-2.97027 -0.3661,-0.80345 -0.9292,-1.46081 -1.2515,-1.46081 -1.3205,0 -2.4711,4.49318 -1.4197,5.54451 0.7158,0.7158 1.3446,0.41757 2.3477,-1.11343 z m 13.918,14.47966 c 0.047,-1.32608 5.0433,-12.47007 5.6376,-12.57506 1.5567,-0.27495 0.082,4.63349 -3.4373,11.43833 -0.8369,1.6183 -2.2434,2.34492 -2.2003,1.13673 z m 5.9123,-0.36542 c 0,-0.63664 0.5691,-1.88094 1.2645,-2.76513 1.7466,-2.22037 2.706,-1.10505 1.2663,1.47202 -1.2905,2.30999 -2.5308,2.94372 -2.5308,1.29311 z m -39.0455,-5.68685 c 0.1805,-1.74953 0.9178,-6.18058 1.6382,-9.84677 1.1994,-6.10321 1.2385,-6.9252 0.463,-9.73968 -1.0052,-3.64788 -0.7966,-5.15312 0.7141,-5.15312 0.855,0 1.185,0.57689 1.4443,2.52476 0.5196,3.90297 0.049,9.35077 -1.0902,12.61043 -0.5682,1.62639 -1.3185,5.16845 -1.6674,7.87121 -0.7008,5.42845 -2.0433,6.97762 -1.502,1.73317 z m -7.2908,21.66944 c 0,-0.28672 -0.4424,-0.8882 -0.9831,-1.33664 -1.3004,-1.07846 -2.5812,-4.22133 -2.5812,-6.33391 0,-1.61296 -1.646,-7.25357 -2.1167,-7.25357 -0.1997,0 -2.4699,1.0609 -6.7941,3.17487 -1.2823,0.62685 -1.5045,1.16967 -1.6272,3.97357 l -0.142,3.24752 4.0034,2.50952 c 3.3682,2.11133 4.4982,2.51188 7.1222,2.52471 1.7153,0.008 3.1187,-0.21933 3.1187,-0.50607 z m -10.669,-15.53037 c 3.678,-1.8764 7.1047,-8.31557 7.1047,-13.35079 0,-2.36325 -0.1985,-2.74865 -1.8584,-3.607 -1.7777,-0.9193 -1.8439,-1.08414 -1.5228,-3.7954 0.4703,-3.97042 -1.43,-5.5719 -3.6522,-3.07805 -1.1958,1.34185 -8.0132,3.64224 -10.8301,3.65434 -2.7967,0.0121 -4.6871,1.11231 -5.9345,3.45425 -0.5795,1.0878 -1.5096,2.48173 -2.0669,3.09764 -0.7933,0.87658 -0.957,1.90023 -0.7535,4.71324 0.3202,4.42661 1.5815,6.26763 5.8088,8.47844 4.0226,2.1038 10.0565,2.29458 13.7049,0.43333 z m -18.4278,-18.70665 c 0.9543,-0.49348 2.0122,-1.41504 2.3509,-2.04789 0.5194,-0.9705 0.2546,-1.44087 -1.6911,-3.00455 -1.2689,-1.01964 -3.7386,-3.97431 -5.4882,-6.56591 -3.2456,-4.80734 -5.0277,-5.92341 -5.3896,-3.37538 -0.1044,0.73513 -0.4571,1.35971 -0.7839,1.38792 -4.5197,0.39035 -2.9442,5.17477 3.5644,10.82395 2.2871,1.98513 4.5058,3.62502 4.9304,3.64419 0.4247,0.0193 1.5529,-0.36885 2.5071,-0.86233 z m 27.6326,-0.32465 c 0.684,-1.10688 -0.2836,-3.62462 -1.3151,-3.42152 -1.5511,0.30542 -2.3307,2.01156 -1.4204,3.10846 0.8976,1.08153 2.1705,1.2272 2.7355,0.31306 z m -13.2386,-5.27516 c 2.4098,-0.74366 2.6242,-1.205 1.4851,-3.19541 -0.4084,-0.71366 -1.1436,-2.50054 -1.6338,-3.97081 -0.7541,-2.26196 -1.1036,-2.64352 -2.2717,-2.47995 -1.235,0.17294 -1.3602,-0.0128 -1.188,-1.76452 0.24,-2.44035 -1.2193,-2.95672 -2.9887,-1.05752 -0.767,0.82321 -1.6446,1.1853 -2.3965,0.98868 -0.7196,-0.1882 -1.5826,0.12756 -2.1935,0.80259 -1.0414,1.15081 -0.9707,1.4933 2.3889,11.56847 0.2398,0.71912 5.2115,0.21534 8.7982,-0.89153 z m -12.0296,-1.85879 c 0,-1.55934 -2.4368,-4.64037 -3.7129,-4.69449 -0.9393,-0.0397 -0.381,1.74871 1.0924,3.49985 1.5632,1.85777 2.6205,2.33976 2.6205,1.19464 z m -18.3767,-7.11049 c 0.6676,-0.35727 1.1491,-1.23985 1.1491,-2.10612 0,-1.37064 0.1613,-1.4609 1.9962,-1.11665 1.5568,0.29203 2.0815,0.15231 2.3835,-0.63468 0.4738,-1.23466 -1.9559,-5.84094 -3.2082,-6.0821 -1.1236,-0.21638 -7.1121,5.25709 -7.1121,6.50039 0,1.10718 2.2189,4.0541 3.0525,4.0541 0.3245,0 1.1071,-0.27671 1.739,-0.61494 z m 14.1909,-6.10633 c -0.7369,-2.34781 -1.993,-5.15262 -2.7912,-6.23291 -0.8447,-1.14317 -1.6277,-3.25384 -1.8733,-5.04946 -0.5229,-3.82361 -3.2291,-8.60682 -5.1409,-9.08667 -1.9093,-0.47922 -6.7879,-5.80755 -6.8558,-7.48791 -0.164,-4.05272 0.2664,-6.92266 1.3055,-8.70545 1.1975,-2.05467 1.082,-3.73288 -0.3736,-5.42881 -0.4207,-0.49008 -2.1402,-4.49995 -3.8211,-8.91082 -1.6809,-4.41084 -4.7681,-12.43058 -6.8604,-17.82164 -2.0922,-5.39104 -6.0968,-15.81671 -8.899,-23.16814 -2.8022,-7.35141 -5.4555,-14.16819 -5.8962,-15.14839 -0.4407,-0.98018 -1.4013,-3.65344 -2.1345,-5.94056 -0.7333,-2.2871 -1.5786,-4.42346 -1.8785,-4.74746 -0.8081,-0.87306 -1.7199,0.89707 -1.0789,2.09468 0.2871,0.53656 0.404,1.48661 0.2596,2.11124 -0.7656,3.31194 -1.3529,13.02246 -0.826,13.65732 0.3812,0.45933 0.2449,4.24681 -0.3966,11.01963 -0.5376,5.67588 -1.0704,12.57156 -1.184,15.32375 -0.1277,3.09639 -0.483,5.17493 -0.9321,5.45247 -1.1478,0.70935 0.038,2.70649 7.1472,12.03986 3.5469,4.65656 7.7959,10.98988 9.4421,14.07405 1.6462,3.08414 3.7226,6.94417 4.6142,8.57781 0.8916,1.63365 2.005,3.77225 2.4741,4.75244 0.4691,0.98019 1.1474,2.3168 1.5073,2.97026 0.3598,0.65346 1.2625,2.39851 2.0059,3.87786 0.9608,1.91211 1.9199,2.90284 3.3173,3.42684 2.557,0.95878 4.8673,3.03656 6.1611,5.54103 0.5699,1.10312 1.7303,3.0542 2.5788,4.33575 0.8484,1.28156 1.9524,3.6875 2.4532,5.3465 0.7164,2.37291 1.3111,3.20648 2.7877,3.90746 1.0324,0.49009 2.7523,1.78666 3.822,2.88127 1.1101,1.13599 2.0439,1.6933 2.1755,1.29845 0.1268,-0.38044 -0.3724,-2.61266 -1.1094,-4.96045 z m 5.0537,1.00445 c 0.7761,-0.29781 0.8887,-0.87947 0.5752,-2.97029 -0.3279,-2.18592 -0.2324,-2.59992 0.5995,-2.59992 0.5653,0 1.2558,0.76399 1.6107,1.78218 0.6688,1.91856 2.4654,2.36447 4.7025,1.16718 1.3806,-0.73887 1.4716,-1.69138 0.2472,-2.58683 -0.496,-0.36277 -1.6389,-2.65643 -2.5397,-5.09705 -1.4394,-3.89946 -1.8634,-4.50214 -3.4973,-4.97073 -1.4814,-0.42486 -2.4194,-0.25359 -4.614,0.84243 -3.4127,1.70443 -4.3436,2.70888 -3.3922,3.66032 0.3783,0.37822 0.6877,1.33296 0.6877,2.12164 0,0.78867 0.5146,2.40599 1.1435,3.59403 0.6289,1.18804 1.3023,2.89521 1.4964,3.79373 0.3519,1.62819 1.149,1.96609 2.9805,1.26331 z m -23.884,-3.00238 c 3.4866,-2.41621 3.6773,-3.19515 1.4812,-6.05246 -1.0381,-1.35077 -2.0768,-2.45592 -2.3081,-2.45592 -0.716,0 -4.6716,4.91734 -4.6716,5.80726 0,0.91614 2.2261,4.29166 2.8302,4.29166 0.2053,0 1.406,-0.71574 2.6683,-1.59054 z m 32.7086,-6.87472 c -0.1418,-0.24505 -0.643,-0.44556 -1.1138,-0.44556 -1.047,0 -1.1185,1.28202 -0.1269,2.27365 0.5761,0.5761 0.8098,0.50752 1.1138,-0.32672 0.2115,-0.58073 0.2686,-1.25633 0.1269,-1.50137 z m -26.5141,1.00248 c 0.2965,-0.90094 -2.1519,-4.51085 -2.7914,-4.11562 -0.871,0.53831 -0.7083,2.22698 0.3616,3.75455 0.9217,1.31594 2.0599,1.48507 2.4298,0.36107 z m -9.3869,-2.86085 c 3.0128,-3.1084 2.4957,-4.85776 -1.9716,-6.66972 -2.3774,-0.96434 -3.656,-1.22133 -3.9234,-0.78867 -0.6807,1.10144 -0.1013,5.37126 0.8752,6.45039 0.5123,0.56607 0.9315,1.32005 0.9315,1.67552 0,0.56744 0.8184,1.15052 1.8141,1.29245 0.181,0.0258 1.2043,-0.8562 2.2742,-1.95997 z m -8.8407,-5.13306 c 0,-4.50478 -0.1629,-5.10129 -2.996,-10.97495 -1.6478,-3.41621 -3.6063,-6.9532 -4.3522,-7.85997 -0.7458,-0.90677 -2.1756,-3.42133 -3.1773,-5.58787 -2.2331,-4.83035 -6.1494,-10.21743 -6.8896,-9.47718 -0.317,0.31695 -0.2455,2.43206 0.1755,5.1934 0.3907,2.56225 0.9165,6.39625 1.1684,8.51997 0.4782,4.03158 2.6861,13.95124 3.7398,16.80245 1.169,3.16321 7.708,7.98024 10.9947,8.0994 1.2791,0.0465 1.3367,-0.15677 1.3367,-4.71525 z m 34.3178,-0.44343 c 1.7215,-0.81244 3.265,-1.69561 3.43,-1.96263 0.458,-0.74097 -3.8065,-7.08753 -4.7624,-7.08753 -0.4615,0 -1.2004,0.51579 -1.642,1.14622 -0.6306,0.90034 -1.4344,1.12334 -3.7465,1.03958 -3.2824,-0.11895 -3.2452,-0.24129 -1.3241,4.34881 2.3052,5.50757 1.9443,5.39473 8.045,2.51555 z m -48.5752,0.41781 c 0,-0.347 -0.3744,-1.88413 -0.8321,-3.41581 -2.5641,-8.58168 -5.3669,-27.00609 -4.666,-30.67268 0.1573,-0.82276 0.1054,-2.21532 -0.1153,-3.09455 l -0.4013,-1.5986 -1.5092,1.62768 c -0.9069,0.97798 -1.8707,1.48907 -2.4145,1.28037 -0.4979,-0.19103 -1.2738,-0.0415 -1.7242,0.33237 -0.4981,0.41337 -1.7304,0.53397 -3.1449,0.30779 -2.1772,-0.34815 -2.3487,-0.26751 -2.6821,1.2612 -0.7242,3.31993 4.0436,18.79652 7.915,25.69236 2.1798,3.88292 3.4915,5.49551 5.6777,6.98014 2.9972,2.03536 3.8969,2.33542 3.8969,1.29973 z m 55.8412,-0.57581 c 0,-0.76569 -1.6925,-1.45713 -2.2362,-0.91353 -0.2214,0.22152 -0.01,0.65142 0.4712,0.95537 1.1499,0.72726 1.765,0.71269 1.765,-0.0417 z m -36.2377,-5.47635 c -1e-4,-0.0817 -0.5163,-1.48513 -1.1471,-3.11879 -2.2595,-5.8522 -8.0164,-16.70836 -11.0258,-20.79193 -1.6855,-2.2871 -4.591,-6.29698 -6.4568,-8.91081 -5.0922,-7.13382 -5.8788,-7.96114 -7.9664,-8.37866 -1.5143,-0.30286 -1.9182,-0.18595 -1.9182,0.55532 0,1.2909 2.6929,5.17175 4.6766,6.73967 0.8994,0.71089 2.4149,2.44852 3.3677,3.86134 0.9528,1.41286 2.6148,3.67537 3.6934,5.02781 1.0785,1.35245 2.5776,3.6247 3.3314,5.04948 6.5155,12.31624 9.7715,18.2432 10.6422,19.37251 0.4703,0.60994 2.8041,1.10452 2.803,0.59406 z m 23.634,-4.63033 c 2.3797,-0.73686 4.4664,-1.56557 4.637,-1.84158 0.4657,-0.75359 -2.2164,-7.70647 -3.1043,-8.0472 -0.4242,-0.16276 -2.4266,0.53127 -4.4499,1.54233 -2.1408,1.06978 -4.6058,1.83824 -5.8964,1.83824 -2.36,0 -2.939,0.66703 -2.939,3.3858 0,0.96178 0.8469,2.35326 2.3423,3.8487 2.2032,2.20323 2.4236,2.29097 3.7128,1.47786 0.7539,-0.47544 3.3177,-1.46732 5.6975,-2.20415 z m 14.9867,-5.05961 c 19.8113,-8.61601 48.0174,-17.48807 55.5982,-17.48807 h 3.2064 l -0.01,-2.52474 c 0,-1.3886 -0.6227,-3.85429 -1.3743,-5.47933 l -1.3667,-2.9546 -5.0118,0.18763 c -2.8667,0.10729 -6.4101,0.6657 -8.279,1.30465 -1.797,0.61439 -5.9406,1.78506 -9.2079,2.60154 -7.4242,1.85524 -13.7665,4.02687 -24.1997,8.28601 -4.4881,1.8322 -8.498,3.3341 -8.9108,3.33753 -1.5461,0.0127 -10.8566,5.20784 -11.0445,6.16247 -0.2678,1.35984 2.8997,9.2767 3.7114,9.2767 0.3606,0 3.4594,-1.2194 6.8863,-2.70979 z m -18.5713,-5.31972 c 1.2383,-0.49544 2.6018,-1.46192 3.0301,-2.14769 0.6803,-1.08926 0.544,-1.72356 -1.0781,-5.01853 -1.0213,-2.07442 -3.0741,-6.78861 -4.5618,-10.47595 -1.4878,-3.68737 -3.905,-9.64486 -5.3718,-13.23889 -1.4667,-3.59403 -4.6227,-11.88108 -7.0135,-18.41571 -4.9806,-13.61357 -8.2094,-22.17391 -11.8754,-31.48489 -1.4151,-3.59402 -3.0099,-8.08438 -3.544,-9.97856 -0.5341,-1.89419 -1.2967,-3.56891 -1.6947,-3.72161 -0.3979,-0.15271 -1.7799,0.26095 -3.0711,0.91924 -1.2912,0.65826 -2.7041,1.19686 -3.14,1.19686 -0.558,0 -0.7057,0.57103 -0.4994,1.93069 0.1611,1.06186 0.4522,3.12037 0.647,4.57446 0.1948,1.45406 0.5682,2.92435 0.8299,3.26729 0.2617,0.34292 0.8308,1.96015 1.2647,3.5938 0.4338,1.63366 1.3032,4.17322 1.932,5.64352 0.6288,1.47027 2.1594,5.48015 3.4015,8.91082 1.2421,3.43065 2.915,7.97518 3.7176,10.09893 0.8025,2.12374 2.4532,6.53459 3.6682,9.80188 1.215,3.26731 2.7622,7.14351 3.4382,8.61382 0.676,1.47027 1.9671,4.67817 2.8691,7.12865 0.902,2.45046 2.7646,7.26231 4.1392,10.69298 1.3747,3.43068 2.8985,7.57419 3.3863,9.20783 1.1446,3.83299 4.9131,9.72599 6.247,9.76887 0.5651,0.0181 2.0407,-0.37234 3.279,-0.86781 z m 15.7473,-7.89623 c 4.35,-1.65207 4.5773,-2.13348 2.1923,-4.64238 -2.3979,-2.52248 -6.7241,-4.60704 -11.6895,-5.63265 -6.0433,-1.24824 -6.7371,-0.11299 -3.6221,5.92685 1.3377,2.59391 2.157,3.57572 2.8217,3.38161 0.5152,-0.15045 2.2733,0.2115 3.9069,0.8043 1.6337,0.59279 3.104,1.11334 3.2673,1.15675 0.1634,0.0435 1.5689,-0.4041 3.1234,-0.99448 z m 16.7775,-6.93759 c 5.6046,-2.61177 11.2183,-4.3965 29.1087,-9.25428 2.2871,-0.62101 5.0098,-1.13372 6.0503,-1.13928 1.0406,-0.006 2.5754,-0.26999 3.4107,-0.58757 1.2843,-0.48826 1.4358,-0.78624 0.9818,-1.93069 -0.7162,-1.80509 -2.4217,-8.87762 -3.1198,-12.93733 -0.7679,-4.46541 -0.6358,-25.63274 0.1801,-28.87306 0.6801,-2.70107 0.4402,-12.18062 -0.3555,-14.04739 -0.3125,-0.73321 -0.1721,-1.03958 0.4764,-1.03958 1.4908,0 1.7571,1.03759 1.9489,7.59264 0.1002,3.422 0.3178,6.35745 0.4835,6.5232 0.6154,0.61532 3.8019,-1.19009 5.8447,-3.31153 2.4717,-2.56665 6.0893,-9.23224 5.515,-10.1615 -0.6709,-1.08547 -1.9483,-0.71463 -2.39,0.69379 l -0.4192,1.33663 -0.4258,-1.48514 c -0.359,-1.25203 -0.7835,-1.48514 -2.7045,-1.48514 -1.4689,0 -2.4072,-0.31668 -2.6401,-0.89108 -0.6782,-1.67213 -4.6475,-7.42223 -6.1512,-8.91082 -0.8252,-0.81681 -3.1347,-2.95243 -5.1324,-4.74578 -1.9977,-1.79336 -3.6321,-3.64741 -3.6321,-4.12008 0,-0.47271 -0.5011,-1.41134 -1.1135,-2.08585 -1.5951,-1.75681 -3.798,-8.59939 -3.4036,-10.57174 0.3597,-1.79811 0.2476,-1.89633 -1.283,-1.12455 -0.5674,0.28606 -2.6355,0.97729 -4.5959,1.53604 -1.9604,0.55876 -4.901,1.70096 -6.5346,2.53824 -1.6337,0.83727 -4.6007,2.35148 -6.5934,3.3649 -1.9927,1.01343 -4.5023,2.51091 -5.5769,3.32774 -2.7791,2.11243 -8.1067,7.48206 -10.784,10.86911 -2.5723,3.25409 -2.5166,3.69587 0.9555,7.58107 3.0723,3.43794 6.7872,10.78957 9.3723,18.54756 2.1141,6.34461 2.4258,7.97044 2.4733,12.90285 0.048,5.02283 -0.1263,6.01115 -1.5873,8.98628 -2.1434,4.36457 -3.8975,6.04316 -8.6728,8.29933 -3.7057,1.7509 -4.207,1.83659 -8.6902,1.48523 -2.6167,-0.20506 -6.0396,-0.53042 -7.6065,-0.72298 -2.4605,-0.30243 -3.1692,-0.12822 -5.198,1.27773 -1.3966,0.96783 -2.3491,2.10468 -2.3491,2.80374 0,0.6467 0.9156,3.13093 2.0346,5.52048 1.1191,2.38959 1.9025,4.85018 1.7409,5.46801 -0.4007,1.53224 0.7482,2.29277 4.1298,2.73371 7.529,0.98178 13.2506,4.20872 15.0351,8.47965 l 0.8057,1.9284 3.7209,-1.49339 c 2.0465,-0.82137 5.0575,-2.11626 6.6912,-2.87757 z m 42.7719,-60.89836 c 0.202,-0.32674 0.6187,-0.59407 0.9262,-0.59407 0.3074,0 0.559,0.26733 0.559,0.59407 0,0.32671 -0.4168,0.59405 -0.9262,0.59405 -0.5094,0 -0.7609,-0.26734 -0.559,-0.59405 z m -123.8763,57.96207 c 0.7364,-1.93666 0.084,-5.61188 -1.1051,-6.2238 -0.527,-0.27126 -1.9279,-0.66802 -3.1131,-0.8817 -1.8999,-0.34249 -2.1978,-0.2287 -2.5167,0.96141 -0.7014,2.61808 -0.3609,4.27282 1.2184,5.92133 2.0778,2.16871 4.7359,2.27604 5.5165,0.22276 z m 48.5134,-4.34865 c -0.2018,-1.22522 -1.0315,-3.83165 -1.844,-5.79202 -0.8124,-1.9604 -1.4835,-3.8985 -1.4912,-4.3069 -0.023,-1.21386 -1.0373,-0.84349 -1.3906,0.50784 -0.1799,0.68771 0.093,2.22484 0.6071,3.4158 0.9236,2.14128 1.1456,2.70151 2.5637,6.4723 1.004,2.66994 2.0119,2.47744 1.555,-0.29702 z m -44.7579,-20.94043 c -0.1546,-2.45046 -0.012,-6.995 0.3156,-10.09891 0.3282,-3.10396 0.4105,-5.83902 0.1829,-6.07794 -0.2276,-0.23893 -1.2075,-0.59316 -2.1775,-0.78719 l -1.7636,-0.35278 0.062,13.5133 c 0.062,13.50609 0.062,13.51393 1.4852,14.67044 l 1.4234,1.1571 0.3766,-3.78431 c 0.2072,-2.08137 0.2502,-5.78923 0.096,-8.23971 z m 43.999,2.31003 c 3.1822,-2.21852 5.6202,-2.48719 13.4552,-1.4828 3.1562,0.40461 4.3034,0.3048 6.2376,-0.54267 1.3035,-0.57115 2.8908,-1.09538 3.5273,-1.16496 0.6365,-0.0697 2.4036,-1.48192 3.9269,-3.13854 2.3196,-2.5227 2.8375,-3.52408 3.1877,-6.16395 0.7446,-5.61352 -1.1612,-13.10159 -5.6485,-22.19309 -1.2902,-2.61384 -2.3414,-5.15594 -2.336,-5.64913 0.01,-0.49318 -0.5187,-1.22667 -1.1645,-1.62996 -0.6458,-0.40332 -1.6913,-1.73741 -2.3235,-2.96468 -0.6322,-1.22725 -2.9258,-3.94825 -5.0971,-6.04665 -3.6929,-3.56899 -4.1546,-3.83243 -7.1539,-4.08115 -1.7634,-0.14624 -3.8936,-0.0934 -4.7338,0.1175 -2.1286,0.53424 -6.0711,4.22811 -8.419,7.88808 -1.0866,1.69368 -3.0814,3.96594 -4.4331,5.04947 -1.3517,1.08351 -3.5901,2.97249 -4.9743,4.19772 -1.3842,1.22526 -2.9547,2.22771 -3.4899,2.22771 -0.6809,0 -0.9732,0.52467 -0.9732,1.7471 0,2.45569 0.6466,2.60515 3.8656,0.89357 6.17,-3.28059 12.1739,-8.55152 12.1739,-10.68757 0,-0.50317 1.218,-2.21697 2.7067,-3.80851 2.3225,-2.48297 3.1277,-2.95157 5.6725,-3.30158 2.6137,-0.35946 3.2623,-0.21417 5.4616,1.2233 3.2942,2.15311 5.1223,4.2972 8.8104,10.33321 6.2516,10.23156 8.8714,18.64939 7.9928,25.68147 -0.4766,3.8144 -0.4924,3.84125 -4.0962,6.94363 -3.3213,2.85927 -5.3265,3.11304 -11.6979,1.48048 -2.4029,-0.61569 -4.6719,-0.83797 -6.0036,-0.58813 -3.2004,0.60038 -7.3305,3.62654 -9.4434,6.9191 -2.2216,3.46206 -1.8331,5.29486 0.5391,2.54364 0.8487,-0.98429 2.8425,-2.69547 4.4306,-3.80262 z m 78.498,-14.91997 c 2.6451,-0.73906 5.4128,-2.54743 8.7801,-5.73682 1.7263,-1.63511 2.5957,-3.22795 3.7608,-6.88989 1.326,-4.16773 1.468,-5.39428 1.1358,-9.81257 -0.4805,-6.39176 -1.6385,-10.58585 -4.2418,-15.36289 -2.8889,-5.30122 -5.3441,-8.18541 -9.2082,-10.8169 -3.3289,-2.26699 -6.4837,-3.51459 -6.4425,-2.54776 0.012,0.28049 1.2084,1.26181 2.6588,2.18077 1.4504,0.91893 3.2451,2.45908 3.9882,3.42251 0.743,0.96343 2.5905,3.28864 4.1054,5.16716 3.1194,3.86806 4.3046,6.38917 5.571,11.84965 1.2045,5.19363 1.1073,10.02036 -0.2832,14.06178 -2.9026,8.43673 -5.0947,10.34626 -14.7253,12.82708 -2.7824,0.71673 -3.2284,1.57064 -1.2103,2.31721 1.3846,0.5122 2.254,0.41842 6.1112,-0.65933 z m -122.1956,-7.46156 c -0.1516,-0.78767 -1.1773,-0.96456 -5.9734,-1.03008 -5.2117,-0.0711 -5.7903,0.0279 -5.7903,0.99152 0,0.84322 0.347,1.00813 1.6336,0.77646 0.8986,-0.16177 3.3713,-0.0715 5.4951,0.20041 4.3117,0.55223 4.8992,0.43329 4.635,-0.93831 z m 0.8365,-7.02981 c 0.2321,-2.32659 0.7865,-5.28801 1.2319,-6.58089 l 0.8099,-2.35073 -3.038,-0.08 c -3.0024,-0.079 -3.0396,-0.058 -3.1809,1.79736 -0.079,1.0325 -0.2507,1.98488 -0.3822,2.11638 -0.5165,0.51653 -1.5063,-0.60695 -1.5063,-1.7098 0,-1.49143 -2.8233,-2.93344 -3.5239,-1.79984 -0.762,1.23302 -1.2571,9.41789 -0.664,10.97785 0.7186,1.89015 1.3821,2.10949 5.9701,1.97389 l 3.8613,-0.11415 0.4221,-4.2302 z m 22.2073,-10.03607 c 0.2579,-1.02737 -0.2828,-3.02529 -1.7308,-6.39592 -1.1582,-2.69602 -2.5402,-6.23404 -3.0712,-7.86228 -0.5309,-1.62822 -1.0934,-3.34205 -1.2499,-3.80846 -0.2423,-0.72207 -0.4192,-0.71343 -1.1907,0.058 -0.812,0.81204 -0.7743,1.30072 0.3637,4.7094 2.2517,6.74509 5.5285,14.79335 6.023,14.79335 0.2645,0 0.6497,-0.67234 0.8559,-1.49409 z m -20.2903,-3.70386 c 0.19,-1.87873 0.6006,-4.98849 0.9125,-6.91062 0.7836,-4.8292 0.3725,-5.35487 -4.8156,-6.15791 -2.3732,-0.36735 -4.5042,-0.55089 -4.7356,-0.40788 -1.0767,0.66547 -1.9828,16.29814 -0.9446,16.29814 0.3388,0 1.0807,-0.42051 1.6486,-0.93446 0.947,-0.85695 1.065,-0.83232 1.4235,0.29702 0.3248,1.02345 0.8787,1.23151 3.2783,1.23151 h 2.8875 z m 27.0763,-0.29988 c 1.1488,-1.06032 3.6394,-4.13246 5.5346,-6.82697 3.7018,-5.26309 6.6071,-7.46998 10.7922,-8.19778 2.7348,-0.47556 4.9359,-2.32985 7.4895,-6.30932 1.7271,-2.69139 8.1311,-8.38279 11.2233,-9.9743 0.8168,-0.42042 2.1534,-1.3833 2.9702,-2.13972 0.8168,-0.75643 3.4233,-2.33137 5.7921,-3.49989 2.3688,-1.16852 4.3069,-2.4105 4.3069,-2.75998 0,-0.34947 -0.3342,-0.49685 -0.7426,-0.32749 -2.0722,0.85932 -9.7992,2.83024 -13.2177,3.37143 -4.1131,0.65115 -11.4077,2.62756 -14.2574,3.86284 -2.3496,1.01857 -11.2321,4.42557 -18.7127,7.1775 -5.0516,1.85843 -13.6632,6.1547 -13.6632,6.81657 0,0.28558 0.6535,2.19532 1.4523,4.24384 0.7987,2.04853 2.1806,5.72954 3.0708,8.18001 2.8513,7.84827 3.1075,8.31702 4.5442,8.31393 0.7308,-0.002 2.2686,-0.87037 3.4175,-1.93067 z m 33.6779,-13.891 c 5.2202,-7.23104 9.8834,-11.02638 19.4803,-15.85495 7.0563,-3.55029 14.5773,-5.74599 19.6819,-5.74599 1.7155,0 3.2603,-0.22847 3.4329,-0.5077 0.4054,-0.65605 -1.7546,-2.62073 -4.4021,-4.00397 -2.7181,-1.42015 -10.7473,-1.48289 -13.3768,-0.10451 -0.9861,0.51688 -2.4564,0.81461 -3.2674,0.66163 -0.9368,-0.17674 -2.774,0.40918 -5.0387,1.60701 -1.9604,1.03684 -4.6337,2.4316 -5.9406,3.09948 -1.3069,0.66787 -3.5792,2.18523 -5.0495,3.3719 -1.4702,1.18666 -4.0454,3.14998 -5.7225,4.36293 -4.6407,3.35636 -10.3347,10.22924 -10.3077,12.44184 0.01,0.64568 6.0276,4.44555 7.2429,4.572 0.2312,0.024 1.7015,-1.73079 3.2673,-3.89968 z m -54.1825,0.97314 c 0.202,-0.32673 0.1,-0.59404 -0.2269,-0.59404 -0.3267,0 -0.7592,0.26731 -0.9612,0.59404 -0.2019,0.32673 -0.1,0.59406 0.227,0.59406 0.3267,0 0.7592,-0.26733 0.9611,-0.59406 z m 0.1258,-2.10948 c 3.1973,-0.49478 4.2763,-1.65491 2.9265,-3.14641 -0.5352,-0.59138 -0.9731,-1.27635 -0.9731,-1.52212 0,-0.24578 -0.9579,-2.35572 -2.1288,-4.68873 -1.5037,-2.99619 -2.062,-4.81374 -1.9014,-6.18944 0.3036,-2.6008 -0.3941,-2.50362 -5.2098,0.72562 -2.1926,1.47029 -4.5867,2.67325 -5.3202,2.67325 -1.825,0 -2.4506,1.01828 -2.539,4.13278 -0.1113,3.91573 1.618,7.37517 4.0968,8.19574 1.9751,0.65389 6.0913,0.58658 11.049,-0.18069 z m 5.7765,-6.70771 c 0.6745,-0.60198 2.8303,-1.69757 4.7907,-2.43463 1.9604,-0.73706 6.2376,-2.48471 9.5049,-3.88367 3.2673,-1.39895 8.0791,-3.22953 10.693,-4.06793 2.6139,-0.83842 7.9405,-2.63243 11.8371,-3.98669 11.722,-4.07393 18.7814,-5.99134 24.1032,-6.54667 2.7772,-0.2898 6.475,-0.79894 8.2172,-1.13142 1.7423,-0.33248 4.8474,-0.64095 6.9003,-0.68546 l 3.7325,-0.0809 -0.4795,-1.55879 c -0.2637,-0.85736 -0.7565,-2.63921 -1.095,-3.9597 -0.3385,-1.32049 -1.3948,-3.14755 -2.3474,-4.06014 l -1.7319,-1.65928 -4.6674,0.67995 c -2.5671,0.37397 -7.0734,1.21127 -10.014,1.86066 -2.9405,0.64939 -6.6831,1.47282 -8.3167,1.82985 -3.6935,0.80717 -11.6393,3.36241 -12.4592,4.00671 -0.3355,0.26362 -1.5456,0.64873 -2.6892,0.8558 -1.1436,0.20709 -3.3943,1.04391 -5.0016,1.85964 -1.6074,0.81571 -3.492,1.48312 -4.1881,1.48312 -0.6961,0 -1.5538,0.2881 -1.9059,0.64023 -0.3521,0.35212 -1.5417,0.85955 -2.6435,1.1276 -1.1019,0.26805 -3.8746,1.21314 -6.1617,2.1002 -2.2871,0.88708 -5.2277,1.92376 -6.5346,2.30375 -4.356,1.26651 -8.3038,2.92557 -9.513,3.99783 -0.6579,0.58339 -2.1951,1.47805 -3.4158,1.98812 -1.2208,0.51006 -2.2196,1.31973 -2.2196,1.79927 0,0.9527 3.6459,8.61707 4.0991,8.61707 0.1538,0 0.8316,-0.49253 1.5061,-1.09452 z m 3.8996,-8.6329 c 0,-1.78221 0.7669,-2.36747 2.4162,-1.844 1.8675,0.59269 1.2918,2.90689 -0.7825,3.14556 -1.3978,0.16084 -1.6337,-0.027 -1.6337,-1.30156 z m 12.6871,-4.83452 c -0.4844,-1.26234 0.9303,-2.75715 2.4094,-2.54582 0.8551,0.12218 1.2984,0.68428 1.428,1.81083 0.1693,1.47104 0.01,1.63365 -1.6523,1.63365 -1.0946,0 -1.98,-0.36412 -2.1851,-0.89866 z m 12.5232,-3.91371 c -0.2223,-0.3597 0.1619,-1.22002 0.8537,-1.91181 1.1329,-1.13287 1.3488,-1.16691 2.1731,-0.34259 0.5183,0.51826 0.7494,1.34754 0.5329,1.91183 -0.4275,1.11408 -2.9338,1.35528 -3.5597,0.34257 z m 12.4478,-3.16096 c -0.5417,-1.41164 0.8712,-3.31373 2.4615,-3.31373 1.0502,0 1.4643,0.32404 1.4643,1.14568 0,2.28268 -3.203,4.05157 -3.9258,2.16805 z m 13.2327,-3.1157 c -0.8963,-0.89624 -0.3574,-3.10052 0.8518,-3.4843 1.8226,-0.57845 2.6798,0.53117 1.8378,2.37908 -0.6575,1.44299 -1.8584,1.93648 -2.6896,1.10522 z m 10.5419,-2.1986 c -0.6125,-1.59617 0.028,-3.04377 1.4358,-3.2441 1.2265,-0.17456 1.3516,0.0136 1.1821,1.7773 -0.2036,2.11697 -1.9854,3.11528 -2.6179,1.4668 z m 8.8915,-1.83231 c -0.418,-1.08942 0.1904,-2.10766 1.2594,-2.10766 1.2226,0 1.6859,1.12157 0.8695,2.10522 -0.9139,1.10118 -1.7069,1.10208 -2.1289,0.002 z m 20.5143,27.14955 c 3.252,-1.85093 1.8141,-2.71875 -1.6452,-0.99298 -1.0338,0.51573 -1.7275,1.18404 -1.5414,1.48513 0.4841,0.78327 1.1176,0.68545 3.1866,-0.49215 z m 9.0985,-2.26449 c 0.7497,-0.74973 -1.6623,-5.23615 -3.3775,-6.28205 -2.3062,-1.40638 -3.5341,-1.43298 -3.1042,-0.0673 1.3733,4.36231 2.1886,5.814 3.4672,6.17318 1.8844,0.5294 2.6184,0.57227 3.0145,0.17613 z m -10.3832,-0.64521 c 3.612,-0.43383 3.8985,-1.15387 1.6384,-4.117 -1.9747,-2.58899 -4.7481,-3.92609 -7.1923,-3.46754 -1.8378,0.34477 -1.9115,0.46195 -1.5928,2.53184 0.4681,3.04019 1.7941,5.43858 3.0036,5.43248 0.5633,-0.002 2.4277,-0.17373 4.1431,-0.37978 z m -109.2824,-4.94134 c 1.2122,-0.64235 2.8685,-1.69344 3.6805,-2.33576 l 1.4765,-1.16787 -1.3578,-2.26815 c -0.7468,-1.24749 -1.8695,-3.40428 -2.495,-4.79289 -0.6254,-1.38861 -1.4206,-2.52472 -1.7671,-2.52472 -1.4388,0 -9.0015,4.26895 -8.741,4.93403 0.1529,0.3902 1.1472,2.64757 2.2097,5.01637 2.18,4.86081 3.0273,5.24104 6.9942,3.13899 z m 7.8476,-5.59099 c 0,-0.45007 -0.343,-1.10297 -0.7621,-1.45083 -0.4192,-0.34789 -1.4217,-2.38383 -2.2278,-4.52432 -1.2772,-3.39167 -2.3566,-4.95253 -2.3566,-3.40773 0,1.05679 2.7773,8.36193 3.5188,9.25531 0.9652,1.16303 1.8277,1.22324 1.8277,0.12757 z m 73.3657,-4.52812 c 0.4647,-0.75186 -0.3217,-0.75186 -1.4851,0 -0.768,0.49625 -0.7523,0.5771 0.1134,0.58493 0.5525,0.004 1.1698,-0.2582 1.3717,-0.58493 z m -85.0237,-3.25982 c 3.0155,-1.33363 3.3412,-1.65595 3.3412,-3.30677 0,-1.64369 -0.1651,-1.81006 -1.6286,-1.64114 -1.0872,0.1255 -1.6912,0.58289 -1.8169,1.37608 -0.427,2.69274 -0.6298,2.86433 -2.1832,1.84652 -2.7424,-1.79687 -5.5999,-0.60851 -4.7763,1.98632 0.5296,1.6686 2.8985,1.58106 7.0638,-0.26101 z m 6.6417,-5.97994 c -0.2113,-1.12601 -0.6326,-2.0473 -0.9364,-2.0473 -0.519,0 -0.2679,2.77773 0.4297,4.75243 0.5517,1.5618 0.9291,-0.45323 0.5067,-2.70513 z m -8.8122,-0.69153 c 0.2525,-0.65806 0.9314,-0.78199 2.7745,-0.50647 l 2.4402,0.36477 0.103,-5.08807 c 0.098,-4.84751 0.047,-5.07016 -1.0906,-4.70918 -3.1728,1.00701 -7.6952,3.44365 -8.2235,4.43076 -0.6342,1.18509 -0.8187,6.69687 -0.2434,7.2722 0.563,0.56297 3.8757,-0.81534 4.2398,-1.76401 z m 9.323,-4.1127 c 0.478,-1.24581 -0.1592,-3.30799 -0.8838,-2.86015 -0.7061,0.43642 -0.7246,3.83491 -0.021,3.83491 0.2918,0 0.6988,-0.43864 0.9045,-0.97476 z m -9.3821,-5.34387 c 4.1536,-2.02061 5.8138,-3.1541 6.2324,-4.25512 1.0501,-2.76181 -0.2692,-2.81189 -5.5904,-0.2122 -2.7525,1.34475 -5.2877,2.7861 -5.6337,3.20299 -0.778,0.93753 -1.5898,4.01865 -1.0587,4.01865 0.2137,0 2.9364,-1.23944 6.0504,-2.75432 z m 11.4045,-3.04645 c 0.1165,-0.81679 -0.1866,-1.47779 -0.7825,-1.70644 -1.3391,-0.51386 -2.1126,0.42626 -1.6876,2.0512 0.4506,1.72314 2.2101,1.47756 2.4701,-0.34476 z m -9.4105,-3.57179 c 0.81,-0.51264 2.5476,-1.24909 3.8614,-1.63656 2.2463,-0.66249 2.4805,-0.95299 3.9298,-4.87357 1.6279,-4.40365 3.1776,-6.98379 6.0304,-10.04024 0.97,-1.03929 1.4799,-2.0242 1.1525,-2.22652 -1.1516,-0.71175 -9.1813,3.10901 -11.6729,5.55433 -2.8361,2.78341 -6.5687,9.38973 -7.1809,12.70958 -0.4074,2.20919 -0.3713,2.27717 0.9921,1.86882 0.7782,-0.23308 2.0776,-0.84319 2.8876,-1.35584 z m -100.0867,55.70731 c -0.2237,-0.36203 -0.3151,-2.18059 -0.2029,-4.04121 0.1673,-2.77681 0.044,-3.3418 -0.6872,-3.15326 -2.9739,0.76665 -3.5644,0.75859 -3.5644,-0.0487 0,-1.02297 3.1375,-3.44829 4.4609,-3.44829 0.5196,0 1.7582,-0.42069 2.7525,-0.93491 0.9943,-0.51417 1.9059,-0.83685 2.0257,-0.71705 0.1198,0.11981 -0.3256,1.94395 -0.9898,4.05366 -0.6641,2.10973 -1.3923,4.88416 -1.6181,6.1654 -0.4142,2.35027 -1.4265,3.33825 -2.1767,2.12438 z m 18.4428,-8.82698 c -0.5075,-1.59892 1.6989,-9.22609 4.7065,-16.27033 0.692,-1.62059 -0.8987,-1.28421 -3.7125,0.78509 -2.3098,1.69872 -3.6934,1.88151 -3.6934,0.488 0,-0.89983 2.9091,-3.29695 6.5346,-5.3846 1.797,-1.03477 4.3366,-2.84696 5.6435,-4.02709 3.5163,-3.17515 13.9603,-7.88762 13.9603,-6.29904 0,0.51259 -1.5638,2.11101 -2.0653,2.11101 -0.2024,0 -1.7798,0.90316 -3.5054,2.007 -1.7256,1.10386 -3.7148,2.19024 -4.4204,2.41418 -3.2848,1.04257 -10.9377,16.44212 -11.0139,22.16278 -0.034,2.53622 -0.2322,3.11878 -1.0623,3.11878 -0.5614,0 -1.1787,-0.4976 -1.3717,-1.10578 z m -12.7983,-6.5737 c 0,-1.20173 3.8855,-4.79569 5.1848,-4.79569 1.2226,0 0.8788,1.15877 -1.0763,3.62736 -1.9728,2.49084 -4.1085,3.09816 -4.1085,1.16833 z m 51.9087,-10.51072 c -0.9809,-3.90834 3.0946,-17.26438 7.2164,-23.6489 2.2798,-3.53144 5.3745,-6.57686 7.2605,-7.14491 0.7351,-0.22143 1.3366,-0.27464 1.3366,-0.11824 0,0.15639 -1.4035,1.72848 -3.1188,3.49354 -5.2756,5.42856 -9.1962,14.46879 -10.6982,24.66828 -0.6603,4.48343 -1.33,5.40594 -1.9965,2.75023 z m -14.4833,-14.37279 c 0,-0.58407 3.8568,-2.48625 5.0411,-2.48625 0.4633,0 1.631,-1.14621 2.5949,-2.54714 2.0591,-2.9928 6.2948,-5.48569 10.3342,-6.082 4.0176,-0.59312 3.5627,0.47775 -0.8911,2.09764 -2.8129,1.02308 -4.4442,2.12234 -6.7302,4.53502 -1.7356,1.83178 -3.5344,3.18461 -4.2344,3.18461 -0.6693,0 -2.1766,0.40097 -3.3496,0.89107 -2.4541,1.02536 -2.7649,1.07112 -2.7649,0.40705 z m 27.3265,-2.24298 c 0,-0.82001 5.5648,-6.77786 6.3307,-6.77786 1.1309,0 0.341,1.36556 -2.6632,4.60392 -2.08,2.2422 -3.6675,3.18319 -3.6675,2.17394 z m 119.1473,-8.85734 c -2.942,-2.94201 -4.8719,-6.04463 -5.6818,-9.1346 -1.1348,-4.32923 0.2065,-4.22391 2.2664,0.17796 1.8259,3.9019 4.8023,8.32279 5.281,7.84405 0.1398,-0.13976 -0.4974,-1.68417 -1.416,-3.43198 -0.9186,-1.74782 -1.7608,-3.37835 -1.8716,-3.62338 -0.1108,-0.24506 0.2886,-0.43797 0.8876,-0.42871 1.6389,0.0255 5.074,6.01975 4.8395,8.44518 -0.2595,2.68448 -1.7207,2.73589 -4.3051,0.15148 z m -116.7711,-0.26846 c 0,-1.31261 6.0743,-6.48598 10.0984,-8.60055 3.6256,-1.90521 4.9725,-2.29618 8.1004,-2.35145 4.0715,-0.0718 5.3569,0.87422 1.9991,1.47152 -1.1435,0.20342 -3.4158,0.90555 -5.0495,1.56031 -1.6336,0.65475 -3.3145,1.0687 -3.7351,0.91989 -1.0159,-0.35933 -6.7603,3.63504 -8.3819,5.8283 -1.23,1.66373 -3.0314,2.36015 -3.0314,1.17198 z m 91.2365,-1.81045 c -0.185,-0.49008 -0.138,-3.02968 0.1044,-5.64351 0.4095,-4.4168 0.5413,-4.76667 1.8662,-4.95394 1.3909,-0.19657 1.4164,-0.12414 1.0448,2.97028 -0.2095,1.74448 -0.3832,3.74363 -0.386,4.44257 0,0.69894 -0.52,1.90191 -1.1492,2.67325 -0.9201,1.12802 -1.2097,1.22808 -1.4802,0.51135 z m 6.2188,-2.6166 c -0.812,-1.51731 -0.4565,-2.72988 0.8005,-2.72988 0.8947,0 2.3082,2.81072 1.8149,3.60885 -0.6113,0.98914 -1.8358,0.57762 -2.6154,-0.87897 z m 4.2442,-6.73975 c -4.4359,-4.50869 -5.6808,-6.08906 -4.7965,-6.08906 0.6568,0 1.6821,0.26116 2.2786,0.58036 1.6561,0.88632 9.0514,10.07112 8.7627,10.88308 -0.1398,0.39308 -2.9499,-2.0254 -6.2448,-5.37438 z m -11.4737,4.90095 c -0.2021,-0.32673 -0.706,-1.66336 -1.1197,-2.97027 -0.9871,-3.11853 -3.1742,-6.85406 -5.0379,-8.60494 -0.822,-0.77224 -1.4946,-1.75488 -1.4946,-2.18362 0,-1.17949 -4.1306,-2.74619 -5.106,-1.93667 -0.4303,0.35715 -1.0615,0.47693 -1.4025,0.26616 -1.0176,-0.62889 -0.711,-2.27974 0.85,-4.57695 1.7049,-2.50897 2.7653,-6.5407 2.0267,-7.70607 -0.2796,-0.44124 -0.5124,-2.09291 -0.5174,-3.67036 -0.01,-2.76645 -2.1396,-16.15444 -2.7207,-17.0948 -0.427,-0.69091 1.9131,-10.88865 2.9658,-12.92433 0.5044,-0.97544 1.3372,-4.38398 1.8506,-7.57452 0.5134,-3.19053 1.0404,-5.97409 1.1712,-6.18567 0.1308,-0.21158 0.019,-1.16377 -0.2492,-2.11597 l -0.4869,-1.73126 -0.819,1.78216 c -0.4504,0.98019 -3.0759,4.99006 -5.8344,8.91082 -7.6332,10.84929 -9.3036,13.44254 -12.2165,18.96552 -3.3104,6.27661 -6.4297,15.44124 -6.0759,17.85154 0.143,0.97412 0.021,5.21976 -0.2705,9.43478 -0.5191,7.49883 -0.5698,7.70035 -2.3561,9.36905 -2.2561,2.10752 -2.8881,2.14354 -2.8881,0.16464 0,-1.05145 -0.385,-1.64145 -1.2124,-1.85781 -1.7981,-0.4702 -1.0649,-1.60805 1.2551,-1.94794 2.5405,-0.37218 2.7619,-1.2399 2.8573,-11.19941 0.061,-6.4084 0.2888,-7.99028 1.7951,-12.48629 2.2954,-6.85135 6.4106,-15.13748 9.6239,-19.37822 7.1746,-9.46858 10.2687,-14.04617 12.1497,-17.97519 2.098,-4.38225 2.6037,-4.74298 5.2426,-3.73969 1.6578,0.63028 2.7524,4.2144 1.6885,5.52836 -0.3278,0.40483 -0.9256,3.67663 -1.3283,7.27066 -0.4027,3.59403 -1.001,7.20291 -1.3295,8.01974 -0.3285,0.81682 -0.845,2.55444 -1.1478,3.86136 -1.4498,6.25773 -1.4848,7.48002 -0.3787,13.23216 1.8081,9.40342 2.1812,16.70213 1.0318,20.18484 -1.1623,3.52171 0.8005,4.4593 6.2718,2.99594 2.3194,-0.62033 3.2231,-0.55407 6.7966,0.4983 l 4.1217,1.21379 2.3064,-2.13196 c 1.2685,-1.17258 3.2064,-3.46858 4.3064,-5.10223 5.2409,-7.78347 11.3086,-14.9631 14.5046,-17.1626 3.5954,-2.47442 6.445,-5.67731 7.1929,-8.08472 1.7052,-5.48922 6.8861,-14.33433 9.653,-16.48025 0.7729,-0.59946 1.1539,-0.55435 2.0323,0.24059 1.4832,1.34222 1.3843,2.44501 -0.9521,10.6149 -2.8803,10.07199 -3.5937,14.08961 -2.7741,15.62112 0.698,1.30429 0.395,7.61251 -0.5472,11.38961 -1.7767,7.1232 -6.7173,17.9105 -9.3993,20.52268 -1.022,0.99548 -2.2239,2.86676 -2.6707,4.15839 -0.987,2.85327 -2.3437,3.25929 -3.745,1.12071 -1.0412,-1.58907 -1.036,-1.60687 0.9821,-3.41006 1.1158,-0.99696 2.6201,-2.68422 3.3431,-3.74948 1.9458,-2.86743 6.1513,-10.99915 6.1513,-11.89428 0,-0.42708 0.8108,-2.81732 1.8016,-5.31164 1.3939,-3.50903 1.6469,-4.72151 1.118,-5.35878 -0.845,-1.01813 -0.3109,-8.34632 1.0129,-13.89919 1.6212,-6.80014 3.0826,-12.12535 3.8657,-14.08612 0.4191,-1.04941 0.5883,-2.08162 0.3762,-2.29382 -0.6749,-0.67487 -3.3309,2.73018 -4.3649,5.59581 -3.8462,10.65967 -7.8756,19.37994 -8.8589,19.17232 -0.3267,-0.0689 -0.5104,-0.64792 -0.4082,-1.28653 0.4573,-2.85728 -4.3641,0.22178 -8.5806,5.47966 -4.7488,5.92169 -9.7051,13.19184 -9.7148,14.2501 0,0.54454 -0.7267,1.51273 -1.6036,2.15154 l -1.5945,1.16151 2.6341,1.27772 c 4.1927,2.03375 5.5317,2.89761 6.6818,4.31065 0.5927,0.7281 1.6409,1.60729 2.3293,1.95376 1.9782,0.99544 1.8692,1.94483 -0.2622,2.28395 -1.4021,0.22309 -2.1576,0.0328 -2.6662,-0.67137 -3.6208,-5.01272 -5.0169,-6.15024 -8.9906,-7.32549 -1.8529,-0.548 -4.9314,-1.46129 -6.8413,-2.02955 -2.8336,-0.84314 -3.8249,-0.90574 -5.3886,-0.34028 -1.054,0.3811 -2.483,0.69294 -3.1757,0.69294 -2.5406,0 -2.2266,1.71416 1.0881,5.94054 2.2236,2.83528 4.2498,7.82559 4.0141,9.88644 -0.1067,0.93369 -0.3595,1.43031 -0.5617,1.10357 z m -24.7629,-11.85953 c -1.3151,-1.3868 -1.3307,-1.51585 -0.4024,-3.31105 0.8442,-1.63247 0.8579,-1.99228 0.1087,-2.85359 -0.7168,-0.824 -0.7839,-2.78735 -0.4094,-11.97559 0.5199,-12.75505 1.5161,-17.96689 4.5805,-23.96287 2.506,-4.90341 3.5027,-4.0712 1.0932,0.91275 -0.8374,1.73211 -1.8064,4.88689 -2.1533,7.01065 -0.347,2.12373 -0.9062,5.19797 -1.2427,6.83163 -0.421,2.04412 -0.4188,4.6861 0.01,8.47315 0.4994,4.43856 0.4568,5.96298 -0.2201,7.88169 -0.9219,2.61285 -0.6513,4.14004 0.7333,4.14004 0.8949,0 0.8602,1.38976 -0.091,3.63704 -0.3306,0.78133 -0.1156,0.90796 1.1352,0.66884 l 1.5431,-0.29499 -1.2703,2.15294 c -0.6986,1.18411 -1.4443,2.14832 -1.6571,2.14267 -0.2128,-0.006 -1.0026,-0.65963 -1.7552,-1.45331 z" id="path4339" inkscape:connector-curvature="0" style="fill:#380050;fill-opacity:1"/>
</g></g>
</g>
</svg>