<?xml version="1.0" encoding="utf-8"?>
<!-- Created with Inkscape (http://www.inkscape.org/) --><svg height="152.42821mm" id="svg6779" inkscape:version="0.91 r13725" sodipodi:docname="niveau3.svg" version="1.1" viewBox="0 0 338.49999 540.09995" width="95.532219mm" xmlns="http://www.w3.org/2000/svg" xmlns:cc="http://creativecommons.org/ns#" xmlns:dc="http://purl.org/dc/elements/1.1/" xmlns:inkscape="http://www.inkscape.org/namespaces/inkscape" xmlns:rdf="http://www.w3.org/1999/02/22-rdf-syntax-ns#" xmlns:sodipodi="http://sodipodi.sourceforge.net/DTD/sodipodi-0.dtd" xmlns:svg="http://www.w3.org/2000/svg">
<defs id="defs6781"/>
<sodipodi:namedview bordercolor="#666666" borderopacity="1.0" id="base" inkscape:current-layer="layer1" inkscape:cx="125.29509" inkscape:cy="354.10234" inkscape:document-units="px" inkscape:pageopacity="0.0" inkscape:pageshadow="2" inkscape:window-height="876" inkscape:window-maximized="1" inkscape:window-width="1535" inkscape:window-x="65" inkscape:window-y="24" inkscape:zoom="0.87153704" pagecolor="#ffffff" showgrid="false"/>
<metadata id="metadata6784">
<rdf:RDF>
<cc:Work rdf:about="">
<dc:format>image/svg+xml</dc:format>
<dc:type rdf:resource="http://purl.org/dc/dcmitype/StillImage"/>
<dc:title/>
</cc:Work>
</rdf:RDF>
</metadata>
<g id="layer1" inkscape:groupmode="layer" inkscape:label="Calque 1" transform="translate(-190.75,-64.669357)">
<rect height="539.09998" id="rect4326-0-3-6-4-3-2-61-6-9-9-5-0-7-0-5-8-8-9-4" inkscape:export-xdpi="90" inkscape:export-ydpi="90" style="fill:#ffffff;fill-opacity:1;stroke:none;stroke-opacity:1" width="337.5" x="191.25" y="65.169357"/>
<rect height="486.97104" id="rect2985-3-0-7-7-6-9-6-2-0-3-5-4-5-0-77-3-1-3-5-5-4-3-9-7-0-1-8" inkscape:export-filename="/home/thomas/Documents/fallacies/png/rect2985-3-0-7-7.png" inkscape:export-xdpi="90" inkscape:export-ydpi="90" rx="9.2935619" ry="7.1613393" style="fill:#ffffff;fill-opacity:1;stroke:#a901ef;stroke-width:12;stroke-miterlimit:4;stroke-dasharray:none;stroke-dashoffset:0;stroke-opacity:1" width="285.0025" x="218.42665" y="91.512375"/>
<ellipse cx="360.92792" cy="342.49432" id="oval" rx="110.77639" ry="179.61261" style="fill:#df91ff;fill-opacity:1;stroke:none;stroke-width:3;stroke-miterlimit:4;stroke-dasharray:none;stroke-opacity:1"/>
<path d="m 494.6209,100.0677 0,85 c -13.2539,-39.4762 -29.5079,-65.4525 -72,-85 z" id="path9668-2-1-0-7-4-7" inkscape:connector-curvature="0" sodipodi:nodetypes="cccc" style="fill:#a901ef;fill-opacity:1;fill-rule:evenodd;stroke:none;stroke-width:1px;stroke-linecap:butt;stroke-linejoin:miter;stroke-opacity:1"/>
<rect height="15" id="sfam_1_active" inkscape:label="#rect13148-3-0-9-3-80-7-76" style="fill:#ffffff;fill-opacity:1;stroke:none;stroke-width:5.83799982;stroke-linecap:round;stroke-linejoin:bevel;stroke-miterlimit:4;stroke-dasharray:none;stroke-dashoffset:0;stroke-opacity:1;display:none;" transform="matrix(0,1,-1,0,0,0)" width="65.714287" x="489.78412" y="-225.57094"/>
<rect height="15" id="sfam_2_active" inkscape:label="#rect13148-3-0-9-3-80-7-76" style="fill:#ffffff;fill-opacity:1;stroke:none;stroke-width:5.83799982;stroke-linecap:round;stroke-linejoin:bevel;stroke-miterlimit:4;stroke-dasharray:none;stroke-dashoffset:0;stroke-opacity:1;display:none;" transform="matrix(0,1,-1,0,0,0)" width="65.714287" x="300.0144" y="-225.57094"/>
<rect height="15" id="sfam_3_active" inkscape:label="#rect13148-3-0-9-3-80-7-76" style="fill:#ffffff;fill-opacity:1;stroke:none;stroke-width:5.83799982;stroke-linecap:round;stroke-linejoin:bevel;stroke-miterlimit:4;stroke-dasharray:none;stroke-dashoffset:0;stroke-opacity:1" transform="matrix(0,1,-1,0,0,0)" width="65.714287" x="109.94095" y="-225.57094"/>
<text id="sfam_3" inkscape:label="#text4212-1-29-1-2-8-9-0-9-6-9-8-3-1-0-6-8-0-4-2-3-6-9-3-6-2-6-4" sodipodi:linespacing="0%" style="font-style:normal;font-variant:normal;font-weight:bold;font-stretch:normal;font-size:11.25px;line-height:0%;font-family:stix;-inkscape-font-specification:'stix, bold';text-align:end;letter-spacing:0px;word-spacing:0px;writing-mode:lr-tb;text-anchor:end;fill:#120915;fill-opacity:1;stroke:none" transform="matrix(0,-1,1,0,0,0)" x="-113.58095" xml:space="preserve" y="222.6371"><tspan id="tspan4214-27-1-2-9-7-6-4-1-1-1-3-9-59-96-1-6-2-1-8-8-2-7-4-5-4-7-3" sodipodi:role="line" style="font-style:normal;font-variant:normal;font-weight:bold;font-stretch:normal;font-size:11.25px;line-height:0%;font-family:stix;-inkscape-font-specification:'stix, bold';text-align:end;letter-spacing:0px;word-spacing:0px;writing-mode:lr-tb;text-anchor:end;fill:#120915;fill-opacity:1;stroke:none" x="-113.58095" y="222.6371">Surinterprétation</tspan></text>
<g id="illustration" inkscape:groupmode="layer" inkscape:label="#illustration" transform="translate(186.60659,-39.771006)"><g id="134" inkscape:label="#g5135" transform="translate(-1336.5422,-105.43684)">
<path d="m 1384.8619,525.36754 c 84.9418,0 169.8835,0 254.8253,0 -0.3616,-17.41292 -1.8746,-35.76804 -16.993,-47.0593 -8.6265,-14.69255 -13.9713,-40.9934 -36.1774,-37.8047 -18.2059,3.27815 -36.295,-1.45431 -54.1171,-2.5727 -12.4973,3.0587 -27.5686,-11.55459 -11.4021,-19.1587 5.495,-14.42882 16.7046,-46.88947 -9.8761,-45.36115 -10.725,-19.19108 10.746,-51.71423 -14.9281,-62.93303 -15.069,-2.43942 -31.0212,-2.15829 -46.0861,0.31088 -17.3533,3.838 -30.0673,16.83491 -43.6401,27.19639 -7.9393,16.43657 -6.3479,36.35712 0.292,52.84694 5.5239,13.68472 -7.419,33.06125 7.0285,42.52382 19.1955,4.86223 12.8591,23.73308 -3.5025,27.03787 -15.4595,8.9647 -20.1844,26.66622 -16.2553,43.52764 -0.5451,7.77819 -2.195,16.76604 -9.168,21.44604 z" id="path5130" inkscape:connector-curvature="0" style="fill:#ffffff;fill-opacity:1;fill-rule:evenodd;stroke:none;stroke-width:1px;stroke-linecap:butt;stroke-linejoin:miter;stroke-opacity:1"/>
<g id="layer1-367" style="fill:#380050;fill-opacity:1" transform="matrix(0.56856424,0,0,0.56856424,1340.4141,129.0063)">
<path d="m 81.25965,702.00395 -9.181923,-0.39274 -0.177504,-20.19459 c -0.406154,-46.20877 -0.544345,-51.22161 -1.436012,-52.09489 -0.513344,-0.50275 -0.421865,-2.22772 0.203295,-3.83325 0.62516,-1.60552 0.820782,-4.53255 0.43472,-6.5045 -0.713823,-3.64605 -0.520418,-3.78176 5.850531,-4.10546 4.176591,-0.21219 16.889528,-14.26651 16.889528,-18.67159 0,-2.02494 0.583222,-3.19279 1.360285,-2.72386 0.748156,0.45148 1.360285,0.19301 1.360285,-0.57436 0,-0.76739 3.213673,-3.20364 7.141495,-5.41389 9.90078,-5.57131 14.10743,-9.33946 15.13359,-13.55604 0.59077,-2.42755 1.52208,-3.36419 2.85021,-2.86655 2.55669,0.95796 17.04354,-11.1884 17.04354,-14.29001 0,-2.98491 -2.53631,-4.501 -6.65901,-3.98044 -2.3909,0.30189 -4.72595,-1.12333 -8.77158,-5.35383 -3.0323,-3.1709 -5.37939,-6.2501 -5.21575,-6.84269 0.61324,-2.22057 -4.26821,-8.37083 -10.07351,-12.6919 -3.30432,-2.45951 -6.00785,-5.23461 -6.00785,-6.16691 0,-0.93231 -0.76516,-1.98186 -1.70035,-2.33236 -0.935198,-0.35049 -2.844643,-3.92489 -4.24322,-7.94313 -2.158827,-6.20251 -2.293917,-8.04243 -0.894415,-12.18297 1.389082,-4.10972 1.291441,-5.61168 -0.620575,-9.54596 -1.247966,-2.56789 -3.098185,-4.97956 -4.111597,-5.35928 -2.550521,-0.95565 -4.753257,-7.72342 -4.753257,-14.60404 0,-5.31246 0.365304,-5.90999 4.692493,-7.67537 l 4.692507,-1.91444 -2.699404,-7.49922 c -2.353429,-6.53805 -8.43359,-17.28929 -10.890155,-19.25651 -0.456117,-0.36526 -1.554602,-2.00892 -2.441086,-3.65259 -0.886484,-1.64367 -2.692085,-2.98848 -4.012432,-2.98848 -4.528443,0 -5.665342,-2.86524 -5.665342,-14.27786 0,-12.10096 2.489811,-19.44029 6.132015,-18.0756 1.235819,0.46306 2.029694,-0.008 2.029694,-1.20476 0,-1.94449 7.324359,-8.92775 16.608453,-15.83499 2.639007,-1.96339 6.515591,-6.44612 8.614601,-9.96161 4.87064,-8.15746 17.02975,-21.59506 19.57695,-21.6354 1.07306,-0.017 4.43977,-1.13682 7.48157,-2.4885 3.04178,-1.35169 8.1356,-3.53595 11.31957,-4.85392 3.18397,-1.31796 6.4726,-3.20054 7.30806,-4.18347 0.83546,-0.98293 2.65159,-1.78715 4.03584,-1.78715 1.38425,0 5.74723,-1.45493 9.6955,-3.23317 10.03953,-4.52163 19.47474,-7.39255 24.29549,-7.39255 2.25447,0 6.671,-1.26773 9.81454,-2.81717 6.91468,-3.40824 14.23449,-5.00474 29.52048,-6.43862 6.35933,-0.59652 13.70487,-1.67817 16.32342,-2.40368 5.8796,-1.629 10.64729,-1.38704 14.53363,0.73761 1.63417,0.8934 4.08268,1.64325 5.44114,1.66635 1.35847,0.0231 6.75482,2.26445 11.99192,4.98081 8.06146,4.18127 10.38593,6.23237 15.1544,13.37219 4.54553,6.806 6.21251,11.11948 8.63855,22.35314 3.11886,14.44174 3.35645,21.33726 1.99399,57.87182 -0.73142,19.61289 -0.43713,20.40357 5.80857,15.60653 4.28887,-3.2941 10.46862,-3.42277 13.68227,-0.28489 6.98407,6.81941 9.79311,12.02014 11.00482,20.37465 1.32978,9.16855 1.14784,11.47133 -1.98064,25.06954 -1.09243,4.74837 -2.28267,13.71382 -2.64496,19.92323 -1.41471,24.24694 -0.78462,21.99992 -7.9431,28.32672 l -6.55096,5.78984 7.94408,5.15535 c 4.36925,2.83543 9.19925,5.21109 10.73336,5.27922 1.53408,0.0681 3.52731,0.56926 4.42937,1.11361 0.90207,0.54437 9.85725,1.48878 19.90041,2.0987 10.04316,0.60993 18.9071,1.49928 19.69763,1.97633 0.79054,0.47707 6.49552,1.11313 12.67775,1.41346 6.18221,0.30035 15.21922,1.46808 20.08224,2.59496 18.133,4.20186 24.17697,5.00513 38.96835,5.17906 8.33985,0.0981 14.95436,0.5156 14.6989,0.92782 -0.87216,1.40742 11.89799,24.46792 18.23054,32.92095 7.2079,9.62148 11.81929,16.46762 17.77797,26.39342 2.76522,4.60624 4.81531,6.69102 6.10463,6.20792 1.32513,-0.49651 2.83938,1.25523 4.77124,5.51956 1.5565,3.43578 2.83002,7.06745 2.83002,8.07038 0,1.00291 0.52686,1.82348 1.17081,1.82348 0.64394,0 1.54587,3.09213 2.00427,6.87141 0.45841,3.77929 1.46187,7.48501 2.2299,8.23493 1.96403,1.91773 1.74244,3.84841 -0.30391,2.64798 -1.29895,-0.76198 -1.34081,-0.54532 -0.17728,0.91777 0.83769,1.05339 2.27498,4.19367 3.19398,6.97842 1.06943,3.24062 2.84702,5.4998 4.93827,6.27615 1.79706,0.66712 3.29835,2.27373 3.33621,3.57021 0.0378,1.29649 0.35128,5.34573 0.69649,8.99833 0.34521,3.65259 0.77333,8.5832 0.95138,10.95692 0.23283,3.10406 0.99211,4.3161 2.70422,4.3167 1.47335,5.3e-4 2.3805,1.01315 2.3805,2.65728 0,2.49282 -0.98441,2.67041 -15.98335,2.8836 -8.79084,0.12495 -23.63495,0.34005 -32.98691,0.47802 -9.35195,0.13794 -55.26157,0.64862 -102.02136,1.1348 -272.00254,2.82816 -288.273586,2.95878 -300.96303,2.41602 z m 91.86351,-6.40226 c 0.89578,-0.87466 -2.0226,-8.66107 -4.7943,-12.79151 -2.25454,-3.35972 -9.58714,-27.22034 -12.02659,-39.13509 -0.62983,-3.07616 -2.02786,-9.05313 -3.10676,-13.28215 -1.07889,-4.22903 -2.37018,-10.67763 -2.86953,-14.33022 -0.49935,-3.65259 -1.28593,-8.73301 -1.74795,-11.28983 -0.46204,-2.55681 -0.87705,-6.74069 -0.92228,-9.2975 -0.0452,-2.55681 -0.47304,-4.9476 -0.95073,-5.31286 -0.47767,-0.36526 -1.52775,-3.95144 -2.33351,-7.96929 l -1.465,-7.30518 0.61523,9.96161 c 1.11228,18.00989 8.90995,57.74473 17.56401,89.50159 1.96782,7.22108 3.30821,13.39251 2.97866,13.7143 -0.32956,0.32178 -0.98445,-0.60016 -1.45532,-2.04876 -0.47087,-1.44861 -1.69682,-2.94881 -2.72432,-3.33381 -1.46697,-0.54967 -1.62504,0.12782 -0.73601,3.15456 0.62268,2.12002 1.58072,4.62117 2.12895,5.55811 0.54824,0.93693 -0.24323,0.50813 -1.75882,-0.95291 -1.51557,-1.46103 -2.57196,-2.97788 -2.34751,-3.37075 0.22445,-0.39289 -1.35952,-1.47831 -3.51994,-2.41205 -3.3538,-1.44954 -4.68172,-1.35249 -9.08382,0.66393 -2.83569,1.29892 -5.91536,3.08331 -6.84371,3.96531 -0.92836,0.88201 -3.83597,2.29586 -6.46136,3.14188 -9.51888,3.06745 -4.85549,4.07107 18.23291,3.92394 12.65349,-0.0806 23.28595,-0.41962 23.6277,-0.75332 z m 54.70719,-3.85365 c 13.16935,-1.877 36.28121,-7.36705 44.51887,-10.57511 2.78884,-1.08608 9.52225,-2.95261 14.96313,-4.14783 5.4409,-1.19522 10.27342,-2.38889 10.73896,-2.65259 0.98131,-0.55588 -3.7503,-15.18896 -5.4471,-16.84575 -0.97737,-0.95434 -8.42385,0.91349 -28.25168,7.08648 -6.70239,2.08664 -18.1282,4.87542 -26.32005,6.42414 -4.11486,0.77793 -11.4604,2.24796 -16.32342,3.26673 -11.49688,2.40852 -18.396,3.29587 -33.3231,4.286 -6.73127,0.44649 -12.57948,1.01747 -12.996,1.26882 -0.41653,0.25135 -0.12494,3.82763 0.64796,7.94728 l 1.40528,7.49028 19.07229,-0.90176 c 10.48976,-0.49599 24.58145,-1.68698 31.31486,-2.64669 z m 81.1529,1.02877 c 3.39702,-1.42022 3.53674,-1.81952 2.30063,-6.57461 -0.72382,-2.78441 -2.38505,-6.44636 -3.69159,-8.13765 l -2.37554,-3.07508 -14.20808,4.22266 c -7.81443,2.32245 -18.1869,5.30598 -23.04992,6.63003 -4.86302,1.32407 -12.51462,3.40673 -17.00356,4.62813 -4.48894,1.2214 -9.539,2.22637 -11.22235,2.23326 -1.68335,0.007 -3.06064,0.59241 -3.06064,1.30113 0,1.86219 67.66835,0.71315 72.31105,-1.22787 z m 26.74428,-1.35962 c 0.29736,-2.02948 -0.2652,-2.96676 -1.78064,-2.96676 -1.24884,0 -1.81658,-0.62994 -1.30137,-1.44393 0.50266,-0.79415 2.02667,-1.15979 3.38669,-0.81253 3.96893,1.01343 7.95817,-4.32552 8.56737,-11.46606 1.14826,-13.45881 13.86462,-19.69199 25.95906,-12.72432 3.94954,2.27534 6.42281,2.73057 11.99491,2.20778 l 7.0195,-0.65858 -3.12382,2.46987 c -3.65312,2.88838 -9.44245,4.42937 -22.57685,6.00943 l -9.50846,1.14387 -0.79057,4.64875 c -0.85929,5.05277 -4.5048,12.61063 -6.73059,13.95382 -3.04093,1.83509 0.16832,2.62792 8.05826,1.99077 6.65125,-0.53713 9.08685,-1.39986 12.27333,-4.34744 3.12198,-2.8879 5.96697,-3.92959 13.25264,-4.85247 5.10249,-0.64632 10.4489,-1.63332 11.8809,-2.19331 1.82918,-0.7153 2.31108,-0.55592 1.62008,0.53578 -0.54097,0.85466 -1.93113,1.55393 -3.08926,1.55393 -1.36124,0 -1.81376,0.74276 -1.28,2.10095 0.45413,1.15552 0.82568,3.32065 0.82568,4.81138 0,2.25869 0.34008,2.43485 2.04043,1.05696 1.40974,-1.1424 2.04042,-1.19267 2.04042,-0.16263 0,0.88144 2.50211,1.49084 6.12128,1.49084 6.87117,0 7.02048,-0.33333 4.20543,-9.38872 -1.07507,-3.4583 -1.58209,-8.70453 -1.17883,-12.19785 1.09379,-9.47531 -2.73986,-14.57845 -12.44509,-16.56615 -4.16158,-0.85231 -11.87233,-4.09656 -17.26009,-7.26204 -5.35599,-3.14683 -11.49149,-6.75534 -13.63442,-8.0189 -4.33554,-2.55643 -4.72369,-1.93703 -1.85583,2.9615 1.06921,1.82629 1.93867,4.51593 1.93211,5.97696 -0.008,1.89105 -0.78162,1.23314 -2.68332,-2.28336 -1.46926,-2.71689 -3.86969,-5.56599 -5.33428,-6.33133 -2.23576,-1.16834 -2.98852,-0.8021 -4.69317,2.28337 -2.8666,5.18858 -8.66458,11.01442 -15.40682,15.48085 -5.99347,3.97041 -6.5177,4.73526 -4.69861,6.85546 4.52279,5.2715 5.18877,20.52092 0.89619,20.52092 -1.08834,0 -1.97879,-0.86127 -1.97879,-1.91393 0,-1.05266 -0.70856,-2.34152 -1.57456,-2.86412 -1.08666,-0.65577 -1.32817,-0.0302 -0.7794,2.01885 0.61492,2.29599 0.3208,2.79129 -1.29745,2.18495 -1.46772,-0.54994 -1.85705,-0.18462 -1.30374,1.2233 0.5947,1.51322 -0.20517,2.00738 -3.24925,2.00738 -3.00895,0 -4.03817,0.62064 -4.03817,2.43506 0,3.79989 1.09616,4.16678 11.41776,3.82167 8.84852,-0.29586 9.70346,-0.57431 10.10134,-3.28997 z m 22.01002,-4.95908 c -1.83814,-2.16261 -1.39847,-2.43294 1.92917,-1.18611 1.18343,0.44341 2.15169,1.33996 2.15169,1.99232 0,1.83723 -2.20414,1.40179 -4.08086,-0.80621 z m 3.60791,-5.40453 c -3.59288,-4.39674 -4.17745,-7.20664 -1.11477,-5.35843 1.84315,1.11227 7.14921,10.09887 5.96276,10.09881 -0.53589,-2e-5 -2.71748,-2.13319 -4.84799,-4.74038 z m -7.33369,-28.40337 c -0.97349,-1.52206 -1.13699,-2.91026 -0.39546,-3.35774 1.10548,-0.66711 4.12124,3.13889 4.12124,5.20117 0,1.66668 -2.16628,0.59486 -3.72578,-1.84343 z m 77.71071,39.07806 c 1.14628,-1.11926 2.49408,-4.25717 2.9951,-6.97313 0.50102,-2.71596 1.35485,-5.5358 1.8974,-6.26632 0.54254,-0.73052 1.33167,-2.52361 1.75362,-3.98464 0.42195,-1.46104 2.05912,-6.84031 3.63814,-11.95394 3.75274,-12.15315 6.42741,-32.38323 7.56783,-57.23986 1.3948,-30.4007 3.14727,-33.24794 3.1921,-5.18624 0.053,33.13126 -4.54403,62.01058 -13.15247,82.62709 -2.199,5.2664 -3.6671,9.89855 -3.26244,10.29367 0.97656,0.95354 13.77843,0.88822 17.51074,-0.0893 3.20855,-0.84037 3.68306,-2.09029 7.2568,-19.11548 1.30341,-6.20941 2.71564,-10.39328 3.1383,-9.29751 0.60689,1.57342 1.93337,17.82952 2.2489,27.56046 0.0296,0.91315 1.2781,1.66027 2.77441,1.66027 2.17881,0 2.74519,-0.92572 2.84423,-4.64875 0.068,-2.55681 0.17151,-6.29242 0.22999,-8.30134 0.56607,-19.4458 -4.75062,-61.64827 -10.60976,-84.21749 -3.29931,-12.70886 -4.61481,-25.56098 -2.7979,-27.33503 0.44629,-0.43578 0.81145,0.4555 0.81145,1.9806 0,5.26593 5.59724,26.29353 12.34498,46.37732 3.72365,11.08299 6.64009,20.64614 6.48098,21.25144 -0.15911,0.6053 0.14626,4.08903 0.6786,7.74162 2.20025,15.09675 2.08808,20.02911 -0.70868,31.16164 -1.56705,6.23768 -3.37655,11.90905 -4.02111,12.60304 -2.3977,2.5816 -1.01394,3.52846 4.57608,3.13127 5.53014,-0.39295 5.90945,-0.71354 10.00739,-8.45848 2.34265,-4.42753 6.24244,-14.28952 8.66617,-21.91555 4.26627,-13.42335 4.83884,-16.06593 5.2922,-24.4248 0.1312,-2.41923 0.69185,-3.4355 1.46547,-2.65643 1.70851,1.72053 -0.68903,33.2379 -3.45286,45.39033 -1.20019,5.27721 -2.11611,9.97541 -2.03537,10.44046 0.0807,0.46505 6.2698,0.9968 13.75345,1.18167 9.96901,0.24626 13.60666,-0.096 13.60666,-1.28004 0,-0.88889 -1.57383,-5.73835 -3.49739,-10.77659 -9.5583,-25.03526 -12.80204,-35.35562 -12.04191,-38.31281 1.06887,-4.15832 -1.29831,-8.20631 -6.26558,-10.71443 -2.2223,-1.12211 -4.04054,-2.91955 -4.04054,-3.99433 0,-4.22638 -19.80987,-36.97117 -27.30219,-45.12926 -1.34182,-1.46104 -5.39167,-8.26847 -8.99968,-15.12763 l -6.56002,-12.47119 -15.63682,-0.47192 c -17.18099,-0.51852 -17.135,-0.5129 -34.6808,-4.23693 -6.73341,-1.42915 -16.2214,-3.02102 -21.08442,-3.53748 -4.86302,-0.51648 -13.01373,-1.77747 -18.11271,-2.80223 -9.32381,-1.87382 -18.93108,-2.44001 -20.2102,-1.19105 -0.89107,0.87006 15.57405,41.24037 23.83221,58.43344 3.50881,7.30518 8.35779,18.89519 10.77551,25.75558 2.71949,7.71672 5.40118,13.0351 7.03211,13.94626 5.85353,3.27022 11.64622,9.33894 11.64622,12.20117 0,1.72018 1.55458,4.10208 3.65005,5.59253 3.41157,2.42657 3.63819,3.22035 3.46863,12.14934 -0.15816,8.32846 0.11504,9.49798 2.13116,9.1229 1.30166,-0.24216 2.47618,-1.87586 2.68683,-3.73722 0.20584,-1.81883 1.32251,-6.40908 2.48149,-10.20057 1.51205,-4.94652 2.65502,-6.68834 4.04667,-6.16691 1.45395,0.54478 1.93944,-0.45017 1.93944,-3.97466 0,-3.60994 0.66337,-4.90693 2.8575,-5.58691 2.07923,-0.64436 2.44972,-1.28372 1.36028,-2.34747 -2.11964,-2.06967 -1.85588,-3.58706 0.6235,-3.58706 1.16639,0 1.80328,-0.50149 1.41532,-1.11443 -1.26255,-1.99467 -2.0682,-25.44987 -0.87417,-25.44987 0.63807,0 0.82807,-2.54021 0.42226,-5.64491 -0.92199,-7.05357 0.89889,-5.71297 2.63457,1.93967 1.79278,7.90429 2.33345,51.29688 0.55508,44.54785 -2.0985,-7.96395 -2.90901,-5.8275 -2.39339,6.30884 0.32393,7.62484 -0.007,11.29001 -1.02022,11.29001 -0.93914,0 -1.49988,3.22763 -1.49988,8.63339 0,9.13431 1.58248,10.88315 5.97069,6.59838 z M 402.101,636.89365 c -1.2087,-1.90959 -6.2584,-20.62623 -5.70951,-21.16217 0.70854,-0.69186 5.63169,12.50813 6.68731,17.93009 0.81499,4.18607 0.43049,5.45702 -0.9778,3.23208 z m 8.16266,-14.27404 c -0.44884,-1.14208 -1.41457,-1.71533 -2.14608,-1.27389 -1.54916,0.93487 -2.40111,-2.02073 -4.01139,-13.9164 -0.64277,-4.74837 -1.85068,-10.57591 -2.68425,-12.95009 -2.98721,-8.50831 -4.1809,-12.78266 -3.70072,-13.25151 0.5865,-0.57267 14.12467,19.85135 15.37289,23.19193 0.79513,2.12799 0.60268,2.11086 -2.07479,-0.18467 -3.35361,-2.87521 -3.55876,-2.48469 -1.45821,2.77582 1.36399,3.41589 2.92955,17.68532 1.94035,17.68532 -0.23195,0 -0.78896,-0.93443 -1.2378,-2.07651 z m -21.84688,-59.46925 c -1.36818,-0.97685 -2.23852,-2.50571 -1.93408,-3.39747 0.34813,-1.01979 1.67602,-0.36081 3.57888,1.77609 3.25595,3.65638 2.39462,4.50544 -1.6448,1.62138 z m 73.63165,122.3946 c -0.43423,-1.05955 -0.75657,-0.74483 -0.82183,0.80247 -0.0591,1.40015 0.26244,2.18463 0.71444,1.74328 0.45201,-0.44135 0.50033,-1.58694 0.10739,-2.54575 z M 324.54128,671.40614 c -2.6578,-2.59514 -2.9638,-0.10905 -0.47078,3.82486 1.46152,2.30622 1.76648,2.37492 2.17114,0.48909 0.25893,-1.20671 -0.50623,-3.14799 -1.70036,-4.31395 z m -8.43795,1.66119 c 0.45413,-1.15552 0.82567,-3.24746 0.82567,-4.64876 0,-1.40128 0.92543,-2.54779 2.05651,-2.54779 1.64974,0 1.88352,-1.11653 1.18197,-5.64491 -0.48099,-3.10471 -1.66567,-7.95652 -2.63262,-10.7818 -0.96694,-2.8253 -1.49351,-5.81378 -1.17016,-6.64108 0.35496,-0.90816 -1.28123,-1.63375 -4.12925,-1.83117 l -4.71717,-0.32699 0.69471,12.28093 c 0.65886,11.64681 1.25311,19.03364 1.70924,21.24636 0.38812,1.88276 5.35595,0.99482 6.1811,-1.10479 z m -92.35384,-2.70689 c 11.88357,-2.18992 63.74066,-14.76038 65.73148,-15.93369 0.24079,-0.14191 -0.52437,-3.02523 -1.70035,-6.40735 -1.80154,-5.18117 -3.19295,-26.22632 -1.62254,-24.54082 0.28359,0.30439 0.82665,4.43846 1.20679,9.18683 0.77489,9.67934 3.19245,17.01978 4.99251,15.1587 0.95958,-0.99214 -1.96628,-31.68179 -4.83603,-50.72536 -1.00244,-6.6521 -2.65338,-4.09869 -4.62439,7.15229 -1.40241,8.00529 -2.74844,11.35823 -6.28216,15.64872 -2.47352,3.00325 -5.6863,7.5524 -7.13952,10.10922 -5.56259,9.78688 -23.80873,20.90611 -35.93998,21.90186 -3.74402,0.30732 -7.4137,1.15086 -8.15486,1.87454 -0.74116,0.72369 -3.00444,0.99223 -5.02954,0.59675 -5.26022,-1.02724 -13.62563,3.56237 -20.25184,11.11097 -3.06797,3.49505 -5.58208,6.80814 -5.58691,7.3624 -0.0117,1.34081 15.69619,3.2e-4 29.23734,-2.49506 z m 6.33592,-9.67299 c -1.4168,-0.85499 -1.29982,-1.27662 0.54614,-1.96828 2.80165,-1.04975 4.34073,0.0452 2.53787,1.80558 -0.70453,0.68793 -2.09233,0.76114 -3.08401,0.1627 z m -139.394756,3.60607 c -0.43423,-1.05955 -0.756563,-0.74483 -0.821829,0.80247 -0.05906,1.40015 0.26244,2.18464 0.714449,1.74328 0.452009,-0.44135 0.50034,-1.58693 0.10738,-2.54575 z m 234.400056,-3.7356 c 0,-0.73052 -0.61212,-1.32822 -1.36028,-1.32822 -0.74816,0 -1.36029,0.5977 -1.36029,1.32822 0,0.73052 0.61213,1.32821 1.36029,1.32821 0.74816,0 1.36028,-0.59769 1.36028,-1.32821 z M 93.842285,657.90149 c 0,-0.73052 -0.612128,-1.32822 -1.360285,-1.32822 -0.748157,0 -1.360285,0.5977 -1.360285,1.32822 0,0.73052 0.612128,1.32821 1.360285,1.32821 0.748157,0 1.360285,-0.59769 1.360285,-1.32821 z m 243.831065,-7.72562 c 3.78468,-3.43695 5.17494,-10.18124 2.29219,-11.11951 -0.79673,-0.2593 -4.62254,-0.15969 -8.50178,0.22138 l -7.05319,0.69285 0.32594,7.30518 c 0.47307,10.60254 0.97332,11.38968 5.46913,8.60535 2.0498,-1.26949 5.41028,-3.83685 7.46771,-5.70525 z m 60.87275,2.45358 c 0,-0.70808 -3.38128,-3.39938 -7.51394,-5.9807 -8.5158,-5.31905 -14.6259,-13.63882 -17.7844,-24.21596 -2.51065,-8.40763 -8.77428,-13.12751 -15.50546,-11.68395 -3.3648,0.72162 -3.93796,0.50669 -3.25859,-1.22195 0.53335,-1.35713 2.50103,-2.09757 5.57419,-2.09757 5.60644,0 11.55441,5.37344 14.01885,12.66474 0.85552,2.53113 2.1614,4.60206 2.90195,4.60206 1.91894,0 0.46187,-3.88693 -7.86573,-20.98297 -4.02024,-8.25329 -8.50613,-18.41413 -9.96864,-22.57965 -1.46251,-4.16551 -3.82888,-10.56214 -5.2586,-14.21473 -1.42973,-3.65259 -3.94667,-10.07823 -5.59319,-14.2792 -3.83938,-9.79579 -5.8153,-11.62099 -12.58057,-11.62099 h -5.50784 l 5.17794,6.17002 c 7.5085,8.9471 3.75889,6.6897 -9.19912,-5.53819 -11.58483,-10.9321 -22.30852,-18.87671 -23.67668,-17.54082 -0.85905,0.83881 -1.12855,19.6959 -0.35555,24.87828 0.27241,1.82629 1.26598,3.91823 2.20792,4.64875 1.79287,1.39047 9.35684,28.88061 10.55072,38.3451 0.38061,3.01729 1.06844,7.47838 1.52851,9.9135 0.93381,4.94266 0.0653,4.96398 14.49593,-0.35576 11.87646,-4.37815 17.21185,-4.40121 21.35758,-0.0923 4.01597,4.17404 2.45444,6.1161 -1.78835,2.22417 -3.94226,-3.61624 -9.8549,-4.00949 -8.39997,-0.55867 0.53902,1.27841 1.29313,3.51977 1.67583,4.98081 0.69582,2.65643 0.69582,2.65643 -1.47135,0 -1.19195,-1.46104 -2.18663,-3.40355 -2.21044,-4.3167 -0.0666,-2.55694 -2.57417,-2.04132 -14.32087,2.94479 -5.96694,2.53277 -15.47232,5.58041 -21.12305,6.77254 l -10.27405,2.16751 0.28978,10.16219 c 0.61206,21.46319 2.71748,28.25527 8.13001,26.22726 1.79415,-0.67225 2.04918,-1.92665 1.30973,-6.44191 -0.50504,-3.08391 -1.78048,-6.07825 -2.83431,-6.6541 -1.05382,-0.57585 -1.56992,-1.92773 -1.14687,-3.0042 0.42305,-1.07645 0.21289,-1.95719 -0.46704,-1.95719 -0.67992,0 -1.29127,-1.94251 -1.35855,-4.3167 -0.11262,-3.97453 0.43208,-4.54417 6.8719,-7.18645 3.84683,-1.57836 11.80127,-3.57424 17.67653,-4.43529 5.87528,-0.86106 14.05257,-2.69777 18.1718,-4.08157 5.18831,-1.74296 7.03191,-1.97767 6.00025,-0.7639 -3.37528,3.97107 -13.68053,7.60898 -26.35351,9.30318 -15.20257,2.03235 -19.00506,4.18993 -17.45212,9.90251 0.82767,3.04458 1.85901,3.66837 7.00139,4.23465 3.31691,0.36526 9.70351,0.22718 14.19245,-0.30684 4.48894,-0.53403 11.41509,-1.27721 15.39143,-1.65155 3.97635,-0.37431 8.15193,-1.58106 9.27909,-2.68163 2.30389,-2.24959 7.29618,-2.70996 7.29618,-0.67284 0,0.73052 -0.61213,1.32822 -1.36029,1.32822 -0.74816,0 -1.36028,0.89654 -1.36028,1.99232 0,2.75485 1.07911,2.51701 6.33295,-1.39581 4.91158,-3.65793 6.00727,-3.07575 2.16883,1.15239 -2.31216,2.5469 -2.27277,2.60279 1.37217,1.94681 2.7263,-0.49064 3.39764,-0.25763 2.45455,0.85192 -1.50425,1.76979 10.9989,9.94629 19.27917,12.6077 2.79517,0.89841 5.43284,2.18757 5.8615,2.8648 1.03558,1.6361 7.42023,1.58784 7.42023,-0.0561 z m -77.90465,-20.76651 c -0.54554,-0.53267 -0.99188,-1.88495 -0.99188,-3.00509 0,-1.49502 0.40242,-1.64366 1.51332,-0.55895 0.83233,0.81271 1.27867,2.16499 0.99188,3.00509 -0.2868,0.84009 -0.96779,1.09163 -1.51332,0.55895 z m 35.05567,-7.16682 c 0.46239,-0.73052 1.11065,-1.32822 1.44057,-1.32822 0.32993,0 0.59986,0.5977 0.59986,1.32822 0,0.73051 -0.64826,1.32821 -1.44057,1.32821 -0.79231,0 -1.06224,-0.5977 -0.59986,-1.32821 z m 4.38983,-3.66754 c -0.37425,-1.27018 -1.12146,-3.3554 -1.66047,-4.63381 -0.55245,-1.31032 -0.38111,-2.32437 0.39276,-2.32437 1.7861,0 4.54157,7.70261 3.07257,8.5891 -0.61842,0.37319 -1.4306,-0.36072 -1.80486,-1.63092 z m -24.68058,-35.70491 c -1.29599,-3.29764 0.13245,-3.74792 1.86455,-0.58776 0.83563,1.52458 0.95062,2.77019 0.25575,2.77019 -0.69443,0 -1.64857,-0.9821 -2.1203,-2.18243 z m 0.57976,-6.73632 c -2.62722,-3.26125 -2.68574,-3.68096 -0.61222,-4.39116 2.11486,-0.72437 2.1215,-0.9524 0.0856,-2.94031 -1.21389,-1.18527 -2.20708,-2.61383 -2.20708,-3.17458 0,-0.56074 2.14245,1.00806 4.761,3.48622 5.15314,4.87687 5.8872,6.64108 2.76326,6.64108 -1.2169,0 -1.6917,0.77871 -1.21475,1.99232 1.20978,3.07829 -0.37054,2.36518 -3.5758,-1.61357 z M 335.8118,565.2585 c -3.41713,-3.46996 -7.35029,-8.03109 -8.74038,-10.13583 l -2.52742,-3.82682 3.33401,0.97664 c 5.44796,1.59588 9.45527,4.58946 9.45527,7.06339 0,1.27462 1.55238,4.54817 3.44975,7.27457 4.75214,6.82853 2.47475,6.20918 -4.97123,-1.35195 z m -211.87445,80.33486 c -1.34344,-1.302 -1.49969,-1.14944 -0.76149,0.74353 0.51083,1.30992 1.27145,2.04708 1.69027,1.63813 0.41881,-0.40894 8.7e-4,-1.48068 -0.92878,-2.38166 z m -24.686001,-8.1331 c -1.148026,-1.08806 -1.483568,-0.95234 -1.280722,0.51801 0.151169,1.09577 0.192957,3.18771 0.09285,4.64875 -0.151536,2.21173 -0.401025,2.32291 -1.490396,0.66411 -0.719631,-1.09578 -0.94752,-3.18772 -0.506434,-4.64876 0.634097,-2.10034 0.444106,-2.32435 -0.907569,-1.07005 -1.37167,1.27283 -1.347947,2.43878 0.120018,5.89919 l 1.829556,4.31283 1.849144,-4.42489 c 1.386054,-3.31675 1.459574,-4.7941 0.29355,-5.89919 z m 147.899671,6.38129 c 4.88676,-1.75296 8.41688,-4.82878 15.33213,-13.35899 0.67717,-0.83531 0.87433,-1.86721 0.43814,-2.29312 -0.43619,-0.4259 0.21273,-1.15123 1.44205,-1.61184 1.22932,-0.46061 2.23512,-1.89921 2.23512,-3.19689 0,-1.29768 1.22426,-2.67201 2.72057,-3.05409 1.60115,-0.40884 2.72057,-1.8117 2.72057,-3.40945 0,-1.49312 1.07123,-3.30013 2.3805,-4.01556 1.30928,-0.71543 2.22747,-1.64168 2.04043,-2.05832 -0.98694,-2.19848 -0.14317,-12.71147 1.02021,-12.71147 0.74816,0 1.36029,1.8927 1.36029,4.20602 0,2.3133 0.45909,3.75688 1.02021,3.20795 0.56112,-0.54892 1.12813,-5.87838 1.26001,-11.84325 0.13189,-5.96485 0.32157,-12.04059 0.42152,-13.50162 0.0999,-1.46104 -0.70762,-7.48849 -1.79457,-13.39436 -1.99985,-10.86597 -1.70438,-17.81869 0.75723,-17.81869 0.74098,0 0.9949,-0.89655 0.56425,-1.99233 -0.43064,-1.09577 -0.19006,-1.99232 0.5346,-1.99232 0.72468,0 1.36421,2.54021 1.42117,5.64492 0.15354,8.36867 3.25032,25.78722 4.29289,24.14635 0.49684,-0.78199 0.61093,-4.56383 0.25353,-8.4041 -0.42784,-4.59687 -0.17133,-6.69352 0.75079,-6.13704 1.35811,0.81956 1.95515,-0.8864 1.50219,-4.29235 -0.12767,-0.95996 1.2798,-1.66027 3.3367,-1.66027 3.2341,0 3.36318,-0.18975 1.41992,-2.0872 -1.17568,-1.14795 -2.16072,-3.09046 -2.18897,-4.3167 -0.0282,-1.22622 -0.38425,-4.47086 -0.79112,-7.21031 -0.46497,-3.13073 -0.19325,-4.9808 0.73152,-4.9808 0.8092,0 1.47126,-1.67355 1.47126,-3.719 0,-2.04545 0.5986,-4.30349 1.3302,-5.01784 0.83501,-0.81532 0.926,-5.98235 0.24443,-13.87985 -1.17971,-13.66951 -1.30648,-13.66877 -6.39663,0.037 -0.94956,2.55682 -2.49394,4.64876 -3.43195,4.64876 -0.938,0 -2.41543,2.05892 -3.28317,4.57537 -0.86774,2.51646 -1.96298,3.96668 -2.43387,3.22272 -0.88024,-1.39066 3.27681,-16.14199 6.0133,-21.33826 0.84503,-1.6046 1.19616,-5.37982 0.78129,-8.40002 -0.60156,-4.37923 -0.36538,-5.34015 1.171,-4.76448 1.05851,0.39661 1.92455,0.18486 1.92455,-0.47056 0,-0.6554 1.07122,-2.2378 2.3805,-3.51642 1.96347,-1.91752 2.37386,-4.71188 2.34264,-15.95118 -0.0293,-10.54552 0.33588,-13.32355 1.61516,-12.28687 1.21956,0.98827 2.5538,-0.51967 5.08823,-5.7507 4.68671,-9.67335 11.33578,-15.79588 15.46925,-14.24423 1.69994,0.63813 3.44932,2.22056 3.88752,3.51653 0.4382,1.29595 1.89353,4.74706 3.23406,7.66914 1.34054,2.92207 2.16665,5.58733 1.83582,5.92279 -0.33084,0.33546 -2.9979,-2.05532 -5.92679,-5.31286 -2.9289,-3.25753 -5.34855,-5.3251 -5.37701,-4.59458 -0.0285,0.73052 1.69584,5.81094 3.83176,11.28983 2.13594,5.47889 4.31673,11.157 4.84622,12.61804 2.04861,5.65274 4.10899,-2.30622 4.12613,-15.93858 0.0151,-12.03007 -0.30209,-13.72038 -3.36518,-17.9309 -1.86006,-2.55681 -3.841,-4.84798 -4.40212,-5.09149 -0.56111,-0.24351 -1.02021,-1.24919 -1.02021,-2.23488 0,-0.98566 -1.25333,-2.18054 -2.78518,-2.65527 -3.8348,-1.18842 -11.64061,4.82659 -14.28592,11.00844 -1.14215,2.66913 -3.06121,5.91522 -4.26456,7.21357 -2.07556,2.23939 -2.27675,2.242 -3.91776,0.0507 -2.35757,-3.14814 -4.32249,-0.87761 -2.16275,2.49915 1.30308,2.03737 1.34517,3.14927 0.17146,4.53017 -0.85551,1.00652 -1.19998,2.39172 -0.76546,3.07821 0.43452,0.68649 -0.0376,2.80578 -1.04911,4.70955 -1.77246,3.33585 -1.87085,3.16521 -2.71336,-4.70536 -0.4808,-4.49171 -0.88357,-10.91812 -0.89502,-14.28092 -0.0115,-3.3628 -0.59263,-6.99707 -1.29147,-8.07617 -0.86811,-1.34043 -0.58657,-2.70006 0.8887,-4.29178 1.69309,-1.82675 1.81084,-2.73984 0.54527,-4.22878 -1.10406,-1.29896 -1.16221,-2.17167 -0.18405,-2.76196 0.99337,-0.59946 0.97209,-1.69843 -0.0697,-3.59908 -1.0876,-1.98427 -1.08861,-2.48804 -0.004,-1.83332 2.12069,1.27976 1.79514,-1.47711 -1.16234,-9.84297 -2.51398,-7.11136 -2.5028,-10.14293 0.0318,-8.61342 0.69646,0.4203 1.26629,0.0672 1.26629,-0.78454 0,-0.85179 0.91819,-1.20468 2.04043,-0.78418 1.38099,0.51743 2.04043,-0.0671 2.04043,-1.80854 0,-1.78821 0.64889,-2.32992 2.12737,-1.77595 1.76572,0.66159 2.0548,-0.19227 1.70036,-5.02249 -0.301,-4.10219 -1.02916,-5.8196 -2.46745,-5.8196 -2.52269,0 -10.95747,-7.22632 -10.72775,-9.19077 0.0923,-0.78922 0.0859,-2.33149 -0.0142,-3.42727 -0.16178,-1.77095 -0.32851,-1.77095 -1.50062,0 -1.82319,2.75468 -1.84158,-3.90388 -0.0237,-8.57262 1.19087,-3.05838 1.64162,-3.24885 4.13367,-1.74673 2.31573,1.39583 2.65034,2.54305 1.94453,6.66676 -0.55002,3.21346 -0.32742,4.98081 0.62732,4.98081 1.65474,0 1.82413,-7.19925 0.35939,-15.27448 -0.8477,-4.67348 -1.42566,-5.32918 -4.80249,-5.44851 -2.11133,-0.0746 -4.14157,0.63478 -4.51164,1.57641 -0.37005,0.94162 -1.54037,1.38699 -2.60069,0.9897 -1.06031,-0.39729 -1.92785,-0.0607 -1.92785,0.74798 0,0.80867 -0.68351,1.47032 -1.51893,1.47032 -0.84923,0 -1.20525,-1.17124 -0.80749,-2.65643 1.40264,-5.23729 -1.13969,-2.48055 -4.60953,4.99826 -7.00255,15.09309 -8.13274,17.92105 -7.43456,18.60277 0.39006,0.38088 1.2957,-0.73908 2.0125,-2.48882 0.7168,-1.74972 1.34209,-2.43419 1.38951,-1.52104 0.15896,3.06089 2.19463,1.70094 3.8452,-2.56885 0.89917,-2.32601 2.04407,-3.82954 2.54422,-3.34118 0.50016,0.48836 1.71559,-0.14875 2.70097,-1.4158 1.1977,-1.54006 1.80594,-1.72738 1.83486,-0.56507 0.0238,0.95626 0.65538,1.36926 1.40354,0.91777 1.51937,-0.91688 1.80646,1.96796 0.52129,5.23813 -0.6494,1.65238 -1.26424,1.79026 -2.72057,0.6101 -1.42134,-1.15178 -1.88158,-1.14091 -1.88158,0.0445 0,0.90188 -0.72311,1.14505 -1.70035,0.57178 -1.0929,-0.64112 -1.01298,-0.17058 0.2237,1.31706 1.70736,2.05383 1.59246,2.39918 -1.02022,3.0663 -1.61935,0.41349 -2.94427,1.54335 -2.94427,2.51081 0,0.96747 -0.71614,2.19119 -1.59145,2.71941 -1.07007,0.64575 -1.30688,0.23629 -0.72283,-1.24982 0.56716,-1.44318 0.1753,-2.21022 -1.12911,-2.21022 -1.09876,0 -1.99775,0.87199 -1.99775,1.93773 0,3.43081 -4.69608,11.27639 -6.80142,11.36291 -1.12223,0.0461 -3.27267,2.00333 -4.77873,4.34937 -2.00505,3.12331 -3.911,4.37652 -7.1176,4.68001 -3.39493,0.3213 -5.36158,1.75005 -8.74954,6.35647 -2.56232,3.48384 -5.24522,5.76917 -6.48526,5.52421 -1.16324,-0.22981 -3.2013,0.90779 -4.52901,2.528 -1.32769,1.62021 -4.32703,3.87767 -6.66515,5.01659 -6.40584,3.12031 -8.03443,1.04517 -7.07584,-9.01607 l 0.77813,-8.16724 -2.64501,4.64875 c -1.45475,2.55681 -3.06297,6.31685 -3.57379,8.35566 -0.93782,3.74302 -3.56959,3.82004 -3.56959,0.10447 0,-2.47409 -3.65253,-6.21896 -5.17156,-5.30227 -0.61136,0.36892 -2.59875,-1.08722 -4.41643,-3.23587 -3.52482,-4.16665 -6.17701,-5.20636 -4.88323,-1.91431 1.30808,3.32845 -0.25803,2.29433 -7.04022,-4.64876 -3.95869,-4.05258 -7.65816,-6.64107 -9.49144,-6.64107 -3.38959,0 -3.79973,1.25411 -1.30389,3.98699 1.42388,1.55912 1.34822,1.60418 -0.46523,0.27718 -1.19107,-0.87158 -2.55357,-1.20586 -3.02776,-0.74283 -0.47421,0.46301 -1.7176,0.14866 -2.76308,-0.69855 -1.04549,-0.84723 -2.89666,-1.1673 -4.11372,-0.71127 -1.21706,0.45601 -2.21285,0.23142 -2.21285,-0.49909 0,-0.73052 -0.99196,-1.69989 -2.20436,-2.15417 -1.69078,-0.63352 -2.03881,-0.20783 -1.4938,1.82717 0.59771,2.23177 0.3139,2.44586 -1.78708,1.34795 -5.77582,-3.01824 -9.49459,0.23652 -6.58594,5.76418 1.25435,2.38376 1.20565,2.60036 -0.27692,1.232 -3.8367,-3.54112 -4.56214,-0.69285 -2.02899,7.96631 1.14826,3.92515 -0.10171,9.08961 -1.67944,6.93889 -0.52086,-0.71005 -2.42042,-2.48639 -4.22122,-3.94743 l -3.27419,-2.65643 0.76634,2.98848 c 0.74755,2.9152 -0.18566,3.59543 -4.19931,3.06089 -2.37576,-0.31641 -1.38716,2.8194 5.38208,17.07174 2.91716,6.14195 5.04825,11.41683 4.73574,11.72198 -0.31251,0.30513 -0.97141,-0.68564 -1.46421,-2.20173 -0.49281,-1.51609 -1.46689,-2.75652 -2.16464,-2.75652 -1.89166,0 -1.56778,1.48664 1.56887,7.20097 1.5606,2.84312 3.00463,7.4607 3.20893,10.26131 l 0.37144,5.092 -2.53741,-2.85669 c -1.39558,-1.57118 -2.95182,-2.45205 -3.45832,-1.9575 -0.50649,0.49456 -0.19655,1.60646 0.68878,2.47091 0.88531,0.86445 1.60967,3.24527 1.60967,5.29072 0,2.04545 0.64367,3.719 1.43036,3.719 0.78671,0 -0.26128,1.53081 -2.32886,3.4018 -2.17463,1.96787 -4.78385,3.14018 -6.19,2.78112 -1.33693,-0.34136 -2.83205,0.0133 -3.32246,0.78807 -0.52429,0.82832 -0.24462,1.01827 0.67878,0.46103 0.86376,-0.52125 1.57047,-0.31475 1.57047,0.45888 0,0.77363 1.02303,1.40661 2.27339,1.40661 2.65342,0 7.2486,3.72806 7.2486,5.88078 0,3.6962 48.54479,21.5417 51.29487,18.85645 0.47306,-0.46191 -0.31555,-2.1823 -1.75246,-3.82308 -3.71923,-4.2469 -6.33735,-9.08653 -5.40703,-9.99494 0.43713,-0.42681 2.77502,1.05391 5.19533,3.29051 2.4203,2.23659 5.86073,4.8003 7.64541,5.69712 3.08413,1.54982 3.20076,1.45903 2.35458,-1.83295 -0.48966,-1.90493 -0.32637,-3.46353 0.36285,-3.46353 2.42643,0 4.56669,8.76213 5.0287,20.58733 1.3082,33.48368 2.07412,42.16321 4.19014,47.48388 1.23469,3.1046 2.37567,8.15222 2.53551,11.21693 0.38004,7.28695 4.95567,14.67727 10.49978,16.95871 4.06118,1.67119 4.51178,1.61082 5.4068,-0.72434 0.537,-1.40111 1.52867,-2.54747 2.2037,-2.54747 0.67504,0 2.01374,-2.74251 2.97489,-6.09446 0.96115,-3.35195 3.15303,-8.11674 4.87086,-10.58843 6.42874,-9.24992 8.18949,-19.24885 4.2544,-24.15971 -0.94271,-1.17648 -0.70122,-1.66027 0.82876,-1.66027 6.38284,0 6.26714,13.42865 -0.20417,23.6979 -2.29685,3.64486 -4.60622,8.86577 -5.13194,11.60203 -0.86904,4.52318 -0.72217,4.88192 1.6172,3.94992 4.92251,-1.96111 13.48092,-2.28082 17.53618,-0.65508 4.04014,1.61968 3.98585,1.65525 -5.44114,3.56564 -5.2371,1.06129 -10.38119,2.61845 -11.43132,3.46034 -1.05014,0.84189 -3.03956,1.34376 -4.42092,1.11525 -2.13259,-0.35276 -2.51161,0.48561 -2.51161,5.55549 0,4.79549 -0.53317,6.13619 -2.70839,6.8103 -3.99474,1.23799 -5.45332,-0.24947 -5.45332,-5.56126 0,-4.71437 -0.0311,-4.73923 -4.94866,-3.96004 -5.51171,0.87336 -10.01447,4.75936 -10.01447,8.64279 0,3.04214 3.4491,6.27548 4.65757,4.36622 0.45041,-0.7116 2.80038,-1.03867 5.22218,-0.72683 8.61433,1.1092 18.58846,-1.98467 26.38301,-8.18374 7.95888,-6.32977 11.31492,-7.61647 18.1461,-6.95722 2.95765,0.28543 5.18704,1.54587 6.63362,3.75045 1.7819,2.71558 1.81001,3.05317 0.15438,1.85298 -1.11346,-0.80715 -3.98845,-2.11222 -6.38887,-2.90014 -3.81409,-1.25196 -5.01475,-1.00347 -9.522,1.97074 -2.83667,1.87184 -7.13896,5.09427 -9.56065,7.16096 -5.84901,4.99159 -13.08525,6.71842 -27.86691,6.65002 -11.69186,-0.0541 -18.2501,1.41193 -16.77085,3.74896 0.37718,0.59591 2.13409,0.81312 3.90426,0.48272 1.86713,-0.34851 4.14151,0.3005 5.41683,1.54577 3.02262,2.95136 24.22744,3.80892 28.13314,1.13776 1.4889,-1.01829 3.48074,-1.69793 4.42629,-1.51032 0.94553,0.18761 3.0593,-0.3836 4.69725,-1.26936 4.36923,-2.36277 5.24637,0.41821 1.03924,3.2949 -1.93612,1.32384 -6.08057,4.35506 -9.2099,6.73601 -10.54313,8.02178 -16.86506,10.30681 -27.79433,10.0461 -5.42414,-0.12939 -9.86207,0.18605 -9.86207,0.70097 0,1.21372 5.13646,5.51124 6.58711,5.51124 0.61319,0 1.89787,1.42854 2.85486,3.17453 1.50073,2.73803 2.46752,3.07924 7.03128,2.48154 3.24596,-0.42511 5.29131,-0.15265 5.29131,0.70486 0,2.05783 22.59108,0.66067 29.52281,-1.82586 z m 9.20873,-29.81061 c -1.34233,-1.44829 -2.03627,-3.02805 -1.54209,-3.5106 0.49419,-0.48252 0.89853,-0.19878 0.89853,0.63057 0,0.82934 0.8392,1.19346 1.86489,0.80914 1.02568,-0.38431 2.22321,0.21301 2.66115,1.32736 1.25064,3.18225 -1.18913,3.64947 -3.88248,0.74353 z m -8.80527,-2.61697 c 0,-0.73052 0.64825,-1.32822 1.44056,-1.32822 0.79232,0 1.06225,0.5977 0.59986,1.32822 -0.46238,0.73052 -1.11064,1.32821 -1.44057,1.32821 -0.32992,0 -0.59985,-0.59769 -0.59985,-1.32821 z m 15.64327,-26.94688 c -1.99407,-2.35975 -2.35658,-8.56736 -0.56352,-9.64941 2.3216,-1.40099 4.08387,2.30525 2.18607,4.59749 -1.272,1.53637 -1.25519,1.74428 0.0778,0.96232 0.93519,-0.54861 1.70035,-0.41337 1.70035,0.30052 0,0.71388 0.37155,2.2434 0.82568,3.39892 0.98131,2.49695 -2.19807,2.79046 -4.22639,0.39016 z m -10.88228,-3.60207 c -1.06398,-1.68098 0.73677,-1.68098 3.40072,0 1.75842,1.1096 1.72251,1.29035 -0.25979,1.30788 -1.26512,0.0112 -2.67854,-0.57736 -3.14093,-1.30788 z m 21.10927,-13.18099 c -1.02676,-4.17911 -1.22506,-9.33338 -0.54934,-14.27831 0.58161,-4.25612 0.93754,-8.18666 0.79097,-8.73455 -0.14656,-0.54789 0.25966,-0.99616 0.90272,-0.99616 0.64307,0 1.26114,4.3333 1.3735,9.62956 0.11236,5.29625 0.57392,12.16976 1.02568,15.27447 1.15148,7.91349 -1.54682,7.23197 -3.54353,-0.89501 z m -14.98799,2.55528 c 0,-0.73052 0.61213,-1.32822 1.36029,-1.32822 0.74816,0 1.36028,0.5977 1.36028,1.32822 0,0.73051 -0.61212,1.32821 -1.36028,1.32821 -0.74816,0 -1.36029,-0.5977 -1.36029,-1.32821 z m -48.80967,-6.88358 c -1.04672,-1.63658 -1.24964,-3.21005 -0.50743,-3.93476 0.74223,-0.72473 1.8543,0.11563 2.78097,2.10147 1.91413,4.10202 0.10866,5.55787 -2.27354,1.83329 z m 13.49415,-3.017 c -2.48502,-2.92368 -1.16372,-4.40382 2.3648,-2.6491 2.57507,1.28057 2.77738,1.79892 1.2007,3.07659 -1.45944,1.18267 -2.2806,1.08421 -3.5655,-0.42749 z m 34.02466,-5.24725 c -2.08108,-3.79685 -0.77821,-7.00325 1.94799,-4.79405 1.30732,1.0594 2.351,0.87635 3.95975,-0.69448 1.88593,-1.84146 2.18455,-1.85955 2.18455,-0.13232 0,3.66294 -2.62856,8.81474 -4.49747,8.81474 -1.01432,0 -2.632,-1.43725 -3.59482,-3.19389 z m -38.1574,-5.43951 c 0,-1.09577 0.24058,-1.99232 0.53461,-1.99232 0.29404,0 0.88695,0.89655 1.3176,1.99232 0.43064,1.09578 0.19006,1.99233 -0.53461,1.99233 -0.72468,0 -1.3176,-0.89655 -1.3176,-1.99233 z m 65.70688,-3.24939 c -0.38083,-1.42191 -1.48756,-2.76673 -2.4594,-2.98849 -1.42053,-0.32413 -1.43045,-0.70499 -0.0506,-1.94237 1.34263,-1.20397 2.02636,-0.55313 3.13956,2.98849 0.78272,2.49022 1.11705,4.52766 0.74296,4.52766 -0.37409,0 -0.99174,-1.16339 -1.37255,-2.58529 z m -17.32084,-10.69686 c 1.20705,-8.1011 3.3842,-11.65935 2.47937,-4.05217 -0.38659,3.25018 -1.30298,6.83636 -2.03642,7.96929 -0.92076,1.42229 -1.05786,0.20987 -0.44295,-3.91712 z m -6.17554,1.32821 c 0,-1.82629 0.59337,-4.21708 1.31862,-5.31286 1.04379,-1.57707 1.31862,-1.30024 1.31862,1.32822 0,1.82629 -0.59337,4.21708 -1.31862,5.31286 -1.04379,1.57707 -1.31862,1.30024 -1.31862,-1.32822 z m -5.4828,-2.65643 c 0,-1.46103 0.23467,-2.65643 0.52149,-2.65643 0.28681,0 0.84163,1.1954 1.23293,2.65643 0.3913,1.46104 0.15663,2.65643 -0.52149,2.65643 -0.67812,0 -1.23293,-1.19539 -1.23293,-2.65643 z m 31.39394,0.55343 c 0.0653,-1.5473 0.3876,-1.86202 0.82183,-0.80247 0.39295,0.95881 0.34463,2.10439 -0.10738,2.54575 -0.45202,0.44136 -0.77351,-0.34313 -0.71445,-1.74328 z m -13.66858,-3.20986 c 0,-1.82629 0.59337,-4.21708 1.31862,-5.31286 1.04379,-1.57707 1.31862,-1.30024 1.31862,1.32822 0,1.82629 -0.59337,4.21708 -1.31862,5.31286 -1.04378,1.57707 -1.31862,1.30024 -1.31862,-1.32822 z m -46.63142,-7.26471 c -1.30927,-1.75813 -2.3805,-3.60562 -2.3805,-4.10554 0,-1.40012 4.06477,2.21803 5.56327,4.952 1.9326,3.52596 -0.38579,2.90938 -3.18277,-0.84646 z m 3.06064,-4.02511 c -1.75715,-1.8263 -2.58268,-3.32054 -1.83452,-3.32054 0.74816,0 2.79794,1.49424 4.55509,3.32054 1.75715,1.82629 2.58268,3.32053 1.83452,3.32053 -0.74815,0 -2.79794,-1.49424 -4.55509,-3.32053 z m 46.24969,0.29975 c 0,-1.90493 0.63667,-3.84772 1.4148,-4.3173 0.92798,-0.56 1.09618,0.44137 0.48879,2.91009 -1.25203,5.08894 -1.90359,5.5706 -1.90359,1.40721 z m -33.19095,-4.41722 c -0.48411,-1.23184 -0.57415,-2.53856 -0.20007,-2.90382 0.37408,-0.36526 1.07624,0.34377 1.56035,1.57561 0.48411,1.23184 0.57415,2.53856 0.20007,2.90382 -0.37408,0.36526 -1.07624,-0.34377 -1.56035,-1.57561 z m -36.91594,-2.41501 c -1.92931,-2.87508 -2.01506,-3.78947 -0.52033,-5.54805 1.62461,-1.91138 1.95314,-1.88735 3.56162,0.26052 2.50206,3.34109 2.20167,5.18624 -0.49121,3.01718 -2.05982,-1.65914 -2.11102,-1.54421 -0.56993,1.27935 2.38176,4.36381 0.81076,5.15004 -1.98015,0.991 z m 25.91134,1.90539 c -0.46992,-0.74243 -2.25373,-1.34988 -3.96402,-1.34988 -1.71028,0 -4.16269,-1.13621 -5.44978,-2.5249 -1.2871,-1.3887 -4.28957,-2.90162 -6.67218,-3.36203 -3.24478,-0.62703 -5.35182,-2.41012 -8.39546,-7.10466 -5.59742,-8.63353 -5.61417,-8.75007 -0.91612,-6.3779 11.88253,5.99984 21.54484,-0.003 42.60228,-26.46782 7.64253,-9.60504 16.66372,-15.17012 24.69061,-15.23141 5.19363,-0.0396 3.35662,2.31338 -2.66757,3.41689 -6.60313,1.20955 -13.174,7.16512 -18.86122,17.09505 -5.52958,9.65469 -5.60195,9.98001 -2.0164,9.06447 4.15609,-1.06121 3.25574,0.37266 -2.21187,3.52257 -2.71284,1.56289 -4.59729,3.16886 -4.18765,3.56884 0.40964,0.39998 3.53886,-0.8716 6.95383,-2.82573 6.93491,-3.9683 19.08387,-7.51063 22.00506,-6.4161 1.36162,0.5102 -0.2389,3.10067 -5.59872,9.06164 -7.02139,7.80894 -14.57422,12.74363 -16.55084,10.81361 -0.47478,-0.46359 0.082,-0.84288 1.23734,-0.84288 1.15532,0 2.83892,-0.86867 3.74131,-1.93037 1.32125,-1.55447 1.00549,-2.5993 -1.6216,-5.3657 l -3.26235,-3.43535 -3.5122,2.69756 c -1.93171,1.48366 -6.43105,3.91923 -9.99851,5.41237 -9.12971,3.82118 -6.40718,5.94202 7.62778,5.94202 5.94752,0 10.81498,0.40023 10.8166,0.88942 0.002,0.48918 -3.17074,1.9187 -7.04971,3.17671 -6.02925,1.95538 -7.99564,2.05131 -13.55089,0.66111 -6.46194,-1.6171 -10.09174,-1.03978 -8.57076,1.36317 0.43797,0.69196 1.32386,0.93975 1.96862,0.55067 0.64476,-0.38909 1.55679,-0.1 2.02671,0.64244 0.46993,0.74243 1.92555,1.34988 3.23472,1.34988 1.30917,0 3.56852,0.91486 5.02078,2.03302 2.60526,2.00588 2.60419,2.02849 -0.0801,1.69342 -1.49631,-0.18679 -3.44343,0.10351 -4.32693,0.64507 -0.8835,0.54157 -1.99085,0.37723 -2.46078,-0.3652 z m -6.39005,-11.89259 c 0.34008,-0.99616 -0.17003,-1.49424 -1.19024,-1.16218 -0.98195,0.31959 -2.05319,1.36556 -2.3805,2.32437 -0.34007,0.99616 0.17003,1.49424 1.19025,1.16219 0.98194,-0.31959 2.05318,-1.36556 2.38049,-2.32438 z m 45.16528,-9.04846 c 0.038,-1.81789 2.53872,-4.91668 3.33795,-4.13629 1.07157,1.0463 -0.63537,5.13245 -2.14402,5.13245 -0.66811,0 -1.20538,-0.44827 -1.19393,-0.99616 z m -66.34482,-6.94177 c -6.24603,-2.76828 -9.22591,-7.63778 -7.64489,-12.49278 0.71541,-2.19692 1.09542,-2.37668 1.73499,-0.82073 1.88104,4.57618 6.10223,9.38602 7.709,8.78398 0.94966,-0.35583 2.09778,0.2974 2.55138,1.45161 0.4536,1.1542 1.2131,1.71934 1.68777,1.25586 1.00568,-0.98195 4.51407,1.56852 4.51407,3.28154 0,1.89109 -4.34988,1.28946 -10.55232,-1.45948 z m 69.50648,-12.72573 c -0.44714,-1.13776 -1.65219,-1.75422 -2.67787,-1.36991 -3.47906,1.30358 -1.88685,-0.46677 2.33874,-2.60039 2.31199,-1.1674 5.03523,-1.81094 6.05165,-1.4301 1.03449,0.38761 2.20086,-0.39312 2.64957,-1.77353 0.44086,-1.35627 1.69644,-2.80126 2.79021,-3.21107 2.55781,-0.95838 2.53632,0.1547 -0.0518,2.68179 -1.12223,1.09578 -2.04043,3.12399 -2.04043,4.50714 0,4.339 -7.56247,7.00676 -9.06008,3.19607 z m -117.78648,-9.98178 c -2.05743,-0.55109 -3.74079,-0.68164 -3.74079,-0.29011 0,0.39154 -0.91819,-0.0322 -2.04042,-0.94161 -3.15506,-2.55673 -2.42233,-3.98086 1.70035,-3.30482 17.85547,2.92794 26.09216,1.39546 39.30784,-7.31343 3.33191,-2.19566 6.45302,-3.99211 6.9358,-3.99211 2.09229,0 -10.38416,9.84986 -15.96393,12.60313 -6.58564,3.24959 -19.97786,4.90528 -26.19885,3.23895 z m 28.91653,0.42855 c 0.006,-0.54789 2.60731,-2.42971 5.78121,-4.18186 6.93322,-3.82742 16.43643,-11.29094 27.6925,-21.74881 14.22768,-13.21875 27.38581,-20.8889 35.83484,-20.8889 1.44975,0 4.28714,-1.49425 6.30533,-3.32054 2.01819,-1.8263 4.46211,-3.32054 5.43095,-3.32054 2.44438,0 3.65111,2.27712 1.79903,3.39479 -1.08242,0.6532 -0.98976,1.25473 0.31789,2.06376 1.38926,0.85953 1.17292,1.15191 -0.87499,1.18253 -2.17181,0.0325 -2.3247,0.28524 -0.75799,1.25313 1.29686,0.80118 -1.01021,1.19248 -6.80143,1.15361 -13.09352,-0.0879 -19.25716,3.07121 -35.60966,18.25137 -11.7558,10.913 -24.56948,20.63703 -32.20825,24.44218 -5.96771,2.97272 -6.92512,3.21095 -6.90943,1.71928 z m 83.97046,-17.18933 c -1.31844,-0.33581 -2.04747,-1.16302 -1.62008,-1.83825 1.01221,-1.59918 6.05766,-1.59657 6.05766,0.003 0,0.67695 1.07122,1.50416 2.3805,1.83823 1.49813,0.38229 1.11999,0.60743 -1.02022,0.60743 -1.87039,0 -4.47943,-0.27475 -5.79786,-0.61055 z m -5.08442,-5.72237 c 2.67993,-1.69107 5.83137,-1.69107 4.761,0 -0.46239,0.73051 -2.18187,1.31906 -3.82107,1.30787 -2.42298,-0.0165 -2.59877,-0.26112 -0.93993,-1.30787 z m -6.49,-1.57636 c 0.67781,-1.98547 3.76943,-3.07865 3.76943,-1.33286 0,0.71324 -0.96933,1.65999 -2.15409,2.10391 -1.32479,0.49639 -1.94667,0.19955 -1.61534,-0.77105 z m -5.07242,-2.40829 c 0.46239,-0.73052 1.45283,-1.32821 2.20098,-1.32821 0.74816,0 0.98198,0.59769 0.51959,1.32821 -0.46239,0.73052 -1.45282,1.32822 -2.20098,1.32822 -0.74816,0 -0.98198,-0.5977 -0.51959,-1.32822 z m 68.69439,204.27945 c 0,-2.14562 -0.40225,-2.5293 -1.51382,-1.44394 -0.83259,0.81296 -1.10254,2.12789 -0.59986,2.92207 1.40707,2.22301 2.11368,1.72886 2.11368,-1.47813 z m 27.2057,-4.38311 c 1.37855,-1.62189 1.31011,-1.99232 -0.36806,-1.99232 -1.13379,0 -2.41378,0.89655 -2.84443,1.99232 -0.43064,1.09578 -0.26501,1.99233 0.36805,1.99233 0.63306,0 1.91306,-0.89655 2.84444,-1.99233 z m -244.85128,-7.30518 c 0,-0.73052 -0.64826,-1.32821 -1.44057,-1.32821 -0.79231,0 -1.06225,0.59769 -0.59986,1.32821 0.46239,0.73052 1.11065,1.32822 1.44057,1.32822 0.32992,0 0.59986,-0.5977 0.59986,-1.32822 z m -7.213211,-17.20992 c -0.728079,-4.41439 -1.732785,-8.02616 -2.232663,-8.02616 -0.499891,0 -0.317885,3.86142 0.404468,8.58093 0.722352,4.71952 1.727044,8.33129 2.232676,8.02616 0.505618,-0.30511 0.323612,-4.16654 -0.404481,-8.58093 z m 18.264291,0.91715 c -1.34345,-1.302 -1.49969,-1.14944 -0.76149,0.74353 0.51083,1.30991 1.27144,2.04707 1.69026,1.63813 0.41882,-0.40894 8.7e-4,-1.48068 -0.92877,-2.38166 z m 185.18167,-15.58439 -0.0843,-11.28982 2.11583,10.95777 c 2.2158,11.47548 3.09793,12.40911 8.92848,9.44965 1.63416,-0.82947 3.12452,-1.62668 3.3119,-1.77156 0.18738,-0.14488 -1.80204,-4.56244 -4.42093,-9.81681 -2.61889,-5.25436 -4.76161,-9.89553 -4.76161,-10.31371 0,-1.05787 -4.03218,-10.03331 -5.59383,-12.4516 -0.70762,-1.09578 -1.64626,-3.03829 -2.08588,-4.3167 -0.43961,-1.2784 -1.18701,-2.31752 -1.66086,-2.30914 -1.2755,0.0226 -5.3023,9.30894 -6.14498,14.1712 -0.72362,4.17523 -0.67695,4.21606 3.97595,3.47881 3.2465,-0.51442 4.70818,-0.2356 4.70818,0.89809 0,0.91573 -0.90394,1.30541 -2.04043,0.87957 -1.12224,-0.42049 -3.02038,-0.39735 -4.21809,0.0514 -1.82775,0.68484 -2.02977,2.22549 -1.25717,9.58787 1.45291,13.84542 1.90093,14.95331 5.85938,14.48941 3.40094,-0.39857 3.45131,-0.57345 3.36832,-11.69446 z m -134.18768,-6.47985 c -3.68606,-9.97771 -8.45594,-18.22088 -12.38658,-21.4061 -2.23669,-1.81252 -2.3344,-1.64473 -1.41708,2.43334 0.54189,2.40907 1.81443,5.94066 2.82786,7.848 1.01344,1.90734 1.53175,3.95901 1.15181,4.55929 -0.37996,0.60026 -0.10436,1.09139 0.61241,1.09139 0.71676,0 2.64839,2.54021 4.29249,5.64491 3.20954,6.06086 6.88972,10.65605 7.81255,9.75496 0.31262,-0.30524 -0.98944,-4.77185 -2.89346,-9.92579 z m 37.25573,-15.13969 c 0,-0.93297 -1.90919,-3.73731 -4.24262,-6.23187 -6.26436,-6.69689 -7.2082,-10.47226 -4.68891,-18.75562 1.17156,-3.85204 2.11216,-10.92968 2.09023,-15.72808 l -0.0399,-8.72438 -4.13783,4.4435 c -2.27581,2.44391 -4.27952,4.237 -4.45268,3.98464 -3.21877,-4.69092 -4.93259,-8.06453 -4.93259,-9.70963 0,-1.12148 -1.36585,-3.3727 -3.03522,-5.00271 -2.62593,-2.56403 -4.2063,-2.90486 -11.71976,-2.52758 -6.81741,0.34232 -8.55244,0.0514 -8.07003,-1.35304 0.33798,-0.98401 1.48002,-1.86959 2.53785,-1.96796 1.05782,-0.0984 2.68848,-0.24779 3.62367,-0.33206 2.73178,-0.24614 1.95698,-2.43429 -1.14217,-3.22563 -2.15218,-0.54954 -2.62546,-1.3936 -1.94876,-3.47545 1.10137,-3.38829 -0.61367,-3.50556 -9.24938,-0.63246 -7.09162,2.35939 -7.81238,3.67336 -3.30658,6.02794 1.88406,0.98455 2.40599,1.80938 1.36028,2.14974 -2.39972,0.78104 -2.1039,3.03994 0.68376,5.22136 2.11484,1.65491 1.7536,1.78928 -3.2369,1.20401 -6.89206,-0.80827 -7.78466,-0.0743 -4.98445,4.09861 1.44828,2.15823 2.50488,2.7331 3.15001,1.71387 0.602,-0.95112 1.29293,-0.28024 1.81896,1.76618 0.53666,2.08782 2.14706,3.61815 4.38444,4.16647 2.36031,0.57843 3.28313,1.51063 2.7751,2.80331 -0.45392,1.15502 0.0452,1.93671 1.2366,1.93671 1.09875,0 1.99774,-0.73069 1.99774,-1.62375 0,-0.89305 0.96395,-0.27996 2.14211,1.36243 3.16629,4.41395 1.90202,5.56956 -3.93453,3.5964 -4.53671,-1.53373 -5.29612,-1.49353 -6.00804,0.31795 -0.47671,1.21297 0.29966,2.95486 1.87057,4.19691 1.47704,1.16783 3.53595,3.99932 4.5754,6.2922 1.11615,2.46216 2.61564,3.89696 3.66261,3.50467 0.98911,-0.37061 1.77273,0.25011 1.77273,1.4042 0,1.13765 0.95662,2.59117 2.12583,3.23006 1.16921,0.63889 2.28403,2.0134 2.47736,3.05449 0.72075,3.88091 6.47148,11.59376 9.15531,12.27905 2.11501,0.54005 2.58409,0.21174 1.96136,-1.37276 -0.45014,-1.14542 0.14603,-3.51983 1.32483,-5.2765 1.20605,-1.79727 1.77144,-4.33787 1.29293,-5.80993 -0.52643,-1.61954 0.35292,-4.50561 2.30852,-7.57669 l 3.15885,-4.96069 0.71116,7.81531 c 0.64793,7.12031 1.19227,8.20917 6.12128,12.24419 2.97557,2.4359 6.02225,5.01552 6.77041,5.73249 1.82497,1.74892 2.04043,1.72148 2.04043,-0.2599 z m -20.09254,-37.07095 c 0.29613,-0.86749 1.26576,-1.81399 2.1547,-2.10331 0.99403,-0.32353 1.29804,0.28369 0.78966,1.57725 -0.94882,2.41431 -3.76048,2.91666 -2.94436,0.52606 z m -14.36801,-0.63644 c -1.30002,-1.26936 -1.11824,-3.09917 0.30789,-3.09917 0.66811,0 1.56709,0.89655 1.99774,1.99233 0.79566,2.02457 -0.65335,2.72017 -2.30563,1.10684 z m 115.20927,29.4421 c -0.43065,-1.09578 -1.02356,-1.99232 -1.3176,-1.99232 -0.29402,0 -0.5346,0.89654 -0.5346,1.99232 0,1.09578 0.59292,1.99232 1.3176,1.99232 0.72466,0 0.96524,-0.89654 0.5346,-1.99232 z m -82.54007,-2.24136 c -0.43423,-1.05956 -0.75656,-0.74484 -0.82183,0.80246 -0.0591,1.40015 0.26243,2.18464 0.71445,1.74329 0.45201,-0.44137 0.50032,-1.58694 0.10738,-2.54575 z m -84.5792,-48.88677 c -1.35829,-1.46552 -3.48449,-2.66458 -4.72488,-2.66458 -3.45084,0 -9.56566,-6.98955 -9.56566,-10.93405 0,-2.16192 1.33053,-4.50542 3.50709,-6.17714 l 3.50707,-2.69363 -3.79691,-4.64632 c -2.08829,-2.55549 -3.99802,-4.44995 -4.24385,-4.20993 -0.8441,0.8242 -1.397165,17.37232 -0.70165,20.99375 0.88892,4.6285 8.64509,12.0931 13.57432,13.06405 4.9773,0.98042 5.42335,0.48187 2.44447,-2.73215 z m 199.29533,-1.00431 c 3.4346,-3.02663 4.2501,-4.90451 4.75866,-10.95777 0.50438,-6.00353 0.39991,-6.50593 -0.58633,-2.81953 -1.6396,6.12851 -5.93088,11.42215 -9.40516,11.60199 -3.5525,0.18388 -8.39116,-2.97349 -8.39116,-5.47546 0,-1.51677 0.70271,-1.46145 3.85176,0.30326 6.02305,3.37526 8.10603,1.66615 9.17098,-7.52487 0.51234,-4.42162 1.34161,-8.03932 1.84284,-8.03932 1.55567,0 4.76077,-9.69186 5.05128,-15.27448 0.25776,-4.95357 -1.42196,-10.16861 -7.81896,-24.27545 -1.41675,-3.12424 -2.5759,-6.6108 -2.5759,-7.74791 0,-1.13711 -0.76517,-1.82144 -1.70036,-1.52072 -3.06225,0.98472 -2.6548,6.33589 1.00243,13.16532 4.3433,8.11056 3.68593,9.66722 -1.35647,3.21215 -2.02918,-2.59767 -4.23345,-4.39475 -4.89837,-3.9935 -2.57449,1.55362 -0.96654,5.0244 4.91234,10.60332 5.86405,5.56483 6.98171,8.3093 6.34506,15.58048 -0.34808,3.97545 -5.95252,10.25079 -9.15488,10.25079 -1.6381,0 -3.78703,0.95144 -4.77544,2.11432 -2.2747,2.67623 -2.16401,19.78967 0.14559,22.50694 2.65627,3.12516 9.00212,2.32642 13.58209,-1.70956 z M 182.2608,513.79017 c 2.98115,-1.664 3.06506,-1.89152 0.68014,-1.84421 -1.49631,0.0297 -4.86301,0.85959 -7.48156,1.84421 l -4.761,1.79022 4.08086,0.054 c 2.24447,0.0297 5.61117,-0.80021 7.48156,-1.84422 z m 10.54202,-1.43908 c -1.29628,-1.26573 -3.89516,0.78445 -2.9291,2.3107 0.5742,0.90717 1.33506,0.88426 2.31199,-0.0696 0.80088,-0.782 1.07859,-1.79048 0.61711,-2.24106 z m -37.40764,-6.7282 c 4.53204,-0.967 4.83676,-2.5527 0.68014,-3.5394 -1.68335,-0.3996 -5.35939,-1.30359 -8.16896,-2.00888 -5.71748,-1.43527 -8.42924,0.38706 -4.6215,3.10572 1.23654,0.88285 2.24825,2.35613 2.24825,3.27394 0,1.09724 1.04822,1.3773 3.06064,0.81777 1.68335,-0.46805 4.74399,-1.21017 6.80143,-1.64915 z m -49.67874,-21.19181 c -0.45201,-0.44135 -1.62527,-0.48853 -2.60721,-0.10484 -1.08514,0.42399 -0.76282,0.73872 0.82184,0.80245 1.43396,0.0577 2.23738,-0.25624 1.78537,-0.69761 z m -6.147451,-8.15638 c -4.02326,-3.25448 -7.642448,-3.96978 -6.753719,-1.33481 0.307982,0.91314 1.936107,1.85725 3.618058,2.098 1.875139,0.26841 2.791033,1.11731 2.367685,2.19452 -0.998694,2.54121 0.471039,3.44365 2.613267,1.6046 1.51566,-1.30115 1.18959,-2.10734 -1.845291,-4.56231 z m 25.559851,-4.24491 c 0,-0.6874 -0.61213,-1.61922 -1.36029,-2.07071 -0.74815,-0.45149 -1.36028,0.11093 -1.36028,1.24982 0,1.1389 0.61213,2.07072 1.36028,2.07072 0.74816,0 1.36029,-0.56242 1.36029,-1.24983 z m 169.24195,-32.42954 c -0.87456,-2.22532 -3.2872,-3.04725 -3.2872,-1.11986 0,1.29218 3.03473,4.38627 3.68212,3.75414 0.25452,-0.24852 0.0768,-1.43395 -0.39492,-2.63428 z M 100.30458,421.81039 c 0.37758,-1.1073 -0.23052,-1.36255 -1.823792,-0.76557 -1.830113,0.68573 -2.189446,0.38465 -1.533354,-1.28478 0.471285,-1.19921 0.398469,-2.45702 -0.161819,-2.79513 -0.560288,-0.33811 -1.159017,1.18332 -1.330522,3.38097 -0.243804,3.12426 0.189257,3.90084 1.985608,3.5607 1.263582,-0.23927 2.55233,-1.18255 2.863879,-2.09619 z m -6.893356,-4.56484 c -0.43423,-1.05956 -0.756563,-0.74483 -0.821829,0.80247 -0.05906,1.40015 0.262439,2.18463 0.714448,1.74328 0.452009,-0.44135 0.50034,-1.58695 0.107381,-2.54575 z m 196.999716,-9.98277 c -0.90809,-3.37522 -1.094,-3.47185 -2.03568,-1.05801 -0.57083,1.46326 -0.41375,3.41658 0.34972,4.3488 2.03839,2.48893 2.8269,0.94983 1.68596,-3.29079 z m -78.26139,-10.45399 c 0.39472,-1.40687 1.88322,-4.23729 3.30779,-6.2898 1.89268,-2.72698 2.88067,-3.27282 3.66914,-2.02713 0.8241,1.302 1.84281,1.00408 4.31221,-1.26111 1.77826,-1.63121 3.62396,-2.58428 4.10157,-2.11793 0.4776,0.46635 1.60167,-0.72359 2.49792,-2.64428 0.89627,-1.9207 2.35596,-3.49218 3.24378,-3.49218 0.88782,0 2.27845,-1.34482 3.09031,-2.98848 1.44953,-2.93473 1.47774,-2.92279 1.56815,0.6641 0.0506,2.00893 0.70419,3.65259 1.45235,3.65259 0.74815,0 1.28779,0.44828 1.1992,0.99617 -0.48934,3.02603 0.85927,2.249 7.71511,-4.44521 8.67998,-8.47534 9.66093,-10.47393 10.7957,-21.99522 l 0.82983,-8.42522 -3.52588,6.64108 c -1.93923,3.65259 -3.15112,5.44568 -2.69309,3.98464 0.45804,-1.46103 1.12508,-4.44952 1.48235,-6.64107 0.53297,-3.26944 -0.10526,-2.67343 -3.55575,3.32054 -4.11622,7.15044 -4.38361,6.64106 -1.84695,-3.51864 0.61685,-2.47058 0.41426,-3.23848 -0.68015,-2.57806 -0.85726,0.51734 -1.60406,1.95131 -1.65954,3.1866 -0.0555,1.2353 -1.28302,4.63678 -2.72785,7.55885 l -2.62697,5.31286 0.45183,-4.3167 c 0.70074,-6.69477 -0.89599,-5.14079 -4.56517,4.44295 -3.20963,8.38341 -6.91358,13.78615 -4.83639,7.05457 2.58241,-8.36892 3.14952,-11.89827 2.02124,-12.57914 -0.67026,-0.40448 -1.21866,-0.0638 -1.21866,0.757 0,4.04312 -6.05366,14.41582 -10.38087,17.78717 l -4.87524,3.79835 0.9347,-4.1554 c 0.56083,-2.49325 0.39061,-4.1554 -0.42556,-4.1554 -0.74816,0 -1.76363,1.79309 -2.25659,3.98464 -0.49297,2.19155 -1.39431,3.98464 -2.00298,3.98464 -1.97243,0 -2.75802,-4.00335 -2.75802,-14.05489 0,-5.68318 -0.57567,-9.85297 -1.36029,-9.85297 -0.74815,0 -1.36028,1.49424 -1.36028,3.32053 0,3.69937 -2.69543,4.67088 -2.76383,0.99616 -0.0392,-2.10317 -0.23333,-2.07901 -2.04042,0.25387 -1.74152,2.2482 -1.99717,2.29072 -1.99717,0.33205 0,-2.95455 -2.34714,-2.89615 -3.14317,0.0782 -0.38275,1.43004 -0.68281,0.91899 -0.7799,-1.32821 -0.17911,-4.14591 -2.87836,-5.08008 -2.87836,-0.99616 0,1.46103 -0.61213,2.65643 -1.36028,2.65643 -0.74816,0 -1.36029,-1.16012 -1.36029,-2.57804 0,-1.41793 -0.61213,-2.94744 -1.36028,-3.39893 -0.79947,-0.48245 -1.36029,0.94548 -1.36029,3.46352 0,2.35642 -0.40278,3.89112 -0.89505,3.41044 -0.49229,-0.48067 -1.74752,-0.18314 -2.78942,0.66117 -1.50122,1.21653 -2.04837,0.96012 -2.63641,-1.23551 -0.74776,-2.79204 -4.74045,-3.34135 -8.36932,-1.15146 -0.97138,0.58619 -1.98877,0.14135 -2.4685,-1.07933 -0.44884,-1.14208 -1.93871,-2.07651 -3.31082,-2.07651 -1.37212,0 -2.87308,-0.5977 -3.33546,-1.32821 -1.65761,-2.61883 -3.01008,-1.25951 -2.31267,2.32437 0.66812,3.43333 0.55473,3.533 -1.88898,1.66027 -1.42988,-1.09578 -2.98103,-2.5023 -3.447,-3.12562 -0.46597,-0.62331 -2.16197,-0.44624 -3.76889,0.39348 -1.60692,0.83973 -3.46591,1.19835 -4.13111,0.79693 -2.07055,-1.2495 -5.73107,0.8507 -4.94939,2.8397 0.47078,1.1979 0.16572,1.5417 -0.83312,0.93893 -1.05677,-0.63772 -1.28577,-0.21278 -0.69518,1.28996 0.73252,1.86392 0.44317,2.01231 -1.71983,0.882 -4.02873,-2.10527 -4.47713,-1.63914 -1.82269,1.89477 3.25945,4.3393 9.81141,5.82499 12.11614,2.74738 0.94011,-1.25535 2.36214,-1.88849 3.16008,-1.40696 0.79793,0.48151 2.21594,0.40925 3.15114,-0.16062 2.71188,-1.65252 6.25188,-1.85436 7.16695,-0.40866 0.46347,0.73224 1.43931,0.97127 2.16855,0.53121 0.72923,-0.44006 2.20947,-0.0841 3.2894,0.79105 1.07993,0.87513 2.99359,1.20519 4.25258,0.73346 1.25899,-0.47173 2.76171,-0.11096 3.3394,0.8017 1.62998,2.57518 10.71968,2.47142 10.77286,-0.12297 0.0358,-1.74406 0.38356,-1.67154 2.003,0.4177 1.76677,2.27931 2.04472,2.31201 2.82284,0.33205 1.0028,-2.55164 5.99241,-2.99317 6.05644,-0.53593 0.0295,1.13164 0.57088,1.01052 1.70035,-0.3804 0.91141,-1.12237 2.77873,-1.81619 4.14959,-1.54182 2.29127,0.45858 2.44279,1.78029 1.87688,16.37221 -0.43163,11.1293 -0.17141,15.72878 0.87069,15.38961 0.81748,-0.26607 1.80928,-1.63484 2.20399,-3.04172 z m 44.92692,-19.31741 c 0,-0.73052 -0.61213,-0.95883 -1.36028,-0.50734 -0.74816,0.45148 -1.36029,1.41857 -1.36029,2.14909 0,0.73052 0.61213,0.95882 1.36029,0.50734 0.74815,-0.45149 1.36028,-1.41858 1.36028,-2.14909 z m 31.3929,-30.81962 c -1.74997,-1.70871 -2.05335,2.79562 -0.44642,6.62783 0.83735,1.99693 1.10023,1.74932 1.46663,-1.38139 0.24553,-2.09791 -0.21356,-4.45883 -1.02021,-5.24644 z" id="path2453" inkscape:connector-curvature="0" style="fill:#380050;fill-opacity:1"/>
</g>
</g></g>
<rect height="17.763229" id="rect5818-6-6-9-3-0" style="fill:#a901ef;fill-opacity:1;stroke:none;stroke-width:0.91443771;stroke-linecap:round;stroke-linejoin:bevel;stroke-miterlimit:4;stroke-dasharray:none;stroke-dashoffset:0;stroke-opacity:1" width="278.215" x="221.82033" y="560.66272"/>
<text id="fam_num" inkscape:label="#text5665-3-4-9-4-3-3-5-7-5-8-4-6-8-6-6-3-0-6-3" sodipodi:linespacing="0%" style="font-style:normal;font-weight:normal;line-height:0%;font-family:sans-serif;letter-spacing:0px;word-spacing:0px;fill:#000000;fill-opacity:1;stroke:none" x="232.24257" xml:space="preserve" y="578.73279"><tspan id="tspan5667-04-4-6-18-8-8-0-0-1-5-7-0-9-2-1-9-1-5-0" sodipodi:role="line" style="font-style:normal;font-variant:normal;font-weight:bold;font-stretch:normal;font-size:17.5px;line-height:1.25;font-family:STIX;-inkscape-font-specification:'STIX Bold';fill:#ffffff" x="232.24257" y="578.73279">1</tspan></text>
<rect height="15" id="ssfam_1_active" inkscape:label="#rect13148-3-0-9-3-80-7-7-3-3" style="fill:#ffffff;fill-opacity:1;stroke:none;stroke-width:5.83799982;stroke-linecap:round;stroke-linejoin:bevel;stroke-miterlimit:4;stroke-dasharray:none;stroke-dashoffset:0;stroke-opacity:1;display:none;" transform="matrix(0,1,-1,0,0,0)" width="124.30313" x="431.19528" y="-510.96991"/>
<rect height="15" id="ssfam_2_active" inkscape:label="#rect13148-3-0-9-3-80-7-7-3-3" style="fill:#ffffff;fill-opacity:1;stroke:none;stroke-width:5.83799982;stroke-linecap:round;stroke-linejoin:bevel;stroke-miterlimit:4;stroke-dasharray:none;stroke-dashoffset:0;stroke-opacity:1" transform="matrix(0,1,-1,0,0,0)" width="124.30313" x="270.72" y="-510.96991"/>
<rect height="15" id="ssfam_3_active" inkscape:label="#rect13148-3-0-9-3-80-7-7-3-3" style="fill:#ffffff;fill-opacity:1;stroke:none;stroke-width:5.83799982;stroke-linecap:round;stroke-linejoin:bevel;stroke-miterlimit:4;stroke-dasharray:none;stroke-dashoffset:0;stroke-opacity:1;display:none;" transform="matrix(0,1,-1,0,0,0)" width="124.30313" x="109.94095" y="-510.96991"/>
<text id="sfam_2" inkscape:label="#text4212-1-29-1-2-8-9-0-9-6-9-15-4-9-9-24-4-6-7-5-4-2-6-9" sodipodi:linespacing="0%" style="font-style:normal;font-variant:normal;font-weight:bold;font-stretch:normal;font-size:11.25px;line-height:0%;font-family:stix;-inkscape-font-specification:'stix, bold';text-align:center;letter-spacing:0px;word-spacing:0px;writing-mode:lr-tb;text-anchor:middle;fill:#FFFFFF;fill-opacity:1;stroke:none" transform="matrix(0,-1,1,0,0,0)" x="-333.20343" xml:space="preserve" y="222.81581"><tspan id="tspan4214-27-1-2-9-7-6-4-1-1-1-9-8-7-7-0-88-0-1-6-8-0-3-2" sodipodi:role="line" style="font-style:normal;font-variant:normal;font-weight:bold;font-stretch:normal;font-size:11.25px;line-height:0%;font-family:stix;-inkscape-font-specification:'stix, bold';text-align:center;letter-spacing:0px;word-spacing:0px;writing-mode:lr-tb;text-anchor:middle;fill:#FFFFFF;fill-opacity:1;stroke:none" x="-333.20343" y="222.81581">Préjugé</tspan></text>
<text id="ssfam_3" inkscape:label="#text4212-1-29-1-2-8-9-0-9-6-9-8-3-1-0-6-92-3-6-9-3-6-2-3-39-8-5" sodipodi:linespacing="0%" style="font-style:normal;font-variant:normal;font-weight:bold;font-stretch:normal;font-size:12px;line-height:0%;font-family:stix;-inkscape-font-specification:'stix, bold';text-align:start;letter-spacing:0px;word-spacing:0px;writing-mode:lr-tb;text-anchor:start;fill:#FFFFFF;fill-opacity:1;stroke:none" transform="matrix(0,1,-1,0,0,0)" x="112.96895" xml:space="preserve" y="-499.04208"><rect height="23.57143" id="rect13148-3-36-1-5-8-4" rx="12.181818" ry="9.7777777" style="fill:#ffffff;fill-opacity:1;stroke:none;stroke-width:5.83799982;stroke-linecap:round;stroke-linejoin:bevel;stroke-miterlimit:4;stroke-dasharray:none;stroke-dashoffset:0;stroke-opacity:1" width="143.57144" x="289.14221" y="83.512375"/><tspan id="tspan4214-27-1-2-9-7-6-4-1-1-1-3-9-59-96-1-318-6-04-1-7-5-8-9-0-1-9" sodipodi:role="line" style="font-style:normal;font-variant:normal;font-weight:bold;font-stretch:normal;font-size:12px;line-height:0%;font-family:stix;-inkscape-font-specification:'stix, bold';text-align:start;letter-spacing:0px;word-spacing:0px;writing-mode:lr-tb;text-anchor:start;fill:#FFFFFF;fill-opacity:1;stroke:none" x="112.96895" y="-499.04208">Manque de parcimonie</tspan></text>
<rect height="26.428572" id="rect13148-3-3-2-4-1-4-5" rx="8.4705887" ry="15" style="fill:#ffffff;fill-opacity:1;stroke:none;stroke-width:5.83799982;stroke-linecap:round;stroke-linejoin:bevel;stroke-miterlimit:4;stroke-dasharray:none;stroke-dashoffset:0;stroke-opacity:1" width="68.571434" x="326.64218" y="559.49841"/>
<text id="ssfam_2" inkscape:label="#text4212-1-29-1-2-8-9-0-9-6-9-15-7-7-8-9-7-6-1-0-8-29-4" sodipodi:linespacing="0%" style="font-style:normal;font-variant:normal;font-weight:bold;font-stretch:normal;font-size:11.25px;line-height:0%;font-family:stix;-inkscape-font-specification:'stix, bold';text-align:center;letter-spacing:0px;word-spacing:0px;writing-mode:lr-tb;text-anchor:middle;fill:#120915;fill-opacity:1;stroke:none" transform="matrix(0,1,-1,0,0,0)" x="332.53967" xml:space="preserve" y="-500.14215"><tspan id="tspan4214-27-1-2-9-7-6-4-1-1-1-9-41-5-8-6-2-8-2-8-38-3-6" sodipodi:role="line" style="font-style:normal;font-variant:normal;font-weight:bold;font-stretch:normal;font-size:11.25px;line-height:0%;font-family:stix;-inkscape-font-specification:'stix, bold';text-align:center;letter-spacing:0px;word-spacing:0px;writing-mode:lr-tb;text-anchor:middle;fill:#120915;fill-opacity:1;stroke:none" x="332.53967" y="-500.14215">Argument des mauvaises raisons</tspan></text>
<text id="ssfam_1" inkscape:label="#text4212-1-29-1-2-8-9-0-9-6-9-17-63-3-97-3-6-4-4-8-73-9-92" sodipodi:linespacing="0%" style="font-style:normal;font-variant:normal;font-weight:bold;font-stretch:normal;font-size:11.25px;line-height:0%;font-family:stix;-inkscape-font-specification:'stix, bold';text-align:end;letter-spacing:0px;word-spacing:0px;writing-mode:lr-tb;text-anchor:end;fill:#FFFFFF;fill-opacity:1;stroke:none" transform="matrix(0,1,-1,0,0,0)" x="552.16217" xml:space="preserve" y="-498.74182"><tspan id="tspan4214-27-1-2-9-7-6-4-1-1-1-85-85-5-76-3-4-8-7-5-1-0-2" sodipodi:role="line" style="font-style:normal;font-variant:normal;font-weight:bold;font-stretch:normal;font-size:11.25px;line-height:0%;font-family:stix;-inkscape-font-specification:'stix, bold';text-align:end;letter-spacing:0px;word-spacing:0px;writing-mode:lr-tb;text-anchor:end;fill:#FFFFFF;fill-opacity:1;stroke:none" x="552.16217" y="-498.74182">Sophisme ludique</tspan></text>
<rect height="26.428572" id="rect13148-3-3-2-4-1-4-5-3" rx="9.6044884" ry="15" style="fill:#ffffff;fill-opacity:1;stroke:none;stroke-width:5.83799982;stroke-linecap:round;stroke-linejoin:bevel;stroke-miterlimit:4;stroke-dasharray:none;stroke-dashoffset:0;stroke-opacity:1" width="77.750618" x="322.05258" y="83.512375"/>
<text id="text" inkscape:label="#text5516-78-3-4-89-9-1-3-6-2-4-3-9-5-3-7-7-2-6-1-6-5-0-5-7" sodipodi:linespacing="0%" style="font-style:normal;font-variant:normal;font-weight:bold;font-stretch:normal;line-height:0%;font-family:stix;-inkscape-font-specification:'stix bold';text-align:end;letter-spacing:0px;word-spacing:0px;text-anchor:end;fill:#380050;fill-opacity:1;stroke:none" x="360.1904" xml:space="preserve" y="103.33736"><tspan id="tspan7135" sodipodi:role="line" style="font-style:normal;font-variant:normal;font-weight:bold;font-stretch:normal;font-size:25px;line-height:100%;font-family:STIX;-inkscape-font-specification:'STIX Bold';text-align:center;text-anchor:middle;fill:#490f07;fill-opacity:1" x="360.1904" y="103.33736">Argument des mauvaises raisons</tspan><tspan id="tspan5338" sodipodi:role="line" style="font-style:normal;font-variant:normal;font-weight:bold;font-stretch:normal;font-size:25px;line-height:100%;font-family:STIX;-inkscape-font-specification:'STIX Bold';text-align:center;text-anchor:middle;fill:#490f07;fill-opacity:1" x="360.1904" y="128.33736"/></text>
<text id="sfam_1" inkscape:label="#text4212-1-29-1-2-8-9-0-9-6-9-17-4-1-5-6-8-7-5-1-12-0-9-54" sodipodi:linespacing="0%" style="font-style:normal;font-variant:normal;font-weight:bold;font-stretch:normal;font-size:11.25px;line-height:0%;font-family:stix;-inkscape-font-specification:'stix, bold';text-align:start;letter-spacing:0px;word-spacing:0px;writing-mode:lr-tb;text-anchor:start;fill:#FFFFFF;fill-opacity:1;stroke:none" transform="matrix(0,-1,1,0,0,0)" x="-552.40967" xml:space="preserve" y="222.81581"><tspan id="tspan4214-27-1-2-9-7-6-4-1-1-1-85-8-3-3-2-9-0-8-7-9-6-4-0" sodipodi:role="line" style="font-style:normal;font-variant:normal;font-weight:bold;font-stretch:normal;font-size:11.25px;line-height:0%;font-family:stix;-inkscape-font-specification:'stix, bold';text-align:start;letter-spacing:0px;word-spacing:0px;writing-mode:lr-tb;text-anchor:start;fill:#FFFFFF;fill-opacity:1;stroke:none" x="-552.40967" y="222.81581">Argument
bâclé</tspan></text>
<text id="text4212-1-29-1-2-8-9-0-9-67-9-6-3-5-23-0-1-7-3-2-3-4-7-8-8-8-4" sodipodi:linespacing="0%" style="font-style:normal;font-variant:normal;font-weight:bold;font-stretch:normal;font-size:15px;line-height:0%;font-family:STIX;-inkscape-font-specification:'STIX, Bold';text-align:center;letter-spacing:0px;word-spacing:0px;writing-mode:lr-tb;text-anchor:middle;fill:#1b0603;fill-opacity:1;stroke:none" x="360.3353" xml:space="preserve" y="578.3678"><tspan id="tspan3846" sodipodi:role="line" style="font-style:normal;font-variant:normal;font-weight:bold;font-stretch:normal;font-size:15px;line-height:1.25;font-family:STIX;-inkscape-font-specification:'STIX, Bold';text-align:center;writing-mode:lr-tb;text-anchor:middle;fill:#1b0603;fill-opacity:1" x="360.3353" y="578.3678">Insuffisance</tspan></text>
<flowRoot id="desc" inkscape:label="#flowRoot5388-1-9-2-7-9-4-63-8-65-6-8-7-2-3-5-4-9-17-61-1" style="font-style:normal;font-variant:normal;font-weight:bold;font-stretch:normal;line-height:0.01%;font-family:STIX;-inkscape-font-specification:'STIX Bold';text-align:center;letter-spacing:0px;word-spacing:0px;text-anchor:middle;fill:#1b0603;fill-opacity:1;stroke:none" transform="translate(351.61591,998.0622)" xml:space="preserve"><flowRegion id="flowRegion5390-2-2-5-6-3-9-94-3-6-8-8-5-1-8-5-4-6-9-15-2"><rect height="77.283951" id="rect5392-7-0-4-8-6-2-8-5-84-3-3-4-2-2-3-3-0-1-9-8" style="font-style:normal;font-variant:normal;font-weight:bold;font-stretch:normal;font-size:15px;line-height:100%;font-family:stix;-inkscape-font-specification:'stix bold';text-align:center;text-anchor:middle;fill:#a901ef;fill-opacity:1" width="264.06375" x="-123.22692" y="-557.27393"/></flowRegion><flowPara id="flowPara5394-0-2-4-9-0-06-12-6-8-2-1-8-0-3-8-0-7-0-8-9" style="font-style:normal;font-variant:normal;font-weight:bold;font-stretch:normal;font-size:15px;line-height:100%;font-family:STIX;-inkscape-font-specification:'STIX Bold';text-align:center;text-anchor:middle;fill:#1b0603;fill-opacity:1">Vous affirmez qu'une conclusion est fausse car la réflexion sur laquelle elle se fonde est sujette à caution.</flowPara></flowRoot> <flowRoot id="example" inkscape:label="#flowRoot5388-1-9-2-7-9-4-63-8-92-2-3-8-9-5-4-5-19-0-3-48-36" style="font-style:normal;font-variant:normal;font-weight:bold;font-stretch:normal;line-height:0.01%;font-family:STIX;-inkscape-font-specification:'STIX Bold';text-align:center;letter-spacing:0px;word-spacing:0px;text-anchor:middle;fill:#1b0603;fill-opacity:1;stroke:none" transform="translate(226.9528,539.72829)" xml:space="preserve"><flowRegion id="flowRegion5390-2-2-5-6-3-9-94-3-17-8-6-9-1-6-0-9-6-1-59-1-8"><rect height="49.597897" id="rect5392-7-0-4-8-6-2-8-5-7-1-2-6-5-5-9-91-21-0-4-0-0" style="font-style:normal;font-variant:normal;font-weight:bold;font-stretch:normal;font-size:15px;line-height:100%;font-family:stix;-inkscape-font-specification:'stix bold';text-align:center;text-anchor:middle;fill:#a901ef;fill-opacity:1;stroke-width:0.58746815" width="267.68024" x="0" y="0"/></flowRegion><flowPara id="flowPara5394-0-2-4-9-0-06-12-6-9-2-2-4-4-0-4-4-2-1-8-30-2" style="font-style:italic;font-variant:normal;font-weight:bold;font-stretch:normal;font-size:12.5px;line-height:100%;font-family:STIX;-inkscape-font-specification:'STIX Bold Italic';text-align:center;text-anchor:middle;fill:#1b0603;fill-opacity:1">Cet homme a tout intérêt me vendre sa voiture, sa description du véhicule manque nécessairement d'objectivité: mieux vaut ne pas l'acheter.</flowPara></flowRoot> </g>
</svg>