<?xml version="1.0" encoding="utf-8"?>
<!-- Created with Inkscape (http://www.inkscape.org/) --><svg height="152.42821mm" id="svg6779" inkscape:version="0.92.2 (unknown)" sodipodi:docname="niveau4.svg" version="1.1" viewBox="0 0 338.49999 540.09995" width="95.532219mm" xmlns="http://www.w3.org/2000/svg" xmlns:cc="http://creativecommons.org/ns#" xmlns:dc="http://purl.org/dc/elements/1.1/" xmlns:inkscape="http://www.inkscape.org/namespaces/inkscape" xmlns:rdf="http://www.w3.org/1999/02/22-rdf-syntax-ns#" xmlns:sodipodi="http://sodipodi.sourceforge.net/DTD/sodipodi-0.dtd" xmlns:svg="http://www.w3.org/2000/svg">
<defs id="defs6781"/>
<sodipodi:namedview bordercolor="#666666" borderopacity="1.0" id="base" inkscape:current-layer="layer1" inkscape:cx="35.268966" inkscape:cy="467.89903" inkscape:document-units="px" inkscape:pageopacity="0.0" inkscape:pageshadow="2" inkscape:window-height="728" inkscape:window-maximized="1" inkscape:window-width="1366" inkscape:window-x="0" inkscape:window-y="21" inkscape:zoom="0.98994949" pagecolor="#ffffff" showgrid="false"/>
<metadata id="metadata6784">
<rdf:RDF>
<cc:Work rdf:about="">
<dc:format>image/svg+xml</dc:format>
<dc:type rdf:resource="http://purl.org/dc/dcmitype/StillImage"/>
<dc:title/>
</cc:Work>
</rdf:RDF>
</metadata>
<g id="layer1" inkscape:groupmode="layer" inkscape:label="Calque 1" transform="translate(0,0.23029041)">
<rect height="539.09998" id="rect4326-0-3-6-4-3-2-61-6-9-9-5-0-7-0-5-8-8-9-4-5-5" inkscape:export-xdpi="90" inkscape:export-ydpi="90" style="fill:#ffffff;fill-opacity:1;stroke:#000000;stroke-opacity:1" width="337.5" x="0.5" y="0.26970959"/>
<rect height="486.97104" id="rect2985-3-0-7-7-6-9-6-2-0-3-5-4-5-0-77-3-1-3-5-5-4-3-9-7-0-1-8-1" inkscape:export-filename="/home/thomas/Documents/fallacies/png/rect2985-3-0-7-7.png" inkscape:export-xdpi="90" inkscape:export-ydpi="90" rx="9.2935619" ry="7.1613393" style="fill:#ffffff;fill-opacity:1;stroke:#face00;stroke-width:12;stroke-miterlimit:4;stroke-dasharray:none;stroke-dashoffset:0;stroke-opacity:1" width="285.0025" x="26.906189" y="26.612749"/>
<ellipse cx="169.40732" cy="279.7749" id="oval" inkscape:label="#path6246-7-6-6-9-7-6-9-3-1-1-722-4-6-4-7-1-9-6-2-0-7-5-4-6-9-9" rx="131.36859" ry="205.59465" style="fill:#face00;fill-opacity:1;stroke:#face00;stroke-width:1.01065052;stroke-opacity:1"/>
<rect height="15" id="sfam_3_active" inkscape:label="#rect13148-3-0-9-3-80-7-76-2" style="fill:#ffffff;fill-opacity:1;stroke:none;stroke-width:5.83799982;stroke-linecap:round;stroke-linejoin:bevel;stroke-miterlimit:4;stroke-dasharray:none;stroke-dashoffset:0;stroke-opacity:1" transform="rotate(90)" width="65.714287" x="50.147449" y="-34.050476"/>
<text id="sfam_3" inkscape:label="#text4212-1-29-1-2-8-9-0-9-6-9-8-3-1-0-6-8-0-4-2-3-6-9-3-6-2-6-4-2" style="font-style:normal;font-variant:normal;font-weight:bold;font-stretch:normal;font-size:12.00000095px;line-height:0%;font-family:'Liberation Serif';-inkscape-font-specification:'Liberation Serif, Bold';font-variant-ligatures:normal;font-variant-caps:normal;font-variant-numeric:normal;font-feature-settings:normal;text-align:end;letter-spacing:0px;word-spacing:0px;writing-mode:lr-tb;text-anchor:end;fill:#1b0603;fill-opacity:1;stroke:none" transform="rotate(-90)" x="-51.643555" xml:space="preserve" y="31.116638"><tspan id="tspan4214-27-1-2-9-7-6-4-1-1-1-3-9-59-96-1-6-2-1-8-8-2-7-4-5-4-7-3-9" sodipodi:role="line" style="font-style:normal;font-variant:normal;font-weight:bold;font-stretch:normal;font-size:12.00000095px;line-height:1.25;font-family:'Liberation Serif';-inkscape-font-specification:'Liberation Serif, Bold';font-variant-ligatures:normal;font-variant-caps:normal;font-variant-numeric:normal;font-feature-settings:normal;text-align:end;writing-mode:lr-tb;text-anchor:end;fill:#1b0603;fill-opacity:1;stroke:none" x="-51.643555" y="31.116638">Manipulation
mentale</tspan></text>
<rect height="17.763229" id="rect5818-6-6-9-3-0-7" style="fill:#face00;fill-opacity:1;stroke:none;stroke-width:0.91443771;stroke-linecap:round;stroke-linejoin:bevel;stroke-miterlimit:4;stroke-dasharray:none;stroke-dashoffset:0;stroke-opacity:1" width="278.215" x="30.299866" y="495.76239"/>
<text id="fam_num" inkscape:label="#text5665-3-4-9-4-3-3-5-7-5-8-4-6-8-6-6-3-0-6-3-4" style="font-style:normal;font-weight:normal;line-height:0%;font-family:sans-serif;letter-spacing:0px;word-spacing:0px;fill:#000000;fill-opacity:1;stroke:none" x="40.722107" xml:space="preserve" y="513.8327"><tspan id="tspan5667-04-4-6-18-8-8-0-0-1-5-7-0-9-2-1-9-1-5-0-3" sodipodi:role="line" style="font-style:normal;font-variant:normal;font-weight:bold;font-stretch:normal;font-size:17.5px;line-height:1.25;font-family:STIX;-inkscape-font-specification:'STIX Bold';fill:#ffffff" x="40.722107" y="513.8327">2</tspan></text>
<text id="sfam_2" inkscape:label="#text4212-1-29-1-2-8-9-0-9-6-9-15-4-9-9-24-4-6-7-5-4-2-6-9-5" style="font-style:normal;font-variant:normal;font-weight:bold;font-stretch:normal;line-height:0%;font-family:STIX;-inkscape-font-specification:'STIX Bold';letter-spacing:0px;word-spacing:0px;fill:#ffffff;fill-opacity:1;stroke:none" transform="rotate(-90)" x="-271.55652" xml:space="preserve" y="29.420349"><tspan id="tspan4214-27-1-2-9-7-6-4-1-1-1-9-8-7-7-0-88-0-1-6-8-0-3-2-6" sodipodi:role="line" style="font-style:normal;font-variant:normal;font-weight:bold;font-stretch:normal;font-size:10px;line-height:1.25;font-family:STIX;-inkscape-font-specification:'STIX Bold'" x="-271.55652" y="29.420349">Appel à l'émotion</tspan></text>
<text id="sfam_1" inkscape:label="#text4212-1-29-1-2-8-9-0-9-6-9-17-4-1-5-6-8-7-5-1-12-0-9-54-1" style="font-style:normal;font-variant:normal;font-weight:bold;font-stretch:normal;line-height:0%;font-family:STIX;-inkscape-font-specification:'STIX Bold';letter-spacing:0px;word-spacing:0px;fill:#ffffff;fill-opacity:1;stroke:none" transform="rotate(-90)" x="-487.89233" xml:space="preserve" y="29.420349"><tspan id="tspan4214-27-1-2-9-7-6-4-1-1-1-85-8-3-3-2-9-0-8-7-9-6-4-0-4" sodipodi:role="line" style="font-style:normal;font-variant:normal;font-weight:bold;font-stretch:normal;font-size:10px;line-height:1.25;font-family:STIX;-inkscape-font-specification:'STIX Bold'" x="-487.89233" y="29.420349">Procédé
rhétorique</tspan></text>
<text id="ssfam_3" inkscape:label="#text4212-1-29-1-2-8-9-0-9-6-9-8-3-1-0-6-92-3-6-9-3-6-2-3-39-8-5-0" style="font-style:normal;font-variant:normal;font-weight:bold;font-stretch:normal;font-size:12.00000095px;line-height:0%;font-family:'Liberation Serif';-inkscape-font-specification:'Liberation Serif, Bold';font-variant-ligatures:normal;font-variant-caps:normal;font-variant-numeric:normal;font-feature-settings:normal;text-align:start;letter-spacing:0px;word-spacing:0px;writing-mode:lr-tb;text-anchor:start;fill:#500000;fill-opacity:1;stroke:none" transform="rotate(90)" x="38.246761" xml:space="preserve" y="-309.22137"><tspan id="tspan4214-27-1-2-9-7-6-4-1-1-1-3-9-59-96-1-318-6-04-1-7-5-8-9-0-1-9-3" sodipodi:role="line" style="font-style:normal;font-variant:normal;font-weight:bold;font-stretch:normal;font-size:12.00000095px;line-height:1.25;font-family:'Liberation Serif';-inkscape-font-specification:'Liberation Serif, Bold';font-variant-ligatures:normal;font-variant-caps:normal;font-variant-numeric:normal;font-feature-settings:normal;text-align:start;writing-mode:lr-tb;text-anchor:start;fill:#ffffff;fill-opacity:1;stroke:none" x="38.246761" y="-309.22137">Poétique</tspan></text>
<text id="ssfam_2" inkscape:label="#text4212-1-29-1-2-8-9-0-9-6-9-15-7-7-8-9-7-6-1-0-8-29-4-1" style="font-style:normal;font-variant:normal;font-weight:bold;font-stretch:normal;line-height:0%;font-family:STIX;-inkscape-font-specification:'STIX Bold';letter-spacing:0px;word-spacing:0px;fill:#ffffff;fill-opacity:1;stroke:none" transform="rotate(90)" x="220.50974" xml:space="preserve" y="-309.22137"><tspan id="tspan4214-27-1-2-9-7-6-4-1-1-1-9-41-5-8-6-2-8-2-8-38-3-6-2" sodipodi:role="line" style="font-style:normal;font-variant:normal;font-weight:bold;font-stretch:normal;font-size:10px;line-height:1.25;font-family:STIX;-inkscape-font-specification:'STIX Bold'" x="220.50974" y="-309.22137">Humour</tspan></text>
<rect height="15" id="ssfam_1_active" inkscape:label="#rect13148-3-0-9-3-80-7-7-3-3-7" style="fill:#ffffff;fill-opacity:1;stroke:none;stroke-width:5.83799982;stroke-linecap:round;stroke-linejoin:bevel;stroke-miterlimit:4;stroke-dasharray:none;stroke-dashoffset:0;stroke-opacity:1" transform="rotate(90)" width="124.30313" x="339.23779" y="-319.44952"/>
<text id="ssfam_1" inkscape:label="#text4212-1-29-1-2-8-9-0-9-6-9-17-63-3-97-3-6-4-4-8-73-9-92-7" style="font-style:normal;font-variant:normal;font-weight:bold;font-stretch:normal;font-size:12.00000095px;line-height:0%;font-family:STIX;-inkscape-font-specification:'STIX, Bold';font-variant-ligatures:normal;font-variant-caps:normal;font-variant-numeric:normal;font-feature-settings:normal;text-align:end;letter-spacing:0px;word-spacing:0px;writing-mode:lr-tb;text-anchor:end;fill:#1b0603;fill-opacity:1;stroke:none" transform="rotate(90)" x="462.18921" xml:space="preserve" y="-308.55173"><tspan id="tspan4214-27-1-2-9-7-6-4-1-1-1-85-85-5-76-3-4-8-7-5-1-0-2-9" sodipodi:role="line" style="font-style:normal;font-variant:normal;font-weight:bold;font-stretch:normal;font-size:12.00000095px;line-height:1.25;font-family:STIX;-inkscape-font-specification:'STIX, Bold';font-variant-ligatures:normal;font-variant-caps:normal;font-variant-numeric:normal;font-feature-settings:normal;text-align:end;writing-mode:lr-tb;text-anchor:end;fill:#1b0603;fill-opacity:1" x="462.18921" y="-308.55173">Langage
persuasif</tspan></text>
<rect height="23.57143" id="rect13148-3-36-1-5-8-4-8" rx="8.7534218" ry="9.7777777" style="fill:#ffffff;fill-opacity:1;stroke:none;stroke-width:5.83799982;stroke-linecap:round;stroke-linejoin:bevel;stroke-miterlimit:4;stroke-dasharray:none;stroke-dashoffset:0;stroke-opacity:1" width="103.16534" x="118.54767" y="18.612719"/>
<text id="text" inkscape:label="#text5516-78-3-4-89-9-1-3-6-2-4-3-9-5-3-7-7-2-6-1-6-5-0-5-7-1" style="font-style:normal;font-variant:normal;font-weight:bold;font-stretch:normal;line-height:0%;font-family:STIX;-inkscape-font-specification:'STIX Bold';text-align:center;letter-spacing:0px;word-spacing:0px;writing-mode:lr-tb;text-anchor:middle;fill:#490f07;fill-opacity:1;stroke:none" x="169.24466" xml:space="preserve" y="39.097687"><tspan id="tspan9035" sodipodi:role="line" style="font-style:normal;font-variant:normal;font-weight:bold;font-stretch:normal;font-size:25px;line-height:100%;font-family:STIX;-inkscape-font-specification:'STIX Bold';text-align:center;writing-mode:lr-tb;text-anchor:middle;fill:#490f07;fill-opacity:1" x="169.24466" y="39.097687">Poncif</tspan><tspan id="tspan5336" sodipodi:role="line" style="font-style:normal;font-variant:normal;font-weight:bold;font-stretch:normal;font-size:25px;line-height:100%;font-family:STIX;-inkscape-font-specification:'STIX Bold';text-align:center;writing-mode:lr-tb;text-anchor:middle;fill:#490f07;fill-opacity:1" x="169.24466" y="64.097687">anticritique</tspan></text>
<rect height="26.428572" id="rect13148-3-3-2-4-1-4-5-6" rx="8.4705887" ry="15" style="fill:#ffffff;fill-opacity:1;stroke:none;stroke-width:5.83799982;stroke-linecap:round;stroke-linejoin:bevel;stroke-miterlimit:4;stroke-dasharray:none;stroke-dashoffset:0;stroke-opacity:1" width="68.571434" x="135.12161" y="494.59808"/>
<text id="fam_text" inkscape:label="#text4212-1-29-1-2-8-9-0-9-67-9-6-3-5-23-0-1-7-3-2-3-4-7-8-8-8-4-0" style="font-style:normal;font-variant:normal;font-weight:bold;font-stretch:normal;font-size:12.00000095px;line-height:0%;font-family:'Liberation Serif';-inkscape-font-specification:'Liberation Serif, Bold';font-variant-ligatures:normal;font-variant-caps:normal;font-variant-numeric:normal;font-feature-settings:normal;text-align:center;letter-spacing:0px;word-spacing:0px;writing-mode:lr-tb;text-anchor:middle;fill:#1b0603;fill-opacity:1;stroke:none" x="164.26151" xml:space="preserve" y="511.59271"><tspan id="tspan4214-27-1-2-9-7-6-4-1-5-2-3-65-0-7-6-31-5-8-5-4-6-0-1-0-5-8-1" sodipodi:role="line" style="font-style:normal;font-variant:normal;font-weight:bold;font-stretch:normal;font-size:12.00000095px;line-height:1.25;font-family:'Liberation Serif';-inkscape-font-specification:'Liberation Serif, Bold';font-variant-ligatures:normal;font-variant-caps:normal;font-variant-numeric:normal;font-feature-settings:normal;text-align:center;writing-mode:lr-tb;text-anchor:middle;fill:#1b0603;fill-opacity:1" x="164.26151" y="511.59271">Influence</tspan></text>
<flowRoot id="desc" inkscape:label="#flowRoot5388-1-9-2-7-9-4-63-8-65-6-8-7-2-3-5-4-9-17-61-1-0" style="font-style:normal;font-variant:normal;font-weight:bold;font-stretch:normal;line-height:0.01%;font-family:STIX;-inkscape-font-specification:'STIX Bold';text-align:center;letter-spacing:0px;word-spacing:0px;text-anchor:middle;fill:#1b0603;fill-opacity:1;stroke:none" transform="translate(161.20564,945.16255)" xml:space="preserve"><flowRegion id="flowRegion5390-2-2-5-6-3-9-94-3-6-8-8-5-1-8-5-4-6-9-15-2-2"><rect height="77.283951" id="rect5392-7-0-4-8-6-2-8-5-84-3-3-4-2-2-3-3-0-1-9-8-5" style="font-style:normal;font-variant:normal;font-weight:bold;font-stretch:normal;font-size:15px;line-height:100%;font-family:stix;-inkscape-font-specification:'stix bold';text-align:center;text-anchor:middle;fill:#face00;fill-opacity:1" width="264.06375" x="-123.22692" y="-557.27393"/></flowRegion><flowPara id="flowPara5394-0-2-4-9-0-06-12-6-8-2-1-8-0-3-8-0-7-0-8-9-1" style="font-style:normal;font-variant:normal;font-weight:bold;font-stretch:normal;font-size:15px;line-height:100%;font-family:STIX;-inkscape-font-specification:'STIX Bold';text-align:center;text-anchor:middle;fill:#1b0603;fill-opacity:1">Vous utilisez des clichés accrocheurs pour court-circuiter toute réflexion argumentée.</flowPara></flowRoot> <flowRoot id="example" inkscape:label="#flowRoot5388-1-9-2-7-9-4-63-8-92-2-3-8-9-5-4-5-19-0-3-48-36-9" style="font-style:normal;font-variant:normal;font-weight:bold;font-stretch:normal;line-height:0.01%;font-family:STIX;-inkscape-font-specification:'STIX Bold';text-align:center;letter-spacing:0px;word-spacing:0px;text-anchor:middle;fill:#1b0603;fill-opacity:1;stroke:none" transform="translate(158.93154,1003.4804)" xml:space="preserve"><flowRegion id="flowRegion5390-2-2-5-6-3-9-94-3-17-8-6-9-1-6-0-9-6-1-59-1-8-7"><rect height="48.063705" id="rect5392-7-0-4-8-6-2-8-5-7-1-2-6-5-5-9-91-21-0-4-0-0-1" style="font-style:normal;font-variant:normal;font-weight:bold;font-stretch:normal;font-size:15px;line-height:100%;font-family:stix;-inkscape-font-specification:'stix bold';text-align:center;text-anchor:middle;fill:#face00;fill-opacity:1;stroke-width:0.57831079" width="267.68024" x="-123.22692" y="-557.27393"/></flowRegion><flowPara id="flowPara5394-0-2-4-9-0-06-12-6-9-2-2-4-4-0-4-4-2-1-8-30-2-3" style="font-style:italic;font-variant:normal;font-weight:bold;font-stretch:normal;font-size:12.5px;line-height:100%;font-family:STIX;-inkscape-font-specification:'STIX Bold Italic';text-align:center;text-anchor:middle;fill:#1b0603;fill-opacity:1">Concernant la délinquance, je préconise une tolérance zéro, même pour les enfants en bas âge, car qui vole un œuf vole un bœuf.</flowPara></flowRoot> <g id="illustration" inkscape:groupmode="layer" inkscape:label="#illustration" transform="translate(-25.552157,-61.711793)"><g id="2.1.1.4" inkscape:label="#g3526-4" transform="translate(-1121.4746,-0.80655052)">
<path d="m 1189.95,256.13575 19.0196,-32.18708 35.1131,-2.92604 87.7828,52.66967 -12.4359,33.65006 -25.6033,10.24134 -9.5098,-2.92604 v 14.63044 l 11.7044,19.7511 c -1.6412,2.58235 -1.463,2.75805 -1.463,5.12067 0,0.24389 0.1723,0.55911 0,0.73158 -0.1725,0.17238 -0.5591,-0.17247 -0.7316,0 -0.1724,0.17238 0.1725,0.5591 0,0.73149 -0.1724,0.17247 -0.5591,-0.17239 -0.7315,0 -0.1725,0.17247 0.1724,0.5591 0,0.73157 -0.3449,0.34477 -1.1182,-0.34486 -1.4631,0 -0.3448,0.34477 0.2181,1.02685 0,1.46297 -0.07,0.14005 -2.786,2.85615 -2.9261,2.92613 -0.2181,0.10905 -0.5134,-0.10906 -0.7315,0 -0.3084,0.15423 -0.4231,0.57733 -0.7315,0.73148 -0.2181,0.10905 -0.5591,-0.17238 -0.7315,0 -0.1724,0.17247 0.1724,0.5591 0,0.73158 -0.1724,0.17238 -0.5591,-0.17248 -0.7315,0 -1.5136,1.51354 2.3128,-0.0593 -0.7316,1.46306 -0.2181,0.10905 -0.5591,-0.17248 -0.7315,0 -0.1725,0.17238 0.1724,0.5591 0,0.73148 -0.3658,0.36579 -1.8288,-0.36578 -2.1945,0 -0.1725,0.17248 0.1724,0.55911 0,0.73158 -0.3449,0.34477 -1.1182,-0.34486 -1.4631,0 -0.1725,0.17238 0.1724,0.5591 0,0.73149 -0.1725,0.17238 -0.4877,0 -0.7316,0 -0.3448,0 -3.6244,0.0332 -3.6576,0 -0.1724,-0.17239 0.1725,-0.55911 0,-0.73149 -0.1724,-0.17247 -0.5591,0.17238 -0.7315,0 -0.1724,-0.17247 0.1724,-0.5591 0,-0.73158 -1.5135,-1.51354 0.059,2.31295 -1.463,-0.73148 -0.1091,-0.21811 0.1724,-0.5591 0,-0.73158 -0.1725,-0.17238 -0.5591,0.17248 -0.7316,0 -0.1724,-0.17238 0.1091,-0.51338 0,-0.73148 -0.1541,-0.30848 -0.5772,-0.4231 -0.7315,-0.73158 -0.109,-0.21802 0.1724,-0.5591 0,-0.73148 -0.1724,-0.17239 -0.5591,0.17238 -0.7315,0 -0.1495,-0.14957 0.145,-1.90449 0,-2.19455 -0.1542,-0.30848 -0.5773,-0.4231 -0.7315,-0.73158 -0.095,-0.18909 0,-3.87059 0,-4.38909 0,-0.24389 0.1724,-0.5591 0,-0.73158 -0.1724,-0.17238 -0.5591,0.17248 -0.7315,0 -0.1725,-0.17238 0,-0.48768 0,-0.73148 0,-0.17742 0.023,-2.17101 0,-2.19455 -0.1725,-0.17247 -0.4877,0 -0.7316,0 l -25.6033,-25.60335 4.3891,-24.87178 5.8523,-6.58373 z" id="path7372-2" inkscape:connector-curvature="0" style="fill:#ffffff;fill-opacity:1;fill-rule:evenodd;stroke:none;stroke-width:1px;stroke-linecap:butt;stroke-linejoin:miter;stroke-opacity:1"/>
<path d="m 1338.4493,274.42379 c -0.2439,-0.97528 -0.4877,-1.95066 -0.7316,-2.92603 -0.2438,0 -0.5591,0.17238 -0.7315,0 -0.1761,-0.17607 0.1761,-2.75006 0,-2.92613 -0.1724,-0.17238 -0.5591,0.17248 -0.7315,0 -0.3449,-0.34485 0.2181,-1.02684 0,-1.46306 -0.1542,-0.30838 -0.5773,-0.4231 -0.7316,-0.73148 -0.2181,-0.43622 0.2181,-1.02685 0,-1.46306 -0.1542,-0.30848 -0.5772,-0.4231 -0.7315,-0.73149 -0.109,-0.21811 0.1091,-0.51347 0,-0.73158 -0.1542,-0.30838 -0.5773,-0.4231 -0.7315,-0.73148 -0.1091,-0.21811 0.109,-0.51347 0,-0.73158 -0.1542,-0.30838 -0.5773,-0.4231 -0.7315,-0.73148 -0.1091,-0.21811 0.1724,-0.55911 0,-0.73158 -0.1724,-0.17238 -0.5591,0.17247 -0.7315,0 -0.1725,-0.17238 0.109,-0.51338 0,-0.73148 -0.1542,-0.30839 -0.5773,-0.4231 -0.7316,-0.73149 -0.109,-0.21811 0.1725,-0.5591 0,-0.73158 -0.1724,-0.17238 -0.5591,0.17248 -0.7315,0 -0.1724,-0.17238 0.1091,-0.51337 0,-0.73148 -0.1542,-0.30848 -0.5773,-0.4231 -0.7315,-0.73158 -0.1091,-0.2181 0.109,-0.51338 0,-0.73148 -0.1543,-0.30848 -0.5773,-0.4231 -0.7315,-0.73149 -0.1091,-0.21811 0.109,-0.51347 0,-0.73157 -0.1543,-0.30839 -0.5774,-0.4231 -0.7316,-0.73149 -0.218,-0.43621 0.3449,-1.1182 0,-1.46306 -0.1724,-0.17248 -0.5591,0.17238 -0.7315,0 -0.1496,-0.14957 0.145,-1.90458 0,-2.19455 -0.1542,-0.30848 -0.5773,-0.4231 -0.7315,-0.73157 -0.109,-0.21811 0.1724,-0.55911 0,-0.73149 -0.1724,-0.17247 -0.5591,0.17238 -0.7315,0 -0.1724,-0.17247 0,-0.48769 0,-0.73158 0,-0.24379 0,-0.48768 0,-0.73148 0,-0.24389 -0.2438,-0.73149 0,-0.73149 0.2438,0 0.1724,0.5591 0,0.73149 -0.1724,0.17238 -0.4877,0 -0.7315,0 -0.2687,0 -2.8967,0.0296 -2.9262,0 -0.1723,-0.17239 0.1724,-0.5591 0,-0.73149 -0.3448,-0.34486 -1.1182,0.34477 -1.463,0 -0.1724,-0.17247 0.1725,-0.5591 0,-0.73157 -0.1724,-0.17239 -0.5591,0.17247 -0.7315,0 -0.1725,-0.17239 0.1724,-0.55911 0,-0.73149 -0.1725,-0.17247 -0.5591,0.17238 -0.7316,0 -0.1724,-0.17247 0.1725,-0.5591 0,-0.73157 -0.1724,-0.17239 -0.5591,0.17247 -0.7315,0 -0.3448,-0.34486 0.3449,-1.11821 0,-1.46307 -0.1723,-0.17238 -0.5591,0.17248 -0.7315,0 -0.1724,-0.17238 0.109,-0.51337 0,-0.73148 -0.1542,-0.30848 -0.7315,-1.07635 -0.7315,-0.73149 0,0.54518 0.7315,2.00824 0.7315,1.46297 0,-6.36894 -0.2162,-0.94761 -1.463,-2.19454 -0.3449,-0.34486 0.3448,-1.11821 0,-1.46306 -0.1725,-0.17239 -0.5591,0.17247 -0.7316,0 -0.1724,-0.17239 0,-0.48769 0,-0.73149 0,-0.24389 0,-0.97537 0,-0.73158 0,0.48769 0,1.95075 0,1.46307 0,-0.16933 0.1307,-4.12787 0,-4.3891 -0.1542,-0.30848 -0.5772,-0.4231 -0.7315,-0.73157 -0.109,-0.21811 0.059,-0.49497 0,-0.73149 -0.187,-0.7481 -0.5445,-1.44653 -0.7315,-2.19455 -0.067,-0.26554 0.09,-2.10498 0,-2.19463 -0.1724,-0.17239 -0.5592,0.17247 -0.7315,0 -0.1724,-0.17239 0.1723,-0.55911 0,-0.73149 -0.1724,-0.17238 -0.7315,0.2438 -0.7315,0 0,-0.2438 0.9038,0.17238 0.7315,0 -0.3856,-0.38555 -1.0775,-0.34594 -1.4631,-0.73149 -0.1724,-0.17247 0,-0.48768 0,-0.73157 0,-0.2438 0,-0.97538 0,-0.73149 0,0.48769 0.4877,1.46306 0,1.46306 -1.5077,0 -0.3277,-2.52233 -0.7315,-2.92612 -0.1725,-0.17247 -0.5591,0.17238 -0.7316,0 -0.023,-0.0234 0,-2.01713 0,-2.19455 0,-0.24388 0,-0.97537 0,-0.73157 0,0.48769 0,1.95075 0,1.46306 0,-1.70686 0,-3.41381 0,-5.12067 0,-0.32941 -0.1113,-1.97195 0,-2.19455 0.3085,-0.61686 1.1547,-0.8462 1.4631,-1.46306 0.2181,-0.43621 -0.3449,-1.1182 0,-1.46306 0.1725,-0.17238 0.5591,0.17247 0.7316,0 0.1724,-0.17238 0,-0.48769 0,-0.73149 0,-0.32949 0.1113,-1.97195 0,-2.19454 -0.1543,-0.30848 -0.5774,-0.4231 -0.7316,-0.73158 -0.096,-0.19233 0,-2.54354 0,-2.92612 0,-1.46297 0,-2.92604 0,-4.3891 0,-0.24389 0.1725,-0.5591 0,-0.73157 -0.1724,-0.17239 -0.5591,0.17247 -0.7315,0 -0.2001,-0.20014 0.1985,-2.52926 0,-2.92604 -0.3932,-0.78637 -0.9356,-1.49126 -1.463,-2.19454 -0.2069,-0.27596 -0.5774,-0.4231 -0.7316,-0.73158 -0.109,-0.21811 0.109,-0.51338 0,-0.73148 -0.1542,-0.30848 -0.5773,-0.4231 -0.7315,-0.73158 -0.1091,-0.21811 0,-0.48769 0,-0.73149 0,-0.24388 0,-0.48768 0,-0.73157 0,-1.46297 0,-2.92603 0,-4.3891 0,-1.46306 0,-2.92612 0,-4.38918 0,-0.32941 -0.1113,-1.97195 0,-2.19455 0.1542,-0.30838 0.5773,-0.4231 0.7315,-0.73148 0.109,-0.21811 -0.1724,-0.5591 0,-0.73158 0.1725,-0.17238 0.5591,0.17248 0.7316,0 0.1723,-0.17238 -0.1091,-0.51338 0,-0.73148 0.4389,-0.87782 1.7556,-1.31673 2.1945,-2.19455 0.1091,-0.21811 -0.1724,-0.5591 0,-0.73158 0.1725,-0.17238 0.5591,0.17248 0.7316,0 0.1724,-0.17238 -0.1725,-0.5591 0,-0.73148 0.1724,-0.17248 0.5591,0.17238 0.7315,0 0.1723,-0.17248 -0.1724,-0.5591 0,-0.73158 0.1723,-0.17238 0.5591,0.17248 0.7315,0 0.1724,-0.17238 -0.1724,-0.5591 0,-0.73148 0.3448,-0.34486 1.1182,0.34485 1.463,0 0.1725,-0.17239 -0.1724,-0.55911 0,-0.73149 0.1725,-0.17247 0.5135,0.10896 0.7316,0 0.3084,-0.15424 0.4231,-0.57734 0.7315,-0.73158 0.4362,-0.2181 1.2449,0.43622 1.463,0 0.2181,-0.43621 -0.2181,-1.02684 0,-1.46306 0.1091,-0.2181 0.5134,0.10906 0.7315,0 0.3085,-0.15424 0.4877,-0.48768 0.7316,-0.73148 0.2438,-0.24389 0.5772,-0.4231 0.7315,-0.73158 0.109,-0.21802 -0.1724,-0.5591 0,-0.73148 0.3448,-0.34486 1.0268,0.2181 1.463,0 3.0445,-1.52217 -0.782,0.0503 0.7315,-1.46307 0.1725,-0.17238 0.5591,0.17248 0.7316,0 0.1724,-0.17238 -0.109,-0.51337 0,-0.73148 0.1107,-0.22134 2.7048,-2.81545 2.9261,-2.92612 0.218,-0.10906 0.5134,0.10905 0.7315,0 0.6169,-0.30848 0.8462,-1.15459 1.4631,-1.46307 0.2181,-0.10905 0.5591,0.17248 0.7315,0 0.1724,-0.17238 -0.1724,-0.5591 0,-0.73148 0.3448,-0.34486 1.0268,0.21811 1.463,0 0.3085,-0.15424 0.4231,-0.57734 0.7316,-0.73158 0.4361,-0.2181 1.0268,0.21811 1.463,0 0.3084,-0.15415 0.4231,-0.57724 0.7315,-0.73148 0.2182,-0.10906 0.5591,0.17238 0.7315,0 0.1725,-0.17239 -0.1724,-0.55911 0,-0.73149 0.023,-0.0233 2.0172,0 2.1946,0 1.7156,0 -0.3448,0.17238 1.463,-0.73157 0.4313,-0.2156 3.9644,0.21244 4.3892,0 0.2181,-0.10906 -0.2181,-0.62244 0,-0.73149 0.6543,-0.32716 1.4631,0 2.1946,0 2.4384,0 4.8768,0 7.3152,0 0.3826,0 2.7338,0.0961 2.9261,0 0.3085,-0.15424 0.4231,-0.57734 0.7315,-0.73158 0.2227,-0.1113 1.8651,0 2.1946,0 1.463,0 2.9261,0 4.3891,0 0.2439,0 0.7316,-0.24379 0.7316,0 0,0.24389 -0.9754,0 -0.7316,0 0.4877,0 0.9754,0 1.4631,0 0.2438,0 0.7315,-0.24379 0.7315,0 0,1.03637 -3.4137,-2.07264 0.7316,0 0.2181,0.10906 -0.1725,0.55911 0,0.73158 0.3448,0.34486 1.463,-0.48769 1.463,0 0,0.2438 -0.7316,-0.24389 -0.7316,0 0,0.34486 0.5774,0.4231 0.7316,0.73149 0.1091,0.2181 -0.1725,0.5591 0,0.73157 0.1724,0.17238 0.5591,0.17238 0.7315,0 0.1725,-0.17247 0,-0.97537 0,-0.73157 0,4.14529 -0.4877,0.24388 0.7316,1.46306 0.1724,0.17238 -0.1091,0.51338 0,0.73148 0.1541,0.30848 0.4876,0.48769 0.7315,0.73158 0.2438,0.2438 0.4231,0.57725 0.7314,0.73148 0.2182,0.10906 0.5591,-0.17238 0.7316,0 1.5136,1.51355 -2.3129,-0.0593 0.7315,1.46307 0.4362,0.2181 1.0269,-0.21811 1.4631,0 3.0444,1.52226 -0.7821,-0.0503 0.7315,1.46306 2.8549,2.85488 0.3929,-0.16933 2.1946,0.73148 0.8778,0.43891 1.3167,1.75573 2.1945,2.19464 0.2181,0.10905 0.5591,-0.17247 0.7315,0 0.1725,0.17238 0,0.48769 0,0.73149 0,0.24379 0,0.48768 0,0.73148 0,1.46306 0,2.92612 0,4.38919 0,0.24379 -0.1724,0.5591 0,0.73148 0.1725,0.17248 0.5591,-0.17238 0.7316,0 0.3658,0.36579 -0.3658,1.82885 0,2.19464 0.1724,0.17238 0.5591,-0.17248 0.7315,0 0.3448,0.34477 -0.3449,1.1182 0,1.46297 0.1725,0.17247 0.5591,-0.17238 0.7316,0 0.3447,0.34486 -0.3449,1.1182 0,1.46306 0.1723,0.17248 0.5591,-0.17238 0.7314,0 0.1724,0.17248 -0.109,0.51347 0,0.73158 0.1543,0.30838 0.5774,0.4231 0.7315,0.73148 0.2222,0.44421 -0.222,3.94498 0,4.38919 0.1543,0.30838 0.5774,0.42301 0.7316,0.73148 0.1113,0.2226 0,1.86514 0,2.19455 0,0.24389 0,0.48769 0,0.73158 0,0.24379 -0.109,0.51337 0,0.73148 0.1542,0.30848 0.5773,0.4231 0.7315,0.73158 0.2181,0.43612 -0.2181,1.02684 0,1.46297 0.1542,0.30848 0.5773,0.4231 0.7316,0.73157 0.2925,0.58525 -0.2927,1.60931 0,2.19455 0.1542,0.30848 0.5772,0.4231 0.7315,0.73158 0.096,0.19232 0,2.54353 0,2.92603 0,1.95075 0,3.9015 0,5.85225 0,0.97528 0,1.95065 0,2.92603 0,0.24389 0.2438,0.73157 0,0.73157 -0.2438,0 0,-0.97537 0,-0.73157 0,0.48769 0,0.97537 0,1.46306 0,0.24389 0.2438,0.73158 0,0.73158 -0.2438,0 -0.1724,-0.55911 0,-0.73158 0.1724,-0.17238 0.5591,0.17247 0.7315,0 0.3448,-0.34486 -0.2181,-1.02685 0,-1.46306 0.3084,-0.61686 1.1546,-0.84611 1.463,-1.46306 0,-1.95066 -0.2438,0.24389 0.7316,-0.73149 0.1724,-0.17238 -0.1725,-0.5591 0,-0.73148 0.1724,-0.17248 0.5591,0.17238 0.7315,0 0.1724,-0.17248 -0.1724,-0.55911 0,-0.73158 0.1724,-0.17238 0.5591,-0.17238 0.7315,0 0.1724,0.17247 -0.1724,0.5591 0,0.73158 0.1724,0.17238 0.4877,0 0.7315,0 0.2439,0 0.4877,0 0.7316,0 0.2438,0 0.5591,0.17238 0.7315,0 0.1724,-0.17248 -0.2439,-0.73158 0,-0.73158 0.2438,0 -0.1724,0.5591 0,0.73158 0.1724,0.17238 0.5591,-0.17248 0.7315,0 0.1724,0.17238 0,0.48768 0,0.73148 0,1.95075 0,3.9015 0,5.85216 0,3.49133 0,6.29834 0,8.04679 0,1.71557 -0.1724,-0.34486 0.7315,1.46306 0.096,0.19233 0,2.54354 0,2.92604 0,0.24388 0,0.48768 0,0.73157 0,0.2438 0.2438,0.73149 0,0.73149 -0.2438,0 0,-0.97538 0,-0.73149 0,0.17382 0.082,2.76209 0,2.92612 -0.1542,0.30839 -0.5773,0.42301 -0.7315,0.73149 -0.2181,0.43621 0.2181,1.02685 0,1.46306 -1.5222,3.04443 0.05,-0.78206 -1.463,0.73149 -0.1725,0.17247 0.1724,0.5591 0,0.73157 -0.3449,0.34486 -1.1182,-0.34486 -1.4631,0 -0.1724,0.17239 0.1724,0.5591 0,0.73149 -0.1724,0.17247 -0.5591,-0.17239 -0.7315,0 -0.1724,0.17247 0.1724,0.5591 0,0.73157 -0.1724,0.17239 -0.5591,-0.17247 -0.7315,0 -0.3449,0.34477 0.3448,1.11821 0,1.46298 -0.1725,0.17247 -0.5591,-0.17239 -0.7316,0 -0.3448,0.34485 0.2181,1.02684 0,1.46306 -0.1541,0.30847 -0.5772,0.4231 -0.7315,0.73157 -0.096,0.19233 0,2.54354 0,2.92604 0,2.19463 0,4.38918 0,6.58373 0,0.17741 -0.023,2.17101 0,2.19454 0.1724,0.17248 0.5591,-0.17238 0.7315,0 0.1725,0.17248 0,0.48769 0,0.73158 0,1.21917 0,2.43844 0,3.65761 0,1.95075 -0.2438,-0.24389 0.7316,0.73148 0.1724,0.17248 0,0.48769 0,0.73158 0,0.5088 -0.1323,3.39306 0,3.65761 0.1542,0.30838 0.6224,0.40432 0.7315,0.73148 0.1542,0.46272 -0.2181,1.02685 0,1.46307 0.109,0.2181 0.5591,-0.17239 0.7315,0 0.1724,0.17238 -0.1724,0.5591 0,0.73148 0.3449,0.34486 1.1182,-0.34477 1.4631,0 0.1724,0.17247 -0.1091,0.51347 0,0.73158 0.1542,0.30838 0.4876,0.48768 0.7315,0.73148 0.2438,0.24389 0.4877,0.48769 0.7315,0.73158 0.3852,0.3851 1.8039,1.99917 2.1946,2.19455 0.2181,0.10905 0.5134,-0.10906 0.7315,0 0.3085,0.15423 0.9754,0.48768 0.7315,0.73148 -0.2438,0.24389 -0.9753,-0.97528 -0.7315,-0.73148 0.4877,0.48768 1.0805,0.88922 1.4631,1.46306 0.1352,0.20283 -0.1725,0.5591 0,0.73148 0.1723,0.17248 0.5591,-0.17238 0.7314,0 0.1725,0.17248 -0.1723,0.5591 0,0.73158 0.1725,0.17238 0.5591,-0.17248 0.7316,0 0.1724,0.17238 -0.1725,0.5591 0,0.73148 0.497,0.49694 1.4548,-0.74792 2.1946,0.73158 0.109,0.21802 -0.1724,0.5591 0,0.73149 0.1724,0.17238 0.5591,-0.17239 0.7315,0 0.1724,0.17238 -0.1724,0.5591 0,0.73148 0.1724,0.17248 0.7315,-0.2438 0.7315,0 0,0.24389 -0.7315,-0.2438 -0.7315,0 0,0.34486 0.5773,0.4231 0.7315,0.73158 0.1042,0.2084 0,3.52008 0,1.46306 l 48.2806,10.24134 8.0467,69.49465 -16.0935,19.01962 -11.7044,-2.92603 -8.0467,-12.43589 -34.3816,13.89895 -30.724,-10.97292 -18.2881,10.97292 -5.8522,-2.19464 19.0196,-21.21416 16.0936,-9.50977 -11.7044,-2.92612 5.8521,-17.55656 -6.5837,-6.58373 -16.825,23.4088 -8.0468,-1.46306 -1.463,-42.42842 z" id="path7374-2" inkscape:connector-curvature="0" style="fill:#ffffff;fill-opacity:1;fill-rule:evenodd;stroke:none;stroke-width:1px;stroke-linecap:butt;stroke-linejoin:miter;stroke-opacity:1"/>
<path d="m 1448.7383,373.48923 c -7.6283,-0.5203 -15.1758,-1.77621 -17.5959,-2.92837 -3.2408,-1.54238 -5.3858,-4.57127 -6.4701,-9.13589 -0.4496,-1.89272 -0.9705,-3.36279 -1.1577,-3.26667 -0.1871,0.0963 -2.7306,1.40449 -5.6522,2.90753 -2.9216,1.50303 -6.344,2.95675 -7.6054,3.23046 -1.2613,0.2738 -5.8926,1.9194 -10.292,3.65716 -11.084,4.37805 -12.5619,4.55456 -17.7547,2.12089 -2.3033,-1.07949 -4.636,-2.00905 -5.1839,-2.06582 -0.5478,-0.0566 -2.49,-0.20598 -4.316,-0.33147 -3.6047,-0.24794 -6.7027,-1.27038 -8.3416,-2.75356 -0.5719,-0.5176 -3.2403,-1.35725 -5.9297,-1.86568 l -4.89,-0.92462 -3.2616,3.21061 c -5.9069,5.81443 -12.8767,8.14165 -15.7571,5.26125 -2.6875,-2.68753 -1.7766,-4.38235 6.9598,-12.94791 8.6475,-8.47861 9.268,-8.97465 16.6827,-13.33841 8.0132,-4.71617 8.0938,-4.85235 3.4667,-5.86195 -2.3184,-0.50592 -5.8611,-3.51164 -5.8611,-4.9729 0,-0.88447 1.0163,-1.34916 4.439,-2.02944 2.4416,-0.48535 6.1706,-1.58595 8.2869,-2.4458 2.1162,-0.86003 4.5408,-1.56349 5.3881,-1.56349 0.8471,0 1.8767,-0.33642 2.2877,-0.74739 0.8553,-0.85527 6.9739,-1.6182 20.7662,-2.58926 9.9046,-0.69735 19.3776,-0.13376 23.828,1.4177 1.7706,0.61722 2.3651,0.57841 3.1488,-0.20535 1.1062,-1.10617 3.8466,-0.83524 14.1912,1.40269 3.4694,0.75062 7.2884,1.36946 8.4868,1.37521 2.0324,0.0108 3.5622,1.4627 2.5773,2.4476 -0.5976,0.59755 -9.9773,-0.95624 -14.2342,-2.35759 -5.2057,-1.71387 -8.7819,-2.29929 -8.7819,-1.43773 0,0.38178 0.7103,0.69412 1.5787,0.69412 1.5633,0 3.5989,1.68368 2.8912,2.39136 -0.202,0.20203 -2.5603,-0.22296 -5.2406,-0.94438 -2.6804,-0.72143 -8.9351,-1.8337 -13.8995,-2.47158 -7.4933,-0.96271 -9.8942,-1.03053 -14.1372,-0.39966 -2.8109,0.41816 -7.1354,0.76023 -9.6097,0.76023 -6.1827,0 -11.564,1.09584 -16.6047,3.38129 -2.3417,1.06207 -4.8,1.93072 -5.4628,1.93072 -0.6627,0 -1.8912,0.27443 -2.7302,0.60995 -0.8388,0.33551 -2.0816,0.78727 -2.762,1.00394 -1.0117,0.32213 -1.0875,0.57365 -0.4165,1.38194 1.5387,1.85409 6.7139,1.24325 11.731,-1.38464 3.4517,-1.80783 5.7952,-2.51389 9.8424,-2.9652 2.9215,-0.32563 6.7313,-1.03654 8.4659,-1.5793 1.7347,-0.54293 3.154,-0.70948 3.154,-0.37019 0,1.01095 -2.7849,2.52027 -5.9759,3.23864 -8.2514,1.8576 -15.0676,5.07935 -21.1916,10.01623 -2.3426,1.8885 -6.0776,4.29675 -8.2999,5.35144 -2.2223,1.0547 -5.783,3.35956 -7.9126,5.12193 -4.4657,3.69561 -13.7238,13.99983 -13.7238,15.27461 0,1.51767 1.8759,1.64443 3.3949,0.22924 0.8881,-0.82733 2.0208,-1.24414 2.8563,-1.05092 1.0097,0.23338 2.7146,-0.84575 6.2961,-3.98567 4.7277,-4.14457 18.3706,-12.28982 24.3045,-14.51051 3.2229,-1.20624 7.803,-1.9114 7.5139,-1.15701 -0.1155,0.30093 -2.6003,2.16769 -5.5219,4.14826 -6.7405,4.56939 -6.8518,5.50631 -0.6639,5.59057 3.3041,0.0449 5.4998,0.47682 7.5946,1.49397 3.879,1.88328 4.5375,1.82507 8.8721,-0.78512 2.024,-1.21872 6.0192,-3.03194 8.8785,-4.02932 2.8593,-0.99739 5.6954,-2.07813 6.3026,-2.40152 5.8511,-3.11674 20.1204,-6.74372 18.9255,-4.8104 -0.2359,0.38169 -1.2534,0.90064 -2.2611,1.15315 -3.0075,0.75376 -8.1403,3.12743 -8.1403,3.76442 0,0.32608 -1.1205,1.10122 -2.49,1.7224 -1.3695,0.62126 -3.237,1.62062 -4.15,2.22105 -0.913,0.60042 -2.8552,1.468 -4.316,1.92802 -1.4608,0.46011 -2.9398,1.09907 -3.2869,1.42021 -0.8686,0.80398 -2.5308,0.73822 -2.0251,-0.0808 0.7343,-1.188 -0.872,-0.7101 -6.5438,1.94689 -5.2124,2.44194 -5.5515,2.72481 -5.2369,4.37014 0.1912,1.00088 1.0218,2.07166 1.9265,2.48398 1.8314,0.83443 4.7786,-0.2147 15.8072,-5.62632 4.6285,-2.27109 7.0891,-3.12842 8.1881,-2.85247 1.097,0.27533 3.9696,-0.71989 9.5216,-3.29838 4.3727,-2.03078 8.6063,-3.76082 9.408,-3.84418 0.8014,-0.0835 1.6583,-0.63851 1.9042,-1.23346 0.3565,-0.8629 -0.8335,-14.2535 -1.5974,-17.97364 -0.097,-0.47547 0.2422,-0.86452 0.755,-0.86452 0.5329,0 1.481,1.56556 2.2115,3.65204 1.0973,3.13363 1.2329,4.92394 0.9559,12.616 -0.1776,4.93014 -0.6922,10.49331 -1.1433,12.36267 -1.0271,4.25543 -0.4649,6.60484 1.867,7.80012 1.0029,0.51419 5.1226,1.14435 9.1983,1.40692 7.1161,0.45876 7.4322,0.42184 8.7815,-1.02649 0.7696,-0.82634 2.1871,-3.50993 3.1499,-5.96372 1.4981,-3.81814 1.7151,-5.23898 1.5056,-9.85256 -0.1346,-2.96511 -0.029,-5.39097 0.2347,-5.39097 1.156,0 1.8544,2.95254 1.8544,7.83992 0,5.57772 -1.1832,9.36442 -4.0743,13.03981 -1.3257,1.68548 -1.3574,1.90844 -0.3515,2.4715 0.6082,0.34018 1.1058,1.20147 1.1058,1.91373 0,1.36641 -0.4861,1.41465 -8.6321,0.85914 z m -16.2388,-6.15713 c -0.6529,-1.0564 -1.7045,-0.19565 -1.2399,1.0149 0.2553,0.66564 0.6168,0.79365 1.0419,0.36857 0.3579,-0.35788 0.4469,-0.98049 0.198,-1.38347 z m -3.3528,-2.0431 c -0.6631,-0.73256 -1.3496,-1.188 -1.5255,-1.01202 -0.4462,0.44618 1.2099,2.34411 2.0454,2.34411 0.3771,0 0.1431,-0.59952 -0.5199,-1.33209 z m -48.4292,-3.00508 c -0.7089,-0.53619 -1.904,-0.95058 -2.656,-0.92094 -1.1119,0.044 -0.9952,0.22422 0.625,0.96613 2.6203,1.19985 3.6468,1.17704 2.031,-0.0458 z m 45.0099,-3.99151 c -0.2162,-0.56341 -0.5354,-0.88222 -0.7096,-0.70822 -0.174,0.17418 -0.1195,0.63519 0.1213,1.02478 0.6548,1.05937 1.0374,0.85357 0.5883,-0.31656 z m -154.9231,7.37397 c -1.4244,-3.32299 -2.8456,-10.18232 -2.2943,-11.07424 0.831,-1.3444 1.4682,-0.3852 1.8984,2.85731 0.2512,1.89424 1.1861,4.98592 2.0776,6.87002 1.9051,4.02717 1.9423,4.2936 0.601,4.2936 -0.574,0 -1.5718,-1.28816 -2.2827,-2.94669 z m 4.6237,0.12468 c 0,-0.45651 -0.7542,-2.43619 -1.6679,-4.39933 -0.9139,-1.96315 -1.7065,-4.7159 -1.7615,-6.11742 -0.082,-2.08963 -0.5501,-2.91023 -2.6013,-4.55861 -1.3757,-1.10554 -2.687,-2.59519 -2.9141,-3.31023 -0.2269,-0.71532 -1.0697,-1.50681 -1.8727,-1.75897 -0.803,-0.25233 -3.0079,-1.98569 -4.9,-3.852 -6.4847,-6.39652 -11.878,-11.3626 -14.408,-13.26645 -2.078,-1.56412 -2.472,-2.21817 -2.1993,-3.65204 0.1826,-0.96082 1.1198,-6.49103 2.0824,-12.28956 1.8026,-10.85649 2.4287,-12.75765 5.342,-16.21997 1.2858,-1.5281 1.4945,-2.15017 0.8542,-2.54776 -1.32,-0.81979 -22.9941,-13.92716 -34.0472,-20.58994 -5.478,-3.30215 -13.612,-8.14534 -18.0754,-10.76271 -4.4635,-2.61738 -8.4225,-5.33249 -8.7977,-6.03352 -0.5582,-1.04302 0.7159,-4.02789 7.0118,-16.42506 4.2317,-8.33264 8.2065,-15.68064 8.8329,-16.32903 1.0041,-1.03925 3.3557,-1.25978 19.8775,-1.86335 18.597,-0.67929 18.7523,-0.6739 20.5488,0.7234 1.7145,1.33371 4.8339,3.2081 20.4021,12.26027 3.6519,2.12332 9.4785,5.58375 12.9479,7.6899 3.4694,2.10598 12.284,7.24371 19.5879,11.4174 7.3041,4.17359 17.5047,10.10183 22.668,13.17366 5.1633,3.072 10.3159,6.09344 11.4502,6.71434 2.4606,1.347 2.7162,0.41861 -3.8972,14.15982 -10.1924,21.17787 -9.2119,19.54027 -13.2653,22.15756 -3.9629,2.55916 -5.5935,3.31823 -15.0461,7.00368 -4.4331,1.72842 -6.6154,2.2507 -8.1341,1.94707 -1.1414,-0.22826 -2.0754,-0.61201 -2.0754,-0.85285 0,-0.8364 -4.0583,-2.82973 -5.0144,-2.46296 -0.5289,0.20302 -0.9615,0.95849 -0.9615,1.67875 0,0.72025 -0.329,1.513 -0.7309,1.76138 -2.197,1.3577 4.5006,11.16273 7.6655,11.2222 3.2619,0.0602 6.351,9.29669 5.1202,15.30838 -1.2378,6.04574 -1.8995,8.0812 -3.6903,11.35254 -2.7646,5.05033 -4.1836,6.68829 -5.0476,5.82727 -0.5422,-0.54015 -0.1096,-1.88113 1.6241,-5.03515 1.2996,-2.36442 2.3629,-4.49824 2.3629,-4.74177 0,-0.24362 -0.6307,-0.44286 -1.4018,-0.44286 -1.2426,0 -1.3524,-0.26419 -0.966,-2.32399 0.5186,-2.76497 0.2002,-2.853 -2.4013,-0.66403 -1.0851,0.91295 -2.8046,1.66006 -3.8211,1.66006 -1.0166,0 -3.2157,0.1873 -4.8869,0.41636 l -3.0384,0.41646 2.2818,2.15196 c 1.6559,1.56161 2.2817,2.7223 2.2817,4.23154 0,2.33872 -0.9271,2.63534 -2.8691,0.91761 -1.2923,-1.14318 -1.3068,-1.11111 -0.897,1.97635 0.4305,3.24484 0.076,5.16163 -0.9529,5.16163 -0.3262,0 -0.5958,-0.37351 -0.5995,-0.83003 z m -11.2814,-26.2874 c 0,-0.72448 -3.0572,-2.11271 -4.5133,-2.04929 -0.8239,0.0368 2.5622,2.028 4.3472,2.55746 0.091,0.0269 0.1661,-0.20158 0.1661,-0.50817 z m 19.2559,-0.74945 c 1.3118,-1.00942 1.4893,-1.44878 0.8458,-2.0943 -0.6443,-0.64642 -1.0861,-0.57105 -2.1162,0.36121 -2.8052,2.53859 -3.0367,0.0269 -1.0884,-11.80663 1.1417,-6.93344 2.5041,-10.30934 5.5908,-13.85278 1.0427,-1.19716 2.3897,-3.14108 2.9934,-4.31983 l 1.0975,-2.14335 -2.0015,0.40037 c -1.2771,0.25548 -2.0014,0.1299 -2.0014,-0.34674 0,-0.41088 0.3735,-0.76346 0.8301,-0.78377 1.411,-0.062 4.0943,-3.93635 3.2864,-4.74437 -0.9006,-0.90072 -2.6906,-0.2305 -3.2453,1.21486 -0.2346,0.61175 -1.5887,2.16176 -3.0089,3.44498 -1.4203,1.28305 -3.8547,4.00588 -5.4098,6.05077 -2.4448,3.21475 -3.0274,4.6576 -4.3065,10.66426 -1.4953,7.02282 -2.9975,10.60066 -4.6867,11.1639 -0.7001,0.23329 -0.8053,-0.0764 -0.4332,-1.27478 0.2702,-0.87063 1.1681,-4.43401 1.9953,-7.91861 0.8273,-3.48486 1.8588,-6.99874 2.2923,-7.80892 1.7428,-3.25607 6.8959,-10.14046 8.5755,-11.45656 0.9828,-0.76993 2.2982,-2.34627 2.9233,-3.50328 3.5605,-6.59065 3.8865,-8.22987 1.9802,-9.95523 -1.0823,-0.97924 -1.3414,-0.98607 -2.6497,-0.0692 -0.7974,0.55865 -4.4564,4.58627 -8.1309,8.95057 -3.6744,4.36412 -6.9641,7.93487 -7.3105,7.93487 -0.9345,0 -0.7626,-1.05506 0.3183,-1.95201 1.1273,-0.93558 5.4346,-9.7144 6.0928,-12.41819 0.4502,-1.84861 0.4282,-1.86757 -0.8516,-0.7358 -1.6202,1.43315 -4.1971,1.53511 -4.1971,0.16601 0,-0.5477 0.5423,-0.99604 1.2051,-0.99604 0.7312,0 1.6561,-0.946 2.3524,-2.40618 1.2812,-2.68673 1.2807,-2.68942 -0.5695,-3.00868 -1.0463,-0.18047 -2.1891,1.10868 -5.3889,6.07898 -2.2334,3.46932 -5.2548,7.65262 -6.7141,9.29597 -1.4593,1.64335 -3.0127,3.67647 -3.4517,4.51782 -1.2195,2.33692 -2.6899,7.55237 -2.698,9.56896 -0.011,1.88876 -1.212,5.84793 -3.1089,10.21879 -1.6857,3.88443 -1.8833,1.18055 -0.2905,-3.97641 0.735,-2.37951 1.8043,-6.79295 2.3761,-9.80764 0.6388,-3.36737 1.5386,-6.01233 2.3334,-6.85826 0.7116,-0.75735 1.763,-2.70702 2.3365,-4.3325 0.5735,-1.62556 1.6294,-3.94982 2.3465,-5.16513 1.6053,-2.72095 1.7147,-4.42539 0.2477,-3.86251 -2.1634,0.8302 -2.2325,-0.44385 -0.1655,-3.05351 2.0448,-2.5818 2.0807,-2.72867 0.8821,-3.60505 -0.8745,-0.63941 -1.0395,-1.12324 -0.5504,-1.61245 0.4892,-0.48922 1.3253,-0.17185 2.7864,1.05748 1.606,1.35149 2.0873,2.29066 2.0873,4.07307 v 2.31653 l 2.1863,-2.87366 c 1.8108,-2.38013 2.623,-2.90977 4.7307,-3.08458 3.3874,-0.2809 6.363,2.37304 6.363,5.67519 v 2.22769 l 2.598,-2.73101 c 2.5492,-2.67972 2.6341,-2.71224 4.5304,-1.73165 1.0627,0.54958 2.3206,1.46719 2.7954,2.03896 0.4744,0.57195 1.4037,1.03978 2.0647,1.03978 0.6691,0 1.404,0.66259 1.6573,1.49415 0.2504,0.82167 0.8975,1.998 1.4377,2.61414 0.5404,0.61596 0.7863,1.43782 0.5464,1.82597 -0.6514,1.05389 -1.6859,0.85177 -1.6859,-0.32931 0,-0.56944 -0.2988,-0.8506 -0.664,-0.62486 -1.1906,0.73589 -0.7243,3.57299 0.714,4.34274 1.1811,0.63223 1.3157,1.13294 0.9429,3.50921 -0.2391,1.5246 -1.4747,4.48953 -2.7458,6.58876 -2.096,3.46196 -2.4086,5.14726 -0.9545,5.14726 0.2937,0 1.3711,-1.86756 2.3942,-4.15005 1.0231,-2.28241 4.3558,-9.34897 7.4057,-15.70355 3.05,-6.35448 5.4659,-11.61888 5.3686,-11.69865 -0.6386,-0.5229 -30.7109,-18.26181 -43.337,-25.5632 -8.3997,-4.85729 -21.0987,-12.26395 -28.22,-16.45928 -7.1215,-4.19515 -16.2014,-9.54462 -20.1778,-11.88739 -3.9763,-2.34276 -7.4395,-4.01719 -7.6956,-3.72075 -0.2562,0.29634 -0.8683,1.58478 -1.3603,2.86297 -0.492,1.27819 -1.3354,3.01775 -1.8742,3.86583 -1.2105,1.90548 -10.7241,21.99147 -10.7241,22.64193 0,0.25934 1.2699,1.18153 2.822,2.0492 1.5521,0.86758 14.8426,8.99028 29.5343,18.05026 14.6918,9.0599 26.9968,16.47276 27.3448,16.47276 0.3478,0 1.2985,-0.97124 2.1125,-2.15808 2.0113,-2.9325 4.7044,-5.80993 5.4377,-5.80993 1.1414,0 -4.3207,8.446 -8.5881,13.27993 -1.7357,1.96629 -3.5265,6.82879 -3.5454,9.62807 -0.013,1.9556 -1.521,12.57395 -2.373,16.71153 -0.3872,1.88023 -0.2097,2.21925 1.6707,3.19157 1.1571,0.59835 3.3145,2.18179 4.7944,3.51864 2.5039,2.2621 6.2735,4.10074 8.4554,4.12427 0.5133,0.0108 1.9495,0.78503 3.1917,1.73246 1.5432,1.17696 2.7409,1.6014 3.7821,1.34 0.8381,-0.21038 1.7389,-0.16376 2.0019,0.10411 2.234,2.27001 11.0961,2.81402 13.6629,0.83883 z m -22.9524,-13.13513 c 0.853,-3.60946 4.3591,-14.46227 4.981,-15.41869 1.1229,-1.72653 1.4136,-0.30668 0.4846,2.3672 -0.4956,1.4265 -1.578,5.35746 -2.4053,8.73561 -1.0631,4.34032 -1.7959,6.14195 -2.4981,6.14195 -0.746,0 -0.8861,-0.45517 -0.5622,-1.82607 z m 9.0277,-13.42006 c -0.5373,-0.33974 -0.8041,-0.79033 -0.593,-1.00143 0.523,-0.52308 2.5657,0.3101 2.5657,1.04661 0,0.75682 -0.7312,0.74011 -1.9727,-0.0458 z m -7.9873,-3.34581 c 0,-0.77937 0.5104,-0.77937 2.324,0 1.1769,0.50565 1.1201,0.5759 -0.4979,0.61722 -1.0044,0.026 -1.8261,-0.25206 -1.8261,-0.61722 z m -0.332,-1.99207 c -0.2316,-0.37504 0.3122,-0.66403 1.2496,-0.66403 0.9132,0 1.8447,0.29887 2.0705,0.66403 0.2316,0.37504 -0.3121,0.66402 -1.2497,0.66402 -0.913,0 -1.8446,-0.29877 -2.0704,-0.66402 z m -9.96,-1.99198 c -0.2257,-0.36516 0.055,-0.66394 0.6249,-0.66394 0.5694,0 1.0352,0.29878 1.0352,0.66394 0,0.36525 -0.2812,0.66402 -0.6249,0.66402 -0.3436,0 -0.8093,-0.29877 -1.0352,-0.66402 z m 0.498,-1.79651 c -0.8216,-0.15846 -1.4939,-0.58596 -1.4939,-0.9504 0,-0.72484 2.5908,-0.13089 3.6187,0.82949 0.6635,0.61982 0.5114,0.62863 -2.1248,0.12091 z m 30.3966,-6.80993 c -0.8412,-0.53197 -0.8224,-0.67758 0.1343,-1.04463 0.6112,-0.23464 1.4656,-0.20778 1.8984,0.0593 0.4622,0.28557 1.2787,-0.16574 1.9784,-1.09332 0.6552,-0.86875 1.4123,-1.35868 1.6822,-1.08883 0.6685,0.6686 -2.3669,3.80789 -3.6697,3.79523 -0.5754,0 -1.4859,-0.28818 -2.0236,-0.62819 z m 13.5132,-5.46723 c -0.4325,-0.69987 0.1529,-1.30703 2.7951,-2.89935 2.0767,-1.25161 0.4776,-2.28555 -2.8333,-1.83182 -2.4027,0.32941 -2.9849,0.22673 -2.748,-0.48409 0.9139,-2.74161 9.1743,-1.5873 9.1743,1.28187 0,2.0704 -5.4612,5.43301 -6.3881,3.93339 z m -45.5698,-1.30784 c -2.9348,-1.58972 -3.3237,-2.89854 -0.6639,-2.2347 1.9141,0.47754 4.1499,2.15386 4.1499,3.11118 0,0.81224 -0.6868,0.6395 -3.486,-0.87648 z m -5.1869,-8.35643 c -2.1214,-3.33934 -3.046,-5.93229 -2.36,-6.61832 0.2279,-0.22799 1.93,-0.0638 3.7824,0.36282 1.8524,0.4276 4.2414,0.77748 5.3093,0.77748 1.0676,0 1.9412,0.29878 1.9412,0.66403 0,0.36884 -1.7705,0.66393 -3.9839,0.66393 -2.1913,0 -3.984,0.2623 -3.984,0.58291 0,0.3206 0.4521,1.66518 1.0049,2.98792 0.9817,2.34987 1.0887,2.40511 4.648,2.40511 2.0037,0 3.6431,0.29887 3.6431,0.66412 0,0.36911 -1.7755,0.66402 -3.9986,0.66402 h -3.9986 z m 39.7149,2.22967 c -1.0811,-0.82069 -1.6113,-2.39568 -0.8066,-2.39568 0.7446,0 3.6287,2.17164 3.6287,2.73236 0,0.85734 -1.4821,0.68046 -2.8221,-0.33668 z m -18.758,-1.73174 c -0.661,-0.73041 -0.9031,-1.32796 -0.5378,-1.32796 0.3652,0 1.2048,0.59755 1.8659,1.32796 0.6609,0.7304 0.903,1.32795 0.5378,1.32795 -0.3652,0 -1.2048,-0.59755 -1.8659,-1.32795 z m 15.3427,-0.2765 c 0.2218,-0.57824 0.6952,-1.05146 1.0517,-1.05146 0.8727,0 0.3262,1.50914 -0.6663,1.83999 -0.4853,0.16169 -0.6337,-0.14185 -0.3854,-0.78853 z m 10.2213,0.2765 c 0,-0.36516 0.3164,-0.66394 0.7032,-0.66394 0.3868,0 0.5186,0.29878 0.2928,0.66394 -0.2257,0.36524 -0.5421,0.66402 -0.7031,0.66402 -0.1611,0 -0.2929,-0.29878 -0.2929,-0.66402 z m -36.0219,-1.02694 c -1.0043,-0.55407 -1.8261,-1.44608 -1.8261,-1.98228 0,-1.16321 2.3129,-3.6082 3.4861,-3.68501 3.0546,-0.20032 9.3479,0.20562 12.3229,0.79464 3.0671,0.60734 3.4983,0.88482 3.32,2.1367 -0.1327,0.93162 -0.7606,1.51749 -1.7809,1.66185 -2.4281,0.34351 -12.8843,-1.30029 -12.2577,-1.92694 0.3051,-0.30516 1.7497,-0.27776 3.2103,0.0611 1.4603,0.33848 3.9999,0.59836 5.6433,0.57743 l 2.9881,-0.0377 -1.9921,-0.89219 c -2.5088,-1.12359 -10.4017,-1.04733 -11.9926,0.11588 -1.4665,1.0723 -1.3288,1.19186 2.2386,1.94221 1.5741,0.33112 2.9187,0.90073 2.988,1.26589 0.2054,1.08191 -4.3712,1.05972 -6.3479,-0.0314 z m 34.0401,0.52901 c 0.019,-0.9089 1.2392,-2.45793 1.6293,-2.0678 0.5232,0.5229 -0.3102,2.56573 -1.0465,2.56573 -0.3261,0 -0.5884,-0.22404 -0.5828,-0.49793 z m -52.9427,-1.68845 c 0.7694,-2.00536 -5.9245,-9.10157 -8.5856,-9.10157 -1.6519,0 -0.9226,1.0696 1.7558,2.57488 2.4993,1.40468 5.9784,5.14888 5.9784,6.4339 0,0.32096 -1.1205,-0.51185 -2.49,-1.85077 -1.3695,-1.33883 -3.6105,-3.37878 -4.9801,-4.533 -2.8522,-2.40385 -3.4612,-5.00317 -0.9958,-4.25031 5.3208,1.62512 8.3667,4.19866 9.7036,8.19834 0.9416,2.81734 0.9448,3.38695 0.019,3.38695 -0.4043,0 -0.5868,-0.38636 -0.4055,-0.85842 z m 50.2765,-0.19286 c 0,-0.57824 0.3549,-0.93307 0.7886,-0.78853 1.2312,0.41034 1.4354,1.83981 0.2628,1.83981 -0.5782,0 -1.0514,-0.47314 -1.0514,-1.05128 z m -2.656,-0.94079 c 0,-0.36516 -0.4481,-0.66394 -0.9959,-0.66394 -0.5479,0 -0.9961,-0.44816 -0.9961,-0.99594 0,-1.14992 1.5183,-1.29643 3.3389,-0.32195 0.7329,0.39229 1.1015,1.08649 0.8814,1.65997 -0.4221,1.09979 -2.2283,1.36065 -2.2283,0.32186 z m -4.326,-2.68781 c -0.5038,-1.5872 0.4897,-3.02161 1.6122,-2.32785 1.0054,0.62126 0.9006,2.04866 -0.2183,2.97741 -0.7528,0.62477 -1.0306,0.49524 -1.3939,-0.64956 z m -10.9459,-1.4803 c 0,-0.46667 0.4568,-1.50062 1.0153,-2.29786 0.6331,-0.90405 0.8559,-2.08387 0.5919,-3.13578 -0.4975,-1.98273 0.3516,-2.17353 2.7321,-0.61381 1.6899,1.10724 2.3048,3.12644 0.7732,2.5386 -0.5135,-0.19718 -1.3163,0.61838 -1.9812,2.01291 -1.0774,2.25922 -3.1313,3.24052 -3.1313,1.49594 z m -47.1439,-4.07649 c 0,-0.51733 -0.3736,-1.09144 -0.8301,-1.2755 -0.4791,-0.19331 -0.5225,-0.35716 -0.1029,-0.38734 0.3999,-0.0288 1.2679,0.54508 1.9289,1.27549 1.0807,1.19429 1.0912,1.32805 0.1029,1.32805 -0.6044,0 -1.0988,-0.42328 -1.0988,-0.9407 z m 40.5039,0.4567 c -3.504,-1.3338 -2.0696,-7.48401 1.7454,-7.48401 1.7359,0 2.9025,1.24603 2.9025,3.10003 0,1.0661 -0.291,1.39461 -0.996,1.12413 -0.5478,-0.21029 -0.9959,-0.7985 -0.9959,-1.3072 0,-1.20947 -0.9543,-1.17938 -1.985,0.0629 -1.0258,1.23588 -0.3848,3.09976 0.8967,2.60794 1.2865,-0.49361 2.16,1.05048 1.0074,1.78052 -1.0215,0.64696 -1.1635,0.65343 -2.5751,0.11606 z m -44.4688,-2.81007 c -0.5372,-0.33982 -0.7204,-0.85805 -0.4071,-1.15189 0.3133,-0.29374 0.7037,-0.15873 0.8675,0.30003 0.1638,0.45886 0.5711,0.66529 0.905,0.45886 0.3341,-0.20643 0.6074,-0.0584 0.6074,0.32788 0,0.86066 -0.6794,0.88311 -1.9728,0.0647 z m 26.173,-0.0844 c -0.8981,-1.45318 0.7895,-1.97446 2.0136,-0.6218 1.1841,1.30828 1.1794,1.34368 -0.1757,1.34368 -0.7655,0 -1.5925,-0.32483 -1.8379,-0.72188 z m -28.8482,-1.54678 c 0,-0.57824 0.4731,-1.05137 1.0514,-1.05137 1.1726,0 0.9683,1.42955 -0.2629,1.8399 -0.4337,0.14453 -0.7885,-0.21029 -0.7885,-0.78853 z m 7.4229,-1.65422 c -1.9432,-1.35248 -3.7359,-2.75563 -3.9839,-3.11818 -1.2986,-1.8982 -11.1876,-8.18926 -13.4824,-8.57697 -2.0051,-0.33875 -2.5726,-0.73364 -2.5726,-1.78977 0,-1.24541 0.2738,-1.31898 3.3761,-0.90738 4.4092,0.5848 9.9195,2.67236 11.8831,4.50175 2.0561,1.91562 0.5932,2.41445 -1.7276,0.58892 -1.847,-1.453 -6.7623,-3.06212 -7.4012,-2.42307 -0.2067,0.20661 0.048,0.37692 0.565,0.37845 0.5172,0 2.4779,1.16842 4.3567,2.59312 2.3178,1.75708 3.6338,2.37259 4.0923,1.91401 1.0666,-1.06655 2.1639,0.062 1.7322,1.78214 -0.3392,1.35122 0.011,1.73965 2.5679,2.87204 1.6281,0.72017 3.1657,1.64201 3.4171,2.04858 0.2511,0.40657 1.3356,0.73921 2.4096,0.73921 2.6525,0 2.5298,-1.60338 -0.2052,-2.68134 -2.3195,-0.91402 -5.8099,-3.81319 -5.8099,-4.82576 0,-0.34009 0.971,0.12092 2.1579,1.02443 1.1869,0.90378 3.4279,2.28985 4.9799,3.08036 2.9754,1.51534 3.2452,2.03501 2.1348,4.11008 -1.0898,2.036 -4.4201,1.52199 -8.4898,-1.31062 z m 19.8011,1.63814 c 0,-0.56952 0.2988,-1.03529 0.664,-1.03529 0.3652,0 0.664,0.28117 0.664,0.62486 0,0.3436 -0.2988,0.80954 -0.664,1.0352 -0.3652,0.22574 -0.664,-0.0548 -0.664,-0.62477 z m -29.548,-1.03529 c -0.2651,-0.42885 -0.1831,-1.07841 0.1822,-1.44366 0.4426,-0.44259 0.8245,-0.40405 1.1458,0.1157 0.2651,0.42885 0.183,1.07859 -0.1821,1.44375 -0.4427,0.44268 -0.8247,0.40406 -1.1459,-0.11579 z m 27.556,0.0719 c 0,-0.44762 -0.2988,-0.62908 -0.664,-0.40342 -0.3652,0.22574 -0.664,-0.0548 -0.664,-0.62486 0,-0.56925 0.2668,-1.0352 0.5929,-1.0352 0.7084,0 1.5788,2.03366 1.0826,2.5297 -0.191,0.19125 -0.3475,-0.0189 -0.3475,-0.46622 z m 11.5772,-1.0396 c -1.0039,-1.53196 -0.9768,-1.79705 0.439,-4.31597 0.8295,-1.47618 1.7344,-2.68394 2.0109,-2.68394 1.1227,0 1.2412,1.40116 0.276,3.26756 -2.0361,3.93743 -0.5046,4.82028 1.7457,1.00619 1.9767,-3.34994 3.0708,-1.93503 1.2554,1.62323 -1.6697,3.27313 -4.0099,3.72372 -5.727,1.10293 z m -15.5613,-1.02388 c 0,-0.36516 0.2989,-0.66394 0.6641,-0.66394 0.3652,0 0.664,0.29878 0.664,0.66394 0,0.36525 -0.2988,0.66402 -0.664,0.66402 -0.3652,0 -0.6641,-0.29877 -0.6641,-0.66402 z m -3.5412,-2.43467 c -0.6347,-0.63455 -0.5458,-1.54929 0.1502,-1.54929 0.3262,0 0.765,0.44816 0.9752,0.99594 0.3884,1.01221 -0.3189,1.35994 -1.1254,0.55335 z m 10.3349,-1.25088 -1.47,-1.02963 1.67,-3.29532 1.6698,-3.29533 1.9667,1.01697 c 2.4615,1.27298 3.1711,3.75058 1.7118,5.97774 -1.2444,1.89909 -3.3855,2.14064 -5.5483,0.62557 z m 3.7606,-2.16023 c 0.3526,-0.65872 0.3933,-1.59862 0.091,-2.08873 -0.4078,-0.65971 -0.8308,-0.34899 -1.6306,1.1978 -0.9362,1.81025 -0.9483,2.08872 -0.091,2.08872 0.5441,0 1.278,-0.53898 1.6305,-1.19779 z m -19.1862,0.24101 c 0,-0.56934 0.2988,-1.0352 0.664,-1.0352 0.3652,0 0.664,0.28117 0.664,0.62486 0,0.3436 -0.2988,0.80946 -0.664,1.03511 -0.3652,0.22574 -0.664,-0.0548 -0.664,-0.62477 z m -5.3018,-2.19715 c 0.011,-0.27398 0.271,-0.90989 0.5898,-1.4132 0.7368,-1.1633 2.123,-0.364 1.624,0.93638 -0.3799,0.98984 -2.2324,1.38887 -2.2138,0.47682 z m 12.7535,-0.53566 c -1.5889,-1.11299 -1.9255,-3.52519 -0.7883,-5.64994 1.4119,-2.63822 6.6166,-0.84153 6.6166,2.28401 0,1.15675 -2.8055,4.39952 -3.806,4.39952 -0.3007,0 -1.2106,-0.46514 -2.0223,-1.03359 z m 3.1722,-3.6956 c 0,-0.68567 -0.4279,-1.24675 -0.9512,-1.24675 -1.0827,0 -2.0104,2.28833 -1.3564,3.34626 0.6204,1.00394 2.3076,-0.53135 2.3076,-2.09951 z m -17.9279,1.44842 c 0,-0.3436 0.2988,-0.80955 0.6639,-1.03529 0.3653,-0.22566 0.6642,0.0548 0.6642,0.62485 0,0.56944 -0.2989,1.03521 -0.6642,1.03521 -0.3651,0 -0.6639,-0.28108 -0.6639,-0.62477 z m -1.6317,-0.65729 c -0.21,-0.34001 -0.079,-0.80586 0.2928,-1.0352 0.3713,-0.22943 0.6749,0.0485 0.6749,0.61812 0,1.16626 -0.3984,1.33802 -0.9677,0.41708 z m -2.3523,-1.33478 c 0,-0.3436 0.2987,-0.80937 0.664,-1.03511 0.3651,-0.22566 0.664,0.0548 0.664,0.62476 0,0.56944 -0.2989,1.0352 -0.664,1.0352 -0.3653,0 -0.664,-0.28107 -0.664,-0.62485 z m 11.3829,0.0332 c -0.5653,-0.35815 -0.7341,-1.09655 -0.4532,-1.98192 0.5171,-1.62933 -0.1528,-1.86226 -1.2286,-0.42714 -0.4641,0.61938 -1.0664,0.7756 -1.6265,0.42202 -0.7198,-0.45436 -0.619,-1.09143 0.528,-3.33988 1.7031,-3.33862 2.7076,-3.82891 4.9,-2.39244 2.3021,1.50852 2.6276,2.8044 1.0903,4.34167 -0.7221,0.72214 -1.3129,1.91059 -1.3129,2.64091 0,1.43782 -0.4902,1.62817 -1.8971,0.73678 z m 1.8971,-5.27401 c 0,-0.86461 -0.7894,-1.43961 -1.4315,-1.04274 -0.6866,0.42444 -0.094,1.59601 0.8067,1.59601 0.3436,0 0.6248,-0.24901 0.6248,-0.55327 z m -15.2719,3.91246 c 0,-0.3436 0.2987,-0.80937 0.6639,-1.03511 0.3652,-0.22565 0.664,0.0548 0.664,0.62477 0,0.56934 -0.2988,1.03511 -0.664,1.03511 -0.3652,0 -0.6639,-0.28108 -0.6639,-0.62477 z m -2.427,-1.06386 c -0.501,-1.3055 0.092,-1.90502 1.391,-1.40646 0.5837,0.22394 0.8473,0.82212 0.6217,1.41006 -0.5034,1.31169 -1.5086,1.3099 -2.0127,0 z m -3.3831,-1.407 c -1.5054,-0.60752 -0.903,-2.21629 0.83,-2.21629 1.8074,0 1.8516,0.0566 1.257,1.60562 -0.4186,1.09117 -0.6954,1.1721 -2.087,0.61067 z m 6.8512,-3.4713 c -0.3607,-0.58363 2.7392,-6.713 3.3951,-6.713 0.1862,0 1.2231,0.6298 2.304,1.39946 2.821,2.00878 2.4125,4.25785 -0.7643,4.20845 -1.2782,-0.0198 -2.5629,0.35357 -2.8551,0.83003 -0.6143,1.00214 -1.5537,1.12646 -2.0797,0.27506 z m 5.2668,-3.39297 c -0.2257,-0.36525 -0.6915,-0.66403 -1.0352,-0.66403 -0.3436,0 -0.6247,0.29878 -0.6247,0.66403 0,0.36515 0.4657,0.66393 1.0351,0.66393 0.5693,0 0.8506,-0.29878 0.6248,-0.66393 z m -10.7269,0.30326 c -0.2162,-0.5635 -0.2268,-1.19096 -0.023,-1.39434 0.5815,-0.58156 1.7862,0.40477 1.7862,1.46216 0,1.27415 -1.2665,1.22546 -1.7628,-0.0683 z m -2.8851,-1.59215 c 0,-0.3436 0.2988,-0.80936 0.664,-1.03511 0.3652,-0.22565 0.6639,0.0548 0.6639,0.62477 0,0.56943 -0.2987,1.0352 -0.6639,1.0352 -0.3652,0 -0.664,-0.28108 -0.664,-0.62486 z m 86.0958,97.40278 c -0.1844,-0.45652 -0.335,-0.0835 -0.335,0.82994 0,0.91303 0.1506,1.28654 0.335,0.83003 0.1841,-0.45643 0.1841,-1.20355 0,-1.65997 z m -0.6502,-2.6145 c -0.212,-0.52973 -0.3693,-0.37244 -0.4012,0.40109 -0.029,0.70004 0.128,1.09224 0.3487,0.87162 0.2206,-0.22072 0.2442,-0.79338 0.052,-1.27271 z m 31.2523,-54.47095 c 5.5693,-1.51103 10.126,-2.99251 10.126,-3.29191 0,-0.29958 -0.3106,-0.54464 -0.69,-0.54464 -0.6607,0 -4.4519,-2.14092 -28.194,-15.92219 -5.8431,-3.39171 -20.9325,-12.13846 -33.532,-19.43724 -12.5994,-7.29887 -23.9922,-13.96228 -25.3176,-14.80776 l -2.4097,-1.53717 -15.8502,0.66969 c -8.7176,0.3683 -16.2987,0.82113 -16.8464,1.00627 -0.674,0.22781 -0.1555,0.77182 1.6044,1.68306 1.4303,0.74046 11.44,6.64742 22.2439,13.12641 10.8041,6.47899 24.7233,14.71281 30.9316,18.29747 6.2084,3.58467 13.1887,7.71092 15.5118,9.16958 2.323,1.45866 9.0459,5.45358 14.9399,8.87772 12.5944,7.31684 11.0622,7.16565 27.4823,2.71071 z m -10.458,-3.4413 c -7.5351,-2.65187 -11.2881,-5.65075 -11.2881,-9.02019 0,-4.8413 13.5551,-1.61622 20.4181,4.85774 2.5303,2.38696 2.5844,2.67675 0.8301,4.43131 -1.7243,1.72429 -4.5105,1.64901 -9.9601,-0.26886 z m 6.308,-3.71519 c -0.2258,-0.36516 -0.6615,-0.66402 -0.9684,-0.66402 -0.3071,0 -2.1114,-1.04526 -4.01,-2.32282 -1.8985,-1.27775 -3.7222,-2.15592 -4.0525,-1.95183 -1.062,0.65639 0.6951,2.91534 2.5761,3.31221 0.9938,0.20975 2.7033,0.79176 3.7988,1.29337 2.4294,1.11237 3.1972,1.20885 2.656,0.33309 z m -30.71,-3.97677 c -1.8146,-1.10635 -2.9042,-2.66328 -1.864,-2.66328 0.7777,0 5.018,2.86099 5.018,3.3856 0,0.90468 -0.7778,0.72646 -3.154,-0.72232 z m 0,-3.68689 c -3.3608,-2.20237 -4.3993,-3.62438 -2.6472,-3.62438 1.1615,0 7.7932,4.53534 7.7932,5.32971 0,1.15234 -1.5883,0.62611 -5.146,-1.70533 z m -5.1459,0.54329 c -1.5854,-0.38986 -2.9881,-1.44923 -2.9881,-2.25689 0,-1.05245 1.6247,-0.56395 3.652,1.0979 1.9785,1.62161 1.8848,1.78528 -0.6639,1.15899 z m -6.308,-4.16767 c 0,-0.36515 0.2987,-0.66393 0.664,-0.66393 0.3651,0 0.6639,0.29878 0.6639,0.66393 0,0.36525 -0.2988,0.66403 -0.6639,0.66403 -0.3653,0 -0.664,-0.29878 -0.664,-0.66403 z m 24.5779,-0.6333 c -2.4162,-1.85642 -1.1433,-2.42092 1.6151,-0.71621 1.2974,0.80191 2.3589,1.58298 2.3589,1.73578 0,0.74784 -2.5127,0.10286 -3.974,-1.01957 z m -28.5619,-2.06178 c 0,-0.3868 0.2988,-0.51849 0.6639,-0.29284 0.3653,0.22574 0.6641,0.54212 0.6641,0.70319 0,0.16106 -0.2988,0.29275 -0.6641,0.29275 -0.3651,0 -0.6639,-0.31638 -0.6639,-0.7031 z m -3.8684,-1.49755 c -2.0278,-2.15862 -1.7948,-2.72985 0.5484,-1.34557 1.0955,0.64714 1.9919,1.56026 1.9919,2.02944 0,1.28161 -0.9284,1.03161 -2.5403,-0.68387 z m 6.0081,0.50305 c -0.8117,-0.56854 -1.4758,-1.48247 -1.4758,-2.03115 0,-0.54877 -0.252,-0.84171 -0.5602,-0.65127 -0.9654,0.59656 -5.5135,-0.96989 -5.2388,-1.80441 0.4721,-1.43504 3.1836,-1.24577 5.3376,0.37234 1.1667,0.87674 2.6444,1.78654 3.2834,2.02226 0.6392,0.23553 1.1621,1.03511 1.1621,1.77701 0,1.61874 -0.5488,1.68764 -2.5083,0.31522 z m 21.7642,-0.29438 c 0,-0.36525 0.2812,-0.66402 0.6248,-0.66402 0.3437,0 0.8095,0.29877 1.0352,0.66402 0.2258,0.36525 -0.055,0.66403 -0.6248,0.66403 -0.5694,0 -1.0352,-0.29878 -1.0352,-0.66403 z m -11.0439,-0.80631 c -0.1773,-0.28683 0.4172,-0.52164 1.3215,-0.52164 0.9041,0 1.7645,-0.3622 1.912,-0.8047 0.1899,-0.56943 0.8804,-0.41699 2.363,0.52182 l 2.0947,1.32634 h -3.6844 c -2.0263,0 -3.8295,-0.23481 -4.0068,-0.52182 z m -21.9901,-2.86971 c -2.383,-1.0025 -2.7806,-1.6473 -0.9959,-1.61487 1.2381,0.0216 3.9132,1.7656 3.4374,2.23991 -0.1558,0.15549 -1.2546,-0.12568 -2.4415,-0.62504 z m 15.5843,-0.69807 c -2.3667,-1.28349 -1.7485,-2.26596 1.426,-2.26596 2.5822,0 5.4463,1.50285 4.5577,2.39154 -0.2795,0.27928 -0.8617,0.15442 -1.2938,-0.27775 -0.4321,-0.43217 -1.5477,-0.75116 -2.479,-0.70867 -1.1253,0.0503 -1.3035,0.17876 -0.5312,0.38061 0.6392,0.16699 1.1621,0.58066 1.1621,0.91905 0,0.84144 -0.6725,0.7375 -2.8418,-0.43882 z m -14.6623,-1.93386 c -0.2102,-0.54778 -1.0036,-0.99604 -1.763,-0.99604 -0.7594,0 -3.0845,-1.10877 -5.1668,-2.46403 -2.0824,-1.35509 -5.4295,-3.34096 -7.4382,-4.4129 -2.0086,-1.07203 -3.7516,-2.20416 -3.8733,-2.51596 -0.1217,-0.31198 -0.6446,-0.5671 -1.162,-0.5671 -0.5607,0 -0.9406,-0.67058 -0.9406,-1.65997 0,-0.91303 0.1613,-1.66006 0.3584,-1.66006 0.7351,0 6.0513,2.90762 8.9375,4.8881 1.6434,1.12773 3.3848,2.10975 3.87,2.18207 1.8588,0.2773 2.7701,0.89362 2.7701,1.87304 0,0.55919 0.4482,1.01679 0.996,1.01679 0.5477,0 0.9959,0.29886 0.9959,0.66402 0,0.36525 0.6949,0.66402 1.5443,0.66402 0.8494,0 2.21,0.70885 3.0241,1.57508 1.3017,1.38581 1.3491,1.62539 0.3934,1.99198 -1.6339,0.62702 -2.126,0.515 -2.5458,-0.57904 z m 6.6215,-2.75221 c -2.28,-1.23499 -1.3716,-2.20138 2.0845,-2.21764 2.624,-0.0117 2.8737,1.12117 0.332,1.50627 -1.0379,0.15721 -0.2499,0.3481 1.826,0.44224 2.9079,0.13196 3.3138,0.27398 1.9921,0.69735 -2.5483,0.81601 -4.1388,0.70678 -6.2346,-0.42822 z m -7.7094,-4.64691 c -2.0972,-0.93782 -2.1945,-1.0926 -0.996,-1.58738 2.1304,-0.87935 4.5706,-0.72125 6.1713,0.39992 3.1308,2.19293 -0.8724,3.11144 -5.1753,1.18746 z m 3.4985,-0.67238 c -0.4495,-0.1819 -1.3458,-0.19304 -1.9919,-0.0242 -0.6461,0.16834 -0.2782,0.31719 0.8174,0.33066 1.0955,0.0126 1.6241,-0.12432 1.1745,-0.30614 z m -11.3006,-3.69497 c -2.129,-1.02667 -1.8933,-2.50959 0.3991,-2.50959 2.746,0 6.0749,1.3091 6.0749,2.38903 0,1.12872 -4.2208,1.20732 -6.474,0.12056 z m 3.3326,-0.95301 c -0.4495,-0.18191 -1.3458,-0.19305 -1.9919,-0.0242 -0.6461,0.16834 -0.2782,0.31718 0.8174,0.33066 1.0956,0.0126 1.6241,-0.12433 1.1745,-0.30614 z m -17.201,-1.88472 c -0.2093,-0.54572 -0.6409,-0.83138 -0.9589,-0.63483 -0.8207,0.50727 -5.9114,-2.52 -5.9176,-3.519 -0.011,-1.36695 1.6233,-0.94924 4.5376,1.16195 1.5124,1.09565 3.0512,1.99207 3.4196,1.99207 0.3685,0 0.6698,0.44816 0.6698,0.99603 0,1.28861 -1.2563,1.29149 -1.7505,0 z m 6.9838,-1.58838 c -0.043,-0.22403 -0.043,-0.63159 0,-0.9054 0.043,-0.27398 -0.743,-0.50259 -1.7474,-0.50825 -1.4229,-0.0108 -1.6061,-0.15227 -0.8299,-0.65379 0.5477,-0.35402 1.8325,-0.64812 2.8549,-0.65387 2.1624,-0.0117 5.9769,1.78546 5.4835,2.58369 -0.3873,0.62684 -5.6425,0.75242 -5.7611,0.13762 z m -5.2333,-4.83717 c -1.2781,-0.35285 -2.9715,-0.69582 -3.7629,-0.76202 -2.5542,-0.21344 -2.375,-0.97214 0.338,-1.43055 2.8143,-0.47538 7.1532,1.10842 6.3954,2.33469 -0.2162,0.34952 -0.45,0.60509 -0.5197,0.56772 -0.069,-0.0377 -1.1727,-0.3568 -2.4508,-0.70984 z m 194.0537,136.24087 c -1.1869,-0.72367 -2.158,-1.74494 -2.158,-2.26964 0,-0.52461 0.6267,-4.63748 1.3924,-9.13967 1.5164,-8.91554 1.4143,-14.76913 -0.3435,-19.69145 -0.7539,-2.11083 -0.809,-2.80414 -0.2075,-2.61199 1.2547,0.40091 3.1743,6.86634 3.2794,11.04586 0.052,2.05459 -0.2687,6.27543 -0.7118,9.37969 -1.746,12.22577 -1.7551,11.54657 0.1686,12.57611 0.9539,0.5105 1.7344,1.1765 1.7344,1.48004 0,0.85725 -0.8114,0.65935 -3.154,-0.76895 z m 8.709,-0.16349 c 0.2216,-0.82706 0.4071,-2.02665 0.412,-2.66579 0.011,-1.46738 1.0597,-1.51436 1.6131,-0.0728 0.5687,1.4821 -0.1007,3.3494 -1.3773,3.83906 -0.8274,0.31746 -0.9651,0.0835 -0.6478,-1.10069 z m -105.8188,0.15622 c 0,-0.36516 0.2987,-0.66394 0.664,-0.66394 0.3652,0 0.6639,0.29878 0.6639,0.66394 0,0.36525 -0.2987,0.66402 -0.6639,0.66402 -0.3653,0 -0.664,-0.29877 -0.664,-0.66402 z m 103.7349,-0.94483 c 0.099,-1.06745 0.5545,-2.0634 1.011,-2.21324 1.1473,-0.37674 1.0409,1.30739 -0.1811,2.86513 -0.9644,1.22951 -1.0027,1.1995 -0.8299,-0.65189 z m -65.1828,-9.80324 c -1.5946,-1.17273 -2.6085,-2.22914 -2.2532,-2.34762 1.1016,-0.36714 6.9536,2.52575 6.6927,3.30871 -0.4667,1.4 -1.5468,1.16617 -4.4395,-0.96109 z m -25.9278,-1.52711 c -1.5614,-1.66204 -1.2237,-2.20713 0.6382,-1.02973 0.6374,0.40316 1.1404,0.35672 1.4433,-0.13348 0.3386,-0.54788 0.7492,-0.51626 1.5115,0.11642 1.2896,1.07014 1.3784,2.30333 0.1316,1.82498 -0.5034,-0.19313 -1.1945,-0.0719 -1.536,0.26958 -0.3852,0.38528 -1.2161,-0.0117 -2.1886,-1.04777 z m 17.9197,-8.85895 c 0,-0.74855 2.2829,-1.4203 4.8692,-1.43279 1.2109,-0.0108 1.7839,0.28674 1.6082,0.82087 -0.3175,0.96477 -6.4774,1.54651 -6.4774,0.61192 z m -40.5615,-9.24306 c -0.031,-0.2738 -0.1241,-7.66915 -0.2053,-16.43395 -0.081,-8.76481 -0.3954,-18.65662 -0.6985,-21.98185 -0.3952,-4.33745 -0.3371,-6.17806 0.2052,-6.51322 0.5199,-0.32132 0.7561,0.41025 0.7561,2.34214 0,1.54525 0.466,5.29629 1.0355,8.33551 0.7722,4.1214 0.9833,8.81861 0.83,18.47857 -0.113,7.12379 -0.057,12.94944 0.1265,12.94585 0.546,-0.0108 5.0258,-7.31917 7.3233,-11.94703 2.9065,-5.85476 8.1569,-13.35719 10.6243,-15.18136 l 2.0255,-1.49774 3.1274,2.62169 c 4.7727,4.00076 5.633,5.1354 5.1199,6.75198 -0.3833,1.20741 -0.9175,1.40584 -3.5457,1.31655 -1.7021,-0.0575 -3.4493,-0.079 -3.8826,-0.0467 -0.7433,0.0548 -8.1761,10.6294 -8.1761,11.63119 0,0.25763 -0.7471,1.4477 -1.66,2.64468 -0.913,1.19699 -1.6601,2.47545 -1.6601,2.84088 0,0.36543 -0.5723,1.18234 -1.2719,1.81528 -1.1866,1.07401 -1.3835,1.07778 -2.9433,0.0548 -1.8275,-1.19743 -3.9143,-0.61192 -4.6498,1.3046 -0.3933,1.02487 -2.3741,1.43728 -2.4804,0.51643 z m 30.2467,-5.62956 c -0.9385,-2.4458 6.5332,-11.88972 12.3282,-15.58227 l 3.9646,-2.52611 -0.3663,-4.06966 c -0.358,-3.97668 -0.326,-4.07972 1.3994,-4.5127 1.3918,-0.34944 2.6674,0.14427 6.026,2.33253 2.3432,1.52657 4.4769,3.15078 4.7416,3.60892 0.7014,1.21459 7.0305,6.10952 12.7652,9.87259 5.0907,3.34068 5.5634,4.89582 0.74,2.43511 -1.4735,-0.75179 -3.0452,-1.36677 -3.4928,-1.36677 -0.4474,0 -1.5291,-0.67237 -2.4036,-1.49405 -1.44,-1.35302 -2.7552,-1.73974 -6.3327,-1.86217 -0.6584,-0.0216 -3.1731,-1.05326 -5.5886,-2.29067 -4.6328,-2.37331 -5.4059,-2.34986 -8.3935,0.25422 -1.186,1.03358 -1.1594,1.09206 0.6639,1.46072 l 1.8993,0.38394 -3.984,3.95207 c -2.1911,2.17353 -5.431,4.62993 -7.1997,5.45834 -1.7686,0.82859 -3.9298,2.27692 -4.8026,3.21861 -1.2594,1.35904 -1.6645,1.50896 -1.9644,0.72735 z m -1.6373,-5.35198 c 0,-0.10519 1.2198,-3.31751 2.7106,-7.13798 3.8909,-9.97122 3.8865,-9.30837 0.079,-11.77573 -1.8075,-1.17129 -4.9074,-3.99995 -6.8887,-6.28612 -1.9813,-2.28609 -4.4052,-5.05294 -5.3864,-6.1486 -4.5161,-5.04216 -13.754,-18.34912 -13.754,-19.81228 0,-1.23219 1.3053,-0.0216 4.212,3.90545 5.1586,6.97 10.2511,12.09193 16.0334,16.12647 8.1331,5.67474 9.6459,6.35358 10.6259,4.76808 0.2247,-0.36381 -0.015,-0.4946 -0.54,-0.29347 -0.6398,0.24542 -1.0644,-0.24048 -1.3125,-1.50169 -0.2866,-1.45614 0.064,-2.31339 1.6001,-3.91389 1.6635,-1.73318 1.869,-2.30684 1.3319,-3.71941 -0.5458,-1.43558 -1.1622,-1.72465 -4.3869,-2.05747 -2.0634,-0.21299 -4.1044,-0.65315 -4.5358,-0.97825 -0.4312,-0.32509 -2.1173,-0.97295 -3.7469,-1.43997 -3.5974,-1.03098 -11.1628,-5.87623 -15.4859,-9.91778 -3.7985,-3.55116 -8.082,-10.3026 -11.4316,-18.01774 -3.3935,-7.81602 -3.2281,-7.56072 -5.38,-8.29994 -1.0632,-0.36515 -3.0134,-1.33712 -4.3337,-2.15987 -1.9234,-1.19842 -2.487,-2.03438 -2.8339,-4.20413 -0.2381,-1.48956 -2.0506,-5.74652 -4.0276,-9.46009 -3.122,-5.86437 -3.5309,-7.05678 -3.1111,-9.07193 0.2742,-1.31574 0.9393,-2.40781 1.5367,-2.5227 1.2402,-0.23886 7.6042,6.57089 8.8696,9.49072 0.4748,1.09557 1.0915,2.21871 1.3703,2.49593 0.6293,0.62521 4.258,11.01091 4.258,12.18643 0,1.50106 6.0276,9.64765 12.5818,17.00482 3.4882,3.9156 7.1964,8.17704 8.2406,9.46997 2.9619,3.66785 9.438,6.98275 13.6414,6.98275 6.8224,0 12.4729,-2.35148 15.0307,-6.25522 0.5475,-0.83551 1.5716,-4.47596 2.276,-8.08991 1.2906,-6.62335 2.1294,-9.15691 5.9962,-18.11054 l 2.116,-4.89996 -1.3894,-1.87915 c -0.7641,-1.03359 -1.3893,-2.66993 -1.3893,-3.63641 0,-2.1641 1.8987,-9.65987 2.6894,-10.61746 0.8763,-1.06125 -0.8781,-6.80929 -3.2553,-10.66444 -1.9028,-3.08575 -2.4992,-3.53373 -6.5084,-4.88801 -5.5294,-1.86765 -8.5773,-1.53142 -12.9249,1.42596 -4.2161,2.86828 -5.8517,6.51591 -4.2762,9.53744 1.3323,2.55494 1.3017,3.47211 -0.1265,3.79594 -4.4184,1.00161 -6.8538,-5.20125 -4.1253,-10.50625 0.8046,-1.56439 2.2725,-3.62006 3.262,-4.56803 2.6492,-2.53806 8.3811,-4.63406 12.4363,-4.54747 4.047,0.0862 4.1869,-0.11273 4.6636,-6.64347 0.3036,-4.15939 0.1441,-4.89995 -2.0028,-9.30288 -1.2829,-2.63103 -3.1221,-5.63549 -4.087,-6.67662 -0.965,-1.04131 -1.5905,-2.0571 -1.39,-2.2577 0.6966,-0.69645 5.7576,1.25745 6.1531,2.37556 0.2187,0.61857 0.7562,1.57301 1.1943,2.1208 0.4381,0.54778 1.4774,2.34061 2.3098,3.98396 0.8325,1.64344 1.9081,3.75642 2.3903,4.69577 0.4823,0.93917 0.8885,2.28375 0.9029,2.98793 0.068,3.3388 1.1226,7.84324 1.8963,8.09916 0.6705,0.22179 0.7612,-0.50278 0.409,-3.26703 -0.249,-1.95344 -0.7113,-4.05501 -1.0275,-4.67008 -0.3164,-0.61516 -0.5751,-2.08989 -0.5751,-3.27736 0,-1.31735 -0.5756,-2.77134 -1.4767,-3.73046 -1.2123,-1.2905 -1.309,-1.67533 -0.5407,-2.15017 0.7961,-0.49209 0.7993,-0.74316 0.022,-1.68045 -0.9695,-1.16833 -1.3845,-3.53149 -0.6948,-3.95764 0.2263,-0.13987 0.2943,-1.48139 0.1513,-2.98083 -0.3312,-3.47337 -2.9176,-5.5594 -8.2389,-6.64535 -4.4627,-0.9107 -5.4282,-1.86173 -2.4874,-2.44985 l 2.0942,-0.41888 -1.8647,-1.48677 c -1.5394,-1.22753 -1.7214,-1.6597 -1.0427,-2.47724 1.3142,-1.58344 -0.2076,-4.44264 -2.3784,-4.46851 -0.6383,-0.0108 -0.6801,0.3136 -0.166,1.27424 0.3781,0.70633 0.6874,2.03429 0.6874,2.95092 0,2.01381 -3.2191,5.86185 -3.7708,4.5074 -0.1983,-0.48679 -1.7468,-1.50555 -3.4409,-2.26381 -2.118,-0.94798 -2.7173,-1.46441 -1.9183,-1.65341 0.6391,-0.15118 1.162,-0.58569 1.162,-0.96558 0,-0.39184 0.8742,-0.56234 2.0212,-0.394 1.1117,0.16313 2.1857,0.0314 2.3865,-0.29437 0.7815,-1.26454 -0.5596,-3.93788 -2.5995,-5.18158 -2.2224,-1.35517 -6.1884,-1.82426 -5.4602,-0.64596 0.2258,0.36516 0.9903,0.66393 1.6992,0.66393 0.7088,0 1.2888,0.23661 1.2888,0.52578 0,0.28916 -2.0837,0.54481 -4.6304,0.56808 -2.8123,0.026 -5.0472,0.38834 -5.6917,0.92318 -0.9296,0.77146 -0.5719,1.10294 2.8807,2.67029 4.8646,2.2082 6.7499,4.24716 2.3965,2.59213 -1.2137,-0.46145 -2.9255,-0.47618 -5.1891,-0.044 -1.8579,0.35429 -4.803,0.83281 -6.5447,1.06323 -2.9406,0.38905 -3.8971,1.55864 -1.3022,1.59214 0.6318,0.0108 2.475,0.17284 4.0957,0.36606 3.4921,0.41627 5.291,1.69554 2.3843,1.69554 -1.0486,0 -2.409,0.4549 -3.0233,1.01059 -1.5745,1.42497 -7.8236,2.60588 -10.8178,2.04417 -1.3859,-0.26015 -3.0941,-1.04697 -3.796,-1.74872 -2.2573,-2.25743 -3.7349,-0.66214 -3.4028,3.67387 0.081,1.05164 -0.9686,1.79992 -5.0427,3.59562 -2.8294,1.2472 -5.424,2.51282 -5.7657,2.81249 -0.9288,0.81467 -3.0136,7.91052 -2.9944,10.19194 l 0.016,1.99198 0.9907,-1.82598 c 1.419,-2.61567 1.7523,-2.26857 1.2751,1.32796 l -0.4185,3.15402 1.3381,-1.65997 c 1.055,-1.30927 1.51,-1.4883 2.1524,-0.8479 0.6319,0.6297 0.6394,1.1968 0.033,2.5279 -0.4301,0.94385 -0.5842,2.50357 -0.3428,3.46582 0.4293,1.71028 0.4513,1.71693 0.9778,0.29393 0.2962,-0.80057 0.808,-1.45579 1.1375,-1.45579 0.5937,0 1.4588,4.35245 1.6738,8.41941 0.1151,2.17919 1.09,3.95297 1.09,1.98327 0,-0.60869 0.3303,-1.10662 0.7338,-1.10662 0.4853,0 0.5939,0.95543 0.3208,2.82192 -0.2271,1.55208 -0.3841,5.5859 -0.3489,8.96405 0.038,3.63686 -0.2028,6.14195 -0.5905,6.14195 -0.36,0 -1.75,-1.52469 -3.0887,-3.38812 -2.0194,-2.81087 -2.7117,-3.3353 -4.0622,-3.07713 -2.0614,0.39408 -2.7644,-0.65567 -1.2034,-1.79705 1.1315,-0.82751 1.1057,-1.06098 -0.5297,-4.76988 -1.8193,-4.1259 -3.6479,-10.3124 -3.7043,-12.53183 -0.018,-0.73041 -0.3228,-3.12069 -0.6762,-5.31192 -0.7897,-4.8978 0.021,-10.68761 2.1349,-15.27209 2.0097,-4.35576 12.4777,-17.25086 15.5656,-19.17475 7.6005,-4.73548 13.6436,-6.43668 23.1272,-6.51034 7.2018,-0.0566 10.8244,0.76337 13.4652,3.04568 0.5612,0.485 2.5658,1.05434 4.4546,1.26517 4.662,0.52065 9.3205,3.01811 13.2208,7.08804 3.7616,3.92476 4.8686,5.70384 4.9013,7.87584 0.013,0.85662 0.5851,2.35068 1.2711,3.32003 0.6861,0.96936 1.4161,2.95756 1.6221,4.41838 2.276,16.14093 2.4583,18.74285 1.8069,25.79909 -0.4349,4.71176 -0.44,7.62792 -0.014,8.42237 0.3577,0.66843 0.6504,2.13131 0.6504,3.25086 0,1.11973 0.2739,2.03573 0.6087,2.03573 1.1007,0 1.226,-1.62269 0.3011,-3.89907 -1.2959,-3.18915 -1.1263,-6.94288 0.4667,-10.33171 1.5695,-3.3388 3.0409,-4.2124 4.5514,-2.70191 0.8624,0.86246 1.0567,3.03311 1.1168,12.47442 0.039,6.28667 -0.1959,12.55159 -0.5241,13.92195 -0.6516,2.72095 -3.1802,4.88505 -4.9251,4.21536 -0.9547,-0.36632 -1.0182,0.18227 -0.5861,5.06399 0.2665,3.0111 0.4286,7.34639 0.3601,9.63382 -0.1701,5.68346 -0.1457,6.51169 0.3388,11.50731 0.5564,5.73673 -0.9506,11.59975 -4.3923,17.089 -1.4454,2.3053 -2.628,4.44002 -2.628,4.7441 0,0.30389 -1.3696,2.41301 -3.0436,4.68688 -5.6373,7.65792 -10.6435,16.86684 -14.8874,27.38576 -2.3207,5.75181 -4.4645,10.45792 -4.7642,10.45792 -0.2996,0 -0.5448,-0.0862 -0.5448,-0.19152 z m -16.007,-52.76238 c -3.7127,-4.69307 -12.2661,-13.14482 -10.9195,-10.79002 3.1135,5.44532 7.0606,10.4378 10.2072,12.91001 2.0741,1.62979 3.9991,2.97751 4.2773,2.99476 0.2783,0.0162 -1.3259,-2.28438 -3.565,-5.11475 z m 39.7344,-8.9432 c 0.4363,-0.99289 1.5659,-4.95089 2.5103,-8.79544 1.3909,-5.66288 1.626,-7.77856 1.2382,-11.1426 l -0.4786,-4.15275 -0.8201,2.9881 c -0.4512,1.64335 -1.9102,5.51449 -3.2421,8.6023 -2.2686,5.25937 -3.6071,11.56202 -3.6586,17.22724 l -0.021,2.25761 1.8389,-2.58971 c 1.0115,-1.42416 2.1961,-3.40186 2.6323,-4.39475 z m -60.9114,-18.73549 c 0,-1.59493 -1.2526,-4.35927 -1.9754,-4.35927 -0.3742,0 -1.303,-0.62252 -2.0638,-1.38329 -1.8381,-1.8381 -2.244,-1.24711 -1.262,1.83684 1.1332,3.55853 5.3012,6.62937 5.3012,3.90572 z m -3.5665,-10.42917 -0.9731,-2.23003 -0.054,2.02512 c -0.03,1.1139 0.3156,2.39496 0.7675,2.8469 1.2291,1.22896 1.3614,-0.11768 0.2598,-2.64199 z m -2.7468,-2.06412 c -0.4587,-2.84994 -2.1318,-6.21803 -2.7713,-5.57853 -0.3021,0.30201 1.4662,6.53926 2.2402,7.90253 0.7154,1.25986 0.9457,0.25215 0.5311,-2.324 z m 75.904,-1.19977 c 1.3213,-1.9503 1.5041,-2.94319 1.3354,-7.25287 -0.1073,-2.74638 0.025,-6.18848 0.292,-7.6493 0.3592,-1.95847 0.2197,-3.00391 -0.5316,-3.98072 -0.8743,-1.1368 -1.108,-1.18387 -1.6465,-0.33211 -0.831,1.31449 -0.8209,4.45953 0.015,4.97686 1.5065,0.93108 -0.2624,7.63591 -2.0145,7.63591 -0.3809,0 -0.582,1.93377 -0.4834,4.64897 0.1857,5.11249 0.6776,5.42924 3.0325,1.95326 z m -62.6186,-60.38607 c 0.2258,-0.36525 -0.055,-0.66411 -0.6248,-0.66411 -0.5694,0 -1.0352,0.29886 -1.0352,0.66411 0,0.36516 0.2812,0.66394 0.6248,0.66394 0.3436,0 0.8094,-0.29878 1.0352,-0.66394 z m 76.0834,147.51148 c -0.6396,-1.19518 -1.5547,-12.36079 -2.4237,-29.57518 -0.2376,-4.70557 -0.6626,-9.35984 -0.9444,-10.34294 -0.7649,-2.66669 -6.9266,-10.1975 -7.1912,-8.78906 -0.1165,0.6201 -0.8436,2.47213 -1.6156,4.11557 -0.7722,1.64335 -1.4948,4.03381 -1.6062,5.31191 -0.1112,1.2782 -0.4513,4.34095 -0.7555,6.80606 -0.3045,2.46512 -0.3082,4.48198 -0.011,4.48198 0.2999,0 0.556,-0.5229 0.5688,-1.16204 0.026,-1.22932 1.9121,-4.95367 1.9348,-3.81795 0.033,1.67811 -3.1471,11.90562 -3.7667,12.11205 -2.4615,0.82059 -2.0396,-8.84583 0.8164,-18.70117 1.9299,-6.65991 2.2154,-14.91322 0.6909,-19.97865 -1.1017,-3.66075 -0.7602,-4.87373 0.939,-3.33575 1.2261,1.10967 2.412,3.55916 4.672,9.65152 1.9833,5.34623 4.5908,7.90693 8.8256,8.66725 6.6586,1.19537 10.2131,2.00249 25.0304,5.68363 14.3038,3.55368 19.9302,5.50461 19.9302,6.91063 0,1.21692 -3.3614,0.65414 -19.7821,-3.31249 -9.0233,-2.17954 -17.704,-4.16451 -19.2904,-4.41083 -1.5866,-0.24631 -3.4508,-1.05577 -4.143,-1.79866 -0.6922,-0.74299 -1.4118,-1.19753 -1.5992,-1.01014 -0.3988,0.39884 1.4981,5.97486 3.8042,11.18258 2.6591,6.00468 3.4769,9.73793 2.5693,11.72964 -0.7288,1.59942 -0.861,1.64218 -1.9723,0.63645 -0.6551,-0.59297 -1.4218,-1.07805 -1.7037,-1.07805 -0.622,0 -0.1998,3.8449 1.2032,10.95593 0.5763,2.92163 1.0537,5.9843 1.061,6.80597 0.016,1.87251 -1.6689,1.97258 -2.7971,0.1661 -1.2489,-1.9998 -1.7989,-1.60203 -1.3773,0.99595 0.4128,2.54362 -0.044,3.01415 -1.069,1.09969 z m -50.1874,-53.04067 c -1.1561,-0.15576 -2.5259,-0.99118 -3.2643,-1.99072 l -1.2722,-1.72222 2.2682,0.56755 c 5.6933,1.4247 11.139,-0.1387 14.8212,-4.25552 1.2743,-1.42453 3.0511,-1.90997 3.0511,-0.83344 0,0.57886 -2.0616,3.16102 -5.4269,6.79752 -1.8215,1.96809 -3.9768,2.27243 -10.1771,1.43683 z m -3.2851,-7.46514 c -2.2641,-1.4936 -2.3498,-1.44887 5.5803,-2.914 5.437,-1.00447 8.1426,-2.29749 9.582,-4.57926 1.1991,-1.90116 0.033,-1.93718 -3.9927,-0.12361 -2.1452,0.96657 -6.4404,2.19689 -9.5445,2.73416 -10.2511,1.77432 -10.5701,1.79013 -11.0471,0.54706 -0.6177,-1.60993 0.855,-2.30413 4.913,-2.31599 2.9052,-0.0108 17.8383,-3.35228 19.4675,-4.35909 0.2673,-0.16529 0.3174,-0.94448 0.1115,-1.73166 -0.3425,-1.31017 -0.1882,-1.39407 1.8252,-0.99136 3.8768,0.77532 4.3267,1.67722 2.0224,4.05448 -1.1113,1.14668 -2.0206,2.37591 -2.0206,2.73182 0,1.13751 -4.0372,5.59111 -5.9786,6.59496 -3.2268,1.66877 -8.6572,1.84412 -10.9184,0.35249 z m -14.8089,-3.98154 c -2.387,-3.02664 -1.982,-5.57565 1.4103,-8.87251 1.6414,-1.5952 3.1038,-3.7301 3.3627,-4.90939 0.4604,-2.09645 2.0704,-4.02204 2.7744,-3.31823 0.5077,0.50763 -1.5873,7.6087 -2.3913,8.10555 -0.8748,0.54068 -3.3302,6.20869 -3.3302,7.68756 0,0.66249 0.299,1.38913 0.664,1.61478 0.9373,0.57932 0.826,1.66716 -0.1659,1.62323 -0.4566,-0.0207 -1.5023,-0.88905 -2.324,-1.93099 z m 39.9799,-7.05111 c -0.8264,-2.61891 -1.5219,-3.28473 -4.7908,-4.58636 -3.1502,-1.25403 -6.8032,-4.60738 -6.8032,-6.24454 0,-1.24208 0.9938,-0.82365 2.9881,1.25771 1.0495,1.09566 2.5554,1.99207 3.3459,1.99207 3.7312,0 8.492,6.02356 6.4081,8.1077 -0.5527,0.55246 -0.8508,0.41582 -1.1481,-0.52658 z m -19.7308,-0.66717 c -0.7084,-0.70858 -5.4373,-1.74522 -7.6331,-1.67335 -2.5539,0.0835 -2.9117,-1.31745 -0.7273,-2.84735 1.0034,-0.70292 1.7835,-0.81332 2.6122,-0.36965 1.8899,1.0114 3.8233,0.73526 4.5657,-0.65189 0.8602,-1.60733 0.8932,-4.88397 0.057,-5.72092 -0.6442,-0.64516 -2.6901,-7.8259 -2.6901,-9.44158 0,-1.70839 1.1795,-0.15621 1.6052,2.11235 0.3367,1.79517 1.0557,2.64819 3.3788,4.00975 2.9925,1.75366 7.632,7.09324 7.632,8.78357 0,1.79813 -2.1047,4.09805 -4.7009,5.13675 -2.8703,1.14848 -3.5103,1.25187 -4.1,0.66232 z m 4.8169,-7.1131 c 0,-0.95678 -1.2974,-2.45685 -2.1248,-2.45685 -0.6417,0 -0.7111,2.25491 -0.089,2.87734 0.7603,0.76015 2.2134,0.48401 2.2134,-0.42049 z m -29.4193,-9.52153 c -0.7806,-0.78062 0.2626,-1.56736 2.0783,-1.56736 0.9881,0 2.9116,-0.59755 4.2745,-1.32795 1.3627,-0.73041 2.7914,-1.32805 3.175,-1.32805 1.0697,0 -1.4899,3.13686 -3.2138,3.9386 -1.6739,0.77864 -5.6413,0.95759 -6.314,0.28476 z m -4.7894,-4.36574 c -0.3537,-0.90818 1.7829,-5.16963 2.592,-5.16963 0.091,0 1.8524,-0.31189 3.915,-0.69313 3.0976,-0.57275 4.105,-0.50996 5.7877,0.36013 2.1502,1.11201 2.1308,2.32507 -0.038,2.32507 -0.7416,0 -1.2887,0.45346 -1.2887,1.06799 0,0.82608 0.4019,0.96702 1.7759,0.62216 1.5258,-0.38294 1.6596,-0.30551 0.9495,0.55012 -0.4545,0.54779 -2.4922,1.20391 -4.5283,1.45821 -3.3855,0.42301 -3.8023,0.32941 -4.8777,-1.09637 l -1.176,-1.55891 -1.3345,1.63652 c -1.1802,1.44734 -1.3855,1.50474 -1.7775,0.49784 z m 37.928,-1.74064 c -0.2604,-0.42112 0.6497,-1.03394 2.2454,-1.51202 1.4757,-0.44205 3.0149,-1.20372 3.4205,-1.69239 0.9568,-1.15306 3.2307,-1.14983 3.2307,0 0,0.49128 -0.5854,1.4229 -1.3011,2.07058 -1.5189,1.37476 -6.9452,2.18152 -7.5955,1.12934 z m -43.1159,-3.59499 c 0.5352,-2.81555 1.7478,-5.18346 3.4369,-6.71219 1.1256,-1.01849 2.5069,-1.23885 7.9956,-1.27532 7.4012,-0.0485 8.7081,0.49577 8.7081,3.63165 0,1.54328 -0.2449,1.88706 -1.162,1.63068 -0.6391,-0.17858 -3.7501,-0.52218 -6.9133,-0.76346 -6.5624,-0.50062 -7.7333,-0.10618 -9.8475,3.31428 -1.8041,2.91911 -2.7537,2.99358 -2.2178,0.17436 z m 41.3149,-1.03287 c -0.6732,-1.07823 -1.1143,-1.22339 -2.1059,-0.69268 -1.7533,0.93846 -2.1926,0.20562 -1.1002,-1.83558 0.9951,-1.85949 3.0404,-2.91274 5.656,-2.91274 0.8941,0 2.1743,-0.34252 2.8445,-0.76122 1.1978,-0.74793 3.5774,-0.45661 5.2629,0.64444 0.6324,0.41295 0.6833,1.01229 0.1956,2.29506 -0.8791,2.31259 -3.1356,3.69912 -6.8473,4.208 -2.6214,0.35923 -3.1744,0.22539 -3.9056,-0.94528 z m 9.7872,-2.58881 c -0.5473,-0.54742 -2.4095,0.32932 -2.4095,1.13428 0,0.49101 0.4246,0.48095 1.3848,-0.0332 0.7617,-0.40756 1.2228,-0.90333 1.0247,-1.10141 z m -62.1695,-29.29644 c 0,-0.30165 0.6723,-1.16061 1.494,-1.90907 3.4636,-3.15465 6.3813,-3.5676 10.79,-1.52666 l 2.656,1.22941 -3.6615,0.0485 c -2.0136,0.0269 -5.2962,0.64687 -7.2945,1.37727 -4.1936,1.53286 -3.984,1.49181 -3.984,0.77973 z m 25.8959,-3.72148 c -0.9129,-0.48679 -2.6998,-1.10868 -3.9709,-1.38203 -2.1565,-0.46371 -2.2459,-0.41861 -1.3372,0.67642 0.9063,1.09188 0.8133,1.14659 -1.3411,0.78861 -5.9088,-0.98193 -7.6267,-1.52747 -7.6267,-2.42235 0,-0.51832 0.9972,-1.20094 2.216,-1.51678 1.6358,-0.42382 2.1105,-0.8489 1.8133,-1.62332 -0.3466,-0.90324 0.057,-0.98813 2.9073,-0.61022 1.8205,0.24156 3.843,0.14939 4.4945,-0.20472 0.6516,-0.35393 2.0188,-0.81979 3.038,-1.0352 1.0193,-0.21541 1.674,-0.68163 1.4548,-1.03619 -0.2345,-0.37953 0.8049,-0.64453 2.5273,-0.64453 1.9724,0 3.4244,-0.43253 4.4568,-1.32796 0.8421,-0.73049 1.7629,-1.32804 2.046,-1.32804 0.2834,0 1.0076,-0.49245 1.6096,-1.09449 0.602,-0.60186 2.303,-1.31547 3.78,-1.5855 2.2099,-0.40415 2.9653,-0.24793 4.2649,0.88222 2.0441,1.77738 2.0093,2.59501 -0.089,2.0686 -1.3981,-0.35096 -1.595,-0.2296 -1.2188,0.75071 0.3868,1.00799 0.1843,1.10294 -1.4685,0.6881 -1.8511,-0.4646 -1.8777,-0.43756 -0.7731,0.78287 1.6838,1.86074 1.4148,2.26641 -1.18,1.77971 -2.091,-0.3922 -2.324,-0.28763 -2.324,1.04338 0,1.17506 -0.2864,1.4044 -1.3921,1.11524 -2.2789,-0.59594 -3.2988,0.13914 -2.8231,2.03447 0.3973,1.58289 0.3049,1.6579 -1.4987,1.21719 -5.725,-1.39919 -5.3887,-1.41464 -3.9736,0.18218 0.6978,0.78727 1.146,1.54193 0.996,1.67704 -0.9145,0.82338 -3.1633,0.88455 -4.5886,0.12459 z m 33.3696,-6.24292 c -5.2685,-2.25069 -5.6078,-3.78867 -0.7075,-3.20819 3.6419,0.43128 4.7627,1.16501 5.4914,3.59473 0.5492,1.83173 0.3765,1.81771 -4.7839,-0.38654 z" id="path7370-2" inkscape:connector-curvature="0" style="fill:#524100;fill-opacity:1"/>
</g></g>
</g>
</svg>