<?xml version="1.0" encoding="utf-8"?>
<!-- Created with Inkscape (http://www.inkscape.org/) --><svg height="152.42821mm" id="svg6779" inkscape:version="0.92.2 (unknown)" sodipodi:docname="niveau4.svg" version="1.1" viewBox="0 0 338.49999 540.09995" width="95.532219mm" xmlns="http://www.w3.org/2000/svg" xmlns:cc="http://creativecommons.org/ns#" xmlns:dc="http://purl.org/dc/elements/1.1/" xmlns:inkscape="http://www.inkscape.org/namespaces/inkscape" xmlns:rdf="http://www.w3.org/1999/02/22-rdf-syntax-ns#" xmlns:sodipodi="http://sodipodi.sourceforge.net/DTD/sodipodi-0.dtd" xmlns:svg="http://www.w3.org/2000/svg">
<defs id="defs6781"/>
<sodipodi:namedview bordercolor="#666666" borderopacity="1.0" id="base" inkscape:current-layer="layer1" inkscape:cx="162.31259" inkscape:cy="62.808588" inkscape:document-units="px" inkscape:pageopacity="0.0" inkscape:pageshadow="2" inkscape:window-height="728" inkscape:window-maximized="1" inkscape:window-width="1366" inkscape:window-x="0" inkscape:window-y="21" inkscape:zoom="1.979899" pagecolor="#ffffff" showgrid="false"/>
<metadata id="metadata6784">
<rdf:RDF>
<cc:Work rdf:about="">
<dc:format>image/svg+xml</dc:format>
<dc:type rdf:resource="http://purl.org/dc/dcmitype/StillImage"/>
<dc:title/>
</cc:Work>
</rdf:RDF>
</metadata>
<g id="layer1" inkscape:groupmode="layer" inkscape:label="Calque 1" transform="translate(0,0.23029041)">
<rect height="539.09998" id="rect4326-0-3-6-4-3-2-61-6-9-9-5-0-7-0-5-8-8-9-4-5-5" inkscape:export-xdpi="90" inkscape:export-ydpi="90" style="fill:#ffffff;fill-opacity:1;stroke:#000000;stroke-opacity:1" width="337.5" x="0.5" y="0.26970959"/>
<rect height="486.97104" id="rect2985-3-0-7-7-6-9-6-2-0-3-5-4-5-0-77-3-1-3-5-5-4-3-9-7-0-1-8-1" inkscape:export-filename="/home/thomas/Documents/fallacies/png/rect2985-3-0-7-7.png" inkscape:export-xdpi="90" inkscape:export-ydpi="90" rx="9.2935619" ry="7.1613393" style="fill:#ffffff;fill-opacity:1;stroke:#face00;stroke-width:12;stroke-miterlimit:4;stroke-dasharray:none;stroke-dashoffset:0;stroke-opacity:1" width="285.0025" x="26.906189" y="26.612749"/>
<ellipse cx="169.40732" cy="279.7749" id="oval" inkscape:label="#path6246-7-6-6-9-7-6-9-3-1-1-722-4-6-4-7-1-9-6-2-0-7-5-4-6-9-9" rx="131.36859" ry="205.59465" style="fill:#face00;fill-opacity:1;stroke:#face00;stroke-width:1.01065052;stroke-opacity:1"/>
<rect height="15" id="sfam_1_active" inkscape:label="#rect13148-3-0-9-3-80-7-76" style="fill:#ffffff;fill-opacity:1;stroke:none;stroke-width:5.83799982;stroke-linecap:round;stroke-linejoin:bevel;stroke-miterlimit:4;stroke-dasharray:none;stroke-dashoffset:0;stroke-opacity:1;display:none;" transform="rotate(90)" width="65.714287" x="424.42206" y="-34.320938"/>
<rect height="15" id="sfam_2_active" inkscape:label="#rect13148-3-0-9-3-80-7-76" style="fill:#ffffff;fill-opacity:1;stroke:none;stroke-width:5.83799982;stroke-linecap:round;stroke-linejoin:bevel;stroke-miterlimit:4;stroke-dasharray:none;stroke-dashoffset:0;stroke-opacity:1" transform="rotate(90)" width="65.714287" x="216.29706" y="-34.320938"/>
<rect height="15" id="sfam_3_active" inkscape:label="#rect13148-3-0-9-3-80-7-76" style="fill:#ffffff;fill-opacity:1;stroke:none;stroke-width:5.83799982;stroke-linecap:round;stroke-linejoin:bevel;stroke-miterlimit:4;stroke-dasharray:none;stroke-dashoffset:0;stroke-opacity:1;display:none;" transform="rotate(90)" width="65.714287" x="49.422073" y="-34.320938"/>
<text id="sfam_3" inkscape:label="#text4212-1-29-1-2-8-9-0-9-6-9-8-3-1-0-6-8-0-4-2-3-6-9-3-6-2-6-4-2" style="font-style:normal;font-variant:normal;font-weight:bold;font-stretch:normal;font-size:11.24999994px;line-height:0%;font-family:stix;-inkscape-font-specification:'stix, bold';font-variant-ligatures:normal;font-variant-caps:normal;font-variant-numeric:normal;font-feature-settings:normal;text-align:end;letter-spacing:0px;word-spacing:0px;writing-mode:lr;text-anchor:end;fill:#FFFFFF;fill-opacity:1;stroke:none;" transform="rotate(-90)" x="-51.643555" xml:space="preserve" y="31.116638"><tspan id="tspan4214-27-1-2-9-7-6-4-1-1-1-3-9-59-96-1-6-2-1-8-8-2-7-4-5-4-7-3-9" sodipodi:role="line" style="font-style:normal;font-variant:normal;font-weight:bold;font-stretch:normal;font-size:11.24999994px;line-height:0%;font-family:stix;-inkscape-font-specification:'stix, bold';font-variant-ligatures:normal;font-variant-caps:normal;font-variant-numeric:normal;font-feature-settings:normal;text-align:end;letter-spacing:0px;word-spacing:0px;writing-mode:lr;text-anchor:end;fill:#FFFFFF;fill-opacity:1;stroke:none;" x="-51.643555" y="31.116638">Manipulation
mentale</tspan></text>
<rect height="17.763229" id="rect5818-6-6-9-3-0-7" style="fill:#face00;fill-opacity:1;stroke:none;stroke-width:0.91443771;stroke-linecap:round;stroke-linejoin:bevel;stroke-miterlimit:4;stroke-dasharray:none;stroke-dashoffset:0;stroke-opacity:1" width="278.215" x="30.299866" y="495.76239"/>
<text id="fam_num" inkscape:label="#text5665-3-4-9-4-3-3-5-7-5-8-4-6-8-6-6-3-0-6-3-4" style="font-style:normal;font-weight:normal;line-height:0%;font-family:sans-serif;letter-spacing:0px;word-spacing:0px;fill:#000000;fill-opacity:1;stroke:none" x="40.722107" xml:space="preserve" y="513.8327"><tspan id="tspan5667-04-4-6-18-8-8-0-0-1-5-7-0-9-2-1-9-1-5-0-3" sodipodi:role="line" style="font-style:normal;font-variant:normal;font-weight:bold;font-stretch:normal;font-size:17.5px;line-height:1.25;font-family:STIX;-inkscape-font-specification:'STIX Bold';fill:#ffffff" x="40.722107" y="513.8327">2</tspan></text>
<text id="sfam_2" inkscape:label="#text4212-1-29-1-2-8-9-0-9-6-9-15-4-9-9-24-4-6-7-5-4-2-6-9-5" style="font-style:normal;font-variant:normal;font-weight:bold;font-stretch:normal;font-size:11.25px;line-height:0%;font-family:stix;-inkscape-font-specification:'stix, bold';font-variant-ligatures:normal;font-variant-caps:normal;font-variant-numeric:normal;font-feature-settings:normal;text-align:start;letter-spacing:0px;word-spacing:0px;writing-mode:lr-tb;text-anchor:start;fill:#1b0603;fill-opacity:1;stroke:none" transform="rotate(-90)" x="-271.55652" xml:space="preserve" y="29.420349"><tspan id="tspan4214-27-1-2-9-7-6-4-1-1-1-9-8-7-7-0-88-0-1-6-8-0-3-2-6" sodipodi:role="line" style="font-style:normal;font-variant:normal;font-weight:bold;font-stretch:normal;font-size:11.25px;line-height:0%;font-family:stix;-inkscape-font-specification:'stix, bold';font-variant-ligatures:normal;font-variant-caps:normal;font-variant-numeric:normal;font-feature-settings:normal;text-align:start;letter-spacing:0px;word-spacing:0px;writing-mode:lr-tb;text-anchor:start;fill:#1b0603;fill-opacity:1;stroke:none" x="-271.55652" y="29.420349">Appel à l'émotion</tspan></text>
<text id="sfam_1" inkscape:label="#text4212-1-29-1-2-8-9-0-9-6-9-17-4-1-5-6-8-7-5-1-12-0-9-54-1" style="font-style:normal;font-variant:normal;font-weight:bold;font-stretch:normal;font-size:11.25px;line-height:0%;font-family:stix;-inkscape-font-specification:'stix, bold';font-variant-ligatures:normal;font-variant-caps:normal;font-variant-numeric:normal;font-feature-settings:normal;text-align:start;letter-spacing:0px;word-spacing:0px;writing-mode:lr-tb;text-anchor:start;fill:#FFFFFF;fill-opacity:1;stroke:none" transform="rotate(-90)" x="-486.01733" xml:space="preserve" y="29.420349"><tspan id="tspan4214-27-1-2-9-7-6-4-1-1-1-85-8-3-3-2-9-0-8-7-9-6-4-0-4" sodipodi:role="line" style="font-style:normal;font-variant:normal;font-weight:bold;font-stretch:normal;font-size:11.25px;line-height:0%;font-family:stix;-inkscape-font-specification:'stix, bold';font-variant-ligatures:normal;font-variant-caps:normal;font-variant-numeric:normal;font-feature-settings:normal;text-align:start;letter-spacing:0px;word-spacing:0px;writing-mode:lr-tb;text-anchor:start;fill:#FFFFFF;fill-opacity:1;stroke:none" x="-486.01733" y="29.420349">Procédé
rhétorique</tspan></text>
<rect height="15" id="ssfam_1_active" inkscape:label="#rect13148-3-0-9-3-80-7-7-3-3" style="fill:#ffffff;fill-opacity:1;stroke:none;stroke-width:5.83799982;stroke-linecap:round;stroke-linejoin:bevel;stroke-miterlimit:4;stroke-dasharray:none;stroke-dashoffset:0;stroke-opacity:1" transform="rotate(90)" width="124.30313" x="361.88724" y="-319.71991"/>
<rect height="15" id="ssfam_2_active" inkscape:label="#rect13148-3-0-9-3-80-7-7-3-3" style="fill:#ffffff;fill-opacity:1;stroke:none;stroke-width:5.83799982;stroke-linecap:round;stroke-linejoin:bevel;stroke-miterlimit:4;stroke-dasharray:none;stroke-dashoffset:0;stroke-opacity:1;display:none;" transform="rotate(90)" width="124.30313" x="210.01224" y="-319.71991"/>
<rect height="15" id="ssfam_3_active" inkscape:label="#rect13148-3-0-9-3-80-7-7-3-3" inkscape:transform-center-x="27.937032" inkscape:transform-center-y="5.2085991" style="fill:#ffffff;fill-opacity:1;stroke:none;stroke-width:5.83799982;stroke-linecap:round;stroke-linejoin:bevel;stroke-miterlimit:4;stroke-dasharray:none;stroke-dashoffset:0;stroke-opacity:1;display:none;" transform="rotate(90)" width="124.30313" x="44.250797" y="-319.67227"/>
<text id="ssfam_3" inkscape:label="#text4212-1-29-1-2-8-9-0-9-6-9-8-3-1-0-6-92-3-6-9-3-6-2-3-39-8-5-0" style="font-style:normal;font-variant:normal;font-weight:bold;font-stretch:normal;font-size:11.25px;line-height:0%;font-family:stix;-inkscape-font-specification:'stix, bold';font-variant-ligatures:normal;font-variant-caps:normal;font-variant-numeric:normal;font-feature-settings:normal;text-align:start;letter-spacing:0px;word-spacing:0px;writing-mode:lr-tb;text-anchor:start;fill:#FFFFFF;fill-opacity:1;stroke:none" transform="rotate(90)" x="45.746761" xml:space="preserve" y="-309.22137"><tspan id="tspan4214-27-1-2-9-7-6-4-1-1-1-3-9-59-96-1-318-6-04-1-7-5-8-9-0-1-9-3" sodipodi:role="line" style="font-style:normal;font-variant:normal;font-weight:bold;font-stretch:normal;font-size:11.25px;line-height:0%;font-family:stix;-inkscape-font-specification:'stix, bold';font-variant-ligatures:normal;font-variant-caps:normal;font-variant-numeric:normal;font-feature-settings:normal;text-align:start;letter-spacing:0px;word-spacing:0px;writing-mode:lr-tb;text-anchor:start;fill:#FFFFFF;fill-opacity:1;stroke:none" x="45.746761" y="-309.22137">Appel
aux conséquences</tspan></text>
<text id="ssfam_2" inkscape:label="#text4212-1-29-1-2-8-9-0-9-6-9-15-7-7-8-9-7-6-1-0-8-29-4-1" style="font-style:normal;font-variant:normal;font-weight:bold;font-stretch:normal;line-height:0%;font-family:stix;-inkscape-font-specification:'stix, bold';letter-spacing:0px;word-spacing:0px;fill:#FFFFFF;fill-opacity:1;stroke:none;font-size:11.24999994px;text-anchor:start;text-align:start;writing-mode:lr;font-variant-ligatures:normal;font-variant-caps:normal;font-variant-numeric:normal;font-feature-settings:normal;" transform="rotate(90)" x="220.50974" xml:space="preserve" y="-309.22137"><tspan id="tspan4214-27-1-2-9-7-6-4-1-1-1-9-41-5-8-6-2-8-2-8-38-3-6-2" sodipodi:role="line" style="font-style:normal;font-variant:normal;font-weight:bold;font-stretch:normal;line-height:0%;font-family:stix;-inkscape-font-specification:'stix, bold';letter-spacing:0px;word-spacing:0px;fill:#FFFFFF;fill-opacity:1;stroke:none;font-size:11.24999994px;text-anchor:start;text-align:start;writing-mode:lr;font-variant-ligatures:normal;font-variant-caps:normal;font-variant-numeric:normal;font-feature-settings:normal;" x="220.50974" y="-309.22137">Repoussoir</tspan></text>
<text id="ssfam_1" inkscape:label="#text4212-1-29-1-2-8-9-0-9-6-9-17-63-3-97-3-6-4-4-8-73-9-92-7" style="font-style:normal;font-variant:normal;font-weight:bold;font-stretch:normal;font-size:11.25px;line-height:0%;font-family:stix;-inkscape-font-specification:'stix, bold';font-variant-ligatures:normal;font-variant-caps:normal;font-variant-numeric:normal;font-feature-settings:normal;text-align:end;letter-spacing:0px;word-spacing:0px;writing-mode:lr-tb;text-anchor:end;fill:#1b0603;fill-opacity:1;stroke:none" transform="rotate(90)" x="480.93921" xml:space="preserve" y="-308.55173"><tspan id="tspan4214-27-1-2-9-7-6-4-1-1-1-85-85-5-76-3-4-8-7-5-1-0-2-9" sodipodi:role="line" style="font-style:normal;font-variant:normal;font-weight:bold;font-stretch:normal;font-size:11.25px;line-height:0%;font-family:stix;-inkscape-font-specification:'stix, bold';font-variant-ligatures:normal;font-variant-caps:normal;font-variant-numeric:normal;font-feature-settings:normal;text-align:end;letter-spacing:0px;word-spacing:0px;writing-mode:lr-tb;text-anchor:end;fill:#1b0603;fill-opacity:1;stroke:none" x="480.93921" y="-308.55173">Connivence</tspan></text>
<rect height="23.57143" id="rect13148-3-36-1-5-8-4-8" rx="8.7534218" ry="9.7777777" style="fill:#ffffff;fill-opacity:1;stroke:none;stroke-width:5.83799982;stroke-linecap:round;stroke-linejoin:bevel;stroke-miterlimit:4;stroke-dasharray:none;stroke-dashoffset:0;stroke-opacity:1" width="103.16534" x="118.54767" y="18.612719"/>
<text id="text" inkscape:label="#text5516-78-3-4-89-9-1-3-6-2-4-3-9-5-3-7-7-2-6-1-6-5-0-5-7-1" style="font-style:normal;font-variant:normal;font-weight:bold;font-stretch:normal;line-height:0%;font-family:STIX;-inkscape-font-specification:'STIX Bold';text-align:center;letter-spacing:0px;word-spacing:0px;writing-mode:lr-tb;text-anchor:middle;fill:#490f07;fill-opacity:1;stroke:none" x="169.24466" xml:space="preserve" y="39.097687"><tspan id="tspan9035" sodipodi:role="line" style="font-style:normal;font-variant:normal;font-weight:bold;font-stretch:normal;font-size:25px;line-height:100%;font-family:STIX;-inkscape-font-specification:'STIX Bold';text-align:center;writing-mode:lr-tb;text-anchor:middle;fill:#490f07;fill-opacity:1" x="169.24466" y="39.097687">Flatterie</tspan><tspan id="tspan5336" sodipodi:role="line" style="font-style:normal;font-variant:normal;font-weight:bold;font-stretch:normal;font-size:25px;line-height:100%;font-family:STIX;-inkscape-font-specification:'STIX Bold';text-align:center;writing-mode:lr-tb;text-anchor:middle;fill:#490f07;fill-opacity:1" x="169.24466" y="64.097687"/></text>
<rect height="26.428572" id="rect13148-3-3-2-4-1-4-5-6" rx="8.4705887" ry="15" style="fill:#ffffff;fill-opacity:1;stroke:none;stroke-width:5.83799982;stroke-linecap:round;stroke-linejoin:bevel;stroke-miterlimit:4;stroke-dasharray:none;stroke-dashoffset:0;stroke-opacity:1" width="68.571434" x="135.12161" y="494.59808"/>
<text id="fam_text" inkscape:label="#text4212-1-29-1-2-8-9-0-9-67-9-6-3-5-23-0-1-7-3-2-3-4-7-8-8-8-4-0" style="font-style:normal;font-variant:normal;font-weight:bold;font-stretch:normal;font-size:15px;line-height:0%;font-family:STIX;-inkscape-font-specification:'STIX, Bold';font-variant-ligatures:normal;font-variant-caps:normal;font-variant-numeric:normal;font-feature-settings:normal;text-align:center;letter-spacing:0px;word-spacing:0px;writing-mode:lr-tb;text-anchor:middle;fill:#1b0603;fill-opacity:1;stroke:none" x="164.26151" xml:space="preserve" y="513.46771"><tspan id="tspan4214-27-1-2-9-7-6-4-1-5-2-3-65-0-7-6-31-5-8-5-4-6-0-1-0-5-8-1" sodipodi:role="line" style="font-style:normal;font-variant:normal;font-weight:bold;font-stretch:normal;font-size:15px;line-height:1.25;font-family:STIX;-inkscape-font-specification:'STIX, Bold';font-variant-ligatures:normal;font-variant-caps:normal;font-variant-numeric:normal;font-feature-settings:normal;text-align:center;writing-mode:lr-tb;text-anchor:middle;fill:#1b0603;fill-opacity:1" x="164.26151" y="513.46771">Influence</tspan></text>
<flowRoot id="desc" inkscape:label="#flowRoot5388-1-9-2-7-9-4-63-8-65-6-8-7-2-3-5-4-9-17-61-1-0" style="font-style:normal;font-variant:normal;font-weight:bold;font-stretch:normal;line-height:0.01%;font-family:STIX;-inkscape-font-specification:'STIX Bold';text-align:center;letter-spacing:0px;word-spacing:0px;text-anchor:middle;fill:#1b0603;fill-opacity:1;stroke:none" transform="translate(161.20564,945.16255)" xml:space="preserve"><flowRegion id="flowRegion5390-2-2-5-6-3-9-94-3-6-8-8-5-1-8-5-4-6-9-15-2-2"><rect height="77.283951" id="rect5392-7-0-4-8-6-2-8-5-84-3-3-4-2-2-3-3-0-1-9-8-5" style="font-style:normal;font-variant:normal;font-weight:bold;font-stretch:normal;font-size:15px;line-height:100%;font-family:stix;-inkscape-font-specification:'stix bold';text-align:center;text-anchor:middle;fill:#face00;fill-opacity:1" width="264.06375" x="-123.22692" y="-557.27393"/></flowRegion><flowPara id="flowPara5394-0-2-4-9-0-06-12-6-8-2-1-8-0-3-8-0-7-0-8-9-1" style="font-style:normal;font-variant:normal;font-weight:bold;font-stretch:normal;font-size:15px;line-height:100%;font-family:STIX;-inkscape-font-specification:'STIX Bold';text-align:center;text-anchor:middle;fill:#1b0603;fill-opacity:1">Vous faites l'éloge de votre auditoire afin de le rallier à votre cause.</flowPara></flowRoot> <flowRoot id="example" inkscape:label="#flowRoot5388-1-9-2-7-9-4-63-8-92-2-3-8-9-5-4-5-19-0-3-48-36-9" style="font-style:normal;font-variant:normal;font-weight:bold;font-stretch:normal;line-height:0.01%;font-family:STIX;-inkscape-font-specification:'STIX Bold';text-align:center;letter-spacing:0px;word-spacing:0px;text-anchor:middle;fill:#1b0603;fill-opacity:1;stroke:none" transform="translate(158.93154,1003.4804)" xml:space="preserve"><flowRegion id="flowRegion5390-2-2-5-6-3-9-94-3-17-8-6-9-1-6-0-9-6-1-59-1-8-7"><rect height="48.063705" id="rect5392-7-0-4-8-6-2-8-5-7-1-2-6-5-5-9-91-21-0-4-0-0-1" style="font-style:normal;font-variant:normal;font-weight:bold;font-stretch:normal;font-size:15px;line-height:100%;font-family:stix;-inkscape-font-specification:'stix bold';text-align:center;text-anchor:middle;fill:#face00;fill-opacity:1;stroke-width:0.57831079" width="267.68024" x="-123.22692" y="-557.27393"/></flowRegion><flowPara id="flowPara5394-0-2-4-9-0-06-12-6-9-2-2-4-4-0-4-4-2-1-8-30-2-3" style="font-style:italic;font-variant:normal;font-weight:bold;font-stretch:normal;font-size:12.5px;line-height:100%;font-family:STIX;-inkscape-font-specification:'STIX Bold Italic';text-align:center;text-anchor:middle;fill:#1b0603;fill-opacity:1">Une femme aussi intelligente que vous ne peut qu'accepter cette proposition exceptionnelle !</flowPara></flowRoot> <g id="illustration" inkscape:groupmode="layer" inkscape:label="#illustration" transform="translate(-6.802157,-67.336793)"><g id="287" inkscape:label="#g5896-9" transform="translate(279.11104,19.792149)">
<path d="m -81.199986,223.67437 c -13.068802,-27.67662 -38.254484,-65.61503 -65.637024,-27.71694 -29.28708,24.35217 -53.81206,54.38382 -74.68791,85.97609 -9.55932,40.50982 46.90148,29.8229 66.45069,45.93138 -7.46434,17.20642 -39.85219,51.29569 -3.77574,63.69692 33.98268,8.60221 57.38924,-29.04896 90.077166,-22.7546 21.567388,-13.5264 43.920249,-56.90753 68.01715113,-26.38163 C 32.505901,343.6714 32.995391,273.04789 -2.4822529,287.87708 -40.979064,310.55354 -19.912385,249.75403 -43.418383,236.0233 c -26.145661,-5.4964 -57.006457,17.7867 -78.057997,34.03481 -20.03283,33.61428 -29.18668,-26.34417 2.29317,-18.53809 18.43094,0.65807 24.33827,-19.82909 37.983224,-27.84565 z" id="path7473-7" inkscape:connector-curvature="0" style="fill:#ffffff;fill-opacity:1;fill-rule:evenodd;stroke:none;stroke-width:1px;stroke-linecap:butt;stroke-linejoin:miter;stroke-opacity:1"/>
<path d="m -182.77811,275.82206 c -1.49326,-0.63873 0.50132,-2.80063 -0.45301,-3.98573 -0.21942,-2.39562 -0.11499,-4.9117 1.30724,-6.95547 1.50856,-1.81733 3.89178,-0.88486 5.72847,-1.89036 2.903,0.48246 1.07717,4.80182 3.94891,5.28644 1.11449,1.97153 0.35666,4.86721 2.46101,6.204 1.84245,1.14356 4.1896,4.98255 2.52435,6.33798 -2.39297,-0.74714 -5.01595,-0.91287 -7.44744,-1.41718 -2.39143,-0.15645 -4.45409,-1.71239 -6.82877,-1.96953 -0.59987,-0.35488 -1.02569,-0.9545 -1.24076,-1.61015 z" id="path7480-5" inkscape:connector-curvature="0" style="fill:#f1d667;fill-opacity:1;fill-rule:evenodd;stroke:none;stroke-width:1px;stroke-linecap:butt;stroke-linejoin:miter;stroke-opacity:1"/>
<path d="m -160.7266,400.10646 c -4.12203,-0.34673 -6.38262,-0.85009 -10.47183,-2.33136 l -2.64168,-0.95701 -2.4089,-5.10701 c -2.4557,-5.20621 -2.56857,-5.93627 -1.21924,-7.88664 0.49083,-0.70941 0.47577,-1.06646 -0.0912,-2.16285 -0.37348,-0.72225 -0.87062,-2.50272 -1.10477,-3.9565 -0.92358,-5.73498 1.23144,-11.8317 6.11662,-17.30442 1.37296,-1.53808 2.39736,-2.79647 2.27646,-2.79647 -0.31559,0 -54.5009,-12.50859 -55.47502,-12.80623 -0.75415,-0.23051 -0.74551,-0.11751 0.12096,1.58092 0.51324,1.00602 0.801,1.82913 0.63945,1.82913 -0.27569,0 -9.64525,-5.66604 -11.56926,-6.99623 -0.76236,-0.52712 0.0565,-0.6102 6.01226,-0.6102 h 6.89484 l -1.28155,1.33765 c -0.70486,0.73569 -1.19555,1.40929 -1.09045,1.49679 0.25343,0.21118 58.67623,13.72839 59.25289,13.7094 0.24609,-0.009 -6.90173,-3.04433 -15.88405,-6.74716 -64.94367,-26.77181 -64.07565,-26.40895 -63.80896,-26.67563 0.10765,-0.10772 13.48693,3.34405 29.73174,7.67043 16.24481,4.32648 29.75649,7.86618 30.02597,7.86618 0.28445,0 0.10698,-0.75061 -0.42312,-1.78976 -0.50219,-0.98433 -0.81018,-1.78975 -0.68444,-1.78975 0.21066,0 11.85904,7.05434 12.28054,7.43714 0.10253,0.0931 -2.90501,0.16929 -6.68342,0.16929 h -6.86986 l 1.25572,-1.31059 1.25571,-1.31077 -1.7313,-0.45167 c -0.95221,-0.24838 -10.56152,-2.79178 -21.35402,-5.65181 -10.79249,-2.86012 -19.70312,-5.11984 -19.8014,-5.02149 -0.16281,0.16278 12.42636,5.39554 60.13955,24.99732 9.17867,3.77082 16.52784,6.90673 16.33148,6.96865 -0.19635,0.0616 -3.27452,-0.57629 -6.84037,-1.41822 l -6.48335,-1.53097 -1.4778,1.12726 c -3.6173,2.759 -6.82326,8.21932 -7.73676,13.17707 -0.45137,2.44974 -0.42306,3.27666 0.18369,5.3638 0.80241,2.76021 2.4913,5.18748 4.63923,6.66763 2.10773,1.45239 6.30073,3.0275 8.85703,3.32722 l 2.23719,0.26217 -2.4102,-0.89058 c -3.829,-1.41484 -7.03866,-4.33125 -7.8884,-7.1676 -0.3248,-1.08424 -0.30809,-1.09448 0.5426,-0.33563 3.06788,2.73688 6.23777,-2.71 4.39112,-7.54538 -0.90133,-2.36006 -2.27047,-3.23278 -3.79333,-2.41773 -0.91933,0.49199 -0.97029,0.45349 -0.6799,-0.51324 0.17266,-0.57482 0.73,-1.95124 1.23853,-3.05864 0.83714,-1.82297 0.94142,-1.90761 1.10238,-0.89483 0.44862,2.82265 3.6731,3.04242 6.90344,0.4704 3.24169,-2.58113 5.28091,-2.78025 8.69374,-0.84896 2.24644,1.27122 3.03746,1.48344 5.32315,1.42846 5.27392,-0.12697 11.17926,-3.33408 16.88109,-9.16793 1.90187,-1.94586 3.67513,-3.94384 3.94057,-4.43982 0.42103,-0.78669 0.17963,-0.73231 -1.89193,0.42643 -3.6445,2.03848 -7.55717,3.18265 -10.88395,3.18265 -3.67057,0 -5.02379,-0.67819 -7.08887,-3.55262 -0.94608,-1.31693 -2.08659,-2.36214 -2.76255,-2.53178 -1.27174,-0.31915 -4.85112,-0.0321 -6.24824,0.50075 -0.5385,0.20546 -0.002,-0.6193 1.34669,-2.07109 1.23286,-1.32698 3.04499,-3.30285 4.02694,-4.39091 l 1.78538,-1.97821 -1.56603,1.21346 c -0.86132,0.66736 -3.78085,2.91693 -6.48785,4.99895 -2.707,2.0821 -5.66425,4.41441 -6.57167,5.18289 -1.29376,1.09577 -1.90417,1.33349 -2.82827,1.10158 -0.64812,-0.16269 -1.11378,-0.45591 -1.03477,-0.65174 0.079,-0.19574 2.5598,-2.38113 5.51289,-4.85645 7.03762,-5.8989 11.88891,-12.20471 9.38962,-12.20471 -0.37276,0 -1.07672,-0.65434 -1.56436,-1.45412 l -0.88663,-1.45421 -0.002,1.90162 c -8.7e-4,1.04591 -0.18216,1.90163 -0.40276,1.90163 -0.4388,0 -3.1783,-2.98144 -3.1783,-3.45913 0,-0.16278 0.73148,0.39799 1.62551,1.24599 l 1.62552,1.54198 -0.28018,-1.56601 c -0.15409,-0.86135 -0.4107,-2.14602 -0.57024,-2.85491 -0.45455,-2.01967 0.77378,-1.2603 1.95756,1.21034 0.55132,1.15059 1.22495,2.09199 1.49696,2.09199 0.27202,0 1.07936,0.41637 1.7941,0.92536 1.26737,0.90247 1.29952,0.90385 1.29952,0.0564 0,-0.47794 -0.30065,-1.72124 -0.66811,-2.76272 -0.62848,-1.78126 -0.58098,-2.69326 0.14031,-2.69326 0.17284,0 1.52006,1.83571 2.9938,4.0793 l 2.67954,4.07931 0.13624,-2.06268 0.13625,-2.06268 2.16651,2.29545 2.1665,2.29545 -0.36935,-1.96303 c -0.20315,-1.07965 -0.50587,-2.3154 -0.67273,-2.74599 -0.53896,-1.39108 0.053,-0.83837 1.76617,1.64917 0.92131,1.33766 2.16287,2.7518 2.759,3.14241 1.02993,0.67482 1.08389,0.66267 1.08389,-0.24291 0,-0.69363 0.19677,-0.87758 0.72282,-0.67568 0.62505,0.23988 0.68178,0 0.41942,-1.74587 -0.38283,-2.55294 -2.19665,-7.92064 -3.38842,-10.02746 l -0.90943,-1.60772 1.08885,1.20713 c 1.07339,1.19005 3.85651,7.73513 3.85651,9.06949 0,0.37709 0.27745,0.68557 0.61658,0.68557 0.33912,0 0.90537,0.43501 1.25834,0.96655 0.6375,0.96014 0.64571,0.95702 1.2358,-0.46753 0.46557,-1.12405 0.48011,-1.68421 0.0672,-2.59049 -0.70643,-1.5504 -0.27107,-1.85558 0.97595,-0.68401 1.00656,0.94557 1.02465,0.94644 1.56807,0.0763 0.30237,-0.48419 0.85007,-0.88035 1.21712,-0.88035 1.01237,0 0.82994,-0.52217 -1.14701,-3.28291 -1.97447,-2.75735 -1.50881,-3.49894 0.72393,-1.15293 0.72279,0.75946 1.673,1.57537 2.11159,1.81317 0.69733,0.37813 0.76042,0.28498 0.5026,-0.74228 -0.2155,-0.85867 -0.12911,-1.15163 0.32117,-1.08901 2.3262,0.3234 2.24814,-0.40458 -0.34011,-3.17164 -2.33338,-2.49457 -2.07469,-3.08647 0.28495,-0.652 1.63729,1.68924 3.26226,2.10786 3.03982,0.78304 -0.0992,-0.5906 0.22575,-0.81747 1.32269,-0.92319 1.43619,-0.1385 1.87669,-0.66449 1.00674,-1.2021 -0.98532,-0.60899 -0.44589,-1.44164 0.78189,-1.20696 l 1.22932,0.23503 -1.45304,-1.65499 c -2.69001,-3.06375 -1.35567,-4.10142 1.80028,-1.40001 2.08116,1.78135 2.94538,2.03892 1.91757,0.57161 -0.98515,-1.4066 -0.8727,-1.74257 0.53394,-1.59531 0.96753,0.10129 1.20176,-0.0408 1.09617,-0.6664 -0.0902,-0.53423 0.329,-0.98997 1.27732,-1.38874 l 1.41158,-0.59355 -1.57921,-0.97592 c -2.20689,-1.36402 -6.46041,-6.06775 -7.59073,-8.39425 -0.89225,-1.83658 -1.66228,-2.52076 -1.66228,-1.47693 0,0.52512 1.17928,2.95786 1.95556,4.03412 0.27795,0.38532 -0.14903,0 -0.94884,-0.85754 -1.92355,-2.06112 -2.25715,-1.61153 -0.46696,0.62928 l 1.4099,1.76486 -1.64599,-1.54197 c -2.79202,-2.61556 -1.8622,-0.49564 1.1505,2.62292 2.82559,2.92499 2.42135,2.97486 -0.67115,0.0833 -1.53087,-1.43167 -2.43515,-1.48743 -1.1186,-0.0694 0.44222,0.47638 0.44272,0.53674 0.002,0.28827 -0.30628,-0.17284 -0.77941,-0.73005 -1.05137,-1.23826 -0.38565,-0.72061 -0.37097,-0.84757 0.0667,-0.57707 0.37434,0.23138 0.44891,0.16512 0.22394,-0.19887 -0.4557,-0.73734 -2.16229,0.78097 -1.83537,1.63296 0.12891,0.33589 0.0441,0.49312 -0.18828,0.3495 -0.60604,-0.37457 -1.95058,1.84821 -1.5389,2.54409 0.18838,0.31846 1.04015,1.48509 1.89284,2.59249 l 1.55032,2.01342 -2.27667,-2.28947 c -1.75399,-1.76391 -2.3379,-2.13006 -2.54335,-1.59462 -0.17827,0.4645 0.81461,1.80805 2.99517,4.05286 3.72729,3.83708 2.85718,3.45826 -1.3244,-0.57656 -2.88442,-2.78328 -3.92551,-2.65692 -1.34231,0.16279 l 1.45417,1.58733 -1.67788,-1.54197 c -1.55492,-1.42889 -2.3875,-1.44624 -1.11861,-0.0234 0.47777,0.53579 0.44219,0.53839 -0.24408,0.0182 -0.4638,-0.35184 -0.69112,-0.9101 -0.5378,-1.32074 0.14606,-0.39131 -0.38023,-0.0711 -1.16955,0.71089 l -1.43513,1.42221 1.63202,2.73966 c 1.91423,3.21344 1.39752,3.17554 -0.77953,-0.0572 l -1.50714,-2.23795 -0.72856,1.04018 c -0.40071,0.57204 -0.8757,1.04019 -1.05553,1.04019 -0.35458,0 -0.34558,0.42148 0.0498,2.33465 0.22793,1.1028 0.18026,1.07297 -0.41785,-0.26139 -0.79611,-1.77623 -1.31626,-1.64085 -0.63008,0.16391 0.64803,1.70442 0.25604,1.92201 -0.43914,0.2437 -0.30778,-0.74298 -0.71984,-1.25188 -0.9157,-1.13082 -0.19586,0.12099 0.23021,1.43037 0.94681,2.90973 1.842,3.80257 1.59745,4.3949 -0.32586,0.7892 l -1.60283,-3.00477 -2.07556,0.27136 c -1.14157,0.14925 -2.11272,0.29695 -2.15811,0.32817 -0.0454,0.0312 0.52691,1.32655 1.27178,2.8785 0.74488,1.55204 1.27145,2.9047 1.17015,3.006 -0.10129,0.10129 -1.04124,-1.27279 -2.08878,-3.05343 -1.04754,-1.78074 -1.78759,-2.73429 -1.64455,-2.11906 0.24831,1.06812 0.23744,1.07488 -0.24078,0.15073 -0.45795,-0.88503 -1.61322,-1.47138 -2.92963,-1.48699 -0.29654,0 -0.4348,0.42374 -0.32389,1.00072 l 0.19352,1.00671 -0.5275,-1.00671 c -0.29013,-0.55374 -0.71991,-1.00679 -0.95507,-1.00679 -0.3897,0 -0.31653,0.63067 0.3456,2.97867 0.12789,0.45349 -0.19841,-0.13182 -0.72512,-1.30079 -1.12194,-2.48998 -2.54384,-3.10651 -1.54784,-0.67109 1.22607,2.99776 1.12548,3.5874 -0.15264,0.89484 -0.80273,-1.69115 -1.60701,-2.79647 -2.03471,-2.79647 -0.53015,0 -0.64853,0.30814 -0.47266,1.23047 0.22691,1.19004 0.21326,1.18467 -0.41619,-0.16496 -0.50318,-1.07878 -1.08729,-1.50468 -2.57513,-1.8776 -2.75531,-0.69069 -4.83252,-1.02458 -4.83252,-0.77689 0,0.11743 0.4027,1.23514 0.89488,2.48382 1.4133,3.58558 1.04398,3.64169 -0.65369,0.0992 -1.80496,-3.76631 -2.43426,-4.27851 -1.08392,-0.88217 1.64979,4.14938 1.76534,4.48388 1.60455,4.64467 -0.087,0.087 -0.9291,-1.55421 -1.87146,-3.64689 -1.73879,-3.86146 -2.75415,-5.12817 -1.19499,-1.49073 0.46745,1.09049 0.9799,2.67947 1.13876,3.53094 0.18145,0.97263 -0.13819,0.46745 -0.85978,-1.35881 -0.63172,-1.59896 -1.32452,-3.08301 -1.53953,-3.29808 -0.43574,-0.43571 0.1482,2.4891 0.88259,4.42065 0.25874,0.68062 0.36414,1.34373 0.23421,1.47364 -0.12993,0.12992 -0.23933,-0.0494 -0.24309,-0.39763 -0.006,-0.52383 -0.0884,-0.51732 -0.47675,0.0373 -0.36234,0.51749 -0.40101,0.4279 -0.16893,-0.39165 0.2047,-0.72286 0.14253,-0.96482 -0.19442,-0.7566 -0.27244,0.16842 -0.49536,0.0477 -0.49536,-0.2672 0,-0.31542 -0.31425,-0.1248 -0.69833,0.42357 -0.80485,1.14911 -2.89939,2.33422 -4.12544,2.33422 -0.83585,0 -2.56196,-0.82988 -7.23637,-3.479 -1.34212,-0.76067 -2.60055,-1.28388 -2.79649,-1.16281 -0.19594,0.12115 -0.35625,0.0286 -0.35625,-0.2058 0,-0.23425 -0.28744,-0.53623 -0.63874,-0.67108 -0.50164,-0.19245 -0.5968,0.10936 -0.44337,1.40634 l 0.19535,1.65142 -0.71251,-1.90163 c -0.75242,-2.00813 -1.58334,-2.60037 -1.25551,-0.89483 0.17766,0.92415 0.14868,0.91495 -0.35353,-0.11188 -0.78501,-1.6052 -0.83689,-1.63729 -1.41452,-0.87367 -0.85134,1.12544 -2.66594,2.21592 -3.6872,2.21592 -0.52355,0 -1.79309,-0.60933 -2.82119,-1.35404 -1.02812,-0.7448 -3.27314,-2.03736 -4.98895,-2.87235 -2.62296,-1.27651 -3.12418,-1.3994 -3.14803,-0.77125 -0.021,0.55305 -0.12904,0.49746 -0.41608,-0.21395 -0.57769,-1.43175 -1.34241,-1.72332 -1.36281,-0.51957 -0.0151,0.89119 -0.10434,0.83334 -0.64957,-0.42106 -0.8441,-1.94204 -1.282,-1.84031 -0.96269,0.22376 0.25202,1.62905 0.23721,1.61734 -0.50951,-0.40232 -0.65991,-1.78499 -4.98749,-7.18885 -5.03724,-6.29012 -0.01,0.17398 -0.30193,-0.33796 -0.64955,-1.13775 -0.34763,-0.79978 -0.84312,-1.45421 -1.10109,-1.45421 -0.62549,0 -0.59306,0.43085 0.20212,2.68467 0.36914,1.04617 0.66067,2.22928 0.64784,2.629 -0.0128,0.39972 -0.49549,-0.54455 -1.07262,-2.09832 -1.2441,-3.3496 -1.68443,-3.94315 -1.36524,-1.8404 0.21981,1.44805 0.19307,1.4275 -0.48006,-0.36815 -0.51132,-1.36411 -0.96533,-1.90163 -1.60597,-1.90163 -0.76512,0 -0.85418,0.2084 -0.62132,1.45412 l 0.27183,1.45422 -0.91812,-1.67788 c -1.05507,-1.92817 -1.69403,-2.31002 -0.72287,-0.43198 0.35435,0.68522 0.76252,2.04429 0.90703,3.02021 l 0.26275,1.77423 -0.71844,-1.92955 c -0.85316,-2.29146 -1.39548,-2.19416 -0.63382,0.11369 0.29041,0.88001 0.42704,1.84986 0.30363,2.15539 -0.13289,0.32887 -0.23879,0.23798 -0.2597,-0.22297 -0.0423,-0.93273 -2.31317,-6.7129 -2.54587,-6.48021 -0.0895,0.0895 0.23485,1.29403 0.7208,2.67661 0.48595,1.38266 1.01568,3.9356 1.17718,5.67323 0.28332,3.04849 0.48515,3.37995 1.93166,3.17242 0.35636,-0.0512 0.93187,0.27735 1.27891,0.72997 0.56137,0.73222 0.60803,0.56206 0.42296,-1.54198 -0.28366,-3.22463 0.58496,-2.83593 1.45342,0.65035 0.43788,1.75793 0.86553,2.6277 1.23045,2.50281 0.33879,-0.11604 0.56854,0.22003 0.58276,0.85243 l 0.0234,1.044 0.70226,-1.00671 c 0.38625,-0.55374 0.87905,-1.00671 1.09513,-1.00671 0.21608,0 0.39595,0.45297 0.39971,1.00671 0.005,0.74723 0.10753,0.84774 0.39742,0.39009 0.21481,-0.3391 0.61441,-0.47829 0.88802,-0.30918 0.69723,0.43094 0.62916,-1.04929 -0.14975,-3.25697 -0.3934,-1.11503 -0.47989,-1.9378 -0.22055,-2.09806 0.23465,-0.1451 0.5509,0.10138 0.70277,0.54767 0.73804,2.16874 2.44455,5.61573 3.10925,6.28048 0.69426,0.69424 0.78174,0.69337 1.29845,-0.013 0.74997,-1.02561 0.98705,-0.96213 1.7655,0.47275 l 0.66753,1.23046 0.0179,-1.90155 c 0.0202,-2.14645 0.5208,-2.4467 1.28454,-0.77055 0.28346,0.62217 0.86948,1.25682 1.30227,1.41033 0.43279,0.15359 1.08892,0.52 1.45805,0.81435 0.36913,0.29435 1.03206,0.66336 1.47318,0.82008 0.70905,0.25202 0.76759,0.0913 0.50502,-1.38614 -0.31522,-1.77371 -0.15732,-1.72037 1.52472,0.51454 0.53429,0.70994 0.97146,1.13828 0.97146,0.95199 0,-0.18646 0.30688,-0.0841 0.68197,0.22705 0.37508,0.31134 0.80958,0.4384 0.96556,0.28246 0.15598,-0.15602 0.55381,-0.059 0.88407,0.21473 0.46036,0.38203 0.60046,0.32895 0.60046,-0.22765 0,-0.3992 0.20135,-0.72589 0.44744,-0.72589 0.24609,0 0.44743,0.21811 0.44743,0.48471 0,0.26659 0.25169,0.39356 0.5593,0.28212 0.30761,-0.11145 0.91314,0.10563 1.34559,0.48245 0.73355,0.63908 0.76732,0.59017 0.50337,-0.72954 -0.18341,-0.9172 -0.1059,-1.41458 0.22048,-1.41458 0.27685,0 0.50337,0.15854 0.50337,0.35246 0,0.19383 0.57834,1.04521 1.2852,1.89191 1.11803,1.33922 1.37992,1.46081 2.01347,0.93508 0.59798,-0.49633 0.85338,-0.50058 1.42756,-0.0243 0.61585,0.51116 0.66043,0.42427 0.3736,-0.72823 -0.30758,-1.23584 -0.20346,-1.18424 1.87348,0.92866 2.0073,2.04195 2.21164,2.14931 2.34214,1.23046 0.18733,-1.3191 0.69828,-1.27296 1.62862,0.14691 0.43492,0.6638 1.02158,1.05172 1.38152,0.91365 0.34409,-0.13208 0.93314,0.19895 1.30901,0.73561 l 0.68341,0.97566 v -0.99439 c 0,-1.36289 0.35639,-1.26056 2.38042,0.68339 1.29547,1.24425 1.68357,1.44659 1.50156,0.78305 -0.13498,-0.49217 -0.49187,-1.75194 -0.79308,-2.79941 -0.30121,-1.04747 -0.40095,-2.05115 -0.22165,-2.2305 0.3836,-0.38358 1.84249,1.41658 2.44458,3.01649 0.23153,0.61514 0.57167,1.52125 0.75588,2.01342 0.30787,0.82268 0.35041,0.8297 0.52695,0.0871 0.25497,-1.07236 1.19775,-0.72112 1.37934,0.51394 0.0791,0.53804 0.3308,0.86274 0.5593,0.72155 0.22849,-0.14127 0.41545,0.0451 0.41545,0.41438 0,0.90671 -0.91363,1.41761 -1.33007,0.74375 -0.24394,-0.39468 -0.41213,-0.34169 -0.61797,0.19479 -0.34677,0.90359 -1.18403,0.4743 -1.18403,-0.60717 0,-1.02726 -1.349,-5.56656 -1.58434,-5.33118 -0.0996,0.0996 0.0261,0.93177 0.27943,1.84924 0.25332,0.91747 0.33031,2.07855 0.17107,2.58026 -0.26539,0.83621 -0.35432,0.85355 -1.06724,0.2084 -0.42775,-0.38723 -1.09745,-0.70386 -1.48823,-0.70386 -0.39077,0 -0.81262,-0.25168 -0.93743,-0.55938 -0.17268,-0.42556 -0.33463,-0.40449 -0.67735,0.088 -0.3761,0.54048 -0.60075,0.46659 -1.3615,-0.4475 -0.58494,-0.70282 -0.9164,-0.86656 -0.92596,-0.45739 -0.0105,0.44776 -0.34411,0.328 -1.1218,-0.40258 -0.97337,-0.91443 -1.1411,-0.95086 -1.39018,-0.30172 -0.15581,0.40605 -0.48999,0.73821 -0.74264,0.73821 -0.50034,0 -2.57552,-2.25243 -2.57641,-2.79646 -3e-4,-0.18464 -0.2019,-0.33563 -0.44798,-0.33563 -0.24609,0 -0.45192,0.35236 -0.45739,0.78304 -0.008,0.63796 -0.16609,0.57985 -0.85267,-0.31351 -0.68231,-0.88781 -0.9665,-0.99387 -1.49284,-0.55704 -0.51938,0.43103 -0.88124,0.35775 -1.79957,-0.36468 l -1.14947,-0.90411 -0.31514,0.99292 -0.31512,0.99283 -0.94771,-1.14026 c -1.12139,-1.34937 -2.51373,-1.96737 -2.51373,-1.11573 0,1.13489 -2.68818,0.65929 -4.06708,-0.71965 -1.17411,-1.17409 -1.30217,-1.21329 -1.30217,-0.39928 0,1.13298 -0.81406,1.68698 -1.15877,0.7886 -0.14168,-0.3692 -0.54126,-0.56242 -0.88795,-0.42938 -0.3467,0.13303 -0.75427,-0.0807 -0.90572,-0.47569 -0.15145,-0.3946 -0.54146,-0.71757 -0.86669,-0.71757 -0.32523,0 -0.90773,-0.31637 -1.29444,-0.70308 -0.58879,-0.58878 -0.70312,-0.59771 -0.70312,-0.0546 0,0.35662 -0.31736,0.91175 -0.70526,1.23367 -0.70915,0.58852 -1.15094,0.28758 -1.68349,-1.14694 -0.0914,-0.24604 -0.59131,0.0555 -1.11097,0.67116 -0.77724,0.92016 -0.94752,0.97966 -0.95977,0.33563 -0.008,-0.43068 -0.28458,-0.78304 -0.61422,-0.78304 -0.32963,0 -0.85607,-0.55374 -1.16987,-1.23046 l -0.57054,-1.23046 -0.41914,1.10783 c -0.29528,0.78044 -0.52208,0.94123 -0.7675,0.54411 -0.19161,-0.30995 -0.68464,-0.43458 -1.09562,-0.27691 -0.45476,0.17449 -0.74724,0.0659 -0.74724,-0.27787 0,-0.37491 -0.2977,-0.2953 -0.88555,0.23667 -0.80697,0.73032 -0.91048,0.73648 -1.16647,0.0694 -0.1545,-0.40266 -0.54955,-0.73205 -0.87787,-0.73205 -0.3372,0 -0.78225,-0.82744 -1.0228,-1.90163 -0.23422,-1.04591 -0.45587,-1.49887 -0.49253,-1.00671 -0.0367,0.49217 -0.47104,1.59957 -0.96527,2.46093 l -0.8986,1.566 0.25148,-1.90163 c 0.13832,-1.04591 0.0981,-1.91837 -0.0894,-1.93892 -0.18747,-0.0208 -0.78549,-0.0869 -1.32895,-0.14752 -0.54344,-0.0607 -1.09573,0.17024 -1.22729,0.51307 -0.59264,1.5444 -1.14218,-0.26426 -1.16135,-3.82226 -0.0149,-2.76585 -0.30558,-4.74605 -1.00673,-6.85799 l -0.98579,-2.96931 -1.68866,1.46003 c -1.90638,1.64822 -5.0876,2.71433 -6.80971,2.28218 -1.81036,-0.45444 -2.22586,-1.93138 -1.34421,-4.77831 0.41244,-1.33185 0.91455,-4.80069 1.1158,-7.70869 0.33918,-4.90103 0.49708,-5.55468 2.16178,-8.94877 0.98772,-2.01385 2.15025,-4.5301 2.58338,-5.59171 0.92036,-2.25581 3.54449,-4.86313 11.58806,-11.51402 8.81357,-7.28763 9.61991,-8.13424 9.61991,-10.10005 0,-2.62726 1.20165,-8.20944 2.17122,-10.08635 0.98659,-1.90978 3.16478,-4.07107 8.0154,-7.95342 1.78823,-1.43123 3.88911,-3.43242 4.66862,-4.44702 0.77951,-1.0146 2.95421,-3.45558 4.83269,-5.42425 1.87848,-1.96875 4.71059,-5.48729 6.2936,-7.81899 1.58301,-2.33171 4.32465,-5.74106 6.09254,-7.57626 1.93032,-2.00396 3.50967,-4.11018 3.95368,-5.27282 0.98956,-2.5911 2.85642,-4.36446 5.72417,-5.43743 3.12794,-1.17027 10.50255,-5.21801 16.3821,-8.9917 2.60204,-1.66998 5.56549,-3.45991 6.58545,-3.97749 1.01997,-0.51766 3.12921,-2.37541 4.68721,-4.12839 1.55801,-1.75307 3.64302,-3.66103 4.63337,-4.23984 1.75101,-1.02353 9.25713,-3.86414 9.51889,-3.60231 0.0718,0.072 -1.63539,0.87376 -3.79383,1.78212 -4.56783,1.92244 -7.41279,3.8755 -9.51919,6.53503 -1.18157,1.49185 -1.31894,1.84144 -0.63962,1.62757 1.87211,-0.58947 5.77836,-1.18016 7.52591,-1.1381 1.34438,0.0321 0.84918,0.19809 -1.83692,0.61489 -4.50656,0.69927 -8.20172,2.41895 -15.7759,7.34218 -3.43967,2.23569 -7.81962,4.58162 -11.40966,6.11094 -3.20478,1.36523 -6.23464,2.82569 -6.73303,3.24552 -1.18838,1.00116 -3.5462,4.1192 -3.11483,4.1192 0.55795,0 3.47411,-1.8685 5.11634,-3.27831 2.53362,-2.1749 7.49616,-4.27747 11.44496,-4.84908 3.34272,-0.48384 3.86341,-0.44013 8.26554,0.69372 11.08301,2.85474 19.40825,9.06784 24.64952,18.39586 4.21763,7.50627 4.79932,13.77539 2.22724,24.00414 -1.47585,5.86924 -1.50589,6.15188 -0.77271,7.27089 1.7995,2.74634 5.59564,0.72382 9.40969,-5.01334 1.104294,-1.66105 3.127729,-4.42386 4.496527,-6.13955 1.368797,-1.71578 2.806228,-3.72356 3.194299,-4.46177 l 0.705572,-1.34234 -0.262865,1.23046 c -0.283653,1.32777 0.221237,1.61388 1.061442,0.60153 0.28707,-0.34586 2.073511,-1.68629 3.969868,-2.97867 1.896348,-1.29238 4.656005,-3.36035 6.13255,-4.5955 2.661622,-2.2265 2.669289,-2.22945 0.894868,-0.34551 -0.98436,1.04521 -3.700941,3.34587 -6.036831,5.11255 -5.713041,4.3211 -9.298169,7.93512 -11.85488,11.95043 -4.23194,6.64629 -6.67349,8.93081 -9.54827,8.93402 -1.03357,0 -1.86974,-0.37951 -2.73554,-1.24529 l -1.24696,-1.24694 -2.40998,2.21705 c -1.32549,1.21936 -3.5174,2.73697 -4.8709,3.37232 -2.13641,1.0029 -3.03479,1.15172 -6.81309,1.12882 l -4.35218,-0.0269 -2.42567,2.2938 c -3.41641,3.2307 -6.54375,9.19828 -6.54375,12.48665 0,1.44719 -0.36804,3.21691 -0.93608,4.50105 -1.07422,2.4284 -0.93066,3.982 0.62108,6.72123 l 1.01312,1.78845 5.35577,0.95268 c 4.88522,0.8689 5.47331,0.89267 6.69369,0.2698 1.93555,-0.9878 5.73266,-0.7833 13.22918,0.71237 7.68972,1.53426 9.24235,2.19675 12.47286,5.32173 1.336984,1.29325 2.526832,2.25556 2.644093,2.13831 0.11727,-0.11734 -0.937823,-1.36428 -2.344623,-2.77114 l -2.55784,-2.5578 1.36792,-3.75504 c 1.52614,-4.18936 1.64879,-5.00631 0.75162,-5.00631 -0.37022,0 -1.19607,1.60789 -2.06834,4.02692 -0.79863,2.2148 -1.51492,4.02692 -1.59178,4.02692 -0.0768,0 -0.70653,-0.21811 -1.3993,-0.48462 -0.69277,-0.26659 -3.25241,-0.86682 -5.68811,-1.33384 -2.43568,-0.46693 -4.52863,-0.94912 -4.65097,-1.07149 -0.12235,-0.12237 0.4318,-2.05149 1.23144,-4.28693 1.44816,-4.04843 1.50497,-4.77944 0.33657,-4.33115 -0.59555,0.2286 -2.5309,4.76114 -3.00329,7.03369 -0.14503,0.69771 -0.52545,1.10454 -1.01113,1.0813 -0.42825,-0.0208 -1.87198,-0.0711 -3.2083,-0.11188 l -2.42968,-0.0746 0.36599,-1.27608 c 0.20129,-0.70187 0.77996,-2.21202 1.28593,-3.35584 0.73589,-1.66357 0.79275,-2.07968 0.28424,-2.07968 -0.84369,0 -1.72602,1.47407 -2.67829,4.47443 -0.77625,2.44574 -1.39769,3.5795 -1.96206,3.5795 -0.54228,0 -1.48667,-4.00923 -1.20693,-5.12382 0.75962,-3.02655 7.18726,-5.20856 15.30107,-5.19425 7.56229,0.013 11.29244,1.48994 16.848027,6.66936 1.168929,1.08979 2.125329,1.76859 2.125329,1.5085 0,-0.26009 -1.136086,-1.48543 -2.524639,-2.723 -2.86202,-2.55095 -2.856686,-2.15652 -0.104539,-7.72308 0.684966,-1.38544 1.120493,-2.64383 0.967839,-2.79647 -0.778552,-0.77853 -1.513872,0.0581 -3.050569,3.46989 l -1.687768,3.74741 -2.45843,-1.12552 c -1.35213,-0.61896 -4.0274,-1.33263 -5.94504,-1.58578 l -3.48662,-0.46034 0.65506,-1.26671 c 0.60044,-1.16117 0.58881,-1.26654 -0.13946,-1.26394 -0.43697,0 -1.1258,0.58523 -1.53073,1.29707 -0.63895,1.12318 -1.11178,1.34754 -3.5795,1.69808 -1.56379,0.22211 -2.90871,0.36165 -2.98869,0.31005 -0.08,-0.052 1.17845,-1.76816 2.79649,-3.81436 1.61804,-2.04629 2.9419,-3.87681 2.9419,-4.06795 0,-1.17851 -1.59353,0.16105 -4.24382,3.56754 -3.16696,4.07063 -4.51114,5.48114 -5.22344,5.48114 -0.52925,0 1.59627,-3.07017 4.29879,-6.20937 1.13929,-1.32335 2.00189,-2.47567 1.9169,-2.56057 -0.43752,-0.43753 -3.68253,0.93871 -5.05536,2.14411 -2.03191,1.78403 -2.59278,2.86428 -2.62722,5.05974 -0.0154,0.98442 -0.22943,1.78975 -0.47552,1.78975 -0.24647,0 -0.44579,-1.14746 -0.44379,-2.55493 0.004,-2.3696 0.13189,-2.68623 1.77151,-4.36533 2.47698,-2.53672 5.61088,-3.60812 11.45792,-3.91747 5.42809,-0.28715 11.10775,0.39954 14.173038,1.71343 2.257334,0.96768 6.993509,4.21087 8.3464,5.71547 0.865599,0.96265 1.896548,1.32855 1.377608,0.48887 -0.156053,-0.25254 -1.465504,-1.44259 -2.9099,-2.6446 l -2.62616,-2.18549 1.720182,-2.83653 c 0.946106,-1.5601 1.667567,-2.89247 1.603242,-2.96089 -0.498584,-0.53024 -2.455979,1.07756 -3.363778,2.76299 -0.610087,1.13272 -1.272488,2.05947 -1.472,2.05947 -0.199512,0 -1.166891,-0.41022 -2.149734,-0.91166 -0.982843,-0.50145 -3.274448,-1.14833 -5.092468,-1.43756 -3.09188,-0.49191 -3.27801,-0.58479 -2.88036,-1.43739 0.35548,-0.76215 0.30412,-0.74654 -0.31354,0.0952 -0.63215,0.86162 -1.15011,1.0068 -3.59242,1.0068 -1.56958,0 -2.85377,-0.0876 -2.85377,-0.19461 0,-0.10702 0.19636,-0.71107 0.43637,-1.34234 0.35298,-0.9284 0.3028,-1.14773 -0.26259,-1.14773 -0.38443,0 -0.92695,0.60405 -1.20562,1.34234 -0.27866,0.7383 -0.78608,1.34234 -1.1276,1.34234 -0.37435,0 -0.51308,-0.2666 -0.34934,-0.67117 0.14938,-0.3691 0.3938,-0.97315 0.54318,-1.34234 0.21447,-0.52998 -0.10494,-0.67117 -1.5189,-0.67117 -2.96896,0 -7.33063,1.58457 -8.89327,3.23096 -2.93596,3.09315 -3.48762,5.78069 -1.99363,9.71256 0.66219,1.74275 0.71779,2.26206 0.26096,2.43734 -0.89884,0.34499 -1.99732,-2.96125 -1.99732,-6.01155 0,-4.3819 2.12067,-7.48459 6.41298,-9.38258 3.08049,-1.36219 7.52067,-1.56175 14.84031,-0.66691 7.65793,0.9362 12.14027,0.94539 16.074918,0.0329 3.182245,-0.73803 6.426836,-0.89622 7.230087,-0.35254 0.267123,0.18074 0.714029,0.73145 0.993128,1.22361 0.490936,0.86578 0.507891,0.86136 0.521056,-0.13468 0.01839,-1.39091 -2.521301,-2.47888 -4.792104,-2.05279 l -1.62651,0.3051 0.95235,-1.21069 c 1.741213,-2.21358 3.2625,-3.09914 5.666782,-3.29852 2.105643,-0.17458 2.713944,0.0243 7.094891,2.32199 7.312805,3.83517 12.042718,4.68942 17.357924,3.13521 6.756522,-1.97578 12.759686,-9.01676 14.391574,-16.87964 0.676129,-3.25776 0.137217,-4.40279 -2.978804,-6.32931 -1.79618,-1.11052 -2.768503,-1.37972 -5.477972,-1.51648 -4.278394,-0.21604 -6.623641,0.88841 -11.775699,5.54592 -4.226237,3.82051 -5.022247,4.30271 -10.04119,6.08318 -4.378249,1.55317 -3.937294,0.96231 0.534966,-0.71687 3.534767,-1.32716 5.117168,-2.50663 9.389214,-6.99849 3.152697,-3.3149 6.358253,-5.14299 9.783094,-5.57922 2.941738,-0.37474 6.622784,0.41802 8.889155,1.91438 l 1.782764,1.17704 -0.711635,-1.08251 c -1.671721,-2.54288 -5.76623,-4.43826 -9.587962,-4.43826 -2.956125,0 -5.111679,1.16593 -9.597407,5.19112 -5.734792,5.14603 -6.343674,5.51843 -16.393649,10.02608 -1.018565,0.45687 -2.574429,1.46496 -3.457485,2.24038 l -1.605567,1.40963 1.350923,1.1368 c 0.743004,0.6252 1.28692,1.32872 1.208693,1.5634 -0.07823,0.23468 -1.244415,0.79675 -2.591531,1.24919 -1.900979,0.6383 -2.958033,1.38822 -4.721717,3.3496 l -2.272424,2.52727 -3.364229,0.25437 c -1.850332,0.13997 -4.703674,0.111 -6.340764,-0.0642 -2.70313,-0.28949 -2.97652,-0.41212 -2.97652,-1.33497 0,-0.55894 -0.22652,-1.66599 -0.50337,-2.46023 -0.75663,-2.17039 -3.5e-4,-3.30727 3.27102,-4.91759 4.079189,-2.00796 9.060831,-2.93956 12.489263,-2.33569 l 2.698272,0.47534 1.272003,-1.44875 c 1.356101,-1.54449 3.075728,-2.49665 8.656453,-4.7928 4.287942,-1.76425 7.427526,-3.85954 12.385752,-8.26572 4.865569,-4.32378 7.347947,-5.59301 10.938209,-5.59258 3.838929,0 7.310802,1.7457 11.62425,5.84305 7.023143,6.67127 10.139476,13.30915 13.221388,28.16193 1.00056,4.82194 1.34715,7.70504 1.349856,11.22844 0.0035,4.15397 0.113272,4.8398 0.889751,5.54254 0.487371,0.44108 0.978246,1.42863 1.090851,2.19467 0.741728,5.04604 1.267259,9.60355 1.214278,10.53056 -0.034,0.59623 -0.457234,1.75393 -0.940356,2.5728 -0.483121,0.81886 -0.728901,1.48881 -0.54618,1.48881 0.564731,0 7.834573,-0.88113 9.321698,-1.12977 1.171046,-0.19583 1.453398,-0.48523 1.686646,-1.72853 0.506321,-2.69889 1.329137,-3.0392 8.3964411,-3.47205 3.865572,-0.23676 8.900715,-0.91444 12.837271,-1.72775 3.562354,-0.73595 6.9959979,-1.32213 7.6302819,-1.30253 0.634284,0.0199 -0.05481,0.30346 -1.531381,0.63084 -1.476545,0.32739 -4.5264639,1.21746 -6.7775709,1.97787 -3.8092,1.28674 -4.53107697,1.38266 -10.413242,1.38266 h -6.3202851 l 0.655367,1.00671 c 2.0206261,3.10399 4.1436661,15.71379 4.7691481,28.32636 0.458214,9.23939 0.445977,9.517 -0.631743,14.31804 -1.176657,5.2416 -1.777257,10.04142 -1.256549,10.04142 0.175394,0 2.057502,-0.70881 4.182467,-1.5752 5.348569,-2.18062 10.193853,-3.35627 14.6738139,-3.56068 2.091784,-0.0954 3.199181,-0.0815 2.460905,0.0312 -4.0564369,0.61826 -8.7334819,1.86798 -14.27602087,3.81444 -8.20722403,2.88233 -9.29950513,2.842 -10.95552813,-0.40405 -0.790928,-1.5503 -3.180736,-11.15949 -3.180736,-12.78941 0,-0.42356 -0.364125,-0.7291 -0.868893,-0.7291 -1.170578,0 -10.473985,2.84651 -13.061475,3.99631 -2.289847,1.01755 -7.546643,4.73122 -7.546643,5.33128 0,1.12656 -4.691858,4.78317 -9.063932,7.06396 -6.478056,3.37943 -7.870321,4.45258 -11.084793,8.54394 -3.447381,4.38796 -4.217443,4.98454 -10.307384,7.98577 -6.11341,3.01284 -9.84036,5.50065 -11.478578,7.66219 -2.626204,3.46521 -3.568138,4.21044 -4.913719,3.88756 -2.673781,-0.64168 -3.780347,-1.55837 -4.974895,-4.12154 -0.913315,-1.95974 -1.18023,-3.2144 -1.166909,-5.48513 l 0.01726,-2.94407 -2.672099,3.09688 c -5.971813,6.92139 -13.921423,12.97951 -22.432853,17.09524 -16.32007,7.89168 -29.8238,10.56924 -46.30981,9.18224 z m 13.25749,-2.02608 c 9.81932,-1.28727 18.25311,-3.59504 24.55101,-6.71802 1.72263,-0.85425 2.72936,-1.42186 2.23719,-1.26134 -14.2779,4.65647 -20.95709,6.00774 -31.20878,6.31379 -6.1174,0.18256 -7.94203,0.37136 -7.94203,0.82155 0,0.63813 2.83194,1.40817 5.45819,1.48422 0.91024,0.0269 4.01723,-0.26173 6.90442,-0.6402 z m 8.44324,-4.22137 c 15.70879,-3.38307 30.78329,-10.16917 38.7132,-17.42766 1.186526,-1.08615 0.27017,-0.5409 -2.24701,1.33688 -11.07215,8.25947 -30.12161,15.08772 -46.36195,16.61825 -5.38251,0.50725 -12.14301,0.15602 -15.8319,-0.82259 -0.61523,-0.16322 -0.99317,-0.15836 -0.83986,0.0104 0.1533,0.16912 1.66341,0.59468 3.35578,0.94574 4.62379,0.95902 17.37426,0.59572 23.21174,-0.66145 z m -6.26113,-2.03553 c 6.24376,-0.81852 17.18342,-3.54777 23.29293,-5.81122 5.79371,-2.14636 14.70569,-6.78436 19.05814,-9.9181 5.483892,-3.94843 9.706989,-8.11568 17.557172,-17.32471 7.962952,-9.34138 12.016953,-13.34844 16.83601,-16.64124 1.716211,-1.17261 3.120392,-2.30967 3.120392,-2.52692 0,-0.53483 -0.539849,-0.18403 -4.698093,3.053 -3.92497,3.05543 -8.285311,7.45744 -18.053341,18.22597 -6.963588,7.67677 -11.83047,12.05571 -17.88497,16.09191 -12.73176,8.48757 -30.78032,14.15941 -47.95626,15.07055 l -6.04042,0.32037 4.78704,0.0711 c 2.63287,0.039 7.1245,-0.23581 9.9814,-0.61029 z m -16.2141,-0.0598 c -0.30292,-0.12254 -0.90696,-0.13009 -1.34231,-0.0165 -0.43534,0.11344 -0.18749,0.21369 0.55079,0.2228 0.73826,0.01 1.09445,-0.0841 0.79152,-0.20623 z m -5.48377,-1.2779 c -1.59637,-0.5926 -4.3836,-2.10708 -6.19383,-3.36556 -3.33382,-2.31765 -4.63036,-2.64608 -2.81422,-0.71297 1.30063,1.38449 4.96767,3.36209 8.08272,4.35891 3.64794,1.16741 4.29645,0.97089 0.92533,-0.28038 z m 19.65517,-8.25826 c 0.41399,-0.2215 1.72309,-1.20462 2.90909,-2.1847 3.39381,-2.80453 7.1827,-4.506 11.68628,-5.24794 7.35173,-1.21121 7.55409,-1.34945 7.11543,-4.86035 -0.27991,-2.2403 -0.23559,-2.36917 1.2702,-3.69121 2.50866,-2.20266 5.09599,-2.97105 9.20344,-2.73324 4.30651,0.24924 7.67676,1.73477 10.15225,4.47486 1.63713,1.81213 1.66671,1.82409 1.3551,0.54602 -0.7718,-3.16557 -4.82904,-7.55995 -8.76541,-9.49375 -1.92558,-0.94609 -3.09356,-1.20575 -5.36925,-1.19378 -3.96567,0.0208 -6.01694,1.05961 -11.35063,5.74782 -5.07671,4.46229 -7.07896,5.72692 -10.72341,6.77265 -2.9321,0.84142 -4.33736,0.69537 -8.12027,-0.84366 -3.1538,-1.2831 -4.35576,-1.07991 -6.54151,1.10584 -4.22531,4.22526 -4.77123,9.70848 -1.16158,11.66683 2.18029,1.18285 6.06478,1.15249 8.34027,-0.065 z m 66.126844,-1.3302 c 0.458301,-0.73378 0.411833,-0.91018 -0.299403,-1.13584 -0.463053,-0.147 -1.093686,-0.57057 -1.401397,-0.94141 -0.423931,-0.51072 -0.224671,-0.48193 0.822453,0.11899 l 1.381936,0.7931 2.927895,-2.81146 c 2.404916,-2.30933 3.993102,-3.31769 8.891453,-5.64514 6.287658,-2.98778 7.622242,-4.02207 11.176452,-8.66162 2.503878,-3.26842 5.73559,-5.73897 11.527899,-8.8127 3.645081,-1.93432 4.974955,-3.00191 9.822745,-7.88568 3.083785,-3.10668 6.076673,-5.89127 6.650856,-6.18795 0.574184,-0.29669 -0.180874,0.71617 -1.677895,2.25087 -1.497021,1.53461 -2.721853,2.9648 -2.721853,3.17805 0,0.21335 1.005695,-0.40708 2.234872,-1.37867 4.210141,-3.32792 10.626214,-5.62753 19.699183,-7.0605 l 4.9122181,-0.77584 v -4.717 c 0,-5.37048 -0.97881,-13.83029 -2.392929,-20.64943 l -0.9642141,-4.6497 -3.803217,0.0572 c -24.870779,0.37492 -25.638681,0.41412 -28.112309,1.4347 -10.646672,4.39265 -19.657442,17.49444 -22.230249,32.32302 -0.38356,2.21072 -0.886534,4.51693 -1.117726,5.12505 -0.607842,1.59878 -0.187952,1.3641 1.344453,-0.75131 1.725247,-2.38165 1.764395,-1.81611 0.04553,0.65764 -1.941298,2.79387 -3.764537,4.3394 -9.438916,8.00104 -7.377321,4.76045 -10.482987,8.58409 -12.756218,15.70503 -1.778774,5.57211 -1.36486,9.97967 1.157898,12.32993 1.313622,1.22379 3.581407,1.27088 4.319138,0.0895 z m -3.011881,-5.38335 c 0,-0.80178 1.214625,-3.45983 1.725204,-3.77542 0.26081,-0.16114 0.181915,0.26729 -0.175307,0.95216 -0.357231,0.68487 -0.650753,1.58569 -0.652271,2.0018 -0.0017,0.41611 -0.2041,0.88104 -0.450192,1.03307 -0.246092,0.15212 -0.447434,0.0572 -0.447434,-0.21161 z m 6.977742,-5.26944 c -0.181725,-0.18455 -0.970328,-0.57195 -1.752462,-0.86084 -1.10784,-0.40925 -1.210566,-0.53275 -0.464901,-0.55929 0.802541,-0.0286 3.585848,1.69652 2.808779,1.74084 -0.143557,0.009 -0.409692,-0.13616 -0.591416,-0.32071 z m 11.111729,-4.34816 c -0.39794,-0.60742 -0.648906,-1.3282 -0.55768,-1.60182 0.09122,-0.2737 0.509582,0.22324 0.929697,1.10419 0.880672,1.84682 0.684195,2.1096 -0.372017,0.49763 z m 3.834975,-0.47621 c 0,-0.62312 -0.300938,-1.8815 -0.66874,-2.79646 l -0.668732,-1.66348 0.892449,1.05623 c 0.793807,0.93958 1.324046,4.5367 0.66874,4.5367 -0.123046,0 -0.223717,-0.50986 -0.223717,-1.13299 z m 1.901317,-5.24298 c -0.48104,-1.31476 -0.468985,-1.37087 0.125622,-0.58566 0.569032,0.75147 0.905085,2.03978 0.532061,2.03978 -0.06912,0 -0.365053,-0.65434 -0.657683,-1.45412 z m -0.954188,-18.45684 c -0.04449,-3.23728 0.800433,-8.23077 1.683212,-9.94724 0.816459,-1.58751 2.256189,-3.13148 4.30494,-4.61683 0.492184,-0.35687 0.190163,0.15663 -0.671151,1.14096 -2.117646,2.42016 -2.965786,4.48605 -4.224858,10.29102 -0.76132,3.51013 -1.074581,4.40852 -1.092143,3.13209 z m 26.216802,-3.80646 c 0.158899,-1.68378 0.01093,-2.99455 -0.467164,-4.1388 -0.384853,-0.92103 -0.599047,-1.67467 -0.476001,-1.67467 0.123046,0 0.51547,0.69831 0.872051,1.55169 0.705277,1.68794 0.8043,4.41172 0.212,5.83107 -0.230386,0.5521 -0.284356,-0.0494 -0.140886,-1.56929 z m 8.645976,-7.51355 c -0.04787,-1.86946 3.191273,-5.36441 6.09682,-6.57848 2.349428,-0.98164 2.366729,-0.82831 0.07085,0.62772 -1.125601,0.71384 -2.62479,2.04273 -3.331525,2.953 -2.574541,3.31613 -2.82131,3.577 -2.836131,2.99776 z m -0.462324,-20.44805 c -1.355849,-0.72607 -1.721189,-1.08398 -1.118594,-1.09613 0.492175,-0.0104 1.498911,0.47708 2.237188,1.08225 1.680401,1.37738 1.433537,1.3805 -1.118594,0.0139 z m -62.193848,56.31433 c 1.712967,-1.79028 0.885389,-1.1303 -2.013471,1.6058 -6.667308,6.29281 -7.751671,7.4146 -4.026942,4.16586 1.722637,-1.5026 4.440822,-4.09977 6.040413,-5.77166 z m -7.606441,0.59814 c 0,-3.32922 -4.480403,-9.73519 -9.304013,-13.30282 -2.91024,-2.15244 -8.51735,-4.69463 -11.42025,-5.17777 -0.97358,-0.16209 -0.57708,0.1241 1.25372,0.9048 6.77009,2.88684 13.25051,8.93646 16.387461,15.29795 1.961548,3.97783 3.083082,4.8065 3.083082,2.27784 z m -0.447443,-11.07684 c 0,-0.88182 -4.48512,-5.22382 -6.50008,-6.2928 -2.04121,-1.08285 -2.34679,-1.46792 -1.55379,-1.95809 0.24609,-0.15203 0.44743,-1.14911 0.44743,-2.21566 0,-2.13518 0.40511,-2.48243 2.89596,-2.48243 2.413868,0 9.659002,2.07048 13.224781,3.77932 3.799955,1.82115 5.315934,1.9757 6.503796,0.66311 0.820596,-0.90672 0.819669,-0.9624 -0.0425,-2.56769 -0.501438,-0.93368 -2.327669,-2.72985 -4.237078,-4.16742 -3.244123,-2.44236 -3.363223,-2.59881 -3.579499,-4.70312 -0.204144,-1.98619 -0.370821,-2.24853 -1.904405,-2.99784 -1.832198,-0.89527 -1.614664,-0.9205 -11.213405,1.3008 -3.07139,0.7108 -3.95386,0.74358 -7.2371,0.26885 -2.05656,-0.2973 -4.55977,-0.83014 -5.56271,-1.18398 -1.80165,-0.63561 -1.82353,-0.63067 -1.82353,0.4188 0,1.74916 -0.44998,2.40906 -1.98907,2.91701 -0.80438,0.26547 -2.10876,1.28683 -2.89863,2.26969 -0.78985,0.98286 -2.07705,2.05696 -2.86045,2.38686 l -1.42432,0.59979 2.23719,0.30302 c 3.1875,0.43172 8.60486,2.21393 10.96222,3.6064 l 2.01347,1.18935 -1.56603,-0.24916 c -1.2983,-0.20658 -1.18356,-0.10763 0.67115,0.57898 4.16264,1.54102 7.59403,3.5488 10.73851,6.28343 2.90835,2.52935 4.698095,3.3875 4.698095,2.25278 z m 87.9416481,-3.21717 c -0.169384,-0.55374 -0.589404,-3.27839 -0.9334271,-6.05482 -0.723351,-5.83819 -1.449911,-8.59875 -2.263179,-8.59875 -0.315673,0 -0.671837,0.15836 -0.791501,0.35202 -0.309514,0.50084 2.409477,14.07485 2.954313,14.74897 0.7411641,0.91695 1.3681551,0.64558 1.0337941,-0.44742 z m -57.7395921,-9.69729 c 0.738268,-0.53831 0.898346,-0.76406 0.355722,-0.50171 -1.401337,0.67767 -5.957183,4.97527 -8.716068,8.22192 -1.425897,1.67805 -0.509972,0.89761 2.336324,-1.99069 2.574941,-2.61296 5.285745,-5.19131 6.024022,-5.72952 z m -52.247676,5.06442 c -0.14868,-0.14865 -0.5346,-0.16461 -0.85759,-0.0356 -0.35694,0.14275 -0.25091,0.24882 0.27032,0.27032 0.47168,0.0191 0.73595,-0.0867 0.58727,-0.23511 z m -12.18336,-3.05924 c 6.62975,0.0243 7.01015,-0.0173 5.14553,-0.56554 -4.77614,-1.40339 -11.13223,-1.83459 -15.77647,-1.07028 -2.44885,0.40301 -2.78356,0.62746 -2.40532,1.61309 0.23136,0.60292 0.70725,0.6579 3.07548,0.35488 1.54098,-0.19704 6.02332,-0.34655 9.96078,-0.33215 z m 23.74629,-15.1937 c -2.27862,-1.62012 -4.14281,-3.67569 -5.31625,-5.86212 l -0.72042,-1.34226 -0.0179,1.1499 c -0.0227,1.45664 2.62609,4.6007 5.30994,6.30269 2.79761,1.77423 3.33657,1.59453 0.74465,-0.24821 z m 13.715192,-1.46931 c 7.653212,-6.17988 15.739167,-10.62447 22.387465,-12.30565 3.069449,-0.77619 4.446979,-0.88252 8.37841,-0.64645 2.587741,0.15541 5.38502,0.40969 6.216171,0.56502 1.131386,0.21143 1.462409,0.13616 1.317126,-0.29973 -0.407246,-1.2217 -3.620199,-1.91897 -8.868713,-1.9247 -4.437223,-0.009 -5.669072,0.1666 -8.948752,1.24504 -7.545829,2.48121 -15.654107,7.23403 -21.371467,12.52732 -1.477334,1.36775 -2.924834,2.48677 -3.216666,2.48677 -1.370505,0 -7.259606,-2.89533 -8.664666,-4.25987 -0.86596,-0.84098 -1.95749,-2.5558 -2.4256,-3.81072 -0.68071,-1.82479 -0.95362,-2.15817 -1.36296,-1.66496 -1.2379,1.49159 1.76241,6.40069 5.26221,8.61002 1.91697,1.21008 5.1693,2.41583 6.59934,2.44653 0.582015,0.0121 2.53287,-1.22023 4.698102,-2.96862 z m -70.821232,-1.4588 c 1.20461,-1.20462 1.99033,-4.09839 1.63176,-6.00973 -0.37369,-1.99192 -1.82654,-3.73935 -5.34789,-6.43235 -1.51034,-1.15501 -4.15551,-3.41559 -5.87814,-5.02348 -1.72264,-1.60789 -3.63544,-3.27927 -4.25066,-3.71402 -1.10559,-0.78149 -1.10168,-0.78261 0.33557,-0.0979 0.7998,0.38099 1.45417,0.57768 1.45417,0.4371 0,-0.14067 -0.86423,-1.90761 -1.92051,-3.92658 -1.77317,-3.38932 -2.83723,-5.64002 -6.55301,-13.86134 -0.75356,-1.66729 -1.36127,-3.37874 -1.35046,-3.80326 0.0145,-0.56814 1.2742,2.22677 1.31593,2.91953 0.003,0.0616 0.15775,0.11162 0.34232,0.11118 0.18456,0 0.39959,-1.46011 0.47784,-3.24388 0.3313,-7.55275 2.06502,-13.35 4.46208,-14.92068 l 1.20461,-0.78929 -1.20878,1.4366 c -0.66483,0.79007 -1.33506,2.18566 -1.48938,3.10131 -0.15432,0.91556 -0.37453,2.06736 -0.48934,2.55953 -0.11481,0.49225 0.31646,-0.0199 0.95839,-1.1381 1.30524,-2.27342 2.44954,-3.15707 4.57199,-3.53034 l 1.44025,-0.25332 -1.49074,-3.69138 c -0.81991,-2.03025 -1.41994,-3.69139 -1.33339,-3.69139 0.33465,0 3.83009,7.34999 5.55773,11.68652 2.31688,5.81547 2.65527,6.46521 6.0308,11.58028 2.80795,4.25493 3.45572,5.88441 4.00221,10.06736 0.16075,1.23046 1.06906,3.84792 2.01847,5.81668 1.58279,3.28212 3.03,8.04118 3.8035,12.50746 0.3947,2.27914 1.77407,4.9757 2.73355,5.34385 1.3244,0.50821 3.76252,-0.24665 5.09267,-1.57684 2.26866,-2.26866 3.28762,-5.74227 3.33025,-11.35263 0.0344,-4.53514 -0.0924,-5.31029 -1.61418,-9.86589 -0.90837,-2.71919 -2.18599,-7.65214 -2.83914,-10.96219 -1.40595,-7.12493 -3.10244,-12.64206 -6.04694,-19.66509 -2.10613,-5.0234 -4.92064,-13.14637 -4.8772,-14.07615 0.012,-0.25602 0.59301,1.04452 1.29121,2.89021 2.22538,5.88276 3.92795,9.51838 4.22921,9.03098 0.1608,-0.26017 -0.13866,-1.54284 -0.66546,-2.8504 -0.6676,-1.65698 -1.05932,-3.93647 -1.29275,-7.52292 -0.1842,-2.83002 -0.46447,-5.54817 -0.62283,-6.04034 -0.15835,-0.49225 0.12744,-0.0338 0.63508,1.01928 0.584,1.21121 1.15618,3.90378 1.55791,7.3316 0.34921,2.97963 0.74182,5.52433 0.87247,5.65503 0.73125,0.73118 1.50422,-2.6597 1.61182,-7.07065 0.0671,-2.75362 0.0906,-2.81311 0.44114,-1.11858 0.6297,3.04432 0.46116,6.35958 -0.51473,10.12433 l -0.93648,3.61281 1.56441,3.42254 c 1.9061,4.16993 3.64136,10.02529 4.35665,14.70083 0.29341,1.91794 0.59403,3.7135 0.66807,3.99033 0.0741,0.27683 1.28956,0.64767 2.70118,0.82398 1.41162,0.1764 2.84704,0.42834 3.18981,0.55981 0.43411,0.1666 0.3247,-0.33354 -0.36055,-1.64822 -0.57406,-1.10132 -1.02203,-2.8485 -1.07565,-4.19517 -0.1229,-3.08647 -0.032,-2.87616 -1.67637,-3.87871 -0.79979,-0.48766 -1.21793,-0.88746 -0.92921,-0.88833 0.28875,0 1.16249,0.53475 1.94167,1.1904 1.15795,0.97436 1.48984,1.07643 1.81722,0.55929 0.6253,-0.98789 0.49493,-1.60772 -0.60779,-2.88961 -0.58733,-0.68287 -1.96713,-1.45794 -3.24393,-1.82236 l -2.22188,-0.63422 1.94858,0.24421 c 1.07172,0.13426 2.53149,0.54559 3.24393,0.914 1.28242,0.66311 1.29534,0.65712 1.29534,-0.60456 0,-2.28331 3.69996,-9.10479 6.64746,-12.2557 1.49369,-1.5967 2.92455,-3.45219 3.1797,-4.12336 0.65344,-1.71864 0.5674,-4.98741 -0.20725,-7.87346 -0.42757,-1.59297 -0.66241,-4.60556 -0.66584,-8.54159 -0.006,-6.97993 -0.90317,-11.41212 -3.1497,-15.56168 -0.75012,-1.38561 -1.06848,-2.21722 -0.70745,-1.84812 1.0619,1.08572 4.19035,7.23013 4.67022,9.17244 0.24319,0.98442 0.57341,2.74503 0.73381,3.91262 l 0.29164,2.12286 1.20342,-0.61211 c 0.66187,-0.33658 3.71643,-1.26177 6.78791,-2.05582 5.39243,-1.39412 8.69703,-2.73324 11.33123,-4.59177 1.55492,-1.09699 1.41567,-2.08063 -1.04481,-7.37939 -3.43141,-7.38979 -9.26637,-13.36613 -16.62339,-17.02629 -4.85259,-2.41418 -8.93153,-3.67725 -11.87547,-3.67725 -1.1731,0 -3.61413,0.83161 -7.31814,2.4931 -13.0552,5.85605 -16.81616,8.73594 -23.33054,17.86536 -1.75603,2.46084 -3.59466,4.9274 -4.08586,5.48105 -1.10067,1.24079 -0.76217,1.26602 1.50011,0.11188 2.81536,-1.43626 2.62862,-1.03412 -0.36353,0.78304 -4.43047,2.69058 -7.17596,5.07371 -9.03535,7.84294 -2.69903,4.01972 -2.87078,7.34547 -0.64057,12.40356 l 1.08504,2.46093 -1.12136,-1.34226 c -1.97192,-2.36049 -3.09269,-5.18011 -3.05725,-7.69133 l 0.0328,-2.32199 -1.78355,1.42715 c -7.35665,5.88658 -8.18344,7.57097 -9.26601,18.87719 -0.48457,5.06078 -0.81055,6.562 -2.89704,13.34125 -0.74628,2.42475 -1.23615,5.09746 -1.27115,6.93535 -0.0677,3.55652 1.06766,6.06983 5.49459,12.16264 1.51986,2.09182 4.27366,6.85123 6.11958,10.57652 4.32827,8.73499 5.26204,9.69235 13.08883,13.42007 3.30271,1.57294 6.62494,3.32966 7.38273,3.90378 2.45762,1.86191 4.25759,2.10656 5.60281,0.76128 z m -1.5404,-1.36793 c 0.44543,-0.49216 0.91053,-0.89492 1.03357,-0.89492 0.12305,0 -0.14071,0.40276 -0.58612,0.89492 -0.44542,0.49217 -0.91053,0.89484 -1.03358,0.89484 -0.12305,0 0.14071,-0.40267 0.58613,-0.89484 z m -0.33052,-2.94415 c -0.91839,-0.84159 -1.51414,-1.53027 -1.32389,-1.53027 0.54474,0 3.46996,2.5708 3.21893,2.82898 -0.12388,0.1274 -0.97665,-0.45704 -1.89504,-1.29871 z m -8.59002,-0.68097 c 0.37488,-0.60665 3.02301,-1.74414 4.06019,-1.74414 0.41875,0 -0.22917,0.50249 -1.4398,1.11677 -2.40616,1.22066 -3.08799,1.38388 -2.62039,0.62737 z m 20.33021,-4.87623 c 0,-0.24604 0.55923,-0.44742 1.24275,-0.44742 0.68352,0 1.69025,-0.31342 2.23719,-0.69657 0.54693,-0.38307 0.99444,-0.58141 0.99444,-0.44083 0,0.14058 -0.65438,0.65469 -1.45417,1.14235 -1.56438,0.9538 -3.02021,1.16706 -3.02021,0.44247 z m -30.42578,-1.27217 c 0,-1.03993 0.82475,-2.14819 2.55136,-3.42844 l 1.6993,-1.26003 -1.38655,1.52619 c -0.7626,0.83933 -1.719,2.024 -2.12533,2.63238 -0.40632,0.60847 -0.73878,0.84696 -0.73878,0.5299 z m 35.84985,-2.531 c -0.0369,-0.49217 -0.17065,-1.39828 -0.29727,-2.01351 l -0.23024,-1.11858 0.47928,1.09768 c 0.2636,0.60361 0.39736,1.50972 0.29726,2.01342 -0.17729,0.89223 -0.18371,0.89275 -0.24903,0.0208 z m -6.42779,-5.92856 c 1.05563,-1.0087 3.8319,-1.41301 4.31664,-0.62867 0.12853,0.20797 -0.64375,0.35896 -1.71617,0.33563 -1.11617,-0.0243 -2.3142,0.24439 -2.80197,0.62859 -0.46866,0.36919 -0.37799,0.21811 0.2015,-0.33555 z m -3.69619,-8.99022 c 0.48768,-0.57646 1.29162,-1.25552 1.78656,-1.50894 0.95031,-0.48661 0.8119,-0.33666 -1.33412,1.4452 -1.29193,1.07279 -1.30787,1.07505 -0.45244,0.0633 z m 0.67297,-3.37145 c 0,-0.0929 0.35235,-0.44525 0.78302,-0.78296 0.70965,-0.5566 0.72548,-0.54073 0.16893,0.16894 -0.58452,0.74532 -0.95195,0.98234 -0.95195,0.61402 z m -39.37453,-2.7551 c 0,-0.10615 1.05708,-0.71063 2.34906,-1.34338 1.90261,-0.93177 2.13646,-0.97826 1.23045,-0.24465 -1.07919,0.87385 -3.57951,1.98307 -3.57951,1.58803 z m -1.36453,-7.51155 c 0.62099,-0.79961 3.67001,-2.55927 4.36691,-2.52033 0.19437,0.0104 -0.45198,0.43761 -1.43634,0.94817 -0.98436,0.51055 -2.18898,1.25674 -2.67692,1.6581 -0.83903,0.69016 -0.85279,0.68557 -0.25365,-0.0859 z m 35.3698,-0.0434 c 0,-0.10996 1.30876,-0.89474 2.90835,-1.74422 3.16881,-1.68265 3.63293,-1.777 1.59199,-0.32366 -1.37289,0.97757 -4.50034,2.41461 -4.50034,2.06788 z m -3.13206,-3.2555 c 0,-1.40825 3.77749,-4.58153 6.26413,-5.26224 0.61522,-0.16842 0.0829,0.30389 -1.183,1.04955 -1.26588,0.74567 -2.92699,2.11437 -3.69136,3.04173 -0.76438,0.92735 -1.38977,1.4543 -1.38977,1.17096 z m -30.67583,-0.78269 c 0.4777,-0.38272 1.06495,-0.69589 1.30503,-0.69589 0.56849,0 0.31465,0.20667 -1.05497,0.85893 -1.05474,0.5024 -1.06901,0.49303 -0.25006,-0.16304 z m 31.57071,-4.43072 c 0.61522,-0.70074 1.86562,-1.65715 2.77865,-2.12538 2.44458,-1.25371 2.68217,-1.02753 0.35341,0.33632 -1.1074,0.64862 -2.51684,1.60312 -3.13206,2.12113 l -1.1186,0.94184 z m 22.81082,-0.52608 c -0.47284,-0.5697 -0.44516,-0.63518 0.16893,-0.39954 0.40394,0.15506 0.73445,0.46164 0.73445,0.6814 0,0.57542 -0.25901,0.49459 -0.90338,-0.28186 z m -9.79981,-24.18869 c 0.0215,-0.52122 0.1275,-0.6272 0.27033,-0.27033 0.12925,0.32306 0.11336,0.70899 -0.0353,0.85763 -0.14868,0.14865 -0.25443,-0.1156 -0.235,-0.5873 z m 20.80286,-23.8483 c -0.42842,-0.69319 1.42414,-4.71656 2.73362,-5.93679 l 1.12758,-1.05077 -0.89089,1.56601 c -0.48999,0.86135 -1.13867,2.37142 -1.44152,3.35575 -0.64106,2.08376 -1.11877,2.72925 -1.52879,2.0658 z m -0.80112,94.58291 c 5.71566,-4.29656 11.94558,-12.2897 13.35354,-17.13288 1.16366,-4.00282 0.20535,-6.93145 -2.85449,-8.72355 -1.17432,-0.68773 -20.79699,-4.34772 -23.31007,-4.34772 -0.70107,0 -0.63031,0.46077 0.66988,4.36247 2.00466,6.01571 2.52065,9.63407 1.98072,13.88934 -0.47601,3.75157 -1.08697,5.81339 -2.36521,7.9823 -1.05322,1.78707 -0.69495,1.95445 4.18229,1.95445 4.04857,0 4.60655,-0.27197 9.59087,-4.6752 4.93076,-4.35587 9.30227,-10.82733 10.05615,-14.88686 l 0.39715,-2.13865 -0.1885,2.3572 c -0.25235,3.15524 -2.58882,7.52074 -6.2549,11.68669 -3.19625,3.63206 -8.38671,7.98854 -10.01084,8.40231 -0.5763,0.14691 -2.99246,0.16331 -5.36925,0.0364 -3.31066,-0.17658 -4.62622,-0.0746 -5.62453,0.4377 -1.6167,0.82901 -4.15151,0.20675 -6.51362,-1.59887 -0.85392,-0.65278 -2.76672,-1.52351 -4.25065,-1.93502 l -2.69808,-0.74818 2.6244,0.25653 c 2.42971,0.23754 2.60515,0.19349 2.36495,-0.59415 -0.1427,-0.46789 -0.69028,-2.86004 -1.21683,-5.31584 -0.59472,-2.77366 -1.61465,-5.77236 -2.69243,-7.91596 -1.13178,-2.25096 -1.91117,-4.58778 -2.24159,-6.72079 -0.27861,-1.79851 -1.07517,-4.39724 -1.77014,-5.77505 l -1.26359,-2.50515 -7.52229,-1.18953 c -4.13727,-0.65426 -7.79288,-1.18805 -8.12358,-1.18623 -1.40208,0.009 0.002,4.39785 3.95784,12.38249 2.17468,4.38857 4.32256,8.49329 4.77309,9.12161 0.45051,0.62833 2.7305,2.9204 5.06665,5.09339 2.33616,2.17308 4.7942,4.69437 5.46233,5.60282 1.19183,1.62064 1.35253,1.68342 8.50442,3.32063 9.23296,2.11358 10.983,2.39726 15.18735,2.46187 3.39336,0.052 3.44671,0.0356 6.09896,-1.9586 z m -50.40053,0.6781 c 0.88644,-0.74332 0.95078,-0.95511 0.40015,-1.31666 -0.43383,-0.28498 -0.88865,-0.2574 -1.34232,0.0815 -0.54446,0.40639 -0.58282,0.39477 -0.18573,-0.0564 0.38341,-0.43545 -0.0158,-1.09829 -1.70723,-2.83489 -1.59686,-1.63945 -2.96205,-3.82823 -4.93443,-7.91136 -1.49973,-3.10477 -4.79762,-8.87097 -7.32865,-12.81386 -2.94322,-4.585 -4.76745,-7.9078 -5.06126,-9.21883 -0.56549,-2.52328 -0.15957,-5.10796 1.88847,-12.02458 0.83799,-2.83002 1.65538,-5.99802 1.81643,-7.03994 l 0.29281,-1.89452 -5.70898,4.71804 c -3.13994,2.59492 -6.84959,5.71131 -8.24366,6.92529 -5.64987,4.9202 -5.13409,9.25101 2.17014,18.22172 1.05769,1.29906 2.8664,4.31919 4.01932,6.71151 4.13195,8.57386 6.41864,10.95439 14.34208,14.93049 3.00773,1.50937 5.80746,3.11874 6.22161,3.57639 0.96986,1.07166 2.0396,1.05449 3.36125,-0.0538 z m -9.61552,-4.7196 c 0.23524,-0.61306 1.51916,-1.5536 2.12075,-1.5536 0.12803,0 -0.27058,0.50336 -0.8858,1.11859 -1.28803,1.28804 -1.60516,1.39975 -1.23495,0.43501 z m -19.94039,-26.32951 c 0.46044,-0.41195 3.09478,-1.62255 3.09478,-1.42221 0,0.25775 -2.48051,1.58907 -2.96069,1.58907 -0.17629,0 -0.23662,-0.0754 -0.13409,-0.16686 z m 124.158985,27.41002 c 1.389715,-0.51991 3.883324,-1.71404 5.541342,-2.65362 3.941093,-2.23327 10.683288,-5.08463 14.337345,-6.06341 1.770501,-0.47422 4.637559,-0.79146 7.328226,-0.8108 l 4.419877,-0.0321 -2.278382,-1.03394 c -3.174465,-1.44042 -7.206316,-2.00605 -11.930626,-1.67363 -6.547245,0.46069 -10.047434,-1.10107 -12.478609,-5.56795 -1.089836,-2.0024 -1.242647,-2.7074 -1.078545,-4.97605 0.155369,-2.14784 0.43022,-2.89264 1.466867,-3.97471 1.436798,-1.49966 3.81508,-2.44861 5.108252,-2.03814 0.474198,0.15047 1.39367,0.97046 2.04327,1.8221 1.42993,1.87475 3.142871,2.09512 3.870584,0.49798 0.397203,-0.87176 0.243283,-1.49168 -0.904468,-3.64256 -1.589271,-2.97815 -1.72726,-4.82219 -0.665211,-8.88918 1.686559,-6.45845 -0.700958,-12.24616 -5.960946,-14.45038 -1.686629,-0.70681 -4.153171,-0.79935 -4.153171,-0.15593 0,0.24613 0.789939,0.44742 1.755419,0.44742 3.377256,0 5.429892,2.94485 4.471662,6.41525 -0.617113,2.23501 -2.29101,3.42844 -4.808764,3.42844 -1.604785,0 -2.308485,-0.2568 -3.295438,-1.20237 -0.690222,-0.66119 -1.254944,-1.4523 -1.254944,-1.75775 0,-0.65981 -1.222482,-1.96173 -1.842049,-1.96173 -0.86559,0 -2.632327,2.22165 -2.632327,3.31005 0,1.36307 1.50924,2.50663 3.308248,2.50663 2.055125,0 2.955882,1.1224 2.955882,3.68332 0,2.88926 -1.718509,4.81803 -4.292868,4.81803 -1.800404,0 -3.313573,-1.01425 -3.313573,-2.22104 0,-0.407 -0.279958,-1.12292 -0.622142,-1.5908 -1.481844,-2.0266 -4.565048,1.70016 -3.116993,3.76752 0.507735,0.72486 1.136902,0.94072 2.757767,0.94601 1.154984,0 2.321502,0.1548 2.592277,0.33554 0.909958,0.60768 1.521156,2.26986 1.521156,4.13698 0,1.4412 -0.283662,2.13726 -1.274995,3.12862 -1.282791,1.28276 -3.947805,2.11185 -5.219634,1.62385 -0.709354,-0.27223 -0.852997,-0.56164 -1.306693,-2.63212 -0.334266,-1.52559 -2.260191,-1.76374 -2.713461,-0.33554 -0.4839,1.52454 0.15688,2.50602 2.451689,3.75504 2.897637,1.57701 4.036152,3.06739 4.036152,5.28349 0,2.26926 -0.546518,3.29903 -2.954165,5.56647 -1.599677,1.5066 -1.967654,2.14689 -1.967654,3.42393 0,1.3595 -0.18946,1.63685 -1.409082,2.06198 -0.77499,0.27015 -2.09006,0.49121 -2.92239,0.49121 -4.03505,0 -1.04276,4.64415 4.196345,6.51291 2.628546,0.93759 7.293492,0.80117 10.23477,-0.29929 z m -19.257285,-6.77291 c 0.17446,-1.04591 1.2081,-4.6745 2.29698,-8.06347 1.8476,-5.7506 2.03801,-7.03752 1.04114,-7.03752 -0.64779,0 -5.53244,15.92454 -5.09952,16.62502 0.60724,0.98251 1.46743,0.23823 1.7614,-1.52403 z m -112.65716,-3.07442 c 2.61844,-1.26758 3.96157,-3.43476 4.82102,-7.77884 0.38917,-1.96719 0.92202,-4.01053 1.18411,-4.54086 0.40609,-0.82181 0.16468,-1.40131 -1.63318,-3.92086 -1.3424,-1.88116 -2.19584,-3.59867 -2.34655,-4.7222 l -0.23683,-1.76582 -2.03111,3.89684 c -1.91022,3.66484 -2.04996,4.17644 -2.34772,8.59493 -0.17412,2.5839 -0.4555,5.30213 -0.6253,6.04034 -0.27308,1.18753 -0.24501,1.24087 0.24324,0.46277 0.30357,-0.48376 0.69836,-1.49047 0.87733,-2.23717 l 0.32538,-1.3576 0.002,1.34225 c 0.002,2.09173 -0.57024,3.58514 -1.35027,3.52478 -0.72534,-0.0564 -1.47695,2.22416 -0.99184,3.00903 0.4142,0.67021 2.04317,0.45322 4.11051,-0.54759 z m 12.92381,-2.06675 c -0.58465,-1.13056 -1.12242,-1.40695 -3.94047,-2.02539 -1.79489,-0.39382 -3.31285,-0.66666 -3.37324,-0.6063 -0.0604,0.0607 -0.16449,0.57525 -0.23132,1.14408 -0.1119,0.95251 0.19684,1.11209 3.90544,2.01776 2.21481,0.54091 4.09211,0.9375 4.17179,0.8813 0.0797,-0.0564 -0.15982,-0.69137 -0.5322,-1.41145 z m 161.027996,-5.27725 c 0.153608,-6.80561 0.778474,-10.69871 3.181993,-19.82484 0.86474,-3.28342 1.490022,-6.05205 1.389533,-6.15256 -0.267401,-0.26738 -4.686541,16.13059 -5.196175,19.28133 -0.737097,4.55699 -1.020386,9.08137 -0.701678,11.20666 0.577461,3.85079 1.184184,1.7875 1.326327,-4.51059 z m 3.392276,1.29724 c -0.139801,-4.30375 0.545625,-8.98762 2.87214,-19.62667 1.07629,-4.92185 2.192802,-11.16357 2.481138,-13.87061 0.534932,-5.02202 0.295127,-12.35787 -0.483321,-14.78557 -0.460911,-1.43739 -0.45484,-1.3197 0.231731,4.49455 0.414808,3.51264 -0.501672,9.82929 -3.168941,21.84112 -1.355953,6.10651 -2.778884,13.22893 -3.162072,15.82766 -0.8109,5.49943 -0.536111,9.67449 0.621969,9.45004 0.582483,-0.113 0.692321,-0.71523 0.607356,-3.33052 z m 8.5899,0.19574 c 4.154029,-4.3668 8.877437,-13.33456 7.02342,-13.33456 -0.246084,0 -0.447434,0.22817 -0.447434,0.50717 0,0.95623 -6.021975,10.00664 -8.221863,12.35664 -1.977115,2.11203 -2.095175,2.34905 -1.169952,2.34905 0.6266,0 1.727849,-0.73456 2.815829,-1.8783 z m 5.675402,-3.32766 c 1.379517,-2.27229 3.585457,-7.51545 2.798302,-6.65115 -0.224125,0.24613 -0.754364,1.39056 -1.178304,2.54314 -0.423949,1.15267 -1.558804,3.26686 -2.521917,4.69809 -3.116567,4.63167 -3.247774,4.86253 -1.860366,3.27354 0.752049,-0.86127 1.995086,-2.59994 2.762285,-3.86362 z m -180.951274,2.63316 c -1.60126,-3.08794 -3.69589,-6.06939 -3.95813,-5.63386 -0.12468,0.2071 -0.29894,1.77527 -0.38725,3.48489 l -0.16058,3.10842 2.01347,0.539 c 3.65175,0.97765 3.74682,0.9205 2.49249,-1.49845 z m 112.662386,0.75061 c 1.167923,-0.91868 1.526065,-2.56924 0.907348,-4.18164 -0.493798,-1.28683 -1.01886,-0.73483 -0.76851,0.80793 0.304962,1.87917 -1.150604,3.63398 -2.692634,3.24605 -0.93864,-0.23615 -0.94132,-0.22488 -0.0968,0.40605 1.121594,0.83803 1.248247,0.82467 2.650625,-0.27839 z m 85.602999,0.65304 c 0.85128,-0.22826 0.913956,-0.40006 0.487458,-1.33617 -0.6447,-1.41493 -1.072491,-1.355 -1.911812,0.26815 -0.74289,1.43652 -0.533882,1.59323 1.424354,1.06802 z m -105.646985,-8.09244 c 0.22098,-1.38188 0.13011,-1.85289 -0.39643,-2.05496 -0.51573,-0.1979 -0.7553,0.16513 -0.97769,1.48136 -0.35393,2.09494 0.11486,4.10437 0.70958,3.04164 0.20782,-0.37136 0.50687,-1.48197 0.66454,-2.46804 z m 24.718056,-2.8367 c 1.156493,-1.07739 1.325261,-3.61272 0.297277,-4.46593 -0.375087,-0.31126 -0.811334,-0.43658 -0.969452,-0.27848 -0.158109,0.15811 -0.05255,0.2875 0.234532,0.2875 0.293687,0 0.522009,0.65469 0.522009,1.49671 0,1.85289 -1.323075,3.2 -2.781772,2.83219 -0.984291,-0.24812 -0.989858,-0.23381 -0.152914,0.39148 1.16167,0.86786 1.688233,0.81921 2.85032,-0.26347 z m -11.558126,-2.67279 c -1.12182,-0.69337 -5.24107,-1.00862 -7.01837,-0.53709 -1.56356,0.41472 -1.41503,0.45634 1.88195,0.52798 1.96872,0.0425 3.9822,0.23954 4.47438,0.43744 1.09145,0.43892 1.5672,0.13105 0.66204,-0.42833 z m -15.20048,-1.25163 c -1.35493,-0.14405 -3.13535,0.55435 -3.13535,1.22986 0,0.2136 0.99892,0.0555 2.21981,-0.35133 2.02639,-0.67541 2.10617,-0.75199 0.91554,-0.87853 z m -6.26742,-2.43421 c 0,-0.73846 -0.7878,0.10173 -1.04233,1.11174 -0.24647,0.978 -0.23261,0.98312 0.39343,0.14518 0.3569,-0.47769 0.6489,-1.04331 0.6489,-1.25692 z m -42.05915,-0.0624 c 0,-0.0957 -0.80601,-1.55334 -1.79115,-3.2392 -0.98513,-1.68577 -2.42951,-4.84969 -3.20972,-7.03083 l -1.41858,-3.9657 -1.58974,0.25792 c -0.87435,0.14197 -2.09782,0.62755 -2.71882,1.07922 -1.63972,1.19256 -3.14073,4.63868 -3.44645,7.91257 l -0.26611,2.8498 2.18661,0.31958 c 1.20264,0.17579 4.20008,0.67403 6.66099,1.10731 5.0249,0.8846 5.59297,0.95667 5.59297,0.70933 z m 64.65475,-0.27327 c -0.15209,-0.24613 -1.22104,-0.43328 -2.37545,-0.41602 -1.58422,0.0234 -1.87948,0.12575 -1.20404,0.41602 1.27159,0.54637 3.9172,0.54637 3.57949,0 z m -14.76543,-1.06959 1.78974,-0.68088 -1.86964,-0.0199 c -1.1258,-0.0121 -2.1494,0.26009 -2.57278,0.6834 -1.3812,1.38119 -0.94026,1.38405 2.65268,0.0173 z m 29.998652,-2.26587 c 1.068701,-1.06872 1.378624,-2.57228 0.826668,-4.01071 -0.466887,-1.21667 -0.898476,-0.77411 -0.727879,0.74645 0.204447,1.82227 -0.69977,3.08309 -2.276309,3.17398 -1.084225,0.0624 -1.131915,0.1293 -0.449134,0.62928 1.062586,0.77792 1.373506,0.71418 2.626654,-0.539 z m -18.812712,-4.34608 c -1.47655,-0.7559 -2.74981,-1.43218 -2.82948,-1.50295 -0.0797,-0.0711 0.18686,-0.77004 0.59229,-1.55403 0.98647,-1.90762 0.65867,-2.06901 -0.89934,-0.44282 -0.94907,0.99066 -1.69515,1.33947 -2.87573,1.3445 -2.47952,0.0104 -3.01846,0.71063 -0.58745,0.76292 1.35458,0.0295 3.18004,0.53952 5.03368,1.40721 3.7941,1.77614 5.04143,1.76435 1.56603,-0.0147 z m 64.960393,-4.48319 c -0.142828,-0.35696 -0.24885,-0.25089 -0.270323,0.27033 -0.01943,0.47161 0.08629,0.73595 0.235009,0.5873 0.148673,-0.14873 0.16457,-0.53466 0.0353,-0.85763 z m -39.883551,-1.01434 c 1.182927,-1.18293 1.464247,-3.27857 0.56134,-4.18155 -0.828055,-0.82806 -1.321809,-0.63527 -0.743723,0.29044 0.807223,1.29256 0.104166,3.17303 -1.427025,3.81688 -0.733793,0.30857 -1.196586,0.69857 -1.028434,0.86673 0.586568,0.58653 1.547469,0.29782 2.637842,-0.7925 z m 40.330994,-1.22283 c -0.142837,-0.35696 -0.248858,-0.25089 -0.270323,0.27033 -0.01943,0.47161 0.08629,0.73595 0.235,0.58722 0.148682,-0.14865 0.16457,-0.53458 0.0353,-0.85755 z m -13.645076,-0.35288 c 3.457685,-1.06794 6.583904,-3.06471 8.41193,-5.37282 1.652294,-2.08609 3.915986,-6.8272 4.276148,-8.95588 0.219303,-1.29611 0.08256,-1.14001 -0.793139,0.90567 -3.631483,8.48314 -10.80205,13.39103 -19.588044,13.40707 -1.601213,0 -3.601346,-0.19262 -4.444734,-0.43449 -2.404299,-0.68956 -2.167061,-0.14093 0.261642,0.60499 3.169696,0.97358 8.446109,0.90498 11.876197,-0.15454 z m -64.02792,-10.08444 c 1.0937,-0.37266 3.11271,-1.55985 4.4867,-2.63828 2.36523,-1.85636 2.51169,-2.08817 2.75241,-4.35613 0.13984,-1.31745 0.40293,-2.79803 0.58464,-3.29028 0.18172,-0.49217 -0.27723,-0.14709 -1.01989,0.76674 -2.91562,3.58775 -6.40967,5.94547 -10.19902,6.88193 l -2.23719,0.55287 2.0962,0.0382 c 1.15291,0.0208 2.66301,-0.16443 3.35578,-0.41194 1.18401,-0.42305 1.20673,-0.40909 0.37853,0.23285 -1.36624,1.05901 -4.07809,1.62793 -7.21728,1.51414 -2.96422,-0.10745 -3.99023,0.2372 -2.85093,0.95771 1.05463,0.66701 7.67322,0.50093 9.87005,-0.2476 z m 77.225553,-7.0128 c -0.142828,-0.35687 -0.24885,-0.25089 -0.270323,0.27033 -0.01943,0.4717 0.08629,0.73595 0.235009,0.5873 0.148673,-0.14873 0.16457,-0.53458 0.0353,-0.85763 z m 62.335644,71.36354 c 0,-3.2058 -0.0945,-6.81332 -0.210006,-8.01655 l -0.210005,-2.18783 0.435691,1.78976 c 0.474935,1.9508 0.682975,13.54478 0.250819,13.97694 -0.146584,0.14656 -0.266499,-2.35651 -0.266499,-5.56232 z m -249.976247,-9.19767 c -0.75701,-0.79978 -1.60189,-1.89391 -1.87752,-2.43143 -0.6356,-1.23957 -0.57533,-4.63418 0.1336,-7.52405 l 0.5488,-2.23717 0.004,4.02693 c 0.004,4.29221 0.70164,6.70188 2.49145,8.60707 0.52334,0.55712 0.75457,1.01286 0.51386,1.01286 -0.24071,0 -1.05704,-0.65434 -1.81406,-1.45421 z m -4.31129,-0.0512 c -1.04785,-1.59921 -1.28289,-2.97485 -0.85128,-4.98238 l 0.38478,-1.78975 0.33708,2.8864 c 0.18541,1.58751 0.54019,3.26591 0.7884,3.72971 0.68128,1.27296 0.1546,1.39767 -0.65898,0.15602 z m 27.91936,0.34959 c 0.0215,-0.52122 0.12749,-0.62728 0.27032,-0.27032 0.12926,0.32297 0.11336,0.7089 -0.0353,0.85763 -0.14868,0.14865 -0.25443,-0.11569 -0.235,-0.58731 z M 16.123182,295.98462 c 0.676737,-0.10251 1.784134,-0.10251 2.460905,0 0.676745,0.10251 0.123029,0.18637 -1.230452,0.18637 -1.353516,0 -1.907232,-0.0841 -1.230453,-0.18637 z m -156.715072,-9.77639 c 0,-0.13937 1.25841,-1.50668 2.79648,-3.03852 1.88279,-1.87509 3.50726,-4.11798 4.9719,-6.86449 2.63631,-4.9437 4.29102,-7.01618 6.94621,-8.70004 2.44066,-1.54788 3.59041,-1.71821 1.35801,-0.20129 -2.0787,1.41258 -3.28274,3.07268 -6.44475,8.88641 -3.04423,5.59709 -5.01449,8.064 -7.42092,9.29168 -1.81875,0.92788 -2.20693,1.03802 -2.20693,0.62625 z m 32.62345,-18.8105 c -0.4542,-0.54724 -1.16107,-0.67186 -2.96312,-0.52244 -1.30165,0.10798 -2.36663,0.13452 -2.36663,0.059 0,-0.37223 2.76945,-1.50252 3.68144,-1.50252 1.28901,0 3.03013,1.17157 3.03013,2.03892 0,0.85381 -0.6407,0.81998 -1.38182,-0.0728 z m -97.01917,-8.93845 c 0.0215,-0.52122 0.12749,-0.6272 0.27033,-0.27032 0.12925,0.32305 0.11336,0.70889 -0.0353,0.85763 -0.14868,0.14864 -0.25443,-0.11561 -0.235,-0.58731 z m 0.45979,-1.97613 c -0.0628,-1.30261 1.66273,-7.17245 2.49458,-8.48635 0.66659,-1.05284 5.87598,-5.26727 8.44267,-6.83032 0.25857,-0.15741 -1.26985,1.46254 -3.3965,3.60015 -4.15257,4.17375 -6.00289,6.91826 -6.92658,10.27393 -0.32,1.16256 -0.59638,1.8117 -0.61417,1.44259 z m 97.48786,-3.36295 c -0.76621,-0.92319 -0.3456,-5.82847 0.68619,-8.00286 0.43768,-0.92232 1.28113,-1.99494 1.87433,-2.38365 0.93089,-0.60994 1.16539,-0.61982 1.71288,-0.072 0.34888,0.3489 0.73973,1.33636 0.86854,2.19433 0.20453,1.36237 0.18353,1.4086 -0.16566,0.36468 -0.69942,-2.09095 -0.95618,-2.28756 -1.8872,-1.44502 -1.02167,0.92458 -2.18831,4.6125 -2.18831,6.91749 0,1.7417 0.93452,2.96306 1.83928,2.40385 0.3392,-0.20961 0.41889,-0.14153 0.21692,0.18525 -0.45642,0.73847 -2.29325,0.63804 -2.95697,-0.16174 z m -100.6513,-2.00631 c -0.016,-1.42923 2.20605,-5.22929 4.07002,-6.96015 3.34199,-3.10339 3.84482,-3.22662 1.22853,-0.3012 -1.38023,1.54337 -3.13535,3.95954 -3.90026,5.36926 -0.76491,1.40972 -1.39414,2.2612 -1.39829,1.89209 z m 103.34182,-0.89492 c 0,-0.27509 -0.25168,-0.35818 -0.5593,-0.18446 -0.44743,0.25263 -0.44743,0.19522 0,-0.28681 0.30762,-0.33137 0.5593,-1.06568 0.5593,-1.63165 0,-0.56597 0.17787,-1.02908 0.39526,-1.02908 0.21738,0 0.54075,-0.45306 0.71858,-1.0068 0.26556,-0.82684 0.35988,-0.87098 0.52791,-0.24717 0.11252,0.41776 -0.01,1.15961 -0.27114,1.64848 -0.26166,0.48887 -0.47573,1.29299 -0.47573,1.78681 0,0.49381 -0.20135,1.02232 -0.44744,1.17443 -0.24609,0.15212 -0.44744,0.0512 -0.44744,-0.22375 z m 12.444346,-18.1212 c 0.470859,-4.79401 0.319159,-10.91441 -0.338255,-13.64687 -0.646998,-2.68909 -2.531387,-6.99605 -4.062178,-9.28431 -0.535036,-0.79978 -0.84828,-1.45421 -0.696103,-1.45421 0.454893,0 4.045042,5.85484 5.213,8.50135 0.986329,2.23492 1.081207,3.01545 1.033369,8.50127 -0.03582,4.10827 -0.277357,6.75609 -0.755076,8.2776 l -0.702389,2.23726 z m -6.237288,-25.61585 c -0.556561,-0.70967 -0.540733,-0.72546 0.168933,-0.16885 0.745318,0.58444 0.982339,0.95189 0.614077,0.95189 -0.09291,0 -0.445266,-0.35236 -0.78301,-0.78304 z m -19.266648,-12.49827 c 0.32299,-0.12931 0.70891,-0.11335 0.8576,0.0356 0.14867,0.14873 -0.1156,0.25445 -0.58727,0.23502 -0.52124,-0.0217 -0.62726,-0.12748 -0.27033,-0.27032 z m -2.48036,-0.45184 c 0.43535,-0.11352 1.03939,-0.10598 1.34232,0.0165 0.30293,0.12254 -0.0532,0.21534 -0.79153,0.20623 -0.73828,-0.009 -0.98613,-0.10945 -0.55079,-0.22288 z" id="path7471-3" inkscape:connector-curvature="0" style="fill:#524100;fill-opacity:1"/>
</g></g>
</g>
</svg>