<?xml version="1.0" encoding="utf-8"?>
<!-- Created with Inkscape (http://www.inkscape.org/) --><svg height="152.42821mm" id="svg6779" inkscape:version="0.92.2 (unknown)" sodipodi:docname="niveau4.svg" version="1.1" viewBox="0 0 338.49999 540.09995" width="95.532219mm" xmlns="http://www.w3.org/2000/svg" xmlns:cc="http://creativecommons.org/ns#" xmlns:dc="http://purl.org/dc/elements/1.1/" xmlns:inkscape="http://www.inkscape.org/namespaces/inkscape" xmlns:rdf="http://www.w3.org/1999/02/22-rdf-syntax-ns#" xmlns:sodipodi="http://sodipodi.sourceforge.net/DTD/sodipodi-0.dtd" xmlns:svg="http://www.w3.org/2000/svg">
<defs id="defs6781"/>
<sodipodi:namedview bordercolor="#666666" borderopacity="1.0" id="base" inkscape:current-layer="layer1" inkscape:cx="35.268966" inkscape:cy="467.89903" inkscape:document-units="px" inkscape:pageopacity="0.0" inkscape:pageshadow="2" inkscape:window-height="728" inkscape:window-maximized="1" inkscape:window-width="1366" inkscape:window-x="0" inkscape:window-y="21" inkscape:zoom="0.98994949" pagecolor="#ffffff" showgrid="false"/>
<metadata id="metadata6784">
<rdf:RDF>
<cc:Work rdf:about="">
<dc:format>image/svg+xml</dc:format>
<dc:type rdf:resource="http://purl.org/dc/dcmitype/StillImage"/>
<dc:title/>
</cc:Work>
</rdf:RDF>
</metadata>
<g id="layer1" inkscape:groupmode="layer" inkscape:label="Calque 1" transform="translate(0,0.23029041)">
<rect height="539.09998" id="rect4326-0-3-6-4-3-2-61-6-9-9-5-0-7-0-5-8-8-9-4-5-5" inkscape:export-xdpi="90" inkscape:export-ydpi="90" style="fill:#ffffff;fill-opacity:1;stroke:#000000;stroke-opacity:1" width="337.5" x="0.5" y="0.26970959"/>
<rect height="486.97104" id="rect2985-3-0-7-7-6-9-6-2-0-3-5-4-5-0-77-3-1-3-5-5-4-3-9-7-0-1-8-1" inkscape:export-filename="/home/thomas/Documents/fallacies/png/rect2985-3-0-7-7.png" inkscape:export-xdpi="90" inkscape:export-ydpi="90" rx="9.2935619" ry="7.1613393" style="fill:#ffffff;fill-opacity:1;stroke:#face00;stroke-width:12;stroke-miterlimit:4;stroke-dasharray:none;stroke-dashoffset:0;stroke-opacity:1" width="285.0025" x="26.906189" y="26.612749"/>
<ellipse cx="169.40732" cy="279.7749" id="oval" inkscape:label="#path6246-7-6-6-9-7-6-9-3-1-1-722-4-6-4-7-1-9-6-2-0-7-5-4-6-9-9" rx="131.36859" ry="205.59465" style="fill:#face00;fill-opacity:1;stroke:#face00;stroke-width:1.01065052;stroke-opacity:1"/>
<rect height="15" id="sfam_3_active" inkscape:label="#rect13148-3-0-9-3-80-7-76-2" style="fill:#ffffff;fill-opacity:1;stroke:none;stroke-width:5.83799982;stroke-linecap:round;stroke-linejoin:bevel;stroke-miterlimit:4;stroke-dasharray:none;stroke-dashoffset:0;stroke-opacity:1" transform="rotate(90)" width="65.714287" x="50.147449" y="-34.050476"/>
<text id="sfam_3" inkscape:label="#text4212-1-29-1-2-8-9-0-9-6-9-8-3-1-0-6-8-0-4-2-3-6-9-3-6-2-6-4-2" style="font-style:normal;font-variant:normal;font-weight:bold;font-stretch:normal;font-size:12.00000095px;line-height:0%;font-family:'Liberation Serif';-inkscape-font-specification:'Liberation Serif, Bold';font-variant-ligatures:normal;font-variant-caps:normal;font-variant-numeric:normal;font-feature-settings:normal;text-align:end;letter-spacing:0px;word-spacing:0px;writing-mode:lr-tb;text-anchor:end;fill:#1b0603;fill-opacity:1;stroke:none" transform="rotate(-90)" x="-51.643555" xml:space="preserve" y="31.116638"><tspan id="tspan4214-27-1-2-9-7-6-4-1-1-1-3-9-59-96-1-6-2-1-8-8-2-7-4-5-4-7-3-9" sodipodi:role="line" style="font-style:normal;font-variant:normal;font-weight:bold;font-stretch:normal;font-size:12.00000095px;line-height:1.25;font-family:'Liberation Serif';-inkscape-font-specification:'Liberation Serif, Bold';font-variant-ligatures:normal;font-variant-caps:normal;font-variant-numeric:normal;font-feature-settings:normal;text-align:end;writing-mode:lr-tb;text-anchor:end;fill:#1b0603;fill-opacity:1;stroke:none" x="-51.643555" y="31.116638">Manipulation
mentale</tspan></text>
<rect height="17.763229" id="rect5818-6-6-9-3-0-7" style="fill:#face00;fill-opacity:1;stroke:none;stroke-width:0.91443771;stroke-linecap:round;stroke-linejoin:bevel;stroke-miterlimit:4;stroke-dasharray:none;stroke-dashoffset:0;stroke-opacity:1" width="278.215" x="30.299866" y="495.76239"/>
<text id="fam_num" inkscape:label="#text5665-3-4-9-4-3-3-5-7-5-8-4-6-8-6-6-3-0-6-3-4" style="font-style:normal;font-weight:normal;line-height:0%;font-family:sans-serif;letter-spacing:0px;word-spacing:0px;fill:#000000;fill-opacity:1;stroke:none" x="40.722107" xml:space="preserve" y="513.8327"><tspan id="tspan5667-04-4-6-18-8-8-0-0-1-5-7-0-9-2-1-9-1-5-0-3" sodipodi:role="line" style="font-style:normal;font-variant:normal;font-weight:bold;font-stretch:normal;font-size:17.5px;line-height:1.25;font-family:STIX;-inkscape-font-specification:'STIX Bold';fill:#ffffff" x="40.722107" y="513.8327">2</tspan></text>
<text id="sfam_2" inkscape:label="#text4212-1-29-1-2-8-9-0-9-6-9-15-4-9-9-24-4-6-7-5-4-2-6-9-5" style="font-style:normal;font-variant:normal;font-weight:bold;font-stretch:normal;line-height:0%;font-family:STIX;-inkscape-font-specification:'STIX Bold';letter-spacing:0px;word-spacing:0px;fill:#ffffff;fill-opacity:1;stroke:none" transform="rotate(-90)" x="-271.55652" xml:space="preserve" y="29.420349"><tspan id="tspan4214-27-1-2-9-7-6-4-1-1-1-9-8-7-7-0-88-0-1-6-8-0-3-2-6" sodipodi:role="line" style="font-style:normal;font-variant:normal;font-weight:bold;font-stretch:normal;font-size:10px;line-height:1.25;font-family:STIX;-inkscape-font-specification:'STIX Bold'" x="-271.55652" y="29.420349">Appel à l'émotion</tspan></text>
<text id="sfam_1" inkscape:label="#text4212-1-29-1-2-8-9-0-9-6-9-17-4-1-5-6-8-7-5-1-12-0-9-54-1" style="font-style:normal;font-variant:normal;font-weight:bold;font-stretch:normal;line-height:0%;font-family:STIX;-inkscape-font-specification:'STIX Bold';letter-spacing:0px;word-spacing:0px;fill:#ffffff;fill-opacity:1;stroke:none" transform="rotate(-90)" x="-487.89233" xml:space="preserve" y="29.420349"><tspan id="tspan4214-27-1-2-9-7-6-4-1-1-1-85-8-3-3-2-9-0-8-7-9-6-4-0-4" sodipodi:role="line" style="font-style:normal;font-variant:normal;font-weight:bold;font-stretch:normal;font-size:10px;line-height:1.25;font-family:STIX;-inkscape-font-specification:'STIX Bold'" x="-487.89233" y="29.420349">Procédé
rhétorique</tspan></text>
<text id="ssfam_3" inkscape:label="#text4212-1-29-1-2-8-9-0-9-6-9-8-3-1-0-6-92-3-6-9-3-6-2-3-39-8-5-0" style="font-style:normal;font-variant:normal;font-weight:bold;font-stretch:normal;font-size:12.00000095px;line-height:0%;font-family:'Liberation Serif';-inkscape-font-specification:'Liberation Serif, Bold';font-variant-ligatures:normal;font-variant-caps:normal;font-variant-numeric:normal;font-feature-settings:normal;text-align:start;letter-spacing:0px;word-spacing:0px;writing-mode:lr-tb;text-anchor:start;fill:#500000;fill-opacity:1;stroke:none" transform="rotate(90)" x="38.246761" xml:space="preserve" y="-309.22137"><tspan id="tspan4214-27-1-2-9-7-6-4-1-1-1-3-9-59-96-1-318-6-04-1-7-5-8-9-0-1-9-3" sodipodi:role="line" style="font-style:normal;font-variant:normal;font-weight:bold;font-stretch:normal;font-size:12.00000095px;line-height:1.25;font-family:'Liberation Serif';-inkscape-font-specification:'Liberation Serif, Bold';font-variant-ligatures:normal;font-variant-caps:normal;font-variant-numeric:normal;font-feature-settings:normal;text-align:start;writing-mode:lr-tb;text-anchor:start;fill:#ffffff;fill-opacity:1;stroke:none" x="38.246761" y="-309.22137">Appel
aux conséquences</tspan></text>
<text id="ssfam_2" inkscape:label="#text4212-1-29-1-2-8-9-0-9-6-9-15-7-7-8-9-7-6-1-0-8-29-4-1" style="font-style:normal;font-variant:normal;font-weight:bold;font-stretch:normal;line-height:0%;font-family:STIX;-inkscape-font-specification:'STIX Bold';letter-spacing:0px;word-spacing:0px;fill:#ffffff;fill-opacity:1;stroke:none" transform="rotate(90)" x="220.50974" xml:space="preserve" y="-309.22137"><tspan id="tspan4214-27-1-2-9-7-6-4-1-1-1-9-41-5-8-6-2-8-2-8-38-3-6-2" sodipodi:role="line" style="font-style:normal;font-variant:normal;font-weight:bold;font-stretch:normal;font-size:10px;line-height:1.25;font-family:STIX;-inkscape-font-specification:'STIX Bold'" x="220.50974" y="-309.22137">Repoussoir</tspan></text>
<rect height="15" id="ssfam_1_active" inkscape:label="#rect13148-3-0-9-3-80-7-7-3-3-7" style="fill:#ffffff;fill-opacity:1;stroke:none;stroke-width:5.83799982;stroke-linecap:round;stroke-linejoin:bevel;stroke-miterlimit:4;stroke-dasharray:none;stroke-dashoffset:0;stroke-opacity:1" transform="rotate(90)" width="124.30313" x="339.23779" y="-319.44952"/>
<text id="ssfam_1" inkscape:label="#text4212-1-29-1-2-8-9-0-9-6-9-17-63-3-97-3-6-4-4-8-73-9-92-7" style="font-style:normal;font-variant:normal;font-weight:bold;font-stretch:normal;font-size:12.00000095px;line-height:0%;font-family:STIX;-inkscape-font-specification:'STIX, Bold';font-variant-ligatures:normal;font-variant-caps:normal;font-variant-numeric:normal;font-feature-settings:normal;text-align:end;letter-spacing:0px;word-spacing:0px;writing-mode:lr-tb;text-anchor:end;fill:#1b0603;fill-opacity:1;stroke:none" transform="rotate(90)" x="462.18921" xml:space="preserve" y="-308.55173"><tspan id="tspan4214-27-1-2-9-7-6-4-1-1-1-85-85-5-76-3-4-8-7-5-1-0-2-9" sodipodi:role="line" style="font-style:normal;font-variant:normal;font-weight:bold;font-stretch:normal;font-size:12.00000095px;line-height:1.25;font-family:STIX;-inkscape-font-specification:'STIX, Bold';font-variant-ligatures:normal;font-variant-caps:normal;font-variant-numeric:normal;font-feature-settings:normal;text-align:end;writing-mode:lr-tb;text-anchor:end;fill:#1b0603;fill-opacity:1" x="462.18921" y="-308.55173">Connivence</tspan></text>
<rect height="23.57143" id="rect13148-3-36-1-5-8-4-8" rx="8.7534218" ry="9.7777777" style="fill:#ffffff;fill-opacity:1;stroke:none;stroke-width:5.83799982;stroke-linecap:round;stroke-linejoin:bevel;stroke-miterlimit:4;stroke-dasharray:none;stroke-dashoffset:0;stroke-opacity:1" width="103.16534" x="118.54767" y="18.612719"/>
<text id="text" inkscape:label="#text5516-78-3-4-89-9-1-3-6-2-4-3-9-5-3-7-7-2-6-1-6-5-0-5-7-1" style="font-style:normal;font-variant:normal;font-weight:bold;font-stretch:normal;line-height:0%;font-family:STIX;-inkscape-font-specification:'STIX Bold';text-align:center;letter-spacing:0px;word-spacing:0px;writing-mode:lr-tb;text-anchor:middle;fill:#490f07;fill-opacity:1;stroke:none" x="169.24466" xml:space="preserve" y="39.097687"><tspan id="tspan9035" sodipodi:role="line" style="font-style:normal;font-variant:normal;font-weight:bold;font-stretch:normal;font-size:25px;line-height:100%;font-family:STIX;-inkscape-font-specification:'STIX Bold';text-align:center;writing-mode:lr-tb;text-anchor:middle;fill:#490f07;fill-opacity:1" x="169.24466" y="39.097687">Appel au mépris</tspan><tspan id="tspan5336" sodipodi:role="line" style="font-style:normal;font-variant:normal;font-weight:bold;font-stretch:normal;font-size:25px;line-height:100%;font-family:STIX;-inkscape-font-specification:'STIX Bold';text-align:center;writing-mode:lr-tb;text-anchor:middle;fill:#490f07;fill-opacity:1" x="169.24466" y="64.097687"/></text>
<rect height="26.428572" id="rect13148-3-3-2-4-1-4-5-6" rx="8.4705887" ry="15" style="fill:#ffffff;fill-opacity:1;stroke:none;stroke-width:5.83799982;stroke-linecap:round;stroke-linejoin:bevel;stroke-miterlimit:4;stroke-dasharray:none;stroke-dashoffset:0;stroke-opacity:1" width="68.571434" x="135.12161" y="494.59808"/>
<text id="fam_text" inkscape:label="#text4212-1-29-1-2-8-9-0-9-67-9-6-3-5-23-0-1-7-3-2-3-4-7-8-8-8-4-0" style="font-style:normal;font-variant:normal;font-weight:bold;font-stretch:normal;font-size:12.00000095px;line-height:0%;font-family:'Liberation Serif';-inkscape-font-specification:'Liberation Serif, Bold';font-variant-ligatures:normal;font-variant-caps:normal;font-variant-numeric:normal;font-feature-settings:normal;text-align:center;letter-spacing:0px;word-spacing:0px;writing-mode:lr-tb;text-anchor:middle;fill:#1b0603;fill-opacity:1;stroke:none" x="164.26151" xml:space="preserve" y="511.59271"><tspan id="tspan4214-27-1-2-9-7-6-4-1-5-2-3-65-0-7-6-31-5-8-5-4-6-0-1-0-5-8-1" sodipodi:role="line" style="font-style:normal;font-variant:normal;font-weight:bold;font-stretch:normal;font-size:12.00000095px;line-height:1.25;font-family:'Liberation Serif';-inkscape-font-specification:'Liberation Serif, Bold';font-variant-ligatures:normal;font-variant-caps:normal;font-variant-numeric:normal;font-feature-settings:normal;text-align:center;writing-mode:lr-tb;text-anchor:middle;fill:#1b0603;fill-opacity:1" x="164.26151" y="511.59271">Influence</tspan></text>
<flowRoot id="desc" inkscape:label="#flowRoot5388-1-9-2-7-9-4-63-8-65-6-8-7-2-3-5-4-9-17-61-1-0" style="font-style:normal;font-variant:normal;font-weight:bold;font-stretch:normal;line-height:0.01%;font-family:STIX;-inkscape-font-specification:'STIX Bold';text-align:center;letter-spacing:0px;word-spacing:0px;text-anchor:middle;fill:#1b0603;fill-opacity:1;stroke:none" transform="translate(161.20564,945.16255)" xml:space="preserve"><flowRegion id="flowRegion5390-2-2-5-6-3-9-94-3-6-8-8-5-1-8-5-4-6-9-15-2-2"><rect height="77.283951" id="rect5392-7-0-4-8-6-2-8-5-84-3-3-4-2-2-3-3-0-1-9-8-5" style="font-style:normal;font-variant:normal;font-weight:bold;font-stretch:normal;font-size:15px;line-height:100%;font-family:stix;-inkscape-font-specification:'stix bold';text-align:center;text-anchor:middle;fill:#face00;fill-opacity:1" width="264.06375" x="-123.22692" y="-557.27393"/></flowRegion><flowPara id="flowPara5394-0-2-4-9-0-06-12-6-8-2-1-8-0-3-8-0-7-0-8-9-1" style="font-style:normal;font-variant:normal;font-weight:bold;font-stretch:normal;font-size:15px;line-height:100%;font-family:STIX;-inkscape-font-specification:'STIX Bold';text-align:center;text-anchor:middle;fill:#1b0603;fill-opacity:1">Vous présentez un élément de façon à ce qu'il inspire le dédain.</flowPara></flowRoot> <flowRoot id="example" inkscape:label="#flowRoot5388-1-9-2-7-9-4-63-8-92-2-3-8-9-5-4-5-19-0-3-48-36-9" style="font-style:normal;font-variant:normal;font-weight:bold;font-stretch:normal;line-height:0.01%;font-family:STIX;-inkscape-font-specification:'STIX Bold';text-align:center;letter-spacing:0px;word-spacing:0px;text-anchor:middle;fill:#1b0603;fill-opacity:1;stroke:none" transform="translate(158.93154,1003.4804)" xml:space="preserve"><flowRegion id="flowRegion5390-2-2-5-6-3-9-94-3-17-8-6-9-1-6-0-9-6-1-59-1-8-7"><rect height="48.063705" id="rect5392-7-0-4-8-6-2-8-5-7-1-2-6-5-5-9-91-21-0-4-0-0-1" style="font-style:normal;font-variant:normal;font-weight:bold;font-stretch:normal;font-size:15px;line-height:100%;font-family:stix;-inkscape-font-specification:'stix bold';text-align:center;text-anchor:middle;fill:#face00;fill-opacity:1;stroke-width:0.57831079" width="267.68024" x="-123.22692" y="-557.27393"/></flowRegion><flowPara id="flowPara5394-0-2-4-9-0-06-12-6-9-2-2-4-4-0-4-4-2-1-8-30-2-3" style="font-style:italic;font-variant:normal;font-weight:bold;font-stretch:normal;font-size:12.5px;line-height:100%;font-family:STIX;-inkscape-font-specification:'STIX Bold Italic';text-align:center;text-anchor:middle;fill:#1b0603;fill-opacity:1">Il est hors de question, mon fils, que tu fasses tes études en fac de Lettres, ramassis notoire de paresseux et de névrosés !</flowPara></flowRoot> <g id="illustration" inkscape:groupmode="layer" inkscape:label="#illustration" transform="translate(-25.552157,-61.711793)"><g id="2.2.2.1" inkscape:label="#g12792" transform="translate(1647.112,-616.73444)">
<path d="m -1432.1218,816.64792 c -4.722,-28.68993 -41.9409,-96.76419 -57.9822,-37.19087 -4.9388,45.50851 -52.7285,70.43891 -47.7056,116.27625 -17.7004,50.8513 -75.6765,80.35837 -76.1085,138.4371 -4.5598,54.1601 34.2099,23.31 35.3697,-11.9645 12.9891,-65.39148 65.638,-8.3556 103.0143,-1.8321 55.0057,24.2778 130.3765,-27.33435 102.9171,-88.47296 -33.8118,-30.23925 -53.9285,-69.98534 -59.5048,-115.25292 z" id="path130342" inkscape:connector-curvature="0" style="fill:#ffffff;fill-rule:evenodd;stroke:none;stroke-width:1px;stroke-linecap:butt;stroke-linejoin:miter;stroke-opacity:1"/>
<path d="m -1613.2058,1071.1105 c -0.4568,-7.5261 -1.5175,-14.2296 -3.08,-19.4645 -1.0583,-3.5456 -1.068,-3.803 -0.1806,-4.7836 0.8909,-0.9844 0.8832,-1.0362 -0.1542,-1.0362 -0.6735,0 -1.4624,-0.6878 -2.0584,-1.7945 -0.9045,-1.6796 -0.9116,-2.0734 -0.1116,-6.1502 1.0598,-5.4004 1.7086,-11.3376 1.543,-14.119 -0.069,-1.1602 0.1583,-2.4518 0.5056,-2.8701 0.3757,-0.4528 0.4094,-0.7605 0.083,-0.7605 -0.3014,0 -0.6626,-1.5376 -0.8027,-3.4169 -0.204,-2.7385 0.014,-4.1222 1.099,-6.9702 1.9023,-4.9944 2.7795,-7.8949 3.7148,-12.28417 0.4733,-2.2213 1.2937,-4.3235 1.9671,-5.0402 1.2814,-1.364 2.0894,-1.2058 2.0894,0.4092 0,1.4321 0.9078,1.3418 1.6997,-0.1689 0.3547,-0.6766 1.4704,-2.1533 2.4794,-3.2817 2.0743,-2.3199 2.2512,-2.9766 0.8778,-3.2575 -0.6992,-0.143 0.8608,-1.9568 5.7938,-6.7369 7.8496,-7.6065 12.9179,-14.0876 17.3004,-22.1237 1.7213,-3.1561 4.1898,-7.2145 5.4857,-9.0185 7.7757,-10.8249 21.0288,-31.57546 21.0305,-32.92767 0,-2.07147 3.3634,-8.27981 4.5797,-8.45986 1.4364,-0.21256 10.7147,-15.88167 17.3638,-29.32383 5.1724,-10.45666 6.7922,-12.16197 4.8315,-5.08608 -3.2829,11.84648 -11.3956,29.39462 -19.1194,41.35603 -2.3299,3.60807 -5.2252,8.52828 -6.4339,10.93376 -1.2088,2.40548 -3.8543,7.07957 -5.879,10.38705 -2.0247,3.3075 -4.1854,6.8746 -4.8015,7.927 -0.6161,1.0523 -2.3827,3.5124 -3.9258,5.4669 -1.543,1.9544 -4.6696,6.3825 -6.948,9.8403 -2.2784,3.4578 -4.6625,6.7556 -5.298,7.3284 -0.6356,0.5728 -1.1556,1.2572 -1.1556,1.521 0,0.6988 -5.8882,9.1511 -7.8724,11.3004 -0.932,1.0096 -2.4327,2.6087 -3.3347,3.5535 -0.902,0.9447 -1.9918,2.3993 -2.4219,3.2324 -0.4299,0.8331 -1.8445,2.7598 -3.1434,4.2815 -1.2989,1.5217 -2.3616,2.942 -2.3616,3.1562 0,0.2142 -1.7526,2.2237 -3.8947,4.4656 -4.4707,4.67897 -4.9549,5.78437 -6.5368,14.92397 -2.7529,15.9043 -3.28,24.2732 -2.1575,34.2538 0.2874,2.5558 0.7668,9.4614 1.0652,15.346 0.6072,11.9741 0.9745,13.6285 3.0261,13.6285 1.3118,0 1.3553,-0.1056 1.0277,-2.4955 -0.3278,-2.392 -0.2424,-2.5983 2.0606,-4.9778 2.3821,-2.4612 5.9997,-5.4104 10.7274,-8.7454 6.4537,-4.5524 9.3274,-9.5714 5.8891,-10.2853 -0.7518,-0.1561 -1.9417,-0.4014 -2.6444,-0.5451 -2.0791,-0.4254 -3.7425,-7.3865 -4.0525,-16.9593 l -0.2479,-7.6536 -2.5082,-2.5842 c -1.3796,-1.4213 -2.3384,-2.7541 -2.1308,-2.9617 0.2077,-0.2076 1.2873,-0.098 2.3994,0.243 1.112,0.3413 2.1101,0.5322 2.218,0.4243 0.108,-0.108 -1.048,-1.2455 -2.569,-2.5279 -1.5208,-1.2825 -2.7652,-2.5662 -2.7652,-2.8526 0,-0.5043 1.9534,-0.3329 5.0569,0.4434 2.1969,0.5495 1.9156,-0.5942 -0.7437,-3.0251 -2.3651,-2.162 -2.1974,-3.1506 0.4229,-2.493 1.1005,0.2763 0.6912,-0.3006 -1.9444,-2.7408 -1.8361,-1.6999 -3.3383,-3.4332 -3.3383,-3.8518 0,-0.8361 3.5442,-0.9806 6.0135,-0.2452 0.9144,0.2724 1.6788,0.14 2.3096,-0.4 0.8538,-0.7308 0.9993,-0.6583 1.5414,0.7676 0.3292,0.8659 0.9802,1.9961 1.4465,2.5114 0.6803,0.7517 0.7706,1.6589 0.4567,4.5896 -0.2151,2.0089 -0.7494,4.6629 -1.1873,5.8977 -0.5807,1.6375 -0.8236,5.2302 -0.8979,13.2768 -0.056,6.0674 0.05,11.1834 0.2353,11.3688 0.1854,0.1854 3.1779,-1.7364 6.65,-4.2709 3.4722,-2.5344 7.8071,-5.5156 9.6331,-6.6249 l 3.3202,-2.0169 -0.075,-4.4705 c -0.041,-2.4589 -0.176,-3.8557 -0.3002,-3.104 -0.4255,2.5767 -0.6585,2.9174 -1.5107,2.21 -1.3086,-1.0859 -1.5341,-5.8841 -0.5794,-12.3236 1.2014,-8.1028 1.2886,-8.3848 2.6527,-8.5792 1.6602,-0.2365 2.0434,-3.17467 0.4143,-3.17467 -0.6108,0 -1.3688,0.4826 -1.6844,1.0724 -0.7301,1.3642 -11.3263,4.77857 -12.1802,3.92467 -0.3784,-0.3785 0.7823,-1.22 3.6191,-2.62367 3.2894,-1.6276 4.1764,-2.3189 4.1764,-3.2548 0,-1.5393 1.1406,-1.9457 3.2382,-1.1539 1.405,0.5303 1.8264,0.4851 2.5897,-0.2783 0.7499,-0.75 0.7879,-1.0609 0.2138,-1.7528 -1.0549,-1.2709 0.6624,-1.7085 3.2953,-0.8395 2.4451,0.8069 3.2238,0.4191 2.2594,-1.1251 -1.4469,-2.3171 -0.9331,-2.489 3.9082,-1.3072 l 1.5642,0.3819 -0.3915,-2.3171 c -0.3809,-2.2551 -0.3568,-2.3056 0.8959,-1.8848 0.7081,0.2378 1.9025,0.447 2.6542,0.4651 1.2278,0.029 1.3606,-0.173 1.3068,-1.9898 -0.059,-1.9886 -0.023,-2.0252 2.1867,-2.1867 1.9675,-0.1439 2.3825,-0.419 3.34,-2.2129 0.6236,-1.1682 1.5046,-2.0493 2.0501,-2.0501 0.5262,-6e-4 1.4443,-0.4891 2.0403,-1.0851 0.8654,-0.8653 0.9781,-1.3608 0.5602,-2.4601 -0.502,-1.3202 -0.4389,-1.3765 1.5406,-1.3765 2.6338,0 3.3629,-0.7499 2.9862,-3.0713 -0.325,-2.0029 0.1763,-2.2941 2.1398,-1.2434 1.0544,0.5644 1.1026,0.4993 0.7069,-0.9567 -0.7868,-2.896 -0.6282,-3.7369 0.7416,-3.9309 1.464,-0.2072 1.4368,-0.5239 -0.501,-5.8316 -1.1764,-3.2218 -1.1863,-3.4916 -0.5609,-15.1783 0.8261,-15.43574 1.8104,-20.90205 3.3232,-18.45433 0.2718,0.43987 0.6151,0.67871 0.7629,0.53098 0.1479,-0.14782 0.8524,-2.86141 1.5657,-6.03027 0.8266,-3.67225 1.6892,-6.15381 2.3786,-6.8432 0.6555,-0.65555 1.354,-2.55991 1.7731,-4.83392 0.3802,-2.06381 1.1075,-4.51446 1.6161,-5.44609 l 0.9247,-1.69378 0.3034,2.73344 c 0.2798,2.51936 0.3487,2.62635 0.8793,1.36667 0.3166,-0.75167 1.0128,-3.64881 1.547,-6.43801 0.8425,-4.39859 1.1007,-5.03023 1.9466,-4.76171 1.0263,0.32579 1.8517,-1.4041 4.1118,-8.6177 0.7062,-2.25406 1.2555,-3.14344 1.9415,-3.14344 1.0451,0 1.1921,-0.35367 2.1482,-5.16897 0.5898,-2.97058 0.7128,-3.16481 1.4044,-2.21891 0.4169,0.57011 0.758,1.25014 0.758,1.51109 0,0.26095 0.2302,0.33212 0.5117,0.15812 0.2815,-0.1739 0.9286,-2.21805 1.4379,-4.54244 1.1093,-5.06151 1.6512,-6.22441 2.8061,-6.02026 0.6353,0.11229 1.1882,-0.80989 2.038,-3.39938 1.6418,-5.00273 1.9669,-5.41188 2.7742,-3.49182 0.6508,1.54757 0.6932,1.48491 2.1755,-3.21452 1.5909,-5.04384 2.3474,-6.18273 2.8444,-4.28243 0.4676,1.78839 1.0232,1.38217 2.295,-1.6781 1.0636,-2.55963 1.2424,-2.73372 1.8929,-1.84416 0.6479,0.88607 0.8211,0.69856 1.7684,-1.91457 1.0173,-2.80669 2.4168,-4.24311 2.4168,-2.48071 0,1.5764 0.8496,0.90138 2.523,-2.00455 1.4107,-2.44961 1.8654,-2.84733 3.1034,-2.7151 1.1911,0.12731 1.5155,-0.1171 1.8142,-1.36667 0.5158,-2.15795 1.1344,-2.7687 2.5399,-2.50774 0.9797,0.18184 1.5265,-0.27372 2.7165,-2.26324 0.9706,-1.6228 1.869,-2.49101 2.5775,-2.49101 0.5983,0 1.351,-0.49194 1.6728,-1.09334 0.3218,-0.60139 1.1104,-1.09343 1.7526,-1.09343 0.7116,0 2.1881,-1.12027 3.7827,-2.87011 1.8005,-1.97581 2.6231,-2.57201 2.6401,-1.91334 0.032,1.22178 0.3308,1.2025 2.2206,-0.14309 2.3191,-1.65135 9.8223,-5.10509 10.2221,-4.70529 0.4443,0.44431 -0.5573,1.20316 -6.9509,5.26623 -6.2959,4.00096 -8.009,5.28588 -7.5971,5.69787 0.1725,0.17249 2.8893,-0.42475 6.0375,-1.32717 3.1481,-0.90242 9.3926,-2.36587 13.8767,-3.25213 5.7794,-1.1422 8.3565,-1.88943 8.8518,-2.56672 1.7915,-2.45008 0.1335,-2.42372 -6.4057,0.1017 -2.765,1.06782 -5.3053,1.84888 -5.645,1.73566 -0.3397,-0.11323 0.8178,-1.12406 2.5721,-2.24622 3.2767,-2.09614 3.8119,-2.98712 1.1971,-1.99293 -3.1568,1.20014 -3.3524,0.54204 -0.587,-1.97534 l 2.7335,-2.48837 -2.3764,1.18426 c -1.307,0.6513 -2.488,1.07264 -2.6245,0.93617 -0.2144,-0.21436 3.854,-4.02044 9.3744,-8.76968 1.3673,-1.17641 1.4684,-1.41393 0.6075,-1.42829 -0.8461,-0.0142 -6.2025,3.30544 -11.3266,7.01965 -0.5972,0.43287 -1.0347,0.51028 -1.0347,0.18288 0,-0.31199 2.7613,-3.15696 6.1362,-6.32214 3.3748,-3.16527 5.9718,-5.91922 5.7711,-6.11997 -0.2008,-0.20075 -1.6704,0.84023 -3.266,2.31323 -4.6876,4.32752 -7.0971,6.27555 -7.3943,5.9783 -0.1531,-0.15302 0.2452,-0.94372 0.8851,-1.75721 0.6398,-0.81338 1.0431,-1.59917 0.8963,-1.74605 -0.472,-0.472 -10.552,5.47095 -26.2627,15.48367 -8.4189,5.36556 -16.1682,10.06792 -17.2206,10.44947 -2.0819,0.75498 -4.4261,0.84675 -6.5459,0.25613 -1.2364,-0.3445 -1.0256,-0.5599 2.4602,-2.51398 l 3.8124,-2.13724 -5.4044,-1.05071 -5.4044,-1.05081 -4.7094,1.76363 c -5.5885,2.09292 -8.7524,3.80429 -12.0896,6.53943 -1.353,1.10902 -2.8824,2.17335 -3.3985,2.36512 -0.9022,0.33533 -5.6554,9.01947 -5.1909,9.48391 0.1247,0.12467 0.8783,-0.71358 1.6747,-1.86277 1.8055,-2.60528 5.1524,-5.88842 5.5736,-5.46726 0.3022,0.30225 -9.965,20.81 -11.5554,23.08061 -0.4238,0.60517 -0.7615,1.59899 -0.7503,2.2087 0.011,0.60961 1.5074,-1.78226 3.3249,-5.31519 4.4829,-8.71514 5.5605,-8.67459 2.8834,0.10841 -3.9693,13.02224 -16.7427,37.656 -18.8504,36.3534 -0.9619,-0.59458 1.8836,-7.60176 6.093,-15.00438 2.6967,-4.74206 3.7801,-7.65356 2.8481,-7.65356 -0.2856,0 -1.2065,1.26299 -2.0467,2.80659 -1.9014,3.49353 -2.4654,2.74705 -1.914,-2.53326 0.4444,-4.25549 1.2819,-6.83364 2.2202,-6.83364 0.3826,0 0.4923,-0.5066 0.2869,-1.32481 -0.2407,-0.95913 0.066,-1.79841 1.1105,-3.03985 0.9534,-1.13304 1.2591,-1.89869 0.9012,-2.25671 -0.6066,-0.6066 -0.2893,-3.07303 0.4544,-3.53266 0.2647,-0.16369 0.4814,-1.28283 0.4814,-2.48704 0,-1.2043 0.6423,-3.58832 1.4271,-5.29798 0.785,-1.70957 1.6611,-3.71762 1.9469,-4.4622 0.6121,-1.59407 5.7538,-10.21328 6.9829,-11.70547 0.4677,-0.56774 1.5882,-1.34635 2.4903,-1.73036 0.902,-0.38401 3.0642,-1.55759 4.8049,-2.60802 1.7406,-1.05033 5.6849,-2.70206 8.7649,-3.67055 l 5.6001,-1.76089 -0.018,-3.16291 c -0.015,-2.66378 0.2465,-3.53832 1.6577,-5.54202 l 1.6756,-2.37911 -2.318,-1.51033 c -2.6811,-1.74681 -4.3583,-4.79432 -4.8872,-8.88035 -0.4715,-3.64292 0.5454,-5.99638 4.3103,-9.97514 3.9471,-4.17122 4.6511,-6.19425 3.4941,-10.04181 -1.8814,-6.25691 -1.7928,-7.84051 0.854,-15.26478 3.9397,-11.0513 4.2866,-12.09353 5.2643,-15.81149 0.8555,-3.25324 1.0932,-3.60597 2.8131,-4.17469 2.9404,-0.97227 11.4792,-2.31953 20.7394,-3.27225 4.6606,-0.47949 8.888,-1.09117 9.3944,-1.35928 1.5301,-0.81004 5.755,-0.594 6.1027,0.31205 0.1688,0.43974 1.7463,1.52616 3.5056,2.41427 1.7593,0.88811 4.5498,2.71529 6.2011,4.0604 2.8515,2.32277 6.297,6.23566 5.8684,6.66431 -0.1098,0.10971 -1.5121,-0.89049 -3.1162,-2.22266 -3.3314,-2.76642 -4.1382,-2.99241 -3.7679,-1.05544 0.3295,1.72361 0.017,1.71576 -1.8216,-0.0457 -0.9088,-0.8706 -1.9435,-1.34249 -2.6974,-1.23005 -1.053,0.15708 -0.7573,0.54324 2.1285,2.77919 1.8434,1.42822 3.6587,2.60203 4.0341,2.60844 0.3756,0.007 1.3751,0.99045 2.2215,2.18676 1.6369,2.31357 1.479,2.61135 -0.7188,1.35504 -2.3895,-1.36599 -2.3163,-0.91283 0.514,3.18135 3.041,4.39888 3.3358,5.99359 2.2026,11.91461 -0.8025,4.19338 -0.8145,6.53109 -0.036,7.01226 0.4006,0.24758 0.7408,1.94907 0.8374,4.18829 0.1069,2.47894 0.6723,5.08272 1.6499,7.59814 4.7594,12.24734 5.7659,17.18712 5.7659,28.29923 0,4.7842 0.1084,5.27917 1.712,7.80771 0.9416,1.48481 2.5077,3.68557 3.4803,4.89053 0.9725,1.20496 1.6596,2.49252 1.5268,2.86122 -0.2972,0.8254 2.3528,5.79315 3.7787,7.08364 0.8494,0.76868 1.2385,0.82284 2.0902,0.29092 0.8736,-0.54554 1.1392,-0.48032 1.6075,0.39469 0.3086,0.57653 0.4111,1.43916 0.2277,1.91712 -0.212,0.55215 0.1815,1.27386 1.0795,1.98026 0.7772,0.61131 2.6754,3.25185 4.2184,5.86771 2.1729,3.68406 2.9185,5.55724 3.3078,8.30968 0.2764,1.95436 0.6302,3.96325 0.7862,4.46418 0.156,0.50083 0.017,1.07509 -0.3076,1.27603 -0.6898,0.42626 -0.1899,2.3483 0.8921,3.43039 0.8821,0.8821 0.9775,1.76316 0.1908,1.76316 -0.5106,0 -0.4033,1.11848 0.384,4.00305 0.1495,0.54789 0.5839,0.87652 0.9652,0.73012 0.9629,-0.36946 2.0589,3.31942 1.3692,4.60822 -0.6742,1.25977 -0.6637,2.13904 0.025,2.13904 0.3006,0 0.5665,-0.55348 0.5909,-1.23001 0.035,-0.97056 0.2602,-0.76859 1.0672,0.95667 0.8596,1.83773 0.8962,2.21494 0.229,2.36352 -1.0091,0.22466 -1.0003,0.84486 0.04,2.85716 0.8786,1.69907 1.6587,2.06163 2.0312,0.9441 0.1226,-0.36776 0.8811,0.76896 1.6856,2.52617 1.7145,3.74483 1.699,3.66591 0.6365,3.25818 -1.1011,-0.42257 -0.6576,0.68589 2.0991,5.24458 2.302,3.80684 2.9085,4.4399 3.8922,4.06241 0.3396,-0.13034 1.346,0.77822 2.2364,2.0191 0.8904,1.24078 4.0311,4.62977 6.9795,7.53107 2.9483,2.90129 5.6984,6.06307 6.1115,7.02617 0.4966,1.1577 1.2894,1.89879 2.3393,2.18677 1.5392,0.42229 5.0493,3.01103 5.0493,3.72395 0,0.19366 -0.738,0.18997 -1.64,-0.009 -2.4049,-0.52824 -2.0896,0.42635 1.4162,4.28744 4.0906,4.50529 4.8372,5.99169 4.0882,8.14009 -0.8081,2.3183 -0.7474,2.6063 0.5492,2.6063 0.7842,0 1.0776,0.2948 0.952,0.9567 -0.1324,0.6979 -0.8088,1.0022 -2.5002,1.1248 -1.824,0.1323 -2.3187,0.3822 -2.3187,1.1716 0,1.0998 1.0274,1.6671 3.0192,1.6671 0.7094,0 1.4418,0.2461 1.6276,0.5467 0.2084,0.3371 -0.8794,0.5802 -2.8378,0.6342 -1.9254,0.053 -2.4761,0.1743 -1.399,0.3079 2.3947,0.2973 2.248,1.1182 -0.2733,1.5296 -3.6781,0.6002 -3.7323,0.6807 -0.5012,0.745 2.286,0.045 3.1252,0.2569 2.9636,0.7468 -0.417,1.2644 -2.8475,2.0334 -6.6993,2.1196 l -3.8267,0.086 3.5534,0.3702 c 1.9545,0.2036 4.0909,0.6608 4.7475,1.0158 0.6568,0.3551 1.9483,0.6456 2.8701,0.6456 1.4289,0 1.6761,0.2041 1.6761,1.3839 0,0.8155 -0.3929,1.5326 -0.9567,1.7461 -0.5262,0.1993 -1.2763,0.6781 -1.667,1.0642 -0.3908,0.3861 -1.1053,0.9229 -1.5879,1.1929 -0.5518,0.3088 -0.7426,0.8428 -0.514,1.4386 0.2837,0.7392 0.7589,0.8733 2.162,0.6101 1.7677,-0.3316 1.7947,-0.3066 1.5872,1.4709 -0.1371,1.175 -0.613,1.9901 -1.3587,2.3277 -1.7279,0.7819 -1.8277,1.8862 -0.1705,1.8862 1.0478,0 1.4122,0.2821 1.4122,1.0933 0,1.2601 -0.295,1.3148 -2.654,0.4924 -1.4342,-0.5 -1.7818,-0.9629 -2.0683,-2.7545 -0.4066,-2.5423 -1.0334,-2.4895 -2.7558,0.232 l -1.2689,2.0049 1.2937,0.8476 c 0.7115,0.4663 2.6181,1.3135 4.2368,1.8826 l 2.9432,1.0349 0.3748,3.4603 c 0.2062,1.9031 0.5221,4.6288 0.7022,6.057 l 0.3274,2.5968 -3.1624,0.017 c -3.5292,0.019 -3.6728,-0.2845 1.5985,3.3845 2.3985,1.6694 3.6572,3.3963 2.9737,4.0798 -0.3147,0.3148 -7.1658,-4.0019 -11.458,-7.2193 -1.6728,-1.2539 -2.5628,-2.3073 -2.4451,-2.8937 0.1953,-0.9727 0.17,-0.971 6.442,-0.4272 l 3.5535,0.308 -2.3639,-0.7885 c -1.3002,-0.4337 -4.8673,-1.0617 -7.927,-1.3955 -3.0596,-0.3338 -8.8842,-1.2243 -12.9433,-1.9789 -4.0592,-0.7545 -8.2185,-1.5143 -9.2431,-1.6882 l -1.8627,-0.3164 0.3502,2.5548 c 0.2896,2.1135 0.1628,2.742 -0.734,3.639 -0.5964,0.5962 -1.3253,1.0841 -1.6198,1.0841 -1.1245,0 -2.7345,4.4636 -3.5308,9.7895 -0.4558,3.0486 -1.1187,6.09087 -1.4733,6.76047 -1.2413,2.3453 -3.4869,4.957 -5.1166,5.9509 -1.5324,0.9345 -1.5587,1.0029 -0.387,1.0047 3.3619,0.01 5.8647,-2.6456 8.0911,-8.57027 2.1497,-5.7204 3.4737,-7.6982 6.4183,-9.5878 3.994,-2.5629 9.8251,-2.6852 18.0759,-0.3791 4.3639,1.2196 11.8157,10.2644 10.13,12.29557 -0.9716,1.1707 -1.4802,0.9461 -1.8693,-0.8254 -0.1935,-0.8813 -0.6949,-1.88697 -1.1143,-2.23507 -0.6115,-0.5075 -0.8326,-0.3527 -1.1174,0.7823 -0.4622,1.84137 -1.6316,1.80247 -2.6574,-0.088 l -0.8156,-1.5035 -0.022,1.7885 c -0.016,1.33487 -0.3338,1.91157 -1.2519,2.27377 -8.4564,3.3365 -10.2033,4.1215 -9.8473,4.4254 0.2293,0.1956 3.4685,0.1465 7.1982,-0.1092 3.7297,-0.2557 6.8885,-0.3578 7.0196,-0.2267 0.131,0.131 -0.7969,1.6092 -2.0619,3.2847 l -2.3001,3.0465 -3.6261,-0.3267 c -4.899,-0.4415 -25.132,0.7095 -29.7972,1.695 -2.0664,0.4364 -4.602,1.2922 -5.6348,1.9015 -1.0328,0.6094 -2.5842,1.108 -3.4476,1.108 -2.0296,0 -3.1211,1.1358 -3.8322,3.9881 -0.8618,3.4559 -1.271,3.9078 -3.8863,4.2907 -1.3216,0.1934 -3.387,0.7362 -4.5897,1.2061 -1.2027,0.4697 -3.3146,0.8649 -4.6932,0.8782 -2.9135,0.028 -22.7893,-3.1808 -31.8858,-5.1475 -3.4345,-0.7426 -10.5087,-1.9606 -15.7206,-2.7067 -5.2119,-0.7461 -10.3371,-1.715 -11.3895,-2.1528 -1.0524,-0.4379 -3.3895,-0.9595 -5.1936,-1.1591 -1.8041,-0.1996 -3.7721,-0.5863 -4.3734,-0.8593 -0.6014,-0.2731 -2.5212,-1.0174 -4.2663,-1.6541 -7.2131,-2.6318 -15.8098,-10.3922 -23.9841,-21.65077 -1.4911,-2.0537 -3.5885,-4.6392 -4.661,-5.7455 -1.3339,-1.3761 -1.8365,-2.3072 -1.5908,-2.9474 0.4098,-1.0681 0.4042,-1.0644 -4.3127,2.8181 -7.4842,6.1601 -16.5883,11.1559 -21.1247,11.5918 -2.438,0.2343 -2.656,0.373 -2.6537,1.689 0,0.78857 0.2606,8.00607 0.5761,16.03887 0.6583,16.7649 0.5989,17.1246 -2.7344,16.5614 -1.7207,-0.2907 -2.3414,-0.1188 -3.649,1.0103 l -1.5755,1.3606 1.6401,0.6285 c 0.902,0.3456 2.378,0.7549 3.2801,0.9093 0.902,0.1544 1.952,0.3765 2.3332,0.4935 0.3937,0.1207 -0.7874,1.555 -2.7334,3.3194 -1.8846,1.7085 -3.9951,3.7441 -4.69,4.5234 -0.8556,0.9597 -1.3555,1.1965 -1.5489,0.7336 -0.5258,-1.2579 -1.3131,-0.7008 -0.9657,0.6834 0.4876,1.9429 -0.3843,1.6793 -1.8307,-0.5535 -1.1283,-1.7418 -1.459,-1.9051 -3.8267,-1.8892 -2.2353,0.015 -5.1614,1.2052 -4.4653,1.8163 0.7678,0.674 2.788,1.4465 3.7832,1.4465 0.639,0 1.0205,0.2282 0.8481,0.5072 -0.4122,0.6669 1.4856,1.2533 2.632,0.8134 1.4957,-0.574 1.0577,1.193 -0.9469,3.819 -1.0141,1.3287 -3.0407,4.3445 -4.5033,6.7017 -1.4627,2.3572 -3.1545,4.7352 -3.7596,5.2843 -0.6051,0.5491 -0.7927,0.8421 -0.4168,0.651 0.3758,-0.1909 0.6834,-0.063 0.6834,0.2829 0,0.3466 -0.4921,0.7589 -1.0934,0.916 -0.6014,0.1573 -1.0934,0.5033 -1.0934,0.7689 0,0.2657 -0.3866,0.483 -0.8591,0.483 -0.4724,0 -1.2061,0.347 -1.6304,0.7713 -0.4243,0.4243 -1.2467,0.6472 -1.8275,0.4952 -0.6996,-0.1829 -1.2631,0.1103 -1.669,0.8687 -0.337,0.6297 -1.1022,1.1449 -1.7004,1.1449 -0.6327,0 -1.2881,0.5273 -1.567,1.2608 -0.8513,2.2391 -7.0609,6.3325 -9.6697,6.3742 -1.0904,0.018 -1.1778,-0.3449 -1.5455,-6.4049 z m -2.4922,-23.0976 c 0,-0.3007 -0.2606,-0.5467 -0.579,-0.5467 -0.3184,0 -0.4268,0.246 -0.241,0.5467 0.1858,0.3007 0.4463,0.5467 0.5789,0.5467 0.1326,0 0.2411,-0.246 0.2411,-0.5467 z m 172.2066,-28.1418 c 0,-1.0957 -2.1922,-2.4537 -4.589,-2.8426 -1.5888,-0.2579 -1.9712,-0.1469 -1.9712,0.5717 0,1.6409 2.0422,3.0783 4.3735,3.0783 1.5641,0 2.1867,-0.2298 2.1867,-0.8074 z m 9.171,-0.3543 c 1.1982,-0.4449 2.1743,-1.8891 1.6389,-2.4246 -0.4269,-0.4268 -6.1042,0.9774 -6.9111,1.7093 -1.9177,1.7399 1.3277,2.1801 5.2722,0.7153 z m -19.5581,-0.2673 c 0,-1.0523 -2.5233,-4.5624 -3.6481,-5.075 -1.2219,-0.5566 -2.9121,-0.8151 -2.9121,-0.4452 0,0.3787 2.1555,4.3394 2.7543,5.0607 0.6347,0.765 3.8059,1.1478 3.8059,0.4595 z m -9.5977,-3.0441 c -1.9739,-3.9036 -5.1386,-5.9126 -4.3641,-2.7705 0.625,2.5352 2.1776,4.7264 3.5937,5.072 1.7357,0.4235 1.9001,-0.067 0.7704,-2.3015 z m -7.4174,-1.3501 c -2.236,-4.4549 -4.6859,-4.9036 -2.7388,-0.5017 0.9526,2.1535 3.0743,3.9676 3.8321,3.2767 0.1131,-0.103 -0.379,-1.3518 -1.0933,-2.775 z m -5.399,0.8854 c 0,-1.1288 -1.5994,-4.3559 -2.1589,-4.3559 -0.7383,0 -0.7439,2.489 -0.01,3.8628 0.5928,1.1076 2.1676,1.466 2.1676,0.4931 z m -6.5603,-1.9317 c 0,-2.8156 -2.1452,-4.7458 -2.9482,-2.6529 -0.441,1.1492 -0.4226,3.2359 0.033,3.691 0.2004,0.2006 0.9385,0.3645 1.6401,0.3645 1.0048,0 1.2756,-0.2977 1.2756,-1.4026 z m -7.3304,-1.4153 c -0.4768,-2.9816 -0.6469,-3.1956 -2.5422,-3.1956 -1.5649,0 -1.6078,0.073 -1.6078,2.7334 v 2.7335 h 2.2566 2.2566 z m -8.3087,0.3131 c 0.6047,-1.5758 0.3443,-3.9649 -0.5272,-4.8364 -1.2948,-1.2948 -1.7673,-1.0595 -2.3923,1.191 -0.775,2.7903 -0.7279,3.2737 0.3812,3.9197 1.3738,0.8001 2.1586,0.7153 2.5383,-0.2743 z m 63.1963,0.3324 c 0.5919,-0.3741 0.651,-0.68 0.2157,-1.1153 -0.7914,-0.7915 -11.225,-1.8721 -13.1749,-1.3645 l -1.5233,0.3965 1.3666,0.536 c 4.2296,1.6589 11.57,2.5248 13.1159,1.5473 z m -178.7623,-3.399 c 0,-0.827 -1.0527,-0.4462 -1.6015,0.5793 -0.7278,1.3598 0.015,2.0325 0.9032,0.818 0.384,-0.5253 0.6983,-1.1541 0.6983,-1.3973 z m 108.2337,-1.1013 c 1.5245,-3.405 0.4883,-4.3294 -1.929,-1.7211 -1.9098,2.0606 -1.7118,3.7623 0.4629,3.9771 0.2401,0.024 0.8999,-0.9914 1.4661,-2.256 z m 84.2004,0.4463 c 0,-0.9409 -2.1434,-3.5928 -2.1686,-2.683 -0.027,0.9949 1.188,3.4426 1.7096,3.4426 0.2524,0 0.459,-0.3418 0.459,-0.7596 z m -36.0813,-1.0901 c 0,-0.8049 -1.6099,-1.4108 -3.7814,-1.4231 -1.6128,-0.01 -1.1054,0.594 1.2238,1.4544 2.3187,0.8565 2.5576,0.8536 2.5576,-0.031 z m 16.8931,-0.3519 3.061,-0.015 -1.9135,-1.6106 c -1.0523,-0.8859 -2.3907,-1.6173 -2.9742,-1.6253 -1.8156,-0.026 -10.1015,2.8954 -9.764,3.4416 0.187,0.3025 2.0259,0.3735 4.4249,0.1708 2.2576,-0.1909 5.4822,-0.3537 7.1658,-0.3617 z m -71.9084,-2.3087 c 0.8566,-2.1802 0.8551,-2.3654 -0.022,-3.0067 -1.3504,-0.9877 -2.1893,-0.8463 -3.1545,0.5316 -1.0895,1.5556 -1.0754,2.551 0.054,3.7988 1.3841,1.5294 2.1248,1.2154 3.1223,-1.3237 z m 85.6297,0.9568 c 0,-0.451 -0.2383,-0.8201 -0.5296,-0.8201 -0.2912,0 -0.3879,0.3691 -0.2148,0.8201 0.173,0.451 0.4113,0.82 0.5296,0.82 0.1181,0 0.2148,-0.369 0.2148,-0.82 z m -4.1757,-0.5467 c -0.1731,-0.4511 -0.5267,-0.8201 -0.7857,-0.8201 -0.2591,0 -0.3295,0.369 -0.1564,0.8201 0.1731,0.451 0.5267,0.8201 0.7857,0.8201 0.2591,0 0.3294,-0.3691 0.1564,-0.8201 z m -37.3725,0.068 c 0,-0.1128 -1.0834,-2.5393 -2.4076,-5.3922 -2.489,-5.36287 -3.3221,-6.26837 -7.8999,-8.58567 -2.7734,-1.4038 -2.8316,-1.5324 2.6215,5.7953 2.2729,3.05407 4.5745,6.19067 5.1148,6.97027 0.8049,1.1615 2.5712,1.9944 2.5712,1.2123 z m 65.0557,-0.3417 c 0,-0.3006 -0.1084,-0.5466 -0.241,-0.5466 -0.1326,0 -0.3932,0.246 -0.579,0.5466 -0.1858,0.3008 -0.077,0.5467 0.2411,0.5467 0.3184,0 0.5789,-0.2459 0.5789,-0.5467 z m -71.6175,-0.6833 c 0,-0.7373 -8.6433,-12.95127 -11.7006,-16.53737 -1.4295,-1.6769 -2.0176,-2.0389 -2.5219,-1.5522 -0.5079,0.4901 -0.041,1.3762 2.0536,3.8924 3.292,3.9558 6.4763,9.1038 7.0061,11.32707 0.2151,0.902 0.7651,2.0706 1.2223,2.5968 0.9542,1.0979 3.9428,1.3053 3.9405,0.2733 z m 23.5091,-0.8314 c 4.8714,-1.5742 5.8,-2.3446 3.5512,-2.946 -1.5228,-0.4073 -6.0373,1.5839 -7.6624,3.3795 -1.2118,1.3392 -1.4533,1.3646 4.1112,-0.4335 z m -31.4559,-1.0808 c -1.6536,-3.95747 -4.6171,-8.75737 -7.1387,-11.56207 -1.4006,-1.5578 -2.6469,-2.7321 -2.7694,-2.6096 -0.3971,0.3971 1.9554,6.0919 3.5654,8.6304 0.8616,1.3588 1.8649,3.37437 2.2296,4.47927 0.7182,2.1764 1.7939,3.0681 3.7318,3.0942 1.2181,0.016 1.224,-0.015 0.3813,-2.0322 z m 19.6432,0.7929 c 0.7646,-0.5591 0.8904,-1.1341 0.594,-2.714 -0.2069,-1.10257 -0.6578,-2.22737 -1.0022,-2.49957 -0.9332,-0.7375 -4.7534,-1.8859 -5.1048,-1.5346 -0.1679,0.1678 0.1207,1.361 0.6412,2.6513 0.5205,1.29037 1.1603,2.89957 1.4216,3.57607 0.5308,1.3739 1.9836,1.5931 3.4502,0.5208 z m 63.493,-1.3408 c -0.4994,-2.71727 -1.3851,-3.60237 -1.3851,-1.3841 0,2.0801 0.4782,3.4342 1.2127,3.4342 0.3369,0 0.4036,-0.7919 0.1724,-2.0501 z m -90.0554,0.2733 c -2.1973,-3.46737 -3.2102,-5.42567 -4.8066,-9.29367 -2.3275,-5.6395 -3.2868,-5.6369 -3.2868,0.01 0,6.7393 2.509,10.48747 7.0332,10.50727 1.7748,0.01 1.8121,-0.036 1.0602,-1.2219 z m 33.3573,-0.5827 c 0.9663,-0.9969 1.5887,-1.98087 1.3828,-2.18657 -0.2057,-0.2058 -1.317,-0.3741 -2.4696,-0.3741 -2.0106,0 -2.0957,0.074 -2.0957,1.82227 0,3.1006 0.729,3.2698 3.1825,0.7384 z m 59.1048,-3.06767 c -0.6561,-1.5253 -1.435,-2.7731 -1.7308,-2.7731 -0.2959,0 -0.3635,0.4305 -0.1501,0.9566 0.2132,0.5263 0.6442,1.6948 0.9578,2.5968 0.7124,2.04957 1.6723,3.32447 1.9271,2.55977 0.104,-0.3118 -0.3478,-1.8148 -1.004,-3.34007 z m -121.8936,-0.1367 c 0.021,-1.1246 -2.4899,-3.1832 -3.8832,-3.1832 -1.3783,0 -1.2964,0.4431 0.6495,3.5113 1.5664,2.46987 1.7166,2.56907 2.4427,1.61037 0.4254,-0.5618 0.7813,-1.43407 0.791,-1.93847 z m 18.2886,-3.9082 c -0.036,-5.3818 -0.1983,-6.5336 -1.0531,-7.4782 -1.6623,-1.8368 -2.1233,-0.4683 -2.225,6.6064 -0.09,6.26517 -0.036,6.62707 1.0663,7.07017 0.6386,0.2569 1.4072,0.3987 1.7079,0.3152 0.3276,-0.091 0.5295,-2.70087 0.5039,-6.51357 z m -7.2941,0 c 0.2233,-2.5672 0.8285,-4.635 2.0501,-7.0035 2.0032,-3.8842 2.0779,-4.3005 0.7714,-4.3005 -1.2471,0 -1.8547,1.0276 -4.2033,7.1089 -2.1965,5.6877 -2.3428,6.8175 -0.985,7.6069 1.6295,0.9474 2.0391,0.357 2.3668,-3.4118 z m 113.6749,1.0224 c -0.754,-2.6928 -1.9239,-4.0684 -2.754,-3.2383 -0.3202,0.3201 0.1422,1.5795 1.2283,3.3457 0.9579,1.5578 1.8484,2.7256 1.9789,2.5952 0.1303,-0.1304 -0.074,-1.3466 -0.4532,-2.7026 z m 7.2869,0.374 c -0.5063,-3.5958 -1.3148,-5.5307 -2.4629,-5.8951 -0.613,-0.1946 -1.385,-0.083 -1.7156,0.2473 -0.4369,0.4368 -0.4248,0.6009 0.043,0.6009 0.7742,0 2.5696,3.4009 3.1051,5.8818 0.522,2.4184 1.3888,1.7156 1.0296,-0.8349 z m -223.2358,0.9665 c 0,-0.3006 -0.2606,-0.5466 -0.579,-0.5466 -0.3184,0 -0.4269,0.246 -0.2411,0.5466 0.1858,0.3007 0.4464,0.5467 0.579,0.5467 0.1326,0 0.2411,-0.246 0.2411,-0.5467 z m 230.0517,-3.6682 c -0.3985,-0.8317 -1.1707,-1.5979 -1.7158,-1.7029 -0.9455,-0.1821 -0.9485,-0.107 -0.064,1.6334 0.5097,1.0033 1.2037,2.1701 1.542,2.5928 0.9566,1.1953 1.1315,-0.6591 0.2379,-2.5233 z m 3.4454,0.2309 c -0.4465,-0.4465 -0.6082,-0.3854 -0.6082,0.23 0,1.0867 0.7351,1.8219 1.0069,1.0069 0.1152,-0.3459 -0.064,-0.9025 -0.3987,-1.2369 z m -137.5023,-1.6196 c 0.7898,-1.5786 2.393,-4.1511 3.5626,-5.7168 1.1696,-1.5656 2.1265,-2.9802 2.1265,-3.1434 0,-0.7542 -2.3318,-0.084 -7.1069,2.0422 -7.42,3.3043 -7.5006,3.3602 -6.5345,4.5324 0.8095,0.9823 5.9099,5.1557 6.3009,5.1557 0.1184,0 0.8614,-1.2916 1.6514,-2.8701 z m 99.8782,1.1035 c -0.8043,-0.8886 -0.8318,-1.2494 -0.212,-2.771 1.1017,-2.7048 1.6699,-6.7578 1.1846,-8.45 -0.2415,-0.8419 -0.981,-2.5931 -1.6434,-3.8916 -0.6625,-1.2985 -1.0724,-2.7051 -0.9109,-3.1258 0.1759,-0.4582 -1.0694,-2.1077 -3.1054,-4.1135 -3.9667,-3.9082 -3.5379,-4.6833 1.3095,-2.3665 3.2528,1.5548 4.7043,1.4954 3.0831,-0.126 -0.4899,-0.4897 -3.3044,-2.1502 -6.2544,-3.69 -4.0335,-2.1052 -5.3638,-3.0674 -5.3638,-3.8799 0,-0.8178 0.4651,-1.1474 1.9135,-1.356 l 1.9133,-0.2755 -3.0194,-2.2468 c -4.0583,-3.02 -6.35,-4.1174 -13.0045,-6.2272 -4.1124,-1.3039 -5.8001,-1.6239 -6.2406,-1.1836 -0.4403,0.4403 -0.7887,0.35 -1.2881,-0.334 -0.5639,-0.7724 -1.8084,-0.9703 -7.0564,-1.1225 -6.3652,-0.1845 -6.3766,-0.1825 -10.9483,1.8765 -4.433,1.9965 -4.673,2.2019 -7.6595,6.5535 -3.2851,4.787 -4.5691,7.6766 -4.6078,10.3698 -0.021,1.4287 0.3091,1.831 2.2994,2.8053 3.4991,1.7129 7.1589,5.2205 11.691,11.2052 2.2457,2.9652 5.0059,5.9739 6.1338,6.6859 2.1198,1.3382 9.6868,5.2436 10.1599,5.2436 0.1471,0 -0.244,-1.1686 -0.8692,-2.5968 -0.6252,-1.4283 -1.2616,-4.218 -1.4145,-6.1994 l -0.2777,-3.6026 -2.8029,-1.6792 c -4.522,-2.7091 -5.1814,-3.6933 -5.5996,-8.3558 -0.2945,-3.2828 -0.7784,-4.8378 -2.4749,-7.954 -1.1598,-2.1304 -2.1088,-4.037 -2.1088,-4.2368 0,-0.1999 0.5817,-0.3634 1.2924,-0.3634 1.206,0 2.0448,0.939 4.4615,4.9948 0.2932,0.4921 1.2392,1.7842 2.1023,2.8714 1.16,1.4612 1.4176,2.1595 0.988,2.6771 -0.6767,0.8155 -0.225,1.6889 1.1329,2.1899 1.4917,0.5504 1.2,1.9222 -0.3459,1.6267 -1.7419,-0.333 -2.3166,0.7598 -1.1044,2.0994 0.5391,0.5957 4.1998,2.6532 8.1348,4.5722 7.2308,3.5262 12.3129,7.328 12.3129,9.2111 0,1.4159 -0.8079,1.1405 -5.5205,-1.8826 -2.4017,-1.5405 -4.4953,-2.6724 -4.6526,-2.5153 -0.5085,0.5085 0.8501,4.5849 2.0263,6.0803 2.6853,3.4138 7.6253,4.5103 20.3056,4.5068 6.7678,0 6.939,-0.03 6.0407,-1.0237 z m -113.1241,-2.7814 c -0.683,-1.2068 -2.0971,-2.6585 -3.1256,-3.209 -0.753,-0.403 -0.5642,0.1214 0.7113,1.9754 0.9551,1.3882 1.9712,2.3789 2.2582,2.2016 0.2868,-0.1773 0.3571,-0.6129 0.1561,-0.968 z m 59.0057,-2.9036 c 0.1895,-0.1896 -0.7826,-1.7795 -2.1602,-3.533 -2.2961,-2.9226 -3.1645,-3.5171 -10.4161,-7.1312 -4.3511,-2.1684 -8.5192,-4.0076 -9.2625,-4.0869 -1.0828,-0.1154 -1.6752,0.3654 -2.9806,2.419 -1.3722,2.1587 -1.4887,2.5925 -0.7379,2.7492 0.4903,0.1024 1.5054,-0.3896 2.2558,-1.0934 l 1.3644,-1.2795 1.047,1.2907 c 0.5757,0.7098 1.0469,1.6261 1.0469,2.0364 0,0.5324 0.4563,0.6545 1.5953,0.4266 1.3779,-0.2755 1.715,-0.087 2.4741,1.3805 0.486,0.9397 1.3156,1.6994 1.8559,1.6994 0.5374,0 1.6586,0.7113 2.4915,1.5808 0.8331,0.8695 2.2936,1.7692 3.2458,1.9995 2.1086,0.5099 7.0772,1.707 7.5169,1.8111 0.1755,0.041 0.4741,-0.079 0.6637,-0.2692 z m -54.2147,-3.0169 c 1.7763,-0.9467 3.1156,-1.8354 2.9762,-1.9749 -0.1395,-0.1395 -1.5585,0.034 -3.1532,0.3861 -1.5948,0.3517 -3.4807,0.76 -4.191,0.9074 -1.2446,0.2581 -1.2564,0.3066 -0.3253,1.3353 0.5313,0.5872 1.078,1.0676 1.2148,1.0676 0.1369,0 1.7021,-0.7747 3.4785,-1.7215 z m 30.9283,0.8495 c 0.1776,-0.538 -6.745,-2.9608 -8.4473,-2.9566 -1.0358,0.01 -0.8173,2.6011 0.2733,3.2505 1.2325,0.7338 7.9142,0.4937 8.174,-0.2939 z m 126.9945,-4.818 c 0,-0.1228 -1.0862,-1.3408 -2.4137,-2.7068 -3.0543,-3.1427 -5.6505,-4.2965 -8.0918,-3.5964 -0.9833,0.2821 -2.8964,0.515 -4.2515,0.5175 -3.57,0.01 -8.2039,0.6283 -8.2039,1.1002 0,0.2233 2.3986,0.8259 5.3302,1.3392 2.9317,0.5132 7.7903,1.4954 10.7971,2.1824 5.8998,1.3483 6.8336,1.5073 6.8336,1.1639 z m -131.4933,-7.1817 c 1.7013,-1.5242 2.3818,-2.4355 1.8187,-2.4355 -1.0566,0 -4.0467,2.3995 -4.842,3.8858 -0.8786,1.6414 0.093,1.1756 3.0233,-1.4503 z m 127.3577,-9.4852 c 0.7532,-1.2186 -2.8408,-1.5048 -4.3702,-0.348 -0.9823,0.743 -0.8705,0.804 1.5033,0.82 1.4105,0.01 2.7006,-0.2028 2.8669,-0.472 z m -162.0602,-1.5606 c -0.01,-0.7157 -2.6904,-3.72 -2.7109,-3.0326 -0.037,1.2192 1.2433,3.4426 1.9814,3.4426 0.4028,0 0.7311,-0.1845 0.7295,-0.41 z m 157.3302,-0.5928 c 0.1633,-0.4955 -0.1597,-0.6707 -1.0077,-0.5466 -0.6865,0.1004 -1.3563,0.5108 -1.4885,0.912 -0.1634,0.4956 0.1596,0.6709 1.0077,0.5467 0.6865,-0.1005 1.3562,-0.5109 1.4885,-0.9121 z m 3.4716,-2.4231 c -0.6518,-0.6519 -2.4638,-0.08 -2.0204,0.6373 0.1697,0.2745 0.8166,0.3663 1.4375,0.2039 0.7518,-0.1965 0.9466,-0.4776 0.5829,-0.8412 z m -6.6331,0.1458 c 0,-0.3007 -0.246,-0.5468 -0.5467,-0.5468 -0.3007,0 -0.5467,0.2461 -0.5467,0.5468 0,0.3007 0.246,0.5467 0.5467,0.5467 0.3007,0 0.5467,-0.246 0.5467,-0.5467 z m -150.5984,-2.1596 c -1.6441,-3.1792 -0.7313,-4.8587 1.6583,-3.0513 1.5615,1.1811 2.0626,1.0079 1.0921,-0.3776 -1.1516,-1.6442 -1.0878,-3.1586 0.133,-3.1586 0.5412,0 1.2751,0.2911 1.631,0.647 0.9841,0.9841 1.3314,0.2137 0.6137,-1.3615 -0.3515,-0.7713 -0.4837,-1.8073 -0.2938,-2.302 0.3108,-0.81 0.5313,-0.7845 2.2152,0.2563 2.2578,1.3953 3.2045,0.5701 1.4674,-1.2789 -1.5365,-1.6355 -1.5353,-3.6144 0,-3.6144 0.9707,0 1.0958,-0.2263 0.793,-1.4329 -0.3373,-1.3438 -0.2561,-1.4175 1.3075,-1.188 1.6413,0.2409 2.3626,-0.7116 1.1204,-1.4793 -0.3007,-0.1859 -0.5467,-0.835 -0.5467,-1.4424 0,-0.9428 0.2401,-1.0519 1.6396,-0.7445 2.2379,0.4916 1.6951,-0.9567 -0.8028,-2.1421 -5.759,-2.73275 -12.1991,2.4771 -15.3228,12.3959 -1.6079,5.106 -2.2563,9.7005 -1.3688,9.7005 0.3566,0 1.274,0.4919 2.0384,1.0933 0.7645,0.6014 1.8551,1.0933 2.4237,1.0933 0.9687,0 0.9812,-0.1014 0.1996,-1.6128 z m 156.1446,-9.4919 c 1.1155,-1.0992 1.5608,-2.0737 1.5608,-3.4169 0,-1.0334 0.2459,-1.879 0.5466,-1.879 0.3007,0 0.5467,-0.3643 0.5467,-0.8096 0,-1.0069 -2.2528,-1.6163 -4.1835,-1.1317 -1.743,0.4375 -4.5635,3.3169 -4.5635,4.6589 0,0.529 -0.492,1.5873 -1.0934,2.3518 -0.6013,0.7645 -1.0933,1.4742 -1.0932,1.5771 2e-4,0.1029 1.5119,0.1872 3.3594,0.1872 2.9484,0 3.5501,-0.1881 4.9201,-1.5378 z m -18.9937,-2.4258 c 3.1923,-4.0683 3.2769,-4.1551 8.1202,-8.337 4.1392,-3.5738 6.9491,-7.36592 6.0723,-8.19481 -0.2594,-0.24536 -0.9637,-0.54147 -1.565,-0.6582 -0.7318,-0.14186 -1.0539,-0.59194 -0.9737,-1.36043 0.1415,-1.35732 -1.0467,-1.78726 -5.04,-1.82356 -2.391,-0.0217 -2.6136,-0.11587 -1.7766,-0.7511 1.2773,-0.96971 1.2092,-1.2438 -0.41,-1.65021 -2.1204,-0.53221 -1.6215,-1.2508 1.23,-1.77176 1.7241,-0.31502 2.5967,-0.74827 2.5967,-1.28918 0,-0.92387 -1.3822,-0.99693 -6.6969,-0.35386 -3.8334,0.46378 -4.3417,-0.0406 -1.7157,-1.7039 2.1943,-1.38935 1.5827,-1.66429 -2.8121,-1.26412 -3.2739,0.29819 -3.8228,0.54251 -6.5942,2.93513 -4.8386,4.17733 -9.2355,9.89194 -9.2401,12.00915 -0.01,1.72951 1.0664,1.00241 2.5949,-1.76316 0.8267,-1.49597 1.8449,-2.85442 2.2625,-3.01878 1.1903,-0.46851 0.3745,3.96798 -1.57,8.53729 -0.9071,2.1318 -1.6493,4.1264 -1.6493,4.4325 0,1.0915 1.746,-0.9164 3.0717,-3.5324 1.3903,-2.74363 2.6172,-3.69538 3.5548,-2.75761 0.355,0.35491 0.039,1.79061 -0.9242,4.19621 -0.8052,2.0112 -1.3392,3.7815 -1.1868,3.9339 0.1524,0.1525 1.0416,-0.9652 1.976,-2.4836 2.7719,-4.505 3.5911,-3.5852 1.7007,1.9095 -0.9415,2.7367 -0.9909,3.3121 -0.3398,3.9631 0.651,0.6511 0.9791,0.4765 2.2597,-1.2024 1.391,-1.8238 2.8752,-2.4618 3.7326,-1.6044 0.1978,0.1978 0.157,0.6283 -0.091,0.9567 -0.2476,0.3283 -0.7675,1.3967 -1.1551,2.3742 -0.5629,1.4192 -0.5679,1.9423 -0.025,2.5968 1.1503,1.3861 2.0315,0.9403 4.5928,-2.324 z m -19.3538,-10.1484 c 0,-1.1118 -0.013,-1.113 -0.8026,-0.07 -1.1182,1.4784 -1.1305,2.805 -0.017,1.8812 0.451,-0.3743 0.82,-1.1895 0.82,-1.8115 z m -10.9338,-3.56009 c 0,-0.24829 -0.589,-1.00487 -1.309,-1.68121 -1.632,-1.53312 -2.4833,-0.56633 -0.8977,1.01924 1.1434,1.14333 2.2067,1.46232 2.2067,0.66197 z m 6.5861,-5.32719 c 1.508,-2.23478 4.4122,-5.9695 6.4537,-8.29937 2.0415,-2.32986 4.5032,-5.401 5.4704,-6.82476 0.9672,-1.42367 2.2413,-2.84686 2.8313,-3.16263 2.8537,-1.52735 -0.4637,-2.13876 -5.9543,-1.0975 -3.5409,0.67152 -4.5624,0.30528 -4.3463,-1.55806 0.1308,-1.12822 0.8067,-1.74984 3.173,-2.91831 1.6537,-0.8166 3.6983,-1.6246 4.5435,-1.79549 1.3478,-0.27257 1.5157,-0.52512 1.3667,-2.05624 -0.1579,-1.62167 -0.8596,-2.30085 -3.4501,-3.33928 -0.3006,-0.1205 -0.055,-0.60687 0.5467,-1.08077 1.0682,-0.84164 1.0523,-0.87746 -0.6834,-1.54927 -1.855,-0.71802 -2.366,-1.54143 -0.9566,-1.54143 1.6896,0 0.8788,-2.21796 -1.1155,-3.0512 -1.8712,-0.78182 -2.1388,-1.86892 -0.4601,-1.86892 0.451,0 0.668,-0.24602 0.4821,-0.54676 -0.1858,-0.30065 -1.4158,-0.54667 -2.7334,-0.54667 -3.3802,0 -3.5082,-0.86405 -0.2438,-1.6471 2.066,-0.49563 2.7176,-0.88748 2.5902,-1.55768 -0.1261,-0.66236 -0.9761,-0.96726 -3.2659,-1.17179 -3.7013,-0.33042 -4.4426,-0.85601 -2.2997,-1.63036 3.7328,-1.34881 3.8746,-1.57083 1.0325,-1.61808 -4.4685,-0.0737 -4.8572,-0.90687 -0.9328,-1.99794 1.8674,-0.51926 3.252,-1.08804 3.077,-1.26403 -0.1751,-0.17608 -2.0822,-0.44308 -4.238,-0.59345 -2.9289,-0.20425 -3.9198,-0.47314 -3.9198,-1.06395 0,-0.52379 1.0133,-0.98502 3.0026,-1.36676 2.2355,-0.42891 3.0522,-0.83834 3.197,-1.60287 0.1746,-0.92151 -0.054,-0.98946 -2.2305,-0.6632 -1.3944,0.20916 -3.1016,0.10642 -4.017,-0.24167 -1.4274,-0.5427 -1.4903,-0.66226 -0.6084,-1.15582 0.5411,-0.30282 2.3245,-0.68891 3.9634,-0.85809 1.9744,-0.20377 2.9799,-0.55489 2.9799,-1.04069 0,-0.98938 -2.2731,-1.49474 -5.2261,-1.16186 -2.7275,0.30745 -3.1858,-0.367 -0.9383,-1.38057 1.4257,-0.64298 1.3554,-0.68324 -1.6504,-0.94495 -1.7269,-0.15037 -3.1967,-0.51936 -3.2661,-0.82001 -0.07,-0.30074 1.7188,-0.98426 3.9739,-1.51902 2.2551,-0.53477 4.4692,-1.12217 4.9202,-1.30534 1.4007,-0.56869 -1.5266,-1.15808 -6.2869,-1.26573 -4.1741,-0.0945 -4.2988,-0.13317 -2.7334,-0.84987 0.902,-0.41303 2.3019,-0.76207 3.1112,-0.77568 3.1753,-0.0529 1.8611,-1.02878 -1.8831,-1.39805 -2.179,-0.21483 -4.1913,-0.52824 -4.472,-0.69628 -0.7236,-0.43326 1.276,-1.12652 3.3805,-1.17198 2.0112,-0.0435 2.1609,-0.34781 0.8719,-1.77214 -0.7534,-0.83266 -1.7585,-0.99976 -6.0135,-0.99976 -2.9048,0 -5.1087,-0.22674 -5.1087,-0.5256 0,-0.51916 2.8126,-1.42536 5.4668,-1.76146 0.7667,-0.0971 1.3667,-0.52946 1.3667,-0.98502 0,-0.59553 -1.0822,-0.95989 -4.059,-1.36667 -4.6067,-0.62956 -6.0312,-1.91609 -2.1367,-1.92979 1.303,0 2.7379,-0.24687 3.1889,-0.53835 1.0341,-0.66831 0.7977,-0.6926 -5.3795,-0.55329 -4.159,0.0936 -4.5425,0.0142 -4.366,-0.90128 0.1547,-0.80347 1.0658,-1.13644 4.5594,-1.66638 2.4014,-0.36426 4.9472,-0.80668 5.6575,-0.98323 1.2646,-0.31426 1.2704,-0.34422 0.2794,-1.43917 -1.8122,-2.00256 -2.7174,-2.19253 -7.3944,-1.5522 -5.9107,0.80932 -6.7545,-0.035 -1.5996,-1.60088 2.1284,-0.64647 3.8698,-1.44994 3.8698,-1.78546 0,-0.60555 -1.2057,-0.55471 -10.3363,0.43542 -5.2935,0.57399 -3.748,-0.63069 1.884,-1.46856 4.6725,-0.69515 6.7036,-1.60551 3.5822,-1.60551 -3.0423,0 -22.2843,3.19297 -30.3093,5.02957 -4.4284,1.01338 -4.931,1.26412 -5.931,2.95904 -0.8426,1.42802 -1.4555,1.85182 -2.6786,1.85182 -0.8723,0 -1.5861,0.20746 -1.5861,0.46113 0,0.25368 -1.476,1.9743 -3.2801,3.82376 -2.2416,2.29801 -3.2801,3.79625 -3.2801,4.73241 0,1.77393 0.6868,1.73348 2.2748,-0.13383 1.7125,-2.01391 4.2601,-3.96336 5.1792,-3.96336 0.466,0 0.7463,0.62068 0.7463,1.6523 0,1.17254 0.646,2.35311 2.2245,4.06561 1.8785,2.03801 2.1337,2.58298 1.6406,3.50421 -0.3211,0.60007 -1.1375,1.24928 -1.8144,1.44285 -0.9981,0.28543 -2.7042,1.04457 -6.3291,2.81604 -0.098,0.0482 0.5494,1.76997 1.4387,3.82678 0.8893,2.05691 1.9111,4.66229 2.2707,5.78984 0.7252,2.27401 0.9197,2.37022 2.4502,1.21261 1.5449,-1.16847 2.425,-0.98786 2.8181,0.57852 0.4736,1.88707 2.2665,2.82115 3.3448,1.74284 0.6263,-0.62634 0.6738,-1.06356 0.2096,-1.93092 -0.7952,-1.48576 -0.7591,-1.73972 0.2467,-1.73972 0.8255,0 2.9441,3.87139 2.968,5.42378 0.019,1.21602 -1.6734,2.77654 -3.0107,2.77654 -0.6674,0 -2.2531,-0.3669 -3.5238,-0.81518 l -2.3105,-0.81519 0.465,3.95863 c 0.2558,2.17723 0.4113,6.33849 0.3457,9.24716 l -0.1195,5.28853 3.3996,0.35226 c 1.8697,0.19365 5.3477,0.2739 7.7288,0.17825 l 4.3292,-0.17381 4.3323,-5.19355 c 2.3829,-2.8564 6.954,-8.20297 10.1581,-11.88107 5.3307,-6.1196 7.4237,-9.17004 11.7023,-17.0561 1.0337,-1.9054 1.8447,-2.77068 2.5966,-2.77068 0.6015,0 1.0936,0.25575 1.0936,0.56841 0,0.7425 -2.0398,4.76057 -3.3887,6.67515 -1.1793,1.67393 -0.7862,1.988 0.749,0.59865 0.9428,-0.85337 0.9996,-0.82785 0.9996,0.44932 0,0.74467 -0.365,2.44337 -0.8109,3.77489 -1.0466,3.12388 -3.0155,15.32327 -3.0156,18.68476 -1e-4,3.06802 -1.2015,2.87105 12.4579,2.04273 10.4058,-0.63097 12.3327,-0.35395 12.5881,1.80976 0.1959,1.65985 -2.9441,8.0266 -5.1116,10.36403 -1.1825,1.27528 -1.83,1.50069 -4.3092,1.50069 -1.9746,0 -3.1463,-0.27522 -3.6245,-0.85148 -0.3887,-0.46841 -1.7881,-1.48528 -3.1099,-2.25992 -3.0474,-1.78594 -3.6774,-1.27736 -2.8715,2.31833 0.7654,3.41546 1.3931,4.15456 3.1531,3.7128 1.2106,-0.30386 1.3382,-0.21313 0.9689,0.68863 -1.2761,3.1166 -1.0404,3.49201 1.3389,2.13186 3.3784,-1.93121 2.9084,0.051 -0.8201,3.45836 -1.6537,1.51147 -3.0068,3.01216 -3.0068,3.33502 0,0.97198 1.3697,0.66689 3.5016,-0.77974 1.1076,-0.75176 2.2489,-1.36677 2.5363,-1.36677 0.7862,0 0.628,0.8719 -0.2977,1.64011 -0.451,0.37427 -0.82,1.04768 -0.82,1.49653 0,0.70536 0.1826,0.69629 1.3475,-0.0671 1.4895,-0.97586 2.4794,-1.13767 2.4794,-0.40519 0,0.26275 -1.3531,1.99416 -3.0069,3.84758 -1.7458,1.95663 -3.0027,3.87687 -2.9971,4.57911 0.01,1.03143 0.3902,0.80129 2.5968,-1.56336 4.323,-4.63308 8.3093,-6.51249 4.3681,-2.05946 -3.5101,3.96619 -4.8747,6.11742 -4.6931,7.39894 0.1553,1.09485 0.5614,0.77633 3.0987,-2.43015 2.7998,-3.53813 3.9136,-4.41068 3.9136,-3.06575 0,0.34327 -0.9841,2.18233 -2.1868,4.08669 -2.0687,3.27567 -2.8521,5.60516 -1.6313,4.85065 0.3056,-0.18884 1.7893,-2.17174 3.2972,-4.40643 z m -35.5604,-60.38246 c 0,-0.32248 1.0107,-2.42797 2.246,-4.67864 1.8263,-3.32774 2.3879,-3.97431 3.0067,-3.46082 1.2076,1.00223 0.8922,3.53766 -0.671,5.39543 -1.5955,1.89614 -4.5817,3.68463 -4.5817,2.74403 z m -5.6491,-1.99274 c -0.2004,-0.20046 -0.3644,-1.28425 -0.3644,-2.4084 0,-2.25397 2.6049,-5.93208 5.5263,-7.8028 1.4314,-0.91669 1.6062,-0.92746 1.9167,-0.11824 0.2335,0.60849 -0.6312,1.91051 -2.7307,4.11155 -3.0498,3.19741 -3.7013,4.59594 -2.389,5.12843 0.5144,0.20869 0.4805,0.42078 -0.1367,0.85724 -0.9631,0.68117 -1.3269,0.72757 -1.8222,0.23222 z m 0.4763,-16.33883 c -1.8996,-2.04963 -1.8751,-4.76454 0.059,-6.5571 1.5493,-1.43585 1.8184,-1.52186 3.1556,-1.00874 1.0655,0.40886 1.0855,2.22098 0.044,4.0416 -1.0846,1.89737 -1.0089,2.2898 0.4027,2.0882 0.9433,-0.13487 1.2987,-0.64449 1.555,-2.23082 0.41,-2.53694 0.8564,-3.02927 1.8235,-2.01154 2.0814,2.19036 1.2974,4.53223 -1.9076,5.69835 -1.0304,0.37493 -2.2947,0.86064 -2.8095,1.07944 -0.6502,0.27627 -1.3597,-0.0595 -2.3235,-1.09939 z m -46.1185,78.47898 c 0.2039,-1.95446 1.0245,-5.15253 1.8234,-7.10699 3.4825,-8.51817 8.2425,-12.80797 5.4595,-4.92011 -1.5496,4.39225 -0.975,4.79044 1.5913,1.10288 5.0309,-7.229 5.8832,-5.27502 1.732,3.97054 -1.6774,3.73623 -3.0499,7.07522 -3.0499,7.4201 0,0.34488 0.4634,0.62701 1.0299,0.62701 0.7425,0 1.383,-0.877 2.2955,-3.14354 1.5983,-3.96893 4.4328,-8.86078 5.908,-10.19579 1.1137,-1.0079 1.1412,-1.00365 1.6058,0.25263 l 0.4728,1.27802 0.9671,-1.47593 c 0.532,-0.81178 1.1849,-1.47603 1.4509,-1.47603 0.643,0 0.615,2.5568 -0.054,4.88761 -0.8691,3.03031 -0.2071,2.57929 1.6764,-1.14211 1.8773,-3.70882 3.2174,-8.02292 3.2279,-10.39125 0.01,-1.18436 -0.1952,-1.39947 -1.0868,-1.1663 -0.8391,0.21946 -1.0935,0.017 -1.0935,-0.87114 0,-1.52347 -0.9397,-1.46052 -3.4266,0.22929 l -2.0402,1.38643 v -1.40401 c 0,-0.77218 0.369,-2.28714 0.8201,-3.36659 2.1518,-5.15007 -0.3876,-3.81071 -3.8982,2.05597 -1.2932,2.16115 -2.436,4.18338 -2.5395,4.49395 -0.1035,0.31057 -0.6039,0.40518 -1.1121,0.2101 -1.3768,-0.52823 -1.1635,-3.95144 0.4641,-7.4478 0.7576,-1.62743 1.3006,-3.18909 1.2068,-3.47046 -0.3167,-0.95015 -5.8157,4.55293 -8.3323,8.33841 -1.3741,2.06702 -3.2575,5.43238 -4.1852,7.47852 -1.9027,4.19623 -4.2913,13.02762 -4.2913,15.86645 0,1.7279 0.1214,1.8657 1.5035,1.70664 1.4231,-0.1637 1.5232,-0.36275 1.8741,-3.7265 z m 4.0231,2.31512 c 0.6131,-0.43439 2.0925,-8.31147 1.6452,-8.7589 -0.4262,-0.42617 -3.578,6.57373 -3.5784,7.94721 -5e-4,1.22273 0.8493,1.57952 1.9332,0.81169 z m -18.869,-4.63856 c 0.01,-0.37588 0.516,-1.79038 1.132,-3.14344 1.0497,-2.30549 1.1681,-2.3949 1.8842,-1.42254 0.7282,0.989 0.7913,0.96339 1.3427,-0.54666 1.3195,-3.61318 1.8013,-4.58894 2.5895,-5.24298 0.7323,-0.60773 0.7864,-0.27438 0.4635,2.85196 -0.3454,3.34334 -0.3155,3.47934 0.537,2.44678 0.4966,-0.6013 1.2654,-1.95436 1.7085,-3.00678 4.2917,-10.19116 5.2168,-11.71303 10.3672,-17.05439 2.811,-2.91529 5.111,-5.54041 5.111,-5.83341 0,-0.29309 -0.7996,-0.6908 -1.7768,-0.8838 -0.9771,-0.19309 -2.4309,-0.60224 -3.2304,-0.90932 -1.0285,-0.39497 -1.7987,-0.37371 -2.6327,0.0728 -1.6054,0.85913 -5.4296,6.99526 -7.6706,12.3078 -2.9593,7.01512 -5.21,9.92492 -8.8546,11.44773 -1.8246,0.76245 -2.0812,0.75035 -3.1939,-0.15056 -0.8601,-0.69657 -1.2838,-1.75938 -1.4664,-3.6783 -0.2338,-2.45651 -0.073,-2.94392 1.788,-5.4321 2.7262,-3.64446 7.43,-7.59949 7.9799,-6.70964 0.2899,0.46888 0.5292,0.34696 0.8105,-0.41265 0.2196,-0.59289 1.2783,-2.18138 2.3529,-3.52981 1.9376,-2.43176 1.9405,-2.44348 0.3606,-1.43218 -0.876,0.56076 -2.4136,1.50391 -3.4167,2.09576 -1.0032,0.59185 -1.824,1.2904 -1.824,1.5522 0,0.26181 -1.8695,1.73755 -4.1544,3.27945 -4.7977,3.23739 -6.0505,5.35129 -6.8244,11.51446 -0.2579,2.05483 -0.9684,4.71473 -1.5787,5.911 -1.306,2.55991 -1.4753,4.34698 -0.1843,1.94529 1.1972,-2.22732 3.4825,-5.19355 4.0013,-5.19355 0.9055,0 1.0081,1.72743 0.2506,4.22364 -1.1713,3.86052 -1.0039,5.26746 0.3268,2.74658 1.5254,-2.88948 2.6962,-2.71142 2.6962,0.41 0,1.35307 0.2461,2.46011 0.5468,2.46011 0.3007,0 0.5521,-0.30746 0.5587,-0.68334 z m 89.4363,-3.16773 c 0.5246,-3.17161 0.5012,-3.29807 -0.5792,-3.14354 -1.219,0.17438 -1.779,2.67342 -1.1557,5.15687 0.5445,2.16967 1.1615,1.45363 1.7349,-2.01333 z m -5.5647,-4.49556 c 0.4468,-0.68192 1.0612,-3.32652 1.3652,-5.87689 0.3041,-2.55046 0.6939,-5.49816 0.8664,-6.55058 0.2256,-1.37631 0.01,-2.40141 -0.7745,-3.65192 -0.9046,-1.44512 -1.5318,-1.7953 -3.7163,-2.07459 -5.6568,-0.72331 -7.4663,-1.13133 -7.6648,-1.72828 -0.2606,-0.78409 2.6973,-1.83887 5.1564,-1.83887 1.6264,0 1.8471,-0.1602 1.6951,-1.2301 -0.167,-1.17584 -0.3768,-1.22452 -4.7663,-1.10411 -7.6477,0.20973 -10.4222,1.21441 -20.9795,7.59694 -4.0769,2.46474 -6.1031,5.50431 -5.6953,8.54388 0.1589,1.18587 0.7397,2.57107 1.2905,3.07842 1.2757,1.17491 8.7359,3.89521 10.6729,3.89171 0.8091,0 1.6365,0.26483 1.8384,0.59166 0.2021,0.32692 0.8802,0.46019 1.5073,0.29621 0.6269,-0.16389 1.4444,-0.0454 1.8167,0.26369 0.4645,0.38552 1.0204,0.37787 1.772,-0.0246 0.7033,-0.37636 1.2133,-0.39488 1.4254,-0.052 0.1818,0.29404 1.3652,0.40622 2.6301,0.24952 1.2647,-0.1567 3.4066,-0.0548 4.7597,0.22712 4.3163,0.89864 5.9067,0.75649 6.8006,-0.60782 z m -5.7133,-4.78516 c -0.8551,-1.59776 -0.17,-2.29839 1.8348,-1.87648 2.4332,0.51199 2.9638,1.18237 1.6954,2.14169 -1.4941,1.12992 -2.8376,1.02897 -3.5302,-0.26521 z m -0.1826,-7.00197 c -0.4976,-0.54989 -0.9047,-1.56024 -0.9047,-2.24528 0,-0.97794 0.2055,-1.15742 0.9567,-0.83531 0.8239,0.35329 4.2054,1.4901 6.6218,2.22627 0.5962,0.18166 0.6101,0.38931 0.07,1.04051 -1.0039,1.20959 -5.595,1.08285 -6.7435,-0.18619 z m 53.7639,10.84009 c 0,-0.30064 -0.3835,-0.54666 -0.8522,-0.54666 -0.4688,0 -0.7003,0.24602 -0.5145,0.54666 0.1858,0.30065 0.5694,0.54667 0.8523,0.54667 0.2829,0 0.5144,-0.24602 0.5144,-0.54667 z m -129.3743,-5.44722 c 2.1913,-2.42551 4.9091,-7.41869 4.572,-8.39993 -0.4709,-1.37102 -7.496,7.6287 -7.496,9.603 0,1.48576 0.7875,1.16177 2.924,-1.20307 z m 119.8073,-3.84643 c -0.1858,-0.30075 -0.6309,-0.54299 -0.989,-0.53836 -0.3912,0.009 -0.3238,0.21994 0.169,0.53836 1.0502,0.6787 1.2395,0.6787 0.82,0 z m -3.6286,-1.41923 c 1.1418,-0.3583 -0.3179,-1.86088 -1.8078,-1.86088 -1.6571,0 -6.3174,1.63584 -6.3174,2.21758 0,0.44365 6.4816,0.15907 8.1252,-0.3567 z m -71.8333,-6.75019 c 0.4731,-0.76556 -2.3341,-2.68996 -3.4851,-2.38894 -0.5671,0.1483 -1.6368,-0.12731 -2.3772,-0.61245 -1.2606,-0.82586 -1.4293,-0.81159 -2.6526,0.22381 -1.2968,1.09769 -1.2984,1.11215 -0.213,1.95824 0.6013,0.46869 1.6468,0.74902 2.3234,0.62285 0.6765,-0.12628 1.2301,-0.0709 1.2301,0.12249 0,0.55262 4.8359,0.6218 5.1744,0.0737 z m 52.8168,-0.18496 c 1.1619,-0.89723 4.8778,-5.81422 4.8778,-6.45456 0,-0.46699 -1.3838,-0.38722 -6.388,0.36832 -1.2802,0.19329 -1.7867,0.58372 -1.9134,1.4748 -0.1092,0.7685 -0.9226,1.57858 -2.2224,2.21371 -1.1275,0.55102 -2.0501,1.20704 -2.0501,1.45788 0,1.34446 6.1926,2.10076 7.6961,0.93985 z m -95.0311,-3.02984 c 5.4207,-3.65401 8.433,-5.11453 10.7443,-5.20952 1.3885,-0.0567 2.0079,-0.35792 2.1384,-1.03861 0.288,-1.50278 -1.3857,-1.7488 -4.7398,-0.69648 -6.7953,2.13186 -12.1046,5.58663 -13.137,8.54842 -0.7426,2.13006 -0.3655,2.00899 4.9941,-1.60381 z m 81.3216,-0.91631 c 0,-0.45102 -0.3691,-0.82001 -0.8201,-0.82001 -0.8537,0 -1.0846,0.64657 -0.4555,1.27556 0.629,0.62909 1.2756,0.39819 1.2756,-0.45555 z m -15.0473,-11.61833 c 2.3981,-2.73656 4.4563,-5.30101 4.5738,-5.69891 0.3884,-1.31545 -8.1609,7.41387 -10.5353,10.75702 -4.6576,6.55804 -2.9434,5.10357 5.9615,-5.05811 z m -31.8111,2.865 c 0.4513,-5.72915 0.4285,-5.8679 -2.4699,-15.02754 -2.027,-6.40559 -6.4448,-17.73924 -7.2149,-18.50934 -0.4148,-0.41483 -0.9946,-0.60556 -1.2885,-0.4239 -0.7251,0.44809 -7.2246,13.56276 -7.2227,14.57397 6e-4,0.44318 0.9743,-0.30131 2.1634,-1.65428 1.1891,-1.35306 2.1725,-2.31805 2.1853,-2.14433 0.013,0.17362 -0.5917,1.82932 -1.3435,3.67924 -1.5991,3.93575 -1.6306,4.1502 -0.5466,3.73425 1.1062,-0.42446 1.0318,0.37276 -0.2734,2.93116 -1.5513,3.0409 -1.3554,3.73576 0.541,1.91883 2.3415,-2.24329 2.5948,-1.35354 0.614,2.15643 -1.7224,3.05186 -1.6226,3.96524 0.2118,1.93829 1.0042,-1.10969 2.46,-1.47971 2.46,-0.6253 0,0.25745 -0.8851,1.62734 -1.967,3.0442 -1.9834,2.59762 -2.3366,3.99171 -0.4961,1.95795 1.4284,-1.57829 2.5687,-1.43444 2.1409,0.26993 -0.2397,0.95507 -0.1193,1.36734 0.3997,1.36885 0.4084,0 1.1975,1.10808 1.7534,2.46001 0.753,1.83102 1.3109,2.4602 2.1868,2.46635 0.6468,0 2.2829,0.36 3.636,0.78985 4.0085,1.27339 4.0469,1.2318 4.5303,-4.90462 z m 29.3643,5.04582 c 1.5443,-1.25401 6.0136,-7.07768 6.0136,-7.83568 0,-0.41653 -0.1845,-0.74732 -0.4101,-0.73523 -0.4624,0.0246 -7.2435,8.37574 -7.2435,8.92043 0,0.54241 0.7346,0.3859 1.64,-0.34952 z m 6.5603,-1.50315 c 0,-1.35637 -1.5672,-2.07156 -2.2335,-1.01924 -0.8536,1.34806 -0.5355,2.12978 0.8667,2.12978 1.0094,0 1.3668,-0.29044 1.3668,-1.11054 z m -68.3582,-0.79165 c 1.4712,-0.74543 2.8208,-1.81514 2.9991,-2.37712 0.1784,-0.56189 0.9505,-1.30694 1.7159,-1.6557 1.1007,-0.50158 1.3121,-0.88503 1.0107,-1.83423 -0.2094,-0.66009 -0.7174,-1.5367 -1.1287,-1.94803 -0.9231,-0.92302 -0.9648,-2.42098 -0.092,-3.29391 0.402,-0.40215 0.4348,-0.65602 0.085,-0.65602 -0.9584,0 -2.1481,1.68169 -5.0595,7.15244 -3.643,6.84528 -3.6574,6.70398 0.4698,4.61257 z m 15.3295,-2.53581 c 0,-0.30074 -0.246,-0.39469 -0.5468,-0.20887 -0.3006,0.18581 -0.5466,0.5839 -0.5466,0.88455 0,0.30065 0.246,0.39469 0.5466,0.20888 0.3008,-0.18591 0.5468,-0.58391 0.5468,-0.88456 z m -3.2801,-15.78942 c 0,-0.30074 -0.246,-0.54676 -0.5468,-0.54676 -0.3006,0 -0.5466,0.24602 -0.5466,0.54676 0,0.30065 0.246,0.54667 0.5466,0.54667 0.3008,0 0.5468,-0.24602 0.5468,-0.54667 z m -35.5347,-1.6401 c 0,-0.30065 -0.2461,-0.54667 -0.5468,-0.54667 -0.3006,0 -0.5467,0.24602 -0.5467,0.54667 0,0.30065 0.2461,0.54667 0.5467,0.54667 0.3007,0 0.5468,-0.24602 0.5468,-0.54667 z m 54.7217,-14.05887 c 2.1378,-1.2628 2.5334,-2.73183 1.117,-4.14831 -1.0902,-1.09003 -1.1709,-1.09561 -2.2131,-0.15236 -1.1637,1.05317 -1.9899,3.76534 -1.4252,4.67901 0.462,0.74761 0.6675,0.7168 2.5213,-0.37834 z m 57.6225,-7.26198 c -0.1858,-0.30065 -0.5694,-0.54667 -0.8523,-0.54667 -0.2829,0 -0.5144,0.24602 -0.5144,0.54667 0,0.30074 0.3835,0.54666 0.8522,0.54666 0.4688,0 0.7003,-0.24592 0.5145,-0.54666 z m -3.5535,-4.10012 c 0,-0.49109 -0.4933,-0.8131 -1.23,-0.80271 -1.1993,0.017 -1.2035,0.0378 -0.1689,0.8201 1.3178,0.99675 1.3989,0.99571 1.3989,-0.017 z m -6.5601,-12.23352 c 0,-0.69912 -1.6075,-1.92184 -2.0045,-1.52479 -0.3971,0.39705 0.8256,2.00455 1.5247,2.00455 0.2638,0 0.4798,-0.21597 0.4798,-0.47976 z m -56.5822,-5.53389 c 0.9688,-0.41633 0.9221,-0.47417 -0.41,-0.5082 -0.8269,-0.0208 -1.5035,0.20755 -1.5035,0.5082 0,0.64166 0.4202,0.64166 1.9135,0 z m 6.2868,-3.89946 c 0,-0.95194 -3.8696,-0.47663 -5.0466,0.61992 -1.1432,1.06498 -1.147,1.11394 -0.1416,1.84907 0.9071,0.6634 1.2852,0.58807 3.1104,-0.61992 1.1429,-0.7562 2.0778,-1.5883 2.0778,-1.84907 z m 3.0069,-3.20743 c -0.6014,-0.2584 -1.7084,-0.46983 -2.4601,-0.46983 -1.2458,0 -1.2701,0.0416 -0.2733,0.46983 0.6013,0.25841 1.7083,0.46983 2.46,0.46983 1.2458,0 1.27,-0.0416 0.2734,-0.46983 z m -9.2073,-1.96863 c 1.2975,-1.98026 0.4146,-3.29069 -2.0469,-3.03806 -2.2348,0.22939 -7.6065,2.19273 -7.6065,2.78013 0,0.68343 3.3253,1.56326 6.1375,1.62404 2.2117,0.0482 2.7185,-0.14915 3.5159,-1.36611 z m 17.8828,-1.6832 c 1.8434,-1.10648 4.8109,-2.99108 6.5945,-4.18801 3.1015,-2.08148 3.1854,-2.19745 1.9278,-2.66265 -0.9139,-0.33808 -2.0375,-0.21048 -3.6835,0.41813 -2.2332,0.8528 -2.4302,0.84883 -3.4442,-0.069 -1.5629,-1.4143 -2.481,-0.34941 -1.6799,1.9486 0.5267,1.51109 0.4854,1.697 -0.3421,1.53973 -0.7271,-0.13828 -0.9813,-0.8615 -1.1175,-3.18059 -0.3223,-5.49013 0.3663,-8.77196 2.1998,-10.48469 2.0639,-1.92805 3.6949,-1.94514 5.9327,-0.0621 l 1.7531,1.47518 1.0016,-1.23687 c 0.61,-0.75338 0.9129,-1.81085 0.7747,-2.70523 -0.1247,-0.8076 -0.3658,-2.5754 -0.5358,-3.92846 -0.1699,-1.35305 -0.7253,-4.10993 -1.2341,-6.12641 -0.5089,-2.01646 -0.767,-3.82455 -0.5736,-4.01796 0.1934,-0.19341 1.2044,-0.0702 2.2467,0.27374 2.3585,0.77836 4.2671,0.32918 5.8753,-1.38272 1.0985,-1.16924 3.2367,-1.83725 3.2367,-1.01119 0,0.62452 -1.2607,2.73119 -2.3504,3.92755 -0.6162,0.67653 -0.8459,1.23006 -0.5106,1.23006 0.3354,0 0.7622,-0.24669 0.9486,-0.54818 0.2247,-0.36378 0.7003,-0.35463 1.4138,0.0271 1.0422,0.55779 1.0453,0.62567 0.1035,2.22491 -1.7748,3.01312 -2.4958,3.39355 -4.6926,2.47568 -1.8828,-0.78671 -1.9321,-0.77451 -2.2674,0.56139 -0.4112,1.63838 0.024,3.21154 1.4502,5.23568 1.3585,1.92881 0.9641,3.08471 -1.8142,5.31742 l -2.2312,1.79305 -3.2758,-0.99183 c -3.8338,-1.16077 -4.8757,-0.78717 -5.4352,1.94907 -0.6,2.93391 -0.2638,3.20384 2.9517,2.36975 3.8081,-0.98776 5.1269,-0.92406 5.9763,0.28855 0.9886,1.41138 5.0949,1.20893 7.6625,-0.37796 2.5429,-1.57158 3.1049,-1.50665 1.5241,0.17608 -1.3567,1.44408 -1.1566,1.73159 0.564,0.81074 1.4119,-0.75564 2.1103,-3.68585 2.6719,-11.20974 0.4299,-5.76141 0.635,-6.60881 2.214,-9.14874 l 1.74,-2.79921 -1.2715,-0.98348 c -1.7676,-1.36714 -10.5265,-6.58056 -13.9433,-8.29921 -6.2917,-3.16472 -3.4145,-3.44829 3.7793,-0.37248 5.3092,2.27002 5.3109,2.30027 -0.1122,-2.08758 -2.6692,-2.15977 -2.5725,-2.66279 0.2825,-1.46987 1.131,0.47258 2.1391,0.77656 2.2401,0.67553 0.101,-0.10104 -0.5518,-0.88832 -1.4506,-1.74952 -3.1686,-3.03563 -1.4103,-3.41581 2.3871,-0.51618 1.3964,1.06615 2.5388,1.79215 2.5388,1.61335 0,-0.17881 -1.0295,-1.78478 -2.2876,-3.56884 -1.2581,-1.78404 -2.1518,-3.37944 -1.986,-3.5453 0.1659,-0.16588 1.5776,0.70702 3.1372,1.93974 l 2.8355,2.24133 -1.0752,-2.0861 c -3.0751,-5.96677 -10.2514,-10.63623 -17.9955,-11.7094 -3.6859,-0.51079 -11.336,0.0356 -12.7521,0.91083 -1.4989,0.92633 0.1004,1.33219 5.2494,1.33219 6.4579,0 7.6594,0.77802 2.0501,1.32744 -4.9293,0.48281 -9.4304,1.3876 -9.4304,1.89565 0,0.22667 2.7676,0.32037 6.1502,0.2082 7.2263,-0.23962 7.0398,0.45451 -0.4689,1.74495 -7.171,1.23241 -7.8681,1.41439 -7.8681,2.05403 0,0.40245 2.1346,0.46454 6.889,0.20037 5.5483,-0.30827 6.8432,-0.24401 6.6538,0.33013 -0.1427,0.43286 -3.0654,1.26945 -7.4402,2.12973 -3.9628,0.77926 -7.367,1.57879 -7.5649,1.77673 -0.7164,0.71638 0.2073,0.87661 2.0338,0.35278 3.0339,-0.8701 12.0024,-1.34932 12.0024,-0.64132 0,0.33346 -1.0455,0.87075 -2.3235,1.19397 -1.2778,0.32321 -2.8154,0.79474 -3.4167,1.04784 -1.079,0.45415 -0.078,0.70077 5.1507,1.26944 1.956,0.21273 2.1257,1.5107 0.1973,1.5107 -0.8671,0 -3.7195,0.46826 -6.3386,1.0406 -2.6189,0.57234 -5.2511,0.91266 -5.8491,0.75628 -0.598,-0.15639 -1.0873,-0.0232 -1.0873,0.29609 0,0.39612 2.387,0.48351 7.5169,0.27519 7.7319,-0.31399 17.38,0.44265 18.3788,1.4413 0.3875,0.38759 -2.5345,0.56404 -9.341,0.56404 -5.4478,0 -10.2941,0.14932 -10.7698,0.33183 -0.626,0.24019 -0.8647,1.07251 -0.8647,3.01371 0,1.47503 -0.4921,4.45738 -1.0935,6.62745 -1.8377,6.63185 -1.4929,8.06046 2.8701,11.89313 2.4252,2.13025 2.5968,2.45576 2.5968,4.92337 0,3.28796 -0.4791,4.78714 -1.1935,3.73416 -0.3855,-0.56822 -0.7005,-0.43032 -1.4274,0.62464 -0.5128,0.74458 -1.6522,2.1794 -2.5321,3.18843 -1.7559,2.014 -1.509,2.54867 1.4762,3.19722 0.8342,0.18128 2.0195,1.03559 2.634,1.8986 1.5085,2.11834 3.1592,2.01769 7.2583,-0.4427 z m 13.6999,-13.00466 c -1.2692,-1.93687 -0.738,-2.98099 0.7563,-1.4867 1.2319,1.2318 1.6061,2.83589 0.6617,2.83589 -0.2937,0 -0.9319,-0.60716 -1.418,-1.34919 z m -20.1766,-13.22897 c -2.3155,-0.71033 -2.5891,-0.93159 -1.8342,-1.48359 0.7694,-0.56258 0.7859,-0.78728 0.1246,-1.69167 -1.2571,-1.71919 -0.9855,-2.53169 0.6397,-1.91379 1.514,0.57562 4.0646,0.72162 4.0646,0.23267 0,-0.16527 -0.3762,-1.02806 -0.8361,-1.91731 -0.7718,-1.49256 -1.0029,-1.59013 -3.0068,-1.26969 -2.4631,0.39388 -2.8761,-0.32991 -0.9556,-1.67505 2.2395,-1.56859 4.4972,-1.08628 7.5319,1.60907 1.5235,1.35306 3.0077,2.4601 3.2984,2.4601 1.0098,0 0.5197,2.18484 -0.975,4.34545 -1.2748,1.84286 -1.7943,2.17067 -3.4167,2.15598 -1.0524,-0.01 -3.1381,-0.39301 -4.6348,-0.85217 z m 3.7391,-1.54911 c -0.1731,-0.45101 -0.6874,-0.82003 -1.1432,-0.82003 -0.6744,0 -0.7019,0.15247 -0.1479,0.82003 0.3744,0.45102 0.8888,0.82003 1.1432,0.82003 0.2544,0 0.3209,-0.36901 0.1479,-0.82003 z m -22.8753,21.98884 c -4.6679,-2.51436 -5.8715,-4.74583 -5.5936,-10.37172 0.1151,-2.33026 0.1149,-4.23683 -4e-4,-4.23683 -0.6364,0 -2.3207,4.97448 -2.3309,6.8843 -0.026,4.94554 4.4358,9.53845 9.231,9.50093 l 1.9641,-0.0151 -3.2702,-1.76136 z m 5.7302,-3.98405 c 0,-1.97421 -0.2672,-4.08886 -0.5938,-4.69924 l -0.594,-1.10979 -1.0675,1.14571 c -1.8489,1.9846 -3.4141,1.14466 -4.9956,-2.68105 l -0.791,-1.91341 -0.6966,2.27069 c -1.3553,4.41773 0.7841,8.85866 4.7787,9.91986 3.9548,1.05053 3.9598,1.04674 3.9598,-2.93277 z m 7.1273,-2.20416 c 0.877,-2.3068 -0.2491,-5.40126 -2.4637,-6.76997 -1.0312,-0.63733 -2.3995,-2.00743 -3.0405,-3.04465 -0.7007,-1.13378 -1.6019,-1.88585 -2.2599,-1.88585 -1.2352,0 -1.2642,-0.13052 0.7948,3.5753 0.8387,1.50922 2.0528,2.98276 2.6981,3.27452 0.6454,0.29176 1.3897,1.2685 1.654,2.17053 0.7067,2.41151 1.4392,4.10019 1.7787,4.10019 0.1642,0 0.5416,-0.63901 0.8384,-1.42007 z m 40.6962,-3.83221 c 0.9477,-1.44633 0.9442,-1.46491 -0.2184,-1.16089 -1.0091,0.26389 -1.1282,0.13612 -0.8165,-0.87578 0.2009,-0.65161 0.6684,-1.79976 1.0392,-2.55146 0.3707,-0.7517 0.8516,-2.10474 1.0686,-3.00679 l 0.3946,-1.64006 -1.5479,1.36117 c -2.732,2.40239 -2.9146,2.82163 -2.9146,6.68953 0,3.47714 0.072,3.70312 1.0159,3.19785 0.5588,-0.29904 1.4493,-1.20517 1.9791,-2.01357 z m -52.1969,-6.74262 c 0,-0.28292 -0.246,-0.66646 -0.5467,-0.8523 -0.3007,-0.18582 -0.5468,0.0456 -0.5468,0.51443 0,0.46877 0.2461,0.85229 0.5468,0.85229 0.3007,0 0.5467,-0.23148 0.5467,-0.51442 z m 4.2642,-3.42173 c 0.8595,-0.85956 0.8405,-2.07741 -0.033,-2.07741 -0.8122,0 -2.1299,1.9196 -1.6483,2.40115 0.4946,0.49463 0.9501,0.40689 1.6807,-0.32374 z m 32.6372,-2.6241 c 0.1858,-0.30068 0.078,-0.54668 -0.2411,-0.54668 -0.3184,0 -0.5789,0.246 -0.5789,0.54668 0,0.30068 0.1085,0.54669 0.2411,0.54669 0.1325,0 0.3931,-0.24601 0.5789,-0.54669 z m -32.2545,-3.28012 c 0.1858,-0.30068 0.078,-0.54669 -0.2412,-0.54669 -0.3184,0 -0.5789,0.24601 -0.5789,0.54669 0,0.30068 0.1085,0.54669 0.2411,0.54669 0.1326,0 0.3931,-0.24601 0.579,-0.54669 z m 5.4668,-12.31831 1.64,-0.78854 -1.9134,0.32925 c -1.0523,0.18109 -2.2824,0.53955 -2.7334,0.79658 -1.4631,0.83381 1.1901,0.53617 3.0068,-0.33729 z m 42.3683,-2.44671 c 0,-1.16557 -0.5058,-1.96574 -1.9283,-3.05075 -1.0606,-0.80893 -2.0788,-1.3203 -2.2626,-1.13638 -0.4688,0.46876 3.1935,6.38352 3.7424,6.04425 0.2467,-0.15243 0.4485,-0.98813 0.4485,-1.85712 z m -5.2449,-10.43928 c -1.3028,-1.43976 -5.6315,-4.00975 -6.0495,-3.59176 -0.2773,0.27738 6.1408,4.74179 6.817,4.74179 0.1504,0 -0.195,-0.51752 -0.7675,-1.15003 z m -134.4339,289.80128 c 0.1858,-0.3007 0.4464,-0.5467 0.579,-0.5467 0.1326,0 0.2411,0.246 0.2411,0.5467 0,0.3006 -0.2606,0.5466 -0.579,0.5466 -0.3184,0 -0.4269,-0.246 -0.2411,-0.5466 z m 13.6697,-44.8323 c 0.1871,-0.3028 1.1241,-0.9492 2.0823,-1.4363 l 1.7421,-0.88567 -1.3254,1.43617 c -1.2561,1.3613 -3.224,2.0587 -2.499,0.8858 z m 201.2788,-3.63157 c -0.5601,-0.5601 -0.4499,-2.9249 0.1362,-2.9249 0.7429,0 1.326,2.2098 0.7381,2.7977 -0.2754,0.2754 -0.6688,0.3327 -0.8743,0.1272 z m 0.7198,-52.1267 c 0,-0.6416 0.4202,-0.6416 1.9134,0 0.9689,0.4162 0.9222,0.4742 -0.41,0.5082 -0.8269,0.022 -1.5034,-0.2075 -1.5034,-0.5082 z" id="path130299" inkscape:connector-curvature="0" style="fill:#524100;fill-opacity:1"/>
</g></g>
</g>
</svg>