<?xml version="1.0" encoding="utf-8"?>
<!-- Created with Inkscape (http://www.inkscape.org/) --><svg height="152.42821mm" id="svg6779" inkscape:version="0.91 r13725" sodipodi:docname="niveau4.svg" version="1.1" viewBox="0 0 338.49999 540.09995" width="95.532219mm" xmlns="http://www.w3.org/2000/svg" xmlns:cc="http://creativecommons.org/ns#" xmlns:dc="http://purl.org/dc/elements/1.1/" xmlns:inkscape="http://www.inkscape.org/namespaces/inkscape" xmlns:rdf="http://www.w3.org/1999/02/22-rdf-syntax-ns#" xmlns:sodipodi="http://sodipodi.sourceforge.net/DTD/sodipodi-0.dtd" xmlns:svg="http://www.w3.org/2000/svg">
<defs id="defs6781"/>
<sodipodi:namedview bordercolor="#666666" borderopacity="1.0" id="base" inkscape:current-layer="layer1" inkscape:cx="306.29354" inkscape:cy="200.17562" inkscape:document-units="px" inkscape:pageopacity="0.0" inkscape:pageshadow="2" inkscape:window-height="876" inkscape:window-maximized="1" inkscape:window-width="1535" inkscape:window-x="65" inkscape:window-y="24" inkscape:zoom="0.9899495" pagecolor="#ffffff" showgrid="false"/>
<metadata id="metadata6784">
<rdf:RDF>
<cc:Work rdf:about="">
<dc:format>image/svg+xml</dc:format>
<dc:type rdf:resource="http://purl.org/dc/dcmitype/StillImage"/>
<dc:title/>
</cc:Work>
</rdf:RDF>
</metadata>
<g id="layer1" inkscape:groupmode="layer" inkscape:label="Calque 1" transform="translate(0,0.23029041)">
<rect height="539.09998" id="rect4326-0-3-6-4-3-2-61-6-9-9-5-0-7-0-5-8-8-9-4-5-5" inkscape:export-xdpi="90" inkscape:export-ydpi="90" style="fill:#ffffff;fill-opacity:1;stroke:none;stroke-opacity:1" width="337.5" x="0.5" y="0.26970959"/>
<rect height="486.97104" id="rect2985-3-0-7-7-6-9-6-2-0-3-5-4-5-0-77-3-1-3-5-5-4-3-9-7-0-1-8-1" inkscape:export-filename="/home/thomas/Documents/fallacies/png/rect2985-3-0-7-7.png" inkscape:export-xdpi="90" inkscape:export-ydpi="90" rx="9.2935619" ry="7.1613393" style="fill:#ffffff;fill-opacity:1;stroke:#face00;stroke-width:12;stroke-miterlimit:4;stroke-dasharray:none;stroke-dashoffset:0;stroke-opacity:1" width="285.0025" x="26.906189" y="26.612749"/>
<ellipse cx="169.40732" cy="279.7749" id="oval" inkscape:label="#path6246-7-6-6-9-7-6-9-3-1-1-722-4-6-4-7-1-9-6-2-0-7-5-4-6-9-9" rx="131.36859" ry="205.59465" style="fill:#ffe155;fill-opacity:1;stroke:#ffe155;stroke-width:1.01065052;stroke-opacity:1"/>
<rect height="15" id="sfam_1_active" inkscape:label="#rect13148-3-0-9-3-80-7-76" style="fill:#ffffff;fill-opacity:1;stroke:none;stroke-width:5.83799982;stroke-linecap:round;stroke-linejoin:bevel;stroke-miterlimit:4;stroke-dasharray:none;stroke-dashoffset:0;stroke-opacity:1;display:none;" transform="matrix(0,1,-1,0,0,0)" width="65.714287" x="424.88379" y="-34.320938"/>
<rect height="15" id="sfam_2_active" inkscape:label="#rect13148-3-0-9-3-80-7-76" style="fill:#ffffff;fill-opacity:1;stroke:none;stroke-width:5.83799982;stroke-linecap:round;stroke-linejoin:bevel;stroke-miterlimit:4;stroke-dasharray:none;stroke-dashoffset:0;stroke-opacity:1;display:none;" transform="matrix(0,1,-1,0,0,0)" width="65.714287" x="233.68585" y="-34.320938"/>
<rect height="15" id="sfam_3_active" inkscape:label="#rect13148-3-0-9-3-80-7-76" style="fill:#ffffff;fill-opacity:1;stroke:none;stroke-width:5.83799982;stroke-linecap:round;stroke-linejoin:bevel;stroke-miterlimit:4;stroke-dasharray:none;stroke-dashoffset:0;stroke-opacity:1" transform="matrix(0,1,-1,0,0,0)" width="65.714287" x="42.184151" y="-34.320938"/>
<text id="sfam_3" inkscape:label="#text4212-1-29-1-2-8-9-0-9-6-9-8-3-1-0-6-8-0-4-2-3-6-9-3-6-2-6-4-2" sodipodi:linespacing="0%" style="font-style:normal;font-variant:normal;font-weight:bold;font-stretch:normal;font-size:11.25px;line-height:0%;font-family:stix;-inkscape-font-specification:'stix, bold';text-align:end;letter-spacing:0px;word-spacing:0px;writing-mode:lr-tb;text-anchor:end;fill:#1e1800;fill-opacity:1;stroke:none" transform="matrix(0,-1,1,0,0,0)" x="-45.82415" xml:space="preserve" y="31.116638"><tspan id="tspan4214-27-1-2-9-7-6-4-1-1-1-3-9-59-96-1-6-2-1-8-8-2-7-4-5-4-7-3-9" sodipodi:role="line" style="font-style:normal;font-variant:normal;font-weight:bold;font-stretch:normal;font-size:11.25px;line-height:0%;font-family:stix;-inkscape-font-specification:'stix, bold';text-align:end;letter-spacing:0px;word-spacing:0px;writing-mode:lr-tb;text-anchor:end;fill:#1e1800;fill-opacity:1;stroke:none" x="-45.82415" y="31.116638">Manipulation
mentale</tspan></text>
<rect height="17.763229" id="rect5818-6-6-9-3-0-7" style="fill:#face00;fill-opacity:1;stroke:none;stroke-width:0.91443771;stroke-linecap:round;stroke-linejoin:bevel;stroke-miterlimit:4;stroke-dasharray:none;stroke-dashoffset:0;stroke-opacity:1" width="278.215" x="30.299866" y="495.76239"/>
<text id="fam_num" inkscape:label="#text5665-3-4-9-4-3-3-5-7-5-8-4-6-8-6-6-3-0-6-3-4" style="font-style:normal;font-weight:normal;line-height:0%;font-family:sans-serif;letter-spacing:0px;word-spacing:0px;fill:#000000;fill-opacity:1;stroke:none" x="40.722107" xml:space="preserve" y="513.8327"><tspan id="tspan5667-04-4-6-18-8-8-0-0-1-5-7-0-9-2-1-9-1-5-0-3" sodipodi:role="line" style="font-style:normal;font-variant:normal;font-weight:bold;font-stretch:normal;font-size:17.5px;line-height:1.25;font-family:STIX;-inkscape-font-specification:'STIX Bold';fill:#ffffff" x="40.722107" y="513.8327">4</tspan></text>
<text id="sfam_2" inkscape:label="#text4212-1-29-1-2-8-9-0-9-6-9-15-4-9-9-24-4-6-7-5-4-2-6-9-5" sodipodi:linespacing="0%" style="font-style:normal;font-variant:normal;font-weight:bold;font-stretch:normal;font-size:11.25px;line-height:0%;font-family:stix;-inkscape-font-specification:'stix, bold';text-align:start;letter-spacing:0px;word-spacing:0px;writing-mode:lr-tb;text-anchor:start;fill:#FFFFFF;fill-opacity:1;stroke:none" transform="matrix(0,-1,1,0,0,0)" x="-285.88123" xml:space="preserve" y="29.420349"><tspan id="tspan4214-27-1-2-9-7-6-4-1-1-1-9-8-7-7-0-88-0-1-6-8-0-3-2-6" sodipodi:role="line" style="font-style:normal;font-variant:normal;font-weight:bold;font-stretch:normal;font-size:11.25px;line-height:0%;font-family:stix;-inkscape-font-specification:'stix, bold';text-align:start;letter-spacing:0px;word-spacing:0px;writing-mode:lr-tb;text-anchor:start;fill:#FFFFFF;fill-opacity:1;stroke:none" x="-285.88123" y="29.420349">Appel à l'émotion</tspan></text>
<text id="sfam_1" inkscape:label="#text4212-1-29-1-2-8-9-0-9-6-9-17-4-1-5-6-8-7-5-1-12-0-9-54-1" sodipodi:linespacing="0%" style="font-style:normal;font-variant:normal;font-weight:bold;font-stretch:normal;font-size:11.25px;line-height:0%;font-family:stix;-inkscape-font-specification:'stix, bold';text-align:start;letter-spacing:0px;word-spacing:0px;writing-mode:lr-tb;text-anchor:start;fill:#FFFFFF;fill-opacity:1;stroke:none" transform="matrix(0,-1,1,0,0,0)" x="-487.50934" xml:space="preserve" y="29.420349"><tspan id="tspan4214-27-1-2-9-7-6-4-1-1-1-85-8-3-3-2-9-0-8-7-9-6-4-0-4" sodipodi:role="line" style="font-style:normal;font-variant:normal;font-weight:bold;font-stretch:normal;font-size:11.25px;line-height:0%;font-family:stix;-inkscape-font-specification:'stix, bold';text-align:start;letter-spacing:0px;word-spacing:0px;writing-mode:lr-tb;text-anchor:start;fill:#FFFFFF;fill-opacity:1;stroke:none" x="-487.50934" y="29.420349">Procédé
rhétorique</tspan></text>
<rect height="15" id="ssfam_1_active" inkscape:label="#rect13148-3-0-9-3-80-7-7-3-3" style="fill:#ffffff;fill-opacity:1;stroke:none;stroke-width:5.83799982;stroke-linecap:round;stroke-linejoin:bevel;stroke-miterlimit:4;stroke-dasharray:none;stroke-dashoffset:0;stroke-opacity:1" transform="matrix(0,1,-1,0,0,0)" width="124.30313" x="366.29495" y="-319.71991"/>
<rect height="15" id="ssfam_2_active" inkscape:label="#rect13148-3-0-9-3-80-7-7-3-3" style="fill:#ffffff;fill-opacity:1;stroke:none;stroke-width:5.83799982;stroke-linecap:round;stroke-linejoin:bevel;stroke-miterlimit:4;stroke-dasharray:none;stroke-dashoffset:0;stroke-opacity:1;display:none;" transform="matrix(0,1,-1,0,0,0)" width="124.30313" x="204.55513" y="-319.71991"/>
<rect height="15" id="ssfam_3_active" inkscape:label="#rect13148-3-0-9-3-80-7-7-3-3" inkscape:transform-center-x="27.937032" inkscape:transform-center-y="5.2085991" style="fill:#ffffff;fill-opacity:1;stroke:none;stroke-width:5.83799982;stroke-linecap:round;stroke-linejoin:bevel;stroke-miterlimit:4;stroke-dasharray:none;stroke-dashoffset:0;stroke-opacity:1;display:none;" transform="matrix(0,1,-1,0,0,0)" width="124.30313" x="42.184151" y="-319.67227"/>
<text id="ssfam_3" inkscape:label="#text4212-1-29-1-2-8-9-0-9-6-9-8-3-1-0-6-92-3-6-9-3-6-2-3-39-8-5-0" sodipodi:linespacing="0%" style="font-style:normal;font-variant:normal;font-weight:bold;font-stretch:normal;font-size:11.25px;line-height:0%;font-family:stix;-inkscape-font-specification:'stix, bold';text-align:start;letter-spacing:0px;word-spacing:0px;writing-mode:lr-tb;text-anchor:start;fill:#FFFFFF;fill-opacity:1;stroke:none" transform="matrix(0,1,-1,0,0,0)" x="45.2729" xml:space="preserve" y="-309.22137"><tspan id="tspan4214-27-1-2-9-7-6-4-1-1-1-3-9-59-96-1-318-6-04-1-7-5-8-9-0-1-9-3" sodipodi:role="line" style="font-style:normal;font-variant:normal;font-weight:bold;font-stretch:normal;font-size:11.25px;line-height:0%;font-family:stix;-inkscape-font-specification:'stix, bold';text-align:start;letter-spacing:0px;word-spacing:0px;writing-mode:lr-tb;text-anchor:start;fill:#FFFFFF;fill-opacity:1;stroke:none" x="45.2729" y="-309.22137">Influence
non verbale</tspan></text>
<text id="ssfam_2" inkscape:label="#text4212-1-29-1-2-8-9-0-9-6-9-15-7-7-8-9-7-6-1-0-8-29-4-1" sodipodi:linespacing="0%" style="font-style:normal;font-variant:normal;font-weight:bold;font-stretch:normal;font-size:11.25px;line-height:0%;font-family:stix;-inkscape-font-specification:'stix, bold';text-align:start;letter-spacing:0px;word-spacing:0px;writing-mode:lr-tb;text-anchor:start;fill:#FFFFFF;fill-opacity:1;stroke:none" transform="matrix(0,1,-1,0,0,0)" x="245.01849" xml:space="preserve" y="-309.22137"><tspan id="tspan4214-27-1-2-9-7-6-4-1-1-1-9-41-5-8-6-2-8-2-8-38-3-6-2" sodipodi:role="line" style="font-style:normal;font-variant:normal;font-weight:bold;font-stretch:normal;font-size:11.25px;line-height:0%;font-family:stix;-inkscape-font-specification:'stix, bold';text-align:start;letter-spacing:0px;word-spacing:0px;writing-mode:lr-tb;text-anchor:start;fill:#FFFFFF;fill-opacity:1;stroke:none" x="245.01849" y="-309.22137">Jeux de pouvoir</tspan></text>
<text id="ssfam_1" inkscape:label="#text4212-1-29-1-2-8-9-0-9-6-9-17-63-3-97-3-6-4-4-8-73-9-92-7" sodipodi:linespacing="0%" style="font-style:normal;font-variant:normal;font-weight:bold;font-stretch:normal;font-size:11.25px;line-height:0%;font-family:stix;-inkscape-font-specification:'stix, bold';text-align:end;letter-spacing:0px;word-spacing:0px;writing-mode:lr-tb;text-anchor:end;fill:#1e1800;fill-opacity:1;stroke:none" transform="matrix(0,1,-1,0,0,0)" x="487.26184" xml:space="preserve" y="-308.55173"><tspan id="tspan4214-27-1-2-9-7-6-4-1-1-1-85-85-5-76-3-4-8-7-5-1-0-2-9" sodipodi:role="line" style="font-style:normal;font-variant:normal;font-weight:bold;font-stretch:normal;font-size:11.25px;line-height:0%;font-family:stix;-inkscape-font-specification:'stix, bold';text-align:end;letter-spacing:0px;word-spacing:0px;writing-mode:lr-tb;text-anchor:end;fill:#1e1800;fill-opacity:1;stroke:none" x="487.26184" y="-308.55173">Conditionnement</tspan></text>
<rect height="23.57143" id="rect13148-3-36-1-5-8-4-8" rx="8.7534218" ry="9.7777777" style="fill:#ffffff;fill-opacity:1;stroke:none;stroke-width:5.83799982;stroke-linecap:round;stroke-linejoin:bevel;stroke-miterlimit:4;stroke-dasharray:none;stroke-dashoffset:0;stroke-opacity:1" width="103.16534" x="117.82477" y="18.612719"/>
<text id="text" inkscape:label="#text5516-78-3-4-89-9-1-3-6-2-4-3-9-5-3-7-7-2-6-1-6-5-0-5-7-1" sodipodi:linespacing="0%" style="font-style:normal;font-variant:normal;font-weight:bold;font-stretch:normal;line-height:0%;font-family:stix;-inkscape-font-specification:'stix bold';text-align:center;letter-spacing:0px;word-spacing:0px;writing-mode:lr-tb;text-anchor:middle;fill:#504200;fill-opacity:1;stroke:none" x="168.66994" xml:space="preserve" y="39.097687"><tspan id="tspan9035" sodipodi:role="line" style="font-style:normal;font-variant:normal;font-weight:bold;font-stretch:normal;font-size:25px;line-height:100%;font-family:STIX;-inkscape-font-specification:'STIX Bold';text-align:center;writing-mode:lr-tb;text-anchor:middle;fill:#490f07;fill-opacity:1" x="168.66994" y="39.097687">Cadrage</tspan><tspan id="tspan5336" sodipodi:role="line" style="font-style:normal;font-variant:normal;font-weight:bold;font-stretch:normal;font-size:25px;line-height:100%;font-family:STIX;-inkscape-font-specification:'STIX Bold';text-align:center;writing-mode:lr-tb;text-anchor:middle;fill:#490f07;fill-opacity:1" x="168.66994" y="64.097687"/></text>
<rect height="26.428572" id="rect13148-3-3-2-4-1-4-5-6" rx="8.4705887" ry="15" style="fill:#ffffff;fill-opacity:1;stroke:none;stroke-width:5.83799982;stroke-linecap:round;stroke-linejoin:bevel;stroke-miterlimit:4;stroke-dasharray:none;stroke-dashoffset:0;stroke-opacity:1" width="68.571434" x="135.12172" y="494.59808"/>
<text id="fam_text" inkscape:label="#text4212-1-29-1-2-8-9-0-9-67-9-6-3-5-23-0-1-7-3-2-3-4-7-8-8-8-4-0" sodipodi:linespacing="0%" style="font-style:normal;font-variant:normal;font-weight:bold;font-stretch:normal;font-size:15px;line-height:0%;font-family:STIX;-inkscape-font-specification:'STIX, Bold';text-align:center;letter-spacing:0px;word-spacing:0px;writing-mode:lr-tb;text-anchor:middle;fill:#1b0603;fill-opacity:1;stroke:none" x="168.81482" xml:space="preserve" y="513.46771"><tspan id="tspan4214-27-1-2-9-7-6-4-1-5-2-3-65-0-7-6-31-5-8-5-4-6-0-1-0-5-8-1" sodipodi:role="line" style="font-style:normal;font-variant:normal;font-weight:bold;font-stretch:normal;font-size:15px;line-height:1.25;font-family:STIX;-inkscape-font-specification:'STIX, Bold';text-align:center;writing-mode:lr-tb;text-anchor:middle;fill:#1b0603;fill-opacity:1" x="168.81482" y="513.46771">Influence</tspan></text>
<flowRoot id="desc" inkscape:label="#flowRoot5388-1-9-2-7-9-4-63-8-65-6-8-7-2-3-5-4-9-17-61-1-0" style="font-style:normal;font-variant:normal;font-weight:bold;font-stretch:normal;line-height:0.01%;font-family:STIX;-inkscape-font-specification:'STIX Bold';text-align:center;letter-spacing:0px;word-spacing:0px;text-anchor:middle;fill:#1b0603;fill-opacity:1;stroke:none" transform="translate(160.09545,945.16255)" xml:space="preserve"><flowRegion id="flowRegion5390-2-2-5-6-3-9-94-3-6-8-8-5-1-8-5-4-6-9-15-2-2"><rect height="77.283951" id="rect5392-7-0-4-8-6-2-8-5-84-3-3-4-2-2-3-3-0-1-9-8-5" style="font-style:normal;font-variant:normal;font-weight:bold;font-stretch:normal;font-size:15px;line-height:100%;font-family:stix;-inkscape-font-specification:'stix bold';text-align:center;text-anchor:middle;fill:#face00;fill-opacity:1" width="264.06375" x="-123.22692" y="-557.27393"/></flowRegion><flowPara id="flowPara5394-0-2-4-9-0-06-12-6-8-2-1-8-0-3-8-0-7-0-8-9-1" style="font-style:normal;font-variant:normal;font-weight:bold;font-stretch:normal;font-size:15px;line-height:100%;font-family:STIX;-inkscape-font-specification:'STIX Bold';text-align:center;text-anchor:middle;fill:#1b0603;fill-opacity:1">Votre formulation impose un contexte qui oriente les conclusions.</flowPara></flowRoot> <flowRoot id="example" inkscape:label="#flowRoot5388-1-9-2-7-9-4-63-8-92-2-3-8-9-5-4-5-19-0-3-48-36-9" style="font-style:normal;font-variant:normal;font-weight:bold;font-stretch:normal;line-height:0.01%;font-family:STIX;-inkscape-font-specification:'STIX Bold';text-align:center;letter-spacing:0px;word-spacing:0px;text-anchor:middle;fill:#1b0603;fill-opacity:1;stroke:none" transform="translate(158.65891,1032.1014)" xml:space="preserve"><flowRegion id="flowRegion5390-2-2-5-6-3-9-94-3-17-8-6-9-1-6-0-9-6-1-59-1-8-7"><rect height="48.063705" id="rect5392-7-0-4-8-6-2-8-5-7-1-2-6-5-5-9-91-21-0-4-0-0-1" style="font-style:normal;font-variant:normal;font-weight:bold;font-stretch:normal;font-size:15px;line-height:100%;font-family:stix;-inkscape-font-specification:'stix bold';text-align:center;text-anchor:middle;fill:#face00;fill-opacity:1;stroke-width:0.57831079" width="267.68024" x="-123.22692" y="-557.27393"/></flowRegion><flowPara id="flowPara5394-0-2-4-9-0-06-12-6-9-2-2-4-4-0-4-4-2-1-8-30-2-3" style="font-style:italic;font-variant:normal;font-weight:bold;font-stretch:normal;font-size:12.5px;line-height:100%;font-family:STIX;-inkscape-font-specification:'STIX Bold Italic';text-align:center;text-anchor:middle;fill:#1b0603;fill-opacity:1">Les études doivent préparer à la vie professionnelle ; il serait donc logique que les universités soient administrées par les chambres de commerce.</flowPara></flowRoot> <g id="illustration" inkscape:groupmode="layer" inkscape:label="#illustration" transform="translate(-6.802157,-67.336793)"><g id="325" inkscape:label="#g12800" transform="translate(846.05536,519.8554)">
<path d="m -570,-323.35208 c -16.38596,-10.13142 -11.50151,-61.64511 -38.68451,-32.28973 -18.87205,19.88726 -45.72269,23.99269 -68.11965,36.18494 -22.73387,13.93056 -3.57143,39.92639 -6.40724,54.34419 -13.19213,3.06416 -49.26727,32.24022 -16.94362,20.59617 22.81434,-7.10529 38.49493,-24.4552 60.84039,-31.59987 19.8775,-13.32972 28.73029,-42.25341 55.61058,-44.49718 4.97789,-0.4188 20.8014,-0.56709 13.70405,-2.73852 z m -205.71429,269.285712 c 14.54857,-19.61809 34.2352,-35.495351 53.42977,-50.133382 19.32659,-11.13474 42.71761,-10.85019 62.37255,-20.04923 20.71115,-14.60649 1.46676,-31.09709 -9.90977,-41.12395 1.1844,-11.67319 21.41118,-15.05482 0.0352,-14.34024 -34.41637,16.50834 -53.45899,26.65429 -69.48827,-1.3766 -11.89119,0.34318 0.92919,40.21971 -10.66682,54.17981 -14.61887,17.43089 -41.69379,37.162308 -28.11181,63.261933 l 1.67424,4.467687 0.66492,5.113972 v 0 z" id="path130434" inkscape:connector-curvature="0" sodipodi:nodetypes="cccccccccccccccccccc" style="fill:#ffffff;fill-rule:evenodd;stroke:none;stroke-width:1px;stroke-linecap:butt;stroke-linejoin:miter;stroke-opacity:1"/>
<path d="m -777.50448,-72.449329 -10.52769,-19.911155 2.87158,-2.431375 c 1.5794,-1.337257 9.20845,-8.975411 16.95345,-16.973671 7.74501,-7.99825 15.08575,-14.77797 16.31274,-15.06603 1.22699,-0.28806 1.71102,-0.82889 1.07556,-1.20199 -0.63543,-0.37303 -0.62579,-0.95823 0.0214,-1.30037 0.64717,-0.34219 1.60116,0.18071 2.11999,1.16198 0.65568,1.24008 1.38617,0.15225 2.3956,-3.56749 2.25918,-8.32505 2.73472,-21.59204 1.03583,-28.89885 -0.84945,-3.65337 -1.22727,-7.88886 -0.8396,-9.4122 1.69482,-6.65985 -2.64753,-26.35133 -7.84227,-35.56285 -3.22875,-5.72534 -3.23008,-5.8453 -0.0762,-7.0682 6.89707,-2.67426 18.24547,9.87553 20.37805,22.53535 2.88426,17.12208 6.68055,21.34227 24.29841,27.01168 9.75606,3.13948 11.32855,3.27352 13.89263,1.18403 1.59023,-1.29589 3.42087,-2.04528 4.06808,-1.66532 2.22519,1.30632 3.63353,-2.00463 1.73382,-4.0762 -1.55013,-1.69038 -1.42852,-2.04906 0.75576,-2.22886 1.43175,-0.11789 4.17955,-0.93581 6.10623,-1.81766 1.9267,-0.88181 4.36274,-1.54552 5.41349,-1.4748 2.8044,0.18875 11.92713,-5.16706 12.05573,-7.07774 0.0772,-1.14592 4.33059,-3.5929 14.11748,-8.12164 18.04033,-8.3479 21.66487,-8.78847 23.0833,-2.80574 0.41357,1.74434 -2.59678,3.7582 -21.74723,14.54847 -12.90549,7.27156 -22.91551,13.54514 -23.86842,14.95904 -0.90265,1.33934 -1.22641,3.60662 -0.71948,5.03839 0.50694,1.43178 0.39752,3.14791 -0.24315,3.81362 -0.91259,0.94826 -1.20817,0.47489 -1.36494,-2.18593 -0.1484,-2.51924 -0.84921,-3.83381 -2.7138,-5.09045 -4.28124,-2.88534 -6.93477,0.25558 -5.69491,6.74092 0.41215,2.15589 1.00455,2.66767 2.29689,1.98436 0.95784,-0.50644 2.16888,-0.11248 2.69122,0.87541 0.66049,1.2492 0.17941,1.97705 -1.57969,2.39003 -3.1109,0.73034 -2.48435,2.47449 0.75327,2.0969 4.76896,-0.55616 17.94073,-6.86378 18.83023,-9.01731 2.02637,-4.90591 9.23774,-1.29667 9.20805,4.60855 -0.008,1.55088 -1.11553,3.80991 -2.46162,5.02007 -2.04796,1.84117 -2.09139,2.59634 -0.26613,4.62662 2.35219,2.61638 1.78972,8.20554 -0.97277,9.66617 -1.02547,0.5422 -0.87297,1.51613 0.47156,3.01168 3.24924,3.61418 0.78382,8.29428 -5.50964,10.45897 -14.96614,5.14772 -21.31666,7.66111 -27.4666,10.87064 -3.73216,1.94773 -11.27689,4.61813 -16.76606,5.93421 -5.48919,1.316084 -13.65389,3.951643 -18.1438,5.856793 -9.08516,3.855007 -10.26918,5.168039 -22.17968,24.596575 -5.53027,9.021023 -6.46946,9.96693 -13.68339,13.781177 l -7.74556,4.095339 -10.52769,-19.911143 z m 26.77644,-49.957681 c 0.29161,-0.79969 -1.27085,-0.12483 -3.47214,1.49969 -2.2013,1.62453 -4.3547,3.97485 -4.78531,5.22297 -0.64596,1.87222 -0.0385,1.60982 3.47214,-1.4997 2.34029,-2.07294 4.49368,-4.42328 4.78531,-5.22296 z m 10.35981,-20.97139 c 0.0545,-0.81077 -0.43028,-1.19418 -1.07743,-0.85201 -0.64716,0.34217 -0.9123,1.12212 -0.58919,1.73321 0.32311,0.6111 0.80794,0.99451 1.07743,0.85202 0.26948,-0.14248 0.53462,-0.92242 0.58919,-1.73322 z m 3.51871,-10.74603 c 0.16069,-1.8443 -0.0804,-3.73743 -0.53573,-4.20696 -0.45535,-0.46952 -0.39912,-1.58404 0.12492,-2.47671 0.52406,-0.89268 0.46718,-1.77277 -0.12641,-1.95576 -1.60665,-0.49528 -4.64418,4.54867 -3.23682,5.37488 0.66562,0.39076 0.73422,0.96215 0.15245,1.26976 -1.34741,0.71242 -0.9135,4.59392 0.61377,5.49053 1.84803,1.08492 2.69442,0.10118 3.00782,-3.49574 z m -4.84261,-17.34323 c -0.48576,-0.94667 -0.1047,-1.0467 1.18051,-0.30994 2.44078,1.39915 2.86948,-0.1209 1.31436,-4.66027 -1.78486,-5.21 -4.01812,-4.61997 -4.40744,1.16446 -0.37512,5.57335 -0.0944,6.64396 1.5188,5.79105 0.6111,-0.32311 0.78828,-1.21649 0.39377,-1.9853 z m 45.79901,5.99546 c -1.91097,-0.16738 -1.95468,-0.34781 -0.3007,-1.24094 1.06471,-0.57432 2.19975,-0.54508 2.52287,0.066 0.71646,1.35509 0.59114,1.42135 -2.22217,1.17494 z m 85.04051,-53.28467 c -5.53738,-2.01416 -10.59992,-11.30021 -12.36482,-22.68031 -2.0796,-13.40936 -4.74381,-18.20205 -12.32067,-22.16387 -8.95783,-4.68393 -14.02575,-4.10749 -31.51822,3.58494 -9.14199,4.02026 -17.95321,8.67096 -22.72438,11.99425 -4.286,2.98539 -13.2919,8.13447 -20.01306,11.44236 -10.32769,5.0829 -12.62054,5.81926 -14.80426,4.75444 -3.00192,-1.46378 -3.62037,-4.05491 -1.56893,-6.57322 1.55149,-1.90455 17.03113,-11.36015 27.05106,-16.52387 3.37969,-1.74175 8.25115,-4.26542 10.82548,-5.60809 8.56817,-4.46913 11.26135,-10.04327 4.74519,-9.82132 -1.29845,0.0442 -3.46288,0.1135 -4.80984,0.15408 -4.09025,0.12304 -6.26048,-5.73938 -3.50297,-9.46251 1.86764,-2.52161 1.908,-3.31484 0.20451,-4.01845 -3.46486,-1.43116 -4.02899,-6.85305 -0.98282,-9.44597 5.71767,-4.86694 6.15319,-5.52275 4.58003,-6.897 -1.00624,-0.87901 -0.76407,-3.75716 0.67722,-8.04894 2.18706,-6.51246 4.36749,-9.1378 6.20677,-7.47324 0.4998,0.45232 2.97407,0.17639 5.49838,-0.61317 3.82152,-1.19532 4.33071,-1.66179 3.04242,-2.78719 -1.24774,-1.08998 -0.26346,-2.21684 5.08502,-5.82166 3.64774,-2.45853 8.2466,-5.0419 10.21968,-5.74083 2.46867,-0.8745 1.88522,-0.29757 -1.87095,1.85001 -3.83972,2.19536 -4.81163,3.17109 -3.27742,3.29028 1.19953,0.0933 2.02048,0.69013 1.82431,1.32647 -0.39775,1.29025 6.01503,6.14404 8.38866,6.34931 2.2272,0.19261 4.42663,-4.26535 3.22535,-6.53737 -0.56849,-1.07519 -0.68335,-2.19991 -0.25524,-2.49937 5.21641,-3.64892 11.60321,-6.46385 13.18421,-5.8108 1.06065,0.43809 3.4214,0.008 5.24611,-0.95762 2.9329,-1.55072 3.08019,-2.01827 1.27012,-4.03166 -1.98407,-2.20693 -1.7956,-2.44137 6.08316,-7.56666 4.47186,-2.90904 12.39449,-8.77873 17.60585,-13.0438 5.21135,-4.26504 10.34768,-8.22195 11.41404,-8.79316 1.78291,-0.95547 2.8943,0.76893 13.83298,21.46194 l 11.89395,22.50052 -21.29424,11.25899 c -14.96473,7.91236 -21.22041,11.70218 -21.04587,12.75002 0.13659,0.82008 -0.009,6.01501 -0.32298,11.5443 -0.31423,5.5293 -0.20533,13.02196 0.24199,16.65034 0.44732,3.62839 0.55714,8.52047 0.24405,10.87129 -0.7424,5.57413 2.40075,25.65914 5.20275,33.24601 1.76406,4.77652 1.78092,6.2491 0.0857,7.48117 -1.16092,0.84371 -3.50201,1.02797 -5.20244,0.40945 z m -45.31816,-80.59808 c 0.40502,-1.31383 -1.9201,-0.7619 -12.63103,2.99831 -9.40925,3.30321 -14.93426,6.86492 -16.58799,10.69349 -0.7282,1.68586 -0.0959,1.84107 3.26745,0.80205 4.74619,-1.46618 25.51047,-13.06297 25.95157,-14.49385 z m -0.20826,-11.15539 c -1.59839,-1.54673 -9.31508,-0.12892 -14.92182,2.74163 -3.18151,1.62886 -5.30082,2.00633 -6.31085,1.12398 -1.6249,-1.41946 -4.96863,-0.35825 -4.09247,1.29885 0.28809,0.54485 -0.54501,1.95149 -1.85129,3.12587 -3.06136,2.75223 -0.6984,5.00013 4.70356,4.4745 5.21511,-0.50746 24.07136,-11.21801 22.47287,-12.76483 z" id="path130432" inkscape:connector-curvature="0" style="fill:#524100;fill-opacity:1"/>
</g></g>
</g>
</svg>