<?xml version="1.0" encoding="utf-8"?>
<!-- Created with Inkscape (http://www.inkscape.org/) --><svg height="152.42821mm" id="svg6779" inkscape:version="0.91 r13725" sodipodi:docname="niveau4.svg" version="1.1" viewBox="0 0 338.49999 540.09995" width="95.532219mm" xmlns="http://www.w3.org/2000/svg" xmlns:cc="http://creativecommons.org/ns#" xmlns:dc="http://purl.org/dc/elements/1.1/" xmlns:inkscape="http://www.inkscape.org/namespaces/inkscape" xmlns:rdf="http://www.w3.org/1999/02/22-rdf-syntax-ns#" xmlns:sodipodi="http://sodipodi.sourceforge.net/DTD/sodipodi-0.dtd" xmlns:svg="http://www.w3.org/2000/svg">
<defs id="defs6781"/>
<sodipodi:namedview bordercolor="#666666" borderopacity="1.0" id="base" inkscape:current-layer="layer1" inkscape:cx="-2.8131367" inkscape:cy="200.17562" inkscape:document-units="px" inkscape:guide-bbox="true" inkscape:pageopacity="0.0" inkscape:pageshadow="2" inkscape:window-height="876" inkscape:window-maximized="1" inkscape:window-width="1535" inkscape:window-x="65" inkscape:window-y="24" inkscape:zoom="0.9899495" pagecolor="#ffffff" showgrid="false" showguides="true">
<sodipodi:guide id="guide3373" orientation="0,1" position="209.10157,53.538082"/>
</sodipodi:namedview>
<metadata id="metadata6784">
<rdf:RDF>
<cc:Work rdf:about="">
<dc:format>image/svg+xml</dc:format>
<dc:type rdf:resource="http://purl.org/dc/dcmitype/StillImage"/>
<dc:title/>
</cc:Work>
</rdf:RDF>
</metadata>
<g id="layer1" inkscape:groupmode="layer" inkscape:label="Calque 1" transform="translate(0,0.23029041)">
<rect height="539.09998" id="rect4326-0-3-6-4-3-2-61-6-9-9-5-0-7-0-5-8-8-9-4-5-5" inkscape:export-xdpi="90" inkscape:export-ydpi="90" style="fill:#ffffff;fill-opacity:1;stroke:none;stroke-opacity:1" width="337.5" x="0.5" y="0.26970959"/>
<rect height="486.97104" id="rect2985-3-0-7-7-6-9-6-2-0-3-5-4-5-0-77-3-1-3-5-5-4-3-9-7-0-1-8-1" inkscape:export-filename="/home/thomas/Documents/fallacies/png/rect2985-3-0-7-7.png" inkscape:export-xdpi="90" inkscape:export-ydpi="90" rx="9.2935619" ry="7.1613393" style="fill:#ffffff;fill-opacity:1;stroke:#00c8a6;stroke-width:12;stroke-miterlimit:4;stroke-dasharray:none;stroke-dashoffset:0;stroke-opacity:1" width="285.0025" x="26.906189" y="26.612749"/>
<ellipse cx="169.40732" cy="279.7749" id="oval" inkscape:label="#path6246-7-6-6-9-7-6-9-3-1-1-722-4-6-4-7-1-9-6-2-0-7-5-4-6-9-9" rx="131.36859" ry="205.59465" style="fill:#a4ece0;fill-opacity:1;stroke:#a4ece0;stroke-width:1.01065052;stroke-opacity:1"/>
<rect height="15" id="sfam_1_active" inkscape:label="#rect13148-3-0-9-3-80-7-76" style="fill:#ffffff;fill-opacity:1;stroke:none;stroke-width:5.83799982;stroke-linecap:round;stroke-linejoin:bevel;stroke-miterlimit:4;stroke-dasharray:none;stroke-dashoffset:0;stroke-opacity:1;display:none;" transform="matrix(0,1,-1,0,0,0)" width="65.714287" x="424.88379" y="-34.320938"/>
<rect height="15" id="sfam_2_active" inkscape:label="#rect13148-3-0-9-3-80-7-76" style="fill:#ffffff;fill-opacity:1;stroke:none;stroke-width:5.83799982;stroke-linecap:round;stroke-linejoin:bevel;stroke-miterlimit:4;stroke-dasharray:none;stroke-dashoffset:0;stroke-opacity:1;display:none;" transform="matrix(0,1,-1,0,0,0)" width="65.714287" x="233.68585" y="-34.320938"/>
<rect height="15" id="sfam_3_active" inkscape:label="#rect13148-3-0-9-3-80-7-76" style="fill:#ffffff;fill-opacity:1;stroke:none;stroke-width:5.83799982;stroke-linecap:round;stroke-linejoin:bevel;stroke-miterlimit:4;stroke-dasharray:none;stroke-dashoffset:0;stroke-opacity:1" transform="matrix(0,1,-1,0,0,0)" width="65.714287" x="42.184151" y="-34.320938"/>
<text id="sfam_3" inkscape:label="#text4212-1-29-1-2-8-9-0-9-6-9-8-3-1-0-6-8-0-4-2-3-6-9-3-6-2-6-4-2" sodipodi:linespacing="0%" style="font-style:normal;font-variant:normal;font-weight:bold;font-stretch:normal;font-size:11.25px;line-height:0%;font-family:stix;-inkscape-font-specification:'stix, bold';text-align:end;letter-spacing:0px;word-spacing:0px;writing-mode:lr-tb;text-anchor:end;fill:#021c18;fill-opacity:1;stroke:none" transform="matrix(0,-1,1,0,0,0)" x="-45.82415" xml:space="preserve" y="31.116638"><tspan id="tspan4214-27-1-2-9-7-6-4-1-1-1-3-9-59-96-1-6-2-1-8-8-2-7-4-5-4-7-3-9" sodipodi:role="line" style="font-style:normal;font-variant:normal;font-weight:bold;font-stretch:normal;font-size:11.25px;line-height:0%;font-family:stix;-inkscape-font-specification:'stix, bold';text-align:end;letter-spacing:0px;word-spacing:0px;writing-mode:lr-tb;text-anchor:end;fill:#021c18;fill-opacity:1;stroke:none" x="-45.82415" y="31.116638">Résultat
invalide</tspan></text>
<rect height="17.763229" id="rect5818-6-6-9-3-0-7" style="fill:#00c8a6;fill-opacity:1;stroke:none;stroke-width:0.91443771;stroke-linecap:round;stroke-linejoin:bevel;stroke-miterlimit:4;stroke-dasharray:none;stroke-dashoffset:0;stroke-opacity:1" width="278.215" x="30.299866" y="495.76239"/>
<text id="fam_num" inkscape:label="#text5665-3-4-9-4-3-3-5-7-5-8-4-6-8-6-6-3-0-6-3-4" sodipodi:linespacing="0%" style="font-style:normal;font-weight:normal;line-height:0%;font-family:sans-serif;letter-spacing:0px;word-spacing:0px;fill:#000000;fill-opacity:1;stroke:none" x="40.722107" xml:space="preserve" y="513.8327"><tspan id="tspan5667-04-4-6-18-8-8-0-0-1-5-7-0-9-2-1-9-1-5-0-3" sodipodi:role="line" style="font-style:normal;font-variant:normal;font-weight:bold;font-stretch:normal;font-size:17.5px;line-height:1.25;font-family:STIX;-inkscape-font-specification:'STIX Bold';fill:#ffffff" x="40.722107" y="513.8327">5</tspan></text>
<text id="sfam_2" inkscape:label="#text4212-1-29-1-2-8-9-0-9-6-9-15-4-9-9-24-4-6-7-5-4-2-6-9-5" sodipodi:linespacing="0%" style="font-style:normal;font-variant:normal;font-weight:bold;font-stretch:normal;font-size:11.25px;line-height:0%;font-family:stix;-inkscape-font-specification:'stix, bold';text-align:start;letter-spacing:0px;word-spacing:0px;writing-mode:lr-tb;text-anchor:start;fill:#FFFFFF;fill-opacity:1;stroke:none" transform="matrix(0,-1,1,0,0,0)" x="-285.88123" xml:space="preserve" y="29.420349"><tspan id="tspan4214-27-1-2-9-7-6-4-1-1-1-9-8-7-7-0-88-0-1-6-8-0-3-2-6" sodipodi:role="line" style="font-style:normal;font-variant:normal;font-weight:bold;font-stretch:normal;font-size:11.25px;line-height:0%;font-family:stix;-inkscape-font-specification:'stix, bold';text-align:start;letter-spacing:0px;word-spacing:0px;writing-mode:lr-tb;text-anchor:start;fill:#FFFFFF;fill-opacity:1;stroke:none" x="-285.88123" y="29.420349">Mauvaise
interprétation</tspan></text>
<text id="sfam_1" inkscape:label="#text4212-1-29-1-2-8-9-0-9-6-9-17-4-1-5-6-8-7-5-1-12-0-9-54-1" sodipodi:linespacing="0%" style="font-style:normal;font-variant:normal;font-weight:bold;font-stretch:normal;font-size:11.25px;line-height:0%;font-family:stix;-inkscape-font-specification:'stix, bold';text-align:start;letter-spacing:0px;word-spacing:0px;writing-mode:lr-tb;text-anchor:start;fill:#FFFFFF;fill-opacity:1;stroke:none" transform="matrix(0,-1,1,0,0,0)" x="-487.50934" xml:space="preserve" y="29.420349"><tspan id="tspan4214-27-1-2-9-7-6-4-1-1-1-85-8-3-3-2-9-0-8-7-9-6-4-0-4" sodipodi:role="line" style="font-style:normal;font-variant:normal;font-weight:bold;font-stretch:normal;font-size:11.25px;line-height:0%;font-family:stix;-inkscape-font-specification:'stix, bold';text-align:start;letter-spacing:0px;word-spacing:0px;writing-mode:lr-tb;text-anchor:start;fill:#FFFFFF;fill-opacity:1;stroke:none" x="-487.50934" y="29.420349">Généralisation
abusive</tspan></text>
<rect height="15" id="ssfam_1_active" inkscape:label="#rect13148-3-0-9-3-80-7-7-3-3" style="fill:#ffffff;fill-opacity:1;stroke:none;stroke-width:5.83799982;stroke-linecap:round;stroke-linejoin:bevel;stroke-miterlimit:4;stroke-dasharray:none;stroke-dashoffset:0;stroke-opacity:1" transform="matrix(0,1,-1,0,0,0)" width="124.30313" x="366.29495" y="-319.71991"/>
<rect height="15" id="ssfam_2_active" inkscape:label="#rect13148-3-0-9-3-80-7-7-3-3" style="fill:#ffffff;fill-opacity:1;stroke:none;stroke-width:5.83799982;stroke-linecap:round;stroke-linejoin:bevel;stroke-miterlimit:4;stroke-dasharray:none;stroke-dashoffset:0;stroke-opacity:1;display:none;" transform="matrix(0,1,-1,0,0,0)" width="124.30313" x="204.55513" y="-319.71991"/>
<rect height="15" id="ssfam_3_active" inkscape:label="#rect13148-3-0-9-3-80-7-7-3-3" inkscape:transform-center-x="27.937032" inkscape:transform-center-y="5.2085991" style="fill:#ffffff;fill-opacity:1;stroke:none;stroke-width:5.83799982;stroke-linecap:round;stroke-linejoin:bevel;stroke-miterlimit:4;stroke-dasharray:none;stroke-dashoffset:0;stroke-opacity:1;display:none;" transform="matrix(0,1,-1,0,0,0)" width="124.30313" x="42.184151" y="-319.67227"/>
<text id="ssfam_3" inkscape:label="#text4212-1-29-1-2-8-9-0-9-6-9-8-3-1-0-6-92-3-6-9-3-6-2-3-39-8-5-0" sodipodi:linespacing="0%" style="font-style:normal;font-variant:normal;font-weight:bold;font-stretch:normal;font-size:11.25px;line-height:0%;font-family:stix;-inkscape-font-specification:'stix, bold';text-align:start;letter-spacing:0px;word-spacing:0px;writing-mode:lr-tb;text-anchor:start;fill:#FFFFFF;fill-opacity:1;stroke:none" transform="matrix(0,1,-1,0,0,0)" x="45.2729" xml:space="preserve" y="-309.22137"><tspan id="tspan4214-27-1-2-9-7-6-4-1-1-1-3-9-59-96-1-318-6-04-1-7-5-8-9-0-1-9-3" sodipodi:role="line" style="font-style:normal;font-variant:normal;font-weight:bold;font-stretch:normal;font-size:11.25px;line-height:0%;font-family:stix;-inkscape-font-specification:'stix, bold';text-align:start;letter-spacing:0px;word-spacing:0px;writing-mode:lr-tb;text-anchor:start;fill:#FFFFFF;fill-opacity:1;stroke:none" x="45.2729" y="-309.22137">Opération inappropriée</tspan></text>
<text id="ssfam_2" inkscape:label="#text4212-1-29-1-2-8-9-0-9-6-9-15-7-7-8-9-7-6-1-0-8-29-4-1" sodipodi:linespacing="0%" style="font-style:normal;font-variant:normal;font-weight:bold;font-stretch:normal;font-size:11.25px;line-height:0%;font-family:stix;-inkscape-font-specification:'stix, bold';text-align:start;letter-spacing:0px;word-spacing:0px;writing-mode:lr-tb;text-anchor:start;fill:#FFFFFF;fill-opacity:1;stroke:none" transform="matrix(0,1,-1,0,0,0)" x="245.01849" xml:space="preserve" y="-309.22137"><tspan id="tspan4214-27-1-2-9-7-6-4-1-1-1-9-41-5-8-6-2-8-2-8-38-3-6-2" sodipodi:role="line" style="font-style:normal;font-variant:normal;font-weight:bold;font-stretch:normal;font-size:11.25px;line-height:0%;font-family:stix;-inkscape-font-specification:'stix, bold';text-align:start;letter-spacing:0px;word-spacing:0px;writing-mode:lr-tb;text-anchor:start;fill:#FFFFFF;fill-opacity:1;stroke:none" x="245.01849" y="-309.22137">Erreur de calcul</tspan></text>
<text id="ssfam_1" inkscape:label="#text4212-1-29-1-2-8-9-0-9-6-9-17-63-3-97-3-6-4-4-8-73-9-92-7" sodipodi:linespacing="0%" style="font-style:normal;font-variant:normal;font-weight:bold;font-stretch:normal;font-size:11.25px;line-height:0%;font-family:stix;-inkscape-font-specification:'stix, bold';text-align:end;letter-spacing:0px;word-spacing:0px;writing-mode:lr-tb;text-anchor:end;fill:#021c18;fill-opacity:1;stroke:none" transform="matrix(0,1,-1,0,0,0)" x="487.26184" xml:space="preserve" y="-308.55173"><tspan id="tspan4214-27-1-2-9-7-6-4-1-1-1-85-85-5-76-3-4-8-7-5-1-0-2-9" sodipodi:role="line" style="font-style:normal;font-variant:normal;font-weight:bold;font-stretch:normal;font-size:11.25px;line-height:0%;font-family:stix;-inkscape-font-specification:'stix, bold';text-align:end;letter-spacing:0px;word-spacing:0px;writing-mode:lr-tb;text-anchor:end;fill:#021c18;fill-opacity:1;stroke:none" x="487.26184" y="-308.55173">Imprécision</tspan></text>
<rect height="23.57143" id="rect13148-3-36-1-5-8-4-8" rx="8.7534218" ry="9.7777777" style="fill:#ffffff;fill-opacity:1;stroke:none;stroke-width:5.83799982;stroke-linecap:round;stroke-linejoin:bevel;stroke-miterlimit:4;stroke-dasharray:none;stroke-dashoffset:0;stroke-opacity:1" width="103.16534" x="117.82477" y="18.612719"/>
<text id="text" inkscape:label="#text5516-78-3-4-89-9-1-3-6-2-4-3-9-5-3-7-7-2-6-1-6-5-0-5-7-1" sodipodi:linespacing="0%" style="font-style:normal;font-variant:normal;font-weight:bold;font-stretch:normal;line-height:0%;font-family:stix;-inkscape-font-specification:'stix bold';text-align:center;letter-spacing:0px;word-spacing:0px;writing-mode:lr-tb;text-anchor:middle;fill:#054b3e;fill-opacity:1;stroke:none" x="168.66994" xml:space="preserve" y="39.097687"><tspan id="tspan9035" sodipodi:role="line" style="font-style:normal;font-variant:normal;font-weight:bold;font-stretch:normal;font-size:25px;line-height:100%;font-family:stix;-inkscape-font-specification:'stix bold';text-align:center;writing-mode:lr-tb;text-anchor:middle;fill:#054b3e;fill-opacity:1" x="168.66994" y="39.097687">Pente</tspan><tspan id="tspan5336" sodipodi:role="line" style="font-style:normal;font-variant:normal;font-weight:bold;font-stretch:normal;font-size:25px;line-height:100%;font-family:stix;-inkscape-font-specification:'stix bold';text-align:center;writing-mode:lr-tb;text-anchor:middle;fill:#054b3e;fill-opacity:1" x="168.66994" y="64.097687">glissante</tspan></text>
<rect height="26.428572" id="rect13148-3-3-2-4-1-4-5-6" rx="8.4705887" ry="15" style="fill:#ffffff;fill-opacity:1;stroke:none;stroke-width:5.83799982;stroke-linecap:round;stroke-linejoin:bevel;stroke-miterlimit:4;stroke-dasharray:none;stroke-dashoffset:0;stroke-opacity:1" width="68.571434" x="135.12172" y="494.59808"/>
<text id="fam_text" inkscape:label="#text4212-1-29-1-2-8-9-0-9-67-9-6-3-5-23-0-1-7-3-2-3-4-7-8-8-8-4-0" sodipodi:linespacing="0%" style="font-style:normal;font-variant:normal;font-weight:bold;font-stretch:normal;font-size:15px;line-height:0%;font-family:stix;-inkscape-font-specification:'stix, bold';text-align:center;letter-spacing:0px;word-spacing:0px;writing-mode:lr-tb;text-anchor:middle;fill:#021c18;fill-opacity:1;stroke:none" x="168.81482" xml:space="preserve" y="513.46771"><tspan id="tspan4214-27-1-2-9-7-6-4-1-5-2-3-65-0-7-6-31-5-8-5-4-6-0-1-0-5-8-1" sodipodi:role="line" style="font-style:normal;font-variant:normal;font-weight:bold;font-stretch:normal;font-size:15px;line-height:1.25;font-family:stix;-inkscape-font-specification:'stix, bold';text-align:center;writing-mode:lr-tb;text-anchor:middle;fill:#021c18;fill-opacity:1" x="168.81482" y="513.46771">Erreur
mathématique</tspan></text>
<flowRoot id="desc" inkscape:label="#flowRoot5388-1-9-2-7-9-4-63-8-65-6-8-7-2-3-5-4-9-17-61-1-0" style="font-style:normal;font-variant:normal;font-weight:bold;font-stretch:normal;line-height:0.01%;font-family:stix;-inkscape-font-specification:'stix bold';text-align:center;letter-spacing:0px;word-spacing:0px;text-anchor:middle;fill:#021c18;fill-opacity:1;stroke:none" transform="translate(160.09545,945.16255)" xml:space="preserve"><flowRegion id="flowRegion5390-2-2-5-6-3-9-94-3-6-8-8-5-1-8-5-4-6-9-15-2-2"><rect height="77.283951" id="rect5392-7-0-4-8-6-2-8-5-84-3-3-4-2-2-3-3-0-1-9-8-5" style="font-style:normal;font-variant:normal;font-weight:bold;font-stretch:normal;font-size:15px;line-height:100%;font-family:stix;-inkscape-font-specification:'stix bold';text-align:center;text-anchor:middle;fill:#00c8a6;fill-opacity:1" width="264.06375" x="-123.22692" y="-557.27393"/></flowRegion><flowPara id="flowPara5394-0-2-4-9-0-06-12-6-8-2-1-8-0-3-8-0-7-0-8-9-1" style="font-style:normal;font-variant:normal;font-weight:bold;font-stretch:normal;font-size:15px;line-height:100%;font-family:stix;-inkscape-font-specification:'stix bold';text-align:center;text-anchor:middle;fill:#021c18;fill-opacity:1">Vous attribuez à un événement anodin la valeur de déclencheur inévitable d'une série de réactions.</flowPara></flowRoot> <flowRoot id="example" inkscape:label="#flowRoot5388-1-9-2-7-9-4-63-8-92-2-3-8-9-5-4-5-19-0-3-48-36-9" style="font-style:normal;font-variant:normal;font-weight:bold;font-stretch:normal;line-height:0.01%;font-family:stix;-inkscape-font-specification:'stix bold';text-align:center;letter-spacing:0px;word-spacing:0px;text-anchor:middle;fill:#021c18;fill-opacity:1;stroke:none" transform="translate(158.65891,1068.4666)" xml:space="preserve"><flowRegion id="flowRegion5390-2-2-5-6-3-9-94-3-17-8-6-9-1-6-0-9-6-1-59-1-8-7"><rect height="46.043404" id="rect5392-7-0-4-8-6-2-8-5-7-1-2-6-5-5-9-91-21-0-4-0-0-1" style="font-style:normal;font-variant:normal;font-weight:bold;font-stretch:normal;font-size:15px;line-height:100%;font-family:stix;-inkscape-font-specification:'stix bold';text-align:center;text-anchor:middle;fill:#00c8a6;fill-opacity:1;stroke-width:0.57831079" width="267.68024" x="-123.22692" y="-628.99475"/></flowRegion><flowPara id="flowPara5394-0-2-4-9-0-06-12-6-9-2-2-4-4-0-4-4-2-1-8-30-2-3" style="font-style:italic;font-variant:normal;font-weight:bold;font-stretch:normal;font-size:12.5px;line-height:100%;font-family:stix;-inkscape-font-specification:'stix bold italic';text-align:center;text-anchor:middle;fill:#021c18;fill-opacity:1">Si nous le laissons se resservir de ce plat, il prendra l'habitude de manger à l'excès et deviendra obèse.</flowPara></flowRoot> <g id="illustration" inkscape:groupmode="layer" inkscape:label="#illustration" transform="translate(-6.802157,-67.336793)"><g id="559" inkscape:label="#g5144" transform="matrix(0.97909657,0,0,0.97909657,-306.17809,126.62859)">
<path d="M 390.82158,180.77019 603.64321,374.74063 C 430.31058,400.15451 357.60383,352.75942 390.82158,180.77019 Z" id="path8370" inkscape:connector-curvature="0" sodipodi:nodetypes="ccc" style="fill:#ffffff;fill-opacity:1;stroke:none"/>
<g id="g4154" style="fill:#003c30;fill-opacity:1" transform="matrix(-0.36837751,-0.29620985,-0.29620985,0.36837751,694.72667,245.39831)">
<path d="m 691.86,0 h 3.32 c -0.93,1.22 -0.66,2.12 0.82,2.7 v 3.49 c -5.21,13.17 -18.4,23.23 -17.25,38.48 -30.91,34.15 -57.73,71.58 -83.01,109.99 -2.49,6.14 -8.91,7.34 -13.9,10.41 1.41,15.95 -8.66,29.55 -15.6,43.08 -4.28,9.64 -14.83,13.9 -24.84,13.23 -3.37,3.57 -5.76,10.31 -11.04,10.5 -4.66,-4.66 1.54,-10.95 2.4,-16.11 -16.14,9.22 -24.02,28.8 -38.89,40.35 -9.22,-5.62 -18.49,-11.62 -25.73,-19.72 -4.34,-6.47 4.26,-14.53 10.67,-11.43 7.59,1.96 10.52,13.46 19.32,11.63 11.46,-9.77 22.01,-20.8 31.29,-32.7 -5.94,-2.82 -12.32,0.22 -18.42,0.83 0.85,-4.67 4.29,-8.1 7.13,-11.69 -3.7,-1.67 -8.04,-2.62 -10.5,-6.1 16.52,-12 31.01,-27.89 51.25,-33.96 12.1,-3.14 7.61,-20.66 18.23,-25.93 16.42,-16.19 36.18,-32.49 42.08,-55.76 C 636.28,64 644.02,45.23 658.33,34.32 672.21,25.8 680.54,11.28 691.86,0 Z" id="path4138" inkscape:connector-curvature="0" style="opacity:1;fill:#003c30;fill-opacity:1;stroke:#000000;stroke-width:0.09375"/>
<path d="m 275.86,33.58 c 3.67,-5.49 14.04,-6.14 15.46,1.27 1.87,25.78 -7.42,50.94 -7.56,76.34 10.75,18.5 25.49,34.43 40.46,49.6 6.6,4.85 17.58,7.02 19.29,16.42 -0.64,11.72 -12.97,16.01 -20.44,22.89 -11.19,19.03 -29.21,33.18 -38.8,53.32 3.16,14.34 13.54,26.46 17.19,40.99 2.58,10.41 14.75,-0.59 19.76,7.27 5.14,7.15 13.64,7.16 21.56,5.96 -4.32,-9.81 -8.54,-21.68 -2.62,-31.78 9.48,-1.15 25.26,2.4 27.93,-9.87 -0.05,-7.55 9.53,-9.55 8.86,-17.26 5.25,-1.2 6.84,-6.48 8.78,-10.73 0.09,2.42 0.23,4.84 0.42,7.25 1.65,-0.95 3.29,-1.92 4.87,-3 0.23,1.13 0.68,3.4 0.91,4.53 6.52,2.46 8.55,10.48 15.4,12.86 -1.11,1.08 -2.19,2.18 -3.24,3.3 10.16,-0.78 21.05,19.37 25.46,1.57 0.81,0.99 1.63,1.99 2.44,3 -0.53,3.62 -1.03,7.25 -1.56,10.89 5.17,-1.87 8.91,-5.95 11.9,-10.45 1.24,1.05 2.5,2.08 3.78,3.11 -1.16,2.47 -2.32,4.93 -3.49,7.39 3.59,0.19 4.06,2.85 4.03,5.48 -1.01,-1.1 -2.01,-2.2 -3.02,-3.3 -1.54,1.12 -3.1,2.23 -4.64,3.36 3.15,1.28 6.07,3.05 8.1,5.83 -0.89,2.52 -1.78,5.02 -2.57,7.58 1.33,0.1 2.67,0.22 4.01,0.34 -0.46,8.15 -13,13.02 -7.64,21.32 -14.71,8.25 -32.04,8.07 -47.77,13.16 -0.03,0.64 -0.08,1.92 -0.1,2.56 11.95,5.81 25.75,5.36 37.98,10.4 5.08,2.65 11.12,1.95 15.67,-1.37 24.54,-0.05 44.98,-17.65 63.8,-31.48 1.44,-21.03 33.95,-9.81 33.8,-31.09 4.41,-12.28 16.73,-19.08 22.68,-30.54 1.94,-4.24 6.58,0.13 5.83,3.3 -0.03,9.39 -10.64,14.28 -10.84,23.44 19.35,6.51 36.1,-11.3 55.53,-8.35 -4.37,10.89 -21.49,8.46 -26.6,17.79 8.07,7.8 24.43,1.71 34.81,4.37 0.06,1.85 0.12,3.7 0.18,5.55 -10.71,1.04 -21.5,1.22 -32.18,2.44 3.3,9.76 16.69,6.61 24.82,9.11 0.2,1.27 0.41,2.53 0.63,3.8 -9.89,3.33 -19.79,-0.79 -29.72,-0.89 -7.51,6.27 8.32,13.15 8.64,20.56 -17.92,-3.94 -31.75,-21.86 -50.85,-22.15 0.09,6.21 4.75,15.68 -1.64,20.09 -22.47,-5.09 -41.34,12.77 -58.54,24.28 -16.49,8.36 -30.74,27.65 -51.5,21.43 -18.95,1.99 -38.26,-9.21 -56.56,-0.56 -12.06,6.19 -25.7,1.38 -37.84,-1.98 -14.95,1.43 -29.89,-1.86 -44.81,0.54 -11.34,0.63 -26.22,3.87 -31.95,-8.99 -16.53,-6.15 -35.22,-3.77 -52.48,-7.15 -19.73,2.76 -26.81,28.18 -46.26,32.25 -11.97,4.56 -21.64,14.45 -26.14,26.42 h -4.4 c -10.46,0.74 -18.27,-5.13 -21.51,-14.66 -10.83,-13.38 -14.67,10.47 -26.69,3.86 -10.97,-4.86 -26.01,10.3 -31.18,-5.28 24.24,-1.96 31.33,-30.59 52.89,-38.51 4.72,5.76 8.17,12.45 12.78,18.26 7.56,-3.19 18.18,2.03 22.87,-6.48 7.96,-9.76 17.85,-17.61 27.44,-25.66 2.03,-1.39 1.74,-4.85 -0.9,-5.24 -15.17,-4.25 -25.55,-17.81 -40.63,-22.1 -9.84,4.06 -12.89,15.59 -16.25,24.78 -3.54,0.66 -7.07,1.34 -10.61,1.96 -5.89,-5.32 -11.41,-11.3 -18.21,-15.45 -12.91,-0.57 -25.1,6.92 -38.21,5.04 16.61,-10.23 13.63,-45.47 38.2,-40.95 13.29,-0.88 19.41,15.74 32.42,15.02 12.2,-3.41 18.99,-15.67 30.5,-20.49 6.33,2.94 9.46,10.01 14.13,14.87 0.67,-0.06 2.03,-0.17 2.7,-0.23 1.58,-18.65 -8.98,-35.16 -9.22,-53.57 -1.08,-25.21 -3.1,-50.37 -6.79,-75.35 -20.81,17.89 -33.3,43.1 -52.75,62.22 -10.53,8.21 -17.72,20.55 -19.68,33.74 C 55.15,260.31 55.22,296.57 36.72,295.51 16.11,282.53 14.66,254.83 0,236.71 v -2.31 c 3.69,-13.7 9.42,-26.73 16.27,-39.14 3.86,-7.27 18.22,-4.46 15.01,5.23 -2.06,14.21 2.58,33.04 19.82,34.19 2.37,-5.42 8.21,-5.39 13.19,-6.4 8.65,-4.78 12.7,-14.68 20.41,-20.6 28.42,-16.99 42.31,-48.84 66.24,-70.74 6.46,-7.74 16.9,0.97 24.28,2.86 2.94,27.03 5.25,54.19 9.8,81 8.9,20.9 6.51,45.38 20.09,64.42 7.75,1.39 19.54,1.32 22.09,-8.19 6.38,-14.12 26.62,-26.59 15.77,-43.59 -15.25,-14.9 -9.04,-39.41 -25.99,-53.45 -7.77,-5.59 -3.4,-13.13 -1.08,-19.86 -8.06,-18.25 -23.16,-32.26 -35,-47.91 5.12,0.35 10.67,4.88 15.65,1.79 -3.7,-5.43 -11.41,-8.51 -11.45,-15.81 5.04,2.7 9.51,6.28 14.04,9.74 -3.04,-4.02 -6.42,-7.75 -9.89,-11.39 0.05,-0.72 0.15,-2.16 0.2,-2.88 6.19,1.45 11.36,4.93 15.07,10.09 1.24,0 2.49,0.01 3.73,0.02 -2.29,-4.02 -9.29,-7.57 -5.98,-12.6 7.01,0.67 10.91,7.4 15.87,11.66 15.35,11.87 9.16,34.29 13.93,50.78 7.39,3.39 11.19,9.92 11.43,17.93 1.47,17.64 15.4,30.39 19.61,47.17 2.59,7.91 11.73,1.73 12.91,-3.74 6.1,-13.26 20.37,-24.56 19.35,-40.13 -8.13,-17.44 -21.56,-31.78 -33.4,-46.78 -4.3,-6.64 -14.12,-6.35 -18.31,-13.03 -0.25,-18.6 14.54,-33.99 14.81,-52.59 4.07,-10.5 11.23,-19.54 17.39,-28.87 m -18.82,259.9 c -1.07,11.05 12.62,10.8 20.07,8.22 -1.05,-6.79 -4.89,-12.84 -8.6,-18.49 -5.83,-0.86 -8.2,6.9 -11.47,10.27 z" id="path4140" inkscape:connector-curvature="0" style="opacity:1;fill:#003c30;fill-opacity:1;stroke:#000000;stroke-width:0.09375"/>
<path d="m 495.67,77.56 c 7.25,-2.13 13.32,2.6 16.86,8.42 6.85,-0.06 13.1,-4.05 19.94,-3.74 19.08,10.83 23.52,41.05 6.77,56.07 -6.34,6.24 -15.52,2.86 -23.08,1.72 -2.67,8.98 -11.31,16.11 -20.83,15.92 -36.53,-7.5 -36.11,-71.47 0.34,-78.39 z" id="path4142" inkscape:connector-curvature="0" style="opacity:1;fill:#003c30;fill-opacity:1;stroke:#000000;stroke-width:0.09375"/>
<path d="m 374.11,111.62 c -7.1,-23.72 28.68,-41.56 46.4,-28.89 -13.52,-1.68 -37.75,-0.51 -41.47,15.7 2.75,1.09 5.51,2.36 7.56,4.57 -2.62,-0.52 -5.25,-0.85 -7.9,-0.99 -3.27,8.12 7.42,8.89 7.9,0.99 4.29,2.63 9.21,4.19 13.13,7.4 7.46,-2.72 12.33,3.41 14.79,9.6 9.6,-1.26 16.52,-9.37 19.94,-17.93 -0.61,15.5 -19.33,26.77 -33.69,22.37 -3.52,-3.89 -2.27,-9.87 -4.03,-14.62 -7.63,-1.28 -16.23,8.62 -22.63,1.8 m 31.32,1.58 c -5.2,0.38 -4.21,8.23 0.63,7.86 4.83,0.59 4.14,-9.96 -0.63,-7.86 z" id="path4144" inkscape:connector-curvature="0" style="opacity:1;fill:#003c30;fill-opacity:1;stroke:#000000;stroke-width:0.09375"/>
<path d="m 391.02,242.25 c 0.91,-0.95 0.91,-0.95 0,0 z" id="path4146" inkscape:connector-curvature="0" style="opacity:1;fill:#003c30;fill-opacity:1;stroke:#000000;stroke-width:0.09375"/>
</g>
</g></g>
</g>
</svg>