<?xml version="1.0" encoding="utf-8"?>
<!-- Created with Inkscape (http://www.inkscape.org/) --><svg height="152.42821mm" id="svg6779" inkscape:version="0.91 r13725" sodipodi:docname="niveau3.svg" version="1.1" viewBox="0 0 338.49999 540.09995" width="95.532219mm" xmlns="http://www.w3.org/2000/svg" xmlns:cc="http://creativecommons.org/ns#" xmlns:dc="http://purl.org/dc/elements/1.1/" xmlns:inkscape="http://www.inkscape.org/namespaces/inkscape" xmlns:rdf="http://www.w3.org/1999/02/22-rdf-syntax-ns#" xmlns:sodipodi="http://sodipodi.sourceforge.net/DTD/sodipodi-0.dtd" xmlns:svg="http://www.w3.org/2000/svg">
<defs id="defs6781"/>
<sodipodi:namedview bordercolor="#666666" borderopacity="1.0" id="base" inkscape:current-layer="layer1" inkscape:cx="125.29509" inkscape:cy="354.10234" inkscape:document-units="px" inkscape:pageopacity="0.0" inkscape:pageshadow="2" inkscape:window-height="876" inkscape:window-maximized="1" inkscape:window-width="1535" inkscape:window-x="65" inkscape:window-y="24" inkscape:zoom="0.87153704" pagecolor="#ffffff" showgrid="false"/>
<metadata id="metadata6784">
<rdf:RDF>
<cc:Work rdf:about="">
<dc:format>image/svg+xml</dc:format>
<dc:type rdf:resource="http://purl.org/dc/dcmitype/StillImage"/>
<dc:title/>
</cc:Work>
</rdf:RDF>
</metadata>
<g id="layer1" inkscape:groupmode="layer" inkscape:label="Calque 1" transform="translate(-190.75,-64.669357)">
<rect height="539.09998" id="rect4326-0-3-6-4-3-2-61-6-9-9-5-0-7-0-5-8-8-9-4" inkscape:export-xdpi="90" inkscape:export-ydpi="90" style="fill:#ffffff;fill-opacity:1;stroke:none;stroke-opacity:1" width="337.5" x="191.25" y="65.169357"/>
<rect height="486.97104" id="rect2985-3-0-7-7-6-9-6-2-0-3-5-4-5-0-77-3-1-3-5-5-4-3-9-7-0-1-8" inkscape:export-filename="/home/thomas/Documents/fallacies/png/rect2985-3-0-7-7.png" inkscape:export-xdpi="90" inkscape:export-ydpi="90" rx="9.2935619" ry="7.1613393" style="fill:#ffffff;fill-opacity:1;stroke:#00c8a6;stroke-width:12;stroke-miterlimit:4;stroke-dasharray:none;stroke-dashoffset:0;stroke-opacity:1" width="285.0025" x="218.42665" y="91.512375"/>
<ellipse cx="360.92792" cy="342.49432" id="oval" rx="110.77639" ry="179.61261" style="fill:#a4ece0;fill-opacity:1;stroke:none;stroke-width:3;stroke-miterlimit:4;stroke-dasharray:none;stroke-opacity:1"/>
<path d="m 494.6209,100.0677 0,85 c -13.2539,-39.4762 -29.5079,-65.4525 -72,-85 z" id="path9668-2-1-0-7-4-7" inkscape:connector-curvature="0" sodipodi:nodetypes="cccc" style="fill:#00c8a6;fill-opacity:1;fill-rule:evenodd;stroke:none;stroke-width:1px;stroke-linecap:butt;stroke-linejoin:miter;stroke-opacity:1"/>
<rect height="15" id="sfam_1_active" inkscape:label="#rect13148-3-0-9-3-80-7-76" style="fill:#ffffff;fill-opacity:1;stroke:none;stroke-width:5.83799982;stroke-linecap:round;stroke-linejoin:bevel;stroke-miterlimit:4;stroke-dasharray:none;stroke-dashoffset:0;stroke-opacity:1;display:none;" transform="matrix(0,1,-1,0,0,0)" width="65.714287" x="489.78412" y="-225.57094"/>
<rect height="15" id="sfam_2_active" inkscape:label="#rect13148-3-0-9-3-80-7-76" style="fill:#ffffff;fill-opacity:1;stroke:none;stroke-width:5.83799982;stroke-linecap:round;stroke-linejoin:bevel;stroke-miterlimit:4;stroke-dasharray:none;stroke-dashoffset:0;stroke-opacity:1;display:none;" transform="matrix(0,1,-1,0,0,0)" width="65.714287" x="300.0144" y="-225.57094"/>
<rect height="15" id="sfam_3_active" inkscape:label="#rect13148-3-0-9-3-80-7-76" style="fill:#ffffff;fill-opacity:1;stroke:none;stroke-width:5.83799982;stroke-linecap:round;stroke-linejoin:bevel;stroke-miterlimit:4;stroke-dasharray:none;stroke-dashoffset:0;stroke-opacity:1" transform="matrix(0,1,-1,0,0,0)" width="65.714287" x="109.94095" y="-225.57094"/>
<text id="sfam_3" inkscape:label="#text4212-1-29-1-2-8-9-0-9-6-9-8-3-1-0-6-8-0-4-2-3-6-9-3-6-2-6-4" sodipodi:linespacing="0%" style="font-style:normal;font-variant:normal;font-weight:bold;font-stretch:normal;font-size:11.25px;line-height:0%;font-family:stix;-inkscape-font-specification:'stix, bold';text-align:end;letter-spacing:0px;word-spacing:0px;writing-mode:lr-tb;text-anchor:end;fill:#021c18;fill-opacity:1;stroke:none" transform="matrix(0,-1,1,0,0,0)" x="-113.58095" xml:space="preserve" y="222.6371"><tspan id="tspan4214-27-1-2-9-7-6-4-1-1-1-3-9-59-96-1-6-2-1-8-8-2-7-4-5-4-7-3" sodipodi:role="line" style="font-style:normal;font-variant:normal;font-weight:bold;font-stretch:normal;font-size:11.25px;line-height:0%;font-family:stix;-inkscape-font-specification:'stix, bold';text-align:end;letter-spacing:0px;word-spacing:0px;writing-mode:lr-tb;text-anchor:end;fill:#021c18;fill-opacity:1;stroke:none" x="-113.58095" y="222.6371">Résultat invalide</tspan></text>
<g id="illustration" inkscape:groupmode="layer" inkscape:label="#illustration" transform="translate(186.60659,-39.771006)"><g id="563" inkscape:label="#g11944" transform="translate(1106.9124,-84.008324)">
<path d="m -810.14234,568.49914 c -8.47632,-24.51287 -15.47557,-49.98609 -17.22169,-75.90625 1.66039,-29.4862 1.49905,-61.50068 -15.85119,-86.85456 -4.22686,-11.92248 -1.40407,-28.22882 9.09111,-35.95848 14.38372,4.31812 9.35331,25.19891 6.9975,36.70071 -2.97013,7.5358 -3.03376,25.33532 9.01706,15.56525 20.72596,-13.64526 19.54841,-44.56851 6.53215,-63.22913 -8.15866,-11.7789 -24.09196,-19.38686 -22.16721,-36.17608 -0.49454,-14.29839 3.43469,-30.47339 -5.92721,-42.84784 -6.37092,-18.52364 -35.14915,-25.48394 -48.55472,-10.82639 -8.60967,12.90021 1.34662,28.00303 10.52329,37.46198 8.6399,7.60724 17.07993,23.69156 2.92774,30.73472 -21.73512,12.8126 -28.64445,39.52982 -47.74894,55.08373 -22.96623,-2.0555 -38.42541,-22.55124 -44.75446,-43.12488 -4.78849,-17.49461 -17.22008,-34.33555 -34.68699,-40.53915 -16.2252,-3.74762 -20.068,16.77986 -20.5788,28.64035 -2.5614,19.49433 -3.8647,44.69318 14.6979,57.05167 13.60953,7.08975 24.54695,-6.78043 33.88363,-14.5398 13.07019,-9.88541 19.66172,10.36988 27.04913,17.93545 6.74714,9.07851 12.41157,27.31677 26.72869,23.05808 -1.22251,-3.15121 -7.92587,-14.75523 4.28616,-14.73698 11.19317,-0.50404 25.30354,-7.28921 29.85807,-13.14814 11.80022,10.36356 4.60735,27.58656 1.82664,40.38776 -4.67371,13.08809 -3.68642,26.78177 -1.86288,40.24108 2.8651,32.30194 4.70881,64.68342 7.42365,96.99739 24.21052,4.17317 48.96296,2.61668 73.21877,-0.3173 -1.56913,-0.55106 -3.13827,-1.10213 -4.7074,-1.65319 z" id="path11938" inkscape:connector-curvature="0" style="fill:#ffffff;fill-opacity:1;fill-rule:evenodd;stroke:none;stroke-width:1px;stroke-linecap:butt;stroke-linejoin:miter;stroke-opacity:1"/>
<path d="m -851.59926,571.90525 c -3.31985,-1.06224 -6.30824,-1.53805 -9.71261,-1.54643 -2.70452,-0.007 -5.09518,-0.29983 -5.31249,-0.65148 -0.21733,-0.35165 -1.48608,-0.63937 -2.81948,-0.63937 -3.59842,0 -6.48273,-1.17372 -9.16864,-3.731 -2.18151,-2.07706 -2.39762,-2.58805 -2.39762,-5.66956 0,-1.86272 0.21578,-3.38676 0.47953,-3.38676 0.26373,0 0.51629,-1.79822 0.56123,-3.99603 0.0447,-2.19783 0.1888,-6.58547 0.31968,-9.75034 0.19782,-4.78343 0.03,-6.13184 -0.99555,-7.99207 -0.96884,-1.7576 -1.26933,-3.74694 -1.40054,-9.27081 -0.0919,-3.86816 -0.46878,-8.18388 -0.83756,-9.59048 -0.36886,-1.40661 -0.96551,-6.72933 -1.32592,-11.82827 -0.36035,-5.09895 -0.92631,-12.29182 -1.25763,-15.98415 -0.33132,-3.69234 -0.61501,-9.44664 -0.63042,-12.78732 -0.0153,-3.34069 -0.49672,-8.3757 -1.06959,-11.18891 -1.5277,-7.50194 -1.38417,-19.29114 0.35427,-29.09114 1.34733,-7.59533 2.85042,-19.04966 3.69163,-28.13211 0.2117,-2.28573 0.74564,-4.7313 1.18647,-5.4346 2.25435,-3.59651 1.63307,-9.6996 -1.26446,-12.42171 -1.7261,-1.62154 -1.96766,-1.40241 -2.58816,2.34769 -0.31368,1.89577 -0.96199,3.07698 -2.15165,3.9203 -1.79279,1.27082 -18.29623,8.02156 -21.44448,8.77186 -1.0956,0.26111 -2.25913,1.1982 -2.87714,2.31726 -1.11518,2.01916 -8.56302,6.2535 -10.99945,6.2535 -0.74922,0 -2.21707,-0.71929 -3.26186,-1.59842 -2.01656,-1.69682 -3.47272,-2.13108 -2.67997,-0.79921 0.26163,0.43957 1.5268,2.23778 2.81143,3.99605 3.98926,5.45994 4.10459,5.84884 2.27677,7.67666 -0.87676,0.87678 -2.30683,1.59414 -3.1779,1.59414 -2.06163,0 -7.3311,-4.37397 -7.38475,-6.12973 -0.0518,-1.68559 -4.99434,-8.6585 -6.00229,-8.46748 -1.41416,0.26803 -3.62975,-0.83323 -4.33772,-2.15598 -1.49305,-2.78987 -1.92008,0.48225 -1.72482,13.21616 l 0.19584,12.76678 -3.8362,1.07199 c -4.51418,1.26143 -6.71851,1.69655 -23.65653,4.66965 -7.03303,1.23451 -14.80133,2.41668 -17.26288,2.62709 -2.46156,0.21039 -12.86548,1.65953 -23.11968,3.22029 -10.2543,1.56078 -19.3447,2.83777 -20.2009,2.83777 -0.8561,0 -2.0819,-0.58052 -2.724,-1.29004 -1.0595,-1.17063 -1.194,-3.02005 -1.4535,-19.98018 -0.1574,-10.27959 -0.5537,-19.02419 -0.8808,-19.43243 -0.3367,-0.42025 -0.351,-0.89295 -0.033,-1.08956 0.309,-0.19099 0.4685,-7.33754 0.3545,-15.88122 -0.1141,-8.54369 0.025,-18.12125 0.3082,-21.28348 0.2836,-3.16223 0.2937,-7.15316 0.023,-8.86874 -0.4637,-2.93313 -0.6389,-15.65117 -0.3536,-25.66181 0.07,-2.46155 -0.068,-15.98344 -0.3078,-30.04862 -0.3748,-22.01638 -0.3048,-25.71736 0.5036,-26.61062 0.7678,-0.84837 0.7978,-1.34732 0.165,-2.73623 -1.1595,-2.54479 -0.01,-3.28199 4.9365,-3.16182 5.0025,0.12157 7.4244,0.66136 22.6427,5.04653 6.5056,1.87458 18.30192,5.14157 26.21406,7.25998 7.91216,2.1184 16.68746,4.54446 19.50067,5.39124 6.48329,1.95149 16.32864,5.98739 17.58256,7.20759 0.82913,0.80686 0.98527,6.58131 1.15233,42.62948 l 0.19328,41.69619 2.03095,3.95633 c 1.88121,3.66468 2.09054,5.36338 0.54313,4.40702 -0.35254,-0.21789 -2.13944,-3.01461 -3.97083,-6.21495 -1.8314,-3.20033 -5.14818,-8.73324 -7.37061,-12.29535 -2.22245,-3.56212 -4.92032,-8.05899 -5.99521,-9.99307 -1.07491,-1.9341 -2.97453,-4.66738 -4.22136,-6.07398 l -2.26693,-2.55747 0.4106,1.91809 c 0.22582,1.05497 1.30265,3.35668 2.39296,5.11494 1.09025,1.75825 3.7518,6.36169 5.91445,10.22985 4.63349,8.28744 6.91001,12.29642 9.23915,16.27025 0.93828,1.6009 1.89528,3.41423 2.12667,4.02961 0.50734,1.3495 1.71868,1.41192 4.53815,0.23385 1.52361,-0.63658 2.4138,-1.62378 3.17112,-3.51651 0.84148,-2.10305 1.37497,-2.63146 2.65651,-2.63146 0.9992,0 1.6036,0.36147 1.6036,0.95905 0,0.52747 -0.28407,0.95904 -0.63138,0.95904 -0.34724,0 -1.36472,1.16182 -2.26117,2.58183 -0.8964,1.42001 -2.33856,2.90477 -3.20483,3.29946 -0.86628,0.3947 -1.57501,1.07223 -1.57501,1.50564 0,1.48003 2.128,1.64947 3.93523,0.31334 1.77264,-1.31056 3.09779,-1.68379 3.09779,-0.87247 0,0.23876 -0.33676,1.36533 -0.74824,2.50345 -0.62492,1.72806 -0.57084,2.34018 0.32773,3.7116 0.59186,0.90324 1.7917,1.82188 2.66641,2.04141 1.78345,0.44762 1.95742,0.90915 0.79109,2.09848 -0.64206,0.6547 -0.42205,1.11926 1.11889,2.36247 2.59039,2.08994 4.26988,1.97657 5.66325,-0.38231 1.51549,-2.56546 0.899,-5.45088 -1.42087,-6.65054 -3.12701,-1.61704 -7.75889,-7.13932 -7.75889,-9.2504 0,-1.04927 0.26801,-2.07341 0.59563,-2.27587 0.71961,-0.44475 2.60119,2.09156 2.60119,3.50631 0,1.7197 3.9578,4.90445 6.58809,5.30131 1.89457,0.28586 2.71048,0.0887 3.691,-0.89182 0.99639,-0.99637 1.52233,-1.11777 2.52288,-0.58229 1.46907,0.78622 1.57079,0.48808 0.46488,-1.36274 -0.68271,-1.14261 -0.62179,-1.44417 0.41833,-2.06926 2.87267,-1.72639 5.53231,-4.52921 7.34402,-7.73944 1.97244,-3.49496 4.08478,-4.89759 5.39797,-3.58439 0.53886,0.53885 0.35108,0.8213 -0.73488,1.10528 -0.90644,0.23705 -2.04054,1.52969 -2.99569,3.41459 -0.84537,1.66823 -2.80835,4.15225 -4.36226,5.52006 l -2.8253,2.48691 2.31834,4.46725 c 2.69397,5.19093 2.55113,5.16247 10.5262,2.09836 7.16321,-2.75218 12.54864,-6.56559 14.28498,-10.11508 2.31635,-4.73531 2.21482,-5.30941 -1.07977,-6.10784 -2.42346,-0.58731 -2.87714,-0.94081 -2.87714,-2.24164 0,-1.27223 0.36303,-1.57944 2.06035,-1.7434 2.02755,-0.19588 2.0546,-0.24163 1.70219,-2.87715 -0.21777,-1.6281 0.30529,-6.39412 1.33409,-12.15595 1.94445,-10.88988 1.90864,-12.70635 -0.1849,-9.38345 -1.38909,2.20482 -2.49973,5.54857 -3.92871,11.82826 -0.40011,1.75826 -1.88076,5.58828 -3.2903,8.51117 -2.13472,4.42657 -2.78854,5.28102 -3.91388,5.11492 -1.82366,-0.26915 -2.1539,-1.59008 -0.52672,-2.10655 0.72307,-0.22948 1.64387,-1.0451 2.04636,-1.8125 0.70854,-1.35119 0.6918,-1.35992 -0.53054,-0.27639 -0.6943,0.6154 -1.64855,1.11889 -2.12065,1.11889 -0.47211,0 -1.37381,0.46647 -2.00378,1.03659 -0.69345,0.62755 -1.59637,0.86282 -2.28815,0.59623 -1.00196,-0.38615 -0.88956,-0.65156 0.91269,-2.15548 1.54445,-1.28874 3.49311,-4.89404 7.83862,-14.50244 9.75576,-21.57099 8.01433,-19.16435 17.34958,-23.97622 4.43445,-2.28573 8.81193,-4.65938 9.72783,-5.27476 0.91589,-0.6154 1.99661,-1.11889 2.40164,-1.11889 0.45874,0 0.58215,-0.54255 0.3273,-1.43858 -0.22499,-0.79122 -0.68694,-2.82747 -1.02644,-4.52501 -0.80988,-4.04931 -0.9836,-4.26628 -3.41677,-4.26628 -2.45958,0 -6.12845,-3.42193 -7.6511,-7.13613 -0.64065,-1.56266 -1.70583,-2.69497 -3.20412,-3.40593 -1.57892,-0.74928 -2.54953,-1.82771 -3.27362,-3.6374 -0.90253,-2.25559 -1.22362,-2.52362 -2.60721,-2.17635 -1.84834,0.46391 -1.89706,0.28595 -0.60529,-2.21203 1.20629,-2.33266 0.76879,-4.42374 -1.77206,-8.46967 -2.37506,-3.78187 -1.95499,-4.55374 0.71519,-1.31432 l 1.98121,2.4035 0.39659,-1.98288 c 0.2282,-1.14122 1.58212,-3.14646 3.18967,-4.72412 2.14258,-2.10281 2.6301,-2.93761 2.09316,-3.58454 -1.02464,-1.23463 -4.3707,-1.02955 -7.104,0.43538 -3.0749,1.64807 -4.32422,1.64958 -2.67785,0.004 0.70151,-0.70153 2.77741,-1.63226 4.61303,-2.06831 3.77052,-0.89566 3.86011,-1.38788 1.04683,-5.75344 -2.63675,-4.09159 -2.1601,-6.19193 2.49264,-10.98411 2.2159,-2.28231 4.82407,-4.45196 5.79591,-4.82146 0.97183,-0.36953 4.51955,-0.67184 7.8837,-0.67184 h 6.11668 l 2.15346,2.2833 c 1.1981,1.27033 2.15344,2.95616 2.15344,3.79994 0,2.28823 2.27883,3.50724 6.55644,3.50724 5.21001,0 7.76024,1.29152 12.99339,6.58026 2.50811,2.53475 6.04059,5.9151 7.84997,7.51188 2.64951,2.3382 3.28976,3.29523 3.28976,4.91735 0,2.7148 0.90028,3.09211 2.50628,1.05041 2.62497,-3.33712 1.14379,-8.35257 -3.75063,-12.70003 -0.78735,-0.69937 -1.70273,-1.77831 -2.03419,-2.39762 -1.01201,-1.89096 1.05257,-1.35731 3.68263,0.95189 2.60012,2.28291 4.34683,5.7284 5.0227,9.9076 0.38897,2.4051 0.21694,2.99516 -1.50829,5.17343 -1.47582,1.86339 -1.76798,2.63805 -1.20662,3.1994 0.93317,0.93317 0.16233,0.95521 -1.54021,0.044 -1.07987,-0.57792 -1.60565,-0.40552 -3.08467,1.01148 -2.01984,1.93513 -2.23404,1.76895 -2.8781,-2.2329 -0.25466,-1.58243 -0.93521,-3.42037 -1.51232,-4.08429 -1.30391,-1.50007 -4.63632,-2.94874 -6.78304,-2.94874 -1.29732,0 -1.61895,-0.31513 -1.61895,-1.58624 0,-1.18373 0.43105,-1.69441 1.69873,-2.01258 l 1.69873,-0.42636 -2.29667,-1.17826 c -2.63571,-1.3522 -3.5674,-2.46895 -2.05984,-2.46895 1.64399,0 0.41214,-1.29828 -2.47652,-2.61 -3.90537,-1.77346 -4.47076,-1.62385 -3.21869,0.85174 0.57798,1.14286 1.74399,3.00397 2.59109,4.1358 1.89227,2.52833 1.53595,4.62358 -1.04556,6.14854 -1.00675,0.59468 -2.44723,2.0793 -3.20117,3.29916 -0.75388,1.21986 -2.26368,2.85374 -3.35501,3.63085 -2.74531,1.95483 -1.06352,2.29244 2.36342,0.47444 2.67216,-1.4176 2.82094,-1.4291 4.47409,-0.34595 2.25888,1.48011 1.78601,2.56385 -1.29037,2.95702 -1.66204,0.21242 -2.56949,0.6783 -2.70452,1.38846 -0.15191,0.79876 0.12915,0.98183 1.11269,0.72463 1.69061,-0.4421 1.65692,-0.1149 -0.28247,2.74299 -2.16445,3.18945 -2.12322,6.35449 0.11321,8.6888 0.94141,0.98261 1.54145,1.95675 1.33347,2.16472 -0.46086,0.46086 -2.90381,-0.75228 -4.64352,-2.30592 -1.73307,-1.54771 -4.41668,-1.78997 -5.8518,-0.52828 -0.64966,0.57117 -2.33209,1.63544 -3.73869,2.36505 -3.08481,1.60009 -2.13389,1.72251 3.01544,0.38819 2.11163,-0.54718 3.98229,-0.85192 4.15703,-0.6772 0.34251,0.3425 -4.89831,1.97108 -9.46985,2.94278 -2.45453,0.52172 -2.24091,0.55817 1.65802,0.2829 l 4.47556,-0.31597 -1.75827,1.35261 c -2.22959,1.71519 -2.22959,2.50672 0,2.59173 1.56165,0.0596 1.4765,0.15418 -0.76097,0.84618 -1.56907,0.48527 -2.22826,0.95893 -1.74784,1.25587 0.42428,0.2622 0.60587,0.74457 0.40357,1.07192 -0.20229,0.32735 -0.008,0.59518 0.43144,0.59518 0.43963,0 0.24079,0.42243 -0.4418,0.93872 -1.15187,0.87125 -1.0343,0.94164 1.63609,0.97938 2.53143,0.0358 2.74268,0.14271 1.75825,0.89003 -2.1725,1.64917 -1.0329,3.58553 2.11016,3.58553 0.77618,0 1.08283,0.32189 0.85994,0.90273 -0.2542,0.66244 0.60951,1.11664 3.24479,1.70639 3.08622,0.69066 4.05921,0.65608 6.91998,-0.24601 5.08218,-1.60257 10.05662,-4.89631 12.74228,-8.43708 2.8093,-3.70379 3.68499,-6.3315 3.68996,-11.0726 l 0.004,-3.40021 -1.91766,1.36549 c -2.14665,1.52855 -3.21642,1.37335 -6.66503,-0.96693 l -2.2857,-1.55112 -0.86042,2.05839 c -1.0061,2.40683 -2.99126,4.37986 -2.95392,2.93589 0.0122,-0.48263 0.43355,-1.59679 0.9361,-2.47592 1.19574,-2.09178 1.1926,-5.0392 -0.008,-7.91399 -1.07255,-2.56697 -0.49871,-3.01067 1.30948,-1.0126 1.17598,1.29941 1.18642,1.29519 3.55087,-1.43857 2.82115,-3.26181 3.88927,-2.94325 1.57348,0.46925 -2.07532,3.05817 -2.09579,5.65206 -0.0606,7.6872 2.02572,2.02573 3.7622,1.98877 5.41726,-0.11526 1.89199,-2.40528 1.77879,-6.23159 -0.24422,-8.25459 -0.86314,-0.86314 -1.24321,-1.56936 -0.8446,-1.56936 4.59882,0 13.22373,10.48586 13.26914,16.13213 0.007,0.96052 0.35156,3.7147 0.76409,6.1204 0.65139,3.79856 0.6016,4.83053 -0.37848,7.84409 -0.6207,1.90856 -2.10908,5.09016 -3.30752,7.07024 -1.19845,1.98009 -2.17898,3.86028 -2.17898,4.17819 0,0.31792 2.26446,2.9293 5.03212,5.80307 4.07231,4.22843 5.17697,5.80952 5.79153,8.28944 0.41767,1.68543 2.89733,7.46018 5.51032,12.83275 2.61299,5.37258 5.25027,11.27074 5.86062,13.10701 2.11759,6.37093 0.79388,22.38358 -2.3617,28.56904 -0.71692,1.40527 -2.9685,4.21548 -5.00351,6.24491 -2.38653,2.37997 -4.58136,5.44991 -6.18273,8.64785 l -2.48273,4.95799 2.35265,4.50393 c 1.29395,2.47716 2.35265,4.86499 2.35265,5.30628 0,1.06289 -2.91535,3.72427 -9.91017,9.04682 -3.16486,2.40824 -5.84333,4.44115 -5.95216,4.51761 -0.38626,0.27136 3.78912,41.65405 5.05965,50.14662 0.71021,4.7473 1.85061,10.90751 2.53421,13.68936 0.6836,2.78186 1.09986,5.20096 0.92504,5.37579 -0.17483,0.17482 -0.0162,0.68147 0.35274,1.12589 0.36883,0.44442 0.76685,2.81804 0.88449,5.27473 0.11767,2.45667 0.57077,5.54809 1.00698,6.86981 0.68648,2.08003 0.65278,2.50574 -0.25067,3.16636 -1.23099,0.90012 -1.37624,3.55053 -0.25598,4.6708 0.51565,0.51564 0.71768,2.30523 0.58485,5.18052 -0.15176,3.28515 0.0265,4.52934 0.70705,4.93454 0.50049,0.29799 1.21639,1.77511 1.59088,3.2825 0.63477,2.55501 0.59847,2.71452 -0.53578,2.35453 -0.82346,-0.26135 -1.21669,-0.0791 -1.21669,0.56408 0,1.0118 8.42599,8.09139 11.55764,9.71084 1.33534,0.69053 1.86905,1.43899 1.86905,2.6211 0,1.62515 -0.054,1.64478 -3.037,1.10248 -4.3186,-0.78512 -16.86429,-0.5159 -19.70898,0.42293 -1.70207,0.56173 -5.20434,0.68563 -12.04492,0.42608 -9.29128,-0.3525 -9.52777,-0.33061 -6.44821,0.59678 6.46086,1.94567 6.66895,2.05718 3.8362,2.05551 -1.40662,-6.4e-4 -4.71532,-0.69195 -7.35272,-1.53583 z m 8.50191,-7.09642 c 2.95327,-0.3095 3.66457,-0.59839 3.4996,-1.42132 -0.16982,-0.84706 -0.91988,-0.99336 -4.16916,-0.8132 -2.48566,0.13782 -6.39187,-0.30895 -10.48266,-1.19893 -6.27889,-1.366 -6.55209,-1.37555 -7.36978,-0.25731 -0.46706,0.6387 -0.84914,2.01019 -0.84914,3.04775 v 1.88648 l 7.83223,-0.42751 c 4.30773,-0.23512 9.50022,-0.60231 11.53891,-0.81596 z m 2.07098,-13.35784 c -0.23789,-1.90407 -0.70012,-3.62731 -1.02716,-3.82943 -0.75213,-0.46485 -0.74736,-0.30739 0.14451,4.77052 0.85704,4.87949 1.52139,4.17115 0.88265,-0.94109 z m 6.90951,-4.13399 c -1.05148,-6.90529 -2.13763,-9.74879 -2.13763,-5.59622 0,2.77753 1.24884,12.07616 1.72545,12.84732 0.18559,0.30028 0.58307,0.29915 0.88475,-0.002 0.3041,-0.30411 0.0939,-3.52843 -0.47257,-7.24858 z m -4.08678,-0.62463 c -0.45227,-3.54896 -1.08662,-6.61601 -1.40964,-6.81565 -0.63698,-0.39367 -0.1873,4.88068 0.89865,10.54051 1.07096,5.58179 1.39552,3.21597 0.51099,-3.72486 z m -21.92329,4.31351 c -0.17737,-0.43956 -0.3225,-0.0799 -0.3225,0.79921 0,0.87913 0.14513,1.23877 0.3225,0.79921 0.17735,-0.43956 0.17735,-1.15885 0,-1.59842 z m 36.26513,0.79244 c 0.90566,-0.87712 -0.0406,-2.43333 -1.618,-2.66094 -1.63121,-0.23538 -2.30034,-1.9316 -2.39919,-6.08195 -0.082,-3.43983 -1.04749,-5.95575 -2.28569,-5.95575 -1.16589,0 -1.17402,0.18694 -0.29227,6.71334 1.41193,10.45058 1.00405,9.45531 3.674,8.96486 1.2962,-0.23811 2.61072,-0.67891 2.92115,-0.97956 z m -0.24473,-5.3901 c 0,-0.50673 -0.28771,-1.09913 -0.63936,-1.31647 -0.35166,-0.21734 -0.63937,0.19725 -0.63937,0.92132 0,0.72405 0.28771,1.31646 0.63937,1.31646 0.35165,0 0.63936,-0.41459 0.63936,-0.92131 z m -21.95436,-3.71409 c -0.17735,-0.43957 -0.32249,-0.0799 -0.32249,0.7992 0,0.87913 0.14514,1.23878 0.32249,0.79921 0.17736,-0.43956 0.17736,-1.15885 0,-1.59841 z m -2.53784,-18.20976 c -0.16207,-0.62209 -0.30542,-0.26792 -0.31839,0.78703 -0.0128,1.05495 0.1196,1.56394 0.29468,1.13106 0.17518,-0.43287 0.18579,-1.29601 0.0236,-1.91809 z m 17.45917,-1.69602 c 0,-1.18986 -0.56341,-6.44065 -1.25202,-11.66843 -0.68862,-5.22778 -1.69644,-14.24289 -2.2396,-20.03358 -0.72778,-7.75895 -1.25289,-10.78632 -1.99625,-11.50857 -0.9162,-0.89022 -0.97535,-0.65767 -0.64515,2.53644 0.19994,1.93408 0.66878,7.2568 1.04186,11.82826 0.37307,4.57147 0.92949,9.31876 1.23646,10.54954 0.30698,1.23078 0.91775,6.33771 1.35729,11.34874 0.59182,6.74702 1.01948,9.11098 1.64829,9.11098 0.53862,0 0.84912,-0.7911 0.84912,-2.16338 z m -7.63736,-8.23907 c -0.39567,-3.59741 -0.9965,-9.4121 -1.33518,-12.92154 -0.33867,-3.50941 -0.93675,-7.35334 -1.32906,-8.54205 -0.39231,-1.1887 -1.08612,-4.21551 -1.5418,-6.72622 -2.07355,-11.42505 -0.46029,7.35369 1.96972,22.92779 2.19783,14.08594 3.55914,17.28908 2.23632,5.26202 z m -10.30983,-5.74154 c 0.0249,-1.67035 -0.24277,-3.037 -0.59442,-3.037 -0.3675,0 -0.62025,1.83486 -0.59442,4.31572 0.0518,4.95966 1.11346,3.81759 1.18884,-1.27872 z m 9.43915,-28.43962 c -0.16211,-0.62209 -0.30541,-0.26792 -0.31844,0.78703 -0.013,1.05496 0.11961,1.56394 0.29474,1.13106 0.17514,-0.43287 0.1858,-1.29601 0.0238,-1.91809 z m 0.19628,-3.97048 c 0,-0.68255 -0.28771,-1.41881 -0.63936,-1.63614 -0.36263,-0.22411 -0.63937,0.31305 -0.63937,1.24099 0,0.89989 0.28772,1.63616 0.63937,1.63616 0.35165,0 0.63936,-0.55845 0.63936,-1.24101 z m 13.66099,-34.98508 c 6.32685,-4.49937 6.85313,-5.03169 6.47905,-6.5535 -0.42033,-1.70988 -3.34811,-7.09096 -3.85812,-7.09096 -0.15823,0 -0.7941,1.07548 -1.41304,2.38996 -0.67615,1.43596 -2.6995,3.57877 -5.06896,5.36823 -3.29762,2.49042 -4.6851,3.10335 -8.47018,3.7418 -2.48961,0.41992 -4.52656,0.9941 -4.52656,1.27596 0,0.28185 0.93507,1.67958 2.07793,3.10607 1.8684,2.33204 2.37119,2.59693 4.98581,2.6266 2.62136,0.0298 3.58637,-0.44953 9.79407,-4.86416 z m -25.68535,-4.57612 c 1.05087,-1.46103 6.1149,-4.32167 6.66923,-3.76739 0.22735,0.22739 -0.0801,1.16667 -0.68329,2.08728 -0.60324,0.92061 -0.99914,1.77146 -0.87983,1.89079 0.11937,0.11936 1.29318,-0.11985 2.60854,-0.5316 1.63846,-0.51282 2.39162,-1.12352 2.39162,-1.93924 0,-0.88251 0.28961,-1.07197 1.11889,-0.73198 2.64169,1.08304 6.37864,1.08049 8.52549,-0.006 2.77459,-1.40394 5.06103,-3.48422 5.06103,-4.60469 0,-0.47787 0.73583,-2.32094 1.63518,-4.09573 l 1.63518,-3.22686 -1.70282,-2.23251 c -0.93655,-1.22788 -2.03202,-2.35798 -2.43438,-2.51134 -1.25353,-0.47778 -7.31441,2.07816 -10.03217,4.23067 -1.4266,1.12989 -3.25346,2.05434 -4.05968,2.05434 -1.59235,-6e-5 -4.86165,-1.8768 -4.86165,-2.79089 0,-0.31122 -0.28771,-0.56584 -0.63936,-0.56584 -1.28807,0 -0.58816,2.57131 1.27873,4.69756 1.84521,2.10155 2.445,3.61008 1.43858,3.61794 -0.84154,0.006 -9.11098,8.00376 -9.11098,8.81101 0,1.14697 1.08693,0.94158 2.04169,-0.38578 z m 7.96758,-5.12265 c -0.90578,-1.00089 -1.45155,-2.66695 -0.87363,-2.66695 0.10152,0 1.27231,0.5546 2.60188,1.23245 2.25074,1.1475 2.32907,1.27973 1.13626,1.91811 -1.65195,0.88409 -1.62223,0.88909 -2.86451,-0.48361 z m -4.16597,-3.25201 1.50941,-1.22441 -1.40014,-1.49322 c -2.19866,-2.34472 -2.74435,-4.41045 -1.70328,-6.44765 1.15687,-2.26391 2.20058,-2.22179 3.96139,0.15984 1.84007,2.48884 3.41713,2.4204 7.74384,-0.33605 1.91779,-1.22177 4.00373,-2.22141 4.63541,-2.22141 0.63169,0 1.14852,-0.15685 1.14852,-0.34856 0,-0.81004 -6.48814,-9.8813 -7.06752,-9.8813 -1.1186,0 -12.50961,9.41905 -14.63243,12.09934 -2.29782,2.90126 -2.25831,3.42928 0.59351,7.92611 2.08977,3.2952 2.96276,3.59128 5.21129,1.76731 z m -13.51569,-7.7267 c 0,-0.35165 -0.5035,-0.63496 -1.11889,-0.62959 -0.95623,0.008 -0.97944,0.0999 -0.15984,0.62959 1.20662,0.77977 1.27873,0.77977 1.27873,0 z m -64.8037,-0.96817 c 0.22263,-0.58015 -0.98711,-2.82228 -3.01858,-5.59445 -5.10137,-6.96152 -9.85423,-13.96537 -11.0577,-16.29471 -1.13557,-2.19789 -1.48582,-2.38419 -2.85304,-1.51753 -1.08705,0.68907 1.64182,6.2917 5.83753,11.98508 1.5864,2.15273 4.08881,5.82108 5.5609,8.15192 2.67951,4.24268 4.69934,5.43676 5.53089,3.26969 z m 112.26563,-8.64813 c 2.8672,-2.36339 5.56298,-5.91741 4.04728,-5.33577 -1.43389,0.55023 -1.27487,-0.0121 1.31199,-4.63761 1.27122,-2.27313 2.17798,-4.26629 2.01502,-4.42924 -0.16295,-0.16295 -1.34327,1.28064 -2.62294,3.20795 -1.27968,1.92733 -3.91272,5.09027 -5.85121,7.02878 -3.75368,3.75368 -3.95538,4.14448 -2.75731,5.34256 1.05992,1.05992 1.19309,1.01928 3.85717,-1.17667 z m 1.76925,-4.44976 c 0,-0.35165 0.28772,-0.63936 0.63937,-0.63936 0.35165,0 0.63936,0.28771 0.63936,0.63936 0,0.35165 -0.28771,0.63936 -0.63936,0.63936 -0.35165,0 -0.63937,-0.28771 -0.63937,-0.63936 z m -18.14053,2.14161 c 0.53635,-1.28368 1.24546,-4.9464 1.57581,-8.1394 0.42891,-4.14577 1.07599,-6.71455 2.26345,-8.98553 3.09098,-5.91141 3.54971,-7.86339 2.38839,-10.16326 -1.6649,-3.29714 -5.96171,-8.73982 -6.89981,-8.73982 -0.94883,0 -1.33988,1.20722 -1.96755,6.07398 -0.24069,1.8662 -1.90126,6.3152 -3.9895,10.68866 -3.47877,7.28572 -3.55561,7.56385 -2.79283,10.10977 0.43139,1.43985 1.73524,3.67897 2.89742,4.9758 1.1622,1.29684 2.59125,3.29295 3.17569,4.43582 1.37108,2.6812 2.14645,2.62192 3.34893,-0.25602 z m 15.67405,-4.58775 c 1.88404,-2.04866 4.68015,-5.98979 6.21356,-8.75805 l 2.78803,-5.03321 -0.25612,-5.85609 c -0.24732,-5.65467 -0.38195,-6.10151 -3.91399,-12.98996 -2.01183,-3.92362 -4.69007,-9.64706 -5.95166,-12.71873 -1.2616,-3.07168 -2.95794,-6.30416 -3.76967,-7.18328 -0.81172,-0.87913 -1.89447,-2.60542 -2.40613,-3.8362 -0.51165,-1.23078 -1.52148,-2.76422 -2.24406,-3.40764 -1.59447,-1.41978 -2.77653,-0.92266 -6.94703,2.92157 l -2.78489,2.56703 v 7.55322 c 0,4.15428 0.25757,7.71241 0.57237,7.90697 0.81912,0.50625 1.10925,-0.53952 2.31522,-8.34483 0.59132,-3.8272 1.32494,-7.22244 1.63027,-7.54499 1.12133,-1.18452 1.38145,1.71916 0.65882,7.35395 -0.91318,7.12064 -0.37495,9.44214 3.61623,15.59776 3.46144,5.33855 5.23988,9.07243 5.25909,11.04161 0.007,0.79121 0.1722,1.43857 0.36548,1.43857 0.78421,0 3.95184,-1.89915 4.72851,-2.83498 0.45701,-0.55068 1.38124,-1.00122 2.05387,-1.00122 1.06083,0 1.12503,0.1907 0.48435,1.43858 -0.40622,0.79122 -1.62364,2.37365 -2.70538,3.51651 -1.54797,1.63545 -2.48468,2.07794 -4.39884,2.07794 -2.67987,0 -3.00196,0.40133 -1.31314,1.63625 1.05142,0.76883 1.03215,0.91048 -0.31969,2.34946 -0.86302,0.91865 -1.43858,2.33672 -1.43858,3.54438 0,1.10718 -0.57542,3.47293 -1.27873,5.25723 -1.67051,4.23815 -1.61869,4.88965 0.47953,6.02796 3.31517,1.79851 4.85804,1.30843 8.56258,-2.71981 z m -126.97884,1.84931 c -0.23177,-0.37504 -0.7274,-0.6819 -1.10137,-0.6819 -0.42397,0 -0.37544,0.36686 0.12889,0.9745 0.87689,1.05661 1.66063,0.82082 0.97248,-0.2926 z m 91.24858,-1.28202 c 0.65311,-0.69531 0.34039,-0.77495 -1.76363,-0.44924 -1.4066,0.21776 -5.00304,0.42777 -7.99207,0.46669 -3.90794,0.0509 -4.98559,0.22473 -3.8362,0.61879 2.45273,0.84095 12.65286,0.36347 13.5919,-0.63624 z m -56.10974,-3.89649 c 2.2493,-1.05682 2.32634,-1.15874 0.63938,-0.84584 -4.35351,0.80746 -6.71335,1.59472 -6.71335,2.23958 0,0.8451 2.55823,0.25809 6.07397,-1.39374 z m 42.9833,-1.95613 c -0.62312,-0.36276 -2.58297,-3.54905 -4.35523,-7.08066 -1.7722,-3.53159 -3.35092,-6.29241 -3.50821,-6.13513 -0.15728,0.15727 0.8675,2.74735 2.27729,5.75574 1.40974,3.00837 2.56322,5.77273 2.56322,6.143 0,0.81641 1.87642,1.97661 3.19684,1.97661 0.74012,0 0.70042,-0.15057 -0.17391,-0.65956 z m 6.30863,-1.31268 c 1.21146,-1.36442 1.21024,-1.36772 -0.22058,-0.61688 -0.79122,0.4152 -1.43858,1.03249 -1.43858,1.37177 0,0.9083 0.30606,0.76906 1.65916,-0.75489 z m -88.61293,0.46501 c 0,-1.25644 -1.04095,-2.29008 -2.30619,-2.29008 -1.79528,0 -2.00231,0.9401 -0.41111,1.86689 1.13807,0.66288 2.7173,0.90881 2.7173,0.42319 z m 76.09867,-3.20629 c -0.90514,-2.74261 -2.07442,-3.08773 -1.2988,-0.38335 0.66079,2.30422 1.30379,3.41166 1.7321,2.98336 0.17563,-0.17567 -0.0192,-1.34567 -0.4333,-2.60001 z m 12.87524,-0.75709 c 1.73274,-1.27197 3.85511,-3.3497 4.71641,-4.61719 1.37342,-2.02112 1.45111,-2.41938 0.63182,-3.23863 -0.81922,-0.81926 -1.40232,-0.48751 -4.74173,2.69776 -2.52831,2.4116 -4.14635,3.50194 -4.81558,3.24513 -0.55433,-0.21273 -1.00789,-0.0819 -1.00789,0.29091 0,0.85937 1.38749,3.93469 1.7752,3.93469 0.16023,0 1.70896,-1.0407 3.44177,-2.31267 z m 12.47045,-4.00826 c 1.57276,-1.62243 3.61668,-4.22404 4.54201,-5.78137 2.00239,-3.36995 3.97093,-11.75844 3.91178,-16.66917 -0.0385,-3.19807 -0.18289,-2.82171 -1.59416,4.15588 -2.01105,9.94288 -4.23645,14.50144 -9.73851,19.94846 -2.51782,2.4927 -3.38448,3.61951 -2.11987,2.75627 1.17649,-0.80311 3.42597,-2.78763 4.99875,-4.41007 z m -106.3068,0.4965 c -1.9525,-2.03795 -2.80995,-2.32337 -2.80995,-0.93532 0,1.16041 3.14447,3.67074 3.96374,3.16439 0.33919,-0.20961 -0.18004,-1.21269 -1.15379,-2.22907 z m 84.08768,-3.69457 c -1.11825,-2.50088 -2.23868,-4.54705 -2.48982,-4.54705 -0.54825,0 -2.29494,-3.92369 -3.13079,-7.03303 -0.55374,-2.05972 -0.60618,-2.09843 -0.65924,-0.48639 -0.032,0.96328 0.48297,3.17424 1.14376,4.91325 1.38442,3.64365 6.69794,12.92486 6.97996,12.19211 0.10405,-0.27051 -0.72568,-2.53802 -1.84387,-5.03889 z m 6.21892,2.27754 c -0.0949,-0.90571 10.54155,-10.02142 11.69323,-10.02142 1.04096,0 0.83873,0.59249 -0.91281,2.67406 -1.60449,1.9068 -2.15684,3.50082 -0.95599,2.75863 0.35339,-0.21839 1.78479,-2.07914 3.18092,-4.135 1.39611,-2.05588 2.87094,-3.84882 3.27744,-3.98433 0.45599,-0.15197 0.95306,-3.05257 1.29749,-7.57115 0.30708,-4.02862 0.73487,-9.11371 0.95063,-11.30019 0.37401,-3.79024 0.31802,-4.00925 -1.20236,-4.70197 -1.27285,-0.57996 -1.9027,-0.52475 -3.12101,0.27353 -1.94924,1.27715 -4.13446,0.32068 -5.98337,-2.61884 -0.70394,-1.11929 -1.62035,-2.04613 -2.03638,-2.05967 -0.41598,-0.0136 -1.8323,1.28836 -3.14728,2.89314 -3.15719,3.85293 -5.32221,4.93557 -8.82083,4.41093 l -2.7462,-0.41182 -0.73623,6.47464 c -1.31096,11.52861 -0.88175,15.45208 2.13696,19.53582 0.77982,1.05495 2.04066,3.14089 2.80182,4.6354 0.76124,1.49452 1.68288,2.7173 2.04808,2.7173 0.36528,0 0.4863,0.28772 0.26899,0.63937 -0.21733,0.35165 0.16528,0.63936 0.85029,0.63936 0.68495,0 1.20546,-0.38149 1.15661,-0.84779 z m 17.56011,-5.76766 c 2.14269,-4.049 0.87012,-3.37744 -1.60607,0.84755 -1.26307,2.15507 -2.29009,4.11869 -2.28229,4.36359 0.0236,0.73465 2.49417,-2.57653 3.88836,-5.21114 z m -153.67402,-5.28591 c 6.54915,-0.66063 2.90464,-2.54901 -4.61339,-2.39043 -2.5488,0.0538 -4.5525,0.39035 -4.6847,0.78691 -0.1545,0.46371 -1.801,0.56023 -4.977,0.29176 -4.7814,-0.40418 -6.1296,0.20701 -3.6272,1.6443 1.0651,0.61177 10.2281,0.44157 17.90229,-0.33254 z m 116.00765,-5.73652 c -0.10839,-1.72783 0.3675,-6.73794 1.05757,-11.13358 1.35904,-8.65717 2.36604,-21.73844 1.67341,-21.73844 -0.2358,0 -2.45101,1.06265 -4.92261,2.36143 -4.21418,2.21449 -6.87331,4.94691 -6.8797,7.06922 -0.006,1.61706 1.28647,0.72848 2.55509,-1.75825 0.71763,-1.40662 1.43039,-2.55747 1.58397,-2.55747 0.29321,0 0.12372,3.73408 -0.65509,14.43183 -0.61328,8.42431 -0.10176,11.58235 2.36009,14.56897 2.55612,3.10096 3.47758,2.74584 3.22727,-1.24371 z m 42.02819,-9.37532 c 0.026,-2.022 -0.20244,-3.67636 -0.50779,-3.67636 -0.85099,0 -1.28602,4.66202 -0.85028,9.1119 l 0.39123,3.99511 0.45972,-2.87715 c 0.25285,-1.58243 0.48105,-4.5315 0.50712,-6.5535 z m -162.87473,4.27785 c 3.30869,1.65059 3.56125,1.09792 0.6491,-1.42025 l -2.7513,-2.37902 1.0076,-2.41175 c 1.122,-2.68522 0.6306,-4.3968 -1.6059,-5.59376 -0.9375,-0.5017 -1.74,-0.46086 -3.0224,0.15381 -2.4822,1.18965 -2.3098,2.79158 0.2737,2.54477 1.1108,-0.1061 2.2084,0.11225 2.4389,0.48524 0.7455,1.20627 -0.3452,3.21333 -2.2939,4.22103 -2.0954,1.08355 -3.4992,3.49623 -2.9171,5.01325 0.3268,0.85166 0.749,0.8111 3.2988,-0.31678 2.7161,-1.20143 3.0663,-1.22253 4.9225,-0.29654 z m 125.18975,-0.1597 c -0.008,-0.93174 -0.0955,-0.94862 -0.62959,-0.12212 -0.80918,1.25212 -0.80918,2.09851 0,1.59842 0.35165,-0.21734 0.63496,-0.88167 0.62959,-1.4763 z m -0.71948,-7.47482 c 0,-1.27873 0,-1.27873 -0.54947,0 -0.30223,0.7033 -0.54948,1.85415 -0.54948,2.55747 0,1.27872 0,1.27872 0.54948,0 0.30223,-0.70332 0.54947,-1.85417 0.54947,-2.55747 z m 2.56405,-10.22985 c -0.0467,-7.04879 -0.20978,-8.91271 -0.61482,-7.03303 -0.65471,3.03847 -0.46967,18.41808 0.20882,17.35764 0.25836,-0.40377 0.44104,-5.04985 0.406,-10.32461 z m -15.90084,2.80168 c 0,-0.35165 -0.28771,-0.46155 -0.63936,-0.24423 -0.35165,0.21734 -0.63938,0.68287 -0.63938,1.03452 0,0.35165 0.28773,0.46155 0.63938,0.24421 0.35165,-0.21732 0.63936,-0.68285 0.63936,-1.0345 z m -80.84156,-6.16103 c -1.27522,-2.42681 -3.19504,-5.39703 -4.2663,-6.6005 -1.94322,-2.18313 -1.9422,-2.17792 0.44819,2.28745 3.29773,6.16027 5.40809,9.45414 5.80366,9.05853 0.18325,-0.18319 -0.71027,-2.31866 -1.98555,-4.74548 z m 107.69493,3.99871 c 1.02452,-0.58569 1.24055,-0.92187 0.60171,-0.9364 -0.5482,-0.0124 -1.55519,0.39977 -2.23778,0.91606 -1.58941,1.20216 -0.45593,1.21625 1.63607,0.0204 z m 27.49273,-4.65105 c 0,-1.70737 -1.59979,-0.35054 -1.77272,1.50353 -0.16629,1.78265 -0.12946,1.81158 0.7992,0.62769 0.53543,-0.6826 0.97352,-1.64165 0.97352,-2.13122 z m -165.95958,-1.13313 c 2.07846,-1.36187 2.71564,-3.7696 1.67163,-6.31669 -0.44313,-1.08085 -1.02123,-3.2175 -1.28493,-4.74811 -0.2637,-1.5306 -0.8802,-3.03669 -1.37,-3.34688 -1.3032,-0.82517 -5.3073,-0.70648 -6.1975,0.1837 -1.4611,1.46114 -0.7824,1.96611 2.1099,1.56968 1.5825,-0.21689 2.8772,-0.19981 2.8772,0.038 0,0.23776 -0.7567,1.22209 -1.6815,2.18737 -1.9486,2.03388 -1.663,3.74949 0.6242,3.74949 0.847,0 1.8883,0.41947 2.3138,0.93215 1.2238,1.47464 -1.8476,4.18278 -4.7439,4.18278 -2.493,0 -2.826,0.62834 -1.1966,2.2577 1.2712,1.27126 4.3577,0.96199 6.8777,-0.68917 z m 171.05836,-1.86875 c 1.16677,-1.40588 0.4953,-1.80878 -1.49963,-0.89982 -0.94496,0.43054 -1.68105,1.29076 -1.68105,1.96452 0,0.9639 0.2294,1.07584 1.17147,0.57166 0.64431,-0.34483 1.54846,-1.08119 2.00921,-1.63636 z m -23.35115,-2.20805 c 0.20064,-0.3246 1.22114,-0.77826 2.26777,-1.00814 1.99565,-0.43833 6.39411,-4.96559 6.39411,-6.58141 0,-0.97305 -0.0306,-0.97082 -7.41293,0.53864 -5.15035,1.05309 -6.83847,0.53128 -9.35674,-2.89228 -2.6464,-3.59767 -3.59343,-3.72531 -1.65302,-0.22279 0.89109,1.60839 2.68738,3.42646 4.51648,4.57114 3.19767,2.00113 4.02896,3.4198 1.59842,2.72768 -5.28922,-1.50615 -5.95377,-1.18158 -3.62994,1.7727 1.07024,1.3606 1.86235,1.68463 4.11816,1.68463 1.53614,0 2.95713,-0.26558 3.15769,-0.59017 z m 17.36472,-1.44345 c 0.27702,-0.44823 -0.16218,-1.1625 -1.08116,-1.75826 -0.85123,-0.55185 -2.25882,-1.7014 -3.12795,-2.55456 -2.20578,-2.1652 -0.60763,-2.47999 2.1012,-0.41387 2.76263,2.10715 3.88258,2.07321 5.47704,-0.166 2.19682,-3.08514 7.74838,-14.93565 7.74838,-16.53989 0,-0.8368 -0.84859,-3.16402 -1.88573,-5.17161 -1.03716,-2.00759 -2.19606,-4.48129 -2.57536,-5.49709 -0.98947,-2.64999 -1.57043,-1.56973 -0.65216,1.21267 1.79176,5.42909 -0.74812,11.92105 -7.39314,18.89686 -4.52389,4.7491 -4.82339,5.23553 -4.41013,7.16263 0.56842,2.65054 0.80809,3.02654 1.92915,3.02654 0.50672,0 0.92131,0.57543 0.92131,1.27874 0,1.42364 2.15575,1.80663 2.94855,0.52384 z m 7.69836,-3.88052 c 0.71575,-1.49451 2.08757,-4.07929 3.04849,-5.74393 0.96093,-1.66465 1.63654,-3.5348 1.50134,-4.15587 -0.16135,-0.74137 -1.04499,0.40807 -2.5725,3.34631 -1.27969,2.46156 -2.91547,5.3387 -3.63506,6.39365 -1.52607,2.23728 -1.63287,2.87715 -0.48019,2.87715 0.46012,0 1.42219,-1.22279 2.13792,-2.71731 z m -149.15811,-0.7992 c -0.38913,-1.01402 -1.50993,-1.33042 -1.50993,-0.42625 0,0.67614 0.69888,1.3853 1.36523,1.3853 0.28196,0 0.34712,-0.43158 0.1447,-0.95905 z m -6.61373,-11.63612 c -3.43027,-6.44665 -6.30396,-10.73597 -6.83617,-10.20373 -0.41297,0.41292 1.17771,3.43263 5.70921,10.83835 2.10723,3.44375 3.97302,6.11966 4.14623,5.94645 0.17321,-0.17322 -1.18544,-3.13469 -3.01927,-6.58107 z m -22.88405,-3.50226 c 0.1908,-0.57222 1.1847,-0.55446 4.1467,0.0742 4.01601,0.85226 6.76598,0.6471 4.34048,-0.32381 -0.7033,-0.28151 -1.65468,-1.0343 -2.11418,-1.67284 -0.4595,-0.63855 -1.2337,-1.16101 -1.7205,-1.16101 -1.9099,0 -1.6738,-1.52122 0.5526,-3.56087 2.72398,-2.49556 2.78907,-2.82975 0.8845,-4.54416 -2.1509,-1.93602 -3.5539,-2.22104 -5.635,-1.14482 -3.1757,1.64218 -2.3496,2.85077 1.062,1.55371 3.2468,-1.23443 3.2765,0.35648 0.071,3.78386 -2.9189,3.12053 -4.1672,5.75427 -3.3523,7.07278 0.5547,0.89761 1.4534,0.85844 1.7651,-0.0769 z m 136.68005,-3.75032 c -0.88801,-0.57842 -3.73472,-0.28951 -4.47428,0.45409 -0.17652,0.17752 0.37602,0.88776 1.22784,1.57832 1.54235,1.25042 1.55424,1.25011 2.87715,-0.0761 1.14613,-1.14901 1.19683,-1.41734 0.36929,-1.95633 z m -5.05751,-2.4228 c -0.34481,-0.64432 -1.07426,-1.54269 -1.62092,-1.99639 -0.84038,-0.69748 -0.99396,-0.63502 -0.99396,0.40425 0,1.42483 1.15687,2.76361 2.38817,2.76361 0.62945,0 0.68903,-0.30763 0.22671,-1.17147 z m -117.4994,-3.90193 c -0.98987,-1.38375 -1.89426,-2.25109 -2.00979,-1.92741 -0.27474,0.76992 2.34775,4.44334 3.17215,4.44334 0.35057,0 -0.17257,-1.13216 -1.16236,-2.51593 z m 131.50804,-0.68089 c 1.86272,-1.82087 3.72328,-2.64778 2.87714,-1.27874 -0.50145,0.81142 0.0766,0.81447 1.58275,0.008 0.75675,-0.40499 1.06148,-1.08059 0.85081,-1.88621 -0.18548,-0.7092 0.25684,-2.07688 1.01672,-3.14406 2.245,-3.1528 1.29139,-3.73004 -1.66599,-1.00845 -0.98137,0.90312 -3.15963,2.48475 -4.84065,3.51472 -3.19024,1.95473 -4.04475,3.14038 -3.42578,4.75342 0.54281,1.41458 1.41383,1.18287 3.605,-0.95904 z m 2.55746,-3.83619 c 0,-0.35165 0.30473,-0.63937 0.67709,-0.63937 0.37243,0 0.49928,0.28772 0.28197,0.63937 -0.21733,0.35165 -0.52205,0.63936 -0.67709,0.63936 -0.15512,0 -0.28197,-0.28771 -0.28197,-0.63936 z m 33.32508,3.40462 c -0.75371,-1.29613 -0.93572,-0.88128 -0.31875,0.72653 0.21927,0.57142 0.53336,0.90423 0.69798,0.73962 0.16461,-0.16461 -0.006,-0.82439 -0.37923,-1.46615 z m -42.55822,-1.2088 c 1.18365,-0.95466 1.15232,-0.98694 -0.67684,-0.6975 -2.10799,0.33356 -6.07417,-1.04097 -6.07417,-2.10506 0,-0.36959 0.76941,-0.672 1.70986,-0.672 h 1.70986 l -1.49925,-1.59589 c -2.00818,-2.13762 -1.28916,-2.60937 2.6065,-1.71013 4.23439,0.9774 5.02343,0.91915 3.46824,-0.25607 -1.09427,-0.82691 -1.13973,-1.04987 -0.31968,-1.5683 0.52575,-0.33237 1.45941,-0.60872 2.07481,-0.61411 1.8445,-0.0162 1.27029,-0.85482 -2.08946,-3.05169 -1.75192,-1.14558 -3.18532,-2.3348 -3.18532,-2.64274 0,-0.30793 -0.57926,-0.71137 -1.2873,-0.89651 -1.80818,-0.47285 -3.44023,-4.54074 -2.51519,-6.26917 0.64447,-1.20419 0.59032,-1.25249 -0.65638,-0.58531 -0.74729,0.39996 -1.67456,1.42027 -2.06055,2.26735 -0.97446,2.1387 0.92945,7.00483 3.81657,9.75491 l 2.20799,2.10315 -4.13299,-0.42343 c -3.90896,-0.40049 -4.15333,-0.346 -4.50657,1.00495 -0.30128,1.15209 -0.01,1.56543 1.50328,2.13681 2.77944,1.04913 2.27632,1.92909 -0.84045,1.47 l -2.71731,-0.40022 1.50941,1.27755 c 0.83016,0.70268 2.05295,1.27759 2.71731,1.27759 1.43685,0 1.61127,1.16406 0.25248,1.68548 -1.9755,0.75808 -0.10742,1.51134 3.7481,1.51134 2.67165,0 4.40721,-0.33174 5.23705,-1.001 z m -16.98086,-6.31397 c 0,-0.50673 -0.25761,-1.0805 -0.57236,-1.27506 -0.65816,-0.40678 -1.45181,1.23784 -0.87542,1.81418 0.68604,0.68606 1.44778,0.4024 1.44778,-0.53912 z m 28.49072,-1.6991 c 0.1959,-0.31703 0.18107,-0.57642 -0.0333,-0.57642 -0.5833,0 -4.16189,1.90968 -4.16189,2.22094 0,0.4616 3.81829,-1.03533 4.19482,-1.64452 z m -3.03641,-1.38296 c 0.29807,-1.54753 -0.96288,-1.39285 -1.82834,0.22428 -0.61225,1.14403 -0.54767,1.30362 0.44967,1.11155 0.64059,-0.12336 1.26096,-0.72448 1.37867,-1.33583 z m -19.70002,-2.95136 c 0,-0.30859 -0.43157,-0.91925 -0.95905,-1.35702 -0.77779,-0.64552 -0.95904,-0.62003 -0.95904,0.13483 0,0.51193 0.1918,1.12259 0.42626,1.35702 0.60715,0.6072 1.49183,0.52724 1.49183,-0.13483 z m -3.47111,-2.29558 c 1.4915,-2.27639 0.84453,-3.45624 -0.88016,-1.60501 -1.46101,1.56821 -1.85589,3.18293 -0.77842,3.18293 0.34359,0 1.08993,-0.71007 1.65858,-1.57792 z m 22.14245,0.9828 c 0.80778,-0.3273 2.25971,-0.76432 3.22657,-0.97113 1.11984,-0.23953 2.33131,-1.28449 3.33793,-2.87906 2.03658,-3.2261 4.11566,-5.14518 5.57431,-5.14518 0.63694,0 1.15814,-0.1149 1.15814,-0.25543 0,-0.24759 -3.46031,-5.67176 -5.41158,-8.48282 -0.52895,-0.76205 -1.85794,-1.58236 -2.95324,-1.82293 -1.35757,-0.29818 -1.78319,-0.6456 -1.3373,-1.09152 0.4459,-0.44591 1.29012,-0.43241 2.65217,0.0424 2.14506,0.74779 5.97628,0.31138 5.40347,-0.61549 -0.19092,-0.30884 -2.3053,-0.56153 -4.6987,-0.56153 -3.43929,0 -4.70605,-0.2788 -6.04233,-1.32992 -0.9299,-0.73147 -1.53084,-1.58866 -1.33538,-1.90489 0.78296,-1.2669 -3.00425,-6.35568 -4.7301,-6.35568 -0.6712,0 -0.40798,0.58376 0.86002,1.90722 1.71158,1.7865 1.78996,2.0971 1.23851,4.90746 -0.89518,4.56195 -2.323,4.47628 -1.78434,-0.10706 0.32653,-2.77822 0.21623,-3.77078 -0.46719,-4.20347 -2.04194,-1.29288 -8.20095,-0.14459 -7.27349,1.35606 0.40178,0.65004 -0.25351,1.5631 -3.21166,4.47539 -2.06049,2.02851 -1.69713,2.30793 1.53563,1.18097 2.49065,-0.86823 2.97318,-0.5034 1.92801,1.45774 -0.75178,1.41059 -0.72805,1.44188 0.42774,0.56462 0.67293,-0.51079 1.91029,-1.51779 2.74971,-2.23778 l 1.5261,-1.30906 -0.30177,1.67032 c -0.20921,1.15809 0.0581,1.89503 0.87152,2.40304 1.42879,0.89232 1.48121,2.10793 0.19774,4.58982 -1.08199,2.09239 -0.75336,2.2811 1.61485,0.9273 2.35914,-1.34858 2.76002,-1.17258 2.3216,1.01935 l -0.39563,1.9784 2.07398,-1.3731 c 4.22805,-2.79916 6.09455,-3.47898 7.64605,-2.78492 1.38831,0.62106 1.30193,0.73487 -1.73582,2.28735 -2.06771,1.05672 -4.06228,2.80248 -5.64707,4.94267 -1.34766,1.81989 -2.32698,3.43219 -2.17628,3.58292 0.1507,0.15071 1.39721,-0.62086 2.76993,-1.7146 6.86806,-5.4721 8.03715,-4.19142 2.01023,2.20203 -4.06311,4.31017 -4.24168,4.71191 -1.62233,3.65052 z m -5.88402,-6.11822 c 1.93926,-2.06426 0.6184,-2.07975 -1.72258,-0.0203 -1.27055,1.11775 -1.50002,1.58411 -0.78648,1.59842 0.55407,0.0109 1.68313,-0.69908 2.50906,-1.57821 z m -9.27081,-20.14003 c 0.21733,-0.35165 0.10743,-0.63936 -0.24424,-0.63936 -0.35165,0 -0.81716,0.28771 -1.03449,0.63936 -0.21732,0.35165 -0.10743,0.63937 0.24424,0.63937 0.35165,0 0.81718,-0.28772 1.03449,-0.63937 z m 1.51434,-3.83619 c 1.76676,0 3.28091,-0.6586 3.28091,-1.42706 0,-0.82413 -3.2107,-0.2085 -6.125,1.17445 -1.20271,0.57071 -2.18676,1.29999 -2.18676,1.6206 0,0.32062 0.84883,0.14399 1.88632,-0.39252 1.0375,-0.53652 2.45254,-0.97547 3.14453,-0.97547 z m 28.60427,62.92525 c -0.57862,-1.50779 -0.54161,-1.54613 1.49229,-1.54613 1.03418,0 2.05817,-0.28771 2.2755,-0.63936 0.23669,-0.38295 -0.58153,-0.64329 -2.04022,-0.64915 -1.33941,-0.005 -2.83187,-0.26094 -3.31645,-0.56788 -1.23008,-0.77911 -0.30792,-1.9798 1.52047,-1.9798 0.83764,0 1.70078,-0.28772 1.9181,-0.63937 0.48157,-0.7792 4.78217,-0.83064 5.98016,-0.0715 1.1577,0.73361 0.20847,2.47384 -2.78114,5.09876 -2.4951,2.19073 -4.44245,2.57429 -5.04871,0.99444 z m 2.59562,-9.00539 c -1.47091,-1.47092 2.21272,-4.012 4.51736,-3.11621 1.00404,0.39026 0.92987,0.61277 -0.66354,1.9909 -1.7977,1.55484 -3.05668,1.92245 -3.85382,1.12531 z m -15.2915,-0.63657 c 0.43956,-0.17735 1.15885,-0.17735 1.59842,0 0.43955,0.17738 0.0799,0.3225 -0.79922,0.3225 -0.87912,0 -1.23877,-0.14512 -0.7992,-0.3225 z m 16.47183,-21.94115 c -0.55925,-0.90489 0.74234,-3.04392 2.58819,-4.25335 1.48381,-0.97225 1.67829,-0.96549 2.85465,0.0991 1.68112,1.5214 1.59944,2.85756 -0.17623,2.88266 -0.79122,0.0109 -1.99706,0.44275 -2.67966,0.95905 -1.45358,1.09942 -2.05568,1.17217 -2.58695,0.31255 z" id="path11936" inkscape:connector-curvature="0" style="fill:#003c30;fill-opacity:1"/>
</g></g>
<rect height="17.763229" id="rect5818-6-6-9-3-0" style="fill:#00c8a6;fill-opacity:1;stroke:none;stroke-width:0.91443771;stroke-linecap:round;stroke-linejoin:bevel;stroke-miterlimit:4;stroke-dasharray:none;stroke-dashoffset:0;stroke-opacity:1" width="278.215" x="221.82033" y="560.66272"/>
<text id="fam_num" inkscape:label="#text5665-3-4-9-4-3-3-5-7-5-8-4-6-8-6-6-3-0-6-3" sodipodi:linespacing="0%" style="font-style:normal;font-weight:normal;line-height:0%;font-family:sans-serif;letter-spacing:0px;word-spacing:0px;fill:#000000;fill-opacity:1;stroke:none" x="232.24257" xml:space="preserve" y="578.73279"><tspan id="tspan5667-04-4-6-18-8-8-0-0-1-5-7-0-9-2-1-9-1-5-0" sodipodi:role="line" style="font-style:normal;font-variant:normal;font-weight:bold;font-stretch:normal;font-size:17.5px;line-height:1.25;font-family:STIX;-inkscape-font-specification:'STIX Bold';fill:#ffffff" x="232.24257" y="578.73279">3</tspan></text>
<rect height="15" id="ssfam_1_active" inkscape:label="#rect13148-3-0-9-3-80-7-7-3-3" style="fill:#ffffff;fill-opacity:1;stroke:none;stroke-width:5.83799982;stroke-linecap:round;stroke-linejoin:bevel;stroke-miterlimit:4;stroke-dasharray:none;stroke-dashoffset:0;stroke-opacity:1;display:none;" transform="matrix(0,1,-1,0,0,0)" width="124.30313" x="431.19528" y="-510.96991"/>
<rect height="15" id="ssfam_2_active" inkscape:label="#rect13148-3-0-9-3-80-7-7-3-3" style="fill:#ffffff;fill-opacity:1;stroke:none;stroke-width:5.83799982;stroke-linecap:round;stroke-linejoin:bevel;stroke-miterlimit:4;stroke-dasharray:none;stroke-dashoffset:0;stroke-opacity:1" transform="matrix(0,1,-1,0,0,0)" width="124.30313" x="270.72" y="-510.96991"/>
<rect height="15" id="ssfam_3_active" inkscape:label="#rect13148-3-0-9-3-80-7-7-3-3" style="fill:#ffffff;fill-opacity:1;stroke:none;stroke-width:5.83799982;stroke-linecap:round;stroke-linejoin:bevel;stroke-miterlimit:4;stroke-dasharray:none;stroke-dashoffset:0;stroke-opacity:1;display:none;" transform="matrix(0,1,-1,0,0,0)" width="124.30313" x="109.94095" y="-510.96991"/>
<text id="sfam_2" inkscape:label="#text4212-1-29-1-2-8-9-0-9-6-9-15-4-9-9-24-4-6-7-5-4-2-6-9" sodipodi:linespacing="0%" style="font-style:normal;font-variant:normal;font-weight:bold;font-stretch:normal;font-size:11.25px;line-height:0%;font-family:stix;-inkscape-font-specification:'stix, bold';text-align:center;letter-spacing:0px;word-spacing:0px;writing-mode:lr-tb;text-anchor:middle;fill:#FFFFFF;fill-opacity:1;stroke:none" transform="matrix(0,-1,1,0,0,0)" x="-333.20343" xml:space="preserve" y="222.81581"><tspan id="tspan4214-27-1-2-9-7-6-4-1-1-1-9-8-7-7-0-88-0-1-6-8-0-3-2" sodipodi:role="line" style="font-style:normal;font-variant:normal;font-weight:bold;font-stretch:normal;font-size:11.25px;line-height:0%;font-family:stix;-inkscape-font-specification:'stix, bold';text-align:center;letter-spacing:0px;word-spacing:0px;writing-mode:lr-tb;text-anchor:middle;fill:#FFFFFF;fill-opacity:1;stroke:none" x="-333.20343" y="222.81581">Mauvaise interprétation</tspan></text>
<text id="ssfam_3" inkscape:label="#text4212-1-29-1-2-8-9-0-9-6-9-8-3-1-0-6-92-3-6-9-3-6-2-3-39-8-5" sodipodi:linespacing="0%" style="font-style:normal;font-variant:normal;font-weight:bold;font-stretch:normal;font-size:12px;line-height:0%;font-family:stix;-inkscape-font-specification:'stix, bold';text-align:start;letter-spacing:0px;word-spacing:0px;writing-mode:lr-tb;text-anchor:start;fill:#FFFFFF;fill-opacity:1;stroke:none" transform="matrix(0,1,-1,0,0,0)" x="112.96895" xml:space="preserve" y="-499.04208"><rect height="23.57143" id="rect13148-3-36-1-5-8-4" rx="12.181818" ry="9.7777777" style="fill:#ffffff;fill-opacity:1;stroke:none;stroke-width:5.83799982;stroke-linecap:round;stroke-linejoin:bevel;stroke-miterlimit:4;stroke-dasharray:none;stroke-dashoffset:0;stroke-opacity:1" width="143.57144" x="289.14221" y="83.512375"/><tspan id="tspan4214-27-1-2-9-7-6-4-1-1-1-3-9-59-96-1-318-6-04-1-7-5-8-9-0-1-9" sodipodi:role="line" style="font-style:normal;font-variant:normal;font-weight:bold;font-stretch:normal;font-size:12px;line-height:0%;font-family:stix;-inkscape-font-specification:'stix, bold';text-align:start;letter-spacing:0px;word-spacing:0px;writing-mode:lr-tb;text-anchor:start;fill:#FFFFFF;fill-opacity:1;stroke:none" x="112.96895" y="-499.04208">Opération inappropriée</tspan></text>
<rect height="26.428572" id="rect13148-3-3-2-4-1-4-5" rx="8.4705887" ry="15" style="fill:#ffffff;fill-opacity:1;stroke:none;stroke-width:5.83799982;stroke-linecap:round;stroke-linejoin:bevel;stroke-miterlimit:4;stroke-dasharray:none;stroke-dashoffset:0;stroke-opacity:1" width="68.571434" x="326.64218" y="559.49841"/>
<text id="ssfam_2" inkscape:label="#text4212-1-29-1-2-8-9-0-9-6-9-15-7-7-8-9-7-6-1-0-8-29-4" sodipodi:linespacing="0%" style="font-style:normal;font-variant:normal;font-weight:bold;font-stretch:normal;font-size:11.25px;line-height:0%;font-family:stix;-inkscape-font-specification:'stix, bold';text-align:center;letter-spacing:0px;word-spacing:0px;writing-mode:lr-tb;text-anchor:middle;fill:#021c18;fill-opacity:1;stroke:none" transform="matrix(0,1,-1,0,0,0)" x="332.53967" xml:space="preserve" y="-500.14215"><tspan id="tspan4214-27-1-2-9-7-6-4-1-1-1-9-41-5-8-6-2-8-2-8-38-3-6" sodipodi:role="line" style="font-style:normal;font-variant:normal;font-weight:bold;font-stretch:normal;font-size:11.25px;line-height:0%;font-family:stix;-inkscape-font-specification:'stix, bold';text-align:center;letter-spacing:0px;word-spacing:0px;writing-mode:lr-tb;text-anchor:middle;fill:#021c18;fill-opacity:1;stroke:none" x="332.53967" y="-500.14215">Erreur de calcul</tspan></text>
<text id="ssfam_1" inkscape:label="#text4212-1-29-1-2-8-9-0-9-6-9-17-63-3-97-3-6-4-4-8-73-9-92" sodipodi:linespacing="0%" style="font-style:normal;font-variant:normal;font-weight:bold;font-stretch:normal;font-size:11.25px;line-height:0%;font-family:stix;-inkscape-font-specification:'stix, bold';text-align:end;letter-spacing:0px;word-spacing:0px;writing-mode:lr-tb;text-anchor:end;fill:#FFFFFF;fill-opacity:1;stroke:none" transform="matrix(0,1,-1,0,0,0)" x="552.16217" xml:space="preserve" y="-498.74182"><tspan id="tspan4214-27-1-2-9-7-6-4-1-1-1-85-85-5-76-3-4-8-7-5-1-0-2" sodipodi:role="line" style="font-style:normal;font-variant:normal;font-weight:bold;font-stretch:normal;font-size:11.25px;line-height:0%;font-family:stix;-inkscape-font-specification:'stix, bold';text-align:end;letter-spacing:0px;word-spacing:0px;writing-mode:lr-tb;text-anchor:end;fill:#FFFFFF;fill-opacity:1;stroke:none" x="552.16217" y="-498.74182">Imprécision</tspan></text>
<rect height="26.428572" id="rect13148-3-3-2-4-1-4-5-3" rx="9.6044884" ry="15" style="fill:#ffffff;fill-opacity:1;stroke:none;stroke-width:5.83799982;stroke-linecap:round;stroke-linejoin:bevel;stroke-miterlimit:4;stroke-dasharray:none;stroke-dashoffset:0;stroke-opacity:1" width="77.750618" x="322.05258" y="83.512375"/>
<text id="text" inkscape:label="#text5516-78-3-4-89-9-1-3-6-2-4-3-9-5-3-7-7-2-6-1-6-5-0-5-7" sodipodi:linespacing="0%" style="font-style:normal;font-variant:normal;font-weight:bold;font-stretch:normal;line-height:0%;font-family:stix;-inkscape-font-specification:'stix bold';text-align:end;letter-spacing:0px;word-spacing:0px;text-anchor:end;fill:#054b3e;fill-opacity:1;stroke:none" x="360.1904" xml:space="preserve" y="103.33736"><tspan id="tspan7135" sodipodi:role="line" style="font-style:normal;font-variant:normal;font-weight:bold;font-stretch:normal;font-size:25px;line-height:100%;font-family:STIX;-inkscape-font-specification:'STIX Bold';text-align:center;text-anchor:middle;fill:#490f07;fill-opacity:1" x="360.1904" y="103.33736">Erreur de calcul</tspan><tspan id="tspan5338" sodipodi:role="line" style="font-style:normal;font-variant:normal;font-weight:bold;font-stretch:normal;font-size:25px;line-height:100%;font-family:STIX;-inkscape-font-specification:'STIX Bold';text-align:center;text-anchor:middle;fill:#490f07;fill-opacity:1" x="360.1904" y="128.33736"/></text>
<text id="sfam_1" inkscape:label="#text4212-1-29-1-2-8-9-0-9-6-9-17-4-1-5-6-8-7-5-1-12-0-9-54" sodipodi:linespacing="0%" style="font-style:normal;font-variant:normal;font-weight:bold;font-stretch:normal;font-size:11.25px;line-height:0%;font-family:stix;-inkscape-font-specification:'stix, bold';text-align:start;letter-spacing:0px;word-spacing:0px;writing-mode:lr-tb;text-anchor:start;fill:#FFFFFF;fill-opacity:1;stroke:none" transform="matrix(0,-1,1,0,0,0)" x="-552.40967" xml:space="preserve" y="222.81581"><tspan id="tspan4214-27-1-2-9-7-6-4-1-1-1-85-8-3-3-2-9-0-8-7-9-6-4-0" sodipodi:role="line" style="font-style:normal;font-variant:normal;font-weight:bold;font-stretch:normal;font-size:11.25px;line-height:0%;font-family:stix;-inkscape-font-specification:'stix, bold';text-align:start;letter-spacing:0px;word-spacing:0px;writing-mode:lr-tb;text-anchor:start;fill:#FFFFFF;fill-opacity:1;stroke:none" x="-552.40967" y="222.81581">Généralisation abusive</tspan></text>
<text id="text4212-1-29-1-2-8-9-0-9-67-9-6-3-5-23-0-1-7-3-2-3-4-7-8-8-8-4" sodipodi:linespacing="0%" style="font-style:normal;font-variant:normal;font-weight:bold;font-stretch:normal;font-size:15px;line-height:0%;font-family:STIX;-inkscape-font-specification:'STIX, Bold';text-align:center;letter-spacing:0px;word-spacing:0px;writing-mode:lr-tb;text-anchor:middle;fill:#1b0603;fill-opacity:1;stroke:none" x="360.3353" xml:space="preserve" y="578.3678"><tspan id="tspan3846" sodipodi:role="line" style="font-style:normal;font-variant:normal;font-weight:bold;font-stretch:normal;font-size:15px;line-height:1.25;font-family:STIX;-inkscape-font-specification:'STIX, Bold';text-align:center;writing-mode:lr-tb;text-anchor:middle;fill:#1b0603;fill-opacity:1" x="360.3353" y="578.3678">Erreur mathématique</tspan></text>
<flowRoot id="desc" inkscape:label="#flowRoot5388-1-9-2-7-9-4-63-8-65-6-8-7-2-3-5-4-9-17-61-1" style="font-style:normal;font-variant:normal;font-weight:bold;font-stretch:normal;line-height:0.01%;font-family:STIX;-inkscape-font-specification:'STIX Bold';text-align:center;letter-spacing:0px;word-spacing:0px;text-anchor:middle;fill:#1b0603;fill-opacity:1;stroke:none" transform="translate(351.61591,998.0622)" xml:space="preserve"><flowRegion id="flowRegion5390-2-2-5-6-3-9-94-3-6-8-8-5-1-8-5-4-6-9-15-2"><rect height="77.283951" id="rect5392-7-0-4-8-6-2-8-5-84-3-3-4-2-2-3-3-0-1-9-8" style="font-style:normal;font-variant:normal;font-weight:bold;font-stretch:normal;font-size:15px;line-height:100%;font-family:stix;-inkscape-font-specification:'stix bold';text-align:center;text-anchor:middle;fill:#00c8a6;fill-opacity:1" width="264.06375" x="-123.22692" y="-557.27393"/></flowRegion><flowPara id="flowPara5394-0-2-4-9-0-06-12-6-8-2-1-8-0-3-8-0-7-0-8-9" style="font-style:normal;font-variant:normal;font-weight:bold;font-stretch:normal;font-size:15px;line-height:100%;font-family:STIX;-inkscape-font-specification:'STIX Bold';text-align:center;text-anchor:middle;fill:#1b0603;fill-opacity:1">Vos conclusions reposent sur une faute d'arithmétique.</flowPara></flowRoot> <flowRoot id="example" inkscape:label="#flowRoot5388-1-9-2-7-9-4-63-8-92-2-3-8-9-5-4-5-19-0-3-48-36" style="font-style:normal;font-variant:normal;font-weight:bold;font-stretch:normal;line-height:0.01%;font-family:STIX;-inkscape-font-specification:'STIX Bold';text-align:center;letter-spacing:0px;word-spacing:0px;text-anchor:middle;fill:#1b0603;fill-opacity:1;stroke:none" transform="translate(226.9528,539.72829)" xml:space="preserve"><flowRegion id="flowRegion5390-2-2-5-6-3-9-94-3-17-8-6-9-1-6-0-9-6-1-59-1-8"><rect height="49.597897" id="rect5392-7-0-4-8-6-2-8-5-7-1-2-6-5-5-9-91-21-0-4-0-0" style="font-style:normal;font-variant:normal;font-weight:bold;font-stretch:normal;font-size:15px;line-height:100%;font-family:stix;-inkscape-font-specification:'stix bold';text-align:center;text-anchor:middle;fill:#00c8a6;fill-opacity:1;stroke-width:0.58746815" width="267.68024" x="0" y="0"/></flowRegion><flowPara id="flowPara5394-0-2-4-9-0-06-12-6-9-2-2-4-4-0-4-4-2-1-8-30-2" style="font-style:italic;font-variant:normal;font-weight:bold;font-stretch:normal;font-size:12.5px;line-height:100%;font-family:STIX;-inkscape-font-specification:'STIX Bold Italic';text-align:center;text-anchor:middle;fill:#1b0603;fill-opacity:1">Sachant qu'un croissant coûte un euro et cinquante centimes, avec dix euros tu peux largement en acheter huit.</flowPara></flowRoot> </g>
</svg>