<?xml version="1.0" encoding="utf-8"?>
<!-- Created with Inkscape (http://www.inkscape.org/) --><svg height="152.42821mm" id="svg6779" inkscape:version="0.91 r13725" sodipodi:docname="niveau3.svg" version="1.1" viewBox="0 0 338.49999 540.09995" width="95.532219mm" xmlns="http://www.w3.org/2000/svg" xmlns:cc="http://creativecommons.org/ns#" xmlns:dc="http://purl.org/dc/elements/1.1/" xmlns:inkscape="http://www.inkscape.org/namespaces/inkscape" xmlns:rdf="http://www.w3.org/1999/02/22-rdf-syntax-ns#" xmlns:sodipodi="http://sodipodi.sourceforge.net/DTD/sodipodi-0.dtd" xmlns:svg="http://www.w3.org/2000/svg">
<defs id="defs6781"/>
<sodipodi:namedview bordercolor="#666666" borderopacity="1.0" id="base" inkscape:current-layer="layer1" inkscape:cx="125.29509" inkscape:cy="354.10234" inkscape:document-units="px" inkscape:pageopacity="0.0" inkscape:pageshadow="2" inkscape:window-height="876" inkscape:window-maximized="1" inkscape:window-width="1535" inkscape:window-x="65" inkscape:window-y="24" inkscape:zoom="0.87153704" pagecolor="#ffffff" showgrid="false"/>
<metadata id="metadata6784">
<rdf:RDF>
<cc:Work rdf:about="">
<dc:format>image/svg+xml</dc:format>
<dc:type rdf:resource="http://purl.org/dc/dcmitype/StillImage"/>
<dc:title/>
</cc:Work>
</rdf:RDF>
</metadata>
<g id="layer1" inkscape:groupmode="layer" inkscape:label="Calque 1" transform="translate(-190.75,-64.669357)">
<rect height="539.09998" id="rect4326-0-3-6-4-3-2-61-6-9-9-5-0-7-0-5-8-8-9-4" inkscape:export-xdpi="90" inkscape:export-ydpi="90" style="fill:#ffffff;fill-opacity:1;stroke:none;stroke-opacity:1" width="337.5" x="191.25" y="65.169357"/>
<rect height="486.97104" id="rect2985-3-0-7-7-6-9-6-2-0-3-5-4-5-0-77-3-1-3-5-5-4-3-9-7-0-1-8" inkscape:export-filename="/home/thomas/Documents/fallacies/png/rect2985-3-0-7-7.png" inkscape:export-xdpi="90" inkscape:export-ydpi="90" rx="9.2935619" ry="7.1613393" style="fill:#ffffff;fill-opacity:1;stroke:#00c8a6;stroke-width:12;stroke-miterlimit:4;stroke-dasharray:none;stroke-dashoffset:0;stroke-opacity:1" width="285.0025" x="218.42665" y="91.512375"/>
<ellipse cx="360.92792" cy="342.49432" id="oval" rx="110.77639" ry="179.61261" style="fill:#a4ece0;fill-opacity:1;stroke:none;stroke-width:3;stroke-miterlimit:4;stroke-dasharray:none;stroke-opacity:1"/>
<path d="m 494.6209,100.0677 0,85 c -13.2539,-39.4762 -29.5079,-65.4525 -72,-85 z" id="path9668-2-1-0-7-4-7" inkscape:connector-curvature="0" sodipodi:nodetypes="cccc" style="fill:#00c8a6;fill-opacity:1;fill-rule:evenodd;stroke:none;stroke-width:1px;stroke-linecap:butt;stroke-linejoin:miter;stroke-opacity:1"/>
<rect height="15" id="sfam_1_active" inkscape:label="#rect13148-3-0-9-3-80-7-76" style="fill:#ffffff;fill-opacity:1;stroke:none;stroke-width:5.83799982;stroke-linecap:round;stroke-linejoin:bevel;stroke-miterlimit:4;stroke-dasharray:none;stroke-dashoffset:0;stroke-opacity:1;display:none;" transform="matrix(0,1,-1,0,0,0)" width="65.714287" x="489.78412" y="-225.57094"/>
<rect height="15" id="sfam_2_active" inkscape:label="#rect13148-3-0-9-3-80-7-76" style="fill:#ffffff;fill-opacity:1;stroke:none;stroke-width:5.83799982;stroke-linecap:round;stroke-linejoin:bevel;stroke-miterlimit:4;stroke-dasharray:none;stroke-dashoffset:0;stroke-opacity:1;display:none;" transform="matrix(0,1,-1,0,0,0)" width="65.714287" x="300.0144" y="-225.57094"/>
<rect height="15" id="sfam_3_active" inkscape:label="#rect13148-3-0-9-3-80-7-76" style="fill:#ffffff;fill-opacity:1;stroke:none;stroke-width:5.83799982;stroke-linecap:round;stroke-linejoin:bevel;stroke-miterlimit:4;stroke-dasharray:none;stroke-dashoffset:0;stroke-opacity:1" transform="matrix(0,1,-1,0,0,0)" width="65.714287" x="109.94095" y="-225.57094"/>
<text id="sfam_3" inkscape:label="#text4212-1-29-1-2-8-9-0-9-6-9-8-3-1-0-6-8-0-4-2-3-6-9-3-6-2-6-4" sodipodi:linespacing="0%" style="font-style:normal;font-variant:normal;font-weight:bold;font-stretch:normal;font-size:11.25px;line-height:0%;font-family:stix;-inkscape-font-specification:'stix, bold';text-align:end;letter-spacing:0px;word-spacing:0px;writing-mode:lr-tb;text-anchor:end;fill:#021c18;fill-opacity:1;stroke:none" transform="matrix(0,-1,1,0,0,0)" x="-113.58095" xml:space="preserve" y="222.6371"><tspan id="tspan4214-27-1-2-9-7-6-4-1-1-1-3-9-59-96-1-6-2-1-8-8-2-7-4-5-4-7-3" sodipodi:role="line" style="font-style:normal;font-variant:normal;font-weight:bold;font-stretch:normal;font-size:11.25px;line-height:0%;font-family:stix;-inkscape-font-specification:'stix, bold';text-align:end;letter-spacing:0px;word-spacing:0px;writing-mode:lr-tb;text-anchor:end;fill:#021c18;fill-opacity:1;stroke:none" x="-113.58095" y="222.6371">Résultat invalide</tspan></text>
<g id="illustration" inkscape:groupmode="layer" inkscape:label="#illustration" transform="translate(186.60659,-39.771006)"><g id="548" inkscape:label="#g12260" transform="translate(1467.0929,-73.895844)">
<path d="m -1402.0917,488.69708 c 19.5973,-16.78477 45.4672,-26.56065 60.3033,-48.58235 2.2882,-8.91145 -17.5141,-7.90163 -9.0005,-18.74466 6.4492,-13.00437 7.2205,-28.4226 -6.1865,-36.84857 -5.9261,-11.2163 -13.7398,-24.72445 -9.7421,-37.65484 6.0776,-10.4134 22.0093,-15.95455 12.3105,-30.31087 -11.4242,-17.88697 8.4256,-30.50181 22.718,-36.85286 21.9856,-10.94708 47.1142,-12.89803 71.2162,-10.86709 12.4366,-2.38673 25.0974,-0.14046 34.9837,8.01831 10.7632,6.95866 21.1877,16.82788 23.2573,30.07784 -9.6253,16.76185 5.5157,33.4444 11.6004,45.47577 -3.8577,17.497 -13.858,34.64759 -9.8548,53.06884 0.5066,15.92612 -20.7449,32.40003 -6.8333,47.08866 14.0876,14.78138 38.4007,17.7767 48.1851,36.8266 2.5371,12.7426 1.2765,25.95059 1.4325,38.8982 1.7975,13.81604 -11.5604,20.59694 -23.5214,19.65493 -15.9573,-0.11246 -31.81,-3.78595 -47.7899,-1.51116 -26.433,1.87553 -52.8377,-0.92682 -79.2786,-0.0447 -19.0925,0.0635 -38.1805,-2.3019 -56.5592,-7.42309 -14.5831,-2.02107 -40.6345,3.40478 -42.9383,-17.08714 1.0338,-9.51315 -2.8288,-28.25081 5.6976,-33.18182 z" id="path12254" inkscape:connector-curvature="0" style="fill:#ffffff;fill-rule:evenodd;stroke:none;stroke-width:1px;stroke-linecap:butt;stroke-linejoin:miter;stroke-opacity:1"/>
<g id="layer1-9" style="fill:#003c30;fill-opacity:1" transform="matrix(1.2082362,0,0,1.2082362,-1750.2188,-221.64275)">
<path d="m 450.95,638.97 c -0.30892,-0.49985 -1.4104,-0.68686 -2.4478,-0.41558 -3.3503,0.87613 -3.2079,-1.402 0.38169,-6.1046 3.716,-4.8683 4.0464,-5.5764 2.6015,-5.5764 -0.49774,0 -2.0752,1.9969 -3.5055,4.4375 -2.1541,3.6756 -3.0717,4.4053 -5.345,4.25 -3.7807,-0.25831 -4.4384,-1.6255 -2.1694,-4.51 4.6934,-5.9667 0.54393,-5.6076 -4.4665,0.38652 -2.0983,2.5102 -4.8767,4.9677 -6.1744,5.461 -2.304,0.87597 -7.8386,-0.3087 -9.8258,-2.1032 -1.1685,-1.0552 4.2025,-9.3652 9.2088,-14.248 3.5119,-3.4251 3.8056,-4.0792 2.8029,-6.2422 -0.61602,-1.3289 -1.4575,-2.4197 -1.87,-2.424 -1.3611,-0.0142 -0.78171,-3.5227 1.2349,-7.4781 2.0284,-3.9786 2.0848,-6.3968 0.061,-2.6153 -0.61392,1.1471 -1.6629,2.0887 -2.331,2.0925 -1.3852,0.008 -4.862,4.8287 -7.2069,9.9932 -0.87404,1.925 -2.659,5.3 -3.9665,7.5 -1.3075,2.2 -3.1042,5.35 -3.9925,7 -3.1824,5.9107 -6.4903,8.8435 -8.9221,7.9103 -2.3997,-0.92085 -1.9816,-4.6101 1.0222,-9.0207 1.4569,-2.1392 3.4495,-5.308 4.428,-7.0418 1.7249,-3.0563 1.7204,-3.1675 -0.14897,-3.6564 -2.2828,-0.59696 -2.5522,-3.9244 -0.48504,-5.9915 0.79362,-0.79362 2.485,-2.9784 3.7585,-4.8551 1.2736,-1.8767 2.8906,-4.072 3.5935,-4.8785 2.2709,-2.6056 8.7986,-13.371 10.156,-16.748 1.6889,-4.2035 0.92315,-4.9016 -2.6219,-2.3904 -2.8105,1.9909 -7.3286,3.7386 -7.3286,2.8348 0,-0.2598 2.0811,-1.692 4.6246,-3.1826 5.8324,-3.418 12.375,-9.2838 12.375,-11.095 0,-1.3421 -6.8874,3.0446 -11.5,7.3244 -3.5276,3.2732 -12.592,6.8666 -11.058,4.3835 0.30822,-0.49871 -0.34022,-0.67122 -1.441,-0.38337 -2.8291,0.73983 -2.4885,-1.1112 0.49862,-2.7099 2.82,-1.5092 3.4485,-3.3414 0.75,-2.1866 -8.2926,3.5488 -11.16,5.7177 -13.336,10.086 -1.2602,2.5303 -2.9313,5.2452 -3.7135,6.0329 -1.2085,1.2171 -1.2143,1.5928 -0.0388,2.5 1.8547,1.4314 8.1345,10.217 10.412,14.568 2.2901,4.3738 2.0699,5.4301 -2.1623,10.374 -1.8763,2.1921 -3.4144,4.4671 -3.4178,5.0556 -0.0139,2.3587 -5.9424,4.5388 -10.605,3.8997 -5.079,-0.69615 -6.7455,-2.4956 -8.8276,-9.5313 -1.412,-4.7712 -1.1072,-6.7984 1.0219,-6.7984 0.77917,0 1.4167,-0.45 1.4167,-1 0,-0.55 0.675,-1 1.5,-1 0.825,0 1.5,0.45 1.5,1 0,0.55 0.49814,1 1.107,1 0.60884,0 0.84797,-0.675 0.53138,-1.5 -0.39152,-1.0203 0.054,-1.5 1.393,-1.5 1.302,0 1.9686,-0.6773 1.9686,-2 0,-2.4655 2.5353,-2.6272 3.9199,-0.25 0.91484,1.5707 1.0224,1.5243 1.0497,-0.45295 0.04,-2.897 -2.0004,-7.297 -3.3838,-7.297 -1.0084,0 -11.074,11.018 -16.336,17.881 -2.6427,3.4472 -2.859,7.0403 -0.67765,11.259 2.231,4.3144 1.225,6.2462 -2.8339,5.442 -1.7812,-0.35292 -4.5885,-0.6331 -6.2385,-0.62262 -2.7146,0.0172 -2.8335,-0.10932 -1.25,-1.3304 2.123,-1.637 2.2427,-2.629 0.31739,-2.629 -0.78794,0 -1.7183,0.9 -2.0674,2 -0.34913,1.1 -1.2794,2 -2.0674,2 -2.3571,0 -1.6242,-2.6936 1.3156,-4.8351 1.5115,-1.101 2.4108,-2.3393 1.9985,-2.7516 -1.2092,-1.2092 -5.7515,1.7578 -6.3516,4.1489 -0.70673,2.8158 -5.9889,3.6277 -15.156,2.3295 -7.2714,-1.0298 -8.4028,-1.5544 -6.2381,-2.8923 1.2095,-0.74749 1.1553,-1.0022 -0.33494,-1.5741 -1.1692,-0.44865 -2.4569,0.0465 -3.7609,1.4462 -2.1408,2.2979 -5.3323,2.9101 -4.6602,0.89393 0.48377,-1.4513 10.82,-7.8437 11.751,-7.2678 0.35028,0.21648 1.3915,-0.88387 2.3138,-2.4452 l 1.6769,-2.8388 -3.5901,0.80971 c -1.9746,0.44533 -4.5591,1.6722 -5.7435,2.7264 -1.1843,1.0542 -4.1091,3.6792 -6.4995,5.8335 -4.151,3.741 -9.3793,5.479 -10.59,3.5204 -0.29374,-0.47529 3.0592,-3.1988 7.4509,-6.0522 4.3918,-2.8535 7.985,-5.6073 7.985,-6.1197 0,-2.0829 -3.032,-0.42888 -12.202,6.6565 -6.5716,5.0775 -9.7976,6.5712 -9.7976,4.5363 0,-1.1611 19.388,-14.123 21.137,-14.131 1.4235,-0.007 4.8626,-5.2433 4.8626,-7.4043 0,-0.6867 2.5304,-4.0448 5.6232,-7.4624 3.0928,-3.4176 5.3014,-6.5318 4.908,-6.9204 -0.39335,-0.3886 -4.1613,2.9765 -8.3732,7.4779 -6.6939,7.154 -7.9174,8.0583 -9.7177,7.1821 -3.0152,-1.4674 -10.105,3.4137 -26.703,18.383 -2.2868,2.0625 -4.7117,3.75 -5.3888,3.75 -3.2619,0 -1.7226,-2.2972 4.898,-7.3096 3.9891,-3.0201 8.8279,-6.9159 10.753,-8.6573 1.925,-1.7414 5.8625,-4.5192 8.75,-6.173 4.6396,-2.6572 6.6874,-4.8672 4.5,-4.8563 -1.4052,0.007 -7.3275,4.0112 -13.694,9.259 -16.988,14.003 -20.585,16.737 -22.012,16.737 -1.7744,0 -2.0074,-2.2645 -0.51894,-5.0456 0.92065,-1.7202 0.7377,-1.8568 -1.806,-1.348 -1.9048,0.38096 -3.2575,0.0515 -4.1363,-1.0074 -1.8561,-2.2365 -0.67436,-4.4003 2.6088,-4.7768 2.1097,-0.24192 2.729,-0.78787 2.4875,-2.1927 -0.17685,-1.0288 0.94815,-3.2475 2.5,-4.9304 l 2.8215,-3.0598 -2.9316,2.2171 c -1.6124,1.2194 -3.5504,3.1006 -4.3067,4.1804 -1.719,2.4542 -3.2617,2.5305 -3.2617,0.16116 0,-1.0216 3.8918,-5.1926 8.9861,-9.6308 10.161,-8.8519 12.198,-10.959 9.6554,-9.9831 -0.90279,0.34643 -1.6414,1.0014 -1.6414,1.4555 0,0.45409 -0.78933,1.0762 -1.7541,1.3823 -0.96473,0.30619 -4.5965,3.2615 -8.0706,6.5674 -3.4741,3.3059 -6.7348,6.0107 -7.246,6.0107 -1.8932,0 -0.83788,-2.8521 2.1284,-5.7522 2.5194,-2.4632 2.7774,-3.0971 1.4652,-3.6006 -1.4526,-0.55742 -1.4498,-0.82906 0.0317,-3.0902 0.89337,-1.3634 2.4841,-2.7519 3.5348,-3.0854 2.265,-0.71888 2.5561,-2.4716 0.41054,-2.4716 -2.4443,0 -1.8007,-1.1279 4.25,-7.4481 4.9386,-5.1586 3.7665,-4.732 -1.918,0.69811 -2.3542,2.2488 -3.832,2.2281 -3.832,-0.0538 0,-3.3934 11.437,-12.174 25.386,-19.49 3.5325,-1.8527 9.0732,-6.1833 13.123,-10.257 3.8553,-3.8779 7.7928,-7.3513 8.75,-7.7186 2.2326,-0.85674 2.2129,-2.2733 -0.0547,-3.9239 -0.98732,-0.71868 -3.0978,-3.0363 -4.69,-5.1502 -3.3938,-4.5058 -3.4882,-7.8392 -0.50117,-17.697 1.0766,-3.5529 1.6264,-6.5794 1.2219,-6.7255 -5.5267,-1.9956 -8.9623,-6.1029 -11.132,-13.309 -0.73301,-2.4341 -2.453,-7.1256 -3.8222,-10.426 -1.3971,-3.3674 -2.6572,-8.6862 -2.8718,-12.122 -0.52006,-8.3269 1.6688,-11.696 10.422,-16.042 0.18206,-0.0904 -0.12913,-1.0242 -0.69153,-2.075 -0.56241,-1.0509 -1.1277,-4.5769 -1.2561,-7.8356 -0.14198,-3.6015 -0.94774,-7.1014 -2.0547,-8.925 -2.4683,-4.0661 -2.2956,-8.5128 0.46817,-12.056 8.4901,-10.884 22.938,-23.444 26.967,-23.444 0.69932,0 2.8384,-1.0639 4.7536,-2.3643 5.1429,-3.492 16.481,-5.7119 29.358,-5.7482 10.531,-0.0297 24.706,1.9397 28.254,3.9255 1.0467,0.58576 2.5529,0.44487 4.2459,-0.39716 2.9515,-1.4679 14.05,-1.2191 18.227,0.40863 1.4317,0.55787 4.1338,2.8026 6.0047,4.9884 3.7237,4.3503 10.606,16.2 11.517,19.829 0.31561,1.2575 1.3499,2.5327 2.2984,2.8337 0.94848,0.30104 3.0121,1.8913 4.5858,3.5339 l 2.8613,2.9866 -2.2256,3.96 c -1.2241,2.178 -2.4258,5.4414 -2.6706,7.2519 -0.41929,3.1022 -0.82632,5.2984 -1.6294,8.792 -0.23975,1.0429 0.32159,1.4079 1.8421,1.1978 2.3295,-0.32187 4.9188,3.0131 3.7755,4.863 -0.34654,0.56071 0.4934,1.9032 1.8665,2.9833 3.4616,2.7229 4.2868,8.4193 2.1166,14.611 -1.9933,5.687 -4.1666,14.5 -5.592,22.676 -0.58413,3.3507 -1.8538,6.6687 -2.9845,7.7994 -1.5188,1.5188 -1.9236,3.1547 -1.7737,7.1685 0.24881,6.6656 -1.6849,15.813 -4.714,22.3 -2.5183,5.3931 -2.9308,7.4003 -1.5208,7.4003 0.47325,0 2.4616,1.0866 4.4187,2.4147 1.957,1.3281 3.8198,2.1531 4.1396,1.8333 1.1466,-1.1466 0.55218,-3.248 -0.91867,-3.248 -1.9825,0 -1.8982,-1.512 0.22224,-3.9886 2.0253,-2.3653 4.7648,-2.7231 3.9161,-0.51143 -1.1306,2.9463 1.1376,1.412 6.1759,-4.1775 l 5.1176,-5.6775 4.0226,1.9275 c 3.7469,1.7954 4.0234,2.2149 4.0341,6.1208 0.008,3.0208 -0.52928,4.572 -1.9225,5.5479 -1.1763,0.82393 -1.6314,1.8441 -1.1617,2.604 0.59666,0.96542 1.0641,0.89771 2.0564,-0.29788 0.70629,-0.85103 2.1594,-1.5473 3.2291,-1.5473 1.5051,0 1.7979,0.46319 1.2949,2.048 -0.36087,1.137 -0.0846,2.7293 0.62116,3.5796 1.0767,1.2973 0.51551,2.2039 -3.6674,5.925 -2.7162,2.4163 -5.276,4.4055 -5.6886,4.4203 -2.1376,0.0771 -0.0959,2.2908 5.5,5.9636 3.4375,2.2561 7.4368,5.1639 8.8872,6.4618 1.4505,1.2979 3.1992,2.5472 3.8861,2.7761 0.78802,0.26268 1.3445,2.7982 1.508,6.8709 0.14251,3.55 0.53788,7.1339 0.87859,7.9642 0.34071,0.83025 0.2143,3.6784 -0.28092,6.3292 -0.49522,2.6508 -0.68764,5.6332 -0.4276,6.6276 0.26004,0.9944 -0.002,2.1012 -0.58157,2.4596 -0.58904,0.36406 -0.79321,1.9574 -0.46261,3.6104 0.32546,1.6273 0.0896,3.5638 -0.52408,4.3032 -0.61371,0.73947 -0.82197,1.6384 -0.46281,1.9975 1.0172,1.0172 -1.8046,8.8052 -4.5046,12.433 -2.1276,2.8587 -2.8429,3.1934 -5.6853,2.6602 -1.9206,-0.36032 -3.5271,-0.16392 -3.925,0.47983 -0.37044,0.5994 -2.672,1.0898 -5.1145,1.0898 -4.8415,0 -5.8879,-1.6153 -2.441,-3.7679 2.3352,-1.4584 2.636,-3.2321 0.54804,-3.2321 -0.79858,0 -2.8452,2.025 -4.548,4.5 -2.4651,3.5828 -3.6857,4.5 -5.989,4.5 -1.5911,0 -3.1718,-0.45122 -3.5126,-1.0027 -0.41408,-0.67 -1.243,-0.6691 -2.4983,0.003 -1.1064,0.59215 -2.1095,0.63185 -2.4403,0.0966 z m 8.3618,-7.3466 c 1.2329,-2.0625 1.8674,-3.7444 1.41,-3.7376 -1.0601,0.0158 -5.3316,6.5642 -5.3316,8.1736 0,1.5542 1.0525,0.36367 3.9215,-4.436 z m -2.088,-4.1677 c 1.8099,-2.5202 2.9128,-4.5823 2.4508,-4.5823 -1.0377,0 -4.2844,3.7048 -4.2844,4.889 0,0.47636 -0.675,1.4263 -1.5,2.111 -1.5223,1.2634 -2.1436,3.5158 -0.7286,2.6413 0.42427,-0.26221 2.2522,-2.5388 4.0621,-5.059 z m -109.09,0.96984 c -1.6224,-1.7561 -3.1883,-0.79714 -1.6753,1.0259 0.63902,0.76998 1.5564,1.1561 2.0386,0.85811 0.48221,-0.29802 0.31872,-1.1458 -0.36331,-1.884 z m 86.882,-4.263 c -0.6459,-0.6459 -5.5584,4.8401 -5.5616,6.2108 -0.001,0.55 1.3666,-0.50546 3.0396,-2.3455 1.673,-1.84004 2.8079,-3.5794 2.522,-3.8654 z m -74.665,-5.5392 c 0.16279,-2.8944 -5.2473,1.9698 -8.364,7.52 -1.5862,2.8247 -1.1779,2.6026 3.254,-1.77 2.7873,-2.75 5.0868,-5.3375 5.11,-5.75 z m 2.0422,4.1819 c 0,-1.9031 -1.9334,-0.83422 -4.1684,2.3046 l -2.3046,3.2365 3.2365,-2.3046 c 1.7801,-1.2675 3.2365,-2.724 3.2365,-3.2365 z m 90.966,-6.4319 c 0,-0.55 -1.3347,1.25 -2.9659,4 -1.6312,2.75 -2.9659,5.45 -2.9659,6 0,0.55 1.3347,-1.25 2.9659,-4 1.6312,-2.75 2.9659,-5.45 2.9659,-6 z m -152.27,2.3671 c 3.7416,-2.8231 7.028,-5.4245 7.303,-5.7808 0.82371,-1.0674 13.401,-10.291 14.744,-10.813 1.5762,-0.61227 0.61423,-2.2738 -1.3165,-2.2738 -0.79979,0 -7.1857,5.0254 -14.191,11.167 -7.0052,6.1421 -13.164,11.542 -13.687,12 -0.5225,0.4579 -0.65883,0.83254 -0.30296,0.83254 0.35588,0 3.7084,-2.3098 7.45,-5.1329 z m 146.3,0.66542 c 0,-1.6399 -2.9758,-4.123 -5.75,-4.7979 -2.5766,-0.62687 -2.669,-0.41417 -1.1215,2.5811 2.1784,4.2164 4.0621,5.771 5.5233,4.5583 0.74152,-0.6154 1.3482,-1.6691 1.3482,-2.3415 z m -150.76,-2.4315 c 2.8906,-2.6944 7.5056,-6.5922 10.256,-8.6617 2.75,-2.0695 6.8464,-5.265 9.103,-7.101 2.2566,-1.8361 4.6192,-3.3383 5.25,-3.3383 0.63086,0 1.147,-0.45 1.147,-1 0,-0.55 -0.21505,-1 -0.47789,-1 -1.0764,0 -18.434,12.303 -22.568,15.996 -2.4495,2.1882 -5.9131,4.9968 -7.6968,6.2411 -3.5098,2.4485 -4.1253,3.7625 -1.7624,3.7625 0.82192,0 3.8594,-2.2045 6.75,-4.899 z m 56.167,-2.1778 c 2.7297,-3.244 3.2643,-4.9233 1.5674,-4.9233 -0.56179,0 -1.534,1.125 -2.1605,2.5 -0.6265,1.375 -1.4687,2.5 -1.8716,2.5 -0.40287,0 -0.99151,0.675 -1.3081,1.5 -0.96447,2.5134 1.0339,1.6782 3.7727,-1.5767 z m 4.0889,1.0767 c 0.99549,-1.1 1.3061,-2 0.69017,-2 -0.61589,0 -1.6015,0.9 -2.1902,2 -0.5887,1.1 -0.89928,2 -0.69017,2 0.20911,0 1.1947,-0.9 2.1902,-2 z m 10.365,-2.25 c -0.54753,-1.7875 -1.0958,-3.7 -1.2185,-4.25 -0.12262,-0.55 -1.71,-3.025 -3.5276,-5.5 -1.8176,-2.475 -4.3919,-6.525 -5.7207,-9 -4.0556,-7.5539 -7.3982,-12.184 -7.3982,-10.249 0,0.96314 5.8658,12.1 7.2419,13.749 1.9514,2.339 9.7262,16.106 9.7414,17.25 0.009,0.6875 0.43526,1.25 0.94686,1.25 0.5602,0 0.53422,-1.2927 -0.0653,-3.25 z m 8.1351,0.005 c 0,-0.55783 -0.66326,-0.44954 -1.5,0.24489 -0.825,0.68469 -1.5,1.6949 -1.5,2.2449 0,0.55783 0.66326,0.44954 1.5,-0.24489 0.825,-0.68469 1.5,-1.6949 1.5,-2.2449 z m -31.863,-1.8473 c 1.2994,-1.7008 3.6963,-4.3796 5.3264,-5.9529 2.9615,-2.8584 3.3669,-4.8401 0.53463,-2.6132 -2.5974,2.0421 -10.162,11.658 -9.1705,11.658 0.52083,0 2.0101,-1.3915 3.3095,-3.0923 z m 50.518,-1.1767 c -0.27393,-0.67703 -0.48137,0.11903 -0.46099,1.769 0.0204,1.65 0.2445,2.2039 0.49804,1.231 0.25354,-0.97297 0.23687,-2.323 -0.037,-3 z m -20.816,0.4383 c 0.91316,-1.0069 4.9399,-4.6684 8.9482,-8.1366 4.0084,-3.4682 7.6784,-7.0355 8.1557,-7.9273 1.5125,-2.8262 -6.2098,-17.105 -9.2507,-17.105 -1.6528,0 -9.6904,-6.1381 -16.035,-12.246 -5.6721,-5.46 -14.342,-11.754 -16.19,-11.754 -0.47175,0 -2.1152,-1.2047 -3.652,-2.6771 -1.5369,-1.4724 -2.9853,-2.4849 -3.2187,-2.25 -0.23341,0.23491 -0.52125,2.6771 -0.63963,5.4271 -0.28366,6.5892 2.051,11.723 12.589,27.683 4.6499,7.0426 8.4544,13.098 8.4544,13.457 0,0.35883 1.5807,3.0339 3.5127,5.9446 1.932,2.9107 3.7882,6.6698 4.125,8.3535 0.71456,3.5728 0.98396,3.6763 3.202,1.2306 z m -76.84,-0.66927 c 0.68469,-0.825 1.0199,-1.5 0.74489,-1.5 -0.275,0 -1.0602,0.675 -1.7449,1.5 -0.68469,0.825 -1.0199,1.5 -0.74489,1.5 0.275,0 1.0602,-0.675 1.7449,-1.5 z m 54.996,-0.99606 c 1.2897,-1.3728 2.134,-2.707 1.8762,-2.9648 -0.46872,-0.46873 -5.8724,4.1334 -5.8724,5.0014 0,1.1804 1.869,0.22793 3.9963,-2.0365 z m -45.996,-5.5039 c 0.275,-0.328 2.075,-1.6875 4,-3.0211 7.6114,-5.2731 11.751,-8.9097 10.184,-8.9473 -2.141,-0.0514 -5.343,1.9291 -11.184,6.9178 -3.025,2.5835 -6.5125,5.5518 -7.75,6.5962 -3.4324,2.8969 -2.6798,3.8908 1,1.3207 1.7875,-1.2484 3.475,-2.5383 3.75,-2.8663 z m 36,3.5 c 0.68469,-0.825 1.0199,-1.5 0.74489,-1.5 -0.275,0 -1.0602,0.675 -1.7449,1.5 -0.68469,0.825 -1.0199,1.5 -0.74489,1.5 0.275,0 1.0602,-0.675 1.7449,-1.5 z m 115,-1.1224 c 0,-1.1203 -1.878,-0.13785 -2.4159,1.2639 -0.52667,1.3725 -0.38034,1.4343 0.89301,0.37756 0.83759,-0.69514 1.5229,-1.4338 1.5229,-1.6414 z m -74,0.12244 c 0.68469,-0.825 1.0199,-1.5 0.74489,-1.5 -0.275,0 -1.0602,0.675 -1.7449,1.5 -0.68469,0.825 -1.0199,1.5 -0.74489,1.5 0.275,0 1.0602,-0.675 1.7449,-1.5 z m 57.655,-0.0431 c 0.93028,-2.4243 -0.36778,-2.8619 -1.6091,-0.54252 -0.77398,1.4462 -0.7892,2.0856 -0.0496,2.0856 0.58661,0 1.333,-0.69441 1.6587,-1.5431 z m -139.2,-5.3328 c -0.2849,-0.2849 -1.7419,0.7546 -3.2377,2.31 l -2.7197,2.828 3.2377,-2.31 c 1.7807,-1.2705 3.0046,-2.5431 2.7197,-2.828 z m 36.543,-2.3411 c 0,-0.46356 -1.35,0.15525 -3,1.3752 -1.65,1.2199 -3,2.8926 -3,3.717 0,1.0264 0.94577,0.59293 3,-1.3752 1.65,-1.5808 3,-3.2535 3,-3.717 z m 9.0405,4.029 c 1.6277,-1.2034 2.9595,-2.7784 2.9595,-3.5 0,-2.1844 -1.3549,-1.4938 -4.2926,2.1881 -3.2213,4.0372 -2.8488,4.4038 1.3331,1.3119 z m -46.54,-9.8388 c 3.85,-2.9304 7.9528,-6.2606 9.1173,-7.4006 1.1645,-1.1399 3.077,-2.7344 4.25,-3.5434 1.173,-0.80892 2.1327,-2.0622 2.1327,-2.7852 0,-1.9667 -3.3207,0.0473 -10.982,6.6606 -10.966,9.4654 -14.018,12.378 -14.018,13.378 0,0.61038 0.45673,0.6067 1.25,-0.0101 0.6875,-0.53453 4.4,-3.3695 8.25,-6.2998 z m 39.935,-0.87106 c 2.1643,-2.236 3.7364,-4.264 3.4937,-4.5068 -0.50637,-0.50637 -12.929,10.927 -12.929,11.9 0,1.0518 5.2201,-3.0386 9.435,-7.3931 z m -29.435,1.894 c 0.275,-0.33016 2.1875,-1.3854 4.25,-2.3451 2.0625,-0.95965 3.75,-2.1737 3.75,-2.6979 0,-2.5445 -4.4556,0.0688 -12,7.0383 l -3.5,3.2333 3.5,-2.3142 c 1.925,-1.2728 3.725,-2.5843 4,-2.9144 z m 82,2.8859 c 0,-0.55 -0.45,-0.72189 -1,-0.38197 -0.55,0.33992 -1,1.068 -1,1.618 0,0.55 0.45,0.72189 1,0.38197 0.55,-0.33992 1,-1.068 1,-1.618 z m 42.382,0.56609 c 0.34149,-0.88992 0.17385,-1.2913 -0.39301,-0.94098 -0.5437,0.33602 -0.98855,1.0344 -0.98855,1.5519 0,1.4384 0.71677,1.1215 1.3816,-0.61096 z m -93.882,-1.4481 c 0.33992,-0.55 0.16803,-1 -0.38197,-1 -0.55,0 -1.2781,0.45 -1.618,1 -0.33992,0.55 -0.16803,1 0.38197,1 0.55,0 1.2781,-0.45 1.618,-1 z m 1.3333,-12.151 c 0.86897,-2.214 -1.8224,-0.38932 -5.8649,3.9763 -7.4801,8.078 -7.7903,8.9666 -0.96842,2.7737 3.575,-3.2454 6.65,-6.2829 6.8333,-6.75 z m 105.55,5.0906 c 1.1694,-1.9852 1.4101,-3.0371 0.63589,-2.779 -0.6852,0.2284 -2.4071,2.4232 -3.8264,4.8772 -2.0853,3.6056 -2.2073,4.139 -0.63588,2.779 1.0696,-0.9256 2.7915,-3.1204 3.8264,-4.8772 z m -101.38,3.0025 c 0,-1.8298 -1.9653,-1.8757 -2.9325,-0.0685 -0.88304,1.65 -0.7453,1.8547 0.94983,1.4114 1.0905,-0.28521 1.9826,-0.88948 1.9826,-1.3429 z m -11.034,-6.485 c 3.4554,-3.5984 6.0283,-6.7968 5.7176,-7.1076 -0.61826,-0.61825 -13.659,11.684 -13.674,12.9 -0.0229,1.8472 2.1143,0.29116 7.9562,-5.7926 z m 104.07,4.0426 c 1.357,-1.85 1.3358,-1.8971 -0.28297,-0.62756 -0.9625,0.75485 -1.75,1.8424 -1.75,2.4167 0,0.57432 0.12734,0.85672 0.28297,0.62756 0.15563,-0.22917 0.94313,-1.3167 1.75,-2.4167 z m -106.65,-7.9917 c 6.8864,-6.7522 7.4302,-7.5083 5.3997,-7.5083 -1.634,0 -12.779,11.092 -12.779,12.719 0,0.70471 0.17067,1.2813 0.37927,1.2813 0.20861,0 3.3586,-2.9212 7,-6.4917 z m -15.379,2.3311 c 0,-1.4726 -1.6306,-0.90519 -3.5757,1.2442 -1.881,2.0784 -1.8788,2.0806 0.84501,0.83949 1.5019,-0.68431 2.7307,-1.622 2.7307,-2.0837 z m 8.7003,-3.1128 c 0.43983,-0.70032 3.4062,-3.4713 6.592,-6.1576 4.2051,-3.5459 5.4904,-5.1837 4.6905,-5.9767 -0.79919,-0.79232 -2.8708,0.81883 -7.5424,5.8658 -3.5423,3.827 -6.4405,7.0895 -6.4405,7.25 0,0.84628 2.0116,0.11512 2.7003,-0.98149 z m -16.923,-2.6703 c 3.5731,-3.2636 4.5037,-6.0669 1.2596,-3.7947 -2.5092,1.7575 -6.4506,6.7383 -5.3322,6.7383 0.46734,0 2.3,-1.3246 4.0726,-2.9436 z m 86.223,1.8846 c 0,-0.58246 -0.45,-0.7809 -1,-0.44098 -0.55,0.33992 -1,0.81648 -1,1.059 0,0.24254 0.45,0.44098 1,0.44098 0.55,0 1,-0.47656 1,-1.059 z m 74.33,-3.1754 c 0.55085,-2.1858 0.51987,-2.1972 -0.8793,-0.32445 -1.6062,2.1498 -1.9395,3.9793 -0.57097,3.1335 0.48361,-0.29889 1.1362,-1.563 1.4503,-2.809 z m -134.33,-12.65 c 0,-1.9876 -1.6689,-1.2097 -5.6366,2.6273 -2.1328,2.0625 -5.1693,4.7598 -6.7479,5.9941 -2.2288,1.7426 -2.6194,2.5462 -1.7481,3.5961 0.90355,1.0887 2.389,0.13994 7.6274,-4.8714 3.5779,-3.4229 6.5053,-6.7286 6.5053,-7.3461 z m 68.351,9.9284 c 5.2564,-1.8085 11.19,-5.0511 9.2421,-5.0511 -0.46833,0 -3.9703,1.125 -7.7821,2.5 -3.8118,1.375 -8.3663,2.4996 -10.121,2.4992 -4.3506,-10e-4 -13.121,-3.4469 -13.496,-5.3026 -0.5197,-2.5701 1.541,-2.8422 5.4911,-0.72506 3.9467,2.1153 8.8879,2.7656 7.8143,1.0284 -0.33992,-0.55 -2.1665,-1 -4.059,-1 -6.4292,0 -3.4766,-1.7086 3.9192,-2.268 5.0862,-0.38467 8.938,-1.3562 12.467,-3.1443 5.2157,-2.643 8.7812,-3.3808 7.673,-1.5877 -1.5082,2.4403 1.5817,0.67095 4.3659,-2.5 1.6902,-1.925 3.5368,-3.5 4.1036,-3.5 1.5185,0 1.2546,2.9768 -0.31734,3.58 -1.829,0.70185 -5.9796,6.42 -4.66,6.42 1.9211,0 12.04,-11.129 14.412,-15.851 1.9016,-3.7849 2.2946,-6.0023 2.1148,-11.932 -0.21167,-6.9806 0.62938,-9.4681 2.5514,-7.5461 0.49305,0.49305 1.0163,2.5679 1.1629,4.6109 0.27607,3.849 1.7664,5.2723 1.7664,1.687 0,-1.1173 0.7875,-2.3296 1.75,-2.694 1.8925,-0.71661 4.25,-2.7755 4.25,-3.7116 0,-0.31894 -0.87953,-0.0306 -1.9545,0.64072 -2.465,1.5394 -3.8336,0.28788 -2.3256,-2.1267 0.94224,-1.5088 0.84843,-1.8096 -0.53159,-1.7045 -1.3967,0.10632 -1.6429,-0.76196 -1.4786,-5.2138 0.10841,-2.9378 0.72319,-5.9752 1.3662,-6.75 1.77,-2.1327 4.6072,-1.6878 5.3658,0.84136 0.65476,2.1828 0.69998,2.1903 1.5145,0.25 0.579,-1.3792 0.37881,-2.3643 -0.64491,-3.1736 -0.93959,-0.74279 -1.6172,-3.4462 -1.8459,-7.3647 -0.19877,-3.4051 -0.59078,-6.4205 -0.87114,-6.7008 -0.28035,-0.28035 -1.8263,0.5981 -3.4355,1.9521 -4.4523,3.7464 -11.447,5.3922 -16.815,3.9566 -2.4051,-0.64326 -5.0414,-1.1696 -5.8585,-1.1696 -2.0916,0 -1.8343,2.9669 0.56371,6.5 1.7981,2.6492 4.9506,9.095 4.9506,10.122 0,1.4038 -4.0249,-0.0656 -5.813,-2.1221 -2.6426,-3.0392 -4.1232,-3.1246 -7.5424,-0.43502 -1.4439,1.1358 -2.9942,1.8369 -3.4452,1.5582 -1.7605,-1.088 -9.3806,1.7239 -10.882,4.0157 -1.9182,2.9275 -3.4591,2.9739 -6.5756,0.19803 -2.2875,-2.0375 -6.2872,-3.4764 -16.684,-6.0018 -4.0316,-0.97933 -4.6008,-0.88297 -6.1603,1.0429 -2.0443,2.5246 -6.8977,2.9081 -6.8977,0.54502 0,-0.86731 1.35,-2.9269 3,-4.5769 1.65,-1.65 3,-3.8654 3,-4.9231 0,-2.0221 3.293,-5.9231 5,-5.9231 1.3364,0 1.274,2.326 -0.0993,3.6993 -0.60464,0.60463 -0.81251,2.0031 -0.46193,3.1076 0.71877,2.2646 3.8363,3.8679 4.3755,2.2503 0.5351,-1.6053 3.7001,-1.2698 7.905,0.83797 2.0794,1.0424 5.6933,2.1245 8.0308,2.4048 3.6909,0.4426 4.25,0.25906 4.25,-1.3952 0,-1.0477 0.675,-1.9048 1.5,-1.9048 0.825,0 1.5,-0.45857 1.5,-1.019 0,-0.58765 1.0584,-0.75342 2.5,-0.39159 2.9024,0.72846 3.1805,-0.17994 0.84501,-2.7606 -1.5421,-1.704 -1.5382,-1.8287 0.0567,-1.8287 1.5691,0 1.582,-0.18515 0.15498,-2.2225 -2.056,-2.9353 -1.9735,-3.43 0.6933,-4.1608 1.6988,-0.46556 1.9233,-0.82749 0.91615,-1.4775 -1.8136,-1.1705 1.131,-2.3461 3.5507,-1.4176 1.1337,0.43503 0.79401,-0.33641 -1,-2.2712 -1.4943,-1.6115 -2.7168,-3.2721 -2.7168,-3.6902 0,-0.41812 -0.5051,-0.76022 -1.1224,-0.76022 -0.80699,0 -0.79334,0.39655 0.0486,1.411 1.3914,1.6766 -0.22414,3.1288 -2.1761,1.9561 -0.72017,-0.43266 -0.6142,0.0351 0.25,1.1036 1.1438,1.4141 1.2031,1.9545 0.25,2.2753 -0.6875,0.2314 -1.25,1.0441 -1.25,1.806 0,2.4542 -2.5862,0.48137 -3.8117,-2.9077 -1.5699,-4.3414 -1.55,-4.434 1.0617,-4.9478 l 2.25,-0.4426 -2.25,-0.74358 c -1.2376,-0.40897 -2.25,-1.318 -2.25,-2.02 0,-1.9744 2.6016,-2.5075 4.6528,-0.95348 2.7545,2.0869 3.9161,1.7493 1.8472,-0.53688 -0.99549,-1.1 -2.4152,-2 -3.155,-2 -2.0139,0 -1.6233,-1.9899 0.40499,-2.0634 1.3408,-0.0486 1.2239,-0.27485 -0.5,-0.96777 -1.2375,-0.49742 -2.25,-1.3386 -2.25,-1.8692 0,-1.7892 -3.8792,-2.2134 -6.7352,-0.73655 -2.1925,1.1338 -3.2447,2.8334 -4.642,7.4981 -0.99378,3.3176 -1.5261,6.4862 -1.183,7.0414 1.1707,1.8942 -2.1914,8.0974 -4.3888,8.0974 -1.1281,0 -2.051,-0.45 -2.051,-1 0,-1.6395 -1.8838,-1.151 -5.7852,1.5 -3.1537,2.143 -4.8024,2.5 -11.546,2.5 -8.0898,0 -11.233,-0.94769 -18.919,-5.7044 -2.9909,-1.851 -3.75,-2.0146 -3.75,-0.80819 0,2.5561 -3.6825,1.6786 -6.3727,-1.5185 -2.8824,-3.4255 -4.8183,-9.3291 -4.0689,-12.408 0.37259,-1.5307 -0.20052,-2.3825 -2.2278,-3.3109 -3.4892,-1.598 -4.3307,-1.5741 -4.3307,0.12288 0,1.7837 3.8075,10.39 4.8936,11.061 0.46014,0.28438 1.3805,3.2817 2.0453,6.6606 1.2882,6.548 4.442,10.905 7.8932,10.905 1.9065,0 3.8015,1.5753 4.2102,3.5 0.1168,0.55 0.40562,1.5036 0.64184,2.1192 0.23621,0.61556 0.29141,3.5406 0.12268,6.5 -0.28355,4.9731 -0.49478,5.3823 -2.7876,5.4004 -2.1104,0.0167 -2.5207,0.53934 -2.7475,3.5 -0.19029,2.4841 0.41007,4.2676 2.0972,6.2304 3.3395,3.8851 4.5414,3.5003 3.9043,-1.25 -0.87211,-6.5021 2.8082,-4.7634 4.2334,2 1.2198,5.7889 4.1752,10.583 8.7056,14.121 2.3583,1.8417 4.7378,3.837 5.2878,4.434 0.55,0.59699 2.3112,1.9001 3.9138,2.8958 1.6026,0.99571 4.7526,3.4995 7,5.564 4.2908,3.9415 15.828,10.519 19.772,11.272 5.1805,0.98902 9.7933,0.61344 15.165,-1.2348 z m -8.3514,-24.051 c -1.375,-0.44035 -4.6375,-0.8455 -7.25,-0.90032 -3.4544,-0.0725 -4.75,-0.4983 -4.75,-1.5611 0,-1.9737 7.4217,-3.8794 12.471,-3.2022 3.7054,0.49699 7.5294,3.4297 7.5294,5.7745 0,1.0665 -4.5195,1.0039 -8,-0.11078 z m 24.25,-3.1454 c -1.5811,-1.5869 -1.6033,-4.1013 -0.05,-5.6546 0.93333,-0.93333 0.90956,-1.2 -0.10699,-1.2 -0.73825,0 -1.0619,-0.63879 -0.74367,-1.468 0.30982,-0.80739 0.13297,-1.734 -0.39301,-2.059 -1.3275,-0.82043 -1.1941,-2.7656 0.33287,-4.8538 0.96179,-1.3153 2.0009,-1.5845 4.0915,-1.0598 2.2897,0.57468 2.7186,1.1409 2.3449,3.0958 -0.25154,1.3159 -0.0459,2.6468 0.4571,2.9577 0.52299,0.32323 0.41768,1.1637 -0.24599,1.9634 -0.63824,0.76903 -0.90151,2.073 -0.58506,2.8976 0.31646,0.82467 -0.42069,2.655 -1.6381,4.0673 -1.7739,2.058 -2.4617,2.3188 -3.4635,1.3133 z m -59.631,-7.6046 c -5.1831,-5.3311 -6.1619,-9.25 -2.3103,-9.25 3.0209,0 6.0977,2.2973 5.474,4.0872 -0.27078,0.77704 0.7923,3.0526 2.3624,5.0567 3.3628,4.2925 3.4758,4.8561 0.97337,4.8561 -1.0347,0 -3.9595,-2.1375 -6.4994,-4.75 z m 29.381,1.0431 c -1.375,-0.23901 -2.9899,-1.0644 -3.5886,-1.8343 -1.5764,-2.0268 -8.0297,-2.6236 -9.4795,-0.87665 -2.7982,3.3716 -7.0825,0.3738 -4.5045,-3.1518 1.0933,-1.4951 2.7612,-1.7406 10.94,-1.6099 5.3077,0.0848 10.896,0.37365 12.418,0.64187 1.5225,0.26822 5.0866,0.12118 7.9203,-0.32677 6.1112,-0.96604 11.657,0.75426 10.676,3.3116 -0.67131,1.7494 -4.9185,2.1118 -5.912,0.50437 -0.43713,-0.70729 -1.1451,-0.63606 -2.1752,0.21886 -3.6235,3.0072 -9.9664,4.2228 -16.295,3.1228 z m 50.035,-31.227 c -2.2046,-4.1194 -0.20482,-7.664 2.6904,-4.7687 1.0133,1.0133 1.3136,2.4106 0.88499,4.1183 -0.7705,3.0699 -2.1466,3.3202 -3.5754,0.65038 z m -109.06,54.074 c 3.0136,-2.7582 5.1896,-5.3045 4.8356,-5.6584 -1.1551,-1.1551 -4.3873,1.3024 -9.3443,7.1046 -5.5893,6.5424 -3.4805,5.866 4.5086,-1.4462 z m 101.38,5.36 c 0.31658,-0.825 0.41982,-1.5 0.22943,-1.5 -0.19039,0 -0.90637,0.675 -1.5911,1.5 -0.71755,0.86459 -0.81474,1.5 -0.22943,1.5 0.5585,0 1.2745,-0.675 1.5911,-1.5 z m -112.36,-0.5 c 0,-0.55 -0.45,-1 -1,-1 -0.55,0 -1,0.45 -1,1 0,0.55 0.45,1 1,1 0.55,0 1,-0.45 1,-1 z m 79.188,0.31689 c -0.72187,-0.28887 -1.5844,-0.25335 -1.9167,0.0789 -0.33229,0.33229 0.25834,0.56864 1.3125,0.52522 1.165,-0.048 1.4019,-0.28494 0.60417,-0.60416 z m 4,-1 c -0.72188,-0.28887 -1.5844,-0.25335 -1.9167,0.0789 -0.33229,0.33229 0.25834,0.56864 1.3125,0.52522 1.165,-0.048 1.4019,-0.28494 0.60417,-0.60416 z m 34.812,-3.3521 c 0,-1.4206 -0.47868,-1.2028 -2.595,1.1807 -1.8948,2.134 -1.8929,2.1392 0.34501,0.96482 1.2375,-0.64939 2.25,-1.6149 2.25,-2.1455 z m 38.996,-4.2496 c 1.2182,-0.85323 1.5811,-1.7811 1.0394,-2.6575 -0.67116,-1.086 -1.5075,-0.92922 -4.3215,0.80995 -5.4378,3.3608 -6.5281,5.064 -4.2893,6.7011 1.6238,1.1873 2.0843,1.0537 3.7746,-1.0952 1.0588,-1.3461 2.7674,-3.0374 3.7968,-3.7584 z m -5.1615,-5.5871 c -0.58631,-0.20454 -1.3515,0.0309 -1.7004,0.52309 -0.34889,0.49224 -1.8862,1.6919 -3.4162,2.6658 -1.53,0.97396 -2.5147,2.2031 -2.1882,2.7315 0.32653,0.52834 2.3435,-0.50393 4.4822,-2.2939 2.1387,-1.78997 3.4088,-3.4219 2.8225,-3.6264 z m -31.835,3.8719 c 0,-0.55 -0.45,-1 -1,-1 -0.55,0 -1,0.45 -1,1 0,0.55 0.45,1 1,1 0.55,0 1,-0.45 1,-1 z m 26.054,-3.6047 3.4462,-3.6047 -3.8896,2.6047 c -2.1392,1.4326 -4.2768,2.6047 -4.75,2.6047 -0.47325,0 -0.86045,0.45 -0.86045,1 0,2.0543 2.7176,0.88505 6.0538,-2.6047 z m 3.8293,-8.9801 c 2.8571,-2.5688 4.9862,-4.8792 4.7312,-5.1342 -0.73072,-0.73071 -4.6956,0.77854 -4.1908,1.5953 0.24891,0.40274 -1.466,2.2685 -3.811,4.1462 -2.345,1.8777 -5.1124,4.5393 -6.1499,5.9147 l -1.8863,2.5007 3.056,-2.176 c 1.6808,-1.1968 5.3936,-4.2778 8.2508,-6.8466 z m 4.0085,2.5266 c 1.3154,-1.0955 2.1097,-2.2737 1.7652,-2.6182 -0.34458,-0.34458 -1.8197,0.56667 -3.278,2.025 -3.0856,3.0856 -1.994,3.5137 1.5129,0.59325 z m -27.885,-8.9552 c 1.088,-2.1328 1.6042,-4.1089 1.147,-4.3915 -0.88398,-0.54632 -5.1538,6.3716 -5.1538,8.3501 0,2.0087 1.9408,0.0913 4.0068,-3.9586 z m 0.99315,-15.546 c 0,-0.24254 -0.45,-0.44098 -1,-0.44098 -0.55,0 -1,0.47656 -1,1.059 0,0.58246 0.45,0.7809 1,0.44098 0.55,-0.33992 1,-0.81648 1,-1.059 z m 3,-4.5 c 0,-0.58246 -0.45,-0.7809 -1,-0.44098 -0.55,0.33992 -1,0.81648 -1,1.059 0,0.24254 0.45,0.44098 1,0.44098 0.55,0 1,-0.47656 1,-1.059 z m -85.552,-23.464 c 7.2745,-2.2067 11.932,-7.289 13.023,-14.212 0.23983,-1.5209 0.56934,-3.6169 0.73226,-4.6577 0.16292,-1.0408 -0.3135,-2.1066 -1.0587,-2.3683 -0.98378,-0.34557 -1.1703,0.10566 -0.68105,1.6473 0.46971,1.4799 0.1803,2.3126 -0.9552,2.7484 -0.896,0.34383 -2.3309,2.3792 -3.1888,4.5231 -1.0988,2.7463 -2.8724,4.6673 -6.0024,6.5016 -4.031,2.3623 -5.0626,2.5407 -11.13,1.9244 -3.6781,-0.37356 -7.2669,-1.2534 -7.9752,-1.9551 -1.0451,-1.0355 0.20846,-1.2634 6.6528,-1.2096 9.018,0.0754 10.658,-0.81828 13.641,-7.4321 1.7767,-3.9399 1.774,-3.9664 -0.7825,-7.8296 -1.6685,-2.5212 -3.5681,-4.0768 -5.4342,-4.4501 -4.2372,-0.84744 -11.289,0.32025 -11.289,1.8693 0,0.72257 -1.2375,1.9073 -2.75,2.6327 -2.207,1.0585 -2.7574,2.0072 -2.7877,4.8046 -0.0208,1.9171 0.3386,4.0081 0.79856,4.6466 1.2553,1.7427 -1.0995,2.7178 -2.9183,1.2084 -1.1913,-0.98869 -1.434,-2.4495 -1.0066,-6.0582 0.31259,-2.6393 0.1334,-5.021 -0.40269,-5.3524 -1.5563,-0.96187 -0.17429,-2.227 3.8307,-3.5064 2.0548,-0.65647 4.964,-2.3393 6.4648,-3.7396 4.4348,-4.138 14.592,-2.8608 21.064,2.6489 1.4825,1.2619 1.6935,1.2762 1.2184,0.0823 -1.4093,-3.5416 -11.199,-8.1864 -17.011,-8.0709 -8.5083,0.16908 -15.737,4.8542 -19.508,12.643 -2.164,4.4702 -2.1671,4.5563 -0.35093,9.607 2.598,7.2249 7.3837,11.899 13.964,13.64 5.5604,1.4708 8.2338,1.4156 13.843,-0.28574 z m -12.781,-10.144 c -1.6326,-1.6326 -0.60782,-3.5354 1.6049,-2.98 2.1234,0.53294 2.2702,0.26273 2.25,-4.1416 -0.0211,-4.6121 0.0413,-4.7071 2.9505,-4.493 5.6647,0.41678 7.6779,6.0636 3.7547,10.531 -1.529,1.7412 -9.1231,2.5203 -10.56,1.0833 z m 86.173,8.7807 c 3.5196,-2.5062 8.3995,-14.627 6.9906,-17.364 -1.6897,-3.2822 -3.4036,-1.8148 -4.6987,4.023 -1.7198,7.7523 -3.4875,9.668 -10.254,11.113 -4.8113,1.0273 -6.2174,0.96223 -9.75,-0.45124 -4.3353,-1.7346 -5.0852,-3.3344 -2.6873,-5.7322 0.79233,-0.79232 1.1988,-2.3654 0.90319,-3.4957 -0.43767,-1.6736 -0.009,-2.1155 2.3094,-2.3808 2.8948,-0.33125 3.0395,-0.75467 2.1619,-6.3258 -0.27153,-1.7236 0.21505,-1.9832 3.5209,-1.8783 4.3691,0.1386 6.2232,1.6185 7.2456,5.7835 0.64321,2.6202 0.50255,2.8501 -1.4342,2.3436 -1.4448,-0.37781 -2.1474,-0.10138 -2.1474,0.84484 0,0.77351 0.70532,1.4064 1.5674,1.4064 1.1123,0 1.3831,0.58068 0.93261,2 -1.0068,3.1722 2.3494,2.4878 3.6776,-0.75 1.8276,-4.4552 1.8686,-5.8953 0.2759,-9.707 -1.6681,-3.9924 -3.4463,-4.9356 -11.184,-5.9327 -4.456,-0.57419 -5.1438,-0.44712 -4.643,0.85787 0.32332,0.84254 0.11016,1.5319 -0.47369,1.5319 -0.58384,0 -2.2609,1.1993 -3.7267,2.6652 -2.3709,2.3709 -2.602,3.199 -2.0926,7.5 0.31493,2.6592 0.32844,4.8348 0.03,4.8348 -0.29843,0 -1.3873,-1.0125 -2.4196,-2.25 -1.5516,-1.8599 -1.8828,-1.9568 -1.9103,-0.55902 -0.0183,0.93004 0.41675,1.9691 0.96675,2.309 0.55,0.33992 1,1.4032 1,2.3628 0,2.2443 5.6245,7.5697 9.5,8.9948 4.325,1.5904 12.95,0.66994 16.34,-1.7436 z m 16.692,-6.2146 c 0.3667,-1.1554 0.17202,-2.5954 -0.43261,-3.2 -0.79912,-0.79912 -1.0993,-0.65742 -1.0993,0.51887 0,0.89002 -0.27314,2.33 -0.60699,3.2 -0.33384,0.86999 -0.13917,1.5818 0.43261,1.5818 0.57178,0 1.3396,-0.9453 1.7063,-2.1007 z m -25.032,-1.8993 c -0.33992,-0.55 -0.81648,-1 -1.059,-1 -0.24254,0 -0.44098,0.45 -0.44098,1 0,0.55 0.47656,1 1.059,1 0.58246,0 0.7809,-0.45 0.44098,-1 z m -2.5,-3 c 0,-0.55 -0.675,-1 -1.5,-1 -0.825,0 -1.5,0.45 -1.5,1 0,0.55 0.675,1 1.5,1 0.825,0 1.5,-0.45 1.5,-1 z m -15.547,-7.6022 c 0.74059,-3.9477 -0.0284,-5.6836 -1.4922,-3.3689 -1.1887,1.8797 -1.2415,6.971 -0.0722,6.971 0.48879,0 1.1928,-1.621 1.5645,-3.6022 z m 47.047,2.6022 c 0.33992,-0.55 0.16803,-1 -0.38197,-1 -0.55,0 -1.2781,0.45 -1.618,1 -0.33992,0.55 -0.16803,1 0.38197,1 0.55,0 1.2781,-0.45 1.618,-1 z m -132.84,-3.45 c 2.1924,-0.0368 2.9408,-0.57675 3.1853,-2.2981 0.17575,-1.2375 -0.10926,-2.25 -0.63337,-2.25 -0.5241,0 -1.1985,-0.93914 -1.4987,-2.087 -0.83631,-3.198 -3.9204,-1.9468 -5.9794,2.4259 -1.0014,2.1267 -1.5152,4.6935 -1.1623,5.8056 0.59862,1.8861 0.7025,1.8981 1.9276,0.22258 0.71221,-0.97401 2.5845,-1.7926 4.1607,-1.819 z m 134.37,-1.5481 c 0,-3.1594 -0.85446,-3.7455 -2.7283,-1.8717 -0.83777,0.83777 -0.82733,1.6103 0.0405,3 1.6963,2.7161 2.6878,2.2998 2.6878,-1.1283 z m -69.294,0.70279 c 1.4824,-0.824 1.9342,-1.6664 1.3772,-2.5678 -1.0555,-1.7078 -5.0834,0.19407 -5.0834,2.4002 0,1.7581 0.78133,1.7934 3.7062,0.16761 z m 2.097,-4.9886 c 2.0332,0.0663 5.2046,0.23267 7.0475,0.3698 2.7214,0.20248 4.0362,-0.45118 7,-3.4801 2.0071,-2.0512 5.6743,-5.0493 8.1493,-6.6624 4.6712,-3.0445 4.0408,-3.6362 -2.0665,-1.9396 -3.3434,0.92879 -7.9335,4.9202 -7.9335,6.8987 0,1.5779 -3.3181,2.2099 -4.6435,0.88441 -3.5206,-3.5206 5.1741,-9.8916 16.815,-12.321 4.7868,-0.99892 5.8289,-0.97926 5.8289,0.10997 0,0.72949 -0.7875,1.7731 -1.75,2.3192 -1.2459,0.70684 -0.16562,0.83445 3.75,0.44299 4.5041,-0.4503 6.5376,-0.0894 11.23,1.9931 3.1517,1.3986 5.985,2.131 6.2962,1.6274 0.58044,-0.93916 -0.85429,-4.2903 -2.9785,-6.957 -0.82055,-1.0301 -1.0119,-3.9855 -0.61069,-9.4341 0.62896,-8.5424 0.16379,-10.155 -4.6855,-16.241 -5.7799,-7.254 -8.0665,-9.1981 -12.094,-10.283 -4.8055,-1.294 -5.7356,-4.0062 -1.408,-4.1059 2.6434,-0.0609 2.6628,-0.0985 0.5,-0.96777 -1.2375,-0.49742 -2.25,-1.5939 -2.25,-2.4366 0,-2.7708 -2.7368,-1.5982 -3.3429,1.4324 -0.74805,3.7403 -6.3282,7.5676 -13.161,9.027 -3.8274,0.81745 -6.7672,0.73778 -12.5,-0.33874 -5.3631,-1.0071 -9.4575,-1.164 -14.391,-0.55137 -9.1187,1.1322 -9.8038,1.3367 -19.698,5.8787 -1.4266,0.65489 -4.727,3.1773 -7.3341,5.6053 -2.6072,2.428 -5.3563,4.4146 -6.1091,4.4146 -0.75288,0 -1.8375,1.6875 -2.4103,3.75 -1.3006,4.6832 -1.3648,11.25 -0.11008,11.25 0.51838,0 1.0809,1.9125 1.25,4.25 0.26134,3.6121 0.6077,4.2017 2.3075,3.9281 1.1,-0.17707 5.7323,-0.97658 10.294,-1.7767 8.3417,-1.4631 15.227,-0.79365 16.723,1.6258 0.33069,0.53505 1.6446,0.97282 2.9198,0.97282 2.2324,0 3.8138,1.291 6.0244,4.9182 5.6552,9.279 5.6593,9.283 7.7162,7.4215 1.1775,-1.0656 3.3696,-1.699 5.626,-1.6254 z m -10.137,-2.3809 c -0.36667,-0.36666 -0.66667,-1.2667 -0.66667,-2 0,-0.73333 -0.7875,-2.1657 -1.75,-3.183 -5.4877,-5.8004 -5.6824,-6.7648 -1.25,-6.1941 2.2309,0.28724 9.0051,5.1448 8.9667,6.4298 -0.0332,1.1123 -3.4094,5.614 -4.2104,5.614 -0.23267,0 -0.72304,-0.3 -1.0897,-0.66667 z m 3.0711,-20.085 c -0.96924,-0.21986 -1.5052,-0.81569 -1.191,-1.3241 0.7491,-1.2121 4.4532,-1.1982 4.4532,0.0167 0,1.3054 -1.1823,1.7792 -3.2622,1.3074 z m 57.917,23.295 c -0.32568,-0.84872 -1.0721,-1.5431 -1.6587,-1.5431 -0.73956,0 -0.72434,0.63946 0.0496,2.0856 1.2413,2.3194 2.5394,1.8817 1.6091,-0.54252 z m -107.94,-8.1618 c -0.95892,-0.95892 -3.8104,1.6547 -3.0853,2.828 0.36125,0.58453 1.2443,0.34569 2.1795,-0.5895 0.86468,-0.86468 1.2723,-1.872 0.90584,-2.2385 z m 79.853,0.8757 1.7973,-2.743 -2.3775,1.5786 c -2.5407,1.687 -3.7826,3.9074 -2.1854,3.9074 0.53257,0 1.7771,-1.2344 2.7656,-2.743 z m -65.567,-3.5429 c 0.825,-0.30589 0.0375,-0.5917 -1.75,-0.63512 -2.2896,-0.0556 -3.25,0.3747 -3.25,1.4562 0,1.1383 0.45243,1.3025 1.75,0.63513 0.9625,-0.49503 2.425,-1.1503 3.25,-1.4562 z m 13,-1.7141 c -1.9388,-1.2529 -3,-1.2529 -3,0 0,0.55 1.0125,0.99311 2.25,0.98469 1.8194,-0.0124 1.963,-0.20082 0.75,-0.98469 z m -25.193,-20.526 c -0.30789,-0.30789 -0.86705,0.24711 -1.2426,1.2333 -0.54268,1.4252 -0.42782,1.5401 0.5598,0.5598 0.68342,-0.67834 0.99067,-1.4852 0.68278,-1.7931 z m 112.19,-0.23299 c 0,-0.4177 -0.9,-1.3215 -2,-2.0085 -2.3979,-1.4975 -2.589,-0.96397 -0.42857,1.1965 1.7321,1.7321 2.4286,1.965 2.4286,0.81198 z m -106.39,-6.9602 c -0.23039,-0.23038 -1.3375,0.15483 -2.4603,0.85602 -1.7236,1.0764 -2.3511,0.99469 -4.0299,-0.52466 -1.1598,-1.0496 -1.7359,-2.4579 -1.3823,-3.3792 0.45697,-1.1909 0.17412,-1.4139 -1.1492,-0.90605 -0.96547,0.37049 -1.9436,0.67361 -2.1736,0.67361 -0.23001,0 -0.41821,0.57499 -0.41821,1.2778 0,0.70277 -0.9,2.0484 -2,2.9902 -1.1,0.94185 -1.9645,2.2794 -1.921,2.9722 0.0504,0.80379 0.24398,0.85994 0.53488,0.15513 0.51152,-1.2393 5.3862,-0.62991 5.3862,0.67336 0,0.45955 2.2573,-0.3356 5.0163,-1.767 2.7589,-1.4314 4.8278,-2.791 4.5974,-3.0214 z m 8.3864,-8.1223 c 0,-1.008 -4.5171,2.742 -5.9206,4.9153 -1.1671,1.8072 -0.61146,1.5409 2.1767,-1.0433 2.0591,-1.9085 3.7439,-3.6509 3.7439,-3.872 z m -4,-1.658 c 0.68469,-0.825 1.0199,-1.5 0.74489,-1.5 -0.275,0 -1.0602,0.675 -1.7449,1.5 -0.68469,0.825 -1.0199,1.5 -0.74489,1.5 0.275,0 1.0602,-0.675 1.7449,-1.5 z m 15,-6.3943 c 2.0206,-1.2113 2.8012,-2.0998 1.8468,-2.102 -0.90929,-0.002 -3.6373,1.9088 -6.0623,4.2463 -2.425,2.3375 -3.256,3.2834 -1.8467,2.102 1.4092,-1.1814 4.1373,-3.0922 6.0623,-4.2463 z m 66,-1.4987 c 0,-0.94863 -2.9934,-1.4267 -3.527,-0.56332 -0.32508,0.52598 0.33551,0.95633 1.468,0.95633 1.13249,0 2.059,-0.17685 2.059,-0.39301 z m -126.31,217.96 c 0.43983,-0.77329 5.5247,-4.5679 11.3,-8.4324 5.775,-3.8645 11.625,-7.9468 13,-9.0718 2.927,-2.3947 4,-2.5982 4,-0.75879 0,0.73206 -1.125,1.9331 -2.5,2.669 -1.375,0.73588 -2.5,1.7119 -2.5,2.169 0,0.45706 -0.40824,0.83102 -0.9072,0.83102 -0.49897,0 -5.1115,3.1427 -10.25,6.9837 -8.7553,6.5446 -14.071,9.0005 -12.142,5.6103 z m -10.7,-57.125 c 0,-0.84227 -0.675,-1.7904 -1.5,-2.107 -0.825,-0.31659 -1.5,-1.0127 -1.5,-1.547 0,-1.2281 7.2591,-8.0193 17.184,-16.077 6.8405,-5.5531 9.395,-8.7381 7.0085,-8.7381 -1.0299,0 -6.8046,4.6042 -10.693,8.5256 -5.7367,5.7856 -12.5,9.4089 -12.5,6.6967 0,-0.91626 3.6913,-4.2102 4.7614,-4.249 0.40621,-0.0147 2.6896,-1.8147 5.0742,-4 2.3846,-2.1853 4.7737,-3.9733 5.309,-3.9733 0.53535,0 0.684,-0.4682 0.33033,-1.0405 -0.38469,-0.62244 -2.1709,0.28153 -4.4459,2.25 -11.671,10.098 -15.029,11.834 -15.029,7.769 0,-1.1858 1.0335,-2.4923 2.5,-3.1605 1.375,-0.6265 2.5,-1.93 2.5,-2.8968 0,-4.4079 3.0357,-6.4855 5.6526,-3.8686 0.73685,0.73685 2.194,-0.31314 4.8574,-3.5 3.5242,-4.217 6.1785,-5.5308 7.8325,-3.8768 0.3717,0.3717 -0.30508,1.7199 -1.5039,2.9961 -3.7958,4.0404 -1.2812,3.5758 3.2833,-0.60664 4.8539,-4.4476 6.8782,-5.0628 6.8782,-2.0902 0,1.6611 0.47679,1.8796 3,1.375 4.2008,-0.84016 3.7868,0.89839 -1.0634,4.4653 -2.5225,1.8551 -3.6363,3.2523 -2.937,3.6845 0.61955,0.3829 2.0087,-0.10227 3.0871,-1.0782 1.4803,-1.3396 2.243,-1.4919 3.1134,-0.62159 0.87032,0.87032 0.70406,1.6485 -0.67862,3.1764 -2.1586,2.3853 -6.5214,2.7356 -6.5214,0.52363 0,-0.825 -0.37327,-1.5 -0.82949,-1.5 -1.112,0 -23.25,20.254 -22.719,20.785 0.40111,0.40111 6.6359,-3.9489 9.3761,-6.5418 2.3286,-2.2034 5.014,-3.3082 5.6276,-2.3152 0.31735,0.51348 0.11966,1.2163 -0.43931,1.5617 -0.55897,0.34546 -1.0163,1.1398 -1.0163,1.7653 0,0.62544 1.4839,-0.30112 3.2976,-2.059 1.8137,-1.75788 3.8387,-3.1962 4.5,-3.1962 2.0478,0 1.3233,2.8649 -1.045,4.1324 -1.2361,0.66152 -3.6466,2.7752 -5.3568,4.6971 -2.1621,2.4297 -3.6294,3.2948 -4.816,2.8395 -0.93859,-0.36018 -1.4264,-1.108 -1.0841,-1.6619 1.2891,-2.0858 -1.4962,-0.89384 -4.6568,1.9929 -3.681,3.3621 -4.8389,3.7135 -4.8389,1.4686 z m 193.5,-4.4686 c 0.7693,-2.4238 -1.6201,-2.7652 -3.5,-0.5 -1.3044,1.5717 -4,2.0589 -4,0.72286 0,-0.92919 5.6362,-7.2229 6.4684,-7.2229 0.31962,0 1.0088,1.125 1.5316,2.5 0.52277,1.375 1.6366,2.5 2.4752,2.5 1.8308,0 1.9652,1.1595 0.32475,2.8 -1.9692,1.9692 -4.021,1.4718 -3.3,-0.8 z m -30.375,-26.875 c 0.41825,-1.2547 1.875,-1.5461 1.875,-0.375 0,0.4125 -0.50625,0.91875 -1.125,1.125 -0.61875,0.20625 -0.95625,-0.13125 -0.75,-0.75 z m -138.55,-104 c -0.43077,-0.697 -0.51316,-1.5373 -0.18309,-1.8674 0.89496,-0.89496 1.8708,0.42131 1.3874,1.8714 -0.33872,1.0162 -0.57427,1.0154 -1.2043,-0.004 z" id="path2996" inkscape:connector-curvature="0" style="fill:#003c30;fill-opacity:1"/>
</g>
</g></g>
<rect height="17.763229" id="rect5818-6-6-9-3-0" style="fill:#00c8a6;fill-opacity:1;stroke:none;stroke-width:0.91443771;stroke-linecap:round;stroke-linejoin:bevel;stroke-miterlimit:4;stroke-dasharray:none;stroke-dashoffset:0;stroke-opacity:1" width="278.215" x="221.82033" y="560.66272"/>
<text id="fam_num" inkscape:label="#text5665-3-4-9-4-3-3-5-7-5-8-4-6-8-6-6-3-0-6-3" sodipodi:linespacing="0%" style="font-style:normal;font-weight:normal;line-height:0%;font-family:sans-serif;letter-spacing:0px;word-spacing:0px;fill:#000000;fill-opacity:1;stroke:none" x="232.24257" xml:space="preserve" y="578.73279"><tspan id="tspan5667-04-4-6-18-8-8-0-0-1-5-7-0-9-2-1-9-1-5-0" sodipodi:role="line" style="font-style:normal;font-variant:normal;font-weight:bold;font-stretch:normal;font-size:17.5px;line-height:1.25;font-family:STIX;-inkscape-font-specification:'STIX Bold';fill:#ffffff" x="232.24257" y="578.73279">3</tspan></text>
<rect height="15" id="ssfam_1_active" inkscape:label="#rect13148-3-0-9-3-80-7-7-3-3" style="fill:#ffffff;fill-opacity:1;stroke:none;stroke-width:5.83799982;stroke-linecap:round;stroke-linejoin:bevel;stroke-miterlimit:4;stroke-dasharray:none;stroke-dashoffset:0;stroke-opacity:1" transform="matrix(0,1,-1,0,0,0)" width="124.30313" x="431.19528" y="-510.96991"/>
<rect height="15" id="ssfam_2_active" inkscape:label="#rect13148-3-0-9-3-80-7-7-3-3" style="fill:#ffffff;fill-opacity:1;stroke:none;stroke-width:5.83799982;stroke-linecap:round;stroke-linejoin:bevel;stroke-miterlimit:4;stroke-dasharray:none;stroke-dashoffset:0;stroke-opacity:1;display:none;" transform="matrix(0,1,-1,0,0,0)" width="124.30313" x="270.72" y="-510.96991"/>
<rect height="15" id="ssfam_3_active" inkscape:label="#rect13148-3-0-9-3-80-7-7-3-3" style="fill:#ffffff;fill-opacity:1;stroke:none;stroke-width:5.83799982;stroke-linecap:round;stroke-linejoin:bevel;stroke-miterlimit:4;stroke-dasharray:none;stroke-dashoffset:0;stroke-opacity:1;display:none;" transform="matrix(0,1,-1,0,0,0)" width="124.30313" x="109.94095" y="-510.96991"/>
<text id="sfam_2" inkscape:label="#text4212-1-29-1-2-8-9-0-9-6-9-15-4-9-9-24-4-6-7-5-4-2-6-9" sodipodi:linespacing="0%" style="font-style:normal;font-variant:normal;font-weight:bold;font-stretch:normal;font-size:11.25px;line-height:0%;font-family:stix;-inkscape-font-specification:'stix, bold';text-align:center;letter-spacing:0px;word-spacing:0px;writing-mode:lr-tb;text-anchor:middle;fill:#FFFFFF;fill-opacity:1;stroke:none" transform="matrix(0,-1,1,0,0,0)" x="-333.20343" xml:space="preserve" y="222.81581"><tspan id="tspan4214-27-1-2-9-7-6-4-1-1-1-9-8-7-7-0-88-0-1-6-8-0-3-2" sodipodi:role="line" style="font-style:normal;font-variant:normal;font-weight:bold;font-stretch:normal;font-size:11.25px;line-height:0%;font-family:stix;-inkscape-font-specification:'stix, bold';text-align:center;letter-spacing:0px;word-spacing:0px;writing-mode:lr-tb;text-anchor:middle;fill:#FFFFFF;fill-opacity:1;stroke:none" x="-333.20343" y="222.81581">Mauvaise interprétation</tspan></text>
<text id="ssfam_3" inkscape:label="#text4212-1-29-1-2-8-9-0-9-6-9-8-3-1-0-6-92-3-6-9-3-6-2-3-39-8-5" sodipodi:linespacing="0%" style="font-style:normal;font-variant:normal;font-weight:bold;font-stretch:normal;font-size:12px;line-height:0%;font-family:stix;-inkscape-font-specification:'stix, bold';text-align:start;letter-spacing:0px;word-spacing:0px;writing-mode:lr-tb;text-anchor:start;fill:#FFFFFF;fill-opacity:1;stroke:none" transform="matrix(0,1,-1,0,0,0)" x="112.96895" xml:space="preserve" y="-499.04208"><rect height="23.57143" id="rect13148-3-36-1-5-8-4" rx="12.181818" ry="9.7777777" style="fill:#ffffff;fill-opacity:1;stroke:none;stroke-width:5.83799982;stroke-linecap:round;stroke-linejoin:bevel;stroke-miterlimit:4;stroke-dasharray:none;stroke-dashoffset:0;stroke-opacity:1" width="143.57144" x="289.14221" y="83.512375"/><tspan id="tspan4214-27-1-2-9-7-6-4-1-1-1-3-9-59-96-1-318-6-04-1-7-5-8-9-0-1-9" sodipodi:role="line" style="font-style:normal;font-variant:normal;font-weight:bold;font-stretch:normal;font-size:12px;line-height:0%;font-family:stix;-inkscape-font-specification:'stix, bold';text-align:start;letter-spacing:0px;word-spacing:0px;writing-mode:lr-tb;text-anchor:start;fill:#FFFFFF;fill-opacity:1;stroke:none" x="112.96895" y="-499.04208">Opération inappropriée</tspan></text>
<rect height="26.428572" id="rect13148-3-3-2-4-1-4-5" rx="8.4705887" ry="15" style="fill:#ffffff;fill-opacity:1;stroke:none;stroke-width:5.83799982;stroke-linecap:round;stroke-linejoin:bevel;stroke-miterlimit:4;stroke-dasharray:none;stroke-dashoffset:0;stroke-opacity:1" width="68.571434" x="326.64218" y="559.49841"/>
<text id="ssfam_2" inkscape:label="#text4212-1-29-1-2-8-9-0-9-6-9-15-7-7-8-9-7-6-1-0-8-29-4" sodipodi:linespacing="0%" style="font-style:normal;font-variant:normal;font-weight:bold;font-stretch:normal;font-size:11.25px;line-height:0%;font-family:stix;-inkscape-font-specification:'stix, bold';text-align:center;letter-spacing:0px;word-spacing:0px;writing-mode:lr-tb;text-anchor:middle;fill:#FFFFFF;fill-opacity:1;stroke:none" transform="matrix(0,1,-1,0,0,0)" x="332.53967" xml:space="preserve" y="-500.14215"><tspan id="tspan4214-27-1-2-9-7-6-4-1-1-1-9-41-5-8-6-2-8-2-8-38-3-6" sodipodi:role="line" style="font-style:normal;font-variant:normal;font-weight:bold;font-stretch:normal;font-size:11.25px;line-height:0%;font-family:stix;-inkscape-font-specification:'stix, bold';text-align:center;letter-spacing:0px;word-spacing:0px;writing-mode:lr-tb;text-anchor:middle;fill:#FFFFFF;fill-opacity:1;stroke:none" x="332.53967" y="-500.14215">Erreur de calcul</tspan></text>
<text id="ssfam_1" inkscape:label="#text4212-1-29-1-2-8-9-0-9-6-9-17-63-3-97-3-6-4-4-8-73-9-92" sodipodi:linespacing="0%" style="font-style:normal;font-variant:normal;font-weight:bold;font-stretch:normal;font-size:11.25px;line-height:0%;font-family:stix;-inkscape-font-specification:'stix, bold';text-align:end;letter-spacing:0px;word-spacing:0px;writing-mode:lr-tb;text-anchor:end;fill:#021c18;fill-opacity:1;stroke:none" transform="matrix(0,1,-1,0,0,0)" x="552.16217" xml:space="preserve" y="-498.74182"><tspan id="tspan4214-27-1-2-9-7-6-4-1-1-1-85-85-5-76-3-4-8-7-5-1-0-2" sodipodi:role="line" style="font-style:normal;font-variant:normal;font-weight:bold;font-stretch:normal;font-size:11.25px;line-height:0%;font-family:stix;-inkscape-font-specification:'stix, bold';text-align:end;letter-spacing:0px;word-spacing:0px;writing-mode:lr-tb;text-anchor:end;fill:#021c18;fill-opacity:1;stroke:none" x="552.16217" y="-498.74182">Imprécision</tspan></text>
<rect height="26.428572" id="rect13148-3-3-2-4-1-4-5-3" rx="9.6044884" ry="15" style="fill:#ffffff;fill-opacity:1;stroke:none;stroke-width:5.83799982;stroke-linecap:round;stroke-linejoin:bevel;stroke-miterlimit:4;stroke-dasharray:none;stroke-dashoffset:0;stroke-opacity:1" width="77.750618" x="322.05258" y="83.512375"/>
<text id="text" inkscape:label="#text5516-78-3-4-89-9-1-3-6-2-4-3-9-5-3-7-7-2-6-1-6-5-0-5-7" sodipodi:linespacing="0%" style="font-style:normal;font-variant:normal;font-weight:bold;font-stretch:normal;line-height:0%;font-family:stix;-inkscape-font-specification:'stix bold';text-align:end;letter-spacing:0px;word-spacing:0px;text-anchor:end;fill:#054b3e;fill-opacity:1;stroke:none" x="360.1904" xml:space="preserve" y="103.33736"><tspan id="tspan7135" sodipodi:role="line" style="font-style:normal;font-variant:normal;font-weight:bold;font-stretch:normal;font-size:25px;line-height:100%;font-family:STIX;-inkscape-font-specification:'STIX Bold';text-align:center;text-anchor:middle;fill:#490f07;fill-opacity:1" x="360.1904" y="103.33736">Imprécision</tspan><tspan id="tspan5338" sodipodi:role="line" style="font-style:normal;font-variant:normal;font-weight:bold;font-stretch:normal;font-size:25px;line-height:100%;font-family:STIX;-inkscape-font-specification:'STIX Bold';text-align:center;text-anchor:middle;fill:#490f07;fill-opacity:1" x="360.1904" y="128.33736"/></text>
<text id="sfam_1" inkscape:label="#text4212-1-29-1-2-8-9-0-9-6-9-17-4-1-5-6-8-7-5-1-12-0-9-54" sodipodi:linespacing="0%" style="font-style:normal;font-variant:normal;font-weight:bold;font-stretch:normal;font-size:11.25px;line-height:0%;font-family:stix;-inkscape-font-specification:'stix, bold';text-align:start;letter-spacing:0px;word-spacing:0px;writing-mode:lr-tb;text-anchor:start;fill:#FFFFFF;fill-opacity:1;stroke:none" transform="matrix(0,-1,1,0,0,0)" x="-552.40967" xml:space="preserve" y="222.81581"><tspan id="tspan4214-27-1-2-9-7-6-4-1-1-1-85-8-3-3-2-9-0-8-7-9-6-4-0" sodipodi:role="line" style="font-style:normal;font-variant:normal;font-weight:bold;font-stretch:normal;font-size:11.25px;line-height:0%;font-family:stix;-inkscape-font-specification:'stix, bold';text-align:start;letter-spacing:0px;word-spacing:0px;writing-mode:lr-tb;text-anchor:start;fill:#FFFFFF;fill-opacity:1;stroke:none" x="-552.40967" y="222.81581">Généralisation abusive</tspan></text>
<text id="text4212-1-29-1-2-8-9-0-9-67-9-6-3-5-23-0-1-7-3-2-3-4-7-8-8-8-4" sodipodi:linespacing="0%" style="font-style:normal;font-variant:normal;font-weight:bold;font-stretch:normal;font-size:15px;line-height:0%;font-family:STIX;-inkscape-font-specification:'STIX, Bold';text-align:center;letter-spacing:0px;word-spacing:0px;writing-mode:lr-tb;text-anchor:middle;fill:#1b0603;fill-opacity:1;stroke:none" x="360.3353" xml:space="preserve" y="578.3678"><tspan id="tspan3846" sodipodi:role="line" style="font-style:normal;font-variant:normal;font-weight:bold;font-stretch:normal;font-size:15px;line-height:1.25;font-family:STIX;-inkscape-font-specification:'STIX, Bold';text-align:center;writing-mode:lr-tb;text-anchor:middle;fill:#1b0603;fill-opacity:1" x="360.3353" y="578.3678">Erreur mathématique</tspan></text>
<flowRoot id="desc" inkscape:label="#flowRoot5388-1-9-2-7-9-4-63-8-65-6-8-7-2-3-5-4-9-17-61-1" style="font-style:normal;font-variant:normal;font-weight:bold;font-stretch:normal;line-height:0.01%;font-family:STIX;-inkscape-font-specification:'STIX Bold';text-align:center;letter-spacing:0px;word-spacing:0px;text-anchor:middle;fill:#1b0603;fill-opacity:1;stroke:none" transform="translate(351.61591,998.0622)" xml:space="preserve"><flowRegion id="flowRegion5390-2-2-5-6-3-9-94-3-6-8-8-5-1-8-5-4-6-9-15-2"><rect height="77.283951" id="rect5392-7-0-4-8-6-2-8-5-84-3-3-4-2-2-3-3-0-1-9-8" style="font-style:normal;font-variant:normal;font-weight:bold;font-stretch:normal;font-size:15px;line-height:100%;font-family:stix;-inkscape-font-specification:'stix bold';text-align:center;text-anchor:middle;fill:#00c8a6;fill-opacity:1" width="264.06375" x="-123.22692" y="-557.27393"/></flowRegion><flowPara id="flowPara5394-0-2-4-9-0-06-12-6-8-2-1-8-0-3-8-0-7-0-8-9" style="font-style:normal;font-variant:normal;font-weight:bold;font-stretch:normal;font-size:15px;line-height:100%;font-family:STIX;-inkscape-font-specification:'STIX Bold';text-align:center;text-anchor:middle;fill:#1b0603;fill-opacity:1">Votre argumentation se fonde sur des données trop vagues.</flowPara></flowRoot> <flowRoot id="example" inkscape:label="#flowRoot5388-1-9-2-7-9-4-63-8-92-2-3-8-9-5-4-5-19-0-3-48-36" style="font-style:normal;font-variant:normal;font-weight:bold;font-stretch:normal;line-height:0.01%;font-family:STIX;-inkscape-font-specification:'STIX Bold';text-align:center;letter-spacing:0px;word-spacing:0px;text-anchor:middle;fill:#1b0603;fill-opacity:1;stroke:none" transform="translate(226.9528,539.72829)" xml:space="preserve"><flowRegion id="flowRegion5390-2-2-5-6-3-9-94-3-17-8-6-9-1-6-0-9-6-1-59-1-8"><rect height="49.597897" id="rect5392-7-0-4-8-6-2-8-5-7-1-2-6-5-5-9-91-21-0-4-0-0" style="font-style:normal;font-variant:normal;font-weight:bold;font-stretch:normal;font-size:15px;line-height:100%;font-family:stix;-inkscape-font-specification:'stix bold';text-align:center;text-anchor:middle;fill:#00c8a6;fill-opacity:1;stroke-width:0.58746815" width="267.68024" x="0" y="0"/></flowRegion><flowPara id="flowPara5394-0-2-4-9-0-06-12-6-9-2-2-4-4-0-4-4-2-1-8-30-2" style="font-style:italic;font-variant:normal;font-weight:bold;font-stretch:normal;font-size:12.5px;line-height:100%;font-family:STIX;-inkscape-font-specification:'STIX Bold Italic';text-align:center;text-anchor:middle;fill:#1b0603;fill-opacity:1">Pour le même prix, offrez-vous notre nouvelle formule double fraicheur !</flowPara></flowRoot> </g>
</svg>