<?xml version="1.0" encoding="utf-8"?>
<!-- Created with Inkscape (http://www.inkscape.org/) --><svg height="152.42821mm" id="svg6779" inkscape:version="0.92.2 (unknown)" sodipodi:docname="niveau4.svg" version="1.1" viewBox="0 0 338.49999 540.09995" width="95.532219mm" xmlns="http://www.w3.org/2000/svg" xmlns:cc="http://creativecommons.org/ns#" xmlns:dc="http://purl.org/dc/elements/1.1/" xmlns:inkscape="http://www.inkscape.org/namespaces/inkscape" xmlns:rdf="http://www.w3.org/1999/02/22-rdf-syntax-ns#" xmlns:sodipodi="http://sodipodi.sourceforge.net/DTD/sodipodi-0.dtd" xmlns:svg="http://www.w3.org/2000/svg">
<defs id="defs6781"/>
<sodipodi:namedview bordercolor="#666666" borderopacity="1.0" id="base" inkscape:current-layer="layer1" inkscape:cx="35.268966" inkscape:cy="467.89903" inkscape:document-units="px" inkscape:pageopacity="0.0" inkscape:pageshadow="2" inkscape:window-height="728" inkscape:window-maximized="1" inkscape:window-width="1366" inkscape:window-x="0" inkscape:window-y="21" inkscape:zoom="0.98994949" pagecolor="#ffffff" showgrid="false"/>
<metadata id="metadata6784">
<rdf:RDF>
<cc:Work rdf:about="">
<dc:format>image/svg+xml</dc:format>
<dc:type rdf:resource="http://purl.org/dc/dcmitype/StillImage"/>
<dc:title/>
</cc:Work>
</rdf:RDF>
</metadata>
<g id="layer1" inkscape:groupmode="layer" inkscape:label="Calque 1" transform="translate(0,0.23029041)">
<rect height="539.09998" id="rect4326-0-3-6-4-3-2-61-6-9-9-5-0-7-0-5-8-8-9-4-5-5" inkscape:export-xdpi="90" inkscape:export-ydpi="90" style="fill:#ffffff;fill-opacity:1;stroke:#000000;stroke-opacity:1" width="337.5" x="0.5" y="0.26970959"/>
<rect height="486.97104" id="rect2985-3-0-7-7-6-9-6-2-0-3-5-4-5-0-77-3-1-3-5-5-4-3-9-7-0-1-8-1" inkscape:export-filename="/home/thomas/Documents/fallacies/png/rect2985-3-0-7-7.png" inkscape:export-xdpi="90" inkscape:export-ydpi="90" rx="9.2935619" ry="7.1613393" style="fill:#ffffff;fill-opacity:1;stroke:#6ab400;stroke-width:12;stroke-miterlimit:4;stroke-dasharray:none;stroke-dashoffset:0;stroke-opacity:1" width="285.0025" x="26.906189" y="26.612749"/>
<ellipse cx="169.40732" cy="279.7749" id="oval" inkscape:label="#path6246-7-6-6-9-7-6-9-3-1-1-722-4-6-4-7-1-9-6-2-0-7-5-4-6-9-9" rx="131.36859" ry="205.59465" style="fill:#6ab400;fill-opacity:1;stroke:#6ab400;stroke-width:1.01065052;stroke-opacity:1"/>
<rect height="15" id="sfam_3_active" inkscape:label="#rect13148-3-0-9-3-80-7-76-2" style="fill:#ffffff;fill-opacity:1;stroke:none;stroke-width:5.83799982;stroke-linecap:round;stroke-linejoin:bevel;stroke-miterlimit:4;stroke-dasharray:none;stroke-dashoffset:0;stroke-opacity:1" transform="rotate(90)" width="65.714287" x="50.147449" y="-34.050476"/>
<text id="sfam_3" inkscape:label="#text4212-1-29-1-2-8-9-0-9-6-9-8-3-1-0-6-8-0-4-2-3-6-9-3-6-2-6-4-2" style="font-style:normal;font-variant:normal;font-weight:bold;font-stretch:normal;font-size:12.00000095px;line-height:0%;font-family:'Liberation Serif';-inkscape-font-specification:'Liberation Serif, Bold';font-variant-ligatures:normal;font-variant-caps:normal;font-variant-numeric:normal;font-feature-settings:normal;text-align:end;letter-spacing:0px;word-spacing:0px;writing-mode:lr-tb;text-anchor:end;fill:#1b0603;fill-opacity:1;stroke:none" transform="rotate(-90)" x="-51.643555" xml:space="preserve" y="31.116638"><tspan id="tspan4214-27-1-2-9-7-6-4-1-1-1-3-9-59-96-1-6-2-1-8-8-2-7-4-5-4-7-3-9" sodipodi:role="line" style="font-style:normal;font-variant:normal;font-weight:bold;font-stretch:normal;font-size:12.00000095px;line-height:1.25;font-family:'Liberation Serif';-inkscape-font-specification:'Liberation Serif, Bold';font-variant-ligatures:normal;font-variant-caps:normal;font-variant-numeric:normal;font-feature-settings:normal;text-align:end;writing-mode:lr-tb;text-anchor:end;fill:#1b0603;fill-opacity:1;stroke:none" x="-51.643555" y="31.116638">Mauvaise déduction</tspan></text>
<rect height="17.763229" id="rect5818-6-6-9-3-0-7" style="fill:#6ab400;fill-opacity:1;stroke:none;stroke-width:0.91443771;stroke-linecap:round;stroke-linejoin:bevel;stroke-miterlimit:4;stroke-dasharray:none;stroke-dashoffset:0;stroke-opacity:1" width="278.215" x="30.299866" y="495.76239"/>
<text id="fam_num" inkscape:label="#text5665-3-4-9-4-3-3-5-7-5-8-4-6-8-6-6-3-0-6-3-4" style="font-style:normal;font-weight:normal;line-height:0%;font-family:sans-serif;letter-spacing:0px;word-spacing:0px;fill:#000000;fill-opacity:1;stroke:none" x="40.722107" xml:space="preserve" y="513.8327"><tspan id="tspan5667-04-4-6-18-8-8-0-0-1-5-7-0-9-2-1-9-1-5-0-3" sodipodi:role="line" style="font-style:normal;font-variant:normal;font-weight:bold;font-stretch:normal;font-size:17.5px;line-height:1.25;font-family:STIX;-inkscape-font-specification:'STIX Bold';fill:#ffffff" x="40.722107" y="513.8327">4</tspan></text>
<text id="sfam_2" inkscape:label="#text4212-1-29-1-2-8-9-0-9-6-9-15-4-9-9-24-4-6-7-5-4-2-6-9-5" style="font-style:normal;font-variant:normal;font-weight:bold;font-stretch:normal;line-height:0%;font-family:STIX;-inkscape-font-specification:'STIX Bold';letter-spacing:0px;word-spacing:0px;fill:#ffffff;fill-opacity:1;stroke:none" transform="rotate(-90)" x="-271.55652" xml:space="preserve" y="29.420349"><tspan id="tspan4214-27-1-2-9-7-6-4-1-1-1-9-8-7-7-0-88-0-1-6-8-0-3-2-6" sodipodi:role="line" style="font-style:normal;font-variant:normal;font-weight:bold;font-stretch:normal;font-size:10px;line-height:1.25;font-family:STIX;-inkscape-font-specification:'STIX Bold'" x="-271.55652" y="29.420349">Mauvaise composition</tspan></text>
<text id="sfam_1" inkscape:label="#text4212-1-29-1-2-8-9-0-9-6-9-17-4-1-5-6-8-7-5-1-12-0-9-54-1" style="font-style:normal;font-variant:normal;font-weight:bold;font-stretch:normal;line-height:0%;font-family:STIX;-inkscape-font-specification:'STIX Bold';letter-spacing:0px;word-spacing:0px;fill:#ffffff;fill-opacity:1;stroke:none" transform="rotate(-90)" x="-487.89233" xml:space="preserve" y="29.420349"><tspan id="tspan4214-27-1-2-9-7-6-4-1-1-1-85-8-3-3-2-9-0-8-7-9-6-4-0-4" sodipodi:role="line" style="font-style:normal;font-variant:normal;font-weight:bold;font-stretch:normal;font-size:10px;line-height:1.25;font-family:STIX;-inkscape-font-specification:'STIX Bold'" x="-487.89233" y="29.420349">Causalité douteuse</tspan></text>
<text id="ssfam_3" inkscape:label="#text4212-1-29-1-2-8-9-0-9-6-9-8-3-1-0-6-92-3-6-9-3-6-2-3-39-8-5-0" style="font-style:normal;font-variant:normal;font-weight:bold;font-stretch:normal;font-size:12.00000095px;line-height:0%;font-family:'Liberation Serif';-inkscape-font-specification:'Liberation Serif, Bold';font-variant-ligatures:normal;font-variant-caps:normal;font-variant-numeric:normal;font-feature-settings:normal;text-align:start;letter-spacing:0px;word-spacing:0px;writing-mode:lr-tb;text-anchor:start;fill:#500000;fill-opacity:1;stroke:none" transform="rotate(90)" x="38.246761" xml:space="preserve" y="-309.22137"><tspan id="tspan4214-27-1-2-9-7-6-4-1-1-1-3-9-59-96-1-318-6-04-1-7-5-8-9-0-1-9-3" sodipodi:role="line" style="font-style:normal;font-variant:normal;font-weight:bold;font-stretch:normal;font-size:12.00000095px;line-height:1.25;font-family:'Liberation Serif';-inkscape-font-specification:'Liberation Serif, Bold';font-variant-ligatures:normal;font-variant-caps:normal;font-variant-numeric:normal;font-feature-settings:normal;text-align:start;writing-mode:lr-tb;text-anchor:start;fill:#ffffff;fill-opacity:1;stroke:none" x="38.246761" y="-309.22137">Effet cigogne</tspan></text>
<text id="ssfam_2" inkscape:label="#text4212-1-29-1-2-8-9-0-9-6-9-15-7-7-8-9-7-6-1-0-8-29-4-1" style="font-style:normal;font-variant:normal;font-weight:bold;font-stretch:normal;line-height:0%;font-family:STIX;-inkscape-font-specification:'STIX Bold';letter-spacing:0px;word-spacing:0px;fill:#ffffff;fill-opacity:1;stroke:none" transform="rotate(90)" x="220.50974" xml:space="preserve" y="-309.22137"><tspan id="tspan4214-27-1-2-9-7-6-4-1-1-1-9-41-5-8-6-2-8-2-8-38-3-6-2" sodipodi:role="line" style="font-style:normal;font-variant:normal;font-weight:bold;font-stretch:normal;font-size:10px;line-height:1.25;font-family:STIX;-inkscape-font-specification:'STIX Bold'" x="220.50974" y="-309.22137">Inversion de causalité</tspan></text>
<rect height="15" id="ssfam_1_active" inkscape:label="#rect13148-3-0-9-3-80-7-7-3-3-7" style="fill:#ffffff;fill-opacity:1;stroke:none;stroke-width:5.83799982;stroke-linecap:round;stroke-linejoin:bevel;stroke-miterlimit:4;stroke-dasharray:none;stroke-dashoffset:0;stroke-opacity:1" transform="rotate(90)" width="124.30313" x="339.23779" y="-319.44952"/>
<text id="ssfam_1" inkscape:label="#text4212-1-29-1-2-8-9-0-9-6-9-17-63-3-97-3-6-4-4-8-73-9-92-7" style="font-style:normal;font-variant:normal;font-weight:bold;font-stretch:normal;font-size:12.00000095px;line-height:0%;font-family:STIX;-inkscape-font-specification:'STIX, Bold';font-variant-ligatures:normal;font-variant-caps:normal;font-variant-numeric:normal;font-feature-settings:normal;text-align:end;letter-spacing:0px;word-spacing:0px;writing-mode:lr-tb;text-anchor:end;fill:#1b0603;fill-opacity:1;stroke:none" transform="rotate(90)" x="462.18921" xml:space="preserve" y="-308.55173"><tspan id="tspan4214-27-1-2-9-7-6-4-1-1-1-85-85-5-76-3-4-8-7-5-1-0-2-9" sodipodi:role="line" style="font-style:normal;font-variant:normal;font-weight:bold;font-stretch:normal;font-size:12.00000095px;line-height:1.25;font-family:STIX;-inkscape-font-specification:'STIX, Bold';font-variant-ligatures:normal;font-variant-caps:normal;font-variant-numeric:normal;font-feature-settings:normal;text-align:end;writing-mode:lr-tb;text-anchor:end;fill:#1b0603;fill-opacity:1" x="462.18921" y="-308.55173">Pétition de principe</tspan></text>
<rect height="23.57143" id="rect13148-3-36-1-5-8-4-8" rx="8.7534218" ry="9.7777777" style="fill:#ffffff;fill-opacity:1;stroke:none;stroke-width:5.83799982;stroke-linecap:round;stroke-linejoin:bevel;stroke-miterlimit:4;stroke-dasharray:none;stroke-dashoffset:0;stroke-opacity:1" width="103.16534" x="118.54767" y="18.612719"/>
<text id="text" inkscape:label="#text5516-78-3-4-89-9-1-3-6-2-4-3-9-5-3-7-7-2-6-1-6-5-0-5-7-1" style="font-style:normal;font-variant:normal;font-weight:bold;font-stretch:normal;line-height:0%;font-family:STIX;-inkscape-font-specification:'STIX Bold';text-align:center;letter-spacing:0px;word-spacing:0px;writing-mode:lr-tb;text-anchor:middle;fill:#490f07;fill-opacity:1;stroke:none" x="169.24466" xml:space="preserve" y="39.097687"><tspan id="tspan9035" sodipodi:role="line" style="font-style:normal;font-variant:normal;font-weight:bold;font-stretch:normal;font-size:25px;line-height:100%;font-family:STIX;-inkscape-font-specification:'STIX Bold';text-align:center;writing-mode:lr-tb;text-anchor:middle;fill:#490f07;fill-opacity:1" x="169.24466" y="39.097687">Argument circulaire</tspan><tspan id="tspan5336" sodipodi:role="line" style="font-style:normal;font-variant:normal;font-weight:bold;font-stretch:normal;font-size:25px;line-height:100%;font-family:STIX;-inkscape-font-specification:'STIX Bold';text-align:center;writing-mode:lr-tb;text-anchor:middle;fill:#490f07;fill-opacity:1" x="169.24466" y="64.097687"/></text>
<rect height="26.428572" id="rect13148-3-3-2-4-1-4-5-6" rx="8.4705887" ry="15" style="fill:#ffffff;fill-opacity:1;stroke:none;stroke-width:5.83799982;stroke-linecap:round;stroke-linejoin:bevel;stroke-miterlimit:4;stroke-dasharray:none;stroke-dashoffset:0;stroke-opacity:1" width="68.571434" x="135.12161" y="494.59808"/>
<text id="fam_text" inkscape:label="#text4212-1-29-1-2-8-9-0-9-67-9-6-3-5-23-0-1-7-3-2-3-4-7-8-8-8-4-0" style="font-style:normal;font-variant:normal;font-weight:bold;font-stretch:normal;font-size:12.00000095px;line-height:0%;font-family:'Liberation Serif';-inkscape-font-specification:'Liberation Serif, Bold';font-variant-ligatures:normal;font-variant-caps:normal;font-variant-numeric:normal;font-feature-settings:normal;text-align:center;letter-spacing:0px;word-spacing:0px;writing-mode:lr-tb;text-anchor:middle;fill:#1b0603;fill-opacity:1;stroke:none" x="164.26151" xml:space="preserve" y="511.59271"><tspan id="tspan4214-27-1-2-9-7-6-4-1-5-2-3-65-0-7-6-31-5-8-5-4-6-0-1-0-5-8-1" sodipodi:role="line" style="font-style:normal;font-variant:normal;font-weight:bold;font-stretch:normal;font-size:12.00000095px;line-height:1.25;font-family:'Liberation Serif';-inkscape-font-specification:'Liberation Serif, Bold';font-variant-ligatures:normal;font-variant-caps:normal;font-variant-numeric:normal;font-feature-settings:normal;text-align:center;writing-mode:lr-tb;text-anchor:middle;fill:#1b0603;fill-opacity:1" x="164.26151" y="511.59271">Erreur
logique</tspan></text>
<flowRoot id="desc" inkscape:label="#flowRoot5388-1-9-2-7-9-4-63-8-65-6-8-7-2-3-5-4-9-17-61-1-0" style="font-style:normal;font-variant:normal;font-weight:bold;font-stretch:normal;line-height:0.01%;font-family:STIX;-inkscape-font-specification:'STIX Bold';text-align:center;letter-spacing:0px;word-spacing:0px;text-anchor:middle;fill:#1b0603;fill-opacity:1;stroke:none" transform="translate(161.20564,945.16255)" xml:space="preserve"><flowRegion id="flowRegion5390-2-2-5-6-3-9-94-3-6-8-8-5-1-8-5-4-6-9-15-2-2"><rect height="77.283951" id="rect5392-7-0-4-8-6-2-8-5-84-3-3-4-2-2-3-3-0-1-9-8-5" style="font-style:normal;font-variant:normal;font-weight:bold;font-stretch:normal;font-size:15px;line-height:100%;font-family:stix;-inkscape-font-specification:'stix bold';text-align:center;text-anchor:middle;fill:#6ab400;fill-opacity:1" width="264.06375" x="-123.22692" y="-557.27393"/></flowRegion><flowPara id="flowPara5394-0-2-4-9-0-06-12-6-8-2-1-8-0-3-8-0-7-0-8-9-1" style="font-style:normal;font-variant:normal;font-weight:bold;font-stretch:normal;font-size:15px;line-height:100%;font-family:STIX;-inkscape-font-specification:'STIX Bold';text-align:center;text-anchor:middle;fill:#1b0603;fill-opacity:1">Votre raisonnement repose sur des éléments qui présupposent la véracité de votre conclusion.</flowPara></flowRoot> <flowRoot id="example" inkscape:label="#flowRoot5388-1-9-2-7-9-4-63-8-92-2-3-8-9-5-4-5-19-0-3-48-36-9" style="font-style:normal;font-variant:normal;font-weight:bold;font-stretch:normal;line-height:0.01%;font-family:STIX;-inkscape-font-specification:'STIX Bold';text-align:center;letter-spacing:0px;word-spacing:0px;text-anchor:middle;fill:#1b0603;fill-opacity:1;stroke:none" transform="translate(158.93154,1003.4804)" xml:space="preserve"><flowRegion id="flowRegion5390-2-2-5-6-3-9-94-3-17-8-6-9-1-6-0-9-6-1-59-1-8-7"><rect height="48.063705" id="rect5392-7-0-4-8-6-2-8-5-7-1-2-6-5-5-9-91-21-0-4-0-0-1" style="font-style:normal;font-variant:normal;font-weight:bold;font-stretch:normal;font-size:15px;line-height:100%;font-family:stix;-inkscape-font-specification:'stix bold';text-align:center;text-anchor:middle;fill:#6ab400;fill-opacity:1;stroke-width:0.57831079" width="267.68024" x="-123.22692" y="-557.27393"/></flowRegion><flowPara id="flowPara5394-0-2-4-9-0-06-12-6-9-2-2-4-4-0-4-4-2-1-8-30-2-3" style="font-style:italic;font-variant:normal;font-weight:bold;font-stretch:normal;font-size:12.5px;line-height:100%;font-family:STIX;-inkscape-font-specification:'STIX Bold Italic';text-align:center;text-anchor:middle;fill:#1b0603;fill-opacity:1">L'existence de la Bible prouve celle de Dieu, puisque c'est lui qui l'a dictée aux hommes.</flowPara></flowRoot> <g id="illustration" inkscape:groupmode="layer" inkscape:label="#illustration" transform="translate(-6.802157,-67.336793)"><g id="581" inkscape:label="#g5721" transform="translate(-985.0042,-847.07408)">
<path d="m 1102.8062,1126.36 c -5.0506,21.7889 54.9327,2.3768 32.0833,14.7292 -13.5004,1.7927 -26.9586,10.5109 -4.7281,7.824 22.4276,-2.3347 56.9872,-4.9828 64.7702,-29.479 -0.4548,-24.424 -22.8387,-46.257 -45.7162,-51.7325 -24.29,-4.6545 -49.1817,-3.5314 -71.271,8.798 -19.391,13.2376 -38.8232,29.5228 -50.6753,50.1114 -7.6821,32.2499 -12.6404,69.5174 4.2156,99.7724 15.503,19.6855 30.7278,44.2654 58.2572,47.7808 31.427,4.3656 64.4478,13.0398 95.7831,4.5229 15.1988,-4.2334 38.735,-39.0345 35.9909,-6.3613 9.4443,31.7227 54.4484,-25.6532 18.4621,-5.3371 -23.9413,-3.9533 -5.0475,-42.5884 17.637,-33.6711 20.2409,-2.1552 8.3899,-29.585 28.8933,-34.797 -0.339,-23.0615 -21.1985,4.4106 -22.5302,15.3862 -28.0483,14.1003 -2.8636,-34.7238 -5.462,-49.9958 4.8882,-24.6454 -3.6732,-48.699 -16.4748,-69.5462 -7.5964,-22.2601 -34.3908,-28.8904 -48.8676,-40.7383 8.66,-1.9334 36.3841,-7.2211 12.264,-11.1247 -19.2703,-0.3028 17.6027,-23.9247 -6.6393,-8.7223 -19.8133,8.2927 -47.7046,-1.7828 -63.8494,17.5804 -13.4893,22.2938 35.8525,9.9309 46.9495,23.2555 25.832,17.304 44.4414,55.5019 24.0995,83.6989 -16.9259,16.2344 -40.6708,27.2622 -51.3814,49.4623 -13.7537,16.2454 -37.7756,23.1287 -57.8664,24.9588 -21.8017,-8.2653 -42.0659,-24.5302 -46.1485,-48.7408 -5.044,-26.9427 -5.9251,-58.7682 11.2586,-81.7906 22.6106,-21.323 57.1002,-21.6408 86.3144,-21.5022 16.3803,-2.5817 49.6578,33.5731 25.2989,38.6739 -22.4365,-17.899 -44.0853,4.4034 -70.6674,6.9842 z" id="path4415-9" inkscape:connector-curvature="0" style="fill:#ffffff;fill-opacity:1;fill-rule:evenodd;stroke:none;stroke-width:1px;stroke-linecap:butt;stroke-linejoin:miter;stroke-opacity:1"/>
<path d="m 1136.8371,1285.7917 c -3.6578,-0.2189 -12.1284,-1.1363 -15.4926,-1.678 -4.6376,-0.7469 -9.4783,-1.7716 -11.9861,-2.5374 -0.5375,-0.1642 -1.5519,-0.3638 -2.2543,-0.4436 -2.2135,-0.2515 -9.2712,-2.6511 -14.82,-5.0387 -0.9718,-0.4182 -2.0433,-0.8496 -2.3813,-0.9587 -0.338,-0.1092 -1.1676,-0.5323 -1.8436,-0.9402 -0.676,-0.4079 -1.8528,-0.9776 -2.6151,-1.2661 -1.4837,-0.5613 -5.2252,-2.3955 -9.2145,-4.517 -5.2663,-2.8007 -8.6073,-4.8992 -11.4455,-7.1889 -0.8027,-0.6476 -1.8429,-1.3607 -2.3114,-1.5847 -1.2066,-0.5768 -4.4687,-3.2797 -6.8226,-5.6533 -1.1024,-1.1115 -3.0551,-2.86 -4.3393,-3.8856 -1.4703,-1.1742 -2.7033,-2.3063 -3.3294,-3.057 -1.3525,-1.6215 -3.4211,-4.5308 -3.8916,-5.4732 -0.2418,-0.4843 -1.0918,-1.4897 -2.2775,-2.6938 -1.2788,-1.2987 -1.9236,-2.0701 -1.9903,-2.3813 -0.1623,-0.7575 -0.4674,-1.3433 -1.0798,-2.0733 -1.2026,-1.4336 -1.8506,-2.4247 -2.9366,-4.4914 -0.6151,-1.1708 -1.333,-2.3996 -1.5952,-2.7306 -0.69,-0.8712 -1.4831,-2.4617 -1.6141,-3.2367 -0.074,-0.437 -0.3147,-0.912 -0.693,-1.3661 -0.92,-1.1044 -2.0922,-3.2957 -2.3705,-4.4312 -0.1396,-0.5696 -0.4057,-1.2856 -0.5913,-1.591 -0.1857,-0.3055 -0.5633,-0.9259 -0.8391,-1.3786 -0.2758,-0.4528 -0.5387,-0.9961 -0.5841,-1.2074 -0.045,-0.2112 -0.284,-0.9026 -0.5302,-1.5363 -0.2462,-0.6337 -0.4944,-1.3596 -0.5517,-1.6131 -0.057,-0.2535 -0.2672,-0.7873 -0.4665,-1.1863 -0.1994,-0.3989 -0.5025,-1.3259 -0.6737,-2.0599 -0.1711,-0.734 -0.6226,-2.122 -1.0032,-3.0844 -0.3806,-0.9623 -0.8238,-2.3898 -0.9848,-3.1722 -0.4447,-2.1614 -1.3464,-5.7162 -1.7921,-7.0655 -0.2882,-0.8722 -0.5844,-1.4148 -1.0721,-1.9639 -0.3706,-0.4173 -0.6747,-0.8775 -0.6758,-1.0225 0,-0.1451 0.116,-0.7684 0.2603,-1.3853 0.2469,-1.0557 0.2471,-1.1956 0,-2.3813 -0.3043,-1.4723 -0.4986,-4.2791 -0.7307,-10.5544 -0.092,-2.4927 -0.2061,-5.5691 -0.2532,-6.8366 -0.065,-1.7416 -0.024,-2.6797 0.1657,-3.8408 0.2671,-1.6329 0.5951,-4.7676 0.8682,-8.296 0.2238,-2.8918 0.5499,-5.0429 0.8536,-5.6301 0.1377,-0.2662 0.3172,-0.967 0.399,-1.5573 0.1652,-1.1919 1.1358,-4.711 2.7422,-9.9425 0.5837,-1.9012 1.1692,-3.9244 1.301,-4.4959 0.1318,-0.5715 0.5566,-1.7814 0.9442,-2.6885 0.7533,-1.7636 1.1152,-2.7503 1.901,-5.1829 0.2729,-0.845 0.7903,-2.124 1.1498,-2.8422 0.3594,-0.7182 0.7053,-1.5478 0.7684,-1.8436 0.16,-0.7488 0.5731,-1.5205 1.4771,-2.7596 0.5044,-0.6913 0.857,-1.3749 1.0085,-1.9554 0.1282,-0.4909 0.5654,-1.5972 0.9717,-2.4586 0.4062,-0.8613 0.8249,-1.8276 0.9304,-2.1471 0.2208,-0.669 0.4073,-0.9832 1.4125,-2.3793 0.4014,-0.5575 0.7297,-1.0848 0.7297,-1.1718 0,-0.087 0.5377,-0.7695 1.1949,-1.5168 1.3604,-1.5469 1.8778,-2.2421 1.8778,-2.5231 0,-0.1074 0.4021,-0.5807 0.8936,-1.0517 0.4915,-0.471 1.256,-1.3949 1.6988,-2.0532 1.1615,-1.7265 4.247,-5.3897 8.7249,-10.3585 1.3735,-1.524 4.2874,-4.0609 5.3678,-4.6733 0.4313,-0.2445 1.6412,-1.1761 2.6885,-2.0702 3.7199,-3.1756 10.5662,-8.1011 14.7681,-10.6248 2.2763,-1.3672 5.8523,-3.1946 8.6446,-4.4176 1.0139,-0.4442 2.6056,-1.1544 3.5371,-1.5782 0.9315,-0.4238 2.4525,-0.9897 3.3799,-1.2574 0.9275,-0.2678 3.0372,-0.9239 4.6884,-1.4581 1.6511,-0.5341 3.6214,-1.0914 4.3784,-1.2383 1.7561,-0.3409 2.6951,-0.5841 3.7851,-0.9804 0.994,-0.3614 6.7574,-1.8941 10.1891,-2.7096 1.8067,-0.4293 2.8061,-0.5742 4.6268,-0.6708 1.2773,-0.068 2.3993,-0.1709 2.4935,-0.2291 0.2989,-0.1847 3.4296,-0.546 4.7862,-0.5523 1.7291,-0.01 3.1939,-0.2304 3.5316,-0.5359 0.294,-0.2662 0.4926,-0.9372 0.7599,-2.5683 0.2428,-1.4808 0.6665,-2.3442 1.5934,-3.2468 1.0311,-1.004 2.0805,-1.5724 3.4258,-1.8556 1.1086,-0.2333 5.2766,-1.8463 6.9804,-2.7014 2.6613,-1.3356 4.9953,-3.191 6.7887,-5.3966 1.7051,-2.097 3.4243,-3.4828 5.7996,-4.6749 2.9964,-1.5038 4.1502,-1.6805 10.1429,-1.5533 2.4081,0.051 5.2639,0.1654 6.3462,0.2539 l 1.9676,0.1609 1.2586,-1.1568 c 2.0677,-1.9005 3.1976,-2.5897 7.5309,-4.594 1.7265,-0.7986 2.2104,-0.8818 7.2473,-1.2465 4.7675,-0.3452 5.3044,-0.5068 8.1385,-2.4492 4.6866,-3.212 7.5488,-4.3597 11.7567,-4.7143 1.8171,-0.1531 2.5138,-0.1346 5.6248,0.1498 3.6585,0.3343 4.3612,0.4722 4.3612,0.8557 0,0.4278 -0.7758,0.8271 -2.571,1.3233 -2.605,0.7202 -5.6576,1.7885 -6.7212,2.3524 -1.1219,0.5948 -3.589,2.9332 -5.4547,5.1701 -1.4011,1.6799 -2.0427,2.2748 -4.0214,3.7292 -1.3466,0.9898 -1.5792,1.4022 -1.0297,1.8263 0.6662,0.5143 2.6574,1.4873 3.8918,1.9017 2.1104,0.7084 5.2959,0.6713 8.1369,-0.095 1.6218,-0.4373 4.8759,-0.6576 7.0286,-0.4759 1.5759,0.1331 1.9352,0.2193 2.9523,0.7085 2.485,1.1953 5.6274,3.664 5.8641,4.6069 0.1837,0.7319 -0.031,0.7904 -2.5918,0.7061 -4.372,-0.1439 -5.2827,-0.091 -6.4825,0.3767 -0.5915,0.2305 -2.7692,0.9955 -4.8394,1.6999 -2.0701,0.7044 -5.2849,1.8465 -7.1438,2.5378 -1.859,0.6914 -3.7601,1.3574 -4.2249,1.4801 -2.9069,0.7675 -4.1988,1.3271 -4.2733,1.8514 -0.059,0.4157 0.6135,0.8652 3.7356,2.4958 3.0713,1.6042 10.8255,6.0399 12.3673,7.0747 0.7182,0.482 2.1355,1.5261 3.1495,2.3202 1.0139,0.7942 2.6386,2.0393 3.6103,2.7671 6.6131,4.9527 15.4867,14.7189 18.1283,19.9517 0.2476,0.4905 0.7815,1.2705 1.1865,1.7333 0.4049,0.4627 1.1118,1.5238 1.5708,2.358 0.459,0.8342 1.1196,1.9661 1.4679,2.5153 0.3483,0.5492 0.9288,1.5362 1.2898,2.1933 0.361,0.6571 1.0199,1.6745 1.4642,2.2609 0.4443,0.5864 1.1305,1.6734 1.5251,2.4156 0.3945,0.7422 1.0638,1.7988 1.4873,2.348 1.4301,1.8548 1.9915,2.7463 2.9857,4.7416 1.533,3.0765 2.3552,4.9816 2.6911,6.2348 0.364,1.3586 0.8158,2.5184 2.5539,6.5565 1.0153,2.3586 1.3462,3.3114 1.5209,4.3785 0.1228,0.7501 0.4324,2.0897 0.6881,2.9769 0.9781,3.3946 1.5168,7.0197 1.9174,12.905 0.5423,7.967 0.7662,17.2875 0.5479,22.8143 -0.2581,6.5377 -0.4979,8.516 -1.6665,13.7499 -0.3491,1.5633 -1.0156,4.8471 -1.4811,7.2975 -0.8157,4.2928 -1.0181,5.1521 -2.0455,8.6802 -0.2583,0.8872 -0.8201,2.9395 -1.2484,4.5606 -0.7307,2.7658 -1.2749,4.2276 -3.3925,9.1126 -0.602,1.3889 -0.9439,2.5171 -1.8597,6.1381 -0.6483,2.5634 -0.7697,3.2427 -0.6588,3.6871 0.1589,0.6371 0.07,0.6307 2.4379,0.1755 3.6661,-0.7046 4.7188,-1.1366 7.912,-3.2466 2.274,-1.5026 3.5775,-2.77 4.8927,-4.7569 1.1321,-1.7103 4.0615,-7.5834 4.312,-8.6452 0.095,-0.4032 0.7488,-2.2353 1.4525,-4.0712 0.7038,-1.8359 1.4032,-3.7356 1.5543,-4.2214 0.3011,-0.9681 1.9378,-4.2977 3.0038,-6.1103 1.6432,-2.7944 4.2973,-4.3323 6.2564,-3.6252 0.9664,0.3488 1.861,1.0163 3.7332,2.7857 0.9229,0.8721 2.1797,1.9153 2.7931,2.3181 1.7195,1.1294 2.5529,1.8779 3.0438,2.7337 0.7485,1.305 0.6554,1.9223 -0.8247,5.4699 -0.3109,0.7453 -0.6131,1.8051 -0.7038,2.469 -0.187,1.368 -0.9251,3.5619 -1.5961,4.7445 -0.6062,1.0681 -1.7523,2.1615 -2.9155,2.7815 -0.9825,0.5237 -0.8065,0.5138 -3.7361,0.2088 l -0.9341,-0.097 -0.5001,0.6313 c -0.275,0.3472 -0.9781,1.3361 -1.5623,2.1974 l -1.0624,1.566 v 3.6188 c 0,4.883 -0.2901,6.2035 -1.5267,7.0369 -0.9797,0.6602 -1.5932,0.7223 -3.3974,0.3436 -1.122,-0.2354 -1.9831,-0.3232 -2.7766,-0.2832 -1.116,0.056 -1.1743,0.079 -1.9636,0.7697 -0.4473,0.3913 -1.2034,0.9045 -1.68,1.1403 -0.4767,0.2358 -1.3852,0.7869 -2.0189,1.2247 -1.1515,0.7953 -2.7886,1.7485 -6.8366,3.9806 -1.183,0.6523 -2.6338,1.5364 -3.2241,1.9647 -0.5903,0.4283 -1.6964,1.1389 -2.4581,1.5791 -0.7617,0.4402 -2.249,1.3658 -3.3052,2.057 -2.0143,1.3181 -2.1528,1.4678 -3.143,3.3989 -1.0862,2.1183 -2.5542,3.2337 -4.5386,3.4488 -0.5492,0.06 -1.1513,0.2052 -1.3379,0.3236 -0.4065,0.2579 -0.7466,1.2952 -1.4346,4.3751 -0.2723,1.2194 -0.6936,2.7133 -0.9361,3.3199 -0.9327,2.333 -1.4512,7.4062 -1.1954,11.6958 0.1506,2.5262 0.3838,3.6815 0.8459,4.1921 0.5643,0.6236 1.3928,0.236 3.5296,-1.6513 2.8165,-2.4877 5.1845,-4.2117 7.9796,-5.8094 1.7929,-1.0249 2.3177,-1.4883 3.2245,-2.8471 0.8503,-1.2741 2.7685,-3.1375 3.6345,-3.5304 0.815,-0.3699 1.7974,-0.3916 2.9071,-0.064 1.0699,0.3156 1.8752,1.1349 2.643,2.6888 0.7035,1.4237 0.7445,2.2634 0.1887,3.8544 -0.2113,0.6047 -0.3829,1.2429 -0.3815,1.4182 0,0.1754 0.3118,0.8331 0.6897,1.4615 0.378,0.6285 0.7317,1.3797 0.7861,1.6694 0.1237,0.6597 -0.1522,1.9183 -0.71,3.2387 -0.2361,0.559 -0.7197,1.846 -1.0746,2.8599 -0.9576,2.7356 -1.4721,3.7232 -2.4484,4.6996 -1.2302,1.2302 -1.9175,1.4316 -4.5255,1.3259 -1.5211,-0.062 -2.3533,-0.1788 -3.3973,-0.4783 -1.465,-0.4203 -2.6976,-0.5063 -3.4049,-0.2374 -0.236,0.09 -1.1911,0.6691 -2.1224,1.2874 -3.2314,2.1455 -12.2552,7.1528 -12.8902,7.1528 -0.7661,0 -2.8689,-1.4625 -3.3895,-2.3575 -0.7678,-1.3196 -1.9525,-6.1298 -2.9284,-11.8899 -0.7572,-4.4686 -2.4593,-11.2648 -3.1844,-12.7149 -0.3404,-0.6806 -0.7121,-1.1522 -0.9082,-1.1522 -0.07,0 -1.024,0.8917 -2.1188,1.9816 -2.3746,2.3639 -6.1477,5.6445 -7.5378,6.5541 -0.5492,0.3593 -1.9648,1.4214 -3.1457,2.3602 -1.1809,0.9388 -2.4253,1.8516 -2.7653,2.0285 -0.3401,0.1768 -1.206,0.7521 -1.9242,1.2783 -1.9089,1.3987 -3.8264,2.5173 -7.4135,4.3247 -5.3784,2.71 -9.9151,4.597 -14.5287,6.0431 -1.1258,0.3528 -2.602,0.8856 -3.2803,1.1838 -2.0536,0.9029 -5.7411,1.7015 -10.9235,2.3657 -1.3346,0.171 -2.8215,0.4104 -3.3043,0.5319 -2.099,0.5282 -20.4881,1.3129 -24.7675,1.0569 z m -1.9871,-3.136 c 0.671,-0.3591 0.3602,-0.8318 -2.5118,-3.8205 -4.1943,-4.3645 -7.3722,-8.8902 -8.3947,-11.9549 -0.3778,-1.1324 -0.4242,-2.5298 -0.093,-2.8046 0.3488,-0.2894 0.9185,0.4433 2.4784,3.1877 1.9905,3.5017 3.2141,5.0732 6.4936,8.3393 3.3613,3.3475 4.347,4.1169 6.9532,5.4269 2.4785,1.2457 3.1808,1.3831 7.1244,1.3932 2.8375,0.01 3.1185,-0.017 3.6725,-0.3149 l 0.5998,-0.3228 -0.8303,-0.6228 c -0.4567,-0.3426 -1.5482,-1.0134 -2.4256,-1.4907 -2.0114,-1.0941 -3.0629,-1.8084 -4.7477,-3.225 -3.3254,-2.796 -6.5763,-6.7959 -8.1187,-9.9893 -0.6182,-1.2799 -0.6454,-1.7645 -0.1313,-2.3386 l 0.386,-0.4311 0.4624,0.536 c 0.6389,0.7408 2.5833,3.5579 3.2841,4.7582 0.9774,1.6741 3.2457,3.8801 5.8113,5.6518 2.0276,1.4002 7.3439,4.3012 8.8006,4.8024 0.7483,0.2574 1.165,0.3364 4.4519,0.8439 0.845,0.1305 2.2909,0.4503 3.2132,0.7107 1.5169,0.4284 1.8011,0.4632 2.9799,0.365 2.5258,-0.2104 6.5924,-1.243 6.7462,-1.7131 0.084,-0.256 -1.704,-1.3036 -5.7073,-3.3444 -4.1604,-2.1208 -5.4972,-2.9673 -7.4736,-4.7324 -2.8584,-2.5528 -6.1159,-6.3569 -7.1721,-8.3754 -0.4827,-0.9225 -0.3859,-1.3105 0.3487,-1.3973 0.7012,-0.083 1.0376,0.2124 2.5529,2.24 1.1379,1.5227 1.9063,2.3428 3.6672,3.9138 2.8625,2.5539 4.2414,3.4671 8.0388,5.3244 4.9366,2.4144 7.5416,3.2525 12.0579,3.8791 l 2.3523,0.3264 1.6421,-0.7755 c 0.9032,-0.4265 2.236,-1.0479 2.9618,-1.3809 2.0555,-0.943 1.9752,-1.4914 -0.3503,-2.3924 -1.7485,-0.6775 -6.0853,-2.8535 -8.1811,-4.1048 -2.3369,-1.3953 -4.0897,-2.7713 -6.4295,-5.0472 -3.1452,-3.0593 -4.0852,-4.4159 -4.2196,-6.09 -0.084,-1.0524 0.024,-1.1822 0.8077,-0.9672 0.3673,0.1007 0.5466,0.3114 0.8824,1.0369 1.2656,2.7341 8.4493,7.9507 15.4476,11.2176 3.8349,1.7901 4.2716,1.9054 7.1782,1.8954 2.9453,-0.01 4.528,-0.3247 6.4368,-1.2788 1.333,-0.6662 4.3513,-2.6206 5.0446,-3.2663 0.4443,-0.4139 0.563,-1.0714 0.2304,-1.277 -0.1056,-0.065 -1.1599,-0.2027 -2.3429,-0.3055 -2.5884,-0.2247 -4.0179,-0.6173 -6.9139,-1.8986 -1.267,-0.5605 -2.5785,-1.0233 -3.2809,-1.1577 -1.5104,-0.289 -2.3248,-0.8407 -4.6409,-3.1436 -3.5677,-3.5473 -4.7797,-5.5717 -3.8766,-6.4748 l 0.3084,-0.3084 0.7787,0.9718 c 0.9005,1.1239 2.0279,2.2335 3.3375,3.2847 1.0009,0.8034 5.061,2.8327 7.7587,3.8779 3.8396,1.4877 5.8453,1.8518 10.9075,1.9802 l 3.6103,0.091 1.9972,-1.6188 c 2.3631,-1.9153 2.7304,-2.2847 2.6026,-2.6178 -0.1576,-0.4107 -1.2789,-0.6965 -3.1059,-0.7919 -2.6323,-0.1375 -4.7804,-0.6875 -6.9586,-1.782 -3.1775,-1.5965 -7.6058,-5.687 -8.1281,-7.5081 -0.3498,-1.2199 0.4924,-0.8398 2.6567,1.1989 3.1589,2.9754 6.1764,4.4872 10.4974,5.2591 2.5349,0.4529 8.4639,0.5144 9.2297,0.096 0.6236,-0.3408 1.2719,-1.2809 1.2719,-1.8443 0,-0.4781 -0.5067,-1.5495 -1.4071,-2.9754 l -0.595,-0.9422 -2.494,-0.079 c -2.8598,-0.091 -3.6748,-0.2701 -5.7204,-1.2587 -1.468,-0.7095 -3.0216,-1.9705 -3.6194,-2.9378 -0.641,-1.0371 0.1307,-1.0956 1.5661,-0.1186 1.7449,1.1876 4.006,1.9434 5.8527,1.9562 0.9359,0.01 1.078,-0.035 1.4979,-0.4372 0.5281,-0.506 0.6127,-1.1899 0.2372,-1.9161 -0.3494,-0.6757 -1.0854,-1.0307 -2.3703,-1.1432 -1.546,-0.1354 -3.0874,-0.8403 -3.0874,-1.4118 0,-0.4999 0.4699,-0.6785 1.7847,-0.6785 1.1775,0 1.338,-0.036 1.679,-0.3771 0.4928,-0.4927 0.4913,-1.177 -0.01,-3.0945 -0.6163,-2.3723 -0.4883,-3.3228 0.5852,-4.3446 0.6594,-0.6277 1.0495,-0.5836 1.9379,0.219 0.857,0.7743 1.0851,1.3781 1.2399,3.2834 0.1539,1.8933 1.0915,6.6981 1.5412,7.8978 0.1638,0.437 0.6205,1.3476 1.0147,2.0235 0.3943,0.676 0.962,1.6785 1.2616,2.2277 0.2996,0.5492 0.8373,1.3969 1.1951,1.8837 1.3073,1.779 2.2345,4.2063 3.959,10.3641 0.644,2.2999 1.0592,4.1143 1.1684,5.1061 0.093,0.8463 0.3367,2.0981 0.5414,2.782 0.2047,0.6838 0.4409,1.9119 0.525,2.729 0.084,0.8171 0.2965,1.9004 0.4723,2.4074 0.1757,0.507 0.4158,1.6823 0.5335,2.6118 0.2219,1.7529 0.4233,2.4769 1.0082,3.6252 0.4937,0.9693 1.0524,1.6589 1.5544,1.9185 0.3888,0.2011 0.4895,0.1976 0.935,-0.032 0.2746,-0.1414 0.7759,-0.4817 1.1139,-0.7562 1.2308,-0.9998 6.6864,-4.3555 7.9161,-4.8692 0.2981,-0.1245 1.3812,-0.7516 2.4069,-1.3934 1.0257,-0.6419 2.2187,-1.2828 2.6512,-1.4243 1.1625,-0.3802 2.8909,-0.2477 4.0819,0.3129 1.7306,0.8146 4.1653,0.5028 5.8014,-0.7432 0.8031,-0.6115 1.0175,-1.044 1.1335,-2.2863 0.068,-0.7304 0.03,-1.0935 -0.152,-1.4455 -0.2215,-0.4282 -1.0471,-0.9724 -1.4754,-0.9724 -0.096,0 -1.0747,0.3482 -2.1761,0.7739 -1.1013,0.4256 -2.43,0.8811 -2.9525,1.012 -0.5226,0.131 -1.7935,0.6815 -2.8242,1.2233 -1.9286,1.0138 -2.5971,1.1779 -3.0312,0.7438 -0.3833,-0.3834 -0.2935,-0.6051 0.5538,-1.3669 1.0507,-0.9446 1.8102,-1.3748 3.2673,-1.8504 1.495,-0.488 3.1757,-1.2585 4.7186,-2.163 1.6958,-0.9942 1.8613,-1.0217 3.5301,-0.5869 2.2382,0.5831 2.591,0.4796 2.591,-0.7604 0,-1.0988 -1.9307,-2.0813 -3.6646,-1.8647 -1.0811,0.1351 -3.0371,0.8469 -5.6381,2.0517 -2.791,1.2928 -3.7919,1.476 -3.5284,0.646 0.1895,-0.597 1.7967,-2.0992 2.3663,-2.2116 0.5793,-0.1144 1.9525,-1.3668 1.7889,-1.6316 -0.2355,-0.3811 -1.0144,-0.134 -2.3329,0.7402 -0.7472,0.4953 -1.9461,1.2868 -2.6643,1.7588 -0.7183,0.472 -2.5066,1.8922 -3.9742,3.1561 -4.2574,3.6663 -4.8908,3.8491 -6.46,1.8638 -1.2871,-1.6283 -1.5429,-3.1667 -1.5453,-9.2925 0,-4.369 0.1361,-6.0919 0.6006,-7.516 0.1675,-0.5136 0.4154,-1.5559 0.5509,-2.3164 0.1354,-0.7605 0.4474,-2.3851 0.6934,-3.6103 0.8277,-4.1242 1.31,-9.1223 1.9939,-20.6634 0.3738,-6.3075 0.5252,-7.6439 1.036,-9.1411 0.3854,-1.1297 0.3949,-1.2625 0.4842,-6.7907 0.096,-5.974 0.1413,-6.3105 0.7646,-5.7464 0.4212,0.3811 0.8824,1.5285 1.4143,3.5181 0.7528,2.8159 0.743,3.5111 -0.1651,11.6307 -0.9956,8.9033 -1.0206,9.7591 -0.2962,10.1468 0.6956,0.3723 1.8592,-0.9392 3.0734,-3.4638 1.092,-2.2706 1.7582,-4.4379 2.2904,-7.4511 0.2611,-1.4787 0.6468,-3.3453 0.857,-4.1481 0.3707,-1.415 1.574,-9.3752 1.8973,-12.5501 0.478,-4.6942 0.5756,-19.9628 0.1644,-25.704 -0.7206,-10.0614 -0.7791,-10.6769 -1.2334,-12.9819 -0.1666,-0.8449 -0.4743,-2.5136 -0.6838,-3.7082 -0.2096,-1.1945 -0.6992,-3.2685 -1.088,-4.6089 -0.3888,-1.3404 -0.8732,-3.1868 -1.0764,-4.1032 -0.7451,-3.3588 -1.8571,-6.165 -4.7091,-11.8835 -1.6771,-3.3629 -2.177,-4.505 -2.2347,-5.1057 -0.1546,-1.6087 0.8307,-1.0253 2.4469,1.4487 1.5983,2.4466 4.0663,7.5541 5.2336,10.831 2.5293,7.0999 3.368,10.2239 4.3312,16.1312 0.7446,4.5673 0.9951,6.8972 1.1686,10.869 0.082,1.8798 0.2545,4.1179 0.383,4.9736 0.553,3.6813 0.6187,11.8092 0.1405,17.3615 -0.2586,3.0024 -0.2859,5.869 -0.06,6.2912 0.223,0.4167 0.647,0.1651 1.1255,-0.6678 0.9204,-1.6023 2.7848,-8.2022 3.7859,-13.4015 0.2603,-1.352 0.7481,-3.7025 1.0839,-5.2235 0.3358,-1.5209 0.7129,-3.5603 0.838,-4.5321 0.125,-0.9717 0.36,-2.4235 0.5223,-3.2262 0.6187,-3.0612 0.5378,-11.7302 -0.1424,-15.2551 -0.1704,-0.8828 -0.3777,-2.3179 -0.4607,-3.1891 -0.083,-0.8712 -0.3216,-2.28 -0.5301,-3.1307 -0.2086,-0.8506 -0.4525,-2.3269 -0.5421,-3.2806 -0.138,-1.4694 -0.3392,-2.2898 -1.319,-5.3771 -2.5703,-8.0995 -3.8971,-11.4803 -6.6147,-16.8554 -2.1756,-4.3031 -3.3127,-6.4399 -4.0471,-7.6047 -2.459,-3.9007 -7.0972,-10.8552 -8.0234,-12.0303 -0.5864,-0.7441 -1.2129,-1.6082 -1.3922,-1.9204 -0.4086,-0.7113 -0.9417,-1.3719 -4.1154,-5.0996 -1.4028,-1.6477 -3.5353,-4.2225 -4.7389,-5.7218 -3.423,-4.264 -7.3338,-8.1602 -10.3872,-10.3484 -0.676,-0.4844 -1.7821,-1.3314 -2.4581,-1.8822 -2.518,-2.0517 -6.0226,-4.1299 -8.7275,-5.1753 -1.0302,-0.3982 -2.9446,-1.1705 -4.2543,-1.7162 -5.1338,-2.1391 -7.6881,-2.9347 -13.4856,-4.2001 -2.9027,-0.6336 -2.9682,-0.6407 -3.2789,-0.3595 -0.763,0.6905 -0.7189,0.7635 0.9752,1.6134 3.1318,1.5711 6.7695,3.9343 8.4628,5.4978 0.5229,0.4829 1.8374,1.5936 2.921,2.4682 1.0837,0.8746 2.7553,2.4262 3.7148,3.448 5.1256,5.4589 8.4855,10.3293 10.5025,15.2238 0.4178,1.014 1.116,2.63 1.5516,3.5912 0.9129,2.0147 2.1549,5.6829 2.5293,7.4703 0.1416,0.676 0.3271,1.5056 0.4124,1.8436 0.085,0.3379 0.2506,0.9947 0.3676,1.4595 0.2886,1.1462 1.1149,7.6041 1.3957,10.9078 0.1257,1.4787 0.2663,4.486 0.3124,6.6829 0.076,3.6155 0.053,4.1621 -0.2383,5.7612 -0.1772,0.9717 -0.527,3.0193 -0.7773,4.5501 -0.2503,1.5308 -0.6343,3.3507 -0.8534,4.0443 l -0.3984,1.2609 0.6799,0.7269 c 0.3739,0.3997 0.7565,0.965 0.8501,1.256 0.094,0.291 0.2798,1.6007 0.4138,2.9104 0.4558,4.4543 0.6457,5.0338 3.8783,11.8296 2.2618,4.755 2.3808,5.0165 3.1794,6.9902 0.2735,0.676 1.1724,2.3352 1.9976,3.6872 0.8252,1.3519 2.225,3.9445 3.1106,5.7611 0.8856,1.8167 1.9584,4.0148 2.3839,4.8845 0.4255,0.8698 0.8605,2.0105 0.9666,2.5349 0.106,0.5244 0.3529,1.5066 0.5486,2.1826 0.3341,1.1539 0.3563,1.4968 0.3624,5.6075 0.01,6.2844 -0.1593,7.0465 -2.4247,10.9559 -1.5209,2.6247 -3.1956,4.9621 -5.2993,7.3966 -2.0777,2.4044 -7.0876,7.4403 -9.6355,9.6858 -1.2717,1.1206 -2.5161,2.2949 -2.7654,2.6093 -1.6553,2.0881 -6.6195,6.8198 -7.9626,7.5898 -0.4327,0.248 -1.3632,0.9236 -2.0678,1.5014 -2.5035,2.0527 -3.8045,2.9747 -5.0023,3.5451 -0.6674,0.3178 -2.1538,1.0611 -3.3031,1.6518 -2.0792,1.0686 -2.0957,1.0739 -3.3186,1.0698 -0.8632,0 -2.1058,-0.1969 -4.1743,-0.6515 -1.6199,-0.356 -3.1901,-0.6473 -3.4894,-0.6473 -0.735,0 -2.0913,0.5256 -2.7907,1.0814 -0.3149,0.2502 -0.6952,0.4549 -0.8452,0.4549 -0.1499,0 -1.1256,0.4418 -2.1681,0.9817 -1.0425,0.54 -2.6213,1.2386 -3.5086,1.5524 -0.8872,0.3139 -2.3736,0.97 -3.303,1.4582 -0.9295,0.4882 -2.0521,1.0048 -2.4947,1.1479 -0.4427,0.1432 -0.8428,0.3219 -0.8892,0.3969 -0.046,0.075 -0.7213,0.3414 -1.4997,0.5917 -0.7784,0.2504 -2.2104,0.7414 -3.1821,1.0912 -1.9907,0.7166 -3.9656,1.2271 -4.7533,1.2287 -0.3416,0 -0.8849,-0.2113 -1.5363,-0.5994 -0.5543,-0.3302 -1.2433,-0.6492 -1.5311,-0.7088 -0.2877,-0.06 -1.0117,-0.3424 -1.6088,-0.6286 -1.5751,-0.7549 -2.862,-0.6978 -3.7828,0.1675 -0.2112,0.1986 -0.6952,0.4417 -1.0754,0.5402 -0.3802,0.099 -1.3325,0.5227 -2.1162,0.9426 -2.5901,1.3875 -5.7992,2.4349 -7.4675,2.4373 -0.4357,0 -1.3325,0.2011 -2.1405,0.4785 -1.3564,0.4658 -1.419,0.4729 -2.5531,0.2912 -1.3587,-0.2176 -3.116,-0.7493 -4.8669,-1.4725 -2.3121,-0.955 -2.6055,-0.9122 -7.3898,1.078 -1.8815,0.7826 -3.5002,1.3302 -5.1915,1.756 -1.3516,0.3404 -2.849,0.755 -3.3277,0.9215 -1.5297,0.5321 -3.372,0.843 -5.0636,0.8547 l -1.6321,0.011 -0.8505,-0.5853 c -0.4678,-0.3219 -1.5865,-1.2333 -2.486,-2.0253 -0.9307,-0.8194 -1.8291,-1.4825 -2.0848,-1.5386 -0.2471,-0.054 -0.8136,-0.025 -1.2589,0.064 -0.4453,0.09 -1.544,0.2306 -2.4415,0.313 -0.8975,0.082 -2.4875,0.3042 -3.5335,0.4928 -1.5983,0.2883 -2.4532,0.3431 -5.3584,0.3434 -5.0225,0 -6.3573,-0.3879 -8.6589,-2.5199 -0.6032,-0.5588 -1.2676,-1.1327 -1.4766,-1.2754 -0.5481,-0.3743 -1.1193,-0.3238 -1.5521,0.1375 -0.361,0.3847 -0.3717,0.4639 -0.346,2.5733 0.034,2.7699 0.4805,5.4692 1.136,6.8622 1.2171,2.5865 1.8062,3.6315 2.7907,4.9505 1.4795,1.9823 3.0334,3.5223 4.6084,4.567 1.5144,1.0045 4.7754,2.5392 5.117,2.4081 0.3572,-0.1371 0.2678,-0.9434 -0.1611,-1.4532 -0.2124,-0.2524 -0.4967,-0.7243 -0.6316,-1.0487 -0.135,-0.3245 -0.6246,-1.2262 -1.0881,-2.004 -0.4635,-0.7778 -0.9062,-1.6969 -0.9838,-2.0424 -0.078,-0.3456 -0.4455,-1.3408 -0.8174,-2.2115 -0.8834,-2.0679 -1.1629,-3.0398 -1.1629,-4.0434 0,-1.0552 0.2814,-1.2002 0.9921,-0.5114 0.5996,0.5812 0.9572,1.2506 1.0769,2.016 0.2671,1.708 4.0758,7.8352 6.4936,10.4468 2.0727,2.2388 6.2984,5.0984 8.0102,5.4207 0.285,0.054 1.0547,0.3398 1.7103,0.6358 1.4946,0.6749 2.4487,0.8311 2.8184,0.4614 0.4419,-0.4419 0,-1.3198 -1.4675,-2.9358 -2.755,-3.0275 -4.0563,-5.283 -5.3979,-9.3556 -1.0019,-3.0417 -1.333,-5.6205 -0.7805,-6.0791 0.4194,-0.348 0.7247,0.035 1.3072,1.6398 1.3062,3.5987 3.0939,7.2017 4.3432,8.7532 1.3052,1.621 4.9532,5.316 6.32,6.4014 0.5915,0.4696 2.178,1.5236 3.5257,2.3421 1.3476,0.8184 2.7583,1.7 3.1349,1.9591 0.9556,0.6575 2.0647,1.0476 3.2425,1.1406 1.3165,0.1039 1.6972,-0.1258 1.3432,-0.8105 -0.1295,-0.2503 -0.8611,-1.1289 -1.6259,-1.9524 -2.6223,-2.8236 -4.6187,-5.7923 -6.6313,-9.8607 -1.6523,-3.3399 -2.3386,-5.2837 -2.3596,-6.6829 -0.014,-0.9343 0.01,-1.0019 0.3434,-1.0494 0.5146,-0.073 0.8635,0.3166 1.2568,1.4028 0.4881,1.348 1.0545,2.4281 2.133,4.0678 0.5157,0.784 0.9376,1.4621 0.9376,1.507 0,0.1219 2.0307,3.1303 2.9731,4.4044 1.8602,2.515 3.4019,4.0209 6.0887,5.9476 0.804,0.5766 2.1062,1.6099 2.8937,2.2961 1.7744,1.5464 2.5602,1.9551 4.5598,2.3715 0.654,0.1362 3.4921,0.091 3.7741,-0.059 z m 89.3385,-30.9219 c -0.7235,-0.9485 -1.8024,-3.4914 -2.8677,-6.7588 -1.603,-4.9163 -2.0394,-7.6504 -2.0526,-12.8586 -0.01,-3.4312 0.1321,-4.3261 0.7756,-4.9307 0.3035,-0.285 0.4271,-0.3154 0.7269,-0.1789 0.8247,0.3758 1.1615,2.282 1.1743,6.6459 0.019,6.4974 0.5889,9.5181 2.7642,14.6525 0.5773,1.3626 1.0972,2.7049 1.1554,2.983 0.1357,0.6482 -0.1134,0.9539 -0.7773,0.9539 -0.398,0 -0.597,-0.1125 -0.8988,-0.5083 z m -149.9002,11.8255 c 0.1257,-0.1516 0.1101,-0.4227 -0.06,-1.0371 -0.6267,-2.264 -0.6954,-2.8947 -0.8523,-7.822 -0.1359,-4.2681 -0.1946,-5.0202 -0.4044,-5.1806 -0.135,-0.1032 -1.0021,-0.5164 -1.927,-0.9182 -1.4652,-0.6366 -1.7947,-0.8516 -2.5606,-1.6703 -1.0529,-1.1256 -2.2845,-2.9392 -2.5817,-3.8017 -0.5445,-1.5806 0.071,-1.8045 6.4096,-2.3321 3.4182,-0.2845 5.7934,-0.6134 7.3622,-1.0194 0.6404,-0.1657 2.5125,-0.577 4.1602,-0.914 3.359,-0.6869 5.1934,-1.1543 5.4869,-1.3978 0.3002,-0.2491 0.237,-0.65 -0.1614,-1.0243 -0.1974,-0.1854 -1.148,-0.6714 -2.1124,-1.08 -3.0414,-1.2885 -6.227,-2.9636 -7.2757,-3.8256 -0.2486,-0.2044 -0.8143,-0.5319 -1.257,-0.7276 -1.68,-0.743 -6.708,-4.3594 -7.6679,-5.5151 -1.8805,-2.2642 -2.6389,-3.1208 -4.4147,-4.9866 -2.5504,-2.6796 -4.5089,-4.9464 -5.3442,-6.1859 -0.3626,-0.5379 -0.9116,-1.2678 -1.22,-1.6221 -1.4117,-1.621 -4.519,-6.3629 -4.7627,-7.2681 -0.084,-0.311 -0.2979,-0.6974 -0.4759,-0.8585 -0.178,-0.161 -0.5224,-0.7078 -0.7653,-1.215 -0.243,-0.5072 -0.6492,-1.3024 -0.9028,-1.7671 -0.2536,-0.4648 -0.576,-1.1907 -0.7164,-1.6131 -0.1404,-0.4225 -0.513,-1.2867 -0.8279,-1.9204 -0.3149,-0.6338 -0.8289,-1.9473 -1.1422,-2.919 -0.3133,-0.9718 -0.9083,-2.4805 -1.3222,-3.3528 -0.414,-0.8723 -0.8518,-2.0653 -0.973,-2.6511 -0.2044,-0.9875 -0.8162,-2.3038 -1.1733,-2.5245 -0.084,-0.052 -0.2717,-0.3148 -0.4171,-0.584 -0.2133,-0.3953 -0.2648,-0.9036 -0.2677,-2.6404 0,-2.0415 -0.025,-2.1912 -0.4222,-2.9447 -0.2303,-0.4367 -0.4598,-1.0589 -0.5102,-1.3827 -0.05,-0.3238 0.052,-1.9694 0.2266,-3.6568 0.3792,-3.6571 0.4018,-5.6566 0.081,-7.1769 -0.5766,-2.7329 -0.5706,-9.4308 0.012,-13.9046 0.2879,-2.2082 0.3519,-2.4675 1.3021,-5.2709 0.486,-1.4337 0.9241,-3.1502 1.2294,-4.8159 0.6115,-3.337 1.3706,-5.9712 2.2202,-7.705 0.4918,-1.0036 0.7208,-1.7017 0.8353,-2.5459 0.2118,-1.5612 0.7911,-3.1435 2.5406,-6.9396 0.8078,-1.7525 1.4687,-3.2265 1.4687,-3.2755 0,-0.049 0.3216,-0.5398 0.7148,-1.0907 0.3931,-0.5509 1.1165,-1.7591 1.6076,-2.6848 1.0545,-1.988 3.0723,-5.0673 4.5087,-6.8807 0.5638,-0.7118 1.152,-1.5414 1.307,-1.8435 0.4786,-0.933 2.2023,-2.8388 6.5253,-7.215 4.4684,-4.5232 6.2316,-6.0812 10.4658,-9.2474 3.1905,-2.3858 5.78,-4.1199 8.3049,-5.5615 1.0033,-0.5729 2.7365,-1.5829 3.8514,-2.2446 1.1149,-0.6617 2.2737,-1.243 2.5751,-1.2919 0.3013,-0.049 1.2211,-0.3964 2.044,-0.7721 0.8229,-0.3758 1.8419,-0.79 2.2644,-0.9205 0.4224,-0.1306 1.6323,-0.516 2.6885,-0.8566 1.0562,-0.3405 2.9574,-0.9024 4.2248,-1.2484 2.2871,-0.6245 4.7533,-1.3858 6.3757,-1.9682 0.4648,-0.1669 1.6055,-0.3818 2.535,-0.4776 1.9516,-0.2011 8.1671,-1.4261 9.5251,-1.8773 2.3791,-0.7903 3.4958,-2.0564 3.852,-4.3669 0.1185,-0.769 -0.2602,-2.3416 -0.7757,-3.2213 -0.6113,-1.0432 -1.7319,-2.1751 -2.5036,-2.529 -0.3995,-0.1833 -0.8878,-0.4109 -1.0851,-0.506 -0.4553,-0.2192 -0.8177,-0.8945 -0.6369,-1.1869 0.3056,-0.4946 3.6095,1.3284 5.0568,2.7902 1.9863,2.0062 2.6068,3.7069 2.1393,5.863 -0.1321,0.6089 -0.3697,1.4374 -0.5281,1.8413 -0.3549,0.9046 -0.2077,1.2179 0.6433,1.3693 0.8052,0.1433 9.0899,0.1378 10.3911,-0.01 0.6543,-0.073 1.1923,-0.2305 1.4595,-0.428 0.5561,-0.4111 1.4345,-2.1379 1.5333,-3.0143 0.1678,-1.489 -0.9562,-3.3776 -2.9041,-4.8797 -1.7987,-1.387 -2.1677,-1.759 -2.9682,-2.9925 -0.4386,-0.676 -1.2742,-1.7411 -1.8567,-2.3669 l -1.0592,-1.1378 -4.8411,0.099 c -5.2222,0.1064 -9.3552,0.3795 -13.3677,0.8833 -4.0202,0.5048 -5.4284,0.7964 -6.805,1.409 -0.989,0.4401 -0.9238,0.7532 0.3525,1.6924 0.5492,0.4042 1.448,1.0659 1.9972,1.4704 1.1814,0.8702 2.4204,2.346 3.0679,3.6542 0.5071,1.0244 0.5811,1.4407 0.2562,1.4407 -0.2062,0 -0.7037,-0.5094 -2.4328,-2.4911 -0.7636,-0.8752 -1.0873,-1.1056 -2.5349,-1.8041 -3.6399,-1.7566 -7.8728,-2.2755 -11.3357,-1.3898 -1.148,0.2936 -2.2839,0.79 -2.4601,1.0752 -0.053,0.086 -0.057,0.2851 -0.01,0.4414 0.1,0.3147 2.7155,2.3082 4.8053,3.6622 1.9033,1.2333 2.7486,1.9809 3.1296,2.7679 0.2983,0.6161 0.3075,0.7064 0.093,0.9205 -0.3812,0.3813 -0.8385,0.1532 -2.6057,-1.2996 -1.806,-1.4848 -4.2186,-2.8534 -6.0306,-3.4209 -1.5235,-0.4772 -7.1532,-0.634 -8.679,-0.2418 -1.5538,0.3995 -3.6883,1.7449 -3.6883,2.3249 0,0.098 0.4666,0.3722 1.037,0.6104 3.4396,1.437 7.1268,3.608 8.2961,4.8847 0.7069,0.7719 0.7473,0.8712 0.4686,1.15 -0.3069,0.3068 -0.6178,0.216 -1.8169,-0.5308 -2.7073,-1.6863 -4.4586,-2.3486 -7.2492,-2.7418 -2.0319,-0.2862 -6.3279,-0.3323 -7.8516,-0.084 -1.8813,0.3064 -3.7918,1.2384 -3.7918,1.8499 0,0.4365 0.4833,0.6934 2.4633,1.3095 2.5736,0.8008 3.9626,1.3654 6.3529,2.5821 2.9444,1.4988 3.9419,2.502 2.4601,2.4743 -0.3698,-0.01 -1.3923,-0.3531 -2.673,-0.9048 -4.0308,-1.7365 -5.3943,-2.0314 -8.6732,-1.8755 -2.826,0.1344 -5.6551,0.6737 -7.833,1.4934 -1.0403,0.3915 -2.2744,1.5062 -2.4523,2.215 -0.1575,0.6278 0.3068,1.2205 0.9989,1.2752 1.0188,0.081 3.6512,0.6642 5.0725,1.1249 3.5997,1.1667 7.4706,3.9474 6.7327,4.8365 -0.3002,0.3618 -0.9807,0.2539 -1.6212,-0.257 -1.6457,-1.3127 -6.0634,-2.915 -9.3453,-3.3895 -1.231,-0.178 -1.3895,-0.1659 -3.1002,0.237 -0.9916,0.2336 -2.5043,0.4808 -3.3617,0.5494 -0.9621,0.077 -1.7603,0.228 -2.0851,0.3943 -0.687,0.352 -3.2245,2.8205 -4.0804,3.9695 -0.8081,1.0848 -0.8964,1.7258 -0.26,1.8855 0.2259,0.057 2.0396,0.062 4.0305,0.012 2.0604,-0.052 4.1365,-0.027 4.8191,0.059 2.927,0.3671 6.9956,2.4879 6.8421,3.5666 -0.042,0.2959 -0.135,0.3337 -0.7692,0.3125 -0.5167,-0.017 -0.8717,-0.1389 -1.2514,-0.4285 -0.5902,-0.4502 -1.8747,-0.9411 -3.0749,-1.1751 -1.1697,-0.2281 -3.4056,-0.1956 -6.0907,0.088 -6.2021,0.6561 -8.6913,1.4505 -10.8145,3.4514 -1.7957,1.6923 -2.5005,2.8907 -1.8475,3.1413 0.4277,0.1641 2.6939,0.098 4.6732,-0.1372 2.4138,-0.2863 4.1984,-0.2915 5.4224,-0.016 0.5243,0.1182 1.3681,0.2908 1.8751,0.3835 1.0777,0.1971 3.7681,1.4887 4.503,2.1618 0.4295,0.3933 0.5012,0.5552 0.4609,1.0408 -0.065,0.7821 -0.4088,0.8134 -1.4039,0.128 -0.4409,-0.3036 -1.1491,-0.6841 -1.5739,-0.8455 -2.4499,-0.9309 -10.6777,-0.756 -13.4358,0.2856 -1.8128,0.6845 -4.8709,3.3081 -6.6385,5.6952 -1.0587,1.4298 -2.3777,3.7246 -2.5872,4.5013 -0.087,0.321 -0.1147,0.7185 -0.062,0.8833 0.1515,0.4773 1.1672,0.3832 2.6862,-0.2486 4.5351,-1.8865 5.586,-2.2156 8.0989,-2.5362 1.7751,-0.2264 3.4022,-0.015 4.755,0.6166 0.9219,0.4307 1.5563,1.0701 1.3665,1.3772 -0.059,0.095 -0.8814,0.1181 -2.2095,0.061 -2.4141,-0.1033 -4.0599,0.084 -5.9388,0.6771 -3.4956,1.1028 -9.0052,4.1714 -11.2937,6.29 -0.9268,0.8581 -1.7404,2.2134 -1.9375,3.2275 -0.08,0.4103 -0.031,0.5267 0.3181,0.7553 0.3983,0.2609 0.4393,0.2583 1.2069,-0.078 3.0849,-1.352 6.3139,-2.2064 8.2458,-2.1819 3.0877,0.039 6.7669,1.3211 6.5748,2.2908 -0.065,0.3304 -0.3116,0.3283 -3.7326,-0.032 -3.3914,-0.3568 -4.4888,-0.2803 -6.4525,0.4499 -3.3228,1.2356 -5.8965,2.7532 -7.8466,4.627 -1.013,0.9733 -1.4167,1.8076 -2.5067,5.1798 -0.9252,2.8624 -1.2217,4.3822 -0.965,4.9458 0.3575,0.7845 1.0229,0.4527 3.809,-1.8992 3.604,-3.0423 7.7574,-5.2482 9.882,-5.2482 0.608,0 1.3289,0.3647 1.5546,0.7863 0.2431,0.4543 0.019,0.6252 -1.1261,0.8568 -1.1432,0.2314 -4.6239,1.9232 -5.9032,2.8693 -1.315,0.9726 -5.2339,4.6641 -6.6758,6.2886 -0.6897,0.777 -1.5131,1.8103 -1.8296,2.2963 -0.6265,0.9615 -1.5808,3.1221 -1.7515,3.9652 -0.059,0.2906 -0.2793,0.9792 -0.49,1.5304 -0.431,1.1273 -0.4579,2.3425 -0.053,2.419 0.1274,0.024 0.8799,-0.5284 1.6723,-1.2277 1.8322,-1.6173 2.8241,-2.3879 4.5486,-3.534 3.1722,-2.1084 5.3083,-2.7821 7.1767,-2.2632 0.6734,0.1871 0.7967,0.3425 0.6705,0.8453 -0.1325,0.528 -0.6937,0.8427 -1.9185,1.0761 -0.5834,0.1112 -1.361,0.3545 -1.728,0.5408 -2.0284,1.0298 -5.2962,3.4677 -7.0948,5.293 -1.7825,1.809 -3.5319,4.8308 -3.8025,6.5682 -0.082,0.526 -0.3025,1.4403 -0.4902,2.0318 -0.4498,1.4178 -0.4877,3.9381 -0.069,4.5774 0.36,0.5493 0.9336,0.5465 1.4388,-0.01 0.2121,-0.2324 0.8042,-0.9978 1.3158,-1.701 1.4019,-1.9269 4.185,-4.6985 5.1198,-5.0985 0.4201,-0.1798 1.4259,-0.7359 2.2352,-1.2357 1.724,-1.0648 2.5195,-1.3747 3.5284,-1.3747 0.9122,0 1.2223,0.1124 1.2223,0.4431 0,0.5315 -0.5158,0.9456 -2.1915,1.7594 -1.1752,0.5708 -2.0939,1.1535 -2.8783,1.8258 -1.6464,1.4108 -5.2082,5.1692 -5.8153,6.1361 -3.6394,5.797 -3.482,5.3871 -3.4702,9.0395 0.01,2.3365 0.07,3.1248 0.3514,4.4308 0.3966,1.8411 0.8607,2.9435 1.2393,2.9435 0.4247,0 1.1286,-0.8823 2.303,-2.8864 2.2982,-3.9219 6.2224,-8.4899 8.0035,-9.3163 0.4647,-0.2157 1.0469,-0.3928 1.2938,-0.3936 0.8225,0 1.2989,0.8147 0.8186,1.4047 -0.1056,0.1298 -0.7862,0.7251 -1.5124,1.3229 -1.5065,1.2403 -2.2777,2.0761 -3.4323,3.7198 -0.4465,0.6357 -1.2775,1.7408 -1.8466,2.4558 -3.0786,3.8678 -4.1643,8.9971 -2.924,13.8148 0.5824,2.2621 0.8941,2.9369 1.3566,2.9369 0.5055,0 0.6535,-0.2221 0.9234,-1.3862 0.2919,-1.2585 1.6719,-4.3472 2.8049,-6.278 0.4766,-0.8123 1.0826,-1.8479 1.3466,-2.3014 1.1857,-2.0367 4.7125,-4.0863 5.4669,-3.1772 0.3208,0.3865 0.025,0.8373 -1.7852,2.7215 -1.0469,1.0897 -1.8712,2.0918 -2.0374,2.477 -0.1535,0.3557 -0.6667,1.2816 -1.1405,2.0573 -2.6453,4.3315 -3.5708,9.2917 -2.5746,13.799 0.1681,0.7605 0.4121,2.2004 0.5422,3.1999 0.2505,1.9239 0.4726,2.6044 0.8751,2.6819 0.4112,0.079 0.7411,-0.8966 1.0657,-3.152 0.5221,-3.6283 0.9981,-5.0242 3.0259,-8.875 1.5073,-2.8621 2.7294,-4.7616 3.4978,-5.4363 0.5708,-0.5012 0.7778,-0.5629 1.1331,-0.3379 0.4164,0.2636 0.03,1.2909 -1.974,5.245 -2.0705,4.0858 -2.9553,6.3395 -3.2271,8.2195 -0.3166,2.191 -0.1282,9.1095 0.3185,11.6968 0.1842,1.0667 0.7333,2.031 1.371,2.4077 0.9955,0.5881 1.2684,0.1935 1.6917,-2.4458 0.4977,-3.1034 0.9096,-5.0835 1.4033,-6.7455 0.6028,-2.0292 2.2578,-5.2103 3.3285,-6.3975 0.944,-1.0468 1.2888,-1.2708 1.7368,-1.1286 0.5215,0.1656 0.3058,1.2189 -0.5244,2.5599 -1.5838,2.5585 -2.1728,4.3243 -2.4118,7.2306 -0.085,1.0328 -0.3021,2.6729 -0.4827,3.6446 -0.5358,2.8832 -0.2781,5.7029 0.8632,9.4445 0.2252,0.7385 0.5061,1.9401 0.6241,2.6705 0.1561,0.9662 0.3306,1.4931 0.6407,1.9349 0.7793,1.1101 1.879,1.4544 2.0932,0.6552 0.05,-0.1873 0.095,-1.5158 0.099,-2.9523 0.01,-2.6719 0.036,-2.9949 0.6045,-6.8245 0.3545,-2.3869 0.8466,-3.8808 1.8335,-5.5661 0.6943,-1.1855 1.2259,-1.6169 1.6879,-1.3696 0.4559,0.2439 0.4222,0.924 -0.1108,2.2379 -1.4444,3.5606 -2.188,11.9898 -1.3215,14.979 0.1347,0.4648 0.4131,1.4531 0.6187,2.1962 0.2056,0.7432 0.5367,1.6765 0.7357,2.0741 0.1991,0.3975 0.4779,1.0771 0.6196,1.5103 0.1468,0.4485 0.5212,1.0729 0.8698,1.4505 0.5436,0.5888 0.6377,0.6372 0.8421,0.4328 0.3382,-0.3382 0.5289,-1.7927 0.5315,-4.0536 0,-3.9808 0.2305,-5.8475 1.1519,-9.5131 0.4934,-1.9628 1.0003,-3.6293 1.2152,-3.9944 0.6859,-1.166 1.5369,-1.693 1.9947,-1.2353 0.3633,0.3634 0.3016,0.9636 -0.197,1.9147 -0.3001,0.5724 -0.4989,1.2661 -0.6162,2.1508 -0.095,0.7182 -0.2784,1.6515 -0.407,2.074 -0.5495,1.8054 -0.6757,8.7422 -0.2178,11.9741 0.4434,3.1297 3.9692,9.3038 5.313,9.3038 h 0.4135 l -0.1049,-1.9588 c -0.058,-1.0773 -0.1686,-2.7192 -0.2464,-3.6487 -0.1948,-2.3278 -0.1892,-5.2617 0.013,-6.9134 0.4027,-3.2859 1.7446,-6.2167 2.4547,-5.3611 0.1617,0.1948 0.1635,0.4762 0.01,1.4947 -0.6092,4.0319 -0.6706,4.8122 -0.589,7.4767 0.089,2.9007 0.3762,4.8961 0.9844,6.8366 0.4737,1.511 0.7767,2.116 1.8303,3.6545 0.4532,0.6617 0.824,1.3741 0.824,1.583 0,1.0128 0.9649,2.2552 2.8576,3.6797 1.8881,1.4211 3.5989,2.0803 4.0349,1.555 z m 177.4732,-2.3326 c 0.6256,-0.2127 1.5191,-0.4297 1.9857,-0.4822 1.0712,-0.1204 1.5439,-0.3596 2.1398,-1.0825 0.6547,-0.7942 0.7316,-1.3629 0.3154,-2.3304 -0.669,-1.5551 -1.8252,-2.0995 -3.2562,-1.5332 -0.8411,0.3328 -4.2185,5.3501 -3.8498,5.7189 0.221,0.2209 1.6047,0.07 2.6651,-0.2906 z m -140.9649,-7.7715 c 1.8768,-0.229 4.4145,-0.983 7.4511,-2.2138 1.3943,-0.5652 3.828,-1.4698 5.4084,-2.0104 1.5804,-0.5405 3.8964,-1.429 5.1467,-1.9745 3.0184,-1.3169 20.9197,-10.2496 24.2916,-12.1216 1.4634,-0.8124 3.7592,-1.9904 5.1017,-2.6176 3.4958,-1.6333 9.9293,-5.3103 14.2835,-8.1636 1.0562,-0.6922 2.75,-1.6801 3.7639,-2.1954 2.158,-1.0967 4.4004,-2.5326 6.7598,-4.3284 2.8519,-2.1708 5.6363,-3.8415 6.4029,-3.8418 0.4567,0 0.9331,0.7782 0.8374,1.368 -0.1164,0.7171 -0.5415,1.121 -3.5532,3.3759 -4.0595,3.0394 -5.4185,3.9367 -8.0507,5.3157 -1.3441,0.7041 -3.3836,1.8398 -4.5323,2.5236 -1.1486,0.6839 -2.1456,1.2434 -2.2156,1.2434 -0.07,0 -0.8133,0.4387 -1.6517,0.9748 -1.8014,1.1517 -6.4897,3.6783 -12.3555,6.6584 -2.3237,1.1806 -4.5241,2.3355 -4.8898,2.5664 -2.1036,1.3287 -10.8447,5.849 -18.7167,9.6791 -1.7033,0.8287 -3.3279,1.7073 -3.6104,1.9524 l -0.5135,0.4457 0.5824,0.5209 c 0.6658,0.5955 1.711,0.9153 2.5394,0.7771 1.0277,-0.1716 5.2787,-1.6324 8.4773,-2.9133 2.8889,-1.1569 4.1348,-1.6024 6.4407,-2.3034 1.1395,-0.3463 3.166,-1.3829 5.8364,-2.9852 1.2326,-0.7395 3.9003,-2.2109 5.9282,-3.2696 2.0279,-1.0587 4.4131,-2.3596 5.3003,-2.8907 0.8872,-0.5312 2.5119,-1.3934 3.6103,-1.916 1.0985,-0.5226 2.8268,-1.4693 3.8408,-2.1039 1.014,-0.6345 2.9497,-1.7581 4.3017,-2.4969 1.3519,-0.7387 3.2287,-1.8549 4.1706,-2.4804 0.9419,-0.6254 1.7813,-1.1371 1.8652,-1.1371 0.084,0 0.7997,-0.4261 1.5905,-0.9468 0.7909,-0.5207 2.233,-1.4268 3.2047,-2.0135 2.0216,-1.2206 4.6381,-3.1156 4.9279,-3.5691 0.1233,-0.1929 0.2397,-1.2216 0.3127,-2.7653 0.1629,-3.4423 0.4878,-4.912 1.6892,-7.6421 0.6504,-1.4779 0.7371,-2.0273 0.3441,-2.1781 -0.1547,-0.059 -1.1452,0.3264 -2.532,0.9861 -2.689,1.2792 -5.6443,2.4584 -6.1609,2.4584 -0.5051,0 -1.0858,-0.6554 -1.6493,-1.8613 -0.622,-1.3312 -0.7003,-2.1745 -0.3836,-4.1303 0.1436,-0.8873 0.2942,-2.028 0.3347,-2.5349 0.067,-0.8398 0.038,-0.9547 -0.321,-1.2905 -0.3451,-0.3224 -0.5347,-0.3671 -1.5124,-0.3559 -1.4144,0.016 -3.2106,0.2988 -3.4594,0.5445 -0.1049,0.1036 -0.2687,0.7741 -0.364,1.4901 -0.095,0.7159 -0.2625,1.4745 -0.3717,1.6858 -0.3581,0.6931 -0.7164,0.9609 -6.6015,4.9344 -0.5915,0.3993 -2.3199,1.3961 -3.8408,2.2151 -4.3616,2.3485 -8.1962,4.5709 -11.5224,6.6779 -3.5114,2.2244 -4.719,2.9362 -6.458,3.8069 -0.679,0.34 -2.0617,1.0995 -3.0726,1.6878 -1.0109,0.5884 -2.564,1.4316 -3.4512,1.8739 -0.8872,0.4423 -2.4211,1.2521 -3.4087,1.7996 -0.9875,0.5475 -3.1998,1.6053 -4.9161,2.3507 -1.7164,0.7454 -4.0886,1.8029 -5.2716,2.3499 -1.1829,0.5471 -3.0841,1.3253 -4.2248,1.7296 -1.1407,0.4042 -3.1317,1.1701 -4.4243,1.702 -1.2927,0.5319 -2.7583,1.0717 -3.257,1.1994 -0.4986,0.1278 -1.6674,0.6138 -2.5973,1.0802 -0.9299,0.4664 -2.0222,0.9218 -2.4274,1.012 -0.4052,0.09 -1.7392,0.5508 -2.9644,1.0233 -3.0131,1.1622 -8.4647,2.9505 -11.3687,3.7292 -1.3097,0.3513 -3.9022,1.0787 -5.7612,1.6166 -1.8589,0.5378 -5.0732,1.4022 -7.1429,1.9208 -2.0697,0.5187 -3.9813,1.0466 -4.248,1.1732 -1.2383,0.5876 -0.4723,1.8105 1.5585,2.4882 2.1164,0.7062 4.1818,0.9536 5.3207,0.6373 0.307,-0.085 1.2132,-0.217 2.0138,-0.2927 1.0548,-0.1 1.6687,-0.2458 2.2297,-0.53 0.4257,-0.2157 1.2151,-0.4627 1.7542,-0.5488 1.0125,-0.1618 2.4197,-0.6101 4.0773,-1.2991 0.5249,-0.2181 1.4899,-0.5436 2.1444,-0.7231 0.6545,-0.1796 3.0941,-1.0863 5.4213,-2.0149 2.3273,-0.9286 6.0289,-2.2969 8.2258,-3.0407 5.4842,-1.8568 8.7327,-3.1284 11.9852,-4.6918 3.202,-1.539 5.2332,-2.4685 8.4477,-3.8657 1.2675,-0.5509 2.9654,-1.3331 3.7731,-1.7382 0.8078,-0.4051 1.8794,-0.8726 2.3813,-1.0389 1.3836,-0.4585 2.4499,-0.9642 4.86,-2.3049 1.2088,-0.6725 4.8596,-2.621 8.1127,-4.33 3.2531,-1.7091 6.2605,-3.3004 6.683,-3.5364 0.4225,-0.2359 2.773,-1.4987 5.2234,-2.8061 7.0031,-3.7366 10.05,-5.5338 13.0133,-7.676 2.9205,-2.1114 3.2059,-2.2858 3.5614,-2.1778 0.5735,0.1743 0.8625,0.5457 0.8625,1.1087 0,0.4665 -0.1492,0.6822 -1.1258,1.6277 -2.3115,2.238 -7.0259,5.305 -12.6242,8.2128 -5.2991,2.7524 -6.0496,3.1335 -6.9701,3.5395 -0.4536,0.2001 -1.174,0.6739 -1.6007,1.0529 -1.0516,0.934 -2.1927,1.645 -3.942,2.4563 -0.8072,0.3743 -2.7121,1.2933 -4.233,2.042 -1.521,0.7487 -3.1806,1.4939 -3.6881,1.6559 -0.5075,0.162 -1.6483,0.741 -2.5349,1.2866 -1.9732,1.2141 -2.8297,1.6686 -5.6834,3.0156 -1.2252,0.5783 -2.7702,1.4075 -3.4333,1.8426 -1.2392,0.813 -1.9733,1.1021 -2.8028,1.1036 -0.7879,0 -1.8022,0.3801 -3.2388,1.2092 -0.75,0.4329 -2.1915,1.1369 -3.2034,1.5645 -3.3207,1.4033 -5.3611,2.3484 -6.1416,2.845 -0.6109,0.3887 -0.9882,0.5061 -1.8435,0.5737 -1.3091,0.1036 -3.3915,0.786 -5.7716,1.8914 -0.9801,0.4552 -1.9007,0.8276 -2.0457,0.8276 -0.3398,0 -1.0239,0.3564 -1.9201,1.0003 -0.436,0.3131 -1.1056,0.6034 -1.7221,0.7464 -1.4322,0.3321 -4.5636,1.8571 -4.7775,2.3266 -0.3311,0.7266 0.513,1.8979 1.6631,2.3078 0.7284,0.2597 3.1566,0.2864 5.0487,0.056 z m 48.7113,-6.297 c 2.2939,-0.4219 16.752,-7.2273 22.8809,-10.7699 5.4062,-3.125 6.9616,-4.1555 13.2891,-8.8049 1.3942,-1.0245 3.1727,-2.2966 3.9523,-2.8271 0.7896,-0.5373 1.5588,-1.1934 1.7369,-1.4815 0.3365,-0.5445 1.6792,-4.3831 2.1097,-6.0316 0.3133,-1.1995 0.1815,-1.4972 -0.651,-1.4698 -0.6865,0.023 -5.7194,2.4508 -5.942,2.8668 -0.081,0.1506 -0.2427,0.8204 -0.3601,1.4884 -0.1175,0.6681 -0.3184,1.4174 -0.4465,1.6651 -0.6414,1.2403 -6.082,5.1738 -8.3084,6.0068 -0.4453,0.1666 -1.5268,0.7454 -2.4034,1.2863 -0.8767,0.5409 -3.2186,1.8351 -5.2043,2.8761 -1.9857,1.0409 -4.7875,2.5276 -6.2263,3.3037 -1.4389,0.7762 -3.0097,1.5584 -3.4908,1.7384 -0.4811,0.18 -1.4124,0.6635 -2.0697,1.0743 -1.2231,0.7645 -3.6242,2.0724 -8.6461,4.7095 -3.9209,2.0589 -5.9917,3.4733 -5.9917,4.0926 0,0.4131 3.9896,0.6046 5.7714,0.2768 z m -82.9901,-0.5131 c 0.771,-0.121 2.1622,-0.2942 3.0917,-0.3849 3.0363,-0.2964 8.0358,-1.6182 15.1967,-4.0179 4.472,-1.4986 5.7202,-2.0362 6.388,-2.751 0.4309,-0.4613 0.4315,-0.4615 2.205,-0.4615 1.998,0 3.4697,-0.3621 5.3234,-1.3098 0.5492,-0.2808 1.3097,-0.5582 1.69,-0.6163 0.3802,-0.058 1.6246,-0.4696 2.7653,-0.9144 2.2671,-0.8841 5.6683,-2.0874 8.0499,-2.8481 1.8291,-0.5841 4.8002,-1.8214 7.6205,-3.1735 1.1407,-0.5469 2.7308,-1.2581 3.5335,-1.5804 3.1806,-1.2774 11.8075,-5.4573 14.1341,-6.8483 0.8027,-0.4799 2.7385,-1.5654 4.3017,-2.4123 3.6777,-1.9925 6.2201,-3.4309 6.9902,-3.955 0.338,-0.23 1.6861,-1.0282 2.9958,-1.7736 3.6118,-2.0558 9.6204,-5.9581 13.1355,-8.531 1.1829,-0.8659 2.5465,-1.8573 3.0301,-2.2032 l 0.8793,-0.6287 v -2.7745 c 0.01,-3.2818 -0.074,-3.5336 -0.9679,-3.1072 -0.2971,0.1417 -1.2804,0.9009 -2.185,1.687 -2.3226,2.0183 -4.1289,3.4561 -6.5218,5.1908 -1.1407,0.827 -2.7308,2.0359 -3.5335,2.6863 -1.0602,0.8591 -2.0865,1.4982 -3.7512,2.3359 -1.2605,0.6342 -3.4045,1.7936 -4.7645,2.5765 -1.3599,0.7828 -3.8545,2.12 -5.5434,2.9716 -1.6889,0.8516 -3.8604,2.0437 -4.8256,2.6491 -0.9652,0.6054 -1.8639,1.1405 -1.9972,1.1891 -0.1333,0.049 -0.8992,0.5541 -1.7019,1.1233 -0.8027,0.5692 -3.0842,1.8917 -5.07,2.9388 -1.9858,1.0471 -4.1289,2.2527 -4.7626,2.6791 -2.1508,1.4474 -10.0277,5.4858 -13.8661,7.1091 -0.8244,0.3486 -2.2417,1.0117 -3.1494,1.4734 -1.3434,0.6833 -2.365,1.0384 -5.4912,1.9088 -4.5173,1.2577 -5.7801,1.6769 -7.1521,2.3739 -0.5587,0.2838 -1.4595,0.6266 -2.0017,0.7617 -1.4679,0.3658 -5.2211,0.9901 -7.0448,1.1719 -1.1482,0.1145 -2.0423,0.3171 -3.1494,0.7137 -2.5516,0.9142 -3.8013,1.2122 -11.8284,2.8201 -4.2308,0.8474 -7.917,1.6431 -8.1917,1.7682 -0.2746,0.1251 -0.4993,0.3273 -0.4993,0.4493 0,0.5143 1.0509,1.1385 2.7161,1.6133 1.28,0.365 2.1259,0.3866 3.9479,0.1007 z m 162.4689,-6.7624 c 0.5192,-0.2685 1.1615,-0.9825 2.0166,-2.2418 1.0926,-1.6089 2.5249,-3.0051 3.6075,-3.5166 1.2988,-0.6137 2.6823,-1.4684 4.9917,-3.084 1.0562,-0.7389 2.9228,-1.9134 4.148,-2.61 1.2252,-0.6966 3.5412,-2.1139 5.1467,-3.1496 1.6054,-1.0358 3.3337,-2.092 3.8407,-2.3472 0.507,-0.2552 1.4048,-0.8496 1.9951,-1.3209 0.7746,-0.6185 1.2519,-0.8837 1.7154,-0.9532 0.8081,-0.1212 1.9877,0.127 2.9707,0.6251 0.9245,0.4685 2.2967,0.5365 2.6331,0.1305 0.1683,-0.2032 0.2109,-1.1773 0.2109,-4.8258 v -4.5712 l 1.1629,-1.1297 c 0.6441,-0.6257 1.6492,-1.8545 2.2529,-2.7543 1.1471,-1.7097 1.8579,-2.4421 2.3699,-2.4421 0.1696,0 0.8263,0.2074 1.4593,0.4609 1.3196,0.5283 2.0234,0.5707 2.8959,0.1743 0.7916,-0.3596 1.4706,-1.1399 2.0499,-2.3557 0.7091,-1.4882 0.8709,-2.2884 0.5773,-2.8561 -0.2913,-0.5633 -1.2226,-1.3567 -1.7471,-1.4883 -0.506,-0.127 -1.2548,0.3764 -2.9412,1.9772 -3.5987,3.416 -3.8792,3.5957 -5.2655,3.374 -0.6452,-0.1031 -1.5085,-0.7444 -1.5085,-1.1205 0,-0.092 0.7007,-0.6212 1.5571,-1.1751 1.0416,-0.6738 2.1986,-1.6315 3.4951,-2.8933 1.0659,-1.0374 2.1783,-2.0102 2.472,-2.1617 0.3768,-0.1945 1.1452,-0.3182 2.6117,-0.4208 1.1428,-0.08 2.2486,-0.2256 2.4574,-0.3238 0.9055,-0.426 1.0194,-2.0424 0.2246,-3.1892 -0.9222,-1.3309 -3.2189,-2.3824 -4.9128,-2.2494 -1.609,0.1264 -2.5922,0.8424 -3.6364,2.6483 -0.71,1.2279 -1.3754,1.992 -2.041,2.3439 -0.2565,0.1356 -1.0839,0.2916 -1.8658,0.3518 -0.7726,0.059 -1.4903,0.1611 -1.5947,0.2256 -0.3385,0.2092 -1.3238,2.5285 -2.6748,6.2966 -1.7659,4.9254 -2.3629,6.3104 -3.6507,8.4694 -1.384,2.3202 -2.0792,3.2176 -3.6757,4.7447 -2.1382,2.0451 -3.8025,3.1935 -6.8176,4.7041 -3.2048,1.6055 -3.4242,1.6547 -7.4511,1.6682 l -2.535,0.01 -0.6514,1.5712 c -1.0869,2.6214 -3.4624,6.6665 -5.149,8.7681 -1.8683,2.328 -2.7836,4.0542 -2.795,5.2712 -0.01,0.7426 0.045,0.8929 0.4231,1.2182 0.4916,0.4231 1.0059,0.47 1.6278,0.1484 z m -46.8075,-1.2753 c 2.0474,-1.0145 6.1011,-3.8089 8.799,-6.0654 4.1387,-3.4618 9.7555,-8.9135 9.7555,-9.4688 0,-0.3799 -1.0241,-0.1357 -2.7358,0.6526 -0.9879,0.4549 -2.2622,0.9318 -2.8316,1.0598 -1.1533,0.2591 -1.9317,0.6718 -3.4602,1.8345 -0.5694,0.433 -2.5919,1.9016 -4.4946,3.2636 -3.775,2.7021 -8.6261,6.4608 -9.9462,7.7064 -0.5537,0.5224 -0.8164,0.8847 -0.7799,1.0754 0.091,0.4731 0.9698,0.6745 2.7548,0.6311 1.5691,-0.038 1.6755,-0.063 2.939,-0.6892 z m -92.643,-3.7893 c 0.5319,-0.2041 1.5893,-0.6137 2.3498,-0.9103 0.7605,-0.2966 2.3506,-0.784 3.5335,-1.0832 3.6598,-0.9256 6.1767,-1.8627 7.1923,-2.6781 0.3742,-0.3004 0.9021,-0.533 1.4595,-0.6431 1.2637,-0.2496 1.8254,-0.4419 2.9474,-1.0086 0.5492,-0.2775 1.206,-0.5531 1.4595,-0.6127 0.6293,-0.1478 3.5807,-1.6192 4.5849,-2.2858 1.0342,-0.6864 2.4729,-1.3406 3.9043,-1.7753 0.9709,-0.2948 1.199,-0.4378 1.7667,-1.1074 1.4382,-1.6963 1.384,-1.6586 2.3841,-1.6586 0.7238,0 1.0182,-0.078 1.4329,-0.3779 0.7889,-0.5711 1.5414,-0.9498 2.0985,-1.056 0.2756,-0.053 1.0015,-0.4299 1.6132,-0.8386 0.6116,-0.4088 1.8399,-1.1737 2.7295,-1.6999 0.8896,-0.5263 2.3069,-1.4694 3.1495,-2.0958 0.8425,-0.6265 2.085,-1.4657 2.761,-1.865 1.7722,-1.0467 2.183,-1.3896 2.8605,-2.3871 0.7949,-1.1706 1.1239,-1.4717 2.1111,-1.9318 0.453,-0.2111 1.2544,-0.7099 1.7808,-1.1083 1.85,-1.4003 5.1909,-4.5485 6.3307,-5.9655 0.6334,-0.7876 1.9816,-2.3056 2.9959,-3.3733 1.0143,-1.0676 2.1669,-2.3859 2.5614,-2.9294 0.3944,-0.5435 1.127,-1.5498 1.628,-2.2364 1.781,-2.4405 8.0577,-10.1879 9.724,-12.0023 4.0659,-4.4275 11.6443,-11.8001 15.0991,-14.6892 0.9713,-0.8122 1.9388,-1.6677 2.1501,-1.9011 0.2112,-0.2333 1.0754,-1.0169 1.9204,-1.7414 4.1989,-3.5999 9.6045,-8.8117 12.2185,-11.7803 3.6023,-4.0911 3.9769,-5.1458 5.5923,-15.7469 0.3026,-1.9857 0.6534,-3.9498 0.7796,-4.3645 0.4767,-1.5673 0.227,-8.1037 -0.3949,-10.335 -0.1692,-0.6067 -0.3707,-1.8165 -0.448,-2.6885 -0.1532,-1.7287 -0.1864,-1.8522 -2.1025,-7.8076 -1.6045,-4.987 -2.0825,-6.1824 -4.2854,-10.7165 -1.8872,-3.8845 -3.0422,-5.7736 -4.9073,-8.0265 -1.4695,-1.7751 -7.8482,-8.1725 -10.0398,-10.0692 -1.7578,-1.5212 -4.8494,-3.8207 -6.629,-4.9305 -2.0494,-1.2781 -8.5745,-4.5413 -8.8841,-4.4431 -0.5313,0.1687 -0.9944,0.8027 -0.89,1.2187 0.1133,0.4513 1.6739,1.8425 4.2436,3.783 2.0733,1.5656 3.5493,3.1818 6.5237,7.1436 3.3755,4.496 4.4954,6.3482 6.0621,10.0265 1.129,2.6504 1.9664,5.1447 2.7373,8.1529 l 0.5775,2.2536 -0.011,6.3757 c -0.015,8.4954 -0.3056,10.7825 -1.9254,15.1326 -0.9626,2.5853 -1.7824,4.1962 -3.7136,7.2976 -2.3954,3.8467 -3.1761,4.861 -5.9322,7.7073 -3.2316,3.3373 -5.0364,4.6599 -7.4837,5.4842 -1.7137,0.5773 -6.3925,1.2498 -8.6948,1.2498 -3.2561,0 -7.1124,0.4641 -12.3371,1.4847 -3.678,0.7184 -4.8279,0.7755 -7.6816,0.3811 -1.2674,-0.1751 -5.2081,-0.6072 -8.757,-0.9602 -7.4884,-0.7448 -7.1704,-0.7592 -13.5963,0.6153 -1.9166,0.41 -7.1644,1.9659 -8.1425,2.4142 -1.0236,0.4691 -2.8847,0.7629 -3.8784,0.6122 -0.9596,-0.1456 -1.5654,-0.673 -1.8878,-1.6434 -0.4986,-1.5014 0.095,-2.9014 1.8241,-4.3011 1.0817,-0.8758 3.1995,-2.0889 4.0189,-2.302 0.338,-0.088 1.0985,-0.3044 1.69,-0.4811 1.6738,-0.4999 2.0298,-0.5669 3.9176,-0.7366 4.0072,-0.3604 7.969,-1.2994 7.4925,-1.7759 -0.3357,-0.3357 -1.9219,-0.4277 -14.4059,-0.8353 -8.0365,-0.2623 -9.0816,-0.4556 -10.4276,-1.9283 -1.3473,-1.4742 -1.8738,-2.9469 -2.1664,-6.0604 -0.2006,-2.1344 -0.446,-3.0409 -1.2409,-4.5847 -0.9062,-1.7599 -0.8028,-2.6141 0.4947,-4.0882 1.5672,-1.7805 5.4184,-2.7234 7.4312,-1.8194 0.5454,0.2449 1.1602,0.2734 5.909,0.2746 5.2139,0 5.3102,0 5.9125,-0.3444 0.3367,-0.1901 0.7861,-0.3461 0.9986,-0.3467 0.6042,0 1.139,-0.4385 3.5318,-2.8856 3.5402,-3.6204 5.6323,-4.957 8.8845,-5.6762 2.9286,-0.6476 4.578,-0.5852 8.4798,0.3208 5.2249,1.2133 5.6648,1.1797 7.8784,-0.6021 2.9137,-2.3452 6.8084,-4.0041 8.5725,-3.6513 0.6242,0.1248 1.4858,1.1232 1.5943,1.8473 0.3283,2.1925 0.9907,4.1216 1.4671,4.2728 0.1512,0.048 0.9992,-0.1882 1.8845,-0.5249 1.9232,-0.7313 3.3669,-1.0078 4.5927,-0.8797 1.4614,0.1527 2.1593,0.647 2.3401,1.6575 0.055,0.3083 0.2278,0.7231 0.3836,0.9218 0.1558,0.1987 0.681,1.1563 1.1671,2.128 0.4861,0.9717 1.0182,1.9569 1.1826,2.1892 1.126,1.592 2.8386,-1.5375 3.4951,-6.3868 0.5051,-3.7312 -0.067,-9.2374 -1.384,-13.3164 -1.0734,-3.3248 -2.5371,-5.5084 -5.7523,-8.5813 -2.4322,-2.3247 -3.6184,-3.1839 -5.9075,-4.2791 -8.3261,-3.9835 -10.2067,-4.6425 -17.3662,-6.0852 -5.1536,-1.0385 -6.7956,-1.2525 -12.5978,-1.642 -6.4673,-0.4341 -7.8591,-0.4135 -10.3094,0.1527 -1.9946,0.4609 -3.7654,0.7134 -8.0635,1.1499 -3.1001,0.3148 -5.6481,1.007 -12.3533,3.3562 -5.6712,1.9869 -9.1582,3.4176 -10.0258,4.1135 -0.3175,0.2548 -0.9479,0.5854 -1.4007,0.7348 -0.4528,0.1494 -1.6102,0.792 -2.572,1.4281 -0.9618,0.636 -2.1067,1.3479 -2.5442,1.582 -0.4375,0.2341 -1.4399,0.9112 -2.2276,1.5046 -0.7877,0.5934 -2.4692,1.8034 -3.7367,2.689 -2.8607,1.9987 -3.9932,2.9051 -5.8603,4.6901 -1.6909,1.6165 -3.3911,3.5974 -4.507,5.251 -0.4274,0.6335 -1.14,1.5584 -1.5833,2.0553 -0.4434,0.4969 -1.4212,1.7891 -2.1729,2.8717 -0.7517,1.0825 -1.7944,2.498 -2.3172,3.1456 -1.4252,1.7653 -2.1278,2.7465 -2.6951,3.7642 -0.2816,0.5053 -1.074,1.8175 -1.7609,2.9159 -1.7492,2.7972 -3.4185,6.0525 -4.5325,8.8386 -1.7695,4.4256 -2.0531,5.3577 -2.3755,7.8076 -0.2766,2.1013 -0.4147,2.6445 -1.0879,4.2772 -2.2073,5.3536 -3.4306,17.5517 -2.5948,25.8742 0.1306,1.3005 0.2974,3.7125 0.3707,5.3603 0.1024,2.302 0.2237,3.3871 0.5237,4.6857 0.2147,0.9295 0.4964,2.6638 0.6259,3.8541 0.2523,2.3193 0.4406,3.0235 1.1155,4.1717 0.3652,0.6212 0.4441,0.9623 0.5245,2.2675 0.088,1.4241 0.1559,1.6765 0.9332,3.4567 0.4613,1.0562 1.0359,2.4735 1.277,3.1494 0.7712,2.1619 3.2521,6.9101 4.0889,7.8257 0.4125,0.4514 0.7511,0.9148 0.7523,1.0297 0,0.3286 1.4482,3.2503 2.3253,4.7023 0.4377,0.7247 1.2073,1.7716 1.7102,2.3265 0.5029,0.5549 1.2994,1.598 1.7701,2.318 0.6517,0.9968 1.9289,2.3913 5.3557,5.8474 2.4749,2.4961 4.7607,4.7269 5.0795,4.9574 0.8946,0.6465 3.5055,2.6135 4.99,3.7594 1.5814,1.2205 1.9243,1.4101 3.6906,2.0403 0.7377,0.2632 1.7747,0.7589 2.3045,1.1015 0.5496,0.3554 1.9198,0.9654 3.1909,1.4205 1.2252,0.4387 2.435,0.9028 2.6885,1.0312 0.2535,0.1284 0.772,0.3106 1.1523,0.4048 0.3802,0.094 1.1752,0.3789 1.7667,0.6328 1.3912,0.597 2.5731,0.6266 3.9491,0.099 z m 107.8622,-13.0152 c 0.3557,-0.1801 1.1999,-0.7207 1.8758,-1.2013 0.676,-0.4805 1.5748,-1.0689 1.9973,-1.3074 0.9887,-0.5583 1.8493,-1.2477 3.407,-2.729 0.6909,-0.657 1.3731,-1.1946 1.516,-1.1946 0.1429,0 0.4993,0.2103 0.792,0.4673 0.8518,0.7479 1.1388,0.5652 3.8019,-2.4189 4.2534,-4.7662 5.6495,-7.3724 6.2946,-11.7506 0.6896,-4.68 0.3632,-9.2636 -1.0087,-14.165 -0.9519,-3.4007 -2.9578,-8.0416 -6.8137,-15.7641 -4.7059,-9.4247 -6.0557,-13.1945 -6.3815,-17.8212 -0.2066,-2.9345 -0.5061,-3.8407 -1.2693,-3.8407 -0.3286,0 -1.2702,0.9095 -2.4677,2.3838 -1.7529,2.1579 -7.7978,8.0934 -11.1113,10.9103 -1.1674,0.9924 -2.883,2.5422 -3.8124,3.4441 -0.9295,0.9018 -2.1739,2.0497 -2.7654,2.5509 -0.5915,0.5011 -1.8013,1.607 -2.6885,2.4575 -0.8873,0.8504 -2.3391,2.1726 -3.2263,2.9381 -2.1167,1.8264 -6.4516,5.9845 -8.4861,8.1401 -1.6315,1.7287 -2.2727,2.7399 -2.4832,3.916 -0.119,0.6651 -0.3265,0.8589 -1.3669,1.2761 -0.8864,0.3555 -1.03,0.5189 -3.8696,4.4021 -2.163,2.958 -4.8272,6.1562 -7.5366,9.0474 -3.6823,3.9293 -3.7767,4.6183 -0.4111,2.999 1.5451,-0.7434 3.1216,-1.7181 4.3522,-2.6908 0.4282,-0.3385 0.8975,-0.6155 1.0427,-0.6155 0.6795,0 2.6787,-1.4906 6.1608,-4.5935 1.0563,-0.9412 2.2731,-1.8858 2.7041,-2.0992 l 0.7836,-0.3879 0.7564,0.2982 c 0.6595,0.2599 0.8073,0.2714 1.1539,0.09 0.3952,-0.2071 0.5559,-0.504 0.9094,-1.6803 0.1016,-0.3379 0.661,-1.5582 1.2432,-2.7117 0.7406,-1.467 1.2426,-2.2634 1.6707,-2.6501 0.691,-0.6243 0.8481,-0.6669 1.0481,-0.2841 0.1868,0.3576 -0.053,1.1666 -1.1109,3.7455 -1.5746,3.8392 -2.2792,6.8901 -1.7987,7.788 0.2446,0.457 1.1322,0.4436 2.7535,-0.042 0.6913,-0.2069 1.7247,-0.441 2.2965,-0.5202 1.9143,-0.2653 4.4424,-1.6936 7.1014,-4.0121 2.1379,-1.8641 2.919,-2.1409 2.919,-1.0341 0,0.9582 -1.7159,2.8614 -4.3809,4.8593 -3.0721,2.303 -4.3778,4.5885 -4.3752,7.6586 0,1.1654 0.2067,2.0601 0.5536,2.407 0.4143,0.4143 1.1567,0.2596 2.979,-0.6208 2.4445,-1.181 4.5872,-2.6472 5.9984,-4.1046 0.9274,-0.9578 1.2776,-1.2227 1.6163,-1.2227 0.5234,0 0.94,0.4674 1.0795,1.211 0.063,0.3367 0.265,0.6576 0.5426,0.8629 0.7574,0.56 0.5633,1.1389 -1.414,4.215 -1.8173,2.8272 -2.1134,3.598 -1.634,4.2537 0.1841,0.2517 0.2329,0.241 0.7406,-0.1627 0.299,-0.2377 1.8177,-1.6563 3.3749,-3.1524 3.2095,-3.0837 4.0321,-3.7651 4.7086,-3.9004 0.3828,-0.076 0.5092,-0.032 0.648,0.2271 0.3582,0.6692 -0.2277,1.4025 -4.0501,5.0688 -3.2795,3.1456 -3.8794,3.625 -4.9111,3.9249 -0.9058,0.2634 -1.2064,0.6441 -0.7638,0.9676 0.3911,0.286 0.8574,0.2438 2.1795,-0.1975 2.0692,-0.6905 4.5464,-2.1498 6.6728,-3.9307 0.6103,-0.5112 1.3097,-1.0329 1.5543,-1.1593 0.407,-0.2105 0.4778,-0.2051 0.8376,0.063 0.2161,0.1613 0.6009,0.5503 0.8551,0.8643 0.7387,0.9128 0.6517,1.326 -0.7057,3.3513 -1.778,2.6529 -2.7345,4.7874 -2.7345,6.1023 0,0.4877 0.092,0.6831 0.4727,1.0034 0.5875,0.4944 1.3006,0.5173 2.1836,0.07 z m 1.0258,-2.7184 c -0.5759,-0.4663 -0.3246,-1.1496 0.9453,-2.5701 0.6001,-0.6713 1.5607,-1.8428 2.1347,-2.6033 1.7196,-2.2783 2,-2.5562 2.6094,-2.5857 0.51,-0.025 0.5399,0 0.5789,0.5117 0.059,0.7666 -0.4842,1.6144 -2.7297,4.2634 -2.1889,2.5821 -2.8244,3.2645 -3.0402,3.2645 -0.084,0 -0.3079,-0.1262 -0.4984,-0.2805 z m 1.1419,-12.8957 c -0.4739,-0.3164 -0.5873,-0.9352 -0.6486,-3.5392 -0.1044,-4.4385 0.3407,-7.2821 1.5095,-9.644 0.6597,-1.333 0.7571,-1.8634 0.3697,-2.0121 -0.1344,-0.052 -2.3526,0.6134 -4.9294,1.4777 -3.2278,1.0826 -4.8028,1.5418 -5.0635,1.4764 -0.2081,-0.052 -0.6342,-0.3302 -0.947,-0.6176 l -0.5686,-0.5227 0.033,-1.3816 c 0.084,-3.4785 1.5774,-7.8173 3.4077,-9.9013 1.3466,-1.5332 0.9161,-2.187 -0.9285,-1.4104 -0.537,0.2261 -1.3655,0.5077 -1.8411,0.6259 -0.4757,0.1182 -1.4781,0.45 -2.2277,0.7373 -1.8202,0.6978 -2.5058,0.8008 -3.1847,0.4786 -0.7892,-0.3745 -1.0898,-1.1068 -1.0719,-2.6117 0.036,-2.9976 1.5751,-6.7305 3.7276,-9.0393 0.8735,-0.9369 1.4367,-1.2473 1.8561,-1.0228 0.1683,0.09 0.3059,0.2923 0.3059,0.4494 0,0.2967 -0.7756,1.873 -1.7061,3.4674 -1.0072,1.7258 -1.8274,4.0738 -1.8274,5.2311 0,0.2071 0.1474,0.5239 0.3276,0.7041 0.6593,0.6593 2.8692,0.1426 5.7863,-1.3531 1.6007,-0.8207 3.9128,-2.3281 5.2548,-3.426 0.9221,-0.7543 2.0909,-1.5401 2.2908,-1.5401 0.089,0 0.2033,0.1667 0.2544,0.3704 0.1298,0.5173 -0.3579,1.5432 -1.4498,3.0494 -0.5048,0.6963 -1.1579,1.7844 -1.4514,2.4182 -0.2934,0.6337 -1.0235,1.809 -1.6222,2.6117 -2.0035,2.6859 -3.3989,6.0614 -3.3989,8.2218 0,0.9687 0.044,1.1626 0.2972,1.2979 0.4212,0.2255 1.8321,0.1971 2.665,-0.054 1.5134,-0.4554 4.0786,-1.6763 5.0488,-2.4029 1.4011,-1.0493 3.3854,-3.1841 4.1093,-4.421 0.6855,-1.1712 1.2837,-1.7976 1.6006,-1.676 0.1356,0.052 0.2565,0.4331 0.3225,1.0168 0.1423,1.2578 -0.054,4.7346 -0.3018,5.3447 -0.1097,0.27 -0.6616,1.1342 -1.2263,1.9204 -1.3403,1.8655 -2.0184,3.2364 -2.4579,4.9689 -0.4855,1.9139 -1.0445,5.817 -0.9247,6.4558 0.1048,0.5585 0.5766,0.9902 1.0795,0.9877 1.5751,-0.01 6.8028,-4.4083 8.2971,-6.9844 1.2048,-2.0772 1.8243,-2.6856 2.4787,-2.4345 0.2089,0.08 0.2386,0.2772 0.1788,1.1864 -0.1228,1.8666 -1.3839,3.8308 -4.2082,6.5547 -1.715,1.6539 -3.1123,2.6453 -4.6323,3.2866 -0.6534,0.2756 -1.7569,0.7873 -2.4521,1.1369 -1.2265,0.6168 -1.7814,0.7517 -2.1312,0.5181 z m -20.3635,-0.8697 c -0.2614,-0.5737 -0.069,-1.0097 0.9931,-2.249 1.3934,-1.626 5.1548,-5.2342 5.8308,-5.5933 0.5312,-0.2822 0.5881,-0.2856 0.8251,-0.048 0.4494,0.4493 -0.028,1.128 -2.8379,4.0382 -4.4928,4.6524 -4.459,4.6254 -4.8111,3.8526 z m 23.7844,-7.4112 c -0.3403,-0.3403 -0.01,-1.0849 1.4763,-3.3008 0.8683,-1.2969 2.0485,-3.2617 2.6227,-4.3663 1.1812,-2.2727 1.5388,-2.7593 2.1248,-2.8919 0.5559,-0.1258 0.8944,0.2401 0.8944,0.9667 0,1.2668 -1.4139,4.4962 -2.7583,6.2998 -0.7686,1.0311 -2.3868,2.6846 -3.0754,3.1424 -0.384,0.2552 -1.0961,0.3385 -1.2845,0.1501 z m -29.8762,-2.3955 c -0.1004,-0.121 -0.2248,-0.4317 -0.2766,-0.6904 -0.078,-0.3897 -0.032,-0.5031 0.2679,-0.6603 0.1992,-0.1044 1.0534,-0.857 1.8984,-1.6725 3.2792,-3.1648 6.1667,-5.5965 7.1088,-5.9867 0.7883,-0.3265 1.2488,0.028 1.0526,0.8097 -0.08,0.3179 -4.0686,4.1679 -6.7787,6.5428 -1.8228,1.5972 -2.8785,2.132 -3.2724,1.6574 z m 21.8157,-9.977 c -0.5102,-0.5102 -0.1607,-1.0554 2.6159,-4.0807 1.143,-1.2453 2.453,-2.7136 2.9113,-3.2628 0.4582,-0.5493 1.087,-1.1364 1.3972,-1.3048 0.525,-0.2849 0.5817,-0.2885 0.8185,-0.052 0.2064,0.2063 0.2239,0.3421 0.093,0.7174 -0.7205,2.0671 -6.2462,8.167 -7.3981,8.167 -0.1395,0 -0.3365,-0.083 -0.4379,-0.1844 z m -4.0763,-11.1331 c -0.2271,-0.227 -0.068,-0.779 0.4129,-1.4339 0.8354,-1.1375 5.8758,-6.5072 6.3933,-6.8111 0.5725,-0.3361 0.84,-0.1893 0.9861,0.5413 0.1586,0.7929 -0.3884,1.6343 -2.4863,3.8246 -2.6677,2.7853 -4.0843,3.9815 -4.715,3.9815 -0.2687,0 -0.5347,-0.046 -0.591,-0.1024 z m 73.6424,20.2268 c 0.2383,-0.1698 0.8905,-0.9932 1.4492,-1.8298 1.0813,-1.619 1.9841,-2.5523 2.7153,-2.8073 0.5646,-0.1968 0.7994,-0.6242 0.669,-1.2178 -0.1172,-0.5337 -0.5488,-0.7499 -1.4964,-0.7499 -0.574,0 -0.7213,0.088 -1.5245,0.9142 -1.4854,1.5275 -3.0435,4.202 -3.0435,5.2242 0,0.8189 0.4802,1.0009 1.2309,0.4664 z m -158.9334,-45.4199 c 0.4225,-0.1275 1.1484,-0.3991 1.6131,-0.6036 0.8468,-0.3726 4.898,-1.4625 8.0657,-2.1701 3.1356,-0.7003 9.4766,-0.6432 15.9776,0.144 2.2025,0.2667 3.5941,0.3346 6.8366,0.3333 2.3685,0 4.3604,-0.071 4.7626,-0.1669 0.3802,-0.091 1.3689,-0.3454 2.197,-0.5654 2.792,-0.7419 5.4669,-1.0397 10.4775,-1.1662 l 4.609,-0.1163 2.6885,-0.9582 c 3.0913,-1.1017 5.3264,-2.2099 7.2975,-3.6181 2.8545,-2.0393 5.4604,-5.101 7.1391,-8.3878 1.3291,-2.6022 1.6051,-3.3391 2.0089,-5.3621 0.3496,-1.7513 0.5764,-2.321 1.5272,-3.8361 1.3905,-2.2157 1.9774,-6.3321 1.7968,-12.6025 -0.1392,-4.8347 -0.4091,-6.5033 -1.7256,-10.67 -1.2506,-3.9579 -4.1683,-9.5809 -6.4783,-12.4849 -2.0902,-2.6277 -7.9218,-8.6064 -11.0704,-11.3499 -1.628,-1.4185 -3.412,-2.3973 -9.0217,-4.9498 l -3.3799,-1.5379 -4.148,-0.072 c -2.8738,-0.05 -4.5021,-0.1448 -5.3003,-0.3085 -1.5873,-0.3254 -5.0175,-0.6038 -6.683,-0.5423 -1.7986,0.067 -1.823,0.1918 -0.4034,2.0723 1.5588,2.0649 1.7375,2.6317 1.8484,5.8648 0.1093,3.1849 0.105,3.1773 1.7045,3.0429 2.0692,-0.1739 4.2189,-0.9985 5.2739,-2.023 1.2746,-1.2379 1.5139,-2.5541 0.8063,-4.434 -0.4413,-1.1726 -0.3563,-1.5301 0.3439,-1.4455 0.5671,0.069 0.9174,0.657 1.5718,2.6406 l 0.5894,1.7867 -0.9904,2.04 c -1.2012,2.4742 -1.2972,3.0763 -0.5701,3.5741 0.8718,0.5967 2.8478,1.0451 4.655,1.0562 2.0771,0.013 2.7924,-0.3068 3.8725,-1.7306 1.0259,-1.3523 1.2691,-2.2809 1.1122,-4.2468 -0.068,-0.8473 -0.1288,-1.8516 -0.1361,-2.2318 -0.012,-0.6424 0.017,-0.6948 0.4057,-0.7397 0.3301,-0.038 0.4802,0.053 0.7089,0.4289 0.4425,0.7276 0.8569,2.8346 0.8468,4.3052 -0.011,1.6087 -0.3832,2.6674 -1.408,4.0046 -1.2876,1.6802 -1.4114,1.8742 -1.4114,2.2114 0,0.4588 0.6776,1.0643 1.7292,1.5453 1.0798,0.4939 3.2194,0.7334 4.8001,0.5373 1.0531,-0.1307 1.0929,-0.1521 1.9204,-1.0325 0.9892,-1.0526 1.6442,-2.3105 1.8697,-3.5906 0.1733,-0.9838 0.6698,-1.8759 1.089,-1.9566 0.4142,-0.08 0.8808,0.8432 0.8815,1.7439 0,1.6229 -0.8973,3.9796 -1.9177,5.0303 -0.299,0.3079 -1.0152,0.8352 -1.5916,1.1718 -1.3687,0.7994 -1.5173,0.979 -1.2394,1.4982 0.3123,0.5835 3.4911,3.8698 3.9955,4.1306 0.5673,0.2934 2.0558,0.2842 2.943,-0.018 1.2901,-0.4395 2.424,-1.9576 3.181,-4.2585 0.4276,-1.2999 0.8639,-1.6704 1.4865,-1.2624 0.3795,0.2486 0.3985,0.3178 0.3119,1.1314 -0.051,0.4767 -0.2414,1.3062 -0.4239,1.8435 -0.6907,2.0342 -2.9028,4.6627 -4.1006,4.8726 -0.8388,0.1469 -1.2305,0.4547 -1.4031,1.102 -0.2583,0.9691 0.092,2.0158 0.9039,2.6989 1.3178,1.1088 3.5434,1.3207 5.3294,0.5073 1.1417,-0.5199 1.5135,-0.8991 2.3523,-2.3992 0.8265,-1.478 1.1925,-1.8703 1.6906,-1.8122 0.3491,0.041 0.3941,0.1223 0.4367,0.7919 0.094,1.4719 -1.4706,3.9401 -3.197,5.0442 -0.8156,0.5216 -2.8632,1.1995 -3.6232,1.1995 -0.7737,0 -1.5708,0.3819 -1.7868,0.856 -0.1679,0.3684 -0.1242,0.5317 0.4221,1.5782 1.1957,2.2901 2.6887,3.298 4.9111,3.3155 0.9424,0.01 1.1964,-0.057 2.053,-0.52 0.5377,-0.2907 1.1837,-0.7848 1.4355,-1.0981 0.5619,-0.6993 0.9672,-0.8281 1.3623,-0.433 0.363,0.3631 0.3641,0.5147 0.01,1.2958 -0.3768,0.8293 -1.2438,1.558 -2.5985,2.1839 -1.4095,0.6512 -2.2865,0.7616 -3.5128,0.442 -1.3903,-0.3623 -1.9917,-0.3271 -2.294,0.1343 -0.2277,0.3476 -0.2288,0.4804 -0.012,1.5417 0.3167,1.553 0.8509,2.6702 1.7222,3.6017 1.0193,1.0897 2.1503,1.6023 3.5253,1.5979 1.6202,0 2.2828,-0.2454 2.7994,-1.0147 0.4411,-0.6568 1.3009,-1.3443 1.6811,-1.3443 0.1156,0 0.3244,0.2396 0.4641,0.5324 0.3797,0.7964 0.099,1.5601 -0.9064,2.4639 -1.2185,1.0955 -1.8235,1.3494 -3.4061,1.4295 -1.9373,0.098 -2.678,-0.1132 -4.4609,-1.2724 -2.4342,-1.5826 -2.6996,-1.5334 -3.8554,0.7157 -2.067,4.0225 -3.7658,5.7375 -5.3826,5.4342 -0.6089,-0.1142 -0.7138,-0.2742 -1.0524,-1.6044 -0.2905,-1.1413 -0.9617,-2.4482 -1.7045,-3.3188 l -0.523,-0.6129 -0.2518,0.6028 c -0.1385,0.3315 -0.3864,1.2969 -0.5509,2.1453 -0.3449,1.7793 -0.7987,2.668 -1.6934,3.3161 -1.1101,0.8041 -2.6769,0.7539 -3.3546,-0.1076 -0.3846,-0.489 -0.4166,-1.6936 -0.065,-2.4351 0.1347,-0.2839 0.6625,-0.9857 1.1728,-1.5595 1.143,-1.2855 1.5,-1.8481 1.5008,-2.365 0,-0.5982 -0.6175,-1.4032 -1.2681,-1.6507 -0.8203,-0.3123 -1.6367,-0.042 -3.5133,1.1633 -1.8513,1.1891 -3.6199,2.1567 -4.297,2.3509 -0.4558,0.1307 -0.5349,0.098 -0.9705,-0.4069 -1.5668,-1.8142 -1.9241,-1.9819 -5.6609,-2.656 -1.3723,-0.2476 -3.9122,-0.7628 -5.6444,-1.1449 -3.9616,-0.8739 -5.6772,-1.0684 -8.7177,-0.9886 -2.1923,0.058 -2.5123,0.102 -3.3939,0.4716 -1.8268,0.7658 -3.5023,2.0452 -6.4778,4.9464 -1.7479,1.7043 -3.1404,2.9307 -3.6167,3.1853 -1.4714,0.7864 -1.7168,0.806 -10.1333,0.81 h -7.8352 l -1.2145,0.5377 c -1.4467,0.6405 -1.7175,0.9579 -1.1881,1.3923 0.46,0.3775 0.8883,0.3753 1.8649,-0.01 1.0543,-0.4156 1.5013,-0.3986 1.7125,0.065 0.2727,0.5984 0.018,1.3996 -0.772,2.4313 -1.0008,1.3065 -1.0922,1.5071 -1.1968,2.6271 -0.1774,1.9004 0.4514,4.0089 1.5344,5.1446 1.0468,1.0976 -0.133,1.0134 15.6982,1.1201 14.352,0.097 15.6575,0.1489 16.6559,0.6651 0.5354,0.2769 1.8204,1.6582 2.0125,2.1634 0.083,0.2191 0.1514,0.8357 0.1514,1.3703 v 0.9719 l -2.8806,0.096 c -3.4231,0.114 -4.8265,0.2626 -7.2295,0.7652 -0.988,0.2067 -2.5222,0.456 -3.4095,0.5541 -2.308,0.2553 -7.4642,1.3001 -9.0684,1.8376 -1.6398,0.5493 -3.4279,1.4277 -3.9313,1.9311 -0.4234,0.4234 -0.4692,0.8696 -0.1246,1.2142 0.258,0.2581 0.5003,0.2361 1.8324,-0.166 z m 25.5192,-3.8762 c -0.7197,-0.7954 -0.5942,-2.0384 0.2465,-2.4414 0.5969,-0.2861 1.0429,-0.9228 1.0429,-1.4888 0,-0.6542 -0.7788,-1.8058 -1.7291,-2.557 -0.4161,-0.329 -0.8171,-0.5981 -0.891,-0.5981 -0.074,0 -0.3789,-0.2145 -0.6776,-0.4768 -0.4377,-0.3843 -0.543,-0.5869 -0.543,-1.0446 0,-0.7292 0.2211,-0.9375 0.9909,-0.9333 0.7347,0 1.5795,0.3635 2.8037,1.1931 1.379,0.9346 1.689,0.9457 2.1747,0.078 0.3419,-0.6111 1.6009,-0.1062 3.0378,1.2183 1.0883,1.0032 1.23,2.359 0.4242,4.06 -0.5235,1.1051 -0.8996,1.3061 -2.6737,1.4292 -1.6069,0.1114 -1.8877,0.2368 -2.9086,1.2995 -0.5952,0.6195 -0.9156,0.6842 -1.2977,0.262 z m 5.1302,-4.3248 c 0,-1.0145 -0.3272,-1.7619 -0.9326,-2.13 -0.7813,-0.4752 -0.9668,-0.2921 -0.8603,0.8488 0.093,0.9967 0.4078,1.8127 0.7527,1.9514 0.1074,0.043 0.3854,0.084 0.6177,0.091 0.4066,0.012 0.4225,-0.017 0.4225,-0.7609 z m -21.3547,-5.3823 c -2.1547,-0.2586 -4.2666,-1.236 -5.6839,-2.6305 -1.0289,-1.0124 -1.4008,-1.8603 -1.4978,-3.4152 -0.073,-1.1675 -0.051,-1.3067 0.2567,-1.6141 0.2496,-0.2497 0.4826,-0.3243 0.9037,-0.2892 0.5599,0.047 0.5725,0.062 0.9515,1.1994 0.5111,1.5335 0.779,1.9932 1.6752,2.8754 1.3183,1.2977 2.9748,1.8903 3.7903,1.3559 0.3428,-0.2246 0.3913,-0.3466 0.3282,-0.8263 -0.041,-0.3096 -0.1827,-0.8394 -0.3154,-1.1774 -0.3235,-0.8235 -0.3285,-2.9994 -0.01,-4.0737 0.3133,-1.0552 1.0941,-1.8839 1.7086,-1.8133 0.3601,0.041 0.435,0.1297 0.4764,0.5627 0.032,0.3312 -0.047,0.62 -0.2218,0.8132 -0.2031,0.2244 -0.2875,0.643 -0.3365,1.6684 -0.095,1.989 0,2.3335 0.9518,3.2696 1.1709,1.1578 1.3804,1.5291 1.2513,2.2173 -0.1635,0.8716 -0.4772,1.3622 -1.0343,1.6177 -0.6634,0.3043 -1.9524,0.4093 -3.1946,0.2601 z m 8.8077,-2.4357 c -3.4208,-1.6183 -4.1351,-5.8173 -1.4901,-8.7592 0.799,-0.8887 1.4661,-1.1904 1.8293,-0.8273 0.319,0.319 0.1931,0.859 -0.58,2.4877 -0.9222,1.9426 -0.9537,3.4533 -0.095,4.5451 0.446,0.567 1.1189,0.8704 2.2387,1.0093 0.537,0.067 1.0775,0.205 1.2012,0.3077 0.345,0.2863 0.2682,0.8319 -0.1801,1.2803 -0.5769,0.5768 -1.6463,0.5609 -2.9241,-0.044 z m 16.2811,-2.1461 c -0.439,-0.1625 -1.5813,-0.6748 -2.5387,-1.1386 -2.9817,-1.4444 -4.0551,-1.6314 -5.1402,-0.8959 -1.1769,0.7979 -3.3434,0.7588 -4.2218,-0.076 -0.8406,-0.799 -0.9251,-1.1179 -0.8705,-3.2843 0.059,-2.347 0.067,-2.3325 -1.9071,-3.3705 -0.6982,-0.367 -1.5003,-0.8384 -1.7824,-1.0475 -0.4458,-0.3304 -0.5011,-0.4438 -0.4218,-0.8665 0.1668,-0.8889 1.1097,-2.9166 1.4874,-3.1986 0.6259,-0.4673 2.1139,-0.6626 3.4575,-0.4537 3.0615,0.4759 5.7295,2.3881 8.2389,5.905 0.6143,0.8609 1.4808,1.9296 1.9257,2.3748 2.1085,2.1101 6.2974,3.0659 8.7501,1.9964 1.3222,-0.5766 1.5793,-0.557 1.5793,0.1206 0,0.872 -0.8114,1.6185 -2.8191,2.5936 -3.1172,1.514 -4.4374,1.8226 -5.7373,1.3415 z m -6.0634,-6.8496 c 0.038,-0.3328 -0.047,-0.5414 -0.3136,-0.7682 -0.201,-0.1711 -0.5977,-0.6223 -0.8814,-1.0026 -1.0705,-1.4348 -3.0733,-2.6206 -4.6185,-2.7344 -0.7188,-0.053 -0.8905,-0.013 -1.1472,0.2711 -0.2771,0.3063 -0.2829,0.3671 -0.071,0.7454 0.1415,0.252 0.7524,0.6941 1.5732,1.1384 0.738,0.3996 1.7724,1.0195 2.2986,1.3776 2.3112,1.5728 3.0648,1.8049 3.1594,0.9727 z m 113.7958,22.2992 c 0.049,-0.1966 -0.016,-0.9397 -0.1454,-1.6515 -0.1293,-0.7118 -0.3072,-1.8818 -0.3953,-2.6 -0.2225,-1.8133 -0.4812,-3.2554 -0.6388,-3.5615 -0.073,-0.1422 -0.3078,-1.2829 -0.5215,-2.5349 -1.3359,-7.8282 -4.7583,-17.1218 -7.7603,-21.0729 -1.7074,-2.2473 -1.7702,-2.3592 -7.2855,-12.9799 -0.7387,-1.4225 -2.0387,-3.6347 -2.889,-4.9162 -0.8502,-1.2814 -2.303,-3.5397 -3.2284,-5.0184 -3.6921,-5.8999 -6.5914,-9.3797 -11.6283,-13.9568 -6.395,-5.8113 -6.5722,-5.9587 -10.8357,-9.0138 -5.4129,-3.8786 -6.7218,-4.7123 -11.1695,-7.114 -1.4114,-0.7621 -3.4508,-1.9615 -4.5321,-2.6652 -3.4139,-2.2219 -6.4833,-3.5835 -6.9734,-3.0934 -0.08,0.08 -0.4574,1.1666 -0.8395,2.4155 -1.1085,3.6228 -2.4975,6.0888 -4.8562,8.6211 -1.3586,1.4587 -1.8179,2.0419 -1.8179,2.3084 0,0.2752 0.71,0.4694 2.7654,0.7565 4.7862,0.6686 10.0015,2.2397 15.6704,4.7207 0.9717,0.4253 2.373,0.9717 3.114,1.2143 1.7986,0.5886 5.4521,2.7063 8.6388,5.0072 1.4931,1.0781 5.765,4.485 6.5851,5.2516 1.1386,1.0644 4.1672,4.4127 6.0605,6.7001 1.049,1.2675 3.413,3.9291 5.2533,5.9148 4.4375,4.7881 5.6864,6.2596 6.7152,7.912 0.4735,0.7605 1.7374,2.6962 2.8086,4.3017 1.0713,1.6054 2.2478,3.4375 2.6144,4.0712 0.3667,0.6337 1.3057,2.1012 2.0866,3.2609 1.3473,2.0007 3.3928,5.9008 4.817,9.1846 0.3217,0.7418 0.9701,2.0032 1.4409,2.8031 1.8226,3.0969 2.9018,5.545 3.0981,7.028 0.061,0.4647 0.4516,1.766 0.8669,2.8919 0.4152,1.1258 0.8871,2.6135 1.0486,3.3061 0.3724,1.5969 0.561,2.0899 0.9644,2.5205 0.4217,0.4502 0.854,0.445 0.9686,-0.012 z m -98.1858,-31.3415 c 0.1181,-1.1029 0.028,-1.6207 -0.4237,-2.4456 -0.5919,-1.08 -2.0693,-1.4578 -3.7494,-0.9589 -1.0309,0.3062 -2.5766,1.3524 -3.1332,2.1209 -0.4204,0.5803 -0.4314,0.6325 -0.1892,0.9001 0.4248,0.4693 2.3364,0.9604 4.8922,1.2567 0.2535,0.03 0.9195,0.064 1.48,0.076 l 1.0191,0.023 0.1042,-0.9726 z m 11.9148,-45.2016 c 0.8785,-0.2499 1.9727,-1.1501 2.3719,-1.9512 0.4597,-0.9225 0.4872,-1.3303 0.1391,-2.064 -0.683,-1.4393 -3.1925,-1.9446 -4.3691,-0.8798 -0.4544,0.4113 -0.3505,0.7772 0.3602,1.2675 1.3962,0.9631 1.5799,1.6021 0.7554,2.6281 -0.5148,0.6406 -0.6106,1.0096 -0.2945,1.1346 0.1967,0.078 0.3658,0.056 1.037,-0.1352 z m 7.341,-1.2046 c 2.4521,-1.2441 5.8651,-4.6317 7.3894,-7.3343 0.5652,-1.0019 0.878,-2.3613 1.0284,-4.4683 0.1364,-1.9101 0,-2.2777 -1.0566,-2.8031 -0.4301,-0.2144 -0.984,-0.3897 -1.2309,-0.3897 -0.5997,0 -1.6322,-1.0131 -1.6648,-1.6335 -0.095,-1.8116 0.706,-3.1957 2.5357,-4.3803 1.2274,-0.7946 2.2934,-1.167 4.3453,-1.5178 1.9899,-0.3402 2.153,-0.3097 3.3231,0.6221 0.9622,0.766 1.7222,0.9748 3.185,0.8748 1.9971,-0.1364 4.4978,-1.2276 4.705,-2.0529 0.2245,-0.8945 -1.7493,-2.0539 -6.2277,-3.6583 -3.6567,-1.3099 -3.8954,-1.3537 -7.7953,-1.4294 -2.2958,-0.044 -3.8396,-0.01 -4.3546,0.1021 -0.4387,0.094 -1.8109,0.6147 -3.0493,1.1568 -3.7227,1.6297 -3.4135,1.5932 -7.1884,0.8485 -1.7631,-0.3478 -4.8649,-1.0139 -6.8928,-1.48 -3.0533,-0.7019 -4.0173,-0.8617 -5.6075,-0.9297 -2.0087,-0.086 -4.0045,0.1023 -5.362,0.5055 -1.1635,0.3455 -1.321,0.6732 -1.321,2.7488 0,1.6771 0.01,1.7086 0.5776,2.7231 1.089,1.9347 2.9974,3.5659 5.1775,4.4251 1.0781,0.425 3.7868,0.9913 8.4558,1.7678 6.6073,1.0989 8.75,1.6404 10.0628,2.5434 1.5487,1.0651 4.5322,4.6123 4.5322,5.3884 0,0.153 -0.1409,0.3535 -0.3131,0.4456 -0.3739,0.2001 -0.916,0.061 -0.916,-0.2347 0,-0.116 -0.7684,-1.0102 -1.7076,-1.9872 -1.405,-1.4614 -1.902,-1.8718 -2.8038,-2.3152 -1.9041,-0.9361 -3.7242,-1.2986 -7.371,-1.468 -1.7612,-0.082 -3.9735,-0.2506 -4.9162,-0.3752 -2.8801,-0.3805 -2.8989,-0.3773 -4.0584,0.7074 -1.0742,1.0049 -1.8081,1.3937 -3.1233,1.6548 -2.1832,0.4334 -2.9582,0.3942 -5.4401,-0.2748 -0.5915,-0.1595 -1.136,-0.2324 -1.2101,-0.1621 -0.1969,0.1868 0.4318,1.1228 1.0929,1.6271 0.3131,0.2388 0.9815,0.6437 1.4854,0.8998 2.0153,1.0242 1.873,2.2147 -0.2119,1.7722 -0.8341,-0.1769 -0.922,-0.1653 -1.7684,0.2351 -0.818,0.3871 -0.951,0.4075 -1.6319,0.2503 -2.4461,-0.5646 -5.7499,-3.1538 -6.8995,-5.4072 -0.3622,-0.71 -0.3962,-1.5717 -0.073,-1.8402 0.2525,-0.2096 0.4967,0.015 2.7637,2.5434 1.0875,1.2128 2.211,2.0669 2.7186,2.0669 0.476,0 0.3343,-0.9301 -0.5817,-3.8198 -1.1422,-3.6035 -1.2701,-3.9543 -1.5817,-4.3392 -0.26,-0.3211 -0.2787,-0.3225 -0.7948,-0.06 -0.2907,0.1479 -0.9434,0.562 -1.4504,0.9204 -1.4697,1.0388 -2.8703,1.6628 -6.0018,2.6744 -4.5817,1.4799 -6.9416,2.7857 -7.2054,3.9869 -0.1862,0.8475 1.1372,2.9419 1.8588,2.9419 0.1151,0 0.4771,-0.242 0.8045,-0.5378 1.0336,-0.9338 1.6925,-0.6953 4.2497,1.5381 1.4353,1.2536 3.0436,2.3795 3.3989,2.3795 0.1135,0 1.1166,0.3098 2.2292,0.6885 3.3719,1.1477 6.7915,1.7285 12.2653,2.0832 4.1925,0.2716 5.4959,0.029 6.2504,-1.1638 0.4859,-0.7679 0.7406,-0.9103 2.0545,-1.1486 0.5257,-0.095 1.697,-0.4057 2.6029,-0.6897 2.2987,-0.7207 3.8081,-1.0151 5.6967,-1.1108 1.9772,-0.1003 2.5561,0.061 3.458,0.9627 0.7315,0.7315 1.1386,1.7972 1.1386,2.9808 0,0.3865 0.067,0.9366 0.149,1.2223 0.3285,1.1455 1.0148,1.3638 2.2758,0.724 z m -36.07,-8.2573 c -1.5418,-0.9396 -3.3586,-2.9692 -3.711,-4.1456 -0.1652,-0.5511 -0.1518,-0.6416 0.1373,-0.9307 l 0.3203,-0.3203 0.3593,0.3868 c 0.1975,0.2128 0.5411,0.6609 0.7635,0.9958 0.2224,0.3349 1.2043,1.2461 2.182,2.0248 1.6858,1.3427 2.0888,1.8089 1.8698,2.1631 -0.1715,0.2776 -1.3564,0.1703 -1.9212,-0.1739 z m 15.1197,-6.0242 c 0.4787,-0.3136 0.532,-0.9382 0.1,-1.1694 -0.4209,-0.2253 -1.2462,-0.1971 -1.9981,0.068 -0.7281,0.2569 -1.5455,0.7949 -1.5455,1.0172 0,0.4974 2.7119,0.5636 3.4437,0.084 z m -4.3682,-0.2914 c 0,-0.1057 -0.1713,-0.3521 -0.3776,-0.5477 -0.5252,-0.498 -1.1205,-1.8247 -1.4083,-3.1385 -0.3223,-1.4715 -0.5412,-1.8061 -1.1814,-1.8061 -0.8042,0 -1.0599,0.2862 -1.0599,1.1865 0,0.5687 0.1196,1.0005 0.4402,1.5898 0.5168,0.9498 1.6239,2.2234 2.2813,2.6242 0.5305,0.3236 1.3097,0.3783 1.3057,0.092 z m 44.7094,-2.3457 c 0.6337,-0.1394 1.6034,-0.4508 2.1548,-0.6919 0.5514,-0.2411 1.8649,-0.7451 2.919,-1.12 1.054,-0.3748 2.5732,-0.9734 3.3759,-1.33 1.5095,-0.6707 3.3442,-1.3618 6.9134,-2.6043 2.3231,-0.8086 2.5682,-0.9223 2.9873,-1.3854 0.2703,-0.2988 0.2746,-0.347 0.05,-0.5715 -0.4025,-0.4024 -2.1117,-0.4361 -3.8823,-0.076 -0.845,0.1716 -3.1508,0.5361 -5.1241,0.81 l -3.5877,0.4981 -0.6327,0.838 c -0.8342,1.1048 -2.2746,2.1769 -4.2352,3.1522 -2.0591,1.0243 -2.7166,1.0564 -4.6256,0.2262 -3.2857,-1.4291 -6.1453,-0.9233 -6.1453,1.0868 0,0.7804 0.6931,1.1363 2.8422,1.4595 1.0443,0.1571 5.8658,-0.044 6.9902,-0.2912 z m -47.1273,-5.6013 c 0.7258,-0.5709 0.625,-1.6934 -0.152,-1.6934 -0.8502,0 -1.7401,1.0953 -1.4024,1.7262 0.1983,0.3705 1.0649,0.3522 1.5544,-0.033 z m 25.994,-5.558 c 0.5964,-0.351 1.5692,-0.9705 2.1617,-1.3766 2.0579,-1.4103 3.3869,-1.6443 10.3682,-1.8251 6.0103,-0.1556 6.3035,-0.2127 8.5266,-1.6604 1.5818,-1.0301 2.2268,-1.6355 4.6857,-4.3985 2.4605,-2.7648 2.947,-3.4349 2.7545,-3.7946 -0.084,-0.1578 -0.3193,-0.2869 -0.5218,-0.2869 -0.5007,0 -4.0233,1.7856 -5.5357,2.8061 -0.676,0.4561 -1.86,1.257 -2.6311,1.7799 -2.5006,1.6957 -3.807,2.0455 -8.9681,2.401 -1.8167,0.1252 -3.7179,0.333 -4.2249,0.4619 -1.1089,0.2818 -5.407,2.385 -7.0023,3.4264 -1.876,1.2247 -2.3469,2.0089 -1.6511,2.7496 0.4653,0.4953 0.7941,0.4497 2.0383,-0.2828 z" id="path4359-5" inkscape:connector-curvature="0" style="fill:#2f5000;fill-opacity:1"/>
</g></g>
</g>
</svg>