<?xml version="1.0" encoding="utf-8"?>
<!-- Created with Inkscape (http://www.inkscape.org/) --><svg height="152.42821mm" id="svg6779" inkscape:version="0.92.2 (unknown)" sodipodi:docname="niveau2.svg" version="1.1" viewBox="0 0 338.49999 540.09995" width="95.532219mm" xmlns="http://www.w3.org/2000/svg" xmlns:cc="http://creativecommons.org/ns#" xmlns:dc="http://purl.org/dc/elements/1.1/" xmlns:inkscape="http://www.inkscape.org/namespaces/inkscape" xmlns:rdf="http://www.w3.org/1999/02/22-rdf-syntax-ns#" xmlns:sodipodi="http://sodipodi.sourceforge.net/DTD/sodipodi-0.dtd" xmlns:svg="http://www.w3.org/2000/svg">
<defs id="defs6781"/>
<sodipodi:namedview bordercolor="#666666" borderopacity="1.0" id="base" inkscape:current-layer="layer1" inkscape:cx="14.891463" inkscape:cy="90.675925" inkscape:document-units="px" inkscape:guide-bbox="true" inkscape:pageopacity="0.0" inkscape:pageshadow="2" inkscape:window-height="722" inkscape:window-maximized="0" inkscape:window-width="1346" inkscape:window-x="18" inkscape:window-y="21" inkscape:zoom="2.5600001" pagecolor="#ffffff" showgrid="false" showguides="true">
<sodipodi:guide id="guide4174" inkscape:locked="false" orientation="1,0" position="22.373299,423.4354"/>
<sodipodi:guide id="guide4176" inkscape:locked="false" orientation="1,0" position="32.869415,443.32278"/>
<sodipodi:guide id="guide3376" inkscape:locked="false" orientation="0,1" position="74.609371,53.124996"/>
</sodipodi:namedview>
<metadata id="metadata6784">
<rdf:RDF>
<cc:Work rdf:about="">
<dc:format>image/svg+xml</dc:format>
<dc:type rdf:resource="http://purl.org/dc/dcmitype/StillImage"/>
<dc:title/>
</cc:Work>
</rdf:RDF>
</metadata>
<g id="layer1" inkscape:groupmode="layer" inkscape:label="Calque 1" transform="translate(0,0.58533621)">
<rect height="539.09998" id="rect4326-0-3-6-4-3-2-61-6-9-9-5-0-7-0-5-8-8-9-4-5-5-9" inkscape:export-xdpi="90" inkscape:export-ydpi="90" style="fill:#ffffff;fill-opacity:1;stroke:none;stroke-opacity:1" width="337.5" x="0.5" y="-0.085336208"/>
<path d="m 130.52594,353.37015 c -15.3738,-12.7245 -30.1139,-35.6783 -46.39294,-53.2035 -21.3224,-27.1442 -39.6243,-59.8886 -39.2009,-95.2479 7.7085,-29.3075 43.5327,-27.7809 63.77714,-43.7739 22.2365,-6.781 36.9664,-22.1115 55.5568,-32.3545 21.8466,-3.1782 13.3402,-47.0349 34.363,-57.7024 1.5322,21.3504 -6.0476,71.1885 30.6893,55.6116 16.9231,-11.9302 31.7638,-65.4677 27.2052,-17.4756 8.4179,24.7972 -30.2579,49.1967 -4.2786,68.1694 24.6173,7.1739 50.3366,48.2231 30.3102,65.9854 -33.1364,18.1149 3.9851,48.8829 2.9241,74.7912 6.6826,23.0171 10.9649,47.0127 9.6395,71.1114 -13.6333,20.2716 -45.7116,18.7809 -65.2208,9.5029 -29.4001,-15.6669 -34.4095,-55.7128 -66.78,-67.4505 -26.2448,-16.5953 -28.3527,-1.5195 -32.592,22.0364 z" id="path4378-28-9-7-0-6-8" inkscape:connector-curvature="0" style="fill:#6ab400;fill-opacity:1;fill-rule:evenodd;stroke:none"/>
<path d="m 251.47654,414.45696 c -1.72,-0.79371 -1.9247,-1.04961 -4.8081,-6.01001 -3.5364,-6.0839 -5.2435,-9.9489 -4.8906,-11.0719 0.1891,-0.6015 -0.072,-2.4681 -0.5787,-4.1481 -0.5074,-1.6799 -0.9225,-3.9678 -0.9225,-5.0842 0,-2.1385 -2.0514,-11.5349 -3.3057,-15.1415 l -0.7388,-2.1248 -0.3497,4.0083 c -0.1924,2.2046 -1.0178,5.6203 -1.8345,7.5905 -1.3697,3.3048 -1.4219,3.8094 -0.6739,6.5164 0.446,1.6138 1.1444,4.4975 1.5521,6.4081 0.4076,1.9107 1.3583,4.2584 2.1124,5.2172 0.7543,0.9588 1.3714,2.4056 1.3714,3.215 0,1.9885 1.9021,3.7545 4.9186,4.5668 2.7956,0.7528 3.7574,1.7507 2.4721,2.5648 -2.2572,1.4297 -6.7022,0.1502 -8.3814,-2.4125 -0.9182,-1.4013 -1.2894,-1.5052 -4.1632,-1.1649 -2.9545,0.35 -3.5002,0.1764 -8.5739,-2.7271 -2.9803,-1.7055 -5.7149,-3.4578 -6.077,-3.8942 -0.362,-0.4362 -0.7441,-2.4635 -0.8489,-4.505 -0.1766,-3.4382 -0.3053,-3.7247 -1.7462,-3.8869 -4.5246,-0.5093 -9.4886,-2.3274 -11.8324,-4.3336 -4.0629,-3.4777 -5.1907,-6.8386 -4.4377,-13.2245 l 0.4035,-3.4222 -9.1491,-9.22 c -5.0321,-5.071 -9.3397,-9.831 -9.5727,-10.5777 -0.2328,-0.7467 -1.4648,-2.6177 -2.7375,-4.1577 -3.05,-3.6904 -3.7501,-5.1173 -3.3195,-6.7642 0.5167,-1.9755 -1.3902,-3.8135 -3.9562,-3.8135 -1.1539,0 -4.4004,-0.7239 -7.2147,-1.6087 -2.8141,-0.8848 -6.3766,-2.0061 -7.9166,-2.4919 -1.5399,-0.4858 -3.264,-0.8819 -3.8312,-0.8802 -1.2839,0 -6.5706,-5.7968 -7.6142,-8.3544 l -0.7737,-1.8961 -2.6071,2.7935 c -1.5239,1.6326 -2.9691,3.9885 -3.4777,5.6692 -0.4787,1.5817 -1.315,3.7356 -1.8584,4.7864 -0.5434,1.0508 -1.2495,3.7568 -1.569,6.0133 -0.5459,3.8541 -1.5815,6.0605 -5.3363,11.3688 -1.0833,1.5316 -2.1858,1.849 -2.1608,0.6222 0.011,-0.4277 1.1286,-3.0146 2.4888,-5.7486 1.3602,-2.734 2.4731,-5.8683 2.4731,-6.9651 0,-1.0968 0.9801,-4.4251 2.1777,-7.3961 1.1978,-2.9711 2.1779,-5.777 2.1779,-6.2354 0,-1.4425 3.7073,-5.1277 5.5699,-5.5368 1.9331,-0.4246 1.877,-0.7878 -0.7202,-4.6733 -1.5484,-2.3162 -5.3414,-18.6747 -6.0321,-26.0139 -0.3988,-4.2391 -0.3908,-7.7204 0.024,-10.2666 l 0.6273,-3.8525 -2.6899,-2.4072 c -5.2227,-4.6737 -19.2268,-13.7506 -28.1833,-18.2671 -1.7208,-0.8677 -3.2686,-1.7871 -3.4397,-2.0431 -0.1711,-0.256 -2.7611,-1.6379 -5.7555,-3.0709 -3.1006,-1.4838 -5.44444,-2.9894 -5.44444,-3.4974 0,-0.4905 0.1212,-0.8919 0.2694,-0.8919 0.99,0 19.08784,9.2247 22.29684,11.365 4.307,2.8726 5.0015,3.3139 9.1668,5.8252 1.5401,0.9284 4.8507,3.0404 7.3568,4.6933 2.7279,1.7991 5.2589,3.0052 6.3062,3.0052 1.7849,0 3.7592,2.0893 3.7592,3.9781 0,1.8593 1.8737,2.8663 5.3333,2.8663 1.8578,0 3.3803,-0.21 3.3833,-0.4666 0,-0.2567 -0.8324,-1.1667 -1.8567,-2.0222 -1.3337,-1.1139 -1.8528,-2.0856 -1.8288,-3.4222 0.019,-1.0267 0.1747,-5.9967 0.3472,-11.0444 0.2689,-7.8726 0.1811,-9.1777 -0.6176,-9.1777 -1.3481,0 -2.6651,5.1465 -3.8572,15.0742 -0.1942,1.6176 -0.5876,3.086 -0.8743,3.2631 -1.6542,1.0224 -1.2965,-6.1982 0.6312,-12.7374 0.6557,-2.2244 1.5728,-5.5844 2.0379,-7.4666 0.4652,-1.8822 0.9584,-3.8355 1.096,-4.3408 0.1593,-0.585 -0.2842,-0.9995 -1.2216,-1.1415 -2.5381,-0.3846 -2.6233,-0.1513 -3.8205,10.46 -0.3283,2.9089 -0.6017,7.1624 -0.6078,9.4522 -0.011,2.2897 -0.2672,4.3215 -0.5802,4.515 -0.313,0.1934 -1.8226,-0.9018 -3.3547,-2.4338 -1.532,-1.532 -4.081,-3.4744 -5.6646,-4.3163 -1.5835,-0.842 -3.9238,-2.3338 -5.2008,-3.3151 -3.359,-2.5814 -4.9427,-3.5175 -16.3217,-9.6477 -11.8259,-6.371 -14.93324,-8.2412 -14.93324,-8.9878 0,-0.452 0.2697,-0.8219 0.59924,-0.8219 1.3037,0 7.2663,2.6699 9.8368,4.4047 1.496,1.0096 2.9627,1.6857 3.2593,1.5024 0.2966,-0.1833 0.7665,0.058 1.0442,0.5356 0.2776,0.4779 2.1849,1.7377 4.2381,2.7996 9.5877,4.9582 20.5512,11.9977 22.8059,14.6433 0.9077,1.065 1.8122,1.7786 2.01,1.5857 0.5993,-0.5846 1.6681,-20.3375 1.2439,-22.9902 -0.2512,-1.5706 -0.121,-2.8052 0.3561,-3.3802 0.4271,-0.5146 0.8351,-3.3313 0.9445,-6.5218 0.1612,-4.6975 0.4547,-6.063 1.7943,-8.3489 0.8809,-1.5031 1.4741,-2.8604 1.3182,-3.0163 -0.1559,-0.1559 -0.035,-4.0427 0.2683,-8.6374 0.3541,-5.3608 0.3338,-8.6216 -0.056,-9.1008 -0.8364,-1.0273 -0.7337,-7.934 0.1425,-9.5711 0.938,-1.7528 0.2512,-6.2498 -1.3759,-9.0073 -1.797,-3.0458 -3.3252,-9.7528 -3.539,-15.5317 -0.124,-3.3565 -0.4904,-5.3049 -1.1304,-6.0139 -0.7943,-0.8798 -0.8341,-1.5749 -0.2468,-4.3131 0.801,-3.7351 1.5711,-4.9047 3.2297,-4.9047 0.8338,0 1.1682,-0.4489 1.1682,-1.5679 0,-2.5356 2.8881,-8.9548 6.3885,-14.1991 3.0045,-4.5014 3.6273,-5.066 8.0643,-7.311 3.6102,-1.8267 5.5483,-2.4308 7.7778,-2.4244 4.7977,0.014 5.8258,0.4732 5.3599,2.3958 -0.2186,0.902 -1.307,2.5355 -2.4187,3.6299 -2.403,2.3656 -5.2781,7.3353 -6.851,11.8425 -1.037,2.9714 -1.0531,3.4293 -0.1848,5.2626 0.8692,1.8354 0.8526,2.2772 -0.1925,5.1366 -0.629,1.7207 -1.1436,4.2009 -1.1436,5.5115 0,1.3107 -0.2467,2.8546 -0.5483,3.431 -1.0039,1.9191 1.802,10.7264 4.5651,14.3283 1.3536,1.7647 2.8049,3.2085 3.2252,3.2085 0.4203,0 2.1561,-0.8654 3.8575,-1.9229 1.9614,-1.2193 4.1964,-2.0255 6.108,-2.2032 1.7871,-0.1661 3.9014,-0.8899 5.1924,-1.7777 2.0633,-1.4188 19.8654,-7.8455 25.1999,-9.0974 1.3688,-0.3212 3.1887,-0.8397 4.0443,-1.1523 0.8556,-0.3126 4.0055,-1.2859 7,-2.1629 2.9943,-0.8771 7.7543,-2.2746 10.5777,-3.1057 7.2499,-2.134 12.1089,-3.0199 15.711,-2.8642 1.711,0.074 3.782,0.1084 4.6022,0.077 0.8201,-0.032 1.8918,0.2748 2.3818,0.6813 1.6953,1.407 3.8859,6.6618 4.2795,10.2654 0.4381,4.0123 1.375,5.1742 4.1716,5.1742 1.9101,0 9.7323,4.7682 11.1613,6.8037 0.4296,0.612 2.2336,1.8717 4.0088,2.7993 4.0144,2.0977 4.4939,2.6776 6.1324,7.4176 1.0331,2.9887 1.627,3.8685 2.7197,4.0291 1.2539,0.1842 6.4289,5.0902 8.4379,7.9994 2.0299,2.9394 4.8323,9.1546 6.0064,13.321 1.0964,3.8911 1.2439,5.6803 0.9484,11.5089 -0.4585,9.0468 -1.8997,12.9919 -6.5131,17.8285 -4.1357,4.3358 -8.422,6.4884 -14.073,7.0674 l -4.1943,0.4297 0.4263,4.4196 c 0.2344,2.4308 0.8087,6.2396 1.2762,8.4641 2.1729,10.3391 2.5102,11.366 4.1692,12.6888 2.0103,1.603 4.3492,8.6439 4.1241,12.4148 -0.085,1.4218 0.1507,3.1502 0.5236,3.841 0.3728,0.6907 0.8725,2.3707 1.1103,3.7333 0.376,2.155 2.9243,8.9961 5.5582,14.9217 0.4564,1.0267 1.2574,2.8467 1.7799,4.0445 0.5226,1.1977 2.0521,4.6977 3.399,7.7777 1.3468,3.0799 2.812,6.7199 3.2559,8.0888 0.4438,1.3689 1.153,3.0489 1.5758,3.7333 0.9317,1.5081 3.6528,9.9675 4.6526,14.4636 0.5559,2.5004 0.5519,4.2935 -0.018,7.6674 -0.4257,2.5237 -0.5502,5.6464 -0.2914,7.3141 0.2483,1.6007 0.4148,5.2227 0.3701,8.0491 -0.142,8.9784 -2.8238,13.8176 -10.2071,18.4181 -1.0829,0.6748 -2.6349,2.9216 -4.1269,5.9749 -3.0526,6.2466 -3.6836,7.119 -6.5618,9.0722 -7.1361,4.8428 -11.8256,6.23551 -15.4437,4.5869 -1.2018,-0.5475 -1.8846,-0.4302 -3.6071,0.6199 -2.4141,1.47171 -9.0504,1.75251 -11.7691,0.49791 z m 9.2971,-2.67831 c 1.3629,-0.5453 2.6475,-1.5253 2.8546,-2.1777 0.4747,-1.496 1.013,-1.4875 3.5442,0.056 3.0346,1.8503 5.6701,1.5806 10.0446,-1.0276 5.4836,-3.2694 6.1179,-3.9795 9.3717,-10.4915 2.5443,-5.0921 3.3482,-6.139 6.0658,-7.9 2.4929,-1.6153 3.5641,-2.8862 5.2439,-6.222 1.9042,-3.7812 2.1082,-4.6963 2.083,-9.3407 -0.015,-2.8319 -0.388,-5.9889 -0.8278,-7.0155 -0.6832,-1.5948 -0.6338,-2.3402 0.3392,-5.1178 1.4044,-4.009 1.4585,-9.1699 0.141,-13.4319 -1.2507,-4.0456 -6.9403,-18.8759 -8.0416,-20.9612 -1.6621,-3.1468 -7.6328,-16.6004 -8.9747,-20.2221 -0.7609,-2.0533 -2.1288,-5.2733 -3.0401,-7.1555 l -1.6567,-3.4221 -4.0445,0.1521 c -2.2243,0.084 -5.7243,0.6957 -7.7777,1.36 -2.0532,0.6644 -5.9732,1.8026 -8.711,2.5293 -2.7377,0.7268 -5.6777,1.6139 -6.5333,1.9715 -0.8556,0.3575 -4.2156,1.4549 -7.4666,2.4387 -3.2511,0.9838 -7.0311,2.3357 -8.3999,3.0042 -2.4117,1.1778 -14.9885,6.2156 -20.9999,8.4117 -3.4065,1.2445 -3.7306,2.3758 -1.6463,5.748 1.0961,1.7737 1.4612,1.9919 2.245,1.3414 1.4591,-1.2109 2.6679,0.9957 2.6679,4.8699 0,2.6412 0.2883,3.555 1.4839,4.7033 2.3985,2.3035 4.7383,6.5423 4.7383,8.5837 0,1.4482 -0.3664,2.0337 -1.5555,2.4858 -1.8908,0.7189 -1.8955,0.843 -0.2028,5.3891 1.6872,4.5315 2.0582,5.019 4.1733,5.4835 0.9387,0.2062 3.3693,1.9019 5.4014,3.7683 2.0321,1.8664 3.9046,3.3957 4.1613,3.3984 1.0767,0.011 0.3487,-2.6525 -1.0889,-3.9849 -3.1428,-2.9127 -1.2675,-4.7755 1.9876,-1.9742 1.7299,1.4888 1.7457,1.5693 1.7457,8.8666 0,5.7146 0.2404,7.852 1.0729,9.5419 1.7024,3.4559 3.4328,9.9129 3.8468,14.3551 0.2746,2.9465 1.2275,6.0188 3.4115,10.999 4.4477,10.1421 5.149,10.8737 11.4117,11.9043 0.2497,0.041 1.5691,-0.3715 2.932,-0.9168 z m 5.4177,-21.8804 c -0.1604,-0.2596 -0.063,-1.7257 0.2178,-3.2579 0.5775,-3.1584 0.1522,-4.3168 -2.685,-7.3144 -1.9654,-2.0764 -3.5366,-2.6265 -3.5366,-1.2381 0,1.3716 -3.1061,4.1936 -4.6157,4.1936 -2.0655,0 -2.6971,-1.0527 -3.1769,-5.295 -0.8063,-7.128 2.7064,-15.275 7.6141,-17.6594 3.6339,-1.7655 5.8646,-1.6785 7.8494,0.3063 2.5382,2.5383 2.7239,3.9791 0.7334,5.6912 l -1.7106,1.4714 2.0486,4.036 c 2.5569,5.0377 3.0271,9.3882 1.516,14.0288 -1.4029,4.3083 -3.3097,6.5661 -4.2545,5.0375 z m 2.3996,-10.7334 c 0.2133,-0.3453 0.2011,-1.2165 -0.028,-1.9361 -0.3732,-1.1757 -0.5119,-1.2116 -1.3697,-0.3538 -0.525,0.525 -0.785,1.3962 -0.5778,1.9361 0.4274,1.1138 1.3976,1.2876 1.9747,0.3538 z m -1.559,-5.9745 c 0,-1.5438 -2.4355,-0.9828 -2.8467,0.6558 -0.6014,2.3958 0.3448,3.2983 1.7014,1.623 0.6299,-0.7779 1.1453,-1.8033 1.1453,-2.2788 z m -8.5577,-2.1347 c 1.0256,-1.868 2.9507,-4.7065 4.2779,-6.3079 1.3272,-1.6014 2.4131,-3.0714 2.4131,-3.2667 0,-0.878 -3.1238,-0.2236 -5.0412,1.056 -1.6286,1.0867 -2.4309,2.3376 -3.4923,5.4444 -2.5122,7.3537 -1.4656,9.0998 1.8425,3.0742 z m 5.2094,0.9337 c 0.8296,-1.266 0.897,-1.8858 0.3388,-3.111 -0.3834,-0.8416 -0.9733,-1.5301 -1.3108,-1.5301 -1.3831,0 -2.5883,4.7062 -1.4871,5.8074 0.7497,0.7497 1.4084,0.4373 2.4591,-1.1663 z m 14.5777,15.1662 c 0.05,-1.389 5.2825,-13.0613 5.9049,-13.1713 1.6306,-0.2879 0.086,4.8532 -3.6002,11.9807 -0.8765,1.695 -2.3498,2.456 -2.3047,1.1906 z m 6.1927,-0.3828 c 0,-0.6668 0.596,-1.9701 1.3245,-2.8962 1.8294,-2.3256 2.8342,-1.1574 1.3263,1.5418 -1.3517,2.4195 -2.6508,3.0833 -2.6508,1.3544 z m -40.8966,-5.9564 c 0.1891,-1.8325 0.9613,-6.4736 1.7159,-10.3136 1.2563,-6.3926 1.2972,-7.2535 0.4849,-10.2014 -1.0529,-3.8209 -0.8343,-5.3975 0.7479,-5.3975 0.8956,0 1.2413,0.6043 1.5128,2.6445 0.5442,4.088 0.051,9.7941 -1.1418,13.2083 -0.5951,1.7035 -1.3811,5.4134 -1.7465,8.2443 -0.734,5.6858 -2.1401,7.3084 -1.5732,1.8154 z m -7.6364,22.6967 c 0,-0.3003 -0.4634,-0.9303 -1.0298,-1.4 -1.362,-1.1296 -2.7035,-4.4214 -2.7035,-6.6342 0,-1.6894 -1.7241,-7.5974 -2.2171,-7.5974 -0.2091,0 -2.587,1.1112 -7.1162,3.3254 -1.343,0.6565 -1.5758,1.2251 -1.7043,4.1619 l -0.1488,3.4015 4.1932,2.6285 c 3.5279,2.2114 4.7114,2.631 7.4598,2.6444 1.7967,0.01 3.2667,-0.2297 3.2667,-0.5301 z m -11.1749,-16.2666 c 3.8524,-1.9654 7.4416,-8.7098 7.4416,-13.9837 0,-2.4753 -0.208,-2.879 -1.9465,-3.7781 -1.8621,-0.9628 -1.9313,-1.1355 -1.5949,-3.9753 0.4925,-4.1586 -1.4978,-5.836 -3.8255,-3.224 -1.2524,1.4055 -8.3931,3.815 -11.3436,3.8276 -2.9292,0.013 -4.9092,1.1651 -6.2157,3.618 -0.6069,1.1394 -1.5811,2.5994 -2.1649,3.2445 -0.8309,0.9182 -1.0023,1.9903 -0.7892,4.9367 0.3354,4.6365 1.6564,6.5648 6.0841,8.8804 4.2133,2.2036 10.5333,2.4034 14.3546,0.4539 z m -19.3013,-19.5935 c 0.9995,-0.5169 2.1076,-1.4821 2.4623,-2.145 0.5441,-1.0165 0.2668,-1.5092 -1.7713,-3.147 -1.329,-1.068 -3.9157,-4.1627 -5.7484,-6.8772 -3.3994,-5.0352 -5.266,-6.2042 -5.6451,-3.5354 -0.1091,0.77 -0.4788,1.4242 -0.821,1.4537 -4.734,0.4089 -3.0838,5.4201 3.7333,11.3371 2.3956,2.0793 4.7195,3.7969 5.1643,3.817 0.4447,0.02 1.6264,-0.3863 2.6259,-0.9032 z m 28.9425,-0.3401 c 0.7165,-1.1593 -0.2971,-3.7964 -1.3774,-3.5837 -1.6246,0.3199 -2.4413,2.1069 -1.4878,3.2558 0.9403,1.1328 2.2734,1.2854 2.8652,0.3279 z m -13.8662,-5.5252 c 2.5241,-0.7789 2.7486,-1.2621 1.5555,-3.3469 -0.4277,-0.7475 -1.1978,-2.6191 -1.7113,-4.1591 -0.7898,-2.3692 -1.1559,-2.7688 -2.3793,-2.5975 -1.2937,0.1812 -1.4247,-0.013 -1.2443,-1.8482 0.2513,-2.556 -1.2771,-3.0969 -3.1304,-1.1076 -0.8034,0.8622 -1.7225,1.2415 -2.5101,1.0355 -0.7538,-0.1971 -1.6576,0.1336 -2.2974,0.8407 -1.0909,1.2053 -1.0168,1.5641 2.502,12.1169 0.2513,0.7532 5.4585,0.2255 9.2153,-0.9338 z m -12.5998,-1.9469 c 0,-1.6333 -2.5524,-4.8604 -3.889,-4.9171 -0.9838,-0.041 -0.3991,1.8316 1.1442,3.6658 1.6374,1.9458 2.7448,2.4507 2.7448,1.2513 z m -19.248,-7.4476 c 0.6993,-0.3742 1.2036,-1.2986 1.2036,-2.206 0,-1.4356 0.169,-1.5301 2.0909,-1.1696 1.6306,0.3059 2.1802,0.1596 2.4965,-0.6647 0.4962,-1.2932 -2.0487,-6.1179 -3.3603,-6.3705 -1.1769,-0.2266 -7.4493,5.5063 -7.4493,6.8086 0,1.1597 2.324,4.2463 3.1971,4.2463 0.3399,0 1.1597,-0.2898 1.8215,-0.6441 z m 14.8637,-6.3958 c -0.7718,-2.4591 -2.0875,-5.3969 -2.9235,-6.5284 -0.8848,-1.1974 -1.7049,-3.4081 -1.9621,-5.2889 -0.5476,-4.0049 -3.3822,-9.0148 -5.3847,-9.5174 -1.9998,-0.502 -7.1096,-6.0829 -7.1808,-7.8429 -0.1717,-4.2449 0.2791,-7.2509 1.3674,-9.1182 1.2543,-2.1521 1.1334,-3.9099 -0.3913,-5.6862 -0.4406,-0.5133 -2.2416,-4.7133 -4.0022,-9.3333 -1.7607,-4.6199 -4.9942,-13.0199 -7.1857,-18.6665 -2.1914,-5.6466 -6.3859,-16.5666 -9.3208,-24.2665 -2.9351,-7.6999 -5.7142,-14.8399 -6.1759,-15.8666 -0.4615,-1.0266 -1.4676,-3.8266 -2.2356,-6.2222 -0.7681,-2.3955 -1.6535,-4.6331 -1.9676,-4.9725 -0.8464,-0.9144 -1.8014,0.9396 -1.1301,2.194 0.3008,0.562 0.4232,1.5571 0.2719,2.2113 -0.8019,3.469 -1.417,13.6399 -0.865,14.3048 0.3992,0.4811 0.2564,4.4482 -0.4155,11.5421 -0.5631,5.9449 -1.1211,13.1675 -1.2401,16.0502 -0.1337,3.2432 -0.506,5.4203 -0.9763,5.711 -1.2022,0.7429 0.04,2.8348 7.486,12.6106 3.7151,4.8773 8.1655,11.5109 9.8897,14.7413 1.7243,3.2304 3.8992,7.2734 4.833,8.9845 0.934,1.7111 2.1,3.9511 2.5914,4.9777 0.4914,1.0267 1.2018,2.4267 1.5787,3.1111 0.377,0.6844 1.3224,2.5122 2.1011,4.0617 1.0064,2.0028 2.0109,3.0405 3.4746,3.5893 2.6782,1.0042 5.0981,3.1805 6.4532,5.8037 0.5968,1.1554 1.8123,3.199 2.701,4.5413 0.8886,1.3423 2.045,3.8623 2.5696,5.6 0.7502,2.4854 1.3732,3.3585 2.9198,4.0927 1.0813,0.5133 2.8827,1.8714 4.0031,3.0179 1.1628,1.1898 2.1408,1.7736 2.2787,1.36 0.1328,-0.3985 -0.3901,-2.7365 -1.162,-5.1956 z m 5.2932,1.052 c 0.8129,-0.3119 0.9309,-0.9211 0.6025,-3.1111 -0.3433,-2.2895 -0.2433,-2.7232 0.6281,-2.7232 0.592,0 1.3152,0.8003 1.6869,1.8667 0.7006,2.0095 2.5822,2.4766 4.9255,1.2225 1.446,-0.7739 1.5413,-1.7715 0.2588,-2.7094 -0.5195,-0.38 -1.7165,-2.7824 -2.66,-5.3387 -1.5076,-4.0844 -1.9517,-4.7156 -3.6631,-5.2064 -1.5516,-0.445 -2.5341,-0.2656 -4.8327,0.8824 -3.5745,1.7852 -4.5496,2.8373 -3.553,3.8338 0.3961,0.3962 0.7202,1.3962 0.7202,2.2222 0,0.8261 0.539,2.5201 1.1977,3.7644 0.6588,1.2444 1.3641,3.0325 1.5674,3.9736 0.3686,1.7054 1.2035,2.0593 3.1217,1.3232 z m -25.0162,-3.1447 c 3.6519,-2.5307 3.8516,-3.3466 1.5514,-6.3394 -1.0873,-1.4148 -2.1753,-2.5723 -2.4175,-2.5723 -0.7499,0 -4.8931,5.1504 -4.8931,6.0825 0,0.9596 2.3317,4.4952 2.9644,4.4952 0.215,0 1.4727,-0.7497 2.7948,-1.666 z m 34.2592,-7.2006 c -0.1484,-0.2567 -0.6735,-0.4667 -1.1666,-0.4667 -1.0966,0 -1.1716,1.3428 -0.1329,2.3814 0.6033,0.6034 0.8482,0.5316 1.1665,-0.3422 0.2216,-0.6082 0.2815,-1.3159 0.133,-1.5725 z m -27.771,1.05 c 0.3106,-0.9437 -2.254,-4.7247 -2.9238,-4.3108 -0.9122,0.5639 -0.7419,2.3326 0.3788,3.9326 0.9654,1.3783 2.1576,1.5555 2.545,0.3782 z m -9.832,-2.9965 c 3.1556,-3.2558 2.614,-5.0881 -2.065,-6.9859 -2.4902,-1.0101 -3.8293,-1.2792 -4.1094,-0.8261 -0.713,1.1537 -0.1058,5.6259 0.9167,6.7562 0.5366,0.5929 0.9756,1.3826 0.9756,1.755 0,0.5943 0.8572,1.205 1.9001,1.3537 0.1895,0.027 1.2614,-0.8968 2.382,-2.0529 z m -9.2598,-5.3764 c 0,-4.7184 -0.1706,-5.3431 -3.1381,-11.4953 -1.7259,-3.5781 -3.7771,-7.2828 -4.5584,-8.2326 -0.7812,-0.9497 -2.2788,-3.5835 -3.328,-5.8527 -2.339,-5.0594 -6.4409,-10.7019 -7.2162,-9.9265 -0.332,0.3319 -0.2571,2.5473 0.1839,5.4396 0.4092,2.6837 0.9599,6.6995 1.2237,8.9239 0.5009,4.2227 2.8135,14.6126 3.9171,17.599 1.2245,3.3132 8.0734,8.3586 11.516,8.4834 1.3397,0.049 1.4,-0.1642 1.4,-4.9388 z m 35.9448,-0.4645 c 1.803,-0.8509 3.4198,-1.776 3.5927,-2.0556 0.4796,-0.7761 -3.9871,-7.4236 -4.9882,-7.4236 -0.4835,0 -1.2574,0.5403 -1.7199,1.2006 -0.6605,0.943 -1.5024,1.1766 -3.9241,1.0889 -3.4381,-0.1246 -3.399,-0.2528 -1.3869,4.5549 2.4144,5.7687 2.0364,5.6505 8.4264,2.6348 z m -50.8781,0.4377 c 0,-0.3635 -0.3922,-1.9735 -0.8716,-3.5778 -2.6856,-8.9885 -5.6214,-28.2864 -4.8872,-32.1268 0.1647,-0.8618 0.1105,-2.3204 -0.1208,-3.2413 l -0.4202,-1.6744 -1.5808,1.7049 c -0.9498,1.0243 -1.9593,1.5596 -2.529,1.341 -0.5215,-0.2 -1.3341,-0.043 -1.806,0.3482 -0.5216,0.4329 -1.8124,0.5593 -3.294,0.3224 -2.2804,-0.3647 -2.46,-0.2802 -2.8093,1.3209 -0.7584,3.4774 4.2354,19.6877 8.2903,26.9104 2.2832,4.0671 3.6571,5.7561 5.947,7.3111 3.1393,2.1319 4.0816,2.4462 4.0816,1.3614 z m 58.4885,-0.6032 c 0,-0.8019 -1.7728,-1.5262 -2.3421,-0.9568 -0.232,0.232 -0.011,0.6823 0.4935,1.0007 1.2043,0.7617 1.8486,0.7464 1.8486,-0.044 z m -37.9556,-5.7359 c -2e-4,-0.086 -0.5409,-1.5556 -1.2015,-3.2667 -2.3666,-6.1296 -8.3965,-17.5005 -11.5485,-21.7776 -1.7654,-2.3955 -4.8087,-6.5955 -6.763,-9.3333 -5.3336,-7.472 -6.1574,-8.3386 -8.3439,-8.7759 -1.5863,-0.3172 -2.0092,-0.1947 -2.0092,0.5817 0,1.3521 2.8205,5.4169 4.8984,7.0592 0.942,0.7446 2.5293,2.5646 3.5272,4.0444 0.998,1.4798 2.7388,3.8496 3.8684,5.2661 1.1297,1.4166 2.6999,3.7966 3.4895,5.2889 6.8243,12.9001 10.2347,19.1081 11.1467,20.2909 0.4926,0.6389 2.9369,1.1569 2.9359,0.6223 z m 24.7544,-4.8499 c 2.4926,-0.7718 4.6782,-1.6398 4.8569,-1.9289 0.4877,-0.7893 -2.3215,-8.0718 -3.2515,-8.4287 -0.4443,-0.1704 -2.5417,0.5565 -4.6609,1.6155 -2.2423,1.1205 -4.8241,1.9254 -6.1759,1.9254 -2.4719,0 -3.0783,0.6986 -3.0783,3.5463 0,1.0074 0.887,2.4648 2.4532,4.0311 2.3078,2.3077 2.5386,2.3996 3.8889,1.548 0.7896,-0.498 3.475,-1.5369 5.9676,-2.3087 z m 15.6972,-5.2994 c 20.7505,-9.0245 50.2938,-18.3172 58.234,-18.3172 l 3.3585,0 -0.011,-2.6444 c 0,-1.4545 -0.6523,-4.0371 -1.4396,-5.7391 l -1.4314,-3.0947 -5.2494,0.1965 c -3.0027,0.1124 -6.714,0.6973 -8.6716,1.3665 -1.8821,0.6435 -6.2221,1.8697 -9.6444,2.7249 -7.7761,1.9432 -14.4192,4.2178 -25.347,8.6788 -4.7008,1.9191 -8.9008,3.4922 -9.3331,3.4958 -1.6194,0.013 -11.3713,5.4547 -11.5681,6.4546 -0.2805,1.4243 3.0371,9.7165 3.8874,9.7165 0.3776,0 3.6232,-1.2772 7.2126,-2.8382 z m -19.4518,-5.572 c 1.297,-0.5189 2.7253,-1.5312 3.1738,-2.2495 0.7125,-1.1409 0.5698,-1.8053 -1.1292,-5.2564 -1.0696,-2.1728 -3.2198,-7.1105 -4.7781,-10.9726 -1.5582,-3.8622 -4.0901,-10.1021 -5.6263,-13.8666 -1.5363,-3.7644 -4.8419,-12.4443 -7.3461,-19.2887 -5.2168,-14.259 -8.5986,-23.2252 -12.4384,-32.9776 -1.4822,-3.7644 -3.1526,-8.4676 -3.7121,-10.4516 -0.5594,-1.984 -1.3581,-3.7381 -1.7749,-3.8981 -0.4168,-0.1599 -1.8644,0.2734 -3.2167,0.9629 -1.3524,0.6894 -2.8325,1.2536 -3.2889,1.2536 -0.5845,0 -0.7393,0.5981 -0.5232,2.0222 0.1688,1.1122 0.4738,3.2683 0.6778,4.7913 0.2039,1.523 0.5951,3.063 0.8692,3.4222 0.2741,0.3592 0.8702,2.0531 1.3246,3.7642 0.4545,1.7111 1.365,4.371 2.0236,5.911 0.6586,1.54 2.2618,5.74 3.5628,9.3333 1.301,3.5933 3.0532,8.3533 3.8939,10.5777 0.8405,2.2245 2.5695,6.8444 3.8421,10.2666 1.2725,3.4222 2.8931,7.4822 3.6012,9.0222 0.708,1.54 2.0603,4.8999 3.0051,7.4666 0.9447,2.5666 2.8957,7.6066 4.3355,11.1999 1.4398,3.5933 3.0358,7.9333 3.5468,9.6444 1.1988,4.0147 5.146,10.1871 6.5431,10.232 0.592,0.019 2.1374,-0.39 3.4344,-0.909 z m 16.4939,-8.2706 c 4.5561,-1.7303 4.7943,-2.2346 2.2961,-4.8624 -2.5114,-2.6421 -7.0427,-4.8255 -12.2436,-5.8997 -6.3297,-1.3074 -7.0564,-0.1184 -3.7938,6.2078 1.4012,2.7169 2.2593,3.7453 2.9556,3.5419 0.5396,-0.1575 2.381,0.2216 4.0921,0.8425 1.7111,0.6209 3.2511,1.1661 3.4222,1.2116 0.1711,0.046 1.6433,-0.4233 3.2714,-1.0417 z m 17.5729,-7.2664 c 5.8703,-2.7356 11.7501,-4.605 30.4886,-9.6931 2.3956,-0.6504 5.2473,-1.1874 6.3373,-1.1933 1.0899,-0.01 2.6974,-0.2827 3.5723,-0.6154 1.3452,-0.5114 1.504,-0.8235 1.0283,-2.0222 -0.7501,-1.8907 -2.5365,-9.2985 -3.2677,-13.5507 -0.8042,-4.6771 -0.6659,-26.8479 0.1887,-30.2419 0.7123,-2.8291 0.4611,-12.7581 -0.3723,-14.7133 -0.3274,-0.768 -0.1803,-1.0889 0.499,-1.0889 1.5614,0 1.8403,1.0868 2.0413,7.9526 0.1047,3.5842 0.3327,6.6589 0.5064,6.8325 0.6444,0.6445 3.982,-1.2465 6.1218,-3.4686 2.5888,-2.6883 6.3779,-9.6699 5.7763,-10.6432 -0.7026,-1.1369 -2.0406,-0.7485 -2.5032,0.7267 l -0.4391,1.4 -0.446,-1.5556 c -0.376,-1.3114 -0.8206,-1.5555 -2.8327,-1.5555 -1.5385,0 -2.5213,-0.3317 -2.7653,-0.9333 -0.7103,-1.7514 -4.8678,-7.7741 -6.4428,-9.3333 -0.8643,-0.8555 -3.2833,-3.0924 -5.3757,-4.9708 -2.0924,-1.8784 -3.8043,-3.8203 -3.8043,-4.3154 0,-0.4951 -0.5248,-1.4782 -1.1663,-2.1847 -1.6707,-1.8401 -3.978,-9.0071 -3.5649,-11.073 0.3767,-1.8833 0.2593,-1.9862 -1.3439,-1.1778 -0.5943,0.2996 -2.7604,1.0236 -4.8138,1.6088 -2.0532,0.5853 -5.1333,1.7816 -6.8443,2.6586 -1.7111,0.877 -4.8189,2.463 -6.906,3.5244 -2.0872,1.0615 -4.7157,2.63 -5.8413,3.4855 -2.9109,2.2126 -8.4911,7.8368 -11.2952,11.3844 -2.6943,3.4084 -2.636,3.8711 1.0007,7.9405 3.218,3.601 7.109,11.3011 9.8167,19.4269 2.2143,6.6454 2.5408,8.3483 2.5905,13.5145 0.051,5.261 -0.1322,6.2962 -1.6625,9.4124 -2.2451,4.5714 -4.0824,6.3296 -9.0839,8.6927 -3.8815,1.834 -4.4065,1.9237 -9.1023,1.5557 -2.7407,-0.2148 -6.3259,-0.5556 -7.9671,-0.7573 -2.5771,-0.3167 -3.3194,-0.1343 -5.4444,1.3383 -1.4628,1.0138 -2.4604,2.2045 -2.4604,2.9367 0,0.6774 0.959,3.2794 2.131,5.7822 1.1721,2.5029 1.9927,5.0801 1.8235,5.7272 -0.4197,1.6049 0.7837,2.4015 4.3256,2.8634 7.8858,1.0283 13.8786,4.4082 15.7478,8.8816 l 0.844,2.0198 3.8972,-1.5642 c 2.1434,-0.8603 5.2972,-2.2165 7.0084,-3.0139 z m 44.7996,-63.7855 c 0.2116,-0.3422 0.6481,-0.6223 0.9701,-0.6223 0.322,0 0.5855,0.2801 0.5855,0.6223 0,0.3422 -0.4365,0.6222 -0.97,0.6222 -0.5335,0 -0.797,-0.28 -0.5856,-0.6222 z m -129.7489,60.71 c 0.7712,-2.0285 0.087,-5.878 -1.1576,-6.5189 -0.552,-0.2841 -2.0193,-0.6997 -3.2607,-0.9235 -1.99,-0.3587 -2.3019,-0.2395 -2.636,1.007 -0.7346,2.7422 -0.378,4.4754 1.2762,6.202 2.1763,2.2716 4.9604,2.384 5.7781,0.2334 z m 50.8133,-4.5549 c -0.2114,-1.2833 -1.0805,-4.0133 -1.9314,-6.0666 -0.851,-2.0533 -1.5538,-4.0833 -1.562,-4.511 -0.024,-1.2715 -1.0864,-0.8835 -1.4566,0.5319 -0.1884,0.7203 0.098,2.3303 0.636,3.5777 0.9675,2.2428 1.1999,2.8296 2.6852,6.7791 1.0517,2.7966 2.1073,2.5949 1.6288,-0.3111 z m -46.8799,-21.9331 c -0.1619,-2.5667 -0.013,-7.3267 0.3306,-10.5777 0.3438,-3.2511 0.4299,-6.1159 0.1915,-6.3661 -0.2383,-0.2503 -1.2647,-0.6213 -2.2806,-0.8245 l -1.8473,-0.3695 0.065,14.1539 c 0.065,14.1464 0.065,14.1546 1.5556,15.366 l 1.491,1.2119 0.3944,-3.9637 c 0.217,-2.18 0.262,-6.0637 0.1004,-8.6303 z m 46.085,2.4195 c 3.333,-2.3237 5.8866,-2.6051 14.093,-1.5531 3.3058,0.4238 4.5075,0.3193 6.5334,-0.5684 1.3652,-0.5982 3.0277,-1.1473 3.6944,-1.2202 0.6667,-0.073 2.5176,-1.5522 4.1131,-3.2873 2.4296,-2.6423 2.9721,-3.6912 3.3388,-6.4562 0.78,-5.8796 -1.2162,-13.7227 -5.9162,-23.2452 -1.3514,-2.7378 -2.4524,-5.4004 -2.4468,-5.917 0.011,-0.5165 -0.5433,-1.2848 -1.2197,-1.7072 -0.6764,-0.4224 -1.7716,-1.8198 -2.4337,-3.1052 -0.662,-1.2855 -3.0644,-4.1355 -5.3386,-6.3334 -3.868,-3.7381 -4.3517,-4.0141 -7.4932,-4.2746 -1.8469,-0.1532 -4.0781,-0.098 -4.9581,0.1231 -2.2295,0.5596 -6.3589,4.4286 -8.8182,8.262 -1.138,1.774 -3.2275,4.154 -4.6433,5.2889 -1.4156,1.1349 -3.7603,3.1134 -5.2101,4.3967 -1.4499,1.2834 -3.0947,2.3333 -3.6554,2.3333 -0.7131,0 -1.0193,0.5496 -1.0193,1.83 0,2.5721 0.6773,2.7286 4.049,0.9359 6.4624,-3.4361 12.7509,-8.9569 12.7509,-11.1943 0,-0.527 1.2759,-2.322 2.8351,-3.989 2.4326,-2.6007 3.2759,-3.0915 5.9414,-3.4581 2.7376,-0.3765 3.4169,-0.2243 5.7205,1.2813 3.4504,2.2552 5.3652,4.5009 9.2281,10.8231 6.548,10.7166 9.292,19.5335 8.3718,26.899 -0.4993,3.9952 -0.5158,4.0233 -4.2904,7.2728 -3.4789,2.9948 -5.5791,3.2606 -12.2526,1.5506 -2.5167,-0.6448 -4.8934,-0.8776 -6.2882,-0.616 -3.352,0.6289 -7.678,3.7985 -9.891,7.2472 -2.3269,3.6262 -1.9201,5.5458 0.5647,2.6642 0.8888,-1.031 2.9772,-2.8233 4.6406,-3.9829 z m 82.2195,-15.6273 c 2.7705,-0.7741 5.6693,-2.6682 9.1962,-6.0088 1.8081,-1.7126 2.7188,-3.381 3.9392,-7.2165 1.3889,-4.3653 1.5376,-5.65 1.1896,-10.2778 -0.5033,-6.6948 -1.7162,-11.0877 -4.4429,-16.0912 -3.0259,-5.5526 -5.5975,-8.5735 -9.6447,-11.3297 -3.4868,-2.3745 -6.7911,-3.6812 -6.748,-2.6686 0.012,0.2938 1.2656,1.3217 2.7848,2.2842 1.5193,0.9625 3.399,2.5756 4.1773,3.5847 0.7783,1.0091 2.7133,3.4446 4.3001,5.4122 3.2673,4.0514 4.5087,6.692 5.8351,12.4114 1.2616,5.4398 1.1598,10.4954 -0.2966,14.7284 -3.0403,8.8367 -5.3363,10.8368 -15.4235,13.4352 -2.9143,0.7507 -3.3815,1.6451 -1.2676,2.4271 1.4503,0.5365 2.3608,0.4382 6.401,-0.6906 z m -127.9888,-7.8153 c -0.1588,-0.825 -1.2332,-1.0103 -6.2565,-1.0789 -5.4589,-0.074 -6.0649,0.029 -6.0649,1.0385 0,0.8832 0.3634,1.0559 1.7111,0.8133 0.9411,-0.1695 3.5312,-0.075 5.7555,0.2099 4.5161,0.5784 5.1316,0.4538 4.8548,-0.9828 z m 0.8761,-7.3631 c 0.2432,-2.4369 0.8238,-5.5387 1.2904,-6.8929 l 0.8483,-2.4621 -3.182,-0.084 c -3.1448,-0.083 -3.1837,-0.061 -3.3318,1.8825 -0.083,1.0815 -0.2625,2.079 -0.4003,2.2167 -0.541,0.5411 -1.5777,-0.6357 -1.5777,-1.7908 0,-1.5621 -2.957,-3.0725 -3.6909,-1.8852 -0.7982,1.2915 -1.3167,9.8644 -0.6956,11.4983 0.7527,1.9798 1.4477,2.2095 6.2532,2.0675 l 4.0444,-0.1196 0.442,-4.4307 z m 23.2602,-10.5119 c 0.2701,-1.076 -0.2961,-3.1687 -1.8128,-6.6991 -1.2131,-2.8238 -2.6607,-6.5296 -3.2169,-8.235 -0.5561,-1.7054 -1.1453,-3.5005 -1.3091,-3.989 -0.2538,-0.7563 -0.4392,-0.7473 -1.2471,0.061 -0.8506,0.8506 -0.811,1.3624 0.3808,4.9327 2.3585,7.0649 5.7907,15.4947 6.3086,15.4947 0.2771,0 0.6805,-0.7042 0.8965,-1.565 z m -21.2521,-3.8794 c 0.1989,-1.9678 0.6289,-5.225 0.9556,-7.2383 0.8208,-5.0581 0.3902,-5.6087 -5.044,-6.4498 -2.4856,-0.3848 -4.7176,-0.577 -4.96,-0.4272 -1.1278,0.697 -2.0768,17.0708 -0.9893,17.0708 0.3549,0 1.1319,-0.4405 1.7267,-0.9788 0.9919,-0.8975 1.1155,-0.8717 1.491,0.3111 0.3401,1.072 0.9203,1.2899 3.4337,1.2899 l 3.0244,0 z m 28.3598,-0.3141 c 1.2033,-1.1106 3.8119,-4.3284 5.797,-7.1506 3.8773,-5.5126 6.9203,-7.8242 11.3039,-8.5865 2.8644,-0.4981 5.1699,-2.4403 7.8445,-6.6084 1.809,-2.819 8.5166,-8.7802 11.7553,-10.4472 0.8556,-0.4403 2.2556,-1.4488 3.1112,-2.2411 0.8554,-0.7923 3.5854,-2.4419 6.0665,-3.6658 2.4811,-1.224 4.5111,-2.5248 4.5111,-2.8909 0,-0.366 -0.35,-0.5204 -0.7778,-0.343 -2.1704,0.9001 -10.2638,2.9644 -13.8443,3.5313 -4.3081,0.682 -11.9485,2.7521 -14.9332,4.046 -2.4611,1.0668 -11.7647,4.6353 -19.5999,7.5177 -5.2912,1.9466 -14.311,6.4465 -14.311,7.1398 0,0.2991 0.6845,2.2994 1.5211,4.445 0.8367,2.1456 2.2841,6.0012 3.2165,8.5678 2.9864,8.2204 3.2548,8.7113 4.7596,8.7081 0.7654,0 2.3762,-0.9116 3.5795,-2.0222 z m 35.2745,-14.5496 c 5.4677,-7.5738 10.3519,-11.5491 20.4038,-16.6066 7.3909,-3.7186 15.2684,-6.0184 20.615,-6.0184 1.7968,0 3.4149,-0.2393 3.5956,-0.5317 0.4247,-0.6872 -1.8377,-2.745 -4.6107,-4.1938 -2.847,-1.4875 -11.2569,-1.5532 -14.011,-0.1095 -1.0329,0.5414 -2.5729,0.8532 -3.4223,0.693 -0.9812,-0.1852 -2.9055,0.4286 -5.2776,1.6832 -2.0534,1.086 -4.8534,2.5469 -6.2223,3.2464 -1.3688,0.6995 -3.7488,2.2888 -5.2888,3.5318 -1.5399,1.2429 -4.2372,3.2993 -5.9937,4.5697 -4.8608,3.5155 -10.8248,10.7142 -10.7965,13.0317 0.011,0.6763 6.3134,4.6563 7.5862,4.7888 0.2423,0.025 1.7823,-1.8129 3.4223,-4.0846 z m -56.7511,1.0193 c 0.2115,-0.3422 0.1047,-0.6222 -0.2377,-0.6222 -0.3422,0 -0.7953,0.28 -1.0067,0.6222 -0.2116,0.3422 -0.1048,0.6222 0.2376,0.6222 0.3422,0 0.7952,-0.28 1.0068,-0.6222 z m 0.1317,-2.2095 c 3.3488,-0.5182 4.479,-1.7333 3.0652,-3.2956 -0.5605,-0.6194 -1.0192,-1.3368 -1.0192,-1.5942 0,-0.2575 -1.0034,-2.4674 -2.2297,-4.911 -1.575,-3.1383 -2.1598,-5.042 -1.9917,-6.4829 0.3181,-2.7241 -0.4126,-2.6223 -5.4566,0.76 -2.2966,1.54 -4.8042,2.8 -5.5725,2.8 -1.9114,0 -2.5668,1.0665 -2.6594,4.3287 -0.1165,4.1014 1.6948,7.7248 4.2911,8.5843 2.0687,0.6849 6.38,0.6144 11.5728,-0.1893 z m 6.0503,-7.0257 c 0.7065,-0.6305 2.9645,-1.778 5.0179,-2.55 2.0533,-0.772 6.5333,-2.6025 9.9554,-4.0678 3.4223,-1.4653 8.4622,-3.3827 11.2,-4.2608 2.7377,-0.8782 8.317,-2.7572 12.3984,-4.1757 12.2775,-4.2671 19.6717,-6.2754 25.2458,-6.8571 2.9088,-0.3035 6.7819,-0.8368 8.6067,-1.185 1.8249,-0.3483 5.0773,-0.6713 7.2275,-0.718 l 3.9094,-0.085 -0.5022,-1.6327 c -0.2763,-0.898 -0.7924,-2.7644 -1.1469,-4.1475 -0.3546,-1.3831 -1.461,-3.2967 -2.4587,-4.2526 l -1.814,-1.7379 -4.8887,0.7122 c -2.6888,0.3917 -7.4088,1.2686 -10.4887,1.9488 -3.08,0.6802 -7,1.5427 -8.711,1.9166 -3.8687,0.8455 -12.191,3.5218 -13.0499,4.1967 -0.3514,0.2761 -1.6189,0.6795 -2.8167,0.8964 -1.1977,0.2169 -3.5552,1.0934 -5.2388,1.9478 -1.6834,0.8543 -3.6574,1.5534 -4.3865,1.5534 -0.7291,0 -1.6275,0.3018 -1.9963,0.6706 -0.3688,0.3688 -1.6148,0.9003 -2.7689,1.181 -1.154,0.2808 -4.0583,1.2707 -6.4538,2.1998 -2.3956,0.9291 -5.4755,2.015 -6.8444,2.413 -4.5624,1.3265 -8.6973,3.0642 -9.9639,4.1873 -0.6891,0.6111 -2.2992,1.5482 -3.5778,2.0824 -1.2787,0.5343 -2.3249,1.3823 -2.3249,1.8846 0,0.9979 3.8189,9.0256 4.2935,9.0256 0.1611,0 0.871,-0.5159 1.5775,-1.1464 z m 4.0846,-9.0422 c 0,-1.8667 0.8032,-2.4797 2.5306,-1.9314 1.956,0.6208 1.3531,3.0447 -0.8195,3.2947 -1.464,0.1685 -1.7111,-0.028 -1.7111,-1.3633 z m 13.2885,-5.0637 c -0.5074,-1.3222 0.9744,-2.8878 2.5236,-2.6665 0.8956,0.128 1.36,0.7167 1.4957,1.8967 0.1773,1.5408 0,1.7111 -1.7306,1.7111 -1.1466,0 -2.0738,-0.3814 -2.2887,-0.9413 z m 13.117,-4.0992 c -0.2329,-0.3768 0.1694,-1.2779 0.894,-2.0025 1.1867,-1.1866 1.4128,-1.2222 2.2762,-0.3588 0.5428,0.5428 0.7849,1.4114 0.5581,2.0025 -0.4477,1.1669 -3.0727,1.4195 -3.7283,0.3588 z m 13.0379,-3.3109 c -0.5675,-1.4785 0.9125,-3.4708 2.5781,-3.4708 1.0999,0 1.5337,0.3394 1.5337,1.2 0,2.3909 -3.3548,4.2437 -4.1118,2.2708 z m 13.8599,-3.2634 c -0.9388,-0.9387 -0.3743,-3.2475 0.8922,-3.6494 1.909,-0.6059 2.8068,0.5563 1.9249,2.4918 -0.6886,1.5114 -1.9465,2.0283 -2.8171,1.1576 z m 11.0417,-2.3028 c -0.6416,-1.6718 0.03,-3.1881 1.5039,-3.3979 1.2846,-0.1828 1.4156,0.014 1.2381,1.8616 -0.2132,2.2173 -2.0795,3.2629 -2.742,1.5363 z m 9.3131,-1.9192 c -0.4379,-1.141 0.1994,-2.2076 1.3191,-2.2076 1.2806,0 1.7657,1.1748 0.9107,2.2051 -0.9572,1.1534 -1.7879,1.1543 -2.2298,0 z m 21.4868,28.4367 c 3.4062,-1.9387 1.9001,-2.8476 -1.7233,-1.04 -1.0828,0.5401 -1.8092,1.2401 -1.6143,1.5555 0.5069,0.8204 1.1704,0.7179 3.3376,-0.5155 z m 9.5299,-2.3718 c 0.7852,-0.7853 -1.7412,-5.4844 -3.5376,-6.5799 -2.4156,-1.4731 -3.7017,-1.5009 -3.2514,-0.071 1.4384,4.5691 2.2924,6.0897 3.6315,6.4659 1.9738,0.5545 2.7426,0.5994 3.1575,0.1844 z m -10.8756,-0.6758 c 3.7833,-0.4544 4.0834,-1.2086 1.7161,-4.3122 -2.0682,-2.7118 -4.9732,-4.1122 -7.5333,-3.632 -1.9249,0.3612 -2.0021,0.4839 -1.6682,2.6519 0.4903,3.1843 1.8792,5.6964 3.146,5.69 0.59,0 2.5429,-0.1819 4.3394,-0.3977 z m -114.4632,-5.1756 c 1.2697,-0.6728 3.0045,-1.7738 3.8551,-2.4465 l 1.5464,-1.2233 -1.4222,-2.3757 c -0.7821,-1.3066 -1.9581,-3.5656 -2.6132,-5.0201 -0.6551,-1.4544 -1.488,-2.6444 -1.851,-2.6444 -1.5069,0 -9.4282,4.4713 -9.1553,5.168 0.1601,0.4087 1.2015,2.7731 2.3143,5.2542 2.2835,5.0912 3.1709,5.4895 7.3259,3.2878 z m 8.2197,-5.8561 c 0,-0.4714 -0.3594,-1.1553 -0.7984,-1.5196 -0.439,-0.3644 -1.489,-2.4969 -2.3333,-4.7388 -1.3378,-3.5525 -2.4683,-5.1874 -2.4683,-3.5693 0,1.1069 2.909,8.7584 3.6855,9.6941 1.011,1.2181 1.9145,1.2812 1.9145,0.1336 z m 76.8438,-4.7428 c 0.4866,-0.7875 -0.3371,-0.7875 -1.5556,0 -0.8043,0.5198 -0.7879,0.6045 0.1189,0.6127 0.5787,0 1.2252,-0.2705 1.4367,-0.6127 z m -89.0545,-3.4144 c 3.1584,-1.3968 3.4995,-1.7344 3.4995,-3.4635 0,-1.7216 -0.1728,-1.8959 -1.7057,-1.7189 -1.1388,0.1314 -1.7713,0.6105 -1.9031,1.4413 -0.4472,2.8204 -0.6596,3.0001 -2.2866,1.934 -2.8725,-1.882 -5.8654,-0.6373 -5.0028,2.0805 0.5547,1.7477 3.0359,1.656 7.3987,-0.2734 z m 6.9565,-6.2634 c -0.2212,-1.1794 -0.6626,-2.1444 -0.9807,-2.1444 -0.5436,0 -0.2807,2.9095 0.45,4.9778 0.5779,1.6358 0.9732,-0.4747 0.5307,-2.8334 z m -9.23,-0.7243 c 0.2645,-0.6893 0.9757,-0.8191 2.9061,-0.5305 l 2.5558,0.3821 0.108,-5.3293 c 0.1026,-5.0773 0.048,-5.3105 -1.1423,-4.9325 -3.3233,1.0548 -8.0601,3.6069 -8.6134,4.6409 -0.6643,1.2412 -0.8575,7.0143 -0.2549,7.6169 0.5897,0.5897 4.0595,-0.854 4.4407,-1.8476 z m 9.765,-4.3077 c 0.5008,-1.3049 -0.1667,-3.4648 -0.9257,-2.9957 -0.7396,0.4571 -0.7589,4.0167 -0.022,4.0167 0.3056,0 0.732,-0.4595 0.9474,-1.021 z m -9.8268,-5.5972 c 4.3505,-2.1164 6.0894,-3.3036 6.5279,-4.4569 1.0998,-2.8927 -0.282,-2.9452 -5.8555,-0.2222 -2.883,1.4085 -5.5383,2.9182 -5.9007,3.3548 -0.815,0.982 -1.6653,4.2092 -1.109,4.2092 0.2238,0 3.0757,-1.2982 6.3373,-2.8849 z m 11.9451,-3.1909 c 0.122,-0.8555 -0.1954,-1.5478 -0.8195,-1.7873 -1.4026,-0.5383 -2.2128,0.4464 -1.7677,2.1484 0.472,1.8048 2.315,1.5476 2.5872,-0.3611 z m -9.8566,-3.7411 c 0.8483,-0.537 2.6684,-1.3083 4.0445,-1.7142 2.3527,-0.6939 2.5981,-0.9981 4.1161,-5.1046 1.705,-4.6124 3.3282,-7.3149 6.3163,-10.5162 1.016,-1.0886 1.5499,-2.1202 1.2071,-2.3321 -1.2063,-0.7455 -9.6166,3.2564 -12.2263,5.8177 -2.9706,2.9153 -6.8801,9.8348 -7.5214,13.3121 -0.4267,2.3139 -0.3889,2.3851 1.0393,1.9574 0.8149,-0.2441 2.176,-0.8832 3.0244,-1.4201 z M 41.4769,208.05885 c -0.2343,-0.3792 -0.33,-2.284 -0.2126,-4.2328 0.1753,-2.9084 0.046,-3.5002 -0.7197,-3.3027 -3.1149,0.803 -3.7333,0.7945 -3.7333,-0.051 0,-1.0714 3.2862,-3.6117 4.6723,-3.6117 0.5443,0 1.8416,-0.4407 2.8831,-0.9793 1.0414,-0.5385 1.9962,-0.8765 2.1216,-0.751 0.1255,0.1255 -0.341,2.0361 -1.0366,4.2458 -0.6957,2.2098 -1.4584,5.1157 -1.6949,6.4577 -0.4338,2.4617 -1.4941,3.4965 -2.2799,2.2251 z m 19.3172,-9.2454 c -0.5316,-1.6748 1.7794,-9.6635 4.9297,-17.0417 0.7248,-1.6974 -0.9414,-1.3451 -3.8886,0.8223 -2.4194,1.7792 -3.8685,1.9707 -3.8685,0.5111 0,-0.9425 3.047,-3.4532 6.8444,-5.6399 1.8822,-1.0838 4.5422,-2.9819 5.911,-4.218 3.683,-3.3256 14.6222,-8.2615 14.6222,-6.5976 0,0.5368 -1.638,2.211 -2.1632,2.211 -0.212,0 -1.8643,0.946 -3.6717,2.1022 -1.8074,1.1562 -3.8908,2.2941 -4.6299,2.5286 -3.4405,1.092 -11.4563,17.2217 -11.536,23.2135 -0.035,2.6565 -0.2432,3.2667 -1.1127,3.2667 -0.5881,0 -1.2346,-0.5212 -1.4367,-1.1582 z m -13.4052,-6.8854 c 0,-1.2587 4.0698,-5.023 5.4307,-5.023 1.2806,0 0.9205,1.2137 -1.1274,3.7993 -2.0662,2.6089 -4.3033,3.245 -4.3033,1.2237 z m 54.36984,-11.009 c -1.0275,-4.0936 3.2412,-18.0829 7.5584,-24.7701 2.3879,-3.6988 5.6294,-6.8886 7.6048,-7.4836 0.77,-0.2319 1.4,-0.2877 1.4,-0.1239 0,0.1638 -1.47,1.8105 -3.2667,3.6592 -5.5257,5.6859 -9.6322,15.1547 -11.2054,25.8378 -0.6915,4.696 -1.393,5.6622 -2.0911,2.8806 z M 86.5887,165.86485 c 0,-0.6118 4.0397,-2.6041 5.2801,-2.6041 0.48534,0 1.70834,-1.2006 2.71794,-2.6679 2.1567,-3.1347 6.5933,-5.7458 10.8241,-6.3703 4.2081,-0.6213 3.7316,0.5003 -0.9334,2.197 -2.9462,1.0716 -4.6549,2.223 -7.0492,4.75 -1.8179,1.9187 -3.7019,3.3356 -4.4351,3.3356 -0.7011,0 -2.27984,0.42 -3.50854,0.9334 -2.5703,1.0739 -2.8959,1.1219 -2.8959,0.4263 z m 28.62204,-2.3493 c 0,-0.8589 5.8286,-7.0992 6.6308,-7.0992 1.1846,0 0.3572,1.4303 -2.7894,4.8222 -2.1786,2.3485 -3.8414,3.3341 -3.8414,2.277 z m 124.7959,-9.2773 c -3.0815,-3.0815 -5.1029,-6.3312 -5.9512,-9.5676 -1.1885,-4.5345 0.2163,-4.4242 2.3739,0.1864 1.9124,4.0869 5.03,8.7173 5.5314,8.2159 0.1463,-0.1464 -0.5211,-1.764 -1.4832,-3.5947 -0.9622,-1.8307 -1.8444,-3.5385 -1.9604,-3.7952 -0.1161,-0.2566 0.3024,-0.4587 0.9298,-0.449 1.7166,0.027 5.3145,6.3052 5.0689,8.8456 -0.2719,2.8117 -1.8023,2.8656 -4.5092,0.1586 z m -122.307,-0.2812 c 0,-1.3748 6.3623,-6.7934 10.5771,-9.0083 3.7974,-1.9955 5.2082,-2.405 8.4844,-2.4629 4.2646,-0.075 5.6109,0.9157 2.0939,1.5413 -1.1977,0.2131 -3.5778,0.9485 -5.2888,1.6343 -1.7112,0.6858 -3.4717,1.1194 -3.9123,0.9635 -1.064,-0.3764 -7.0808,3.8074 -8.7792,6.1046 -1.2883,1.7426 -3.1751,2.472 -3.1751,1.2275 z m 95.5618,-1.8962 c -0.1937,-0.5134 -0.1446,-3.1734 0.1091,-5.9111 0.4289,-4.6262 0.5671,-4.9926 1.9548,-5.1888 1.4568,-0.2059 1.4835,-0.13 1.0943,3.1111 -0.2194,1.8272 -0.4015,3.9211 -0.4044,4.6532 0,0.7321 -0.5446,1.9921 -1.2037,2.8 -0.9637,1.1815 -1.267,1.2863 -1.5504,0.5356 z m 6.5136,-2.7407 c -0.8505,-1.5892 -0.478,-2.8593 0.8385,-2.8593 0.9371,0 2.4177,2.944 1.901,3.78 -0.6403,1.036 -1.9229,0.6049 -2.7395,-0.9207 z m 4.4455,-7.0593 c -4.6462,-4.7224 -5.9501,-6.3777 -5.024,-6.3777 0.688,0 1.762,0.2735 2.3867,0.6079 1.7346,0.9283 9.4805,10.5486 9.1781,11.399 -0.1464,0.4117 -3.0898,-2.1214 -6.5408,-5.6292 z m -12.0176,5.1333 c -0.2117,-0.3422 -0.7395,-1.7422 -1.1728,-3.1111 -1.034,-3.2663 -3.3247,-7.1789 -5.2767,-9.0128 -0.861,-0.8089 -1.5655,-1.8381 -1.5655,-2.2872 0,-1.2354 -4.3265,-2.8764 -5.3481,-2.0285 -0.4507,0.3741 -1.1118,0.4996 -1.469,0.2788 -1.0658,-0.6587 -0.7448,-2.3878 0.8903,-4.7939 1.7857,-2.6279 2.8963,-6.8508 2.1228,-8.0714 -0.2928,-0.4622 -0.5367,-2.1922 -0.542,-3.8444 -0.011,-2.8976 -2.2409,-16.9203 -2.8496,-17.9053 -0.4473,-0.7236 2.0037,-11.4048 3.1064,-13.537 0.5283,-1.0217 1.4005,-4.5918 1.9382,-7.9336 0.5379,-3.3418 1.0899,-6.2573 1.2268,-6.4789 0.137,-0.2217 0.02,-1.219 -0.2609,-2.2163 l -0.5101,-1.8134 -0.8577,1.8667 c -0.4718,1.0267 -3.2219,5.2266 -6.1111,9.3333 -7.995,11.3636 -9.7446,14.0798 -12.7957,19.8646 -3.4673,6.5742 -6.7345,16.1733 -6.3639,18.6979 0.1497,1.0203 0.022,5.4672 -0.2834,9.882 -0.5436,7.8544 -0.5968,8.0655 -2.4678,9.8133 -2.363,2.2074 -3.025,2.2451 -3.025,0.1724 0,-1.1013 -0.4033,-1.7193 -1.2699,-1.9459 -1.8832,-0.4925 -1.1153,-1.6843 1.3147,-2.0403 2.6609,-0.3898 2.8928,-1.2986 2.9927,-11.7303 0.064,-6.7123 0.3025,-8.3691 1.8803,-13.0783 2.4041,-7.1761 6.7144,-15.8551 10.0801,-20.2969 7.5148,-9.9175 10.7555,-14.7121 12.7257,-18.8274 2.1975,-4.59 2.7272,-4.9678 5.4912,-3.9169 1.7364,0.6601 2.8829,4.4142 1.7684,5.7904 -0.3433,0.424 -0.9693,3.8509 -1.3911,7.6154 -0.4219,3.7644 -1.0486,7.5443 -1.3927,8.3999 -0.3439,0.8555 -0.885,2.6755 -1.202,4.0444 -1.5187,6.5544 -1.5553,7.8347 -0.3969,13.8595 1.894,9.8492 2.2847,17.494 1.0809,21.1418 -1.2175,3.6887 0.8383,4.6707 6.5691,3.138 2.4293,-0.6498 3.3758,-0.5804 7.1188,0.5219 l 4.317,1.2713 2.4157,-2.233 c 1.3287,-1.2282 3.3585,-3.633 4.5106,-5.3442 5.4894,-8.1524 11.8448,-15.6724 15.1923,-17.9762 3.7658,-2.5917 6.7505,-5.9465 7.5338,-8.468 1.7862,-5.7495 7.2127,-15.0139 10.1107,-17.2615 0.8095,-0.6279 1.2086,-0.5807 2.1287,0.2519 1.5535,1.4059 1.4498,2.561 -0.9972,11.1182 -3.0169,10.5495 -3.7642,14.7575 -2.9057,16.3617 0.7311,1.3661 0.4137,7.9734 -0.5731,11.9295 -1.861,7.461 -7.0358,18.7597 -9.8449,21.4957 -1.0705,1.0427 -2.3294,3.0027 -2.7973,4.3555 -1.0338,2.9886 -2.4549,3.4138 -3.9226,1.1739 -1.0905,-1.6644 -1.0851,-1.6831 1.0287,-3.5718 1.1687,-1.0442 2.7443,-2.8114 3.5015,-3.9272 2.0382,-3.0034 6.443,-11.5206 6.443,-12.4582 0,-0.4473 0.8492,-2.9509 1.887,-5.5635 1.46,-3.6753 1.725,-4.9453 1.171,-5.6128 -0.885,-1.0664 -0.3257,-8.742 1.061,-14.5581 1.698,-7.1225 3.2288,-12.7002 4.0489,-14.7539 0.4389,-1.0992 0.6162,-2.1803 0.394,-2.4026 -0.7069,-0.7069 -3.4888,2.8596 -4.5718,5.8611 -4.0286,11.165 -8.249,20.2987 -9.2788,20.0813 -0.3423,-0.072 -0.5348,-0.6787 -0.4276,-1.3476 0.4789,-2.9927 -4.5711,0.2323 -8.9874,5.7395 -4.9739,6.2024 -10.1653,13.8172 -10.1754,14.9257 0,0.5703 -0.7611,1.5844 -1.6796,2.2535 l -1.6702,1.2166 2.759,1.3383 c 4.3915,2.1301 5.7941,3.035 6.9987,4.515 0.6207,0.7626 1.7186,1.6835 2.4397,2.0464 2.072,1.0426 1.9578,2.037 -0.2747,2.3922 -1.4685,0.2337 -2.2598,0.034 -2.7926,-0.7032 -3.7925,-5.2504 -5.2546,-6.4418 -9.4168,-7.6728 -1.9407,-0.574 -5.1652,-1.5306 -7.1656,-2.1258 -2.9679,-0.8831 -4.0062,-0.9486 -5.6441,-0.3564 -1.1039,0.3992 -2.6006,0.7258 -3.3262,0.7258 -2.661,0 -2.3321,1.7955 1.1397,6.2222 2.329,2.9697 4.4512,8.1966 4.2044,10.3551 -0.1118,0.978 -0.3765,1.4982 -0.5883,1.1559 z m -25.937,-12.4217 c -1.3774,-1.4526 -1.3938,-1.5878 -0.4215,-3.4681 0.8843,-1.7098 0.8986,-2.0867 0.1139,-2.9888 -0.7507,-0.8631 -0.821,-2.9195 -0.4287,-12.5434 0.5445,-13.3597 1.5879,-18.8187 4.7976,-25.0989 2.6247,-5.1359 3.6687,-4.2642 1.145,0.956 -0.877,1.8142 -1.892,5.1186 -2.2554,7.343 -0.3634,2.2245 -0.9491,5.4444 -1.3016,7.1556 -0.441,2.141 -0.4386,4.9082 0.011,8.8748 0.5231,4.649 0.4785,6.2457 -0.2305,8.2554 -0.9656,2.7367 -0.6823,4.3363 0.768,4.3363 0.9374,0 0.901,1.4556 -0.095,3.8094 -0.3464,0.8184 -0.1212,0.951 1.189,0.7006 l 1.6162,-0.309 -1.3304,2.255 c -0.7318,1.2403 -1.5129,2.2502 -1.7358,2.2443 -0.2228,-0.01 -1.0501,-0.6909 -1.8383,-1.5222 z" id="path4339-88-7-4-9-1-5" inkscape:connector-curvature="0" style="fill:#6ab400;fill-opacity:1"/>
<rect height="486.97104" id="rect2985-3-0-7-7-6-9-6-2-0-3-5-4-5-0-77-3-1-3-5-5-4-3-9-7-0" inkscape:export-filename="/home/thomas/Documents/fallacies/png/rect2985-3-0-7-7.png" inkscape:export-xdpi="90" inkscape:export-ydpi="90" rx="9.2935619" ry="7.1613393" style="fill:#ffffff;fill-opacity:1;stroke:#6ab400;stroke-width:12;stroke-miterlimit:4;stroke-dasharray:none;stroke-dashoffset:0;stroke-opacity:1" width="285.0025" x="27.676758" y="26.257725"/>
<path d="m 303.87114,492.75106 0,-85.00001 c -13.2539,39.47621 -29.5078,65.45241 -71.9999,85.00001 z" id="path9668-2-7-0-6-6-9" inkscape:connector-curvature="0" sodipodi:nodetypes="cccc" style="fill:#6ab400;fill-opacity:1;fill-rule:evenodd;stroke:none"/>
<path d="m 36.485,35.70585 0,85 c 11.5446,-39.4762 25.7023,-65.4525 62.71433,-85 z" id="path9668-6-9-7-9" inkscape:connector-curvature="0" sodipodi:nodetypes="cccc" style="fill:#6ab400;fill-opacity:1;fill-rule:evenodd;stroke:none"/>
<rect height="15" id="sfam_1_active" inkscape:label="#rect13148-3-0-9-3-80-7-76" style="fill:#ffffff;fill-opacity:1;stroke:none;stroke-width:5.83799982;stroke-linecap:round;stroke-linejoin:bevel;stroke-miterlimit:4;stroke-dasharray:none;stroke-dashoffset:0;stroke-opacity:1" transform="matrix(0,1,-1,0,0,0)" width="65.714287" x="424.52872" y="-35.178345"/>
<rect height="15" id="sfam_2_active" inkscape:label="#rect13148-3-0-9-3-80-7-76" style="fill:#ffffff;fill-opacity:1;stroke:none;stroke-width:5.83799982;stroke-linecap:round;stroke-linejoin:bevel;stroke-miterlimit:4;stroke-dasharray:none;stroke-dashoffset:0;stroke-opacity:1;display:none;" transform="matrix(0,1,-1,0,0,0)" width="65.714287" x="233.33081" y="-35.178345"/>
<rect height="15" id="sfam_3_active" inkscape:label="#rect13148-3-0-9-3-80-7-76" style="fill:#ffffff;fill-opacity:1;stroke:none;stroke-width:5.83799982;stroke-linecap:round;stroke-linejoin:bevel;stroke-miterlimit:4;stroke-dasharray:none;stroke-dashoffset:0;stroke-opacity:1;display:none;" transform="matrix(0,1,-1,0,0,0)" width="65.714287" x="41.829155" y="-35.178345"/>
<text id="sfam_3" inkscape:label="#text4212-1-29-1-2-8-9-0-9-6-9-8-3-1-0-6-8-0-4-2-3-6-9-3-6-2" style="font-style:normal;font-variant:normal;font-weight:bold;font-stretch:normal;line-height:0%;font-family:stix;-inkscape-font-specification:'stix, bold';text-align:end;letter-spacing:0px;word-spacing:0px;writing-mode:lr-tb;text-anchor:end;fill:#FFFFFF;fill-opacity:1;stroke:none" transform="rotate(-90)" x="-45.469135" xml:space="preserve" y="30.592529"><tspan id="tspan4214-27-1-2-9-7-6-4-1-1-1-3-9-59-96-1-6-2-1-8-8-2-7-4-5-4" sodipodi:role="line" style="font-style:normal;font-variant:normal;font-weight:bold;font-stretch:normal;line-height:0%;font-family:stix;-inkscape-font-specification:'stix, bold';text-align:end;letter-spacing:0px;word-spacing:0px;writing-mode:lr-tb;text-anchor:end;fill:#FFFFFF;fill-opacity:1;stroke:none" x="-45.469135" y="30.592529">Mauvaise
déduction</tspan></text>
<rect height="17.763229" id="rect5818-6-6-9" style="fill:#6ab400;fill-opacity:1;stroke:none" width="278.215" x="31.070435" y="495.40732"/>
<text id="fam_num" inkscape:label="#text5665-3-4-9-4-3-3-5-7-5-8-4-6-8-6-6-3-0" style="font-style:normal;font-weight:normal;line-height:0%;font-family:sans-serif;letter-spacing:0px;word-spacing:0px;fill:#000000;fill-opacity:1;stroke:none" x="41.492676" xml:space="preserve" y="513.47742"><tspan id="tspan5667-04-4-6-18-8-8-0-0-1-5-7-0-9-2-1-9-1" sodipodi:role="line" style="font-style:normal;font-variant:normal;font-weight:bold;font-stretch:normal;font-size:17.5px;line-height:1.25;font-family:STIX;-inkscape-font-specification:'STIX Bold';fill:#ffffff" x="41.492676" y="513.47742">2</tspan></text>
<text id="sfam_2" style="font-style:normal;font-variant:normal;font-weight:bold;font-stretch:normal;line-height:0%;font-family:stix;-inkscape-font-specification:'stix, bold';text-align:center;letter-spacing:0px;word-spacing:0px;writing-mode:lr-tb;text-anchor:middle;fill:#FFFFFF;fill-opacity:1;stroke:none" transform="rotate(-90)" x="-266.51984" xml:space="preserve" y="30.597168"><tspan id="tspan4214-27-1-2-9-7-6-4-1-1-1-9-8-7-7-0-88-0-1-6-8-0" sodipodi:role="line" style="font-style:normal;font-variant:normal;font-weight:bold;font-stretch:normal;line-height:0%;font-family:stix;-inkscape-font-specification:'stix, bold';text-align:center;letter-spacing:0px;word-spacing:0px;writing-mode:lr-tb;text-anchor:middle;fill:#FFFFFF;fill-opacity:1;stroke:none" x="-266.51984" y="30.597168">Mauvaise
composition</tspan></text>
<text id="sfam1" style="font-style:normal;font-variant:normal;font-weight:bold;font-stretch:normal;line-height:0%;font-family:STIX;-inkscape-font-specification:'STIX, Bold';text-align:start;letter-spacing:0px;word-spacing:0px;writing-mode:lr-tb;text-anchor:start;fill:#000000;fill-opacity:1;stroke:none" transform="rotate(-90)" x="-487.15427" xml:space="preserve" y="30.690918"><tspan id="tspan4214-27-1-2-9-7-6-4-1-1-1-85-8-3-3-2-9-0-8-7-9-6" sodipodi:role="line" style="font-style:normal;font-variant:normal;font-weight:bold;font-stretch:normal;font-size:11.25px;line-height:125%;font-family:STIX;-inkscape-font-specification:'STIX, Bold';text-align:start;writing-mode:lr-tb;text-anchor:start" x="-487.15427" y="30.690918">Causalité
douteuse</tspan></text>
<text id="ssfam_3" inkscape:label="#text4212-1-29-1-2-8-9-0-9-6-9-8-3-1-0-6-92-3-6-9-3-6-2-3-39" style="font-style:normal;font-variant:normal;font-weight:bold;font-stretch:normal;line-height:0%;font-family:stix;-inkscape-font-specification:'stix, bold';text-align:start;letter-spacing:0px;word-spacing:0px;writing-mode:lr-tb;text-anchor:start;fill:#FFFFFF;fill-opacity:1;stroke:none" transform="rotate(90)" x="44.917904" xml:space="preserve" y="-309.61694"><tspan id="tspan4214-27-1-2-9-7-6-4-1-1-1-3-9-59-96-1-318-6-04-1-7-5-8-9-0" sodipodi:role="line" style="font-style:normal;font-variant:normal;font-weight:bold;font-stretch:normal;line-height:0%;font-family:stix;-inkscape-font-specification:'stix, bold';text-align:start;letter-spacing:0px;word-spacing:0px;writing-mode:lr-tb;text-anchor:start;fill:#FFFFFF;fill-opacity:1;stroke:none" x="44.917904" y="-309.61694">Effet
cigogne</tspan></text>
<text id="ssfam_2" inkscape:label="#text4212-1-29-1-2-8-9-0-9-6-9-15-7-7-8-9-7-6-1-0-8" style="font-style:normal;font-variant:normal;font-weight:bold;font-stretch:normal;line-height:0%;font-family:stix;-inkscape-font-specification:'stix, bold';text-align:center;letter-spacing:0px;word-spacing:0px;writing-mode:lr-tb;text-anchor:middle;fill:#FFFFFF;fill-opacity:1;stroke:none" transform="rotate(90)" x="265.85608" xml:space="preserve" y="-309.61755"><tspan id="tspan4214-27-1-2-9-7-6-4-1-1-1-9-41-5-8-6-2-8-2-8-38" sodipodi:role="line" style="font-style:normal;font-variant:normal;font-weight:bold;font-stretch:normal;line-height:0%;font-family:stix;-inkscape-font-specification:'stix, bold';text-align:center;letter-spacing:0px;word-spacing:0px;writing-mode:lr-tb;text-anchor:middle;fill:#FFFFFF;fill-opacity:1;stroke:none" x="265.85608" y="-309.61755">Inversion de causalité</tspan></text>
<text id="ssfam_1" inkscape:label="#text4212-1-29-1-2-8-9-0-9-6-9-17-63-3-97-3-6-4-4-8-73" style="font-style:normal;font-variant:normal;font-weight:bold;font-stretch:normal;line-height:0%;font-family:stix;-inkscape-font-specification:'stix, bold';text-align:end;letter-spacing:0px;word-spacing:0px;writing-mode:lr-tb;text-anchor:end;fill:#FFFFFF;fill-opacity:1;stroke:none" transform="rotate(90)" x="486.90677" xml:space="preserve" y="-309.68854"><tspan id="tspan4214-27-1-2-9-7-6-4-1-1-1-85-85-5-76-3-4-8-7-5-1" sodipodi:role="line" style="font-style:normal;font-variant:normal;font-weight:bold;font-stretch:normal;line-height:0%;font-family:stix;-inkscape-font-specification:'stix, bold';text-align:end;letter-spacing:0px;word-spacing:0px;writing-mode:lr-tb;text-anchor:end;fill:#FFFFFF;fill-opacity:1;stroke:none" x="486.90677" y="-309.68854">Pétition de principe</tspan></text>
<ellipse cx="170.17801" cy="264.22845" id="oval" inkscape:label="#path6246-7-6-6-9-7-6-9-3-1-1-722-4-6-4-7-1-9-6-4-8-2-9-5-42-1-5-9-0-8-00" rx="88.621117" ry="143.69008" style="fill:#b5ff4b;fill-opacity:1;stroke:none"/>
<rect height="23.57143" id="rect13148-3-36-1-5" rx="12.181818" ry="9.7777777" style="fill:#ffffff;fill-opacity:1;stroke:none" width="143.57144" x="98.392288" y="18.257725"/>
<text id="text" inkscape:label="#text5516-78-3-4-89-9-1-3-6-2-4-3-9-5-3-7-7-2-6-1-6-5-0" style="font-style:normal;font-variant:normal;font-weight:bold;font-stretch:normal;line-height:0%;font-family:stix;-inkscape-font-specification:'stix bold';text-align:center;letter-spacing:0px;word-spacing:0px;text-anchor:middle;fill:#2f5000;fill-opacity:1;stroke:none" x="169.44051" xml:space="preserve" y="39.208134"><tspan id="tspan3434" sodipodi:role="line" style="font-style:normal;font-variant:normal;font-weight:bold;font-stretch:normal;font-size:25px;line-height:100%;font-family:stix;-inkscape-font-specification:'stix bold';text-align:center;text-anchor:middle;fill:#2f5000;fill-opacity:1" x="169.44051" y="39.208134">Causalité</tspan><tspan id="tspan5046" sodipodi:role="line" style="font-style:normal;font-variant:normal;font-weight:bold;font-stretch:normal;font-size:25px;line-height:100%;font-family:stix;-inkscape-font-specification:'stix bold';text-align:center;text-anchor:middle;fill:#2f5000;fill-opacity:1" x="169.44051" y="64.20813">douteuse</tspan></text>
<rect height="26.428572" id="rect13148-3-3-2-4-1" rx="8.4705887" ry="15" style="fill:#ffffff;fill-opacity:1;stroke:none" width="68.571434" x="135.89229" y="494.24301"/>
<text id="fam_text" style="font-style:normal;font-variant:normal;font-weight:bold;font-stretch:normal;line-height:0%;font-family:stix;-inkscape-font-specification:'stix, bold';text-align:center;letter-spacing:0px;word-spacing:0px;writing-mode:lr-tb;text-anchor:middle;fill:#121e00;fill-opacity:1;stroke:none" x="169.58539" xml:space="preserve" y="513.11243"><tspan id="tspan4214-27-1-2-9-7-6-4-1-5-2-3-65-0-7-6-31-5-8-5-4-6-0-1-0" sodipodi:role="line" style="font-style:normal;font-variant:normal;font-weight:bold;font-stretch:normal;font-size:15px;line-height:1.25;font-family:stix;-inkscape-font-specification:'stix, bold';text-align:center;writing-mode:lr-tb;text-anchor:middle;fill:#121e00;fill-opacity:1" x="169.58539" y="513.11243">Paralogisme</tspan></text>
<flowRoot id="desc" inkscape:label="#flowRoot5388-1-9-2-7-9-4-63-8-65-6-8-7-2-3-5-4-9-17" style="font-style:normal;font-variant:normal;font-weight:bold;font-stretch:normal;line-height:0.01%;font-family:stix;-inkscape-font-specification:'stix bold';text-align:center;letter-spacing:0px;word-spacing:0px;text-anchor:middle;fill:#121e00;fill-opacity:1;stroke:none" transform="translate(160.86602,944.80751)" xml:space="preserve"><flowRegion id="flowRegion5390-2-2-5-6-3-9-94-3-6-8-8-5-1-8-5-4-6-9"><rect height="77.283951" id="rect5392-7-0-4-8-6-2-8-5-84-3-3-4-2-2-3-3-0-1" style="font-style:normal;font-variant:normal;font-weight:bold;font-stretch:normal;font-size:15px;line-height:100%;font-family:stix;-inkscape-font-specification:'stix bold';text-align:center;text-anchor:middle;fill:#6ab400;fill-opacity:1" width="264.06375" x="-123.22692" y="-557.27393"/></flowRegion><flowPara id="flowPara3438" style="font-style:normal;font-variant:normal;font-weight:bold;font-stretch:normal;font-size:15px;line-height:100%;font-family:stix;-inkscape-font-specification:'stix bold';text-align:center;text-anchor:middle;fill:#121e00;fill-opacity:1">Vous affirmez qu'un fait en a provoqué un autre en établissant un enchaînement très discutable.</flowPara></flowRoot> <flowRoot id="example" inkscape:label="#flowRoot5388-1-9-2-7-9-4-63-8-92-2-3-8-9-5-4-5-19-0-3" style="font-style:normal;font-variant:normal;font-weight:bold;font-stretch:normal;line-height:0.01%;font-family:stix;-inkscape-font-specification:'stix bold';text-align:center;letter-spacing:0px;word-spacing:0px;text-anchor:middle;fill:#121e00;fill-opacity:1;stroke:none" transform="translate(159.42947,1031.7463)" xml:space="preserve"><flowRegion id="flowRegion5390-2-2-5-6-3-9-94-3-17-8-6-9-1-6-0-9-6-1-59"><rect height="40.141094" id="rect5392-7-0-4-8-6-2-8-5-7-1-2-6-5-5-9-91-21-0-4" style="font-style:normal;font-variant:normal;font-weight:bold;font-stretch:normal;font-size:15px;line-height:100%;font-family:stix;-inkscape-font-specification:'stix bold';text-align:center;text-anchor:middle;fill:#6ab400;fill-opacity:1;stroke-width:0.57764798" width="267.68024" x="-123.22692" y="-585.78955"/></flowRegion><flowPara id="flowPara5394-0-2-4-9-0-06-12-6-9-2-2-4-4-0-4-4-2-1-8" style="font-style:italic;font-variant:normal;font-weight:bold;font-stretch:normal;font-size:12.5px;line-height:100%;font-family:stix;-inkscape-font-specification:'stix bold italic';text-align:center;text-anchor:middle;fill:#121e00;fill-opacity:1">Pas étonnant qu'il obtienne de si bonnes notes à l'école : c'est le chouchou du professeur !</flowPara></flowRoot> <g id="illustration" inkscape:groupmode="layer" inkscape:label="#illustration" transform="translate(-5.468633,-71.03971)"><g id="579" inkscape:label="#g4948" transform="translate(-1343.3627,583.45189)">
<path d="m 1542.3896,-422.8197 c -36.7886,19.8888 -56.7552,59.3193 -89.9146,84.0303 -24.7271,20.3965 -53.7727,44.9669 -45.8633,81.1012 -4.7123,26.5068 43.2116,58.3174 37.08,58.7195 14.9822,-29.9346 53.1347,-44.6707 57.3997,-80.9698 -6.5918,-39.386 23.9209,-58.0184 53.853,-73.7442 52.3031,-25.1375 11.5609,37.9325 -12.1472,47.4689 -28.4456,26.9384 -3.7638,82.6273 -45.5573,99.2688 -25.179,11.1936 -82.8834,25.1762 -51.2393,62.2483 23.7623,52.4278 73.3135,-11.4018 99.1837,-32.4129 20.1364,-33.7343 56.697,-49.7644 81.2484,-77.9319 9.6886,-31.7322 -1.3354,-70.4674 -29.2072,-89.7912 -10.2016,-29.5308 -15.1074,-65.194 -48.9929,-77.3309 z" id="path4558" inkscape:connector-curvature="0" style="fill:#ffffff;fill-opacity:1;fill-rule:evenodd;stroke:none;stroke-width:1px;stroke-linecap:butt;stroke-linejoin:miter;stroke-opacity:1"/>
<path d="m 1608.5203,-234.1537 c -17.9518,13.9486 -29.7219,23.6702 -32.3951,26.7566 -1.1405,1.3172 -3.685,4.7554 -5.654,7.6409 -2.719,3.9845 -4.5377,5.9961 -7.5615,8.3635 -2.1897,1.7143 -10.0856,8.9554 -17.5464,16.0913 -20.5874,19.691 -42.1683,38.336 -66.0438,57.0594 l -4.2624,3.3425 -3.2656,-2.3576 c -1.7962,-1.2967 -3.1789,-2.4655 -3.0729,-2.5972 0.1061,-0.1318 5.7731,-4.4297 12.5935,-9.5511 20.6348,-15.4944 37.1437,-29.6136 58.0836,-49.6757 5.4688,-5.2395 12.5672,-11.4607 15.7744,-13.8247 5.069,-3.7363 6.2149,-4.8907 8.7656,-8.8297 5.4655,-8.4406 10.938,-14.5767 16.7068,-18.7328 11.0728,-7.9773 16.9577,-12.0799 26.7561,-18.6522 14.2388,-9.5508 16.1216,-12.1813 15.9944,-22.3471 -0.058,-4.6287 0.886,-11.8009 1.5628,-11.8741 0.2453,-0.027 0.5288,1.0328 0.6301,2.3541 0.1012,1.3214 0.3842,2.5634 0.6287,2.7602 0.939,0.7558 5.0258,-14.3701 4.7767,-17.6797 -0.1855,-2.4644 -3.6924,-11.7052 -4.4126,-11.6273 -0.2468,0.027 -0.3489,2.4696 -0.227,5.4287 0.1219,2.9592 -0.2368,7.5113 -0.797,10.1158 -1.1537,5.3629 -1.1163,5.4276 -2.6296,-4.5532 -0.4179,-2.7556 -0.979,-4.9865 -1.2469,-4.9576 -0.7153,0.078 -4.6346,13.0544 -5.0669,16.7764 -0.6822,5.8752 -3.3383,3.4142 -3.8384,-3.5563 -0.089,-1.2376 0.5828,-4.9024 1.4924,-8.1439 0.9095,-3.2416 2.029,-7.6235 2.4878,-9.7377 0.4588,-2.1143 1.8833,-6.0476 3.1655,-8.7408 4.5015,-9.455 4.3676,-13.2992 -0.5706,-16.3814 -1.5768,-0.9841 -6.2593,-4.1385 -10.4054,-7.0098 -5.7336,-3.9705 -8.7132,-5.6061 -12.4456,-6.8308 -2.6991,-0.8856 -5.7711,-2.3704 -6.8267,-3.2995 l -1.9193,-1.6896 2.0995,1.3188 c 1.1548,0.725 2.5183,1.2779 3.0299,1.2286 1.2976,-0.1255 -3.3459,-3.7781 -5.262,-4.1393 -1.8461,-0.3473 -4.3214,2.4332 -4.4962,5.0516 -0.1429,2.1384 2.6068,7.5451 5.4233,10.6638 2.1774,2.4111 2.1891,2.405 3.5956,-1.8558 0.6029,-1.8262 2.0868,-0.4255 2.0455,1.9308 -0.1089,6.2083 0.1546,6.8529 3.9199,9.5955 l 3.5119,2.5577 3.5846,-2.3076 c 4.5863,-2.9523 5.6535,-2.3043 2.0098,1.2204 -2.7486,2.6587 -3.9123,5.1585 -7.8568,16.8767 -1.5666,4.654 -3.0659,6.6775 -6.4971,8.7683 -5.3038,3.2322 -5.7131,4.3776 -5.9255,16.5863 -0.107,6.1498 -0.1893,14.5239 -0.1829,18.6091 0.015,9.3851 -1.6839,12.6817 -7.8931,15.3193 -4.4059,1.8717 -10.985,-1.5865 -11.9002,-6.2553 -0.4514,-2.3024 -0.105,-11.2884 1.0621,-27.5549 l 0.3899,-5.4343 -3.7762,-5.6869 c -3.3239,-5.0059 -3.6545,-5.8385 -2.7599,-6.9499 0.5591,-0.6946 1.3643,-2.161 1.7896,-3.2588 0.4252,-1.0978 1.3813,-3.0769 2.1247,-4.3977 0.9352,-1.6619 1.244,-3.8479 1.0022,-7.0955 -0.3129,-4.204 -0.2209,-4.5902 0.8823,-3.7022 1.2144,0.9774 1.2954,0.9059 5.7507,-5.0797 5.1893,-6.9713 7.0396,-12.0128 5.4226,-14.7739 -0.514,-0.8778 -0.8857,-1.9881 -0.8259,-2.4673 0.1504,-1.2051 -2.7377,-3.4095 -4.0909,-3.1227 -0.6106,0.1296 -2.2246,1.4418 -3.5868,2.9164 l -2.4765,2.6811 1.8702,1.0424 c 3.0479,1.6989 3.4103,1.743 4.6653,0.5685 1.6293,-1.525 2.3466,-0.3932 1.0606,1.6735 -0.5727,0.9205 -1.0347,2.169 -1.0266,2.7747 0.022,1.6775 -1.4939,1.8447 -2.6623,0.2976 -1.7271,-2.2852 -5.7299,-3.3577 -8.283,-2.2193 -1.2577,0.5607 -3.4547,1.2531 -4.8823,1.5387 -1.9061,0.3815 -2.9752,1.0808 -4.0233,2.6319 -1.3851,2.0499 -1.3631,2.1585 0.7433,3.6578 l 2.1707,1.5451 -2.8506,0.7021 c -4.0185,0.9897 -4.4303,1.797 -1.7702,3.4704 l 2.1966,1.3815 -3.083,0.055 -3.083,0.055 -1.1759,3.3516 c -0.6467,1.8436 -2.6082,5.6533 -4.3589,8.4661 -5.8417,9.3858 -6.8743,11.7722 -8.8012,20.3394 -1.0532,4.6825 -2.9817,11.121 -4.2855,14.3077 -2.6841,6.5606 -2.8936,10.6941 -0.8782,17.3304 0.6983,2.2998 1.0437,4.4634 0.7675,4.8078 -0.2763,0.3444 -0.4772,2.5733 -0.4466,4.953 0.062,4.7619 -0.6284,7.149 -1.7949,6.2104 -0.4061,-0.327 -0.6923,-0.9637 -0.636,-1.4151 0.3945,-3.1614 -4.9543,2.1566 -6.9587,6.9187 -0.8147,1.9353 -1.5792,2.5441 -5.3295,4.2444 -2.408,1.0915 -8.709,4.6127 -14.0022,7.8245 -13.7673,8.3539 -23.929,13.7565 -38.2069,20.3129 -13.44,6.1718 -21.0455,9.0157 -22.6926,8.4858 -0.5894,-0.1904 -1.1924,-1.7512 -1.409,-3.6496 -0.2082,-1.8247 -0.8151,-5.7011 -1.3487,-8.6142 -0.5336,-2.9128 -1.0322,-6.2606 -1.1082,-7.4392 -0.1814,-2.8186 -0.7376,-3.2332 -19.7212,-14.701 -8.777,-5.302 -16.6293,-10.4169 -17.4496,-11.3662 -1.6826,-1.9473 -2.0201,-5.9842 -0.7978,-9.5443 0.7042,-2.0512 0.3457,-3.3711 -2.692,-9.912 -6.549,-14.1008 -6.6718,-14.6595 -4.8304,-21.9513 0.8943,-3.5411 2.6968,-9.4371 4.0057,-13.1022 1.3089,-3.6652 2.4586,-7.6165 2.5548,-8.7809 0.3405,-4.12 1.5693,-8.6304 2.7513,-10.0989 0.6584,-0.8181 10.0261,-8.4326 20.817,-16.9208 25.2154,-19.8352 29.0567,-23.2886 32.4616,-29.1836 2.883,-4.9914 5.2578,-7.5175 12.7107,-13.5205 2.7851,-2.2431 9.0818,-8.0198 13.9926,-12.8371 11.6431,-11.4208 23.7547,-22.447 35.9833,-32.7584 9.7171,-8.1935 28.0012,-23.0024 32.2972,-26.1583 l 2.1997,-1.616 2.9932,2.4091 c 1.6462,1.3251 2.825,2.6182 2.6194,2.8735 -0.2056,0.2554 -5.9662,4.6609 -12.8015,9.79 -20.4608,15.3537 -34.6471,27.4796 -56.4799,48.2775 -6.1684,5.8758 -13.8256,12.5753 -17.016,14.8873 -4.6419,3.3639 -6.2662,4.9235 -8.131,7.8065 -7.44,11.5023 -9.3823,13.7421 -16.4039,18.9161 -12.1899,8.9825 -23.8955,17.2117 -29.646,20.8416 -7.6351,4.8194 -12.2038,9.7248 -13.1137,14.08 -0.3701,1.7714 -0.6166,4.598 -0.5478,6.2815 0.1423,3.4822 -0.6207,11.0053 -1.1875,11.7096 -0.2075,0.2577 -0.7048,-0.8617 -1.1053,-2.4875 l -0.728,-2.9561 -1.7348,5.4129 c -3.4379,10.7274 -3.4944,13.6418 -0.4002,20.6692 0.966,2.1941 1.9136,4.2832 2.1058,4.6427 0.1922,0.3594 0.2258,-1.8048 0.075,-4.8094 -0.1511,-3.0047 0.2164,-7.954 0.8166,-10.9985 l 1.0915,-5.5355 1.1335,6.6578 c 0.6235,3.6619 1.0926,6.9857 1.0426,7.3866 -0.05,0.4008 0.1176,0.8966 0.3725,1.1016 0.5403,0.435 4.0768,-10.5204 5.1692,-16.0136 1.131,-5.6866 2.2293,-5.9941 3.3353,-0.9338 0.6061,2.7728 0.5696,5.6306 -0.1066,8.3542 -3.5569,14.3255 -4.4859,17.4374 -6.6299,22.208 -3.3832,7.528 -3.8324,9.9972 -2.3244,12.7756 1.0299,1.8973 1.9719,2.7274 4.7961,4.2267 1.9331,1.0261 6.2486,3.8166 9.5903,6.2011 4.3335,3.0924 7.4765,4.8179 10.961,6.0172 5.6278,1.937 9.0916,3.7486 8.5213,4.4571 -0.2175,0.2703 -1.2419,-0.09 -2.2763,-0.8 -3.1412,-2.1565 -4.1079,-1.3384 -1.1919,1.0087 3.1875,2.5656 7.1655,2.5813 8.1936,0.032 0.8238,-2.0426 0.5604,-5.6111 -0.565,-7.6539 -1.3944,-2.5308 -5.4253,-7.6335 -5.9825,-7.5732 -0.271,0.029 -0.7622,0.8806 -1.0908,1.8925 -1.2593,3.8726 -2.45,3.072 -2.7178,-1.8276 -0.2808,-5.1369 -1.4886,-7.287 -5.2886,-9.4143 -2.222,-1.2438 -2.4904,-1.1884 -5.9854,1.236 -2.0125,1.3961 -3.6919,2.2342 -3.7322,1.8623 -0.04,-0.3719 1.4357,-2.5851 3.2798,-4.9181 2.8373,-3.589 3.6494,-5.2535 5.2807,-10.818 2.4138,-8.2336 3.6714,-10.4305 7.2112,-12.5971 5.77,-3.5316 6.2226,-4.7721 6.5023,-17.8214 0.1394,-6.4986 0.2253,-14.7814 0.191,-18.4066 -0.057,-6.0562 0.1248,-6.8616 2.2421,-9.9201 3.5449,-5.121 8.4238,-6.5573 13.5494,-3.9889 4.6654,2.338 5.149,6.7348 3.2231,29.3048 l -0.7676,8.9951 3.8584,5.5849 c 3.358,4.8601 3.732,5.742 2.8832,6.7965 -0.5364,0.6665 -1.3232,2.11 -1.7484,3.2078 -0.4252,1.0978 -1.3529,3.0237 -2.0614,4.2797 -0.8385,1.4862 -1.1988,3.9232 -1.0317,6.9786 0.1411,2.582 0.1368,4.8435 -0.01,5.0253 -0.1464,0.1818 -0.7948,-0.094 -1.4409,-0.615 -1.1447,-0.9215 -1.2827,-0.7954 -5.3874,4.9203 -2.3169,3.2264 -4.6068,6.9713 -5.0885,8.3219 -0.876,2.4555 -1.0054,6.478 -0.2193,6.8075 0.2292,0.096 0.7247,1.1559 1.1009,2.3554 1.2951,4.1297 4.851,3.8456 8.4923,-0.6785 l 1.6892,-2.0987 -2.8804,-1.1899 c -2.086,-0.8618 -3.1896,-0.9045 -4.0017,-0.1553 -1.2212,1.1268 -2.3792,0.7039 -1.8383,-0.6713 0.1855,-0.4717 0.928,-1.9059 1.6499,-3.1876 l 1.3126,-2.3301 2.1813,1.7559 c 3.2071,2.5812 5.4531,3.0601 8.1778,1.744 1.3347,-0.6448 3.2491,-1.22 4.2542,-1.2782 1.2866,-0.075 2.4118,-0.832 3.8021,-2.5593 l 1.9747,-2.4534 -2.4288,-1.4705 c -1.3359,-0.8087 -2.2864,-1.6475 -2.1122,-1.8638 0.1741,-0.2163 1.627,-0.5068 3.2286,-0.6453 1.6015,-0.1385 3.0733,-0.4523 3.2705,-0.6973 0.1972,-0.2451 -0.6862,-1.2933 -1.9632,-2.3294 l -2.3217,-1.8842 2.7743,0.3015 c 2.283,0.2481 2.9241,0.01 3.62,-1.3608 0.4651,-0.9143 1.5748,-3.1075 2.466,-4.8736 0.8912,-1.7662 3.4724,-6.4451 5.736,-10.3975 3.4489,-6.0222 4.3494,-8.2999 5.5592,-14.0612 0.794,-3.7813 2.7144,-10.2408 4.2676,-14.3543 3.2803,-8.6882 3.5297,-11.7379 1.5025,-18.3726 -0.8136,-2.6631 -1.2413,-5.143 -0.9503,-5.5112 0.2888,-0.37 0.5404,-2.6921 0.5542,-5.1646 0.03,-5.3755 0.7108,-6.6565 2.3709,-4.46 l 1.1591,1.5335 3.9715,-5.5852 c 3.7744,-5.3081 4.17,-5.6756 7.9716,-7.4072 2.2,-1.002 7.7337,-4.0909 12.297,-6.8641 13.8851,-8.4382 25.322,-14.5505 38.9689,-20.826 13.8661,-6.3763 21.3171,-9.062 22.8554,-8.2384 0.5207,0.2787 1.3499,3.2787 1.8427,6.6666 0.4928,3.3877 1.0174,6.2704 1.1659,6.4056 0.1481,0.1361 0.4291,1.8154 0.6236,3.7336 0.1945,1.9181 0.5818,4.0389 0.8606,4.7129 0.4574,1.1059 16.807,11.6025 28.1908,18.0989 9.2736,5.2922 11.1931,8.2511 9.3297,14.3809 -0.9765,3.2123 -0.8671,3.6651 2.8671,11.8747 6.9254,15.2252 6.9214,15.1108 1.1204,31.8952 -1.6116,4.6631 -3.0129,9.4281 -3.1139,10.5885 -0.4251,4.8839 -1.6482,8.707 -3.4946,10.9234 -1.0627,1.2755 -8.3547,7.3094 -16.2045,13.4088 z m -26.8521,-10.324 c -0.3014,-0.2427 -0.954,0.063 -1.4503,0.6798 -1.324,1.645 -5.4833,1.8673 -7.3176,0.3909 -1.9469,-1.5671 -2.1565,-3.2064 -0.6494,-5.0788 1.5043,-1.8689 4.3514,-2.011 7.295,-0.3641 1.93,1.0796 2.1701,1.0799 1.3899,0 -1.314,-1.8162 -5.6089,-2.5956 -7.9845,-1.4493 -2.648,1.278 -3.7039,4.6354 -2.1182,6.7336 2.0624,2.7287 8.6404,2.854 10.8238,0.2057 0.3087,-0.3723 0.3128,-0.877 0.011,-1.1196 z m 3.2458,-36.672 c 0.3544,-48.9973 0.4951,-44.7909 -1.4315,-42.7854 -1.7567,1.8285 -1.9027,3.2921 -6.1346,61.4595 -0.4899,6.7343 -0.6287,7.2013 -2.2142,7.4532 -0.9304,0.1478 -1.781,0.015 -1.8904,-0.2944 -0.1094,-0.3096 0.3113,-7.7844 0.9348,-16.6107 1.1551,-16.3503 1.8805,-38.2251 1.204,-36.3034 -0.2055,0.5838 -0.8186,9.6406 -1.3623,20.1264 -1.5661,30.2001 -1.8283,33.2294 -2.9322,33.8713 -0.6975,0.4056 -0.7538,-3.8128 -0.1802,-13.4974 0.8215,-13.8693 1.2376,-31.1146 0.7358,-30.4912 -0.141,0.1752 -0.5643,6.6738 -0.9406,14.4411 -0.3762,7.7673 -1.0494,18.2649 -1.4959,23.328 l -0.812,9.2056 2.1018,-0.9427 c 4.6339,-2.0785 9.3864,-1.8529 12.4215,0.59 l 1.7185,1.3834 0.067,-5.5902 c 0.037,-3.0745 0.1317,-14.4789 0.2102,-25.343 z m -6.1552,34.3302 c -1.7827,-1.4348 -4.4091,-1.4286 -4.8725,0.011 -0.487,1.5137 1.0044,2.7098 3.2188,2.5818 2.3865,-0.1383 3.1723,-1.3706 1.6535,-2.5931 z m -55.5659,5.2145 c 0.3198,-1.1317 0.5863,-4.8987 0.592,-8.371 0.016,-9.9947 0.2536,-11.4995 2.7573,-17.4957 1.299,-3.1113 3.0495,-8.0904 3.89,-11.0649 0.8404,-2.9743 2.1897,-6.9277 2.9983,-8.7852 3.6383,-8.3574 12.7577,-27.602 14.9245,-31.4951 l 2.3885,-4.2913 5.8057,-2.3942 c 4.8121,-1.9846 6.4692,-3.0674 9.6813,-6.3262 2.1315,-2.1625 4.6306,-4.1987 5.5532,-4.525 1.4954,-0.5285 1.8209,-1.2841 2.9937,-6.9494 0.7489,-3.6171 2.113,-7.6558 3.1655,-9.3712 1.0174,-1.6582 2.0423,-3.9625 2.2777,-5.1209 0.2353,-1.1584 0.8961,-2.6879 1.4682,-3.3986 0.5723,-0.7111 1.0729,-1.9921 1.1125,-2.847 0.064,-1.3813 -0.8897,-1.0885 -8.5667,2.6314 -29.1075,14.1039 -52.4653,29.7038 -66.4954,44.4102 -5.212,5.4631 -6.2069,8.1118 -6.1391,16.344 0.079,9.6391 -0.2826,11.922 -2.7935,17.6213 -1.2369,2.8075 -2.7629,7.0655 -3.3912,9.4623 -0.6282,2.3967 -1.7217,5.72 -2.4301,7.385 -4.6437,10.916 -7.7943,18.108 -8.5067,19.4187 -1.036,1.9058 -4.8515,9.8535 -6.2643,13.0485 -2.0311,4.5929 -4.0483,6.3418 -10.5577,9.1532 -5.3785,2.323 -6.5909,3.1395 -8.876,5.9787 -1.6679,2.0722 -3.4367,3.5851 -4.7838,4.0914 -2.0887,0.785 -2.1613,0.9385 -3.1935,6.7505 -0.5807,3.271 -1.6739,7.0075 -2.4289,8.3039 -2.4697,4.2394 -2.7417,4.828 -3.5373,7.6536 -0.4325,1.5362 -1.0702,2.8935 -1.4171,3.0159 -0.3468,0.1224 -0.6605,0.9697 -0.697,1.8827 -0.061,1.5236 0.7138,1.2859 9.4252,-2.8922 12.127,-5.8163 29.1628,-15.4773 38.5069,-21.8375 16.9239,-11.5193 30.9795,-24.4727 32.5378,-29.9859 z m 62.7811,-108.3662 c -2.4756,-1.1408 -6.2604,-0.9201 -7.2963,0.4256 -0.514,0.6677 -1.3097,3.1472 -1.7683,5.5101 -0.9098,4.6886 -0.5444,5.0887 0.6783,0.7427 1.3321,-4.7346 1.7741,-5.9935 2.0316,-5.7863 0.1375,0.1106 -0.064,1.8786 -0.4486,3.9285 -0.7085,3.779 0.4095,2.2104 1.2389,-1.7386 0.7302,-3.4767 3.1048,-3.5592 2.45,-0.085 l -0.3611,1.9152 2.6277,-0.7683 c 2.1519,-0.6292 2.6111,-1.0072 2.5356,-2.0884 -0.056,-0.8045 -0.7153,-1.6074 -1.6878,-2.0554 z m 1.2076,-2.9553 c -0.6723,-0.5411 -4.6977,-1.0986 -6.0091,-0.8321 -2.0888,0.4241 -0.6942,1.232 2.7389,1.5866 2.5845,0.2669 4.1037,-0.084 3.2702,-0.7545 z m -1.4665,-6.311 c -0.2545,-1.3171 -1.9778,-2.2574 -2.6367,-1.4386 -0.209,0.2596 0.085,0.6216 0.6524,0.8042 0.5856,0.1886 0.9432,1.0749 0.8264,2.0483 -0.1132,0.9439 0.1348,1.9904 0.5514,2.3255 0.6322,0.5089 0.765,0.3548 0.8037,-0.9335 0.026,-0.8486 -0.063,-2.1114 -0.1974,-2.8061 z m -0.2842,-5.4835 c -0.1514,-0.429 -0.4739,-0.5333 -0.7165,-0.2319 -0.2426,0.3015 -0.3172,0.8989 -0.1657,1.3279 0.1515,0.4288 0.4739,0.5331 0.7165,0.2319 0.2426,-0.3015 0.3172,-0.8989 0.1657,-1.3278 z m -144.7194,177.4745 c -0.2597,-0.2091 -0.628,0.1042 -0.8184,0.6958 -0.1904,0.5919 -0.1337,1.2471 0.126,1.4561 0.2597,0.2091 0.628,-0.104 0.8185,-0.6959 0.1903,-0.5916 0.1337,-1.2469 -0.1261,-1.456 z m 1.3563,-3.7131 c -0.8016,-0.3598 -1.2025,-1.2596 -1.1189,-2.5112 0.1768,-2.6461 -1.1188,-2.3557 -1.38,0.3094 -0.2267,2.3137 0.5384,3.316 2.379,3.1171 1.5761,-0.1704 1.5874,-0.2565 0.1199,-0.9153 z m 3.1274,-7.1025 c -0.7832,-0.5837 -7.3591,-0.5296 -6.633,0.055 0.9839,0.7917 6.151,1.3856 6.6512,0.764 0.2228,-0.2768 0.2146,-0.6453 -0.018,-0.8189 z m 3.088,-7.4993 c 0.5402,-2.5312 0.8471,-4.7106 0.6836,-4.8425 -0.1641,-0.1323 -0.3354,0.056 -0.3804,0.4177 -0.1783,1.4283 -2.4377,8.1512 -2.6753,7.9598 -0.1391,-0.112 0,-1.5212 0.3163,-3.1319 0.6949,-3.5752 -0.3012,-2.6931 -1.1892,1.0532 -0.4563,1.9247 -0.9404,2.7206 -1.7055,2.8032 -0.7652,0.083 -0.9688,-0.5714 -0.7173,-2.304 l 0.3512,-2.4195 -2.5578,1.1471 c -3.01,1.3499 -3.2646,2.1174 -1.2427,3.7446 1.3137,1.0575 7.1304,1.423 7.8772,0.4952 0.1419,-0.1762 0.6999,-2.3914 1.24,-4.9228 z m -2.2022,-56.3439 c 2.4898,-32.9935 2.7722,-34.6818 5.6244,-33.6212 0.3634,0.1352 0.094,8.6314 -0.5987,18.8807 -1.2285,18.1723 -1.7691,35.0078 -1.0974,34.1735 0.1839,-0.2286 0.8875,-10.5981 1.5637,-23.0433 1.7828,-32.8191 1.6041,-30.8186 2.7656,-30.9441 0.7154,-0.077 0.7976,3.3811 0.2683,11.2948 -0.8322,12.4442 -1.3464,32.2199 -0.8363,32.1647 0.1755,-0.018 0.5857,-5.8608 0.9114,-12.9818 0.3257,-7.121 1.0084,-17.6415 1.5173,-23.379 l 0.925,-10.4316 -2.6889,1.373 c -3.6758,1.8773 -8.1316,1.8848 -10.4508,0.019 -1.0141,-0.8163 -2.1569,-1.3734 -2.5396,-1.2383 -0.6984,0.2467 -0.9951,13.8756 -1.1232,51.5725 -0.086,25.3969 -0.2362,23.5343 1.7012,21.1271 1.3273,-1.6489 1.9462,-6.9813 4.058,-34.9652 z m 9.1193,-42.6203 c 0.1774,-2.6558 -2.7408,-4.8928 -6.2819,-4.8157 -2.5785,0.056 -5.9994,1.9546 -4.9885,2.7682 0.2596,0.2089 0.743,0.044 1.0742,-0.3684 1.0832,-1.3456 5.0225,-1.7977 7.018,-0.8053 2.5288,1.2576 2.8859,3.0869 1.0484,5.3699 -1.6337,2.0297 -3.0383,2.2156 -6.8131,0.9017 l -2.6521,-0.9231 1.8039,1.4917 c 1.2912,1.0673 2.6261,1.4026 4.6954,1.179 3.2185,-0.348 4.9045,-1.9354 5.0957,-4.798 z m -4.4298,-1.0572 c -0.6891,-0.5546 -2.1062,-0.8729 -3.1491,-0.7071 -3.7112,0.5894 -1.1351,3.8028 2.7149,3.3866 1.8799,-0.2033 2.068,-1.3645 0.4343,-2.6795 z" id="path13257" inkscape:connector-curvature="0" style="fill:#233b01;fill-opacity:1"/>
</g></g>
</g>
</svg>