<?xml version="1.0" encoding="utf-8"?>
<!-- Created with Inkscape (http://www.inkscape.org/) --><svg height="152.42821mm" id="svg6779" inkscape:version="0.92.2 (unknown)" sodipodi:docname="niveau4.svg" version="1.1" viewBox="0 0 338.49999 540.09995" width="95.532219mm" xmlns="http://www.w3.org/2000/svg" xmlns:cc="http://creativecommons.org/ns#" xmlns:dc="http://purl.org/dc/elements/1.1/" xmlns:inkscape="http://www.inkscape.org/namespaces/inkscape" xmlns:rdf="http://www.w3.org/1999/02/22-rdf-syntax-ns#" xmlns:sodipodi="http://sodipodi.sourceforge.net/DTD/sodipodi-0.dtd" xmlns:svg="http://www.w3.org/2000/svg">
<defs id="defs6781"/>
<sodipodi:namedview bordercolor="#666666" borderopacity="1.0" id="base" inkscape:current-layer="layer1" inkscape:cx="35.268966" inkscape:cy="467.89903" inkscape:document-units="px" inkscape:pageopacity="0.0" inkscape:pageshadow="2" inkscape:window-height="728" inkscape:window-maximized="1" inkscape:window-width="1366" inkscape:window-x="0" inkscape:window-y="21" inkscape:zoom="0.98994949" pagecolor="#ffffff" showgrid="false"/>
<metadata id="metadata6784">
<rdf:RDF>
<cc:Work rdf:about="">
<dc:format>image/svg+xml</dc:format>
<dc:type rdf:resource="http://purl.org/dc/dcmitype/StillImage"/>
<dc:title/>
</cc:Work>
</rdf:RDF>
</metadata>
<g id="layer1" inkscape:groupmode="layer" inkscape:label="Calque 1" transform="translate(0,0.23029041)">
<rect height="539.09998" id="rect4326-0-3-6-4-3-2-61-6-9-9-5-0-7-0-5-8-8-9-4-5-5" inkscape:export-xdpi="90" inkscape:export-ydpi="90" style="fill:#ffffff;fill-opacity:1;stroke:#000000;stroke-opacity:1" width="337.5" x="0.5" y="0.26970959"/>
<rect height="486.97104" id="rect2985-3-0-7-7-6-9-6-2-0-3-5-4-5-0-77-3-1-3-5-5-4-3-9-7-0-1-8-1" inkscape:export-filename="/home/thomas/Documents/fallacies/png/rect2985-3-0-7-7.png" inkscape:export-xdpi="90" inkscape:export-ydpi="90" rx="9.2935619" ry="7.1613393" style="fill:#ffffff;fill-opacity:1;stroke:#6ab400;stroke-width:12;stroke-miterlimit:4;stroke-dasharray:none;stroke-dashoffset:0;stroke-opacity:1" width="285.0025" x="26.906189" y="26.612749"/>
<ellipse cx="169.40732" cy="279.7749" id="oval" inkscape:label="#path6246-7-6-6-9-7-6-9-3-1-1-722-4-6-4-7-1-9-6-2-0-7-5-4-6-9-9" rx="131.36859" ry="205.59465" style="fill:#6ab400;fill-opacity:1;stroke:#6ab400;stroke-width:1.01065052;stroke-opacity:1"/>
<rect height="15" id="sfam_3_active" inkscape:label="#rect13148-3-0-9-3-80-7-76-2" style="fill:#ffffff;fill-opacity:1;stroke:none;stroke-width:5.83799982;stroke-linecap:round;stroke-linejoin:bevel;stroke-miterlimit:4;stroke-dasharray:none;stroke-dashoffset:0;stroke-opacity:1" transform="rotate(90)" width="65.714287" x="50.147449" y="-34.050476"/>
<text id="sfam_3" inkscape:label="#text4212-1-29-1-2-8-9-0-9-6-9-8-3-1-0-6-8-0-4-2-3-6-9-3-6-2-6-4-2" style="font-style:normal;font-variant:normal;font-weight:bold;font-stretch:normal;font-size:12.00000095px;line-height:0%;font-family:'Liberation Serif';-inkscape-font-specification:'Liberation Serif, Bold';font-variant-ligatures:normal;font-variant-caps:normal;font-variant-numeric:normal;font-feature-settings:normal;text-align:end;letter-spacing:0px;word-spacing:0px;writing-mode:lr-tb;text-anchor:end;fill:#1b0603;fill-opacity:1;stroke:none" transform="rotate(-90)" x="-51.643555" xml:space="preserve" y="31.116638"><tspan id="tspan4214-27-1-2-9-7-6-4-1-1-1-3-9-59-96-1-6-2-1-8-8-2-7-4-5-4-7-3-9" sodipodi:role="line" style="font-style:normal;font-variant:normal;font-weight:bold;font-stretch:normal;font-size:12.00000095px;line-height:1.25;font-family:'Liberation Serif';-inkscape-font-specification:'Liberation Serif, Bold';font-variant-ligatures:normal;font-variant-caps:normal;font-variant-numeric:normal;font-feature-settings:normal;text-align:end;writing-mode:lr-tb;text-anchor:end;fill:#1b0603;fill-opacity:1;stroke:none" x="-51.643555" y="31.116638">Mauvaise déduction</tspan></text>
<rect height="17.763229" id="rect5818-6-6-9-3-0-7" style="fill:#6ab400;fill-opacity:1;stroke:none;stroke-width:0.91443771;stroke-linecap:round;stroke-linejoin:bevel;stroke-miterlimit:4;stroke-dasharray:none;stroke-dashoffset:0;stroke-opacity:1" width="278.215" x="30.299866" y="495.76239"/>
<text id="fam_num" inkscape:label="#text5665-3-4-9-4-3-3-5-7-5-8-4-6-8-6-6-3-0-6-3-4" style="font-style:normal;font-weight:normal;line-height:0%;font-family:sans-serif;letter-spacing:0px;word-spacing:0px;fill:#000000;fill-opacity:1;stroke:none" x="40.722107" xml:space="preserve" y="513.8327"><tspan id="tspan5667-04-4-6-18-8-8-0-0-1-5-7-0-9-2-1-9-1-5-0-3" sodipodi:role="line" style="font-style:normal;font-variant:normal;font-weight:bold;font-stretch:normal;font-size:17.5px;line-height:1.25;font-family:STIX;-inkscape-font-specification:'STIX Bold';fill:#ffffff" x="40.722107" y="513.8327">4</tspan></text>
<text id="sfam_2" inkscape:label="#text4212-1-29-1-2-8-9-0-9-6-9-15-4-9-9-24-4-6-7-5-4-2-6-9-5" style="font-style:normal;font-variant:normal;font-weight:bold;font-stretch:normal;line-height:0%;font-family:STIX;-inkscape-font-specification:'STIX Bold';letter-spacing:0px;word-spacing:0px;fill:#ffffff;fill-opacity:1;stroke:none" transform="rotate(-90)" x="-271.55652" xml:space="preserve" y="29.420349"><tspan id="tspan4214-27-1-2-9-7-6-4-1-1-1-9-8-7-7-0-88-0-1-6-8-0-3-2-6" sodipodi:role="line" style="font-style:normal;font-variant:normal;font-weight:bold;font-stretch:normal;font-size:10px;line-height:1.25;font-family:STIX;-inkscape-font-specification:'STIX Bold'" x="-271.55652" y="29.420349">Mauvaise composition</tspan></text>
<text id="sfam_1" inkscape:label="#text4212-1-29-1-2-8-9-0-9-6-9-17-4-1-5-6-8-7-5-1-12-0-9-54-1" style="font-style:normal;font-variant:normal;font-weight:bold;font-stretch:normal;line-height:0%;font-family:STIX;-inkscape-font-specification:'STIX Bold';letter-spacing:0px;word-spacing:0px;fill:#ffffff;fill-opacity:1;stroke:none" transform="rotate(-90)" x="-487.89233" xml:space="preserve" y="29.420349"><tspan id="tspan4214-27-1-2-9-7-6-4-1-1-1-85-8-3-3-2-9-0-8-7-9-6-4-0-4" sodipodi:role="line" style="font-style:normal;font-variant:normal;font-weight:bold;font-stretch:normal;font-size:10px;line-height:1.25;font-family:STIX;-inkscape-font-specification:'STIX Bold'" x="-487.89233" y="29.420349">Causalité douteuse</tspan></text>
<text id="ssfam_3" inkscape:label="#text4212-1-29-1-2-8-9-0-9-6-9-8-3-1-0-6-92-3-6-9-3-6-2-3-39-8-5-0" style="font-style:normal;font-variant:normal;font-weight:bold;font-stretch:normal;font-size:12.00000095px;line-height:0%;font-family:'Liberation Serif';-inkscape-font-specification:'Liberation Serif, Bold';font-variant-ligatures:normal;font-variant-caps:normal;font-variant-numeric:normal;font-feature-settings:normal;text-align:start;letter-spacing:0px;word-spacing:0px;writing-mode:lr-tb;text-anchor:start;fill:#500000;fill-opacity:1;stroke:none" transform="rotate(90)" x="38.246761" xml:space="preserve" y="-309.22137"><tspan id="tspan4214-27-1-2-9-7-6-4-1-1-1-3-9-59-96-1-318-6-04-1-7-5-8-9-0-1-9-3" sodipodi:role="line" style="font-style:normal;font-variant:normal;font-weight:bold;font-stretch:normal;font-size:12.00000095px;line-height:1.25;font-family:'Liberation Serif';-inkscape-font-specification:'Liberation Serif, Bold';font-variant-ligatures:normal;font-variant-caps:normal;font-variant-numeric:normal;font-feature-settings:normal;text-align:start;writing-mode:lr-tb;text-anchor:start;fill:#ffffff;fill-opacity:1;stroke:none" x="38.246761" y="-309.22137">Effet cigogne</tspan></text>
<text id="ssfam_2" inkscape:label="#text4212-1-29-1-2-8-9-0-9-6-9-15-7-7-8-9-7-6-1-0-8-29-4-1" style="font-style:normal;font-variant:normal;font-weight:bold;font-stretch:normal;line-height:0%;font-family:STIX;-inkscape-font-specification:'STIX Bold';letter-spacing:0px;word-spacing:0px;fill:#ffffff;fill-opacity:1;stroke:none" transform="rotate(90)" x="220.50974" xml:space="preserve" y="-309.22137"><tspan id="tspan4214-27-1-2-9-7-6-4-1-1-1-9-41-5-8-6-2-8-2-8-38-3-6-2" sodipodi:role="line" style="font-style:normal;font-variant:normal;font-weight:bold;font-stretch:normal;font-size:10px;line-height:1.25;font-family:STIX;-inkscape-font-specification:'STIX Bold'" x="220.50974" y="-309.22137">Inversion de causalité</tspan></text>
<rect height="15" id="ssfam_1_active" inkscape:label="#rect13148-3-0-9-3-80-7-7-3-3-7" style="fill:#ffffff;fill-opacity:1;stroke:none;stroke-width:5.83799982;stroke-linecap:round;stroke-linejoin:bevel;stroke-miterlimit:4;stroke-dasharray:none;stroke-dashoffset:0;stroke-opacity:1" transform="rotate(90)" width="124.30313" x="339.23779" y="-319.44952"/>
<text id="ssfam_1" inkscape:label="#text4212-1-29-1-2-8-9-0-9-6-9-17-63-3-97-3-6-4-4-8-73-9-92-7" style="font-style:normal;font-variant:normal;font-weight:bold;font-stretch:normal;font-size:12.00000095px;line-height:0%;font-family:STIX;-inkscape-font-specification:'STIX, Bold';font-variant-ligatures:normal;font-variant-caps:normal;font-variant-numeric:normal;font-feature-settings:normal;text-align:end;letter-spacing:0px;word-spacing:0px;writing-mode:lr-tb;text-anchor:end;fill:#1b0603;fill-opacity:1;stroke:none" transform="rotate(90)" x="462.18921" xml:space="preserve" y="-308.55173"><tspan id="tspan4214-27-1-2-9-7-6-4-1-1-1-85-85-5-76-3-4-8-7-5-1-0-2-9" sodipodi:role="line" style="font-style:normal;font-variant:normal;font-weight:bold;font-stretch:normal;font-size:12.00000095px;line-height:1.25;font-family:STIX;-inkscape-font-specification:'STIX, Bold';font-variant-ligatures:normal;font-variant-caps:normal;font-variant-numeric:normal;font-feature-settings:normal;text-align:end;writing-mode:lr-tb;text-anchor:end;fill:#1b0603;fill-opacity:1" x="462.18921" y="-308.55173">Pétition de principe</tspan></text>
<rect height="23.57143" id="rect13148-3-36-1-5-8-4-8" rx="8.7534218" ry="9.7777777" style="fill:#ffffff;fill-opacity:1;stroke:none;stroke-width:5.83799982;stroke-linecap:round;stroke-linejoin:bevel;stroke-miterlimit:4;stroke-dasharray:none;stroke-dashoffset:0;stroke-opacity:1" width="103.16534" x="118.54767" y="18.612719"/>
<text id="text" inkscape:label="#text5516-78-3-4-89-9-1-3-6-2-4-3-9-5-3-7-7-2-6-1-6-5-0-5-7-1" style="font-style:normal;font-variant:normal;font-weight:bold;font-stretch:normal;line-height:0%;font-family:STIX;-inkscape-font-specification:'STIX Bold';text-align:center;letter-spacing:0px;word-spacing:0px;writing-mode:lr-tb;text-anchor:middle;fill:#490f07;fill-opacity:1;stroke:none" x="169.24466" xml:space="preserve" y="39.097687"><tspan id="tspan9035" sodipodi:role="line" style="font-style:normal;font-variant:normal;font-weight:bold;font-stretch:normal;font-size:25px;line-height:100%;font-family:STIX;-inkscape-font-specification:'STIX Bold';text-align:center;writing-mode:lr-tb;text-anchor:middle;fill:#490f07;fill-opacity:1" x="169.24466" y="39.097687">Affirmation du conséquent</tspan><tspan id="tspan5336" sodipodi:role="line" style="font-style:normal;font-variant:normal;font-weight:bold;font-stretch:normal;font-size:25px;line-height:100%;font-family:STIX;-inkscape-font-specification:'STIX Bold';text-align:center;writing-mode:lr-tb;text-anchor:middle;fill:#490f07;fill-opacity:1" x="169.24466" y="64.097687"/></text>
<rect height="26.428572" id="rect13148-3-3-2-4-1-4-5-6" rx="8.4705887" ry="15" style="fill:#ffffff;fill-opacity:1;stroke:none;stroke-width:5.83799982;stroke-linecap:round;stroke-linejoin:bevel;stroke-miterlimit:4;stroke-dasharray:none;stroke-dashoffset:0;stroke-opacity:1" width="68.571434" x="135.12161" y="494.59808"/>
<text id="fam_text" inkscape:label="#text4212-1-29-1-2-8-9-0-9-67-9-6-3-5-23-0-1-7-3-2-3-4-7-8-8-8-4-0" style="font-style:normal;font-variant:normal;font-weight:bold;font-stretch:normal;font-size:12.00000095px;line-height:0%;font-family:'Liberation Serif';-inkscape-font-specification:'Liberation Serif, Bold';font-variant-ligatures:normal;font-variant-caps:normal;font-variant-numeric:normal;font-feature-settings:normal;text-align:center;letter-spacing:0px;word-spacing:0px;writing-mode:lr-tb;text-anchor:middle;fill:#1b0603;fill-opacity:1;stroke:none" x="164.26151" xml:space="preserve" y="511.59271"><tspan id="tspan4214-27-1-2-9-7-6-4-1-5-2-3-65-0-7-6-31-5-8-5-4-6-0-1-0-5-8-1" sodipodi:role="line" style="font-style:normal;font-variant:normal;font-weight:bold;font-stretch:normal;font-size:12.00000095px;line-height:1.25;font-family:'Liberation Serif';-inkscape-font-specification:'Liberation Serif, Bold';font-variant-ligatures:normal;font-variant-caps:normal;font-variant-numeric:normal;font-feature-settings:normal;text-align:center;writing-mode:lr-tb;text-anchor:middle;fill:#1b0603;fill-opacity:1" x="164.26151" y="511.59271">Erreur
logique</tspan></text>
<flowRoot id="desc" inkscape:label="#flowRoot5388-1-9-2-7-9-4-63-8-65-6-8-7-2-3-5-4-9-17-61-1-0" style="font-style:normal;font-variant:normal;font-weight:bold;font-stretch:normal;line-height:0.01%;font-family:STIX;-inkscape-font-specification:'STIX Bold';text-align:center;letter-spacing:0px;word-spacing:0px;text-anchor:middle;fill:#1b0603;fill-opacity:1;stroke:none" transform="translate(161.20564,945.16255)" xml:space="preserve"><flowRegion id="flowRegion5390-2-2-5-6-3-9-94-3-6-8-8-5-1-8-5-4-6-9-15-2-2"><rect height="77.283951" id="rect5392-7-0-4-8-6-2-8-5-84-3-3-4-2-2-3-3-0-1-9-8-5" style="font-style:normal;font-variant:normal;font-weight:bold;font-stretch:normal;font-size:15px;line-height:100%;font-family:stix;-inkscape-font-specification:'stix bold';text-align:center;text-anchor:middle;fill:#6ab400;fill-opacity:1" width="264.06375" x="-123.22692" y="-557.27393"/></flowRegion><flowPara id="flowPara5394-0-2-4-9-0-06-12-6-8-2-1-8-0-3-8-0-7-0-8-9-1" style="font-style:normal;font-variant:normal;font-weight:bold;font-stretch:normal;font-size:15px;line-height:100%;font-family:STIX;-inkscape-font-specification:'STIX Bold';text-align:center;text-anchor:middle;fill:#1b0603;fill-opacity:1">Vous déduisez une cause de son effet sans prendre en compte les autres causes possibles.</flowPara></flowRoot> <flowRoot id="example" inkscape:label="#flowRoot5388-1-9-2-7-9-4-63-8-92-2-3-8-9-5-4-5-19-0-3-48-36-9" style="font-style:normal;font-variant:normal;font-weight:bold;font-stretch:normal;line-height:0.01%;font-family:STIX;-inkscape-font-specification:'STIX Bold';text-align:center;letter-spacing:0px;word-spacing:0px;text-anchor:middle;fill:#1b0603;fill-opacity:1;stroke:none" transform="translate(158.93154,1003.4804)" xml:space="preserve"><flowRegion id="flowRegion5390-2-2-5-6-3-9-94-3-17-8-6-9-1-6-0-9-6-1-59-1-8-7"><rect height="48.063705" id="rect5392-7-0-4-8-6-2-8-5-7-1-2-6-5-5-9-91-21-0-4-0-0-1" style="font-style:normal;font-variant:normal;font-weight:bold;font-stretch:normal;font-size:15px;line-height:100%;font-family:stix;-inkscape-font-specification:'stix bold';text-align:center;text-anchor:middle;fill:#6ab400;fill-opacity:1;stroke-width:0.57831079" width="267.68024" x="-123.22692" y="-557.27393"/></flowRegion><flowPara id="flowPara5394-0-2-4-9-0-06-12-6-9-2-2-4-4-0-4-4-2-1-8-30-2-3" style="font-style:italic;font-variant:normal;font-weight:bold;font-stretch:normal;font-size:12.5px;line-height:100%;font-family:STIX;-inkscape-font-specification:'STIX Bold Italic';text-align:center;text-anchor:middle;fill:#1b0603;fill-opacity:1">Après une averse, le sol est toujours mouillé. Le sol est mouillé donc il a plu.</flowPara></flowRoot> <g id="illustration" inkscape:groupmode="layer" inkscape:label="#illustration" transform="translate(-6.802157,-67.336793)"><g id="589" inkscape:label="#g5156" transform="translate(234.43924,-848.36417)">
<path d="m -61.871842,1202.6224 c -2.17136,-17.6839 -10.270462,-35.3533 -26.100894,-44.6658 -10.379306,-11.0345 -23.826914,-21.3964 -34.845944,-4.9875 -17.9129,-3.0261 -35.94227,-18.5355 -55.99263,-10.7062 -15.0908,-13.9064 8.16604,-25.7489 20.19466,-16.7497 17.83963,-4.8009 31.54119,-25.2912 52.48631,-16.2924 13.02222,7.9789 40.854768,-6.6613 18.161081,-16.9087 -22.709761,-2.5514 -45.857251,1.8027 -68.588941,-1.8369 16.8269,-9.6962 38.64637,-3.1718 57.701568,-5.6545 17.100314,2.7274 41.893697,-8.4918 28.934536,-28.7758 -17.285765,-11.9901 -2.370478,-37.5665 15.290304,-24.2595 2.883211,13.7693 -0.955218,33.6727 19.700854,35.7032 12.110355,8.7969 25.5990233,22.15 42.0023505,15.9317 18.9620265,-2.1947 4.5170745,-43.2136 24.6367275,-29.9592 9.248386,14.2029 -11.955839,27.1841 -23.8173974,32.3089 -13.2237935,7.51 -39.1643876,-9.2678 -42.6604956,11.1188 -3.807577,25.9159 46.993526,1.7447 32.3683635,29.6657 -12.2954195,10.7896 -14.2583385,23.9607 -10.2818975,38.8707 -13.521901,2.2416 -34.999138,-2.4545 -39.797752,17.3683 -1.334284,7.4427 -5.637211,13.4667 -9.390803,19.8289 z" id="path6073" inkscape:connector-curvature="0" style="fill:#ffffff;fill-opacity:1;fill-rule:evenodd;stroke:none;stroke-width:1px;stroke-linecap:butt;stroke-linejoin:miter;stroke-opacity:1"/>
<g id="g5965" style="clip-rule:evenodd;fill:#253f01;fill-opacity:1;fill-rule:evenodd" transform="matrix(1.7463247,0,0,1.7463247,-201.16383,1017.9607)">
<path d="m 82.56,13.2 c 0.982,-1.059 1.877,1.919 0.48,1.92 0.345,-0.73 0.245,-1.637 -0.48,-1.92 z" id="path5967" inkscape:connector-curvature="0" style="fill:#253f01;fill-opacity:1"/>
<path d="m 72.24,13.44 c 0.847,0.273 1.975,0.265 2.88,0.48 -0.179,0.542 -1.346,0.094 -1.92,0.24 0.02,0.94 1.3,0.62 1.92,0.96 -0.241,0.479 -1.062,0.378 -0.96,1.2 -1.341,-0.672 -1.924,-1.892 -1.92,-2.88 z" id="path5969" inkscape:connector-curvature="0" style="fill:#253f01;fill-opacity:1"/>
<path d="m 82.08,15.36 c 0.494,0.066 0.226,0.894 0.72,0.96 -0.508,0.853 -1.438,-0.515 -0.72,-0.96 z" id="path5971" inkscape:connector-curvature="0" style="fill:#253f01;fill-opacity:1"/>
<path d="m 131.04,24 c -0.356,-0.204 -0.516,-0.604 -0.48,-1.2 0.52,0.035 0.52,0.605 0.48,1.2 z" id="path5973" inkscape:connector-curvature="0" style="fill:#253f01;fill-opacity:1"/>
<path d="m 49.68,50.64 h 0.48 c 0.112,0.512 -0.343,0.457 -0.72,0.48 0.046,-0.194 0.241,-0.239 0.24,-0.48 z" id="path5975" inkscape:connector-curvature="0" style="fill:#253f01;fill-opacity:1"/>
<path d="m 55.68,53.28 c -0.612,1.628 -2.713,1.768 -4.8,1.92 0.152,-0.888 1.348,-0.732 2.4,-0.72 0.68,-0.969 1.278,-1.079 2.4,-1.2 z" id="path5977" inkscape:connector-curvature="0" style="fill:#253f01;fill-opacity:1"/>
<path d="m 111.6,54.24 c -1.487,1.123 -3.874,-0.033 -6,0.24 0.948,0.892 3.388,0.292 4.801,0.72 -0.509,1.696 -2.458,0.768 -3.601,0.72 -2.781,-0.116 -5.809,-0.266 -8.88,-0.24 -1.507,-0.01 0.002,-0.405 0.72,-0.24 0.691,-0.029 1.571,0.131 1.92,-0.24 -1.137,-0.551 -3.136,-0.09 -3.84,-0.48 3.449,-1.056 8.221,-0.549 11.521,-0.72 1.26,-0.065 2.38,-0.101 3.36,0.24 z" id="path5979" inkscape:connector-curvature="0" style="fill:#253f01;fill-opacity:1"/>
<path d="m 107.76,59.76 c -0.53,0.733 -1.54,-0.277 0,0 z" id="path5981" inkscape:connector-curvature="0" style="fill:#253f01;fill-opacity:1"/>
<path d="m 14.64,60.24 c 0.315,0.084 0.377,0.422 0.72,0.48 -0.098,0.598 -0.93,0.014 -0.72,-0.48 z" id="path5983" inkscape:connector-curvature="0" style="fill:#253f01;fill-opacity:1"/>
<path d="m 13.68,63.6 c 0.761,0.438 0.836,1.563 1.2,2.4 -0.729,-0.471 -1.439,-0.961 -1.2,-2.4 z" id="path5985" inkscape:connector-curvature="0" style="fill:#253f01;fill-opacity:1"/>
<path d="m 12.24,63.84 c 0.104,1.656 1.03,2.489 1.68,3.6 -1.38,-0.476 -2.619,-2.206 -1.68,-3.6 z" id="path5987" inkscape:connector-curvature="0" style="fill:#253f01;fill-opacity:1"/>
<path d="m 43.92,64.56 c 0.036,-0.597 0.813,-0.07 0.96,0 -0.158,0.719 -0.513,-0.229 -0.96,0 z" id="path5989" inkscape:connector-curvature="0" style="fill:#253f01;fill-opacity:1"/>
<path d="m 27.6,67.2 c 0.041,0.521 -0.852,0.108 -1.2,0.24 0.219,-0.806 0.446,-0.119 1.2,-0.24 z" id="path5991" inkscape:connector-curvature="0" style="fill:#253f01;fill-opacity:1"/>
<path d="m 73.92,66.96 c 0.388,-0.067 0.413,0.227 0.72,0.24 -0.402,1.118 -0.899,2.141 -2.16,2.4 0.308,-1.052 1.034,-1.686 1.44,-2.64 z" id="path5993" inkscape:connector-curvature="0" style="fill:#253f01;fill-opacity:1"/>
<path d="m 27.6,67.92 c 0.755,-0.115 0.938,0.342 1.44,0.48 -0.048,0.337 -1.57,0.153 -1.44,-0.48 z" id="path5995" inkscape:connector-curvature="0" style="fill:#253f01;fill-opacity:1"/>
<path d="m 27.6,69.12 c 0.829,-0.657 2.203,0.188 3.12,0.24 -0.694,0.521 -2.028,-0.363 -3.12,-0.24 z" id="path5997" inkscape:connector-curvature="0" style="fill:#253f01;fill-opacity:1"/>
<path d="m 95.04,80.16 c -0.356,0.104 0.095,0.307 0,0.72 -2.211,-0.855 -3.79,-0.859 -6,-1.68 0.113,-1.25 2.11,1.012 2.4,-0.48 1.608,0.871 4.07,0.889 5.279,2.16 -0.437,-0.362 -1.344,-0.255 -1.679,-0.72 z" id="path5999" inkscape:connector-curvature="0" style="fill:#253f01;fill-opacity:1"/>
<path d="m 103.2,78.96 c 1.764,0.316 2.956,1.204 4.56,1.68 -0.584,0.351 -1.646,-0.201 -2.399,-0.479 -0.8,-0.298 -1.88,-0.553 -2.16,-1.201 z" id="path6001" inkscape:connector-curvature="0" style="fill:#253f01;fill-opacity:1"/>
<path d="m 68.88,86.4 c -0.218,0.502 -0.708,0.731 -1.44,0.72 0.139,-0.582 0.906,-0.534 1.44,-0.72 z" id="path6003" inkscape:connector-curvature="0" style="fill:#253f01;fill-opacity:1"/>
<path d="m 68.88,89.04 c 0.318,-1.121 1.455,-1.426 2.4,-1.92 -0.53,0.91 -1.348,1.531 -2.4,1.92 z" id="path6005" inkscape:connector-curvature="0" style="fill:#253f01;fill-opacity:1"/>
<path d="m 89.76,88.08 c -1.175,1.625 -3.554,2.046 -5.279,3.12 -0.541,-1.744 3.239,-1.237 3.6,-2.88 0.831,0.193 0.922,-0.357 1.679,-0.24 z" id="path6007" inkscape:connector-curvature="0" style="fill:#253f01;fill-opacity:1"/>
<path d="m 72.48,88.56 c -0.926,0.675 -1.474,1.727 -2.64,2.16 0.784,-0.816 1.042,-2.158 2.64,-2.16 z" id="path6009" inkscape:connector-curvature="0" style="fill:#253f01;fill-opacity:1"/>
<path d="m 84.24,89.76 c -0.058,0.423 -0.413,0.547 -0.96,0.48 0.158,-0.322 0.513,-0.447 0.96,-0.48 z" id="path6011" inkscape:connector-curvature="0" style="fill:#253f01;fill-opacity:1"/>
<path d="m 86.64,18.24 c 0.305,1.375 0.956,2.404 1.44,3.6 3.189,0.895 6.582,3.087 10.32,3.84 1.354,0.273 2.641,0.127 3.84,0.72 1.079,0.534 1.686,1.829 2.88,1.92 -0.106,0.349 -0.211,-0.024 -0.48,0 0.942,1.059 3.076,0.924 3.601,2.4 3.969,0.519 5.723,4.506 10.319,3.6 1.79,-2.851 4.263,-5.018 5.521,-8.4 0.504,-0.275 0.936,0.146 1.439,-0.48 -0.014,-3.374 0.602,-6.118 2.16,-7.92 0.783,-0.062 1.155,0.285 1.2,0.96 1.121,-1.383 4.316,-0.481 4.561,1.2 3.776,0.03 0.979,5.517 -0.24,7.44 0.093,0.867 0.318,1.602 0.72,2.16 -0.685,2.748 -2.234,4.293 -3.84,6.72 -0.903,1.366 -1.702,3.02 -2.64,3.84 -0.856,0.749 -2.166,1.115 -3.36,1.92 -1.957,1.32 -3.445,3.025 -5.28,3.36 -2.298,0.419 -4.77,-0.777 -6.96,0.48 -3.415,-1.305 -6.731,-2.708 -9.6,-4.56 0.1,3.755 -0.414,7.132 -0.721,11.04 5.284,0.541 11.089,-0.994 15.841,-0.48 0.694,2.458 -0.412,3.749 -0.96,6 -0.49,0.482 -0.471,-0.106 -0.96,-0.24 -0.355,1.983 2.039,1.463 3.119,1.68 4.157,0.836 8.399,2.216 13.921,1.68 1.415,-0.138 3.893,-0.515 5.279,-0.96 1.748,-0.561 3.202,-1.702 4.8,-2.4 1.715,-0.748 3.318,-1.442 4.801,-2.16 0.585,0.615 0.5,1.899 0.479,3.12 1.085,-1.142 -0.061,-2.776 -0.24,-4.08 1.54,-0.14 2.218,-1.143 3.841,-1.2 0.458,0.341 0.858,0.741 1.199,1.2 -0.541,6.099 -5.856,7.423 -8.159,11.76 2.337,-0.064 3.979,-2.899 7.439,-2.64 1.788,5.144 -3.934,6.507 -7.439,9.84 -1.571,1.493 -3.523,5.202 -5.521,5.28 -2.133,0.083 -2.953,-2.389 -3.6,-3.6 -5.374,-2.218 -11.381,0.874 -18.24,-0.24 -2.66,-0.432 -4.293,-1.915 -6.48,-3.12 1.119,2.688 -0.866,5.646 -2.399,7.2 1.209,0.169 1.194,-0.885 2.16,-0.96 -0.049,1.832 -1.338,1.517 -1.2,3.84 0.795,-0.004 0.243,-1.356 0.72,-1.68 1.223,0.339 0.396,1.694 0.24,2.64 -1.185,0.336 -2.65,0.391 -3.84,0.721 0.765,8.172 -1.059,15.707 -2.641,22.319 -0.903,0.477 -1.552,-0.233 -2.64,-0.239 -0.971,0.745 -0.326,1.79 -0.48,2.88 -0.155,1.107 -0.823,2.298 -0.96,3.359 -0.206,1.61 0.448,3.222 -0.239,4.561 -0.257,0.896 0.596,0.684 0.479,1.439 0.158,0.878 -0.52,0.921 -0.479,1.681 4.304,8.562 -2.056,16.833 -2.641,24.96 0.377,0.515 1.021,-0.724 1.92,-0.48 0.443,0.874 0.3,2.939 0,3.84 -0.744,0.315 -0.685,-0.064 -1.68,0 1.273,2.713 2.639,6.894 -0.24,8.881 -2.247,0.422 -2.513,-2.93 -3.359,-4.561 -1.108,-2.133 -2.425,-2.879 -0.96,-5.28 h 1.68 c 0.44,-0.339 -0.376,-1.165 0.24,-1.68 -0.613,0.027 -0.477,0.804 -0.48,1.44 -1.286,-0.505 -1.655,0.713 -2.88,0 -0.397,-0.761 0.303,-2.168 0.48,-3.12 0.949,-0.174 1.47,0.729 2.399,1.2 0.211,-0.771 -0.791,-0.329 -0.72,-0.961 -0.017,-8.676 -3.053,-15.4 -1.44,-23.76 -1.894,-2.172 -0.719,-5.973 -2.399,-8.88 -1.669,1.983 0.673,5.196 -0.96,6.96 2.287,3.489 1.843,8.866 0.479,13.44 -0.547,1.835 -1.52,3.562 -1.92,5.279 -0.435,1.863 -0.938,4.584 -0.72,5.761 0.211,1.145 1.526,1.746 1.92,2.88 -0.164,1.437 -1.305,1.896 -0.96,3.84 -1.339,-0.139 -2.123,0.277 -3.12,0.479 -0.213,-0.427 -0.67,-0.609 -0.48,-1.439 -1.064,0.694 -1.808,1.712 -2.399,2.88 -2.612,0.302 -4.25,1.079 -7.2,0.48 -0.361,-3.401 4.158,-1.923 4.8,-4.32 -0.005,-0.425 -1.132,0.382 -1.44,-0.24 -0.144,-1.184 0.624,-1.456 0.48,-2.64 1.213,-0.253 1.373,0.547 2.4,0.479 0.037,0.598 -0.377,0.743 -0.48,1.2 4.13,-3.667 1.498,-10.455 0.96,-17.04 -0.26,-3.182 0.195,-6.253 0,-9.36 -1.37,-1.19 -0.859,-4.261 -2.4,-5.279 -1.16,-6.921 -3.401,-12.76 -4.32,-19.92 -0.958,-1.842 -4.388,-1.213 -5.28,-3.12 0.462,-0.523 1.283,0.623 1.68,0.96 2.012,0.068 3.303,0.857 4.32,1.92 0.967,-0.233 1.351,-1.049 1.92,-1.68 1.241,1.159 3.161,1.639 3.84,3.359 0.423,-0.217 0.743,-0.536 0.96,-0.96 -0.235,1.375 -0.004,3.792 -2.4,5.04 -0.175,-0.654 0.477,-0.483 0.48,-0.96 -1.791,0.728 0.352,2.742 0.48,3.84 1.05,-0.266 1.175,-1.771 1.44,-2.64 0.703,-2.31 1.114,-6.017 2.88,-7.92 0.83,-0.896 1.976,-0.904 2.88,-1.92 3.103,-0.098 4.999,-1.401 5.76,-3.84 -1.171,0.188 -1.479,1.241 -2.64,1.439 -0.67,-1.775 1.567,-2.327 2.16,-3.6 -0.359,-0.36 -0.43,-1.011 -0.96,-1.2 -0.824,0.875 -1.026,2.262 -2.16,2.88 -0.998,0.544 -2.348,0.062 -3.36,0.72 0.32,0.74 1.067,-0.447 1.44,0.24 -0.547,1.934 -3.25,1.711 -5.28,2.16 0.169,0.95 1.329,0.91 0.96,2.4 0.158,0.719 0.513,-0.229 0.96,0 -0.209,0.682 -1.818,1.208 -0.96,2.159 -0.76,-0.237 -0.893,0.189 -1.92,0.721 1.482,-1.568 1.659,-4.242 -0.72,-5.04 0.071,-0.489 0.649,-0.471 0.72,-0.96 -0.457,0.103 -0.603,0.517 -1.2,0.479 1.026,-2.094 4.673,-1.566 6.48,-2.88 -1.312,-1.648 -4.021,-1.898 -6.24,-2.64 -0.127,0.615 1.663,1.371 2.64,1.68 -1.412,0.606 -2.734,-0.941 -3.84,-1.44 -1.303,0.938 -4.212,0.269 -4.8,1.921 1.237,1.162 3.214,1.585 5.04,2.159 1.121,2.109 -0.591,3.539 -1.68,4.801 -0.275,-1.006 -1.577,-0.983 -2.4,-1.44 -0.843,-1.157 -1.459,-2.541 -2.64,-3.36 -1.285,0.635 -1.935,1.905 -3.36,2.4 0.99,-0.851 1.357,-2.323 3.12,-2.4 -0.972,-1.605 -2.766,0.052 -3.84,0.48 0.343,-1.178 1.722,-1.317 2.64,-1.92 2.359,0.521 3.732,2.027 4.56,4.08 1.062,-0.458 1.272,-1.768 2.4,-2.16 -0.112,0.848 -0.606,1.313 -0.96,1.92 0.736,-0.464 1.086,-1.313 1.68,-1.92 -2.937,-0.743 -5.844,-1.517 -7.44,-3.601 -1.068,-0.188 -1.44,0.32 -2.4,0.24 -0.112,0.753 0.604,0.677 0.96,0.96 -0.862,0.454 -1.963,-0.91 -2.88,-1.2 -0.617,0.023 -0.343,0.938 -0.96,0.961 0.675,1.357 2.398,2.836 2.16,4.319 -2.672,-4.132 -8.815,-6.06 -9.36,-11.52 -1.492,-0.939 -2.96,-0.415 -4.8,-0.96 -0.734,-1.505 -1.471,-3.009 -2.16,-4.56 -1.138,0.302 -1.474,1.406 -2.4,1.92 0.736,1.41 0.539,3.617 -0.48,4.56 -4.503,-2.241 -10.911,-0.358 -16.32,-2.16 -1.376,4.091 -6.999,8.681 -11.52,5.52 -1.814,-1.268 -2.381,-3.724 -3.36,-6.24 -2.644,-0.303 -5.137,-0.495 -6.96,0.72 -1.551,-0.529 -2.354,-1.806 -3.6,-2.64 0.395,-3.374 -2.825,-3.691 -3.36,-6.72 -0.119,-0.675 -0.711,-1.29 -0.72,-1.68 -0.029,-1.337 0.778,-1.68 1.2,-2.88 0.468,-1.332 0.172,-2.927 1.2,-4.08 2.344,-0.735 3.379,-0.88 5.76,-0.24 -0.256,0.897 0.596,0.684 0.48,1.44 1.779,-0.301 3.09,-1.071 4.32,-1.92 0.483,-6.957 1.982,-12.898 6.24,-16.08 -0.135,-1.096 0.425,-1.495 0.24,-2.64 1.691,-0.793 3.599,-3.395 5.76,-3.84 2.258,-0.465 4.86,0.591 7.68,0.48 0.425,-1.015 1.762,-1.118 2.4,-1.92 4.286,1.074 9.829,0.891 14.88,1.2 0.754,-0.113 0.634,0.646 1.2,0.72 2.403,-0.492 4.413,-1.108 6.48,-2.4 0.147,0.333 0.924,0.036 0.96,0.48 1.529,-0.311 1.6,-2.08 3.84,-1.68 3.265,-2.975 7.984,-4.497 12.72,-6 -0.12,-1.4 -2.606,-0.434 -3.84,-0.72 -0.338,-2.062 -1.7,-3.1 -2.16,-5.04 -0.161,-0.719 -1.396,-0.363 -1.68,-0.96 -0.183,-1.303 0.38,-1.86 0.24,-3.12 -1.037,-0.786 -0.042,-2.468 -1.44,-3.12 0.848,-2.747 -2.076,-6.57 1.44,-7.2 0.298,-2.022 2.396,-2.245 3.36,-3.6 0.761,0.151 1.417,-0.463 2.4,-0.48 0.726,-0.012 1.402,0.526 2.16,0.48 0.827,-0.05 1.652,-0.744 2.4,-0.72 1.269,0.041 2.177,0.818 3.121,1.44 0.379,0.677 -0.276,1.019 0.239,1.68 1.716,0.844 2.938,2.183 3.12,4.56 0.359,0.804 1.201,0.214 1.2,0.96 -0.66,0.845 -0.125,6.036 -2.401,7.442 z m 46.32,3.84 c 0.588,-1.152 1.319,0.357 1.92,-0.24 -0.378,-0.785 -0.924,-0.49 -0.479,-1.68 -0.308,-0.013 -0.333,-0.308 -0.721,-0.24 -0.2,0.615 -1.49,1.376 -0.72,2.16 z m -2.64,2.4 c -0.222,-1.316 0.008,0.619 -0.721,0.24 -0.585,-1.78 -2.242,-3.208 -0.96,-5.52 -0.244,-0.315 -0.235,-0.885 -0.479,-1.2 -0.927,0.033 -0.983,0.937 -0.96,1.92 -2.068,1.403 -1.227,6.116 0.24,7.44 -0.352,0.004 -0.761,-1.012 -0.721,0 1.004,0.916 1.759,2.082 3.601,2.16 2.122,-1.638 3.873,-3.647 4.319,-6.96 -1.563,-0.333 -1.875,-0.488 -3.359,-0.96 -0.262,1.074 0.885,1.979 0.479,2.4 -0.913,-0.286 -0.126,-2.274 -1.68,-1.92 -0.32,1.058 1.05,1.653 0.24,2.4 z M 77.76,3.84 h 0.48 C 78.613,3.25 77.425,3.134 77.52,3.6 c 0.147,0.014 0.284,0.036 0.24,0.24 z m 2.88,0.72 c -0.566,-0.074 -0.447,-0.833 -1.2,-0.72 -0.117,0.619 0.849,1.361 1.2,0.72 z m 3.12,0.24 c -0.441,-0.061 -0.842,-1.367 -1.2,-0.72 0.502,0.001 0.902,1.307 1.2,0.72 z m -1.68,0.24 c -0.345,-0.375 -0.604,-0.835 -1.2,-0.96 -10e-4,0.58 0.84,1.534 1.2,0.96 z M 72,6.96 C 73.684,6.724 74.799,5.919 75.84,5.04 75.045,4.806 76.108,4.565 76.08,4.32 75.269,4.598 75.056,4.151 74.64,4.56 75.08,5.726 72.555,5.991 72,6.96 Z m 8.4,0 C 80.435,5.719 79.119,4.57 78.48,4.8 c 0.947,0.413 0.973,1.747 1.92,2.16 z m 1.2,-0.24 c 0.595,0.035 1.165,0.044 1.2,-0.48 -0.899,0.243 -1.543,-0.996 -1.92,-0.48 0.493,0.067 0.479,0.641 0.72,0.96 z M 76.08,6.24 C 75.876,6.036 75.395,6.414 75.36,6.48 75.133,6.901 76.246,6.406 76.08,6.24 Z M 82.8,7.2 C 83.378,7.298 83.321,6.762 84,6.96 V 6.24 C 83.296,6.256 83.108,6.789 82.8,7.2 Z m -3.36,0 C 79.651,6.705 78.649,6.291 78.72,6.72 79.098,6.742 78.908,7.332 79.44,7.2 Z M 73.2,7.68 c 0.674,0.246 1.668,-0.374 0.96,-0.72 -0.065,0.495 -1.063,0.057 -0.96,0.72 z m 1.2,0.48 C 75.39,7.664 75.942,8.222 76.56,7.44 75.797,6.443 74.78,7.408 74.4,8.16 Z M 85.2,7.92 C 85.921,7.501 84.856,6.436 84.48,7.2 84.934,7.227 84.646,7.994 85.2,7.92 Z M 81.36,8.16 C 81.787,8.027 82.357,8.036 82.56,7.68 82.103,7.577 82.126,6.994 81.36,7.2 Z M 77.76,8.4 C 77.609,8.267 77.035,7.425 76.8,8.16 77.12,8.124 77.524,9.136 77.76,8.4 Z m 0.48,0 C 79.549,8.699 80.214,9.029 80.88,7.92 79.832,7.912 78.711,7.832 78.24,8.4 Z M 70.32,8.64 C 71.295,8.451 71.992,8.897 72,8.16 71.455,8.335 70.127,7.728 70.32,8.64 Z m 9.84,3.12 C 79.562,11.962 78.874,12.074 78,12 77.624,11.176 76.7,10.899 76.08,10.32 76.556,9.724 75.36,9.263 75.12,8.64 73.232,8.752 71.67,9.19 70.08,9.6 c 0,1.636 0.412,2.606 0,4.08 2.896,0.181 1.012,4.616 1.44,6.24 0.848,0.778 0.844,-0.752 1.92,-0.48 -0.202,0.598 -0.314,1.286 -0.24,2.16 0.449,0.351 1.59,0.009 1.92,0.48 -0.279,0.201 -0.644,0.316 -1.2,0.24 0.322,1.039 0.992,1.729 0.96,3.12 2.397,0.671 5.038,-1.396 7.2,-0.96 1.586,-1.534 3.365,-2.875 4.56,-4.8 -1.054,-0.867 -1.509,-2.332 -2.88,-2.88 -0.303,0.817 -1.013,1.228 -2.16,1.2 -0.352,-0.208 -0.761,-0.359 -0.72,-0.96 0.745,-0.025 0.685,0.755 1.68,0.48 1.648,-0.873 2.393,-4.388 0.24,-5.28 -1.07,0.129 -0.951,1.449 -1.68,1.92 -0.695,-0.75 -3.125,-1.029 -2.88,-1.92 0.418,0.556 1.763,0.019 1.92,-0.48 z m 0.72,-2.4 c 0.427,-0.132 0.997,-0.123 1.2,-0.48 -0.595,-0.035 -1.165,-0.045 -1.2,0.48 z m 4.08,0 C 84.653,9.347 84.628,9.052 84.24,9.12 c -0.373,0.59 0.815,0.706 0.72,0.24 z m -5.28,0.72 C 79.493,10.027 79.401,9.879 79.44,9.6 79.627,9.546 79.914,9.593 79.92,9.36 78.981,9.123 78.526,9.89 78,9.36 c 0.029,0.627 1.187,1.352 1.68,0.72 z M 77.52,9.6 c -1.537,-0.277 -0.527,0.733 0,0 z m 5.04,1.2 c 0.719,-0.001 1.009,-0.431 1.2,-0.96 -0.586,0.134 -0.877,0.563 -1.2,0.96 z m 3.84,0.24 c 0.412,0.013 0.615,-0.185 0.72,-0.48 -0.377,0.023 -0.832,-0.032 -0.72,0.48 z m 43.92,10.32 h 0.479 c 0.014,-0.307 0.308,-0.332 0.24,-0.72 h -0.72 v 0.72 z M 131.04,18 h -1.2 c -0.325,0.819 -0.754,1.905 -0.24,2.88 1.1,-0.251 2.14,-1.613 1.44,-2.88 z m 0.72,3.36 c 0.362,-0.758 1.298,-0.942 1.2,-2.16 -0.307,-0.013 -0.332,-0.308 -0.72,-0.24 -0.2,0.615 -1.22,1.645 -0.48,2.4 z M 81.84,25.2 c 0.528,0.592 0.533,1.707 0.96,2.4 2.452,-1.121 6.758,-4.398 3.84,-7.2 -1.184,2.016 -2.804,3.597 -4.8,4.8 z m 11.04,-0.96 c -0.894,0.254 -0.774,-0.505 -1.2,-0.72 -0.626,0.467 1.118,1.673 1.2,0.72 z m -7.44,4.08 c -0.415,0.146 0.018,1.139 -0.48,1.2 -2.08,0.59 -3.237,0.963 -5.76,0.72 -0.026,-0.597 -0.45,-0.743 0,-1.2 -1.501,1.29 -2.418,3.911 -3.36,6.24 -1.067,2.638 -2.52,6.147 -2.4,7.92 0.211,3.128 2.145,5.4 3.12,8.4 -1.973,-1.307 -2.125,-4.436 -3.36,-6.48 0.186,2.425 -0.362,4.119 -0.24,6.48 3.627,0.414 6.355,0.225 9.12,0 1.225,-0.1 2.708,0.326 3.6,0 0.976,-0.356 1.941,-1.871 2.641,-2.88 1.338,-1.934 2.118,-3.341 1.92,-6 -0.382,-5.121 -1.664,-11.689 -1.681,-17.04 -1.178,-0.162 -1.831,2.128 -3.12,2.64 z m 2.64,-4.56 c -0.985,1.143 -3.919,2.463 -2.64,4.32 0.972,-1.348 2.673,-1.967 2.64,-4.32 z m -9.36,1.92 c 0.502,1.475 1.284,2.921 3.36,2.16 0.057,-2.429 -1.413,-3.495 -3.36,-2.16 z m 47.76,3.84 c 1.199,1.224 3.933,2.697 5.279,1.2 -2.951,-0.649 -4.99,-2.21 -6.72,-4.08 0.23,0.878 0.64,2.062 1.44,2.88 z m -42.96,0 c 0.534,-0.187 1.302,-0.139 1.44,-0.72 -0.072,-1.977 -1.985,-1.591 -1.44,0.72 z m -1.92,0.24 c 1.953,0.651 2.151,-1.826 0.48,-1.68 -0.517,0.204 -0.557,0.883 -0.48,1.68 z m -2.16,0 c 0.833,-0.192 0.922,0.358 1.68,0.24 v -1.68 h -1.68 z m 51.6,0 h 1.44 c 0.31,-1.438 -1.61,-1.05 -1.44,0 z M 96,31.68 c 0.229,-0.371 -2.002,-2.717 -1.68,-2.4 0.224,1.136 1.172,1.547 1.68,2.4 z m -26.16,0 c 1.112,3.221 -1.507,5.772 -0.48,8.88 0.073,-3.22 1.65,-5.625 0.96,-8.88 0.756,0.177 1.598,-0.777 1.2,-0.96 -0.3,0.58 -0.984,0.776 -1.68,0.96 z m 24.96,2.88 c 0.492,-0.548 1.639,-0.442 1.681,-1.44 -0.709,0.183 -2.026,1.001 -1.681,1.44 z m 0.96,1.68 c 0.23,-0.87 -1.036,-0.244 -1.2,-0.72 -0.088,0.728 0.782,0.498 1.2,0.72 z m -58.32,6 c 1.043,-0.927 1.771,-5.74 0,-6.48 h -0.48 c 0.581,2.272 -1.19,5.451 0.48,6.48 z m -9.36,-5.76 c -1.514,1.847 -4.238,3.761 -3.6,6.96 0.596,-2.204 1.914,-3.687 4.08,-4.32 0.355,0.444 1.24,0.359 1.2,1.2 -0.334,0.706 -1.172,0.908 -1.2,1.92 2.032,1.069 3.864,-1.779 6,-2.16 0.415,-0.146 -0.019,-1.139 0.48,-1.2 0.373,0.396 0.935,-0.082 1.44,-0.24 V 37.2 c -2.209,-0.831 -5.348,-0.733 -8.4,-0.72 z m 67.2,3.84 c -0.084,0.586 -0.35,1.826 0.239,1.92 -0.229,-2.629 1.211,-3.59 1.44,-5.76 -0.895,0.307 -1.475,2.401 -1.679,3.84 z m -72,-0.72 c -0.739,2.291 0.542,1.443 0,0 z m 0.96,0.72 c 0.034,-0.283 0.427,-0.544 0,-0.72 -0.034,0.284 -0.428,0.544 0,0.72 z m 1.92,0.96 c 0.763,0.037 1.056,0.544 1.92,0.48 -0.046,-1.006 1.178,-0.742 0.96,-1.92 -1.535,-0.094 -2.102,0.777 -2.88,1.44 z M 30,43.2 c 2.087,2.633 3.414,6.026 3.84,10.32 1.858,0.342 2.375,-2.287 4.08,-2.88 2.882,-1.003 5.355,1.094 8.16,0.48 1.523,-0.333 2.496,-1.408 3.6,-1.68 2.296,-0.566 4.012,0.141 5.52,0.48 0.329,0.631 1.01,0.91 1.2,1.68 1.445,-0.595 2.174,0.397 3.12,0.96 1.83,-0.665 3.485,0.154 5.04,0.48 1.244,-0.196 1.665,-1.215 3.36,-0.96 0.01,-2.688 -0.34,-4.447 0,-6.96 C 63.693,45.401 59.437,44.962 56.4,46.8 50.376,45.135 44.167,44.548 37.44,44.64 36.987,43.333 36.206,42.354 36,40.8 c -3.012,-0.212 -3.99,1.61 -6,2.4 z m -5.76,1.2 c -0.62,-0.021 -0.253,-1.027 -1.2,-0.72 -2.357,3.569 -3.593,8.972 -3.84,13.92 0.89,0.17 1.03,-0.41 1.92,-0.24 0.771,0.83 2.025,1.175 2.4,2.4 3.229,0.746 4.395,-1.356 5.76,-3.12 0.787,-0.333 1.616,-0.624 1.92,-1.44 -0.535,-3.706 -1.698,-6.783 -2.88,-9.84 -1.8,-0.091 -1.785,-1.047 -1.92,-2.4 -0.454,0.054 -0.529,-0.271 -0.96,-0.24 -0.366,0.594 -0.493,1.427 -1.2,1.68 z m 2.64,37.92 c 4.716,-2.485 6.894,-8.786 6.72,-15.36 -0.026,1.334 -0.172,2.548 -0.72,3.36 0.774,-3.041 0.257,-6.592 0.72,-9.84 0.097,-0.68 0.467,-1.244 0.48,-1.92 0.068,-3.607 -2.006,-11.031 -3.36,-13.2 -0.471,-0.754 -1.517,-1.687 -2.4,-1.68 6.207,9.71 6.536,30.71 -1.44,38.64 z m 67.44,-31.2 c 0.152,-1.261 0.927,-4.711 0.239,-5.28 0.233,1.916 -0.71,3.923 -0.239,5.28 z m -7.92,0.72 c 1.254,-0.705 1.689,0.653 2.88,0.72 0.668,-1.327 1.56,-4.737 0.72,-6 -0.82,2.14 -2.516,3.404 -3.6,5.28 z M 19.2,48.96 c -0.256,0.029 -0.624,0.061 -0.72,0.24 -1.185,2.201 -0.887,5.754 -1.44,8.64 2.083,0.544 1.312,-2.049 1.44,-3.12 0.273,-2.287 1.194,-5.006 0.96,-6.48 -0.058,0.45 -0.395,-0.136 -0.48,0.24 0.187,0.053 0.279,0.201 0.24,0.48 z m 36,1.92 c -0.282,-0.174 -0.882,0.111 -1.2,0 -0.617,-0.216 -0.801,-0.887 -1.68,-0.96 -2.417,-0.2 -4.62,1.905 -6.96,2.16 -3.154,0.343 -7.86,-2.521 -8.4,0.96 1.495,0.044 4.321,0.162 5.52,0.72 -2.932,0.054 -9.592,-1.48 -7.68,2.88 5.115,-0.557 8.39,0.7 10.08,4.08 4.314,-1.26 6.751,-4.66 12,-4.32 0.523,-1.156 0.961,-2.399 1.2,-3.84 -1.249,-0.359 -1.952,1.074 -2.88,0.24 0.689,0.05 1.219,-0.061 1.44,-0.48 -0.656,-0.137 -0.86,-1.081 -1.44,-1.44 z m 45.36,15.6 c -1.781,-1.658 -4.747,-2.132 -6.479,-3.84 2.771,0.453 5.07,2.064 7.68,2.64 0.72,0.159 1.483,-0.154 2.16,0 1.746,0.397 3.181,1.613 4.8,2.16 1.199,-0.296 3.277,0.113 4.561,0.48 -0.115,-1.715 0.958,-2.242 0.96,-3.84 -1.883,0.042 -3.364,-0.316 -4.08,-1.44 -2.47,0.122 -4.826,-0.057 -7.2,-0.24 -2.747,-0.211 -5.608,-0.136 -7.2,-1.68 1.285,0.715 3.441,0.559 5.04,0.96 -0.478,-1.123 -2.659,-0.542 -3.359,-1.44 0.282,-0.038 0.681,0.041 0.72,-0.24 -0.523,-0.276 -1.553,-0.048 -1.68,-0.72 1.264,0.035 3.853,1.426 4.319,0 -1.707,0.028 -2.958,-0.402 -4.319,-0.72 5.799,-1.733 10.744,0.684 17.279,0.24 0.467,0.314 -0.48,1.271 0.48,1.44 1.389,-0.568 0.172,-2.252 0.479,-3.84 -1.499,-0.094 -2.327,0.461 -3.359,-0.24 0.146,-0.333 0.924,-0.036 0.96,-0.48 -0.546,-0.175 -1.873,0.432 -1.681,-0.48 1.922,0.276 4.232,1.012 5.761,-0.24 -0.186,-1.146 0.375,-1.544 0.239,-2.64 -3.95,-0.513 -8.82,0.137 -12.239,0.48 -3.623,0.364 -7.602,-0.489 -10.801,0.96 0.378,0.023 0.832,-0.032 0.721,0.48 -0.873,-0.16 -3.628,-0.753 -4.08,0.24 1.202,1.091 3.005,0.13 4.319,0.96 -1.522,0.102 -3.767,-0.149 -4.56,0 0.889,1.253 3.879,-0.366 5.04,0.96 -1.522,0.157 -3.677,-0.316 -4.8,0.24 1.321,0.119 2.678,0.202 3.6,0.72 -1.566,0.369 -3.464,-0.954 -4.32,0.24 1.592,0.009 3.099,0.102 4.32,0.48 -1.316,0.284 -3.79,-0.59 -4.32,0.48 1.433,-0.057 5.688,-0.064 3.36,0.72 1.054,-0.014 1.983,0.097 2.64,0.48 -1.293,0.066 -2.967,-0.247 -3.6,0.48 0.497,0.143 1.577,-0.297 1.68,0.24 -0.573,0.146 -1.741,-0.301 -1.92,0.24 0.933,0.508 2.73,0.149 3.36,0.96 -1.754,-0.192 -2.656,-0.393 -4.08,-0.48 v 1.2 c 1.199,0.23 2.448,-0.739 3.36,0 -1.715,0.045 -2.995,0.525 -4.801,0.48 -0.063,1.033 1.818,1.37 2.16,1.2 -0.261,-0.058 -0.576,-0.396 -0.239,-0.48 2.542,0.991 4.883,1.425 7.439,2.88 0.041,-0.921 -1.241,-0.519 -1.2,-1.44 1.302,-0.015 1.728,2.106 2.882,1.44 z m 1.68,0.72 c -0.036,-0.006 -10e-4,0.532 -0.24,0.48 -0.334,-0.073 -0.554,-0.423 -0.96,-0.48 -2.892,-0.409 -9.255,0.164 -8.64,-1.2 -1.656,0.396 -3.271,-0.939 -4.801,-1.92 0.044,0.523 -0.196,0.764 -0.72,0.72 0.495,-1.265 0.563,-2.957 0.48,-4.8 1.249,-1.472 2.189,-4.528 1.92,-6.72 -1.506,-0.267 -3.867,-1.445 -6,-0.24 -1.954,-1.776 -3.101,0.88 -4.08,2.16 0.96,0.879 2.12,1.56 2.88,2.64 0.438,-1.166 1.583,-2.892 2.4,-2.88 -1.421,0.979 -1.643,3.158 -2.4,4.8 -0.36,-0.28 -0.587,-0.693 -1.2,-0.72 0.21,0.771 -0.622,0.498 -0.72,0.96 0.282,0.038 0.681,-0.041 0.72,0.24 -0.457,1.466 -2.002,3.114 -1.92,4.32 0.855,-0.669 1.656,-2.658 2.4,-2.64 -0.67,1.412 -2.538,2.898 -2.64,4.08 1.554,-1.248 2.772,-4.106 4.08,-4.8 -0.412,0.548 -0.707,1.212 -1.2,1.68 0.443,0.505 0.725,-1.181 1.44,-1.2 0.477,-3.043 1.824,-5.216 4.08,-6.48 -2.613,2.416 -2.69,7.999 -5.28,10.08 -0.307,0.948 0.699,0.581 0.72,1.2 -0.734,0.306 -0.705,1.375 -1.439,1.68 0.008,-0.571 1.229,-1.145 0.48,-1.68 -0.211,0.917 -1.571,1.939 -1.2,2.64 0.256,-0.224 0.075,-0.885 0.72,-0.72 -0.191,0.787 -1.833,1.527 -0.72,2.16 -2.371,0.982 -3.678,3.364 -6.24,4.32 -1.294,0.483 -2.822,0.162 -4.08,1.2 0.466,0.189 1.667,0.871 1.2,1.2 -1.061,-1.19 -3.74,-1.241 -4.56,0.24 6.37,2.643 8.55,-3.292 13.92,-3.84 2.34,-2.62 2.748,-7.172 6.48,-8.4 0.83,0.695 2.696,1.618 2.64,2.4 -1.147,-0.424 -2.111,-2.139 -3.12,-1.92 -0.125,1.65 2.631,1.684 2.4,2.64 -1.34,-0.26 -1.789,-1.411 -3.12,-1.68 -0.55,1.121 1.578,1.396 2.16,2.16 0.053,0.551 -0.017,0.772 0,1.2 -0.854,-0.667 -2.403,-0.637 -2.64,-1.92 0.661,0.229 1.595,1.431 2.159,0.96 -0.976,-0.304 -1.391,-1.169 -2.399,-1.44 -0.345,1.095 -1.188,1.691 -1.44,2.88 0.889,1.194 3.578,1.859 3.84,2.88 -1.673,-0.647 -2.859,-1.78 -4.319,-2.64 0.522,2.278 3.223,2.377 4.56,3.84 -2.244,-0.259 -3.664,-2.544 -5.28,-2.64 -0.961,1.89 2.403,2.68 2.4,3.6 -1.229,-0.452 -1.847,-1.514 -2.88,-2.16 1.394,2.567 2.965,4.354 5.28,6 2.119,1.506 3.222,2.667 6.239,2.64 1.889,-0.017 3.757,0.55 5.761,0.72 3.034,0.258 6.07,-0.428 9.359,-0.479 -0.267,-0.729 0.153,-1.823 0,-3.12 -2.678,-0.789 -4.916,-0.702 -8.16,-0.24 1.609,0.551 3.477,0.844 4.561,1.92 -1.911,-0.089 -3.781,-0.219 -5.521,-0.479 -0.738,-0.179 -0.461,0.658 -1.199,0.479 -1.7,-1.02 -4.415,-1.025 -5.521,-2.64 1.919,0.483 3.973,2.104 6,1.68 -1.446,-0.714 -3.696,-0.624 -4.56,-1.92 0.341,0.228 1.278,0.254 1.68,0.24 -0.132,0.004 -0.547,-0.229 -0.48,-0.24 2.6,-0.438 5.459,0.209 8.4,-0.24 -1.938,-2.301 -7.098,-1.382 -10.56,-2.16 -0.416,-0.851 -1.21,-0.955 -2.16,-0.72 -1.434,-1.208 -4.228,-2.33 -4.561,-3.84 1.978,0.752 3.687,1.997 5.761,1.44 0.175,0.545 0.722,0.718 1.199,0.96 0.054,-0.186 0.007,-0.473 0.24,-0.48 0.375,0.832 1.978,1.693 2.641,1.44 -0.266,-0.163 -1.245,-0.797 -0.721,-0.96 2.606,1.081 5.523,2.28 8.16,2.64 0.408,-0.792 1.172,-1.228 2.4,-1.2 -0.669,1.218 1.117,1.226 1.439,2.16 -0.427,0.144 -0.996,-0.704 -1.2,0 0.622,0.417 1.108,0.978 1.681,0.24 0.379,-1.324 -2.012,-1.667 -0.48,-2.64 0.411,0.389 0.874,0.727 1.681,0.72 1.448,-1.644 0.338,-4.192 0.72,-6.24 -0.842,-0.286 -1.639,-1.872 -2.4,-1.44 0.352,0.305 1.575,0.963 0.96,1.44 -0.563,-1.604 -2.216,-1.667 -3.359,-2.16 -0.317,0.601 0.948,0.751 0.239,0.96 -0.809,-0.201 -1.335,-0.009 -2.159,-0.96 -0.317,0.601 0.948,0.751 0.239,0.96 -0.13,-0.2 -0.73,-0.608 -1.44,-0.721 z m -20.4,-3.12 c -0.34,0.787 -1.55,1.959 -1.2,2.64 0.584,-0.543 1.674,-1.835 1.2,-2.64 z m 1.92,13.2 c 0.095,0.954 1.659,1.69 2.16,1.44 -0.782,-0.418 -1.201,-1.199 -2.16,-1.44 z m 13.2,-2.64 c 0.43,0.805 1.338,1.176 2.16,0.48 -0.57,-0.163 -1.615,-1.086 -2.16,-0.48 z M 93.6,66.48 c -0.227,-1.139 -1.907,-2.085 -2.88,-1.68 1.195,0.325 1.831,1.21 2.88,1.68 z M 71.52,53.52 c -1.077,0.03 -2.119,0.051 -1.68,0.96 0.905,-0.238 2.292,-0.688 3.6,-0.96 0.96,-0.2 2.679,0.564 2.64,-0.96 -2.018,-0.179 -3.353,0.327 -4.56,0.96 z m 5.52,0.72 c 0.016,-0.389 1.026,-1.507 0,-1.44 0.066,0.421 -0.676,1.198 0,1.44 z m 0.48,0.48 c 0.734,-0.174 0.706,0.414 1.44,0.24 -0.038,-1.078 0.893,-1.188 1.2,-1.92 -1.366,-0.397 -1.521,1.666 -2.16,1.2 0.096,-0.624 0.716,-0.724 0.72,-1.44 -1.186,-0.146 -1.106,0.974 -1.2,1.92 z M 60.96,55.2 c 1.634,1.71 3.936,-0.628 6.48,-0.24 0.112,-0.848 1.076,-0.844 0.96,-1.92 -2.536,0.665 -6.3,0.1 -7.44,2.16 z m 7.2,-0.72 c 0.782,0.062 1.155,-0.285 1.2,-0.96 -0.704,0.016 -0.891,0.548 -1.2,0.96 z M 62.4,56.4 c -0.439,1.188 0.145,1.862 0.48,2.88 0.518,-0.442 1.662,-0.258 2.16,-0.72 1.975,1.175 5.018,0.603 7.92,0.72 2.195,0.089 4.491,1.39 5.76,0.48 -1.218,-0.942 -3.868,-0.453 -4.56,-1.92 2.498,-0.865 3.903,1.353 6.24,1.44 -0.87,-2.09 -3.93,-1.989 -6,-2.88 2.692,-0.902 4.874,0.705 6.72,1.44 -0.824,-2.376 -3.797,-2.603 -6.48,-3.12 -0.108,-0.668 1.308,0.188 1.2,-0.48 -4.609,-0.344 -9.245,1.297 -13.44,2.16 z m -3.12,-0.72 c -1.251,0.927 0.955,1.242 0,0 z M 60,59.04 c 1.681,0.064 -0.752,-1.989 0.72,-2.4 -0.026,0.597 -0.45,0.743 0,1.2 0.61,-0.029 0.931,-0.349 0.96,-0.96 -0.204,-0.516 -0.591,-0.849 -1.44,-0.72 -0.891,0.654 -0.174,1.714 -0.24,2.88 z M 29.76,57.6 c 0.652,-0.308 1.842,-0.078 1.68,-1.2 -1.026,-0.066 -1.223,0.697 -1.68,1.2 z m 18.48,14.64 c 2.966,-0.394 4.008,-2.712 6.72,-3.36 1.976,-1.624 2.189,-5.011 4.56,-6.24 0.345,-2.417 -0.102,-3.064 -0.48,-5.04 -5.749,-1.847 -9.082,2.251 -13.44,3.84 0.627,0.683 1.246,3.005 0.24,3.84 0.262,-1.941 -0.3,-3.059 -1.2,-3.84 -0.834,0.046 -0.911,0.849 -1.68,0.96 -0.44,1.02 1.261,1.113 0.72,1.44 -1.06,-0.78 -2.533,-1.147 -3.6,-1.92 -1.559,0.601 -3.273,1.047 -5.04,1.44 -0.148,4.412 -0.96,8.16 -1.68,12 3.114,0.315 8.125,0.829 11.04,-0.48 0.398,0.402 1.409,0.191 2.16,0.24 0.867,-0.493 1.641,-1.08 2.4,-1.68 -1.673,-0.069 -3.163,1.312 -4.32,0.96 1.175,-0.841 4.328,-0.837 3.6,-2.16 z M 18,58.32 c -0.329,0.985 0.579,1.959 0,2.4 -0.149,-0.891 -1.183,-0.898 -0.96,-2.16 -1.578,0.275 -1.921,1.314 -3.12,1.44 -0.061,0.861 0.721,0.879 0.72,1.68 -0.558,-0.163 -0.643,-0.798 -1.2,-0.96 -0.262,0.618 -0.606,1.153 -1.2,1.44 -0.566,-0.074 -0.447,-0.833 -1.2,-0.72 -1.171,1.427 -2.965,3.558 -1.68,6 1.751,-0.071 2.355,1.005 3.12,1.92 2.458,-0.291 3.589,0.086 6.24,0.72 0.407,-0.567 1.541,-0.236 0.96,-1.2 3.956,-0.764 4.079,-5.361 5.52,-8.64 -3.214,0.068 -3.563,-3.796 -7.2,-1.92 z m 42.24,3.12 c 0.726,-0.33 0.857,0.114 1.92,0 0.333,-0.307 0.146,-1.133 0.48,-1.44 -1.699,0.923 0.063,-1.732 -1.44,-1.92 0.074,1.168 -1.244,1.388 -0.96,3.36 z M 30.72,58.8 h 0.48 c 0.373,-0.59 -0.815,-0.706 -0.72,-0.24 0.146,0.014 0.284,0.036 0.24,0.24 z m 8.88,0.96 c 0.057,-0.342 0.395,-0.405 0.48,-0.72 -0.346,-0.134 -0.586,-0.375 -0.72,-0.72 -0.596,-0.036 -0.996,0.124 -1.2,0.48 1.504,-0.308 1.283,0.393 1.44,0.96 z m 69.84,1.68 c 0.749,1.292 2.109,0.984 2.159,1.92 h 1.44 c -0.108,-1.548 0.067,-2.813 0.479,-3.84 -2.571,-0.694 -5.203,0.101 -7.68,-0.24 -2.002,-0.275 -4.165,-1.874 -6.24,-0.48 1.81,0.219 5.051,0.148 6.96,0.96 -1.452,0.017 -2.841,-0.597 -3.84,0.24 3.151,0.369 6.118,0.922 8.641,1.92 -0.74,-0.059 -1.36,-0.243 -1.92,-0.48 z M 30.24,60 c 0.614,-0.186 1.36,-0.239 1.68,-0.72 -1.335,0.102 -1.537,0.314 -1.92,-0.72 -0.032,0.592 -0.036,1.156 0.24,1.44 z M 36,59.04 c -0.477,-0.003 -0.305,-0.655 -0.96,-0.48 -0.178,0.532 0.884,0.989 0.96,0.48 z m 110.88,1.44 c 0.294,-0.324 1.29,-2.039 0.72,-1.68 -0.05,0.602 -1.22,1.322 -0.72,1.68 z m -56.16,-1.2 c -0.283,-0.276 -0.848,-0.271 -1.439,-0.24 -0.17,1.032 1.247,0.781 1.439,0.24 z m 11.76,0.24 c -0.35,0.131 -1.241,-0.28 -1.2,0.24 0.35,-0.131 1.24,0.281 1.2,-0.24 z M 68.4,60.24 c -1.692,-0.58 -1.4,0.82 0,0 z m 21.84,0 C 90.973,59.869 89.199,60.029 88.8,60 c -0.635,1.168 -1.037,3.266 0.48,3.6 -0.712,-1.077 -0.213,-1.001 1.2,-0.96 0.275,-0.284 0.271,-0.849 0.239,-1.44 h -1.92 c 0.348,-0.453 0.537,-1.064 1.441,-0.96 z m -78,1.2 c 0.632,0.072 0.788,-0.333 0.72,-0.96 -0.993,-0.063 -0.965,0.285 -0.72,0.96 z m 90.24,-0.48 c -0.407,-0.062 -4.774,-0.729 -1.681,-0.24 1.925,0.304 4.033,1.604 6.48,0.96 -0.95,-0.457 -2.84,-0.42 -4.8,-0.72 z m -41.52,2.16 c 1.207,0.167 1.673,-0.407 2.88,-0.24 -0.278,-0.811 0.17,-1.024 -0.24,-1.44 -0.331,1.109 -1.636,1.245 -2.64,1.68 z m 3.12,-2.4 c 0.076,0.636 -1.345,-0.225 -0.96,0.72 0.359,-0.069 1.734,-0.309 0.96,-0.72 z m -5.52,8.64 c 1.469,1.66 3.902,0.457 6,0.24 0.651,-0.709 1.11,-1.61 2.16,-1.92 -0.307,0.82 -1.97,1.541 -1.68,2.16 2.115,-1.165 3.881,-2.679 5.52,-4.32 -0.283,-0.038 -0.681,0.042 -0.72,-0.24 1.031,-0.812 3.241,-1.714 3.36,-2.64 -1.185,0.738 -2.789,2.327 -3.84,2.4 0.392,-1 0.815,-2.264 1.2,-3.84 -0.888,-0.152 -1.429,-0.651 -2.64,-0.48 -0.123,0.997 -1.372,0.868 -1.92,1.44 -0.15,1.129 -0.926,1.634 -1.92,1.92 0.074,-1.053 1.978,-1.532 1.44,-2.4 -0.669,1.251 -2.062,1.777 -3.36,2.4 0.709,0.171 1.694,0.066 1.92,0.72 -0.943,0.288 -1.804,-0.734 -2.4,0 0.281,0.358 0.997,0.283 0.96,0.96 -0.777,-0.167 -2.039,-1.641 -2.64,-0.48 0.844,0.677 1.959,1.082 2.64,1.92 -1.626,-0.134 -2.019,-1.501 -3.6,-1.68 0.168,1.112 1.408,1.152 1.92,1.92 -1.824,0.224 -1.776,-1.423 -3.12,-1.68 0.27,1.09 1.268,1.453 1.92,2.16 -0.282,0.038 -0.681,-0.041 -0.72,0.24 0.318,0.338 1.727,0.812 1.2,1.2 -1.291,-0.549 -2.006,-1.674 -2.64,-2.88 -0.865,1.73 1.508,2.125 1.92,3.36 -0.345,-0.059 -1.522,-1.011 -0.96,-0.48 z M 71.28,62.4 c 0.451,-0.75 1.47,-0.93 1.92,-1.68 -1.246,-0.199 -2.41,0.939 -1.92,1.68 z M 65.04,72 c 0.571,0.949 2.292,0.749 2.64,1.92 -1.288,-0.158 -2.493,-1.661 -3.6,-1.2 1.235,1.938 3.895,1.753 5.52,0.72 3.345,-2.126 6.433,-5.276 8.16,-8.64 0.619,-1.204 1.373,-2.401 1.2,-3.36 -0.777,0.632 -1.501,-0.093 -0.72,-0.72 h -0.96 c -0.708,0.208 0.557,0.359 0.24,0.96 -0.578,0.098 -0.521,-0.438 -1.2,-0.24 -2.094,3.426 -6.456,4.584 -8.64,7.92 0.413,0.095 0.615,-0.356 0.72,0 -1.226,0.774 -2.632,1.368 -3.36,2.64 z M 40.8,61.68 c 0.651,0.654 0.598,-0.621 1.44,-0.48 0.351,-0.004 0.76,1.012 0.72,0 -0.436,-0.497 -2.187,-0.281 -2.16,0.48 z m 29.52,2.64 c 1.171,-1.469 3.377,-1.903 4.56,-3.36 -2.152,0.33 -4.365,1.873 -4.56,3.36 z m 8.4,-3.12 c 1.582,0.595 1.089,-0.802 0,0 z m 65.52,2.16 c 0.331,-0.708 1.108,-0.972 1.439,-1.68 -0.79,0.101 -1.77,1.252 -1.44,1.68 z m -119.04,0 c -0.605,2.385 -3.111,3.875 -2.64,6.24 0.165,0.829 2.28,2.71 3.36,3.36 1.34,0.806 3.212,0.891 4.32,1.68 1.111,-3.369 1.845,-7.115 1.68,-11.76 -2.969,-0.334 -4.393,-0.938 -6.72,0.48 z m 33.84,0.72 c 0.072,-0.648 1.01,-0.431 1.2,-0.96 -0.5,0.079 -1.962,0.412 -1.2,0.96 z m 31.68,1.44 c -0.039,-1 -1.242,-0.837 -1.68,-1.44 0.063,0.977 0.962,1.118 1.68,1.44 z m 51.6,0.72 c -0.229,-0.447 0.719,-0.802 0,-0.96 -0.07,0.147 -0.6,0.924 0,0.96 z m -66.96,3.6 c 1.031,-0.653 2.617,-2.018 3.6,-1.92 -2.483,1.757 -5.278,3.202 -7.2,5.52 2.847,-1.553 5.324,-3.477 7.68,-5.52 -0.542,-0.636 0.865,-1.365 0.96,-2.16 -0.941,0.099 -0.738,1.342 -1.68,1.44 -0.035,-0.319 0.807,-0.893 0.24,-0.96 -1.047,1.196 -3.257,2.5 -3.6,3.6 z m 22.08,-3.12 c -0.551,-1.319 -2.7,-0.472 -3.601,-0.72 0.767,0.673 2.095,0.786 3.601,0.72 z m 4.56,0.24 c -0.042,-0.692 -1.188,-1.514 -1.68,-0.96 0.62,0.258 0.89,0.868 1.68,0.96 z m 32.64,0.48 c 2.203,-0.219 -0.985,-0.245 -1.439,-0.48 -0.428,0.133 -0.997,0.124 -1.2,0.48 0.93,-0.053 1.91,0.073 2.64,0 z m 9.84,1.2 c 0.72,-1.88 -0.51,-1.046 0,0 z m -33.6,-0.48 c -0.166,-0.188 -1.339,-0.534 -1.439,0 0.31,0.338 1.27,0.862 1.44,0 z m -54.96,1.92 c 0.222,-0.808 0.703,1.324 1.2,0.24 -0.813,-0.146 -0.385,-1.535 -1.44,-1.44 0.131,0.349 -0.281,1.241 0.24,1.2 z m 62.64,-1.2 c -1.724,0.356 -3.939,0.22 -6,0.24 0.001,-0.133 -0.194,-0.272 -0.239,0 1.68,0.59 4.53,0.436 6.24,-0.24 z M 64.8,70.8 c 0.095,-0.333 1.363,-0.68 0.72,-0.96 -0.095,0.333 -1.363,0.68 -0.72,0.96 z m -5.04,0.96 c -0.542,-0.49 -0.856,-0.607 -0.24,-1.2 -0.547,-0.067 -0.902,0.058 -0.96,0.48 0.502,10e-4 0.902,1.307 1.2,0.72 z M 20.4,74.4 c -0.062,0.695 0.608,2.928 0.96,3.84 0.688,1.781 2.325,4.321 3.6,4.319 2.562,-0.002 4.268,-5.516 5.04,-7.2 -2.952,-1.127 -5.382,-2.778 -7.68,-4.56 -0.242,1.358 -1.794,2.174 -1.92,3.601 z m 56.88,-2.64 c 0.515,0.012 1.651,-0.559 0.96,-0.96 -0.023,0.617 -0.937,0.343 -0.96,0.96 z m -17.04,0 h 0.72 c 0.043,-0.523 -0.196,-0.763 -0.72,-0.72 z M 62.16,72 c 0.945,0.145 1.246,-0.354 1.68,-0.72 -0.592,0.208 -1.661,-0.061 -1.68,0.72 z m -13.44,0.72 c 0.765,-0.205 0.911,0.209 1.2,0.48 0.149,-0.651 1.003,-0.598 0.96,-1.44 -0.986,0.054 -1.572,0.508 -2.16,0.96 z m 25.2,0.48 c 1.203,0.002 1.635,-0.766 2.16,-1.44 -0.885,0.315 -1.602,0.798 -2.16,1.44 z m -15.36,0 c -0.106,-0.694 -0.506,-1.094 -1.2,-1.2 -0.017,0.817 0.706,0.894 1.2,1.2 z m 2.16,-0.72 c 0.425,-0.055 1.202,0.242 0.96,-0.48 -0.547,-0.067 -0.902,0.058 -0.96,0.48 z m 2.4,0.48 c 0.058,-0.342 0.395,-0.405 0.48,-0.72 -0.495,-0.21 -1.078,0.622 -0.48,0.72 z m -5.28,0.96 c -0.057,-0.903 -0.984,-0.936 -1.68,-1.2 0.101,0.859 0.765,1.155 1.68,1.2 z m 2.88,0 c 0.513,0.393 1.8,0.023 1.68,-0.96 -0.897,-0.017 -1.375,0.386 -1.68,0.96 z m 2.4,0 c 1.099,0.261 1.547,1.173 2.88,1.2 -0.482,-1.039 -1.675,-1.365 -2.4,-2.16 -0.003,0.477 -0.655,0.305 -0.48,0.96 z m 73.44,1.2 c 1.193,-0.487 1.911,-1.45 2.881,-2.16 -1.14,0.543 -2.09,1.269 -2.88,2.16 z m -40.08,0 c -1.744,-0.709 -3.124,-1.583 -4.561,-1.68 0.801,0.785 3.904,2.191 4.561,1.68 z m -37.2,1.68 c -1.147,-1.253 -2.611,-2.188 -4.08,-3.12 0.341,2.059 2.941,1.859 4.08,3.12 z m 0.24,-3.12 c -1.537,-0.277 -0.527,0.733 0,0 z m 10.08,0.48 c 0.407,0.378 1.67,0.26 1.68,-0.48 -0.608,0.431 -1.361,-0.456 -1.68,0.48 z m -4.8,1.68 c -0.388,-1.052 -1.561,-1.319 -2.64,-1.68 0.38,1.06 1.275,1.605 2.64,1.68 z m -5.52,-0.48 c 0.035,-0.754 -0.615,-0.824 -1.2,-0.96 -0.051,0.771 0.856,0.584 1.2,0.96 z m 20.64,-0.24 c 0.043,-0.523 -0.196,-0.764 -0.72,-0.72 -0.044,0.523 0.196,0.764 0.72,0.72 z m -16.56,1.44 c -0.613,-1.354 -2.75,-2.167 -3.84,-1.68 0.582,0.379 1.062,0.859 1.44,1.44 -0.547,0.33 -0.902,-0.619 -0.96,0 0.956,0.541 2.032,0.547 3.36,0.24 z m -42.48,2.4 c -0.472,-1.208 -0.785,-2.575 -1.2,-3.84 -0.597,-0.037 -0.743,0.377 -1.2,0.48 0.337,1.503 0.735,2.945 1.68,3.84 0.106,-0.534 -0.741,-1.301 -0.24,-1.44 0.415,0.087 0.703,1.506 0.96,0.96 z m 88.08,-3.12 c -0.36,-0.067 -1.011,-1.032 -1.2,-0.48 0.23,0.2 0.78,1.268 1.2,0.48 z m -30,0.24 c -0.405,-0.098 -1.079,-1.131 -1.44,-0.48 0.405,0.098 1.079,1.131 1.44,0.48 z m -22.08,0 c -0.373,-0.055 -1.12,-0.923 -1.44,-0.24 0.373,0.055 1.12,0.923 1.44,0.24 z m -9.84,1.2 c -1.401,0.361 -0.689,-1.39 -1.68,-1.44 -0.581,1.398 1.858,2.008 1.68,1.44 z m 18,-0.96 c 0.547,0.067 0.902,-0.058 0.96,-0.48 -0.425,0.055 -1.202,-0.242 -0.96,0.48 z M 48,77.04 c 0.703,-0.469 -0.761,-1.454 -1.2,-0.72 0.894,-0.254 0.775,0.505 1.2,0.72 z M 66.24,76.8 c 0.16,-0.194 1.562,-0.31 0.72,-0.72 0.067,0.421 -1.434,0.439 -0.72,0.72 z m 36.72,-0.48 c 0.7,0.74 2.252,0.628 2.64,1.68 0.69,-0.335 1.22,0.654 1.44,0 -1.12,-0.804 -2.64,-1.197 -4.08,-1.68 z M 63.6,77.04 c 0.377,-0.023 0.832,0.032 0.72,-0.48 h -0.48 c 10e-4,0.241 -0.194,0.286 -0.24,0.48 z m 17.76,0.24 h 0.48 c 0.013,-0.307 0.308,-0.332 0.24,-0.72 H 81.6 c -0.013,0.307 -0.308,0.333 -0.24,0.72 z m -4.32,0.24 c 0.286,-0.713 -1.012,-1.031 -1.2,-0.48 0.458,0.102 0.434,0.686 1.2,0.48 z m -1.2,0 c -0.138,-0.5 -1.552,-0.3 -1.44,0.24 0.651,0.149 0.597,1.003 1.44,0.96 0.308,-0.948 -0.699,-0.581 -0.72,-1.2 0.489,-0.143 1.322,0.45 0.72,0 z m 6.48,0.96 c 0.166,0.188 1.339,0.534 1.439,0 -0.489,-0.071 -0.471,-0.649 -0.96,-0.72 -0.057,0.343 -0.395,0.405 -0.479,0.72 z M 61.68,80.4 c -0.631,-0.624 -0.189,0.388 -0.96,0.239 -0.551,-0.027 -0.772,-1.603 -1.2,-0.959 1.056,1.904 2.458,3.461 4.32,4.56 -0.205,-0.56 0.839,-1.034 0.24,-1.2 -0.077,0.278 -0.743,1.131 -0.96,0.479 0.395,-0.725 1.186,-1.054 1.68,-1.68 -0.774,-0.118 -1.418,1.12 -1.92,0.48 0.35,-0.53 1.285,-0.476 1.44,-1.2 -0.464,-0.822 -2.418,-1.414 -1.68,-2.64 0.296,1.261 0.399,0.251 0.48,0 0.691,0.509 0.621,1.779 1.44,2.16 C 64.498,79.66 63.665,79.454 63.84,78.24 63.242,78.038 62.554,77.926 61.68,78 c 0.01,1.117 1.469,2.041 1.2,2.64 -1.049,-0.396 -1.188,-2.965 -2.4,-2.399 0.873,0.246 1.073,1.166 1.2,2.159 z m 13.2,-1.68 c -0.566,-0.074 -0.446,-0.833 -1.2,-0.72 -0.093,0.595 1.156,1.054 1.2,0.72 z m 1.2,0.48 c 0.57,-0.164 1.792,-0.91 1.44,-1.2 -0.338,0.542 -1.563,0.197 -1.44,1.2 z m -12,-0.48 c 0.543,0.29 1.055,0.694 1.44,0 -0.512,-0.139 -1.307,-0.826 -1.44,0 z m 18,0 c -0.307,-0.013 -0.333,-0.308 -0.72,-0.24 -0.373,0.591 0.815,0.706 0.72,0.24 z m 18.24,0.48 c -0.361,-0.374 -1.477,-1.226 -2.16,-0.48 0.598,0.135 1.91,0.79 2.16,0.48 z m -11.04,5.52 c -0.61,0.14 -1.171,0.961 -1.681,0.48 0.939,-1.144 -0.045,-0.085 -0.72,-0.721 1.102,-0.344 2.447,-1.705 3.12,-1.68 0.036,0.32 -0.976,0.725 -0.24,0.96 0.107,-0.692 1.033,-0.567 1.2,-1.2 -2.559,-0.917 -5.078,-3.765 -7.92,-2.879 -0.18,0.82 0.975,0.305 0.72,1.2 -1.382,-1.492 -2.812,-0.122 -3.84,0.72 0.035,-0.283 0.427,-0.544 0,-0.72 -0.358,0.281 -0.283,0.997 -0.96,0.96 -0.013,-1.133 0.922,-1.317 1.2,-2.16 -1.232,0.048 -1.166,1.394 -2.16,1.68 -0.261,-1.31 1.662,-1.687 1.2,-2.4 -0.724,0.557 -1.363,1.197 -1.92,1.92 -0.64,-0.875 0.943,-1.186 0.96,-2.16 -4.074,1.745 0.153,3.478 2.64,4.08 2.926,0.708 5.931,2.224 6.96,3.12 0.442,-0.241 2.036,-1.477 1.441,-1.2 z m -20.4,-3.6 c -0.292,-0.915 -1.516,-2.155 -2.16,-1.92 0.865,0.495 1.295,1.425 2.16,1.92 z m 0,-1.92 c -0.97,-0.844 -0.566,0.772 0,0 z m 2.88,0.72 c -0.614,-0.197 -1.376,-1.487 -2.16,-0.72 0.932,-0.12 1.484,1.38 2.16,0.72 z m 0.48,-0.48 c -0.32,0.036 -0.725,-0.976 -0.96,-0.24 0.319,-0.035 0.893,0.807 0.96,0.24 z m 3.84,0.48 c 0.21,-0.494 -0.623,-1.078 -0.72,-0.48 0.343,0.058 0.405,0.395 0.72,0.48 z m -8.4,0.96 c -0.052,-0.76 -1.169,-1.695 -1.68,-1.2 0.572,0.388 1.058,0.862 1.68,1.2 z m 2.88,0.48 c 0.234,-0.891 -0.97,-1.569 -1.2,-1.2 0.441,0.36 0.598,1.001 1.2,1.2 z m -4.08,0.96 c 0.312,-0.597 -0.704,-0.996 0,-1.2 0.271,0.449 0.284,1.156 1.2,0.96 0.113,-1.153 -1.003,-1.077 -1.44,-1.68 -0.059,0.804 -0.516,1.513 0.24,1.92 z m 4.08,-0.48 c 0.413,0.013 0.615,-0.185 0.72,-0.479 -0.413,-0.014 -0.615,0.184 -0.72,0.479 z m 0.48,0.96 c 0.28,0.44 0.627,0.812 0.96,1.2 0.469,-0.971 1.652,-1.228 2.4,-1.92 -1.207,0.072 -1.789,0.771 -2.88,0.96 -0.179,-0.739 0.659,-0.461 0.48,-1.2 -0.611,0.029 -0.931,0.349 -0.96,0.96 z m 1.44,1.92 c 1.2,-0.56 2.102,-1.418 3.12,-2.16 -1.439,0.321 -2.963,0.557 -3.12,2.16 z m 26.64,-1.68 c -1.211,0.162 -2.425,-0.924 -3.36,-0.24 0.965,0.083 2.44,0.909 3.36,0.24 z m -31.68,0.24 c 0.636,-0.004 1.413,0.133 1.44,-0.48 -0.615,0.025 -1.144,0.136 -1.44,0.48 z m 6.24,1.92 c 0.311,-1.689 2.986,-1.015 4.08,-1.92 -1.548,-0.62 -4.327,0.756 -4.08,1.92 z m -8.4,0 c 0.817,0.017 0.894,-0.706 1.2,-1.2 -0.817,-0.018 -0.894,0.706 -1.2,1.2 z m 26.64,0.96 c 1.155,0.035 0.98,-1.26 1.68,-1.681 -0.33,0.011 -0.526,-0.112 -0.72,-0.239 -0.21,0.749 -0.652,1.268 -0.96,1.92 z m 11.52,3.12 c 0.857,0.124 0.549,-2.152 0.239,-2.4 -0.15,1.21 0.01,1.649 -0.24,2.4 z m 0,4.08 c -0.11,-1.069 0.895,-3.316 0,-3.601 0.33,1.384 -0.59,2.756 0,3.601 z m -0.24,1.2 c -0.33,-0.547 0.618,-0.901 0,-0.96 -0.07,0.147 -0.6,0.923 0,0.96 z m -27.6,0.96 c 0.657,0.002 1.414,-1.124 0.96,-1.439 -0.157,0.642 -0.687,0.911 -0.96,1.439 z m 0.72,1.44 c 0.484,0.716 1.216,1.185 1.68,1.92 0.828,-0.292 1.447,-0.793 1.92,-1.439 -0.968,0.004 0.103,-0.92 0,-1.44 -0.171,-0.87 -0.955,-1.584 -1.92,-1.68 -0.331,1.109 -1.055,1.824 -1.68,2.639 z m 9.12,22.32 c -1.005,-0.361 -3.566,-0.427 -4.561,0 1.519,0.35 3.169,0.63 4.561,0 z M 84.48,144 c 0.488,0.205 1.49,-0.209 0.72,-0.48 -0.071,0.5 -0.649,-0.36 -0.72,0.48 z m -3.12,1.2 c 0.767,0.629 -0.917,0.826 -0.72,1.68 0.549,1.005 1.788,-0.462 2.64,0.24 0.093,-0.974 -1.496,-0.265 -2.16,-0.48 0.611,-0.988 1.398,-1.802 2.64,-2.159 0.739,0.438 -0.481,1.345 0.24,1.68 0.371,-0.349 0.211,-1.229 0.24,-1.92 -1.405,-0.12 -1.836,0.72 -2.88,0.96 z m 14.88,0.72 c 0.031,-0.315 0.036,-1.736 -0.24,-0.96 -0.031,0.32 -0.036,1.74 0.24,0.96 z m -0.96,0.72 c 1.031,0.18 -1.854,-0.32 0,0 z" id="path6013" inkscape:connector-curvature="0" style="fill:#253f01;fill-opacity:1"/>
<path d="m 82.32,54.72 c 0.451,-0.536 -1.205,1.431 0,0 z" id="path6015" inkscape:connector-curvature="0" style="fill:#253f01;fill-opacity:1"/>
<path d="m 84.48,55.92 c 0.694,0.481 -0.692,0.889 -0.48,1.68 -0.75,-0.535 0.473,-1.109 0.48,-1.68 z" id="path6017" inkscape:connector-curvature="0" style="fill:#253f01;fill-opacity:1"/>
<path d="m 55.2,62.16 c 0.246,1.337 -1.459,1.089 -2.64,2.4 0.348,0.254 1.686,-0.543 2.64,-0.48 -1.132,0.749 -3.129,1.226 -4.08,1.44 0.308,-1.215 3.081,-2.037 4.08,-3.36 z" id="path6019" inkscape:connector-curvature="0" style="fill:#253f01;fill-opacity:1"/>
<path d="m 53.28,65.52 c 0.616,-0.313 -1.068,0.714 -1.68,0.72 -0.582,0.938 -1.784,1.256 -2.64,1.92 0.412,-0.951 2.319,-2.478 4.32,-2.64 z" id="path6021" inkscape:connector-curvature="0" style="fill:#253f01;fill-opacity:1"/>
<path d="m 72.96,67.2 c -0.5,1.422 -1.545,4.374 -3.6,5.04 0.94,-1.94 2.047,-3.714 3.6,-5.04 z" id="path6023" inkscape:connector-curvature="0" style="fill:#253f01;fill-opacity:1"/>
<path d="m 91.68,68.16 c 3.13,0.719 6.541,0.882 9.601,1.92 0.846,0.287 1.567,0.951 2.399,1.2 1.155,0.346 2.539,0.125 3.601,0.48 0.252,0.084 2.286,1.131 1.439,1.2 -1.255,-0.678 -2.517,-0.667 -3.84,-0.96 -3.267,-0.724 -7.059,-1.954 -11.04,-2.88 -0.725,-0.168 -1.825,-0.144 -2.16,-0.96 z" id="path6025" inkscape:connector-curvature="0" style="fill:#253f01;fill-opacity:1"/>
<path d="m 39.84,71.04 c -0.832,0.589 -3.595,0.866 -4.08,-0.24 1.539,0.35 2.834,0.183 4.08,0.24 z" id="path6027" inkscape:connector-curvature="0" style="fill:#253f01;fill-opacity:1"/>
<path d="m 83.04,72.96 c 1.013,-0.127 2.058,1.779 3.36,2.16 -1.149,0.264 -2.339,-1.496 -3.36,-2.16 z" id="path6029" inkscape:connector-curvature="0" style="fill:#253f01;fill-opacity:1"/>
<path d="m 49.68,51.6 c 0.224,0.651 -1.481,0.562 -0.48,1.2 -1.053,0.908 -2.061,0.088 -3.36,0 1.003,-0.676 2.116,-1.244 3.84,-1.2 z" id="path6031" inkscape:connector-curvature="0" style="fill:#253f01;fill-opacity:1"/>
</g>
</g></g>
</g>
</svg>