<?xml version="1.0" encoding="utf-8"?>
<!-- Created with Inkscape (http://www.inkscape.org/) --><svg height="152.42821mm" id="svg6779" inkscape:version="0.91 r13725" sodipodi:docname="niveau4.svg" version="1.1" viewBox="0 0 338.49999 540.09995" width="95.532219mm" xmlns="http://www.w3.org/2000/svg" xmlns:cc="http://creativecommons.org/ns#" xmlns:dc="http://purl.org/dc/elements/1.1/" xmlns:inkscape="http://www.inkscape.org/namespaces/inkscape" xmlns:rdf="http://www.w3.org/1999/02/22-rdf-syntax-ns#" xmlns:sodipodi="http://sodipodi.sourceforge.net/DTD/sodipodi-0.dtd" xmlns:svg="http://www.w3.org/2000/svg">
<defs id="defs6781"/>
<sodipodi:namedview bordercolor="#666666" borderopacity="1.0" id="base" inkscape:current-layer="layer1" inkscape:cx="306.29354" inkscape:cy="200.17562" inkscape:document-units="px" inkscape:pageopacity="0.0" inkscape:pageshadow="2" inkscape:window-height="876" inkscape:window-maximized="1" inkscape:window-width="1535" inkscape:window-x="65" inkscape:window-y="24" inkscape:zoom="0.9899495" pagecolor="#ffffff" showgrid="false"/>
<metadata id="metadata6784">
<rdf:RDF>
<cc:Work rdf:about="">
<dc:format>image/svg+xml</dc:format>
<dc:type rdf:resource="http://purl.org/dc/dcmitype/StillImage"/>
<dc:title/>
</cc:Work>
</rdf:RDF>
</metadata>
<g id="layer1" inkscape:groupmode="layer" inkscape:label="Calque 1" transform="translate(0,0.23029041)">
<rect height="539.09998" id="rect4326-0-3-6-4-3-2-61-6-9-9-5-0-7-0-5-8-8-9-4-5-5" inkscape:export-xdpi="90" inkscape:export-ydpi="90" style="fill:#ffffff;fill-opacity:1;stroke:none;stroke-opacity:1" width="337.5" x="0.5" y="0.26970959"/>
<rect height="486.97104" id="rect2985-3-0-7-7-6-9-6-2-0-3-5-4-5-0-77-3-1-3-5-5-4-3-9-7-0-1-8-1" inkscape:export-filename="/home/thomas/Documents/fallacies/png/rect2985-3-0-7-7.png" inkscape:export-xdpi="90" inkscape:export-ydpi="90" rx="9.2935619" ry="7.1613393" style="fill:#ffffff;fill-opacity:1;stroke:#0039f0;stroke-width:12;stroke-miterlimit:4;stroke-dasharray:none;stroke-dashoffset:0;stroke-opacity:1" width="285.0025" x="26.906189" y="26.612749"/>
<ellipse cx="169.40732" cy="279.7749" id="oval" inkscape:label="#path6246-7-6-6-9-7-6-9-3-1-1-722-4-6-4-7-1-9-6-2-0-7-5-4-6-9-9" rx="131.36859" ry="205.59465" style="fill:#91abff;fill-opacity:1;stroke:#91abff;stroke-width:1.01065052;stroke-opacity:1"/>
<rect height="15" id="sfam_1_active" inkscape:label="#rect13148-3-0-9-3-80-7-76" style="fill:#ffffff;fill-opacity:1;stroke:none;stroke-width:5.83799982;stroke-linecap:round;stroke-linejoin:bevel;stroke-miterlimit:4;stroke-dasharray:none;stroke-dashoffset:0;stroke-opacity:1" transform="matrix(0,1,-1,0,0,0)" width="65.714287" x="424.88379" y="-34.320938"/>
<rect height="15" id="sfam_2_active" inkscape:label="#rect13148-3-0-9-3-80-7-76" style="fill:#ffffff;fill-opacity:1;stroke:none;stroke-width:5.83799982;stroke-linecap:round;stroke-linejoin:bevel;stroke-miterlimit:4;stroke-dasharray:none;stroke-dashoffset:0;stroke-opacity:1;display:none;" transform="matrix(0,1,-1,0,0,0)" width="65.714287" x="233.68585" y="-34.320938"/>
<rect height="15" id="sfam_3_active" inkscape:label="#rect13148-3-0-9-3-80-7-76" style="fill:#ffffff;fill-opacity:1;stroke:none;stroke-width:5.83799982;stroke-linecap:round;stroke-linejoin:bevel;stroke-miterlimit:4;stroke-dasharray:none;stroke-dashoffset:0;stroke-opacity:1;display:none;" transform="matrix(0,1,-1,0,0,0)" width="65.714287" x="42.184151" y="-34.320938"/>
<text id="sfam_3" inkscape:label="#text4212-1-29-1-2-8-9-0-9-6-9-8-3-1-0-6-8-0-4-2-3-6-9-3-6-2-6-4-2" sodipodi:linespacing="0%" style="font-style:normal;font-variant:normal;font-weight:bold;font-stretch:normal;font-size:11.25px;line-height:0%;font-family:stix;-inkscape-font-specification:'stix, bold';text-align:end;letter-spacing:0px;word-spacing:0px;writing-mode:lr-tb;text-anchor:end;fill:#FFFFFF;fill-opacity:1;stroke:none" transform="matrix(0,-1,1,0,0,0)" x="-45.82415" xml:space="preserve" y="31.116638"><tspan id="tspan4214-27-1-2-9-7-6-4-1-1-1-3-9-59-96-1-6-2-1-8-8-2-7-4-5-4-7-3-9" sodipodi:role="line" style="font-style:normal;font-variant:normal;font-weight:bold;font-stretch:normal;font-size:11.25px;line-height:0%;font-family:stix;-inkscape-font-specification:'stix, bold';text-align:end;letter-spacing:0px;word-spacing:0px;writing-mode:lr-tb;text-anchor:end;fill:#FFFFFF;fill-opacity:1;stroke:none" x="-45.82415" y="31.116638">Ambiguïté</tspan></text>
<rect height="17.763229" id="rect5818-6-6-9-3-0-7" style="fill:#0039f0;fill-opacity:1;stroke:none;stroke-width:0.91443771;stroke-linecap:round;stroke-linejoin:bevel;stroke-miterlimit:4;stroke-dasharray:none;stroke-dashoffset:0;stroke-opacity:1" width="278.215" x="30.299866" y="495.76239"/>
<text id="fam_num" inkscape:label="#text5665-3-4-9-4-3-3-5-7-5-8-4-6-8-6-6-3-0-6-3-4" style="font-style:normal;font-weight:normal;line-height:0%;font-family:sans-serif;letter-spacing:0px;word-spacing:0px;fill:#000000;fill-opacity:1;stroke:none" x="40.722107" xml:space="preserve" y="513.8327"><tspan id="tspan5667-04-4-6-18-8-8-0-0-1-5-7-0-9-2-1-9-1-5-0-3" sodipodi:role="line" style="font-style:normal;font-variant:normal;font-weight:bold;font-stretch:normal;font-size:17.5px;line-height:1.25;font-family:STIX;-inkscape-font-specification:'STIX Bold';fill:#ffffff" x="40.722107" y="513.8327">5</tspan></text>
<text id="sfam_2" inkscape:label="#text4212-1-29-1-2-8-9-0-9-6-9-15-4-9-9-24-4-6-7-5-4-2-6-9-5" sodipodi:linespacing="0%" style="font-style:normal;font-variant:normal;font-weight:bold;font-stretch:normal;font-size:11.25px;line-height:0%;font-family:stix;-inkscape-font-specification:'stix, bold';text-align:start;letter-spacing:0px;word-spacing:0px;writing-mode:lr-tb;text-anchor:start;fill:#FFFFFF;fill-opacity:1;stroke:none" transform="matrix(0,-1,1,0,0,0)" x="-285.88123" xml:space="preserve" y="29.420349"><tspan id="tspan4214-27-1-2-9-7-6-4-1-1-1-9-8-7-7-0-88-0-1-6-8-0-3-2-6" sodipodi:role="line" style="font-style:normal;font-variant:normal;font-weight:bold;font-stretch:normal;font-size:11.25px;line-height:0%;font-family:stix;-inkscape-font-specification:'stix, bold';text-align:start;letter-spacing:0px;word-spacing:0px;writing-mode:lr-tb;text-anchor:start;fill:#FFFFFF;fill-opacity:1;stroke:none" x="-285.88123" y="29.420349">Comparaison invalide</tspan></text>
<text id="sfam_1" inkscape:label="#text4212-1-29-1-2-8-9-0-9-6-9-17-4-1-5-6-8-7-5-1-12-0-9-54-1" sodipodi:linespacing="0%" style="font-style:normal;font-variant:normal;font-weight:bold;font-stretch:normal;font-size:11.25px;line-height:0%;font-family:stix;-inkscape-font-specification:'stix, bold';text-align:start;letter-spacing:0px;word-spacing:0px;writing-mode:lr-tb;text-anchor:start;fill:#00071e;fill-opacity:1;stroke:none" transform="matrix(0,-1,1,0,0,0)" x="-487.50934" xml:space="preserve" y="29.420349"><tspan id="tspan4214-27-1-2-9-7-6-4-1-1-1-85-8-3-3-2-9-0-8-7-9-6-4-0-4" sodipodi:role="line" style="font-style:normal;font-variant:normal;font-weight:bold;font-stretch:normal;font-size:11.25px;line-height:0%;font-family:stix;-inkscape-font-specification:'stix, bold';text-align:start;letter-spacing:0px;word-spacing:0px;writing-mode:lr-tb;text-anchor:start;fill:#00071e;fill-opacity:1;stroke:none" x="-487.50934" y="29.420349">Définition incorrecte</tspan></text>
<rect height="15" id="ssfam_1_active" inkscape:label="#rect13148-3-0-9-3-80-7-7-3-3" style="fill:#ffffff;fill-opacity:1;stroke:none;stroke-width:5.83799982;stroke-linecap:round;stroke-linejoin:bevel;stroke-miterlimit:4;stroke-dasharray:none;stroke-dashoffset:0;stroke-opacity:1;display:none;" transform="matrix(0,1,-1,0,0,0)" width="124.30313" x="366.29495" y="-319.71991"/>
<rect height="15" id="ssfam_2_active" inkscape:label="#rect13148-3-0-9-3-80-7-7-3-3" style="fill:#ffffff;fill-opacity:1;stroke:none;stroke-width:5.83799982;stroke-linecap:round;stroke-linejoin:bevel;stroke-miterlimit:4;stroke-dasharray:none;stroke-dashoffset:0;stroke-opacity:1" transform="matrix(0,1,-1,0,0,0)" width="124.30313" x="204.55513" y="-319.71991"/>
<rect height="15" id="ssfam_3_active" inkscape:label="#rect13148-3-0-9-3-80-7-7-3-3" inkscape:transform-center-x="27.937032" inkscape:transform-center-y="5.2085991" style="fill:#ffffff;fill-opacity:1;stroke:none;stroke-width:5.83799982;stroke-linecap:round;stroke-linejoin:bevel;stroke-miterlimit:4;stroke-dasharray:none;stroke-dashoffset:0;stroke-opacity:1;display:none;" transform="matrix(0,1,-1,0,0,0)" width="124.30313" x="42.184151" y="-319.67227"/>
<text id="ssfam_3" inkscape:label="#text4212-1-29-1-2-8-9-0-9-6-9-8-3-1-0-6-92-3-6-9-3-6-2-3-39-8-5-0" sodipodi:linespacing="0%" style="font-style:normal;font-variant:normal;font-weight:bold;font-stretch:normal;font-size:11.25px;line-height:0%;font-family:stix;-inkscape-font-specification:'stix, bold';text-align:start;letter-spacing:0px;word-spacing:0px;writing-mode:lr-tb;text-anchor:start;fill:#FFFFFF;fill-opacity:1;stroke:none" transform="matrix(0,1,-1,0,0,0)" x="45.2729" xml:space="preserve" y="-309.22137"><tspan id="tspan4214-27-1-2-9-7-6-4-1-1-1-3-9-59-96-1-318-6-04-1-7-5-8-9-0-1-9-3" sodipodi:role="line" style="font-style:normal;font-variant:normal;font-weight:bold;font-stretch:normal;font-size:11.25px;line-height:0%;font-family:stix;-inkscape-font-specification:'stix, bold';text-align:start;letter-spacing:0px;word-spacing:0px;writing-mode:lr-tb;text-anchor:start;fill:#FFFFFF;fill-opacity:1;stroke:none" x="45.2729" y="-309.22137">Définition inconsistante</tspan></text>
<text id="ssfam_2" inkscape:label="#text4212-1-29-1-2-8-9-0-9-6-9-15-7-7-8-9-7-6-1-0-8-29-4-1" sodipodi:linespacing="0%" style="font-style:normal;font-variant:normal;font-weight:bold;font-stretch:normal;font-size:11.25px;line-height:0%;font-family:stix;-inkscape-font-specification:'stix, bold';text-align:start;letter-spacing:0px;word-spacing:0px;writing-mode:lr-tb;text-anchor:start;fill:#00071e;fill-opacity:1;stroke:none" transform="matrix(0,1,-1,0,0,0)" x="245.01849" xml:space="preserve" y="-309.22137"><tspan id="tspan4214-27-1-2-9-7-6-4-1-1-1-9-41-5-8-6-2-8-2-8-38-3-6-2" sodipodi:role="line" style="font-style:normal;font-variant:normal;font-weight:bold;font-stretch:normal;font-size:11.25px;line-height:0%;font-family:stix;-inkscape-font-specification:'stix, bold';text-align:start;letter-spacing:0px;word-spacing:0px;writing-mode:lr-tb;text-anchor:start;fill:#00071e;fill-opacity:1;stroke:none" x="245.01849" y="-309.22137">Acception arbitraire</tspan></text>
<text id="ssfam_1" inkscape:label="#text4212-1-29-1-2-8-9-0-9-6-9-17-63-3-97-3-6-4-4-8-73-9-92-7" sodipodi:linespacing="0%" style="font-style:normal;font-variant:normal;font-weight:bold;font-stretch:normal;font-size:11.25px;line-height:0%;font-family:stix;-inkscape-font-specification:'stix, bold';text-align:end;letter-spacing:0px;word-spacing:0px;writing-mode:lr-tb;text-anchor:end;fill:#FFFFFF;fill-opacity:1;stroke:none" transform="matrix(0,1,-1,0,0,0)" x="487.26184" xml:space="preserve" y="-308.55173"><tspan id="tspan4214-27-1-2-9-7-6-4-1-1-1-85-85-5-76-3-4-8-7-5-1-0-2-9" sodipodi:role="line" style="font-style:normal;font-variant:normal;font-weight:bold;font-stretch:normal;font-size:11.25px;line-height:0%;font-family:stix;-inkscape-font-specification:'stix, bold';text-align:end;letter-spacing:0px;word-spacing:0px;writing-mode:lr-tb;text-anchor:end;fill:#FFFFFF;fill-opacity:1;stroke:none" x="487.26184" y="-308.55173">Acception vague</tspan></text>
<rect height="23.57143" id="rect13148-3-36-1-5-8-4-8" rx="8.7534218" ry="9.7777777" style="fill:#ffffff;fill-opacity:1;stroke:none;stroke-width:5.83799982;stroke-linecap:round;stroke-linejoin:bevel;stroke-miterlimit:4;stroke-dasharray:none;stroke-dashoffset:0;stroke-opacity:1" width="103.16534" x="117.82477" y="18.612719"/>
<text id="text" inkscape:label="#text5516-78-3-4-89-9-1-3-6-2-4-3-9-5-3-7-7-2-6-1-6-5-0-5-7-1" sodipodi:linespacing="0%" style="font-style:normal;font-variant:normal;font-weight:bold;font-stretch:normal;line-height:0%;font-family:stix;-inkscape-font-specification:'stix bold';text-align:center;letter-spacing:0px;word-spacing:0px;writing-mode:lr-tb;text-anchor:middle;fill:#001350;fill-opacity:1;stroke:none" x="168.66994" xml:space="preserve" y="39.097687"><tspan id="tspan9035" sodipodi:role="line" style="font-style:normal;font-variant:normal;font-weight:bold;font-stretch:normal;font-size:25px;line-height:100%;font-family:STIX;-inkscape-font-specification:'STIX Bold';text-align:center;writing-mode:lr-tb;text-anchor:middle;fill:#490f07;fill-opacity:1" x="168.66994" y="39.097687">Contraste perdu</tspan><tspan id="tspan5336" sodipodi:role="line" style="font-style:normal;font-variant:normal;font-weight:bold;font-stretch:normal;font-size:25px;line-height:100%;font-family:STIX;-inkscape-font-specification:'STIX Bold';text-align:center;writing-mode:lr-tb;text-anchor:middle;fill:#490f07;fill-opacity:1" x="168.66994" y="64.097687"/></text>
<rect height="26.428572" id="rect13148-3-3-2-4-1-4-5-6" rx="8.4705887" ry="15" style="fill:#ffffff;fill-opacity:1;stroke:none;stroke-width:5.83799982;stroke-linecap:round;stroke-linejoin:bevel;stroke-miterlimit:4;stroke-dasharray:none;stroke-dashoffset:0;stroke-opacity:1" width="68.571434" x="135.12172" y="494.59808"/>
<text id="fam_text" inkscape:label="#text4212-1-29-1-2-8-9-0-9-67-9-6-3-5-23-0-1-7-3-2-3-4-7-8-8-8-4-0" sodipodi:linespacing="0%" style="font-style:normal;font-variant:normal;font-weight:bold;font-stretch:normal;font-size:15px;line-height:0%;font-family:STIX;-inkscape-font-specification:'STIX, Bold';text-align:center;letter-spacing:0px;word-spacing:0px;writing-mode:lr-tb;text-anchor:middle;fill:#1b0603;fill-opacity:1;stroke:none" x="168.81482" xml:space="preserve" y="513.46771"><tspan id="tspan4214-27-1-2-9-7-6-4-1-5-2-3-65-0-7-6-31-5-8-5-4-6-0-1-0-5-8-1" sodipodi:role="line" style="font-style:normal;font-variant:normal;font-weight:bold;font-stretch:normal;font-size:15px;line-height:1.25;font-family:STIX;-inkscape-font-specification:'STIX, Bold';text-align:center;writing-mode:lr-tb;text-anchor:middle;fill:#1b0603;fill-opacity:1" x="168.81482" y="513.46771">Détournement
de la langue</tspan></text>
<flowRoot id="desc" inkscape:label="#flowRoot5388-1-9-2-7-9-4-63-8-65-6-8-7-2-3-5-4-9-17-61-1-0" style="font-style:normal;font-variant:normal;font-weight:bold;font-stretch:normal;line-height:0.01%;font-family:STIX;-inkscape-font-specification:'STIX Bold';text-align:center;letter-spacing:0px;word-spacing:0px;text-anchor:middle;fill:#1b0603;fill-opacity:1;stroke:none" transform="translate(160.09545,945.16255)" xml:space="preserve"><flowRegion id="flowRegion5390-2-2-5-6-3-9-94-3-6-8-8-5-1-8-5-4-6-9-15-2-2"><rect height="77.283951" id="rect5392-7-0-4-8-6-2-8-5-84-3-3-4-2-2-3-3-0-1-9-8-5" style="font-style:normal;font-variant:normal;font-weight:bold;font-stretch:normal;font-size:15px;line-height:100%;font-family:stix;-inkscape-font-specification:'stix bold';text-align:center;text-anchor:middle;fill:#0039f0;fill-opacity:1" width="264.06375" x="-123.22692" y="-557.27393"/></flowRegion><flowPara id="flowPara5394-0-2-4-9-0-06-12-6-8-2-1-8-0-3-8-0-7-0-8-9-1" style="font-style:normal;font-variant:normal;font-weight:bold;font-stretch:normal;font-size:15px;line-height:100%;font-family:STIX;-inkscape-font-specification:'STIX Bold';text-align:center;text-anchor:middle;fill:#1b0603;fill-opacity:1">Vous définissez des termes de manière à ce qu'on ne les distingue plus les uns des autres.</flowPara></flowRoot> <flowRoot id="example" inkscape:label="#flowRoot5388-1-9-2-7-9-4-63-8-92-2-3-8-9-5-4-5-19-0-3-48-36-9" style="font-style:normal;font-variant:normal;font-weight:bold;font-stretch:normal;line-height:0.01%;font-family:STIX;-inkscape-font-specification:'STIX Bold';text-align:center;letter-spacing:0px;word-spacing:0px;text-anchor:middle;fill:#1b0603;fill-opacity:1;stroke:none" transform="translate(158.65891,1032.1014)" xml:space="preserve"><flowRegion id="flowRegion5390-2-2-5-6-3-9-94-3-17-8-6-9-1-6-0-9-6-1-59-1-8-7"><rect height="48.063705" id="rect5392-7-0-4-8-6-2-8-5-7-1-2-6-5-5-9-91-21-0-4-0-0-1" style="font-style:normal;font-variant:normal;font-weight:bold;font-stretch:normal;font-size:15px;line-height:100%;font-family:stix;-inkscape-font-specification:'stix bold';text-align:center;text-anchor:middle;fill:#0039f0;fill-opacity:1;stroke-width:0.57831079" width="267.68024" x="-123.22692" y="-557.27393"/></flowRegion><flowPara id="flowPara5394-0-2-4-9-0-06-12-6-9-2-2-4-4-0-4-4-2-1-8-30-2-3" style="font-style:italic;font-variant:normal;font-weight:bold;font-stretch:normal;font-size:12.5px;line-height:100%;font-family:STIX;-inkscape-font-specification:'STIX Bold Italic';text-align:center;text-anchor:middle;fill:#1b0603;fill-opacity:1">Les atomes font partie de la nature ; cette poudre chimique est composée d'atomes donc c'est un produit naturel.</flowPara></flowRoot> <g id="illustration" inkscape:groupmode="layer" inkscape:label="#illustration" transform="translate(-6.802157,-67.336793)"><g id="678" inkscape:label="#g7309" transform="translate(172.75455,130.68205)">
<ellipse cx="-18.764994" cy="143.89001" id="path7498" rx="120.33105" ry="126.42377" style="fill:#ffffff;fill-opacity:1;stroke:none"/>
<path d="m 80.609017,299.46653 c -6.181889,-4.32989 -8.348692,-14.94463 -5.873469,-28.77279 3.146181,-17.5766 1.679024,-32.64308 -3.178774,-32.64308 -2.322685,0 -7.239561,4.73598 -10.890581,10.48963 -1.994436,3.14331 -2.061661,4.32085 -0.631412,11.06036 1.408183,6.63567 1.348472,7.92768 -0.496541,10.74349 -1.450061,2.213 -3.239484,3.20065 -5.799048,3.20065 -4.840624,0 -7.648544,-4.05926 -7.648544,-11.05701 0,-3.19281 -0.590299,-5.42241 -1.435638,-5.42241 -0.789598,0 -10.344498,2.6547 -21.233103,5.89927 -18.3496242,5.46772 -21.0629468,5.94158 -37.101399,6.47857 -25.785248,0.86336 -42.944653,-3.24148 -63.651541,-15.22703 -18.938972,-10.96219 -44.001017,-39.99789 -54.693387,-63.36534 -10.73812,-23.46738 -11.85059,-43.83871 -4.24116,-77.66353 6.90346,-30.686736 34.16283,-66.493174 63.918993,-83.960421 27.927336,-16.39384 62.4461524,-20.6273377 95.364023,-11.696074 43.10213,11.694583 76.237291,51.37709 87.007084,104.199285 1.85208,9.08387 7.05443,42.6058 7.05443,45.45601 0,0.68885 -2.49676,3.93769 -5.54834,7.21954 -6.72732,7.23491 -12.519883,18.43576 -15.981981,30.90347 -3.595979,12.94979 -6.138194,56.43023 -3.944618,67.46608 2.833007,14.25271 1.842861,22.0496 -3.315433,26.10709 -3.895581,3.06435 -4.115017,3.08104 -7.679561,0.58424 z M 1.7229612,263.1619 C 18.630981,258.10363 37.470845,239.85505 45.41569,220.84034 c 4.803409,-11.49619 3.433588,-26.90203 -3.631713,-40.84475 -3.944096,-7.78338 -6.433321,-9.99582 -8.922145,-7.9303 -3.105135,2.57696 -3.607252,8.80709 -1.989907,24.69014 1.787158,17.5505 0.886368,22.28052 -4.243221,22.28052 -5.936322,0 -6.463964,-2.29738 -6.514652,-28.3654 l -0.04717,-24.242 -5.650742,-9.32897 C 11.308235,151.9686 7.6086619,147.34196 6.1948949,146.81803 4.7811092,146.2941 0.20173225,146.433 -3.9815076,147.12679 c -7.2559684,1.20346 -8.0141314,1.06716 -16.4794314,-2.96124 -10.517097,-5.00475 -20.285765,-5.82822 -24.452569,-2.06123 -5.448143,4.92542 -7.975918,26.62897 -4.826157,41.4375 4.512907,21.21708 1.824662,32.95884 -7.545854,32.95884 -9.51872,0 -10.497568,-8.24848 -5.691045,-47.9569 3.042803,-25.13763 3.065503,-25.97955 0.921421,-34.15438 -3.143944,-11.98712 -10.512102,-26.73254 -14.196926,-28.41154 -4.366122,-1.98936 -5.689767,-7.232867 -5.689767,-22.539409 0,-22.197827 4.064898,-31.999637 20.160088,-48.612838 l 9.599705,-9.908648 -5.689442,2.451385 c -15.215534,6.555858 -32.558072,19.598866 -44.080855,33.152567 -8.56691,10.076641 -19.51923,26.647704 -23.81722,36.035775 -9.65599,21.091518 -13.08554,58.928608 -7.07595,78.066838 7.29295,23.22518 26.90907,51.76725 46.182043,67.1961 9.604823,7.68912 27.808688,16.91768 38.904898,19.72295 15.076012,3.81165 39.4833295,4.61032 49.4815116,1.61934 z m -12.8006652,-3.68542 c -2.006248,-2.00623 -2.482392,-3.64095 -1.938464,-6.65515 2.323367,-12.87539 2.327133,-13.77036 0.07896,-18.75572 -1.307918,-2.90055 -3.870699,-5.88426 -5.999829,-6.98516 -5.723319,-2.95976 -6.700265,-0.93553 -4.690129,9.7178 1.532723,8.12318 1.490446,9.17589 -0.446321,11.11267 -1.669617,1.66968 -2.621355,1.82826 -4.334024,0.72203 -1.76083,-1.13726 -2.136597,-3.01223 -1.901107,-9.48586 0.16143,-4.43767 -0.55163,-11.88896 -1.584558,-16.55848 -4.042478,-18.27449 -1.882295,-28.09774 7.446737,-33.86341 6.936622,-4.28702 12.365822,-4.68751 19.1335547,-1.41126 7.0474492,3.41162 11.5276427,10.3786 13.4858325,20.97144 1.6642474,9.00276 0.3371063,12.70748 -4.9697526,13.87299 -8.2013013,1.80123 -10.0095833,9.07353 -6.5441206,26.31769 1.5841941,7.88284 1.5382428,8.71712 -0.6109862,11.09197 -2.9169288,3.22311 -3.8228271,3.21155 -7.1258438,-0.0914 z m 0.05911,-168.695082 c 3.2560483,-3.495053 4.2985324,-9.065509 3.637987,-19.439169 -0.858791,-13.486951 -7.842725,-19.816456 -13.699656,-12.415968 -2.476463,3.129233 -2.71735,4.505906 -2.010938,11.492562 0.841051,8.318766 -0.487946,12.978775 -3.701585,12.978775 -2.873533,0 -5.057116,-9.09124 -3.35582,-13.971541 2.298195,-6.592589 -0.702758,-8.743226 -4.376499,-3.136225 -2.597423,3.96398 -2.572568,11.90052 0.05314,16.978181 4.686857,9.063365 18.02762,13.337044 23.453315,7.513385 z M 2.9906521,75.070814 c 0,-6.410425 -2.86779865,-9.733382 -4.985396,-5.776579 -0.9726391,1.817353 -0.9531454,4.433375 0.068614,9.197423 1.30574578,6.088422 1.57694105,6.453589 3.1723315,4.271722 0.9594475,-1.31216 1.7444872,-4.773838 1.7444872,-7.692566 z" id="path7496" inkscape:connector-curvature="0" style="fill:#0f0f37;fill-opacity:1"/>
</g></g>
</g>
</svg>