<?xml version="1.0" encoding="utf-8"?>
<!-- Created with Inkscape (http://www.inkscape.org/) --><svg height="152.42821mm" id="svg6779" inkscape:version="0.92.2 (unknown)" sodipodi:docname="niveau3.svg" version="1.1" viewBox="0 0 338.49999 540.09995" width="95.532219mm" xmlns="http://www.w3.org/2000/svg" xmlns:cc="http://creativecommons.org/ns#" xmlns:dc="http://purl.org/dc/elements/1.1/" xmlns:inkscape="http://www.inkscape.org/namespaces/inkscape" xmlns:rdf="http://www.w3.org/1999/02/22-rdf-syntax-ns#" xmlns:sodipodi="http://sodipodi.sourceforge.net/DTD/sodipodi-0.dtd" xmlns:svg="http://www.w3.org/2000/svg">
<defs id="defs6781"/>
<sodipodi:namedview bordercolor="#666666" borderopacity="1.0" id="base" inkscape:current-layer="layer1" inkscape:cx="128.86972" inkscape:cy="127.32053" inkscape:document-units="px" inkscape:guide-bbox="true" inkscape:pageopacity="0.0" inkscape:pageshadow="2" inkscape:window-height="728" inkscape:window-maximized="1" inkscape:window-width="1366" inkscape:window-x="0" inkscape:window-y="21" inkscape:zoom="1.7430741" pagecolor="#ffffff" showgrid="false" showguides="true">
<sodipodi:guide id="guide3375" inkscape:locked="false" orientation="0,1" position="145.14586,53.354012"/>
</sodipodi:namedview>
<metadata id="metadata6784">
<rdf:RDF>
<cc:Work rdf:about="">
<dc:format>image/svg+xml</dc:format>
<dc:type rdf:resource="http://purl.org/dc/dcmitype/StillImage"/>
<dc:title/>
</cc:Work>
</rdf:RDF>
</metadata>
<g id="layer1" inkscape:groupmode="layer" inkscape:label="Calque 1" transform="translate(-190.75,-64.669357)">
<rect height="539.09998" id="rect4326-0-3-6-4-3-2-61-6-9-9-5-0-7-0-5-8-8-9-4" inkscape:export-xdpi="90" inkscape:export-ydpi="90" style="fill:#ffffff;fill-opacity:1;stroke:none;stroke-opacity:1" width="337.5" x="191.25" y="65.169357"/>
<rect height="486.97104" id="rect2985-3-0-7-7-6-9-6-2-0-3-5-4-5-0-77-3-1-3-5-5-4-3-9-7-0-1-8" inkscape:export-filename="/home/thomas/Documents/fallacies/png/rect2985-3-0-7-7.png" inkscape:export-xdpi="90" inkscape:export-ydpi="90" rx="9.2935619" ry="7.1613393" style="fill:#ffffff;fill-opacity:1;stroke:#0039f0;stroke-width:12;stroke-miterlimit:4;stroke-dasharray:none;stroke-dashoffset:0;stroke-opacity:1" width="285.0025" x="218.42665" y="91.512375"/>
<ellipse cx="360.92792" cy="342.49432" id="oval" rx="110.77639" ry="179.61261" style="fill:#91abff;fill-opacity:1;stroke:none;stroke-width:3;stroke-miterlimit:4;stroke-dasharray:none;stroke-opacity:1"/>
<path d="m 494.6209,100.0677 0,85 c -13.2539,-39.4762 -29.5079,-65.4525 -72,-85 z" id="path9668-2-1-0-7-4-7" inkscape:connector-curvature="0" sodipodi:nodetypes="cccc" style="fill:#0039f0;fill-opacity:1;fill-rule:evenodd;stroke:none;stroke-width:1px;stroke-linecap:butt;stroke-linejoin:miter;stroke-opacity:1"/>
<rect height="15" id="sfam_1_active" inkscape:label="#rect13148-3-0-9-3-80-7-76" style="fill:#ffffff;fill-opacity:1;stroke:none;stroke-width:5.83799982;stroke-linecap:round;stroke-linejoin:bevel;stroke-miterlimit:4;stroke-dasharray:none;stroke-dashoffset:0;stroke-opacity:1;display:none;" transform="matrix(0,1,-1,0,0,0)" width="65.714287" x="489.78412" y="-225.57094"/>
<rect height="15" id="sfam_2_active" inkscape:label="#rect13148-3-0-9-3-80-7-76" style="fill:#ffffff;fill-opacity:1;stroke:none;stroke-width:5.83799982;stroke-linecap:round;stroke-linejoin:bevel;stroke-miterlimit:4;stroke-dasharray:none;stroke-dashoffset:0;stroke-opacity:1;display:none;" transform="matrix(0,1,-1,0,0,0)" width="65.714287" x="300.0144" y="-225.57094"/>
<rect height="15" id="sfam_3_active" inkscape:label="#rect13148-3-0-9-3-80-7-76" style="fill:#ffffff;fill-opacity:1;stroke:none;stroke-width:5.83799982;stroke-linecap:round;stroke-linejoin:bevel;stroke-miterlimit:4;stroke-dasharray:none;stroke-dashoffset:0;stroke-opacity:1" transform="matrix(0,1,-1,0,0,0)" width="65.714287" x="109.94095" y="-225.57094"/>
<text id="sfam_3" inkscape:label="#text4212-1-29-1-2-8-9-0-9-6-9-8-3-1-0-6-8-0-4-2-3-6-9-3-6-2-6-4" style="font-style:normal;font-variant:normal;font-weight:bold;font-stretch:normal;line-height:0%;font-family:stix;-inkscape-font-specification:'stix, bold';text-align:end;letter-spacing:0px;word-spacing:0px;writing-mode:lr-tb;text-anchor:end;fill:#00071e;fill-opacity:1;stroke:none" transform="rotate(-90)" x="-113.58095" xml:space="preserve" y="222.6371"><tspan id="tspan4214-27-1-2-9-7-6-4-1-1-1-3-9-59-96-1-6-2-1-8-8-2-7-4-5-4-7-3" sodipodi:role="line" style="font-style:normal;font-variant:normal;font-weight:bold;font-stretch:normal;line-height:0%;font-family:stix;-inkscape-font-specification:'stix, bold';text-align:end;letter-spacing:0px;word-spacing:0px;writing-mode:lr-tb;text-anchor:end;fill:#00071e;fill-opacity:1;stroke:none" x="-113.58095" y="222.6371">Ambiguïté</tspan></text>
<g id="illustration" inkscape:groupmode="layer" inkscape:label="#illustration" transform="translate(186.60659,-39.771006)"><g id="707" inkscape:label="#g15415" transform="translate(-1349.8372,-124.40316)">
<path d="m 1617.8237,497.22257 c -0.8279,0.63635 -1.585,1.37877 -2.1194,2.29774 -0.4205,0.72307 -0.8865,1.40185 -1.4577,2.00279 -0.2723,0.28664 -0.3791,0.58975 -0.4128,0.97068 -0.1026,1.15747 -0.2733,2.29701 -0.7777,3.37127 -0.282,0.60044 -0.3695,1.2697 -0.4228,1.93469 -0.2261,2.82253 -0.8238,5.5821 -1.6538,8.27345 -0.3658,1.1859 -0.5276,2.35464 -0.7008,3.56594 -0.3508,2.45319 -0.7897,4.91097 -1.7362,7.23147 -0.228,0.55915 -0.3562,1.13663 -0.4267,1.73156 -0.047,0.3985 -0.2634,0.49804 -0.6254,0.3607 -0.3377,-0.12811 -0.6826,-0.47874 -1.0101,0.0372 -0.047,0.0745 -0.1986,0.0132 -0.2065,-0.0988 -0.057,-0.80839 -0.7894,-0.66289 -1.2524,-0.88058 -0.5438,-0.25567 -1.0737,-0.18549 -1.6105,0.10959 -2.2276,1.22459 -4.5304,1.05515 -6.8314,0.2624 -0.84,-0.28939 -1.6428,-0.69999 -2.2067,-1.42946 0.15,-0.29859 0.4018,-0.23574 0.6235,-0.24819 0.7612,-0.0427 1.5233,-0.0728 2.2839,-0.12454 1.1431,-0.0778 2.1091,-0.42889 2.6111,-1.59455 0.2494,-0.57886 0.6511,-1.05097 1.1785,-1.44487 0.5459,-0.40777 0.7667,-1.04806 0.9178,-1.71526 1.0034,-4.43025 2.2292,-8.80175 3.4936,-13.1633 0.3859,-1.33169 1.0337,-2.59343 1.0941,-4.01434 0.01,-0.0989 0.041,-0.19757 0.038,-0.29561 -0.1052,-3.55689 1.2799,-6.80441 2.1109,-10.16661 0.055,-0.22371 0.17,-0.43357 0.1329,-0.71721 -0.4955,-0.2576 -1.0017,0.22912 -1.584,0.0177 0.075,-0.71791 0.3786,-1.37309 0.6307,-2.03339 0.4362,-1.14337 1.0824,-2.20013 1.4104,-3.39109 0.052,-0.18725 0.1595,-0.3671 0.2732,-0.5278 0.7071,-0.99888 1.3766,-2.02952 2.149,-2.97563 0.8442,-1.03382 1.1554,-2.29847 1.6608,-3.47652 0.1953,-0.45507 0.06,-0.97233 -0.2026,-1.43319 -0.6863,-1.2057 -1.3005,-2.4421 -1.8487,-3.72357 -0.6029,-1.40948 -1.5449,-2.61626 -2.9722,-3.33895 -0.1761,-0.0892 -0.3637,-0.2165 -0.5479,-0.21993 -1.2065,-0.0224 -1.9582,-0.90328 -2.85,-1.5021 -0.5337,-0.35834 -0.5857,-1.02152 -0.7331,-1.59016 -0.1241,-0.47882 -0.3495,-0.70539 -0.8622,-0.76875 -2.5672,-0.31722 -5.0937,-0.89054 -7.6492,-1.27186 -1.834,-0.27364 -3.675,-0.47186 -5.4934,-0.86688 -0.8944,-0.1943 -1.8444,-0.005 -2.7683,-0.18502 -2.8077,-0.54648 -5.5113,-1.44615 -8.2158,-2.34713 -0.372,-0.12391 -0.7436,-0.24906 -1.1458,-0.38384 -0.2121,0.4083 -0.1191,0.77451 -0.1087,1.11942 0.072,2.38614 0.1602,4.77175 0.2399,7.15766 0.049,1.47908 -0.1311,2.91133 -0.8769,4.22687 -0.214,0.37757 -0.4496,0.74416 -0.7743,1.02969 -0.8218,0.72273 -1.7313,1.04058 -2.8398,0.67511 -1.0496,-0.34607 -1.873,-0.98698 -2.5753,-1.79758 -0.7379,-0.85159 -1.4508,-1.72621 -2.1456,-2.6134 -1.6125,-2.05868 -3.7292,-2.8828 -6.3017,-2.63529 -0.3629,0.0349 -0.7281,0.0453 -1.0922,0.0659 -2.6374,0.1497 -4.6575,1.38911 -6.1576,3.51917 -1.5665,2.22428 -2.2895,4.76664 -2.6871,7.41187 -0.6817,4.53554 -0.3908,9.00373 1.1578,13.34075 1.029,2.88179 2.517,5.48562 5.0267,7.36889 1.5794,1.18521 3.3886,1.82961 5.3353,1.99088 2.384,0.19746 4.2628,-0.77796 5.5873,-2.76264 0.5512,-0.82589 1.0297,-1.70111 1.5238,-2.56394 0.2668,-0.46606 0.5944,-0.88148 0.9765,-1.24996 0.7977,-0.7694 1.7518,-0.84309 2.5984,-0.14272 1.1303,0.93494 1.9184,2.06049 2.0511,3.60627 0.2442,2.84549 0.2696,5.68988 0.2247,8.54301 -0.052,3.31594 -0.1783,6.62818 -0.3389,9.93923 -0.1494,3.07938 -0.3515,6.15622 -0.5329,9.23403 -0.02,0.33084 -0.069,0.66024 -0.08,0.99115 -0.013,0.40123 -0.1744,0.61654 -0.6048,0.58451 -0.2309,-0.0172 -0.4642,-7.3e-4 -0.6963,-7.3e-4 -30.5164,7e-5 -61.0326,7.3e-4 -91.549,-0.002 -1.6508,-2e-4 -1.4708,0.16312 -1.3609,-1.42939 0.4134,-5.98701 0.7128,-11.97951 0.8869,-17.97761 0.098,-3.38006 0.1229,-6.75973 -0.2633,-10.13196 -0.1688,-1.47386 -0.9832,-2.50882 -2.0546,-3.38596 -0.8184,-0.67 -1.7443,-0.58496 -2.5213,0.13934 -0.6651,0.61994 -1.0932,1.40782 -1.5351,2.18841 -0.6365,1.1242 -1.2499,2.26278 -2.2864,3.1015 -1.4622,1.18307 -3.1162,1.53738 -4.9447,1.24767 -3.8871,-0.6159 -6.5061,-2.92859 -8.3572,-6.25532 -1.371,-2.46388 -2.1639,-5.12502 -2.562,-7.90278 -0.5966,-4.16241 -0.3426,-8.27321 0.9538,-12.28486 0.6709,-2.07594 1.6994,-3.96111 3.4217,-5.38274 0.9612,-0.79342 2.042,-1.35205 3.2825,-1.56241 1.3774,-0.2336 2.7601,-0.32002 4.1582,-0.19952 1.3825,0.11917 2.5409,0.68171 3.5403,1.62528 0.8727,0.8242 1.583,1.78539 2.3289,2.71627 0.5617,0.70095 1.1275,1.40547 1.867,1.91861 1.0982,0.76197 2.2742,1.31621 3.6025,0.55873 0.9294,-0.52997 1.6214,-1.25811 1.6198,-2.43244 -0.01,-7.7284 0.018,-15.45708 -0.045,-23.18506 -0.029,-3.54556 -0.2373,-7.08961 -0.3604,-10.63448 -0.033,-0.94358 -0.026,-0.94789 0.9629,-0.98371 4.3069,-0.15601 8.6143,-0.29994 12.9209,-0.46595 7.1204,-0.27446 14.24,-0.56844 21.3604,-0.84016 1.5137,-0.0578 2.9711,0.2087 4.3126,0.9578 1.3064,0.7295 2.0257,2.0985 1.6738,3.29467 -0.2149,0.73087 -0.5461,1.41838 -1.0488,2.01434 -0.7343,0.87069 -1.6781,1.49805 -2.5334,2.22826 -0.5038,0.43022 -1.0188,0.84778 -1.5145,1.28717 -1.1643,1.03196 -1.8505,2.31899 -2.0305,3.8703 -0.2014,1.73679 -0.065,3.46162 0.4513,5.11621 0.6547,2.09917 2.1559,3.52911 4.0284,4.60225 1.718,0.98464 3.5778,1.56927 5.5105,1.92735 4.9192,0.91139 9.7787,0.69208 14.5172,-0.96836 2.9177,-1.02241 5.5363,-2.53252 7.4656,-5.05888 1.2565,-1.64517 1.8426,-3.53674 1.9748,-5.53771 0.1285,-1.94625 -0.5736,-3.63646 -2.1484,-4.89904 -0.7554,-0.60572 -1.5861,-1.08411 -2.4322,-1.54133 -0.7617,-0.41168 -1.4937,-0.86332 -2.0943,-1.49782 -0.7504,-0.79268 -0.8115,-1.67548 -0.1052,-2.49642 0.9504,-1.10486 2.0459,-1.93071 3.6004,-2.06923 2.5139,-0.22402 5.0296,-0.3369 7.5486,-0.27704 3.5458,0.0843 7.0913,0.20589 10.6344,0.36931 3.4439,0.15886 6.8847,0.38787 10.3265,0.59238 0.7755,0.0461 0.7791,0.0579 0.8172,0.89762 0.1171,2.58436 0.2295,5.16893 0.3467,7.75329 0.021,0.46987 -0.018,0.84121 0.5956,1.15873 0.6287,0.32535 1.0323,1.09488 1.0546,1.91369 0.016,0.59614 0.017,1.19296 0.012,1.78936 -0.01,1.10287 -0.2179,0.98727 1.0419,1.4113 1.2451,0.41917 2.5404,0.47193 3.8272,0.55925 2.3164,0.1572 4.6355,0.25783 6.96,0.17961 1.2958,-0.0436 2.5661,0.0857 3.8263,0.47762 2.5434,0.79087 5.1075,0.60164 7.6556,-0.0433 0.047,-0.012 0.077,-0.0893 0.1154,-0.13632 -0.028,-0.0543 -0.053,-0.15393 -0.084,-0.1559 -1.0761,-0.0683 -1.9428,-0.57963 -2.754,-1.24396 -0.6113,-0.5007 -1.2383,-0.93884 -2.0691,-1.10589 -0.6738,-0.13547 -1.2324,-0.66166 -1.6888,-1.17263 -0.8753,-0.97993 -1.7961,-1.96301 -1.7342,-3.4364 0.034,-0.80621 0.2213,-1.24167 1.0864,-2.32518 0.075,-0.0934 0.078,-0.24786 0.1029,-0.37619 0.076,-0.39032 0.1347,-0.78415 0.2203,-1.17219 0.1304,-0.59065 0.2412,-1.15599 1.1065,-1.04789 0.4363,0.0545 0.766,-0.34445 1.0756,-0.6482 0.3544,-0.34761 0.6651,-0.74571 1.1052,-0.99504 0.1662,-0.0941 0.3703,-0.22025 0.4443,0.10792 0.096,0.42649 0.3967,0.41224 0.6865,0.27401 0.603,-0.28763 0.9952,-0.0711 1.2248,0.4945 0.1186,-0.0582 0.211,-0.073 0.2259,-0.11532 0.3806,-1.07785 0.3735,-1.05982 1.4867,-0.72054 0.9506,0.28974 1.9167,0.52844 2.8747,0.79413 0.2524,0.07 0.5289,0.0854 0.7296,0.29374 -0.086,0.20158 -0.5351,0.2822 -0.1353,0.64041 1.1172,1.00105 0.8656,2.43716 1.1134,3.71371 -0.527,0.75405 -0.3101,1.5818 -0.2482,2.39748 0.01,0.12009 -0.051,0.26611 -0.1232,0.36832 -0.5221,0.73472 -0.4576,1.57996 -0.4337,2.40273 0.034,1.15366 1.1733,2.12616 2.2793,1.89568 0.7005,-0.14597 1.2528,0.0443 1.7495,0.45679 0.9414,0.78178 1.8179,1.62966 2.6815,2.50332 0.989,1.00055 1.7429,2.16396 2.5891,3.25263 0.9063,1.16587 1.7638,2.39708 2.4623,3.71662 0.6515,1.23093 1.571,2.28688 2.2744,3.48436 0.1163,0.19796 0.3411,0.34512 0.4165,0.55194 0.4577,1.25442 1.2831,2.30465 1.9376,3.44437 0.5427,0.94488 1.144,1.86652 1.5435,2.87273 0.4463,1.12389 1.3127,1.95697 1.8592,3.01896 0.581,1.12875 0.7364,2.32622 1.0408,3.50055 0.1642,0.63283 0.3061,1.28953 0.2687,1.96309 -0.019,0.3434 0.1803,0.63189 0.3125,0.93348 0.5714,1.30257 1.1464,2.60356 1.7353,3.9398 -0.676,0.36348 -1.3819,0.36285 -2.0503,0.50269 -0.7903,0.16537 -0.804,0.15885 -0.784,0.95284 0.045,1.79058 0.1177,3.58084 0.013,5.37156 -0.019,0.33086 0,0.67686 -0.092,0.98791 -0.1951,0.65692 -0.074,1.20533 0.2926,1.78483 0.3936,0.62182 0.515,1.36829 0.5431,2.09805 0.02,0.51485 0.2034,0.91122 0.6002,1.18766 1.1894,0.82851 2.0335,1.99184 2.967,3.05994 2.7291,3.12257 5.3435,6.33866 7.7353,9.73182 0.6156,0.87324 1.0846,1.81637 1.5592,2.76596 0.5323,1.06503 1.0297,2.15749 1.8175,3.07413 0.221,0.25708 0.2449,0.50487 0.056,0.81019 -0.6476,1.04894 -0.6304,1.21483 0.1134,2.15234 0.081,0.10181 0.1845,0.19751 0.053,0.38618 -0.316,-0.0346 -0.4192,-0.35013 -0.6172,-0.53473 -0.6202,-0.57794 -1.2902,-0.4776 -1.7161,0.26839 -0.1505,0.2637 -0.2023,0.55523 -0.2493,0.85295 -0.1086,0.68897 -0.2785,1.36214 -0.5545,2.00756 -1.2291,2.87396 -3.7054,3.81263 -6.2437,3.6058 -0.1632,-0.0133 -0.3299,-0.0453 -0.4833,-0.10093 -0.1494,-0.0541 -0.3396,-0.10091 -0.3676,-0.29326 -0.037,-0.2538 0.1665,-0.32377 0.3537,-0.39524 0.681,-0.25978 1.3634,-0.51592 2.0417,-0.78206 0.9599,-0.37654 1.0271,-0.59992 1.1404,-1.60465 0.1418,-1.25865 -0.2345,-2.41552 -0.5066,-3.59531 -0.1964,-0.85168 -0.6134,-1.59164 -1.2671,-2.21006 -0.6747,-0.63821 -1.2405,-1.36187 -1.5989,-2.25006 -0.1812,-0.44929 -0.5363,-0.83337 -0.8363,-1.22904 -1.8639,-2.45761 -3.9067,-4.7746 -5.7186,-7.27334 -0.058,-0.0805 -0.1257,-0.15486 -0.1807,-0.23752 -0.8987,-1.35045 -1.8881,-2.5792 -3.2687,-3.52242 -1.2225,-0.83526 -1.9621,-2.08988 -2.3295,-3.58743 -0.4741,-1.9327 -1.2449,-3.77447 -2.0469,-5.59641 -0.077,-0.17474 -0.1378,-0.37075 -0.3872,-0.48457 z m -18.6402,-34.42345 c 0.3267,-0.0184 0.6905,-0.0377 1.054,-0.0598 0.9917,-0.0604 1.9836,-0.11847 2.9746,-0.18677 0.1472,-0.0101 0.36,0.008 0.3384,-0.23903 -0.015,-0.16956 -0.095,-0.31902 -0.292,-0.34259 -0.1309,-0.0157 -0.2643,-0.0198 -0.3962,-0.0159 -0.5999,0.0178 -1.182,-0.0935 -1.7716,-0.19023 -1.7289,-0.28366 -3.4487,-0.70581 -5.2165,-0.61506 -2.3616,0.12121 -4.6826,-0.009 -6.9933,-0.59441 -2.404,-0.60909 -4.8949,-0.8236 -7.2941,-1.47961 -0.7342,-0.20074 -1.4759,-0.37559 -2.2041,-0.5957 -0.3994,-0.12077 -0.5284,0.0282 -0.5996,0.39607 -0.1853,0.95736 0.1419,1.59626 1.1103,1.92576 1.0343,0.35193 2.1035,0.58267 3.1873,0.73599 2.7253,0.38547 5.465,0.56097 8.2161,0.58706 0.9325,0.009 1.8441,0.15864 2.727,0.47527 0.6598,0.23664 1.3441,0.33578 2.0471,0.3369 1.0277,10e-4 2.053,-0.0316 3.1126,-0.13795 z" id="path15400" inkscape:connector-curvature="0" style="fill:#0f0f37;fill-opacity:1"/>
<path d="m 1442.7775,308.41826 c -0.4293,-0.0279 -0.651,0.20123 -0.9048,0.33583 -1.6704,0.88583 -3.3646,1.72208 -5.1185,2.42928 -1.0162,0.40969 -2.0491,0.77141 -3.1723,0.75062 -0.1943,-0.004 -0.3946,0.0476 -0.5842,0.10136 -3.0646,0.86907 -6.1959,1.40688 -9.3403,1.8777 -1.016,0.15213 -2.0317,0.30179 -3.0629,0.32776 -0.7759,0.0195 -0.7771,0.0407 -0.5506,0.82555 0.202,0.70024 0.3984,1.40233 0.6146,2.09822 0.6049,1.94706 -0.03,3.72343 -0.7491,5.48623 -0.2087,0.51146 -0.6775,0.72733 -1.1679,0.84043 -0.5765,0.13297 -0.9246,0.46749 -1.1349,0.99989 -0.2572,0.65092 -0.6536,1.22697 -1.0165,1.82068 -0.9064,1.48317 -1.4402,3.12657 -2.0259,4.74647 -0.1986,0.54919 -0.3618,1.09996 -1.1349,0.96985 -0.083,-0.014 -0.244,0.0371 -0.2629,0.0936 -0.2664,0.7933 -1.1314,1.1899 -1.288,2.08655 -0.1619,0.92637 -0.2516,1.92192 -1.0871,2.59304 -0.1009,0.081 -0.1009,0.30372 -0.1231,0.46415 -0.2728,1.96744 -0.5424,3.93533 -0.8092,5.90359 -0.045,0.33157 -0.1032,0.66626 -0.2757,0.94958 -1.0265,1.68614 -1.5981,3.56336 -2.2804,5.39317 -0.5685,1.52437 -1.24,2.99637 -2.0103,4.43115 -0.4843,0.90198 -0.8997,1.85154 -1.2426,2.81653 -0.5612,1.57947 -1.4436,2.96266 -2.416,4.30279 -0.078,0.10733 -0.1995,0.2044 -0.2272,0.32338 -0.3014,1.29408 -1.0392,2.38817 -1.6006,3.56343 -0.1415,0.29627 -0.237,0.61039 -0.4225,0.8923 -0.2909,0.44235 -0.5537,0.91062 -0.5345,1.4658 0.018,0.5301 -0.4991,0.78144 -0.6145,1.17371 -0.1035,0.35213 0.1505,0.77789 -0.1424,1.19998 -0.3434,0.49489 -0.8076,1.21014 -1.2452,1.53885 -0.2621,0.19694 -0.5,0.31807 -0.4859,0.75307 0.018,0.57835 -0.5493,0.83609 -0.9776,0.95135 -0.3841,0.10334 -0.5627,0.28013 -0.709,0.58237 -0.1153,0.23841 -0.2881,0.47166 -0.3229,0.72278 -0.2542,1.83571 -0.5761,3.67783 0.1259,5.49287 0.059,0.15297 0.1047,0.42396 0.1885,0.43724 0.8898,0.14077 0.6374,0.92193 0.8563,1.44214 0.2267,0.53877 0.4853,1.0543 0.6079,1.64037 0.081,0.3885 0.027,0.62672 -0.3546,0.62246 -1.3583,-0.0152 -2.7202,0.20203 -4.0732,-0.0171 -0.7738,-0.12531 -1.4407,-0.48266 -1.9314,-1.12268 -0.2017,-0.263 -0.3953,-0.5372 -0.6289,-0.76974 -0.6104,-0.60759 -0.6229,-1.3536 -0.5477,-2.1313 0.035,-0.36404 0.2278,-0.57828 0.5857,-0.49287 0.5493,0.13113 0.6802,-0.2178 0.8362,-0.60633 0.1897,-0.4723 0.2626,-0.93135 0.162,-1.44839 -0.1366,-0.70138 -0.065,-1.36653 0.4937,-1.93379 0.5248,-0.53259 0.5354,-1.26392 0.5566,-1.96274 0.02,-0.66205 0.075,-1.33415 -0.5575,-1.81362 -0.1735,-0.13149 -0.264,-0.37238 -0.4153,-0.59674 -1.255,1.10566 -2.2132,2.40774 -3.0199,3.82365 -0.1587,0.27844 -0.1873,0.63165 -0.2717,0.95149 -0.1267,0.47983 -0.1532,1.01717 -0.3945,1.42914 -0.4837,0.82571 -0.4965,1.56988 0.024,2.36595 0.1283,0.19642 0.2099,0.43358 0.4392,0.5048 0.374,0.11623 0.4619,0.41114 0.5941,0.72527 0.315,0.74819 0.1997,1.10139 -0.5895,1.25442 -1.0724,0.20796 -2.1568,0.39225 -3.2595,0.28299 -1.0744,-0.10644 -2.0734,-0.38903 -2.9087,-1.13903 -0.4659,-0.41836 -0.9662,-0.80777 -1.555,-1.06179 -0.3459,-0.14923 -0.5941,-0.42066 -0.7699,-0.75088 -0.3293,-0.6187 -0.1965,-1.05386 0.3971,-1.41269 0.7535,-0.45554 1.5048,-0.67553 2.3101,-0.11006 0.1865,0.13098 0.4182,0.19762 0.6596,0.30772 0.33,-0.16746 0.3327,-0.58912 0.6054,-0.83775 0.5106,-0.46554 0.5173,-0.6722 0.01,-1.13517 -0.5014,-0.45774 -0.7169,-1.0019 -0.8515,-1.63294 -0.1645,-0.77152 0.023,-1.36325 0.7114,-1.79093 1.1059,-0.68673 2.0397,-1.55672 2.912,-2.53269 1.0992,-1.2297 1.959,-2.58344 2.6144,-4.08101 0.1913,-0.43703 0.3119,-0.8431 0.2791,-1.38532 -0.048,-0.78609 0.497,-1.47274 1.1271,-1.99982 0.1481,-0.12391 0.4449,-0.11246 0.4703,-0.32737 0.1098,-0.9273 0.9676,-1.25948 1.4572,-1.88113 0.1018,-0.12918 0.2359,-0.23524 0.2791,-0.39874 0.1352,-0.5112 0.4279,-0.86617 0.9272,-1.07701 0.2791,-0.1178 0.3992,-0.42255 0.5815,-0.65709 0.587,-0.75515 1.1882,-1.52279 2.065,-1.95834 0.486,-0.24143 0.5364,-0.66174 0.578,-1.07051 0.094,-0.92266 0.1702,-1.85153 0.1733,-2.77814 0.01,-2.95336 -0.2008,-5.8977 -0.4279,-8.84057 -0.1555,-2.01417 -0.4145,-4.01892 -0.1337,-6.05143 0.3938,-2.85028 1.3553,-5.38722 3.6197,-7.30192 0.7806,-0.66011 1.4321,-1.47432 2.4132,-1.88901 0.2259,-0.0955 0.3954,-0.34681 0.566,-0.54754 0.8137,-0.95739 1.7161,-1.85935 2.3913,-2.90711 0.4218,-0.65464 1.033,-1.29149 1.0258,-2.17804 0,-0.0969 0.01,-0.21206 0.053,-0.28856 0.8885,-1.38157 0.8967,-2.98809 1.1411,-4.52872 0.088,-0.55659 0.1219,-1.09505 0.4336,-1.60255 0.332,-0.54062 0.3527,-1.20094 0.5009,-1.81046 0.2817,-1.159 0.5482,-2.32184 0.8076,-3.48607 0.1633,-0.73251 0.4843,-1.36879 1.0373,-1.88471 0.8305,-0.77481 1.431,-1.73675 2.1298,-2.61913 0.238,-0.30055 0.2481,-0.48729 -0.078,-0.72034 -0.4238,-0.3029 -0.8318,-0.49174 -1.3817,-0.33396 -0.4731,0.13576 -0.9737,0.21309 -1.4757,0.1507 -0.6904,-0.0858 -0.911,-0.34669 -0.9168,-1.04856 -0.01,-0.53371 0.3592,-1.07569 -0.035,-1.60484 -0.022,-0.0299 0.02,-0.13259 0.058,-0.1793 0.5554,-0.66969 0.2568,-1.20265 -0.1251,-1.87029 -0.7966,-1.39298 -0.4858,-2.81098 0.2514,-4.15647 0.094,-0.17217 0.2533,-0.30754 0.3631,-0.47277 1.4602,-2.19819 3.5865,-2.76054 6.0598,-2.47425 0.2303,0.0267 0.4597,0.0843 0.6898,0.0852 0.8735,0.004 1.4095,0.44859 1.7366,1.23166 0.1921,0.46 0.4971,0.86034 0.821,1.23989 0.1504,0.17615 0.3596,0.32973 0.3666,0.57514 0.017,0.61003 0.3812,0.91955 0.8638,1.22273 0.7134,0.44819 0.887,1.2039 0.8859,1.9963 0,1.24393 0.5552,2.29248 1.133,3.33637 0.1678,0.30321 0.3768,0.47853 0.7748,0.44821 0.7952,-0.0606 1.5899,0.0247 2.3783,0.14537 1.6992,0.26017 3.3173,-0.10205 4.842,-0.78959 0.9926,-0.4476 2.0036,-0.6847 3.0642,-0.76179 2.3522,-0.171 4.6744,-0.53471 6.981,-1.01401 0.7526,-0.1564 1.4523,-0.44653 2.1422,-0.78 0.3883,-0.18773 0.5285,-0.43674 0.4774,-0.86207 -0.083,-0.69053 -0.1289,-1.38581 -0.1797,-2.07986 -0.084,-1.15135 0.5291,-1.961 1.3355,-2.6658 0.2493,-0.2179 0.5742,-0.12291 0.8632,-0.1341 2.7493,-0.10653 5.4994,-0.19797 8.2491,-0.29785 3.1467,-0.1143 6.2955,-0.19169 9.4393,-0.36012 3.7398,-0.20035 7.483,-0.28514 11.2239,-0.43864 2.1835,-0.0896 4.3662,-0.21423 6.5524,-0.14881 1.077,0.0323 2.0828,0.3466 3.0347,0.85475 0.7658,0.4088 1.2979,1.01139 1.6348,1.80322 0.2169,0.50983 0.2556,1.02274 0.079,1.55127 -0.3652,1.09211 -0.9414,2.04028 -1.8499,2.77142 -0.9295,0.74809 -1.8496,1.5077 -2.777,2.25852 -1.9655,1.59139 -2.751,3.68408 -2.5404,6.15694 0.1147,1.34652 0.1876,2.70482 0.7836,3.97345 0.9534,2.02938 2.5792,3.32533 4.5204,4.29636 2.1344,1.06765 4.4331,1.54035 6.7784,1.8344 1.2507,0.15681 2.5045,0.21935 3.7669,0.21063 3.1806,-0.022 6.275,-0.54176 9.2397,-1.67916 2.6927,-1.03304 5.1146,-2.48713 6.9147,-4.83823 1.2584,-1.64369 1.8512,-3.5245 1.9883,-5.5305 0.1391,-2.03607 -0.6061,-3.76216 -2.2612,-5.04468 -0.7116,-0.55145 -1.4846,-0.998 -2.2728,-1.42283 -0.7617,-0.41058 -1.497,-0.85638 -2.1013,-1.48828 -0.7634,-0.79846 -0.7953,-1.74248 -0.055,-2.57758 0.9478,-1.06942 2.0368,-1.8415 3.5467,-1.97297 2.3812,-0.20734 4.7641,-0.31104 7.1502,-0.27357 2.7836,0.0437 5.5679,0.12255 8.3487,0.25494 4.2707,0.20332 8.5382,0.47276 12.8079,0.69712 1.0397,0.0546 0.9355,0.12068 0.9689,1.03966 0.1899,5.23224 0.403,10.46363 0.6055,15.69542 0.1821,4.7031 0.3659,9.40614 0.5374,14.10963 0.052,1.44366 -0.1482,2.84227 -0.8507,4.13728 -1.0346,1.9073 -2.7211,2.39298 -4.5986,1.30193 -0.9356,-0.54372 -1.6198,-1.35909 -2.2901,-2.18468 -0.6893,-0.84889 -1.3502,-1.7187 -2.1103,-2.51128 -1.1629,-1.21256 -2.5682,-1.86279 -4.2364,-1.90477 -1.8939,-0.0477 -3.778,-0.0108 -5.5393,0.85903 -1.3166,0.65012 -2.3336,1.62162 -3.1568,2.81171 -1.527,2.20758 -2.2339,4.71761 -2.6358,7.32821 -0.6718,4.36418 -0.4,8.66986 0.9954,12.86712 0.9864,2.96681 2.4539,5.65839 4.9576,7.65411 1.6856,1.34373 3.647,2.05805 5.771,2.18816 2.301,0.14094 4.1144,-0.86295 5.3904,-2.77688 0.5508,-0.82607 1.0295,-1.701 1.5236,-2.56367 0.2502,-0.43679 0.5582,-0.82364 0.9098,-1.17635 0.8721,-0.87506 1.8094,-0.9345 2.7379,-0.13577 1.0903,0.93804 1.8083,2.06763 1.9482,3.56314 0.1577,1.68681 0.22,3.37353 0.2317,5.06377 0.039,5.67184 -0.2334,11.33374 -0.5704,16.99309 -0.126,2.11752 -0.2637,4.23442 -0.4109,6.35059 -0.049,0.69813 -0.069,0.69956 -0.7492,0.72342 -0.265,0.009 -0.5306,0.002 -0.796,0.002 -30.3495,5e-5 -60.6989,10e-4 -91.0484,-0.004 -1.5854,-2.9e-4 -1.5069,0.25552 -1.3944,-1.49744 0.314,-4.89562 0.6174,-9.79212 0.7709,-14.69579 0.1193,-3.81031 0.2475,-7.62222 0.021,-11.43329 -0.041,-0.69385 -0.1266,-1.3864 -0.2213,-2.07546 -0.1945,-1.41484 -1.0649,-2.41045 -2.1466,-3.21926 -0.812,-0.60719 -1.6834,-0.4821 -2.4371,0.23686 -0.6315,0.60257 -1.0564,1.35429 -1.4803,2.10706 -0.5527,0.98156 -1.0727,1.9901 -1.8931,2.78774 -1.5498,1.50695 -3.4136,1.94382 -5.5048,1.58622 -3.6376,-0.62203 -6.1598,-2.76574 -7.9691,-5.86431 -1.5268,-2.61493 -2.3699,-5.46605 -2.7843,-8.4455 -0.5651,-4.06316 -0.2759,-8.07201 0.9731,-11.98606 0.653,-2.04688 1.663,-3.90135 3.3266,-5.33071 0.921,-0.79139 1.9621,-1.36891 3.1621,-1.58876 1.5024,-0.27526 3.0114,-0.42332 4.5475,-0.22285 1.3436,0.17533 2.4481,0.75954 3.4073,1.68662 1.0781,1.04205 1.9099,2.2908 2.8956,3.40996 0.7806,0.88623 1.6675,1.60809 2.8346,1.9296 1.702,0.46887 3.616,-0.92328 3.6194,-2.69092 0.013,-6.96543 0.01,-13.93092 0.01,-20.89638 0,-0.16326 -0.024,-0.32645 -0.041,-0.54429 z m -1.2005,-4.92399 c -0.2409,0.0901 -0.4298,0.14588 -0.6059,0.2289 -1.8008,0.84859 -3.6724,1.50548 -5.573,2.08893 -0.822,0.25237 -1.6462,0.51006 -2.4423,0.83218 -1.3737,0.55574 -2.8009,0.79532 -4.2679,0.80171 -0.969,0.004 -1.9126,0.12174 -2.8428,0.38483 -1.7896,0.50616 -3.5888,0.94163 -5.4754,0.70814 -0.1661,-0.0206 -0.3337,0.0128 -0.3623,0.24212 0.2883,0.27336 0.6664,0.25544 1.0211,0.2626 2.1524,0.0434 4.3049,0.0801 6.4576,0.10038 0.6973,0.007 1.4085,-0.04 2.0362,-0.3685 1.2407,-0.64925 2.5957,-0.75168 3.943,-0.90105 2.4119,-0.26742 4.7678,-0.76532 7.0157,-1.70076 1.3467,-0.56044 1.6044,-1.17144 1.096,-2.67948 z" id="path15402" inkscape:connector-curvature="0" style="fill:#0f0f37;fill-opacity:1"/>
</g></g>
<rect height="17.763229" id="rect5818-6-6-9-3-0" style="fill:#0039f0;fill-opacity:1;stroke:none;stroke-width:0.91443771;stroke-linecap:round;stroke-linejoin:bevel;stroke-miterlimit:4;stroke-dasharray:none;stroke-dashoffset:0;stroke-opacity:1" width="278.215" x="221.82033" y="560.66272"/>
<text id="fam_num" inkscape:label="#text5665-3-4-9-4-3-3-5-7-5-8-4-6-8-6-6-3-0-6-3" style="font-style:normal;font-weight:normal;line-height:0%;font-family:sans-serif;letter-spacing:0px;word-spacing:0px;fill:#000000;fill-opacity:1;stroke:none" x="232.24257" xml:space="preserve" y="578.73279"><tspan id="tspan5667-04-4-6-18-8-8-0-0-1-5-7-0-9-2-1-9-1-5-0" sodipodi:role="line" style="font-style:normal;font-variant:normal;font-weight:bold;font-stretch:normal;font-size:17.5px;line-height:1.25;font-family:STIX;-inkscape-font-specification:'STIX Bold';fill:#ffffff" x="232.24257" y="578.73279">3</tspan></text>
<rect height="15" id="ssfam_1_active" inkscape:label="#rect13148-3-0-9-3-80-7-7-3-3" style="fill:#ffffff;fill-opacity:1;stroke:none;stroke-width:5.83799982;stroke-linecap:round;stroke-linejoin:bevel;stroke-miterlimit:4;stroke-dasharray:none;stroke-dashoffset:0;stroke-opacity:1" transform="matrix(0,1,-1,0,0,0)" width="124.30313" x="431.19528" y="-510.96991"/>
<rect height="15" id="ssfam_2_active" inkscape:label="#rect13148-3-0-9-3-80-7-7-3-3" style="fill:#ffffff;fill-opacity:1;stroke:none;stroke-width:5.83799982;stroke-linecap:round;stroke-linejoin:bevel;stroke-miterlimit:4;stroke-dasharray:none;stroke-dashoffset:0;stroke-opacity:1;display:none;" transform="matrix(0,1,-1,0,0,0)" width="124.30313" x="270.72" y="-510.96991"/>
<rect height="15" id="ssfam_3_active" inkscape:label="#rect13148-3-0-9-3-80-7-7-3-3" style="fill:#ffffff;fill-opacity:1;stroke:none;stroke-width:5.83799982;stroke-linecap:round;stroke-linejoin:bevel;stroke-miterlimit:4;stroke-dasharray:none;stroke-dashoffset:0;stroke-opacity:1;display:none;" transform="matrix(0,1,-1,0,0,0)" width="124.30313" x="109.94095" y="-510.96991"/>
<text id="sfam_2" inkscape:label="#text4212-1-29-1-2-8-9-0-9-6-9-15-4-9-9-24-4-6-7-5-4-2-6-9" style="font-style:normal;font-variant:normal;font-weight:bold;font-stretch:normal;line-height:0%;font-family:stix;-inkscape-font-specification:'stix, bold';text-align:center;letter-spacing:0px;word-spacing:0px;writing-mode:lr-tb;text-anchor:middle;fill:#FFFFFF;fill-opacity:1;stroke:none" transform="rotate(-90)" x="-333.20343" xml:space="preserve" y="222.81581"><tspan id="tspan4214-27-1-2-9-7-6-4-1-1-1-9-8-7-7-0-88-0-1-6-8-0-3-2" sodipodi:role="line" style="font-style:normal;font-variant:normal;font-weight:bold;font-stretch:normal;line-height:0%;font-family:stix;-inkscape-font-specification:'stix, bold';text-align:center;letter-spacing:0px;word-spacing:0px;writing-mode:lr-tb;text-anchor:middle;fill:#FFFFFF;fill-opacity:1;stroke:none" x="-333.20343" y="222.81581">Comparaison
invalide</tspan></text>
<text id="ssfam_3" inkscape:label="#text4212-1-29-1-2-8-9-0-9-6-9-8-3-1-0-6-92-3-6-9-3-6-2-3-39-8-5" style="font-style:normal;font-variant:normal;font-weight:bold;font-stretch:normal;line-height:0%;font-family:stix;-inkscape-font-specification:'stix, bold';text-align:start;letter-spacing:0px;word-spacing:0px;writing-mode:lr-tb;text-anchor:start;fill:#FFFFFF;fill-opacity:1;stroke:none" transform="rotate(90)" x="112.96895" xml:space="preserve" y="-499.04208"><rect height="23.57143" id="rect13148-3-36-1-5-8-4" rx="12.181818" ry="9.7777777" style="fill:#ffffff;fill-opacity:1;stroke:none;stroke-width:5.83799982;stroke-linecap:round;stroke-linejoin:bevel;stroke-miterlimit:4;stroke-dasharray:none;stroke-dashoffset:0;stroke-opacity:1" width="143.57144" x="289.14221" y="83.512375"/><tspan id="tspan4214-27-1-2-9-7-6-4-1-1-1-3-9-59-96-1-318-6-04-1-7-5-8-9-0-1-9" sodipodi:role="line" style="font-style:normal;font-variant:normal;font-weight:bold;font-stretch:normal;line-height:0%;font-family:stix;-inkscape-font-specification:'stix, bold';text-align:start;letter-spacing:0px;word-spacing:0px;writing-mode:lr-tb;text-anchor:start;fill:#FFFFFF;fill-opacity:1;stroke:none" x="112.96895" y="-499.04208">Ambiguïté narrative</tspan></text>
<rect height="26.428572" id="rect13148-3-3-2-4-1-4-5" rx="8.4705887" ry="15" style="fill:#ffffff;fill-opacity:1;stroke:none;stroke-width:5.83799982;stroke-linecap:round;stroke-linejoin:bevel;stroke-miterlimit:4;stroke-dasharray:none;stroke-dashoffset:0;stroke-opacity:1" width="68.571434" x="326.64218" y="559.49841"/>
<text id="ssfam_2" inkscape:label="#text4212-1-29-1-2-8-9-0-9-6-9-15-7-7-8-9-7-6-1-0-8-29-4" style="font-style:normal;font-variant:normal;font-weight:bold;font-stretch:normal;line-height:0%;font-family:stix;-inkscape-font-specification:'stix, bold';text-align:center;letter-spacing:0px;word-spacing:0px;writing-mode:lr-tb;text-anchor:middle;fill:#FFFFFF;fill-opacity:1;stroke:none" transform="rotate(90)" x="332.53967" xml:space="preserve" y="-500.14215"><tspan id="tspan4214-27-1-2-9-7-6-4-1-1-1-9-41-5-8-6-2-8-2-8-38-3-6" sodipodi:role="line" style="font-style:normal;font-variant:normal;font-weight:bold;font-stretch:normal;line-height:0%;font-family:stix;-inkscape-font-specification:'stix, bold';text-align:center;letter-spacing:0px;word-spacing:0px;writing-mode:lr-tb;text-anchor:middle;fill:#FFFFFF;fill-opacity:1;stroke:none" x="332.53967" y="-500.14215">Ambiguïté
sémantique</tspan></text>
<text id="ssfam_1" inkscape:label="#text4212-1-29-1-2-8-9-0-9-6-9-17-63-3-97-3-6-4-4-8-73-9-92" style="font-style:normal;font-variant:normal;font-weight:bold;font-stretch:normal;line-height:0%;font-family:stix;-inkscape-font-specification:'stix, bold';text-align:end;letter-spacing:0px;word-spacing:0px;writing-mode:lr-tb;text-anchor:end;fill:#00071e;fill-opacity:1;stroke:none" transform="rotate(90)" x="552.16217" xml:space="preserve" y="-498.74182"><tspan id="tspan4214-27-1-2-9-7-6-4-1-1-1-85-85-5-76-3-4-8-7-5-1-0-2" sodipodi:role="line" style="font-style:normal;font-variant:normal;font-weight:bold;font-stretch:normal;line-height:0%;font-family:stix;-inkscape-font-specification:'stix, bold';text-align:end;letter-spacing:0px;word-spacing:0px;writing-mode:lr-tb;text-anchor:end;fill:#00071e;fill-opacity:1;stroke:none" x="552.16217" y="-498.74182">Ambiguïté syntaxique</tspan></text>
<rect height="26.428572" id="rect13148-3-3-2-4-1-4-5-3" rx="9.6044884" ry="15" style="fill:#ffffff;fill-opacity:1;stroke:none;stroke-width:5.83799982;stroke-linecap:round;stroke-linejoin:bevel;stroke-miterlimit:4;stroke-dasharray:none;stroke-dashoffset:0;stroke-opacity:1" width="77.750618" x="322.05258" y="83.512375"/>
<text id="text" inkscape:label="#text5516-78-3-4-89-9-1-3-6-2-4-3-9-5-3-7-7-2-6-1-6-5-0-5-7" style="font-style:normal;font-variant:normal;font-weight:bold;font-stretch:normal;line-height:0%;font-family:stix;-inkscape-font-specification:'stix bold';text-align:end;letter-spacing:0px;word-spacing:0px;text-anchor:end;fill:#001350;fill-opacity:1;stroke:none" x="360.1904" xml:space="preserve" y="103.33736"><tspan id="tspan7135" sodipodi:role="line" style="font-style:normal;font-variant:normal;font-weight:bold;font-stretch:normal;font-size:25px;line-height:100%;font-family:stix;-inkscape-font-specification:'stix bold';text-align:center;text-anchor:middle;fill:#001350;fill-opacity:1" x="360.1904" y="103.33736">Ambiguïté syntaxique</tspan><tspan id="tspan5338" sodipodi:role="line" style="font-style:normal;font-variant:normal;font-weight:bold;font-stretch:normal;font-size:25px;line-height:100%;font-family:stix;-inkscape-font-specification:'stix bold';text-align:center;text-anchor:middle;fill:#001350;fill-opacity:1" x="360.1904" y="128.33736"/></text>
<text id="sfam_1" inkscape:label="#text4212-1-29-1-2-8-9-0-9-6-9-17-4-1-5-6-8-7-5-1-12-0-9-54" style="font-style:normal;font-variant:normal;font-weight:bold;font-stretch:normal;line-height:0%;font-family:stix;-inkscape-font-specification:'stix, bold';text-align:start;letter-spacing:0px;word-spacing:0px;writing-mode:lr-tb;text-anchor:start;fill:#FFFFFF;fill-opacity:1;stroke:none" transform="rotate(-90)" x="-552.40967" xml:space="preserve" y="222.81581"><tspan id="tspan4214-27-1-2-9-7-6-4-1-1-1-85-8-3-3-2-9-0-8-7-9-6-4-0" sodipodi:role="line" style="font-style:normal;font-variant:normal;font-weight:bold;font-stretch:normal;line-height:0%;font-family:stix;-inkscape-font-specification:'stix, bold';text-align:start;letter-spacing:0px;word-spacing:0px;writing-mode:lr-tb;text-anchor:start;fill:#FFFFFF;fill-opacity:1;stroke:none" x="-552.40967" y="222.81581">Définition
incorrecte</tspan></text>
<text id="fam_text" style="font-style:normal;font-variant:normal;font-weight:bold;font-stretch:normal;line-height:0%;font-family:stix;-inkscape-font-specification:'stix, bold';text-align:center;letter-spacing:0px;word-spacing:0px;writing-mode:lr-tb;text-anchor:middle;fill:#00071e;fill-opacity:1;stroke:none" x="360.3353" xml:space="preserve" y="578.3678"><tspan id="tspan3846" sodipodi:role="line" style="font-style:normal;font-variant:normal;font-weight:bold;font-stretch:normal;font-size:15px;line-height:1.25;font-family:stix;-inkscape-font-specification:'stix, bold';text-align:center;writing-mode:lr-tb;text-anchor:middle;fill:#00071e;fill-opacity:1" x="360.3353" y="578.3678">Détournement
de la langue</tspan></text>
<flowRoot id="desc" inkscape:label="#flowRoot5388-1-9-2-7-9-4-63-8-65-6-8-7-2-3-5-4-9-17-61-1" style="font-style:normal;font-variant:normal;font-weight:bold;font-stretch:normal;line-height:0.01%;font-family:stix;-inkscape-font-specification:'stix bold';text-align:center;letter-spacing:0px;word-spacing:0px;text-anchor:middle;fill:#00071e;fill-opacity:1;stroke:none" transform="translate(351.61591,998.0622)" xml:space="preserve"><flowRegion id="flowRegion5390-2-2-5-6-3-9-94-3-6-8-8-5-1-8-5-4-6-9-15-2"><rect height="77.283951" id="rect5392-7-0-4-8-6-2-8-5-84-3-3-4-2-2-3-3-0-1-9-8" style="font-style:normal;font-variant:normal;font-weight:bold;font-stretch:normal;font-size:15px;line-height:100%;font-family:stix;-inkscape-font-specification:'stix bold';text-align:center;text-anchor:middle;fill:#0039f0;fill-opacity:1" width="264.06375" x="-123.22692" y="-557.27393"/></flowRegion><flowPara id="flowPara5394-0-2-4-9-0-06-12-6-8-2-1-8-0-3-8-0-7-0-8-9" style="font-style:normal;font-variant:normal;font-weight:bold;font-stretch:normal;font-size:15px;line-height:100%;font-family:stix;-inkscape-font-specification:'stix bold';text-align:center;text-anchor:middle;fill:#00071e;fill-opacity:1">La construction de votre phrase la rend équivoque.</flowPara></flowRoot> <flowRoot id="example" inkscape:label="#flowRoot5388-1-9-2-7-9-4-63-8-92-2-3-8-9-5-4-5-19-0-3-48-36" style="font-style:normal;font-variant:normal;font-weight:bold;font-stretch:normal;line-height:0.01%;font-family:stix;-inkscape-font-specification:'stix bold';text-align:center;letter-spacing:0px;word-spacing:0px;text-anchor:middle;fill:#00071e;fill-opacity:1;stroke:none" transform="translate(226.9528,539.72829)" xml:space="preserve"><flowRegion id="flowRegion5390-2-2-5-6-3-9-94-3-17-8-6-9-1-6-0-9-6-1-59-1-8"><rect height="45.008305" id="rect5392-7-0-4-8-6-2-8-5-7-1-2-6-5-5-9-91-21-0-4-0-0" style="font-style:normal;font-variant:normal;font-weight:bold;font-stretch:normal;font-size:15px;line-height:100%;font-family:stix;-inkscape-font-specification:'stix bold';text-align:center;text-anchor:middle;fill:#0039f0;fill-opacity:1;stroke-width:0.58746815" width="267.68024" x="0" y="-33.848248"/></flowRegion><flowPara id="flowPara5394-0-2-4-9-0-06-12-6-9-2-2-4-4-0-4-4-2-1-8-30-2" style="font-style:italic;font-variant:normal;font-weight:bold;font-stretch:normal;font-size:12.5px;line-height:100%;font-family:stix;-inkscape-font-specification:'stix bold italic';text-align:center;text-anchor:middle;fill:#00071e;fill-opacity:1">Je préfère le poulet aux olives.</flowPara></flowRoot> </g>
</svg>