<?xml version="1.0" encoding="utf-8"?>
<!-- Created with Inkscape (http://www.inkscape.org/) --><svg height="152.42821mm" id="svg6779" inkscape:version="0.92.2 (unknown)" sodipodi:docname="niveau4.svg" version="1.1" viewBox="0 0 338.49999 540.09995" width="95.532219mm" xmlns="http://www.w3.org/2000/svg" xmlns:cc="http://creativecommons.org/ns#" xmlns:dc="http://purl.org/dc/elements/1.1/" xmlns:inkscape="http://www.inkscape.org/namespaces/inkscape" xmlns:rdf="http://www.w3.org/1999/02/22-rdf-syntax-ns#" xmlns:sodipodi="http://sodipodi.sourceforge.net/DTD/sodipodi-0.dtd" xmlns:svg="http://www.w3.org/2000/svg">
<defs id="defs6781"/>
<sodipodi:namedview bordercolor="#666666" borderopacity="1.0" id="base" inkscape:current-layer="layer1" inkscape:cx="35.268966" inkscape:cy="467.89903" inkscape:document-units="px" inkscape:pageopacity="0.0" inkscape:pageshadow="2" inkscape:window-height="728" inkscape:window-maximized="1" inkscape:window-width="1366" inkscape:window-x="0" inkscape:window-y="21" inkscape:zoom="0.98994949" pagecolor="#ffffff" showgrid="false"/>
<metadata id="metadata6784">
<rdf:RDF>
<cc:Work rdf:about="">
<dc:format>image/svg+xml</dc:format>
<dc:type rdf:resource="http://purl.org/dc/dcmitype/StillImage"/>
<dc:title/>
</cc:Work>
</rdf:RDF>
</metadata>
<g id="layer1" inkscape:groupmode="layer" inkscape:label="Calque 1" transform="translate(0,0.23029041)">
<rect height="539.09998" id="rect4326-0-3-6-4-3-2-61-6-9-9-5-0-7-0-5-8-8-9-4-5-5" inkscape:export-xdpi="90" inkscape:export-ydpi="90" style="fill:#ffffff;fill-opacity:1;stroke:#000000;stroke-opacity:1" width="337.5" x="0.5" y="0.26970959"/>
<rect height="486.97104" id="rect2985-3-0-7-7-6-9-6-2-0-3-5-4-5-0-77-3-1-3-5-5-4-3-9-7-0-1-8-1" inkscape:export-filename="/home/thomas/Documents/fallacies/png/rect2985-3-0-7-7.png" inkscape:export-xdpi="90" inkscape:export-ydpi="90" rx="9.2935619" ry="7.1613393" style="fill:#ffffff;fill-opacity:1;stroke:#e42065;stroke-width:12;stroke-miterlimit:4;stroke-dasharray:none;stroke-dashoffset:0;stroke-opacity:1" width="285.0025" x="26.906189" y="26.612749"/>
<ellipse cx="169.40732" cy="279.7749" id="oval" inkscape:label="#path6246-7-6-6-9-7-6-9-3-1-1-722-4-6-4-7-1-9-6-2-0-7-5-4-6-9-9" rx="131.36859" ry="205.59465" style="fill:#e42065;fill-opacity:1;stroke:#e42065;stroke-width:1.01065052;stroke-opacity:1"/>
<rect height="15" id="sfam_3_active" inkscape:label="#rect13148-3-0-9-3-80-7-76-2" style="fill:#ffffff;fill-opacity:1;stroke:none;stroke-width:5.83799982;stroke-linecap:round;stroke-linejoin:bevel;stroke-miterlimit:4;stroke-dasharray:none;stroke-dashoffset:0;stroke-opacity:1" transform="rotate(90)" width="65.714287" x="50.147449" y="-34.050476"/>
<text id="sfam_3" inkscape:label="#text4212-1-29-1-2-8-9-0-9-6-9-8-3-1-0-6-8-0-4-2-3-6-9-3-6-2-6-4-2" style="font-style:normal;font-variant:normal;font-weight:bold;font-stretch:normal;font-size:12.00000095px;line-height:0%;font-family:'Liberation Serif';-inkscape-font-specification:'Liberation Serif, Bold';font-variant-ligatures:normal;font-variant-caps:normal;font-variant-numeric:normal;font-feature-settings:normal;text-align:end;letter-spacing:0px;word-spacing:0px;writing-mode:lr-tb;text-anchor:end;fill:#1b0603;fill-opacity:1;stroke:none" transform="rotate(-90)" x="-51.643555" xml:space="preserve" y="31.116638"><tspan id="tspan4214-27-1-2-9-7-6-4-1-1-1-3-9-59-96-1-6-2-1-8-8-2-7-4-5-4-7-3-9" sodipodi:role="line" style="font-style:normal;font-variant:normal;font-weight:bold;font-stretch:normal;font-size:12.00000095px;line-height:1.25;font-family:'Liberation Serif';-inkscape-font-specification:'Liberation Serif, Bold';font-variant-ligatures:normal;font-variant-caps:normal;font-variant-numeric:normal;font-feature-settings:normal;text-align:end;writing-mode:lr-tb;text-anchor:end;fill:#1b0603;fill-opacity:1;stroke:none" x="-51.643555" y="31.116638">Pensée biaisée</tspan></text>
<rect height="17.763229" id="rect5818-6-6-9-3-0-7" style="fill:#e42065;fill-opacity:1;stroke:none;stroke-width:0.91443771;stroke-linecap:round;stroke-linejoin:bevel;stroke-miterlimit:4;stroke-dasharray:none;stroke-dashoffset:0;stroke-opacity:1" width="278.215" x="30.299866" y="495.76239"/>
<text id="fam_num" inkscape:label="#text5665-3-4-9-4-3-3-5-7-5-8-4-6-8-6-6-3-0-6-3-4" style="font-style:normal;font-weight:normal;line-height:0%;font-family:sans-serif;letter-spacing:0px;word-spacing:0px;fill:#000000;fill-opacity:1;stroke:none" x="40.722107" xml:space="preserve" y="513.8327"><tspan id="tspan5667-04-4-6-18-8-8-0-0-1-5-7-0-9-2-1-9-1-5-0-3" sodipodi:role="line" style="font-style:normal;font-variant:normal;font-weight:bold;font-stretch:normal;font-size:17.5px;line-height:1.25;font-family:STIX;-inkscape-font-specification:'STIX Bold';fill:#ffffff" x="40.722107" y="513.8327">6</tspan></text>
<text id="sfam_2" inkscape:label="#text4212-1-29-1-2-8-9-0-9-6-9-15-4-9-9-24-4-6-7-5-4-2-6-9-5" style="font-style:normal;font-variant:normal;font-weight:bold;font-stretch:normal;line-height:0%;font-family:STIX;-inkscape-font-specification:'STIX Bold';letter-spacing:0px;word-spacing:0px;fill:#ffffff;fill-opacity:1;stroke:none" transform="rotate(-90)" x="-271.55652" xml:space="preserve" y="29.420349"><tspan id="tspan4214-27-1-2-9-7-6-4-1-1-1-9-8-7-7-0-88-0-1-6-8-0-3-2-6" sodipodi:role="line" style="font-style:normal;font-variant:normal;font-weight:bold;font-stretch:normal;font-size:10px;line-height:1.25;font-family:STIX;-inkscape-font-specification:'STIX Bold'" x="-271.55652" y="29.420349">Changement de cap</tspan></text>
<text id="sfam_1" inkscape:label="#text4212-1-29-1-2-8-9-0-9-6-9-17-4-1-5-6-8-7-5-1-12-0-9-54-1" style="font-style:normal;font-variant:normal;font-weight:bold;font-stretch:normal;line-height:0%;font-family:STIX;-inkscape-font-specification:'STIX Bold';letter-spacing:0px;word-spacing:0px;fill:#ffffff;fill-opacity:1;stroke:none" transform="rotate(-90)" x="-487.89233" xml:space="preserve" y="29.420349"><tspan id="tspan4214-27-1-2-9-7-6-4-1-1-1-85-8-3-3-2-9-0-8-7-9-6-4-0-4" sodipodi:role="line" style="font-style:normal;font-variant:normal;font-weight:bold;font-stretch:normal;font-size:10px;line-height:1.25;font-family:STIX;-inkscape-font-specification:'STIX Bold'" x="-487.89233" y="29.420349">Arranger les faits</tspan></text>
<text id="ssfam_3" inkscape:label="#text4212-1-29-1-2-8-9-0-9-6-9-8-3-1-0-6-92-3-6-9-3-6-2-3-39-8-5-0" style="font-style:normal;font-variant:normal;font-weight:bold;font-stretch:normal;font-size:12.00000095px;line-height:0%;font-family:'Liberation Serif';-inkscape-font-specification:'Liberation Serif, Bold';font-variant-ligatures:normal;font-variant-caps:normal;font-variant-numeric:normal;font-feature-settings:normal;text-align:start;letter-spacing:0px;word-spacing:0px;writing-mode:lr-tb;text-anchor:start;fill:#500000;fill-opacity:1;stroke:none" transform="rotate(90)" x="38.246761" xml:space="preserve" y="-309.22137"><tspan id="tspan4214-27-1-2-9-7-6-4-1-1-1-3-9-59-96-1-318-6-04-1-7-5-8-9-0-1-9-3" sodipodi:role="line" style="font-style:normal;font-variant:normal;font-weight:bold;font-stretch:normal;font-size:12.00000095px;line-height:1.25;font-family:'Liberation Serif';-inkscape-font-specification:'Liberation Serif, Bold';font-variant-ligatures:normal;font-variant-caps:normal;font-variant-numeric:normal;font-feature-settings:normal;text-align:start;writing-mode:lr-tb;text-anchor:start;fill:#ffffff;fill-opacity:1;stroke:none" x="38.246761" y="-309.22137">Exigence relâchée</tspan></text>
<text id="ssfam_2" inkscape:label="#text4212-1-29-1-2-8-9-0-9-6-9-15-7-7-8-9-7-6-1-0-8-29-4-1" style="font-style:normal;font-variant:normal;font-weight:bold;font-stretch:normal;line-height:0%;font-family:STIX;-inkscape-font-specification:'STIX Bold';letter-spacing:0px;word-spacing:0px;fill:#ffffff;fill-opacity:1;stroke:none" transform="rotate(90)" x="220.50974" xml:space="preserve" y="-309.22137"><tspan id="tspan4214-27-1-2-9-7-6-4-1-1-1-9-41-5-8-6-2-8-2-8-38-3-6-2" sodipodi:role="line" style="font-style:normal;font-variant:normal;font-weight:bold;font-stretch:normal;font-size:10px;line-height:1.25;font-family:STIX;-inkscape-font-specification:'STIX Bold'" x="220.50974" y="-309.22137">Beurre et argent du beurre</tspan></text>
<rect height="15" id="ssfam_1_active" inkscape:label="#rect13148-3-0-9-3-80-7-7-3-3-7" style="fill:#ffffff;fill-opacity:1;stroke:none;stroke-width:5.83799982;stroke-linecap:round;stroke-linejoin:bevel;stroke-miterlimit:4;stroke-dasharray:none;stroke-dashoffset:0;stroke-opacity:1" transform="rotate(90)" width="124.30313" x="339.23779" y="-319.44952"/>
<text id="ssfam_1" inkscape:label="#text4212-1-29-1-2-8-9-0-9-6-9-17-63-3-97-3-6-4-4-8-73-9-92-7" style="font-style:normal;font-variant:normal;font-weight:bold;font-stretch:normal;font-size:12.00000095px;line-height:0%;font-family:STIX;-inkscape-font-specification:'STIX, Bold';font-variant-ligatures:normal;font-variant-caps:normal;font-variant-numeric:normal;font-feature-settings:normal;text-align:end;letter-spacing:0px;word-spacing:0px;writing-mode:lr-tb;text-anchor:end;fill:#1b0603;fill-opacity:1;stroke:none" transform="rotate(90)" x="462.18921" xml:space="preserve" y="-308.55173"><tspan id="tspan4214-27-1-2-9-7-6-4-1-1-1-85-85-5-76-3-4-8-7-5-1-0-2-9" sodipodi:role="line" style="font-style:normal;font-variant:normal;font-weight:bold;font-stretch:normal;font-size:12.00000095px;line-height:1.25;font-family:STIX;-inkscape-font-specification:'STIX, Bold';font-variant-ligatures:normal;font-variant-caps:normal;font-variant-numeric:normal;font-feature-settings:normal;text-align:end;writing-mode:lr-tb;text-anchor:end;fill:#1b0603;fill-opacity:1" x="462.18921" y="-308.55173">Exigence renforcée</tspan></text>
<rect height="23.57143" id="rect13148-3-36-1-5-8-4-8" rx="8.7534218" ry="9.7777777" style="fill:#ffffff;fill-opacity:1;stroke:none;stroke-width:5.83799982;stroke-linecap:round;stroke-linejoin:bevel;stroke-miterlimit:4;stroke-dasharray:none;stroke-dashoffset:0;stroke-opacity:1" width="103.16534" x="118.54767" y="18.612719"/>
<text id="text" inkscape:label="#text5516-78-3-4-89-9-1-3-6-2-4-3-9-5-3-7-7-2-6-1-6-5-0-5-7-1" style="font-style:normal;font-variant:normal;font-weight:bold;font-stretch:normal;line-height:0%;font-family:STIX;-inkscape-font-specification:'STIX Bold';text-align:center;letter-spacing:0px;word-spacing:0px;writing-mode:lr-tb;text-anchor:middle;fill:#490f07;fill-opacity:1;stroke:none" x="169.24466" xml:space="preserve" y="39.097687"><tspan id="tspan9035" sodipodi:role="line" style="font-style:normal;font-variant:normal;font-weight:bold;font-stretch:normal;font-size:25px;line-height:100%;font-family:STIX;-inkscape-font-specification:'STIX Bold';text-align:center;writing-mode:lr-tb;text-anchor:middle;fill:#490f07;fill-opacity:1" x="169.24466" y="39.097687">Langue de bois</tspan><tspan id="tspan5336" sodipodi:role="line" style="font-style:normal;font-variant:normal;font-weight:bold;font-stretch:normal;font-size:25px;line-height:100%;font-family:STIX;-inkscape-font-specification:'STIX Bold';text-align:center;writing-mode:lr-tb;text-anchor:middle;fill:#490f07;fill-opacity:1" x="169.24466" y="64.097687"/></text>
<rect height="26.428572" id="rect13148-3-3-2-4-1-4-5-6" rx="8.4705887" ry="15" style="fill:#ffffff;fill-opacity:1;stroke:none;stroke-width:5.83799982;stroke-linecap:round;stroke-linejoin:bevel;stroke-miterlimit:4;stroke-dasharray:none;stroke-dashoffset:0;stroke-opacity:1" width="68.571434" x="135.12161" y="494.59808"/>
<text id="fam_text" inkscape:label="#text4212-1-29-1-2-8-9-0-9-67-9-6-3-5-23-0-1-7-3-2-3-4-7-8-8-8-4-0" style="font-style:normal;font-variant:normal;font-weight:bold;font-stretch:normal;font-size:12.00000095px;line-height:0%;font-family:'Liberation Serif';-inkscape-font-specification:'Liberation Serif, Bold';font-variant-ligatures:normal;font-variant-caps:normal;font-variant-numeric:normal;font-feature-settings:normal;text-align:center;letter-spacing:0px;word-spacing:0px;writing-mode:lr-tb;text-anchor:middle;fill:#1b0603;fill-opacity:1;stroke:none" x="164.26151" xml:space="preserve" y="511.59271"><tspan id="tspan4214-27-1-2-9-7-6-4-1-5-2-3-65-0-7-6-31-5-8-5-4-6-0-1-0-5-8-1" sodipodi:role="line" style="font-style:normal;font-variant:normal;font-weight:bold;font-stretch:normal;font-size:12.00000095px;line-height:1.25;font-family:'Liberation Serif';-inkscape-font-specification:'Liberation Serif, Bold';font-variant-ligatures:normal;font-variant-caps:normal;font-variant-numeric:normal;font-feature-settings:normal;text-align:center;writing-mode:lr-tb;text-anchor:middle;fill:#1b0603;fill-opacity:1" x="164.26151" y="511.59271">Tricherie</tspan></text>
<flowRoot id="desc" inkscape:label="#flowRoot5388-1-9-2-7-9-4-63-8-65-6-8-7-2-3-5-4-9-17-61-1-0" style="font-style:normal;font-variant:normal;font-weight:bold;font-stretch:normal;line-height:0.01%;font-family:STIX;-inkscape-font-specification:'STIX Bold';text-align:center;letter-spacing:0px;word-spacing:0px;text-anchor:middle;fill:#1b0603;fill-opacity:1;stroke:none" transform="translate(161.20564,945.16255)" xml:space="preserve"><flowRegion id="flowRegion5390-2-2-5-6-3-9-94-3-6-8-8-5-1-8-5-4-6-9-15-2-2"><rect height="77.283951" id="rect5392-7-0-4-8-6-2-8-5-84-3-3-4-2-2-3-3-0-1-9-8-5" style="font-style:normal;font-variant:normal;font-weight:bold;font-stretch:normal;font-size:15px;line-height:100%;font-family:stix;-inkscape-font-specification:'stix bold';text-align:center;text-anchor:middle;fill:#e42065;fill-opacity:1" width="264.06375" x="-123.22692" y="-557.27393"/></flowRegion><flowPara id="flowPara5394-0-2-4-9-0-06-12-6-8-2-1-8-0-3-8-0-7-0-8-9-1" style="font-style:normal;font-variant:normal;font-weight:bold;font-stretch:normal;font-size:15px;line-height:100%;font-family:STIX;-inkscape-font-specification:'STIX Bold';text-align:center;text-anchor:middle;fill:#1b0603;fill-opacity:1">Vous énoncez des généralités vagues en guise d'opinion personnelle.</flowPara></flowRoot> <flowRoot id="example" inkscape:label="#flowRoot5388-1-9-2-7-9-4-63-8-92-2-3-8-9-5-4-5-19-0-3-48-36-9" style="font-style:normal;font-variant:normal;font-weight:bold;font-stretch:normal;line-height:0.01%;font-family:STIX;-inkscape-font-specification:'STIX Bold';text-align:center;letter-spacing:0px;word-spacing:0px;text-anchor:middle;fill:#1b0603;fill-opacity:1;stroke:none" transform="translate(158.93154,1003.4804)" xml:space="preserve"><flowRegion id="flowRegion5390-2-2-5-6-3-9-94-3-17-8-6-9-1-6-0-9-6-1-59-1-8-7"><rect height="48.063705" id="rect5392-7-0-4-8-6-2-8-5-7-1-2-6-5-5-9-91-21-0-4-0-0-1" style="font-style:normal;font-variant:normal;font-weight:bold;font-stretch:normal;font-size:15px;line-height:100%;font-family:stix;-inkscape-font-specification:'stix bold';text-align:center;text-anchor:middle;fill:#e42065;fill-opacity:1;stroke-width:0.57831079" width="267.68024" x="-123.22692" y="-557.27393"/></flowRegion><flowPara id="flowPara5394-0-2-4-9-0-06-12-6-9-2-2-4-4-0-4-4-2-1-8-30-2-3" style="font-style:italic;font-variant:normal;font-weight:bold;font-stretch:normal;font-size:12.5px;line-height:100%;font-family:STIX;-inkscape-font-specification:'STIX Bold Italic';text-align:center;text-anchor:middle;fill:#1b0603;fill-opacity:1">Votre colère est légitime mais il est important que tout le monde se serre la ceinture.</flowPara></flowRoot> <g id="illustration" inkscape:groupmode="layer" inkscape:label="#illustration" transform="translate(-6.802157,-67.336793)"><g id="827" inkscape:label="#g7743" transform="translate(-143.08349,-821.1482)">
<path d="m 329.24659,1257.8651 c 33.40035,5.8264 106.87928,-6.9665 70.13454,-53.5326 -32.42511,-20.2482 -61.82068,-44.5498 -89.26183,-68.9962 -33.33205,5.4882 -65.5037,-27.833 -95.43228,-5.1443 -26.40965,19.1137 -48.53427,56.965 -17.43042,83.1601 12.663,30.1683 39.60743,63.4798 76.81406,53.3734 18.56767,-11.1884 34.40768,-38.8021 55.17593,-8.8604 z" id="path5476" inkscape:connector-curvature="0" style="fill:#ffffff;fill-opacity:1;fill-rule:evenodd;stroke:none;stroke-width:1px;stroke-linecap:butt;stroke-linejoin:miter;stroke-opacity:1"/>
<g id="g7506" style="fill:#47091f;fill-opacity:1" transform="matrix(0.19261,-0.22218222,0.22218222,0.19261,315.73024,1080.5117)">
<path d="m -1771.2,-829.99 c 0,0 1.7927,-50.196 51.989,-60.952 50.1963,-10.756 75.294,-26.891 114.73,-51.989 39.44,-25.098 93.221,-19.72 138.04,-32.269 44.818,-12.549 118.32,57.367 166.72,78.879 48.403,21.513 130.87,28.683 121.9,44.818 -8.9636,16.134 -64.538,41.232 -138.04,41.232 -73.501,0 -93.221,-37.647 -121.9,-21.513 -28.683,16.134 -66.33,37.647 -129.08,26.891 -62.745,-10.756 -69.916,-23.305 -103.98,-7.1709 -34.062,16.134 -73.501,32.269 -100.39,28.683 -26.891,-3.5854 0,-46.611 0,-46.611 z" id="path3099" inkscape:connector-curvature="0" style="fill:#47091f;fill-opacity:1" transform="matrix(0.404759,0.36159567,-0.36159567,0.404759,257.26974,830.10501)"/>
<path d="m -103.57141,370.72526 c 8.692557,-28.75488 29.405605,-57.22223 60.575158,-61.38003 30.608965,-7.40044 56.769232,-33.23877 90.673711,-24.56729 35.489277,13.9709 67.919271,-13.94869 102.596311,-20.19364 15.98624,-23.18949 74.60018,-11.81776 68.13667,-43.39679 -28.27434,11.66815 -58.28794,30.84262 -86.94605,48.32822 -27.73706,21.44826 -68.58922,15.62679 -95.811597,-2.84662 -22.641595,-32.6192 26.771749,-52.28223 52.636695,-56.75211 30.444622,2.66645 53.448332,-27.37218 85.285952,-21.72664 29.27726,7.39602 57.23814,-26.22158 84.50335,-6.35333 6.06648,6.73499 47.09167,25.74013 37.4647,12.80587 -25.52982,-5.50071 -62.74567,-31.57761 -22.67256,-49.35763 13.85753,-5.7622 40.14214,-56.781906 11.5622,-27.74674 -16.47994,26.34194 -45.11527,42.84524 -74.66804,43.38285 -17.29363,11.13739 -45.17739,12.57 -63.47863,9.81065 3.72053,-36.51552 14.80183,-70.959818 28.46988,-104.93648 1.06298,-31.997762 13.25078,-60.0388786 27.45899,-86.60361 4.53443,-15.758223 -13.11252,-40.535117 -17.55196,-12.984201 -9.62655,27.6691205 -10.7338,57.600298 -20.32627,84.906088 -5.65379,30.303057 -13.94033,59.941413 -23.86462,89.338353 0.99232,36.38591 -36.26023,33.51083 -58.186151,51.96676 C 61.906712,213.6283 21.332506,193.79328 48.840415,168.13469 68.640303,133.73621 53.959163,90.519101 26.903332,64.686293 -2.6357568,45.280756 23.272065,8.1676206 39.024533,-12.180098 l 34.515438,-38.635514 c 3.545667,-15.850595 3.792105,-32.373725 -6.852412,-9.738706 C 51.213025,-43.01386 41.089349,-21.258497 23.409493,-5.6591109 13.154746,6.9145092 -4.4313418,45.76865 -9.5534708,10.043801 -22.248925,-20.781038 -49.168881,-41.799896 -69.900714,-67.304177 c -20.931622,-5.130766 12.087269,27.350351 20.231306,38.180417 16.3123,22.2858683 21.381346,48.957177 39.142677,71.010136 14.762321,26.016321 43.030293,43.160673 48.478354,74.412134 -1.363338,31.23456 -11.598479,63.2844 -10.599546,95.43306 -12.695148,28.39129 -42.498172,36.77447 -70.716516,40.64811 -24.085842,12.2518 -67.255361,-18.344 -54.525586,-43.82035 18.926367,-37.02905 25.752165,-78.80662 30.222141,-119.775639 3.724572,-17.043338 -10.906412,-39.862049 -16.679163,-11.636439 12.007729,28.986098 -0.420299,60.594948 -11.814098,87.955748 -13.538545,23.30445 -31.953075,53.82664 -14.390565,79.85885 15.864502,12.19998 37.923415,37.50173 9.7514,47.2703 -27.30434,9.32871 -43.34341,34.95066 -69.30052,43.49529 -26.52901,20.56977 -72.02072,-1.31226 -88.44176,33.43686 17.45973,65.14326 117.31219,28.82325 154.97118,1.56096 z" id="path3081" inkscape:connector-curvature="0" sodipodi:nodetypes="ccccccccccccccccccccccccccccccccccccccccccc" style="fill:#47091f;fill-opacity:1;stroke:#000000;stroke-width:0.91145533px"/>
<path d="m -1771.2,-829.99 c 0,0 1.7927,-50.196 51.989,-60.952 50.1963,-10.756 75.294,-26.891 114.73,-51.989 39.44,-25.098 93.221,-19.72 138.04,-32.269 44.818,-12.549 118.32,57.367 166.72,78.879 48.403,21.513 130.87,28.683 121.9,44.818 -8.9636,16.134 -64.538,41.232 -138.04,41.232 -73.501,0 -93.221,-37.647 -121.9,-21.513 -28.683,16.134 -66.33,37.647 -129.08,26.891 -62.745,-10.756 -69.916,-23.305 -103.98,-7.1709 -34.062,16.134 -73.501,32.269 -100.39,28.683 -26.891,-3.5854 0,-46.611 0,-46.611 z" id="path3087" inkscape:connector-curvature="0" style="fill:#47091f;fill-opacity:1" transform="matrix(-0.25828638,-0.23074282,-0.23074282,0.25828638,-287.61666,-1.2491092)"/>
<path d="m -1771.2,-829.99 c 0,0 1.7927,-50.196 51.989,-60.952 50.1963,-10.756 75.294,-26.891 114.73,-51.989 39.44,-25.098 93.221,-19.72 138.04,-32.269 44.818,-12.549 118.32,57.367 166.72,78.879 48.403,21.513 130.87,28.683 121.9,44.818 -8.9636,16.134 -64.538,41.232 -138.04,41.232 -73.501,0 -93.221,-37.647 -121.9,-21.513 -28.683,16.134 -66.33,37.647 -129.08,26.891 -62.745,-10.756 -69.916,-23.305 -103.98,-7.1709 -34.062,16.134 -73.501,32.269 -100.39,28.683 -26.891,-3.5854 0,-46.611 0,-46.611 z" id="path3093" inkscape:connector-curvature="0" style="fill:#47091f;fill-opacity:1" transform="matrix(0.25828638,0.23074282,-0.23074282,0.25828638,100.213,669.49604)"/>
<path d="m -1771.2,-829.99 c 0,0 1.7927,-50.196 51.989,-60.952 50.1963,-10.756 75.294,-26.891 114.73,-51.989 39.44,-25.098 93.221,-19.72 138.04,-32.269 44.818,-12.549 118.32,57.367 166.72,78.879 48.403,21.513 130.87,28.683 121.9,44.818 -8.9636,16.134 -64.538,41.232 -138.04,41.232 -73.501,0 -93.221,-37.647 -121.9,-21.513 -28.683,16.134 -66.33,37.647 -129.08,26.891 -62.745,-10.756 -69.916,-23.305 -103.98,-7.1709 -34.062,16.134 -73.501,32.269 -100.39,28.683 -26.891,-3.5854 0,-46.611 0,-46.611 z" id="path3105" inkscape:connector-curvature="0" style="fill:#47091f;fill-opacity:1" transform="matrix(-0.22916043,-0.20472285,-0.20472285,0.22916043,-296.25163,147.55138)"/>
<path d="m -1301.5,-894.53 c -26.891,-34.062 -59.16,-69.916 -75.294,-68.123 -16.134,1.7927 -159.55,-17.927 -191.82,-19.72 -32.269,-1.7927 -95.014,46.611 -132.66,71.709 -37.647,25.098 14.342,21.513 39.44,43.025 25.098,21.513 62.745,46.611 111.15,53.781 48.403,7.1708 28.684,10.756 80.672,5.3781 51.989,-5.3781 89.636,0 127.28,3.5854 37.647,3.5854 68.123,14.342 82.465,-8.9636 14.342,-23.305 -41.232,-80.672 -41.232,-80.672 z" id="path3109-9" inkscape:connector-curvature="0" style="fill:#47091f;fill-opacity:1" transform="matrix(-0.33906417,-0.30290651,-0.20472285,0.22916043,-487.67049,-297.31247)"/>
<path d="m -1771.2,-829.99 c 0,0 1.7927,-50.196 51.989,-60.952 50.1963,-10.756 75.294,-26.891 114.73,-51.989 39.44,-25.098 93.221,-19.72 138.04,-32.269 44.818,-12.549 118.32,57.367 166.72,78.879 48.403,21.513 130.87,28.683 121.9,44.818 -8.9636,16.134 -64.538,41.232 -138.04,41.232 -73.501,0 -93.221,-37.647 -121.9,-21.513 -28.683,16.134 -66.33,37.647 -129.08,26.891 -62.745,-10.756 -69.916,-23.305 -103.98,-7.1709 -34.062,16.134 -73.501,32.269 -100.39,28.683 -26.891,-3.5854 0,-46.611 0,-46.611 z" id="path3117" inkscape:connector-curvature="0" style="fill:#47091f;fill-opacity:1" transform="matrix(0.19570466,0.1748348,-0.10524579,0.11780888,280.30223,296.48802)"/>
<path d="m -1771.2,-829.99 c 0,0 1.7927,-50.196 51.989,-60.952 50.1963,-10.756 75.294,-26.891 114.73,-51.989 39.44,-25.098 93.221,-19.72 138.04,-32.269 44.818,-12.549 118.32,57.367 166.72,78.879 48.403,21.513 130.87,28.683 121.9,44.818 -8.9636,16.134 -64.538,41.232 -138.04,41.232 -73.501,0 -93.221,-37.647 -121.9,-21.513 -28.683,16.134 -66.33,37.647 -129.08,26.891 -62.745,-10.756 -69.916,-23.305 -103.98,-7.1709 -34.062,16.134 -73.501,32.269 -100.39,28.683 -26.891,-3.5854 0,-46.611 0,-46.611 z" id="path3123" inkscape:connector-curvature="0" style="fill:#47091f;fill-opacity:1" transform="matrix(-0.25687257,-0.22947978,-0.38251488,0.42817532,-605.7983,344.6529)"/>
<path d="m -128.15191,561.44767 c 3.57585,-7.18873 3.83255,-14.25985 1.73043,-47.6658 -1.14277,-18.16029 -1.01065,-26.56479 0.611,-38.86876 l 1.356,-10.28836 -4.11928,-8.47227 c -4.99953,-10.28274 -9.31339,-24.56294 -14.48056,-47.93508 -9.17723,-41.51047 -12.42304,-69.41619 -12.15536,-104.50496 0.15438,-20.23807 -0.29215,-25.15573 -3.50374,-38.58657 -1.83891,-7.6903 -2.40642,-13.28801 -1.9885,-19.61383 0.32166,-4.86871 1.05901,-16.17102 1.63857,-25.11624 0.57955,-8.94522 1.79321,-20.98845 2.69702,-26.76274 1.14467,-7.31312 1.21977,-11.78689 0.2475,-14.74417 l -1.39578,-4.24546 6.92198,-5.08659 c 8.51897,-6.26012 14.56834,-13.20947 18.37564,-21.10947 6.64523,-13.78856 3.31265,-19.55605 -21.93165,-37.95565 -16.49255,-12.02078 -23.16045,-18.433637 -25.54406,-24.566982 -2.32565,-5.984201 -2.77069,-17.847768 -1.21343,-32.347212 1.85813,-17.300984 1.75555,-17.954246 -4.06975,-25.917668 -5.35349,-7.318324 -5.78682,-8.753182 -5.26807,-17.440903 0.79443,-13.3046871 -1.33303,-16.5972966 -16.08394,-24.892551 -5.22029,-2.935654 -10.456,-6.158012 -11.63493,-7.160802 -1.17893,-1.002788 -4.60562,-6.30199 -7.61495,-11.77596 -15.83206,-28.799013 -38.89061,-57.408612 -68.0107,-84.383452 -24.4559,-22.65424 -27.81965,-24.45809 -52.79372,-28.31124 -36.09768,-5.56937 -79.37001,-4.37563 -121.36213,3.34795 -34.1988,6.29017 -63.73079,16.26681 -88.04801,29.74479 -14.10731,7.81908 -38.50844,26.243578 -47.6019,35.942641 -7.98691,8.518838 -14.76209,18.404228 -18.35747,26.784672 -3.43666,8.010468 -15.11328,49.0298408 -24.3748,85.627471 -7.47431,29.535313 -13.45263,67.131476 -13.20867,83.066076 0.41785,27.29279 8.59875,56.08439 24.33958,85.65992 6.38075,11.98882 30.57157,44.49781 41.19289,55.35729 15.87627,16.23229 31.63971,29.92298 48.4541,42.08278 10.0251,7.24994 16.95778,10.06678 22.75597,9.24607 2.79124,-0.39509 2.96939,-0.23067 9.68648,8.94065 11.1292,15.19467 15.42762,16.089 30.16476,6.27358 l 8.63647,-5.75218 2.71596,3.73607 c 5.2518,7.22445 15.06996,23.93681 18.01208,30.65992 3.2604,7.45042 6.41606,21.49804 6.67392,29.70944 0.36561,11.64189 1.88468,16.11046 13.65149,40.15787 3.47216,7.09596 7.24511,14.17472 8.38431,15.7306 2.54932,3.48173 10.48725,8.23504 29.5691,17.70624 8.06717,4.00411 17.26773,8.97981 20.44571,11.05712 6.5032,4.25087 26.09454,21.64576 44.93569,39.89782 16.50775,15.99161 22.02996,23.57447 33.341,45.78239 10.15359,19.9354 15.20628,26.67524 28.26239,37.69951 10.57866,8.93234 17.4088,13.33688 23.9341,15.43431 9.2803,2.98297 24.57685,3.32558 42.52372,0.95244 11.60753,-1.53489 17.41616,-5.0668 30.16427,-18.34124 9.82207,-10.22761 10.37824,-10.5962 24.05913,-15.94487 10.80021,-4.22244 17.08756,-8.39875 19.28016,-12.80664 z m -29.42338,2.97913 c -15.73943,5.43598 -14.84831,4.85292 -23.97951,15.68975 -12.39398,14.70909 -13.93919,15.51711 -30.57672,15.989 -34.84228,0.98822 -55.20531,-13.10857 -72.46663,-50.16675 -5.36912,-11.5269 -6.94294,-14.09383 -14.42255,-23.52336 -11.41682,-14.39317 -49.97878,-51.14354 -62.85053,-59.89788 -7.7175,-5.24884 -9.87897,-7.2913 -17.39729,-16.43951 -7.5017,-9.12798 -9.48235,-11.00178 -15.69718,-14.85035 -8.73785,-5.41098 -15.39943,-11.95423 -24.39475,-23.96147 l -6.89546,-9.20427 2.43711,-2.17282 c 1.45647,-1.29853 2.10964,-2.62007 1.62326,-3.28435 -1.23397,-1.6853 -2.31412,-1.26543 -5.55598,2.15966 -1.63015,1.72228 -3.02771,3.04428 -3.10569,2.93777 -1.07784,-1.47206 -2.94138,-10.81035 -3.44423,-17.25914 -1.82975,-23.46569 -7.8682,-38.76835 -24.01141,-60.84977 -7.39295,-10.11217 -7.43128,-10.97224 -0.4694,-10.50162 3.66745,0.24791 3.96485,0.47496 5.59358,4.27035 0.94611,2.20467 4.12022,6.99488 7.05358,10.6449 5.02699,6.25513 5.94241,6.93777 15.93361,11.88207 l 10.6002,5.24567 10.85706,14.97939 c 11.53074,15.90897 17.3325,25.77179 23.09245,39.25671 4.30371,10.0756 6.30589,12.10833 15.31852,15.55221 3.76428,1.43839 6.92602,2.72708 7.02608,2.86374 0.10007,0.13667 -0.99399,1.8028 -2.43125,3.7025 -1.77364,2.34434 -3.11682,6.49192 -4.18081,12.90991 -1.92131,11.58937 -0.87591,13.73385 7.20371,14.7772 3.81591,0.49278 5.60392,1.25155 6.13862,2.60506 1.20519,3.05075 6.54387,5.03847 12.02645,4.47775 l 5.06689,-0.5182 1.73712,4.57018 c 0.95541,2.51359 2.31888,6.58468 3.02994,9.04685 2.68705,9.30447 6.24957,11.49556 13.86355,8.52665 3.79464,-1.47965 4.24481,-1.39667 6.08922,1.12233 1.0954,1.49604 3.3639,6.91485 5.04111,12.04178 1.7148,5.24182 4.06368,10.48718 5.36673,11.98461 1.98995,2.28675 2.93703,2.53959 6.70472,1.78992 3.86151,-0.76833 4.64578,-0.54037 6.5424,1.90164 3.7344,4.80827 13.47639,13.98077 14.86091,13.99219 0.73022,0.006 4.11535,-0.99562 7.52252,-2.22587 5.4762,-1.97733 6.27746,-1.9996 6.90694,-0.19195 0.39165,1.12467 1.61658,3.70398 2.72208,5.73178 1.84689,3.38777 2.26755,3.64451 5.18463,3.16434 1.74605,-0.28741 5.02583,-1.59442 7.28839,-2.90446 l 4.11376,-2.38189 -0.35593,-5.78084 c -0.33014,-5.36207 -0.13221,-7.27187 0.57329,-5.53165 0.15983,0.39423 2.76628,3.08707 5.79211,5.98409 4.50716,4.31525 6.30792,6.75696 9.96295,13.50909 2.45379,4.53299 4.68413,8.25559 4.95633,8.27247 4.30898,0.26716 22.94848,-1.17162 23.86413,-1.84205 0.9967,-0.72978 0.4411,-2.00157 -2.82031,-6.45585 -4.92607,-6.7278 -7.05437,-11.09932 -5.84121,-11.99785 0.49746,-0.36795 1.49936,-1.87753 2.22695,-3.3539 l 1.32289,-2.68431 2.23515,7.12054 c 2.77847,8.8514 4.76024,11.61167 9.57579,13.33744 3.98003,1.42634 11.4844,0.63511 14.42967,-1.5214 1.89914,-1.39054 9.46929,-16.17776 11.34923,-22.16911 0.64362,-2.05122 1.21494,-7.08435 1.26959,-11.18474 0.0926,-6.94551 0.31206,-7.58945 3.20999,-9.4179 2.22336,-1.40282 3.62179,-3.31655 4.90267,-6.70919 1.76097,-4.66428 1.73384,-4.82604 -1.56513,-9.33161 l -3.35716,-4.58506 3.53694,-3.42067 3.53695,-3.42066 -2.19104,-4.05109 c -1.20507,-2.2281 -3.35272,-5.63767 -4.77256,-7.57681 l -2.58151,-3.5257 3.37983,-6.48164 3.37982,-6.48163 -5.54678,-6.4831 -5.54678,-6.48311 0.90867,-5.25772 0.90869,-5.25774 -6.33242,-7.80215 c -6.30375,-7.76684 -6.32571,-7.81217 -4.85288,-10.01327 2.73563,-4.08832 3.04393,-11.85159 1.8124,-45.63602 -0.67421,-18.4955 -1.11901,-36.00697 -0.98844,-38.9144 0.13057,-2.90742 -0.006,-6.45924 -0.30318,-7.89291 -0.42654,-2.05679 0.29347,-3.4965 3.41305,-6.82464 2.17449,-2.31988 4.17243,-4.20077 4.43986,-4.17976 0.26744,0.021 0.56039,6.56341 0.65101,14.53866 0.36536,32.15535 2.76199,56.16476 9.71867,97.3616 5.54557,32.84039 7.9576,42.35074 13.91816,54.87766 6.4855,13.63016 6.96536,16.27656 4.80352,26.49124 -1.48364,7.01025 -1.60706,12.60676 -0.56802,25.75816 1.83234,23.19242 2.20802,42.57593 0.91772,47.34994 -1.94082,7.18088 -5.02275,9.55191 -18.43843,14.18534 z m -44.28019,8.92548 c -0.79534,-1.08624 -2.58775,0.0189 -13.6643,8.425 -17.21099,13.06158 -16.28135,14.62983 1.30621,2.2035 11.5393,-8.15298 13.1539,-9.54163 12.35809,-10.6285 z m -58.63419,-8.76833 c -6.21576,-11.10198 -5.96798,-10.77566 -7.61482,-10.02894 -1.0068,0.45651 -0.54538,2.17695 1.80597,6.73378 5.3761,10.41864 7.80552,13.76897 9.43308,13.00886 1.16987,-0.54637 0.4937,-2.3586 -3.62426,-9.71369 z m 32.79845,-32.52643 c -0.13336,-1.69683 -7.27525,-2.90406 -12.39124,-2.09457 -5.0639,0.80126 -10.23044,4.29187 -8.94698,6.04476 0.52128,0.71194 1.63897,0.67025 2.71452,-0.10125 2.68957,-1.92926 9.95213,-3.15945 13.97524,-2.36725 3.83586,0.75533 4.80013,0.44797 4.64846,-1.48169 z m 39.74928,-6.7095 c -3.70908,-0.70088 -6.78723,-1.65401 -6.84034,-2.11807 -0.0531,-0.46405 -2.36855,-7.54613 -5.14541,-15.73798 -2.77686,-8.19184 -4.94748,-15.9445 -4.82358,-17.22813 0.12388,-1.28363 1.09252,-2.96889 2.15253,-3.74503 3.6318,-2.65919 33.82194,-10.17724 34.90864,-8.69307 0.88624,1.21039 0.89437,17.20004 0.0115,22.57646 -1.12613,6.85764 -8.28246,22.29497 -11.42839,24.65285 -1.49415,1.11991 -4.01634,1.20353 -8.83493,0.29297 z m -26.09723,5.66578 -6.36772,0.30537 -2.33104,-4.56851 c -3.05143,-5.98037 -9.83396,-15.17819 -13.62696,-18.47955 l -3.01403,-2.6234 4.7657,-2.61312 c 6.39462,-3.50627 16.43568,-7.61347 20.14749,-8.24112 3.8312,-0.64785 6.51487,1.57088 7.50683,6.20625 1.1885,5.55382 0.77793,8.17916 -1.7058,10.90758 -2.25451,2.4766 -2.24357,2.54505 1.52999,9.58208 2.09041,3.89822 4.40662,7.47912 5.14716,7.95755 1.43035,0.92411 1.47635,0.91813 -12.05166,1.56689 z m 49.55723,-52.02473 c -0.22443,-2.26047 -0.60574,-4.37993 -0.84734,-4.7099 -0.24161,-0.32997 -2.71572,-0.18628 -5.49804,0.31931 l -5.05876,0.91927 -2.28141,-3.98671 c -3.01283,-5.26485 -2.4301,-8.89582 1.9414,-12.09661 1.84139,-1.34826 3.89388,-2.35672 4.56108,-2.24104 0.66719,0.11569 4.17823,3.72197 7.80232,8.01396 l 6.58923,7.80362 -1.50732,3.65343 c -0.82903,2.00939 -2.35911,4.27921 -3.4002,5.04403 l -1.89273,1.3908 -0.40807,-4.10995 z m -1.92691,-21.74959 c -3.346,-4.00398 -4.6344,-4.18661 -10.32207,-1.46322 -4.05362,1.94097 -4.51753,1.46176 -7.35659,-7.5993 -1.85018,-5.90498 -1.83744,-6.67654 0.12886,-7.80449 1.2001,-0.68844 5.07451,-1.38629 8.6098,-1.55076 l 6.42778,-0.29906 5.56945,8.28464 c 5.98898,8.90874 6.24495,10.42613 2.16124,12.81203 -1.93473,1.13036 -2.50083,0.8722 -5.21847,-2.37984 z m -87.58523,62.70932 c -2.21692,10e-4 -2.45104,-0.27848 -3.99703,-4.7788 -1.41976,-4.13284 -1.34443,-5.10833 0.55617,-7.20223 3.02234,-3.32969 3.34067,-5.3125 1.74506,-10.86979 -1.78528,-6.21791 -1.62569,-7.34664 0.78618,-5.56036 1.08796,0.80577 3.38901,1.94082 5.11342,2.52234 l 3.1353,1.0573 0.45991,10.25355 c 0.43777,9.75975 0.31775,10.35763 -2.49213,12.41501 -1.62363,1.18882 -4.01172,2.16215 -5.30688,2.16298 z m 10.84514,-17.01856 c 0.34984,-2.26279 0.50353,-2.37532 2.76632,-2.02549 2.26279,0.34984 2.24222,0.48294 -0.37041,2.39591 -2.61264,1.91296 -2.74572,1.89241 -2.39591,-0.37042 z m 66.88799,-67.29393 c -6.67493,0.57624 -7.11511,0.45369 -9.35417,-2.60431 -3.02656,-4.13354 -3.70808,-8.77737 -2.41205,-16.43567 0.80625,-4.76409 1.53658,-6.35389 3.23631,-7.04484 3.49215,-1.4196 8.62419,1.37196 14.16036,7.7025 2.72569,3.11678 6.29655,7.05452 7.93524,8.75054 2.96452,3.0682 2.9676,3.10444 0.6142,7.23545 l -2.36527,4.15182 -2.40503,-1.1801 c -1.32277,-0.64905 -5.55709,-0.90798 -9.40959,-0.57539 z m -95.66375,76.65423 c -4.44159,1.40437 -5.30531,0.86711 -13.79812,-8.58293 l -4.54246,-5.05445 3.49909,-2.58694 c 1.92448,-1.42285 5.58712,-4.63424 8.13915,-7.13651 4.02514,-3.94666 5.31112,-4.7037 9.70388,-5.71257 4.81022,-1.10475 5.13219,-1.01773 6.4286,1.73752 2.67002,5.67456 4.80342,13.94252 4.42576,17.15205 -0.34004,2.88999 -0.91955,3.57854 -5.12618,6.09079 -2.60853,1.55785 -6.5369,3.39972 -8.72971,4.09305 z m 92.57975,-105.44785 c -5.6459,-1.66751 -9.21552,-0.71418 -10.5387,2.81453 -0.87454,2.33228 -1.09843,2.50311 -1.88055,1.43494 -0.4883,-0.6669 -1.38686,-3.1556 -1.99679,-5.53045 -1.29684,-5.04932 1.22167,-10.61601 6.60693,-14.60342 l 3.30641,-2.44821 3.254,3.36772 c 1.78973,1.85229 5.19569,6.01959 7.56883,9.26072 3.8046,5.19615 4.21034,6.20064 3.43143,8.4951 -0.85085,2.50642 -0.96716,2.52638 -3.16096,0.54253 -1.25269,-1.13279 -4.21845,-2.63285 -6.5906,-3.33346 z m -119.53486,91.12737 c -3.38886,0.24975 -4.30344,-1.08615 -7.65306,-11.17855 -3.38217,-10.19049 -3.38174,-10.93317 0.008,-13.41496 3.92813,-2.87616 20.89048,-8.29942 23.97203,-7.66441 3.03453,0.62533 6.61942,6.29249 7.4833,11.82999 0.52426,3.36044 0.63321,3.21914 -9.55444,12.39094 -3.96522,3.56985 -11.53292,7.83634 -14.25559,8.03699 z m -1.76244,-30.76002 c -2.37402,0.71575 -5.68072,2.30031 -7.34823,3.52125 -2.28123,1.67031 -3.40239,1.91837 -4.52865,1.00199 -1.33622,-1.08721 -0.86535,-1.76642 4.38779,-6.32949 5.16488,-4.48639 10.64066,-7.4312 11.53835,-6.20518 0.69602,0.95059 1.36079,5.90931 0.84303,6.28841 -0.31674,0.23192 -2.51826,1.00728 -4.89229,1.72302 z m -24.67612,4.49525 c -3.65722,0.19023 -4.23543,-0.65424 -7.94112,-11.59801 l -3.02667,-8.93848 5.7554,-3.80436 c 6.45691,-4.26806 17.23305,-8.41369 20.88418,-8.03424 3.62354,0.37658 8.0625,7.85076 8.06615,13.58156 0.003,4.47815 -17.6808,18.47846 -23.73794,18.79353 z m -17.24581,-23.4777 c -6.86205,1.14319 -9.57925,0.59077 -10.31016,-2.09612 -0.35978,-1.32258 0.66889,-2.51732 4.72355,-5.48612 2.85092,-2.08744 7.53571,-6.3982 10.41063,-9.57947 l 5.22714,-5.78412 5.14549,-0.52624 c 6.82591,-0.69811 9.34404,1.33026 8.63231,6.95337 l -0.52513,4.14891 -8.45475,5.65227 c -7.26377,4.85605 -9.35548,5.80232 -14.84908,6.71752 z m -14.13132,-6.35184 c -4.22843,1.59703 -8.71776,0.31661 -10.00666,-2.85401 -1.41939,-3.49166 -0.20657,-13.28582 2.16784,-17.50655 1.49583,-2.65898 4.08943,-5.28074 8.23049,-8.31986 9.36443,-6.8726 9.43689,-6.87781 14.64292,-1.05042 2.45245,2.74516 5.36563,5.82956 6.47373,6.85424 1.8183,1.68138 1.77134,2.16664 -0.48156,4.97692 -6.0646,7.56503 -15.95415,15.98382 -21.02676,17.89968 z m 132.54718,-103.26468 c -3.71564,1.40343 -18.50857,0.61445 -17.87291,-0.95325 0.87762,-2.16447 0.83056,-26.07037 -0.0512,-26.00106 -0.88754,0.0697 -2.23261,25.3963 -1.4595,27.48111 0.16777,0.45242 2.55079,1.28745 5.29558,1.8556 l 4.99056,1.03301 -0.76324,2.89086 c -0.61186,2.3175 -1.57647,3.32204 -4.86354,5.06495 -3.93716,2.0876 -14.62115,5.57872 -15.09446,4.93229 -0.12569,-0.17166 -1.25171,-5.58158 -2.50226,-12.02205 -3.46552,-17.84768 -4.59221,-21.78665 -5.94787,-20.79404 -0.62219,0.45556 -0.98547,1.283 -0.80729,1.83875 0.209,0.65187 -0.85785,1.33891 -3.00632,1.93603 -4.03432,1.12124 -4.08337,1.40189 -1.85205,10.59864 0.94796,3.90718 1.51005,7.26937 1.24908,7.47154 -0.26093,0.20221 -4.32753,3.70998 -9.03681,7.79515 -4.7093,4.08516 -9.219,7.6062 -10.02158,7.82452 -1.29731,0.3529 -10.18063,-2.90959 -11.01125,-4.044 -0.9636,-1.31604 1.93081,-19.76841 4.23712,-27.01244 2.51435,-7.89742 2.83725,-8.41206 5.36099,-8.54446 3.27242,-0.1717 2.64032,-1.43978 -0.90115,-1.80784 -2.37532,-0.24685 -2.67397,-0.039 -4.11961,2.86762 -1.39309,2.80093 -1.70541,3.03918 -2.94068,2.24326 -2.30262,-1.48365 -3.16133,0.15714 -1.01486,1.93913 1.09075,0.90553 1.66431,1.8799 1.27456,2.16527 -0.38974,0.28537 -1.28427,3.12984 -1.98784,6.32105 -1.61825,7.33999 -7.28353,14.67937 -14.83397,19.21743 -2.84014,1.70703 -6.20003,3.39887 -7.46641,3.75967 l -2.3025,0.65599 -0.24568,-6.24294 c -0.19858,-5.04628 0.549,-7.96455 3.90016,-15.22449 4.10496,-8.89297 4.29252,-10.61156 1.88126,-17.23862 -0.53845,-1.47988 -3.31429,-2.47075 -11.37943,-4.06202 -5.86699,-1.15757 -10.73497,-1.69828 -10.81773,-1.20157 -0.0828,0.49671 4.18387,1.83453 9.48141,2.97294 5.29754,1.13842 10.08265,2.67953 10.63357,3.42468 2.73134,3.69428 2.3128,6.61884 -2.35457,16.4531 -2.61519,5.51027 -6.16321,14.02159 -7.88449,18.91404 -1.72128,4.89246 -3.67178,9.29236 -4.33445,9.77756 -1.75171,1.2826 -4.65351,-0.43916 -8.09002,-4.80014 -3.65736,-4.64125 -4.25268,-7.91098 -3.57578,-19.63947 0.65117,-11.28276 -1.0807,-20.76103 -3.47336,-19.00914 -0.43629,0.31945 -0.38332,3.07369 0.11773,6.12055 1.44601,8.79338 2.37802,29.23407 1.3667,29.97456 -0.58139,0.42568 -1.37075,-0.29619 -2.14305,-1.95984 -0.67244,-1.44857 -3.06981,-5.68882 -5.32748,-9.42279 l -4.10486,-6.78902 -0.76875,3.00111 c -0.42282,1.65062 -1.20366,5.26362 -1.7352,8.02889 -1.08214,5.62976 -1.98181,5.26652 -4.68582,-1.89192 -1.3605,-3.60168 -1.63596,-3.79752 -6.47727,-4.60512 -2.78099,-0.46391 -5.59695,-1.58179 -6.25768,-2.4842 -1.47678,-2.01691 -0.70111,-6.26993 2.16263,-11.85763 2.33528,-4.55658 2.27128,-4.9403 -1.19937,-7.19174 -4.09287,-2.65507 -7.18563,-11.10452 -9.98039,-27.26658 -2.50541,-14.48876 -2.87069,-15.62317 -6.7261,-20.88872 -3.66892,-5.01083 -4.31419,-5.51105 -6.44924,-4.99946 -1.30484,0.31264 -15.0392,6.47606 -30.5208,13.69647 l -28.14838,13.12802 -6.33534,-0.93038 c -3.48444,-0.51172 -9.57976,-0.43227 -13.54516,0.17656 -8.84318,1.35771 -10.53173,0.0514 -11.545,-8.93153 -1.36571,-12.10733 -6.20098,-14.10963 -26.6563,-11.03849 -7.59184,1.13984 -12.49777,1.30227 -14.11901,0.46748 -1.52994,-0.78779 -4.99731,-4.70155 -9.02442,-10.18622 -6.94461,-9.45822 -8.44448,-10.48691 -11.7552,-8.06281 -2.24038,1.64039 -2.75422,5.92439 -1.7341,14.4574 0.87974,7.35865 1.37061,7.53194 -10.43902,-3.68519 -20.49397,-19.46578 -29.5429,-30.01205 -51.59624,-60.13399 -21.72527,-29.67306 -23.66827,-33.33759 -25.08065,-47.29018 -0.5157,-5.09449 -1.75901,-15.0752 -2.76291,-22.17935 -3.09769,-21.92102 -3.23002,-31.8431 -0.67492,-50.606114 1.32872,-9.757267 5.13878,-28.485978 8.4668,-41.619355 3.32801,-13.133376 7.97002,-32.745609 10.31558,-43.58274 9.42299,-43.536945 12.63897,-52.051476 24.28626,-64.299641 5.99428,-6.303518 24.93528,-23.295936 25.78059,-23.128365 0.25002,0.04957 -3.68465,12.25281 -8.74371,27.118327 -5.05906,14.865508 -8.80133,27.570346 -8.31616,28.232965 0.55386,0.756447 1.30244,0.67651 2.01165,-0.214825 2.39997,-3.016255 19.08421,-54.760004 18.03204,-55.923754 -0.93803,-1.037518 0.13775,-1.9551 9.15517,-7.808867 21.62259,-14.036561 46.78111,-25.213001 71.13419,-31.600711 l 3.01481,-0.79077 -2.50423,7.4126 c -2.6626,7.88134 -2.75489,9.24461 -0.61446,9.07638 0.74942,-0.0589 2.62432,-3.85043 4.23526,-8.56477 1.5898,-4.6525 3.11231,-8.62145 3.38334,-8.8199 1.11125,-0.81365 16.36262,-3.95894 16.73443,-3.45114 0.22145,0.30245 -0.33825,1.44235 -1.24378,2.53309 -1.54258,1.8581 -1.17061,3.93751 0.7577,4.23563 0.46819,0.0724 2.08241,-1.8177 3.58715,-4.20018 l 2.73591,-4.33178 15.78465,-1.92746 c 26.30107,-3.21161 53.26869,-4.69409 53.40688,-2.93592 0.0388,0.49331 9.22197,7.20678 20.40711,14.91882 26.41146,18.21043 26.45515,18.23657 26.98131,16.14159 0.44792,-1.78346 0.70343,-1.59119 -30.84976,-23.2146 -8.95697,-6.13821 -11.91678,-8.56823 -10.39902,-8.53767 6.24307,0.12572 23.50682,1.49621 27.17953,2.15766 2.87358,0.51751 5.0112,1.68008 6.64035,3.61139 1.32141,1.56649 8.90523,9.44407 16.85293,17.50572 7.94769,8.06164 18.90601,19.837411 24.35181,26.168381 5.44579,6.330961 10.45794,11.633217 11.1381,11.782791 5.6215,1.236181 -6.36585,-13.50724 -33.13091,-40.748172 -8.76445,-8.92028 -15.92042,-16.3794 -15.90217,-16.57584 0.0182,-0.19643 4.32682,0.82377 9.57461,2.26711 l 9.54142,2.62425 11.83452,16.1407 c 6.50878,8.87754 18.04696,23.862029 25.63996,33.2992 7.593,9.437172 20.93758,26.158486 29.65464,37.158464 20.98098,26.475734 28.6823,33.1136013 40.38935,34.8121041 5.56611,0.8075501 11.22238,4.6753896 15.90024,10.8728095 2.32118,3.0751852 2.76594,4.5241179 2.35097,7.6588904 -0.74412,5.621266 0.75908,10.569469 5.99288,19.727297 5.3868,9.42552 6.06279,13.179906 3.59859,19.986091 -0.97175,2.684033 -1.58333,8.028561 -1.35905,11.876721 0.4958,8.506719 5.28117,29.230002 7.83085,33.911877 l 1.85337,3.403256 -6.54147,4.80799 c -11.55572,8.4934 -17.7384,17.16627 -23.60536,33.11275 -4.02414,10.93765 -8.92212,40.30669 -7.13024,42.75395 0.62721,0.85662 1.38967,1.37495 1.69436,1.15186 0.30469,-0.22309 1.64472,-7.81138 2.97783,-16.86285 3.71713,-25.23818 10.31808,-40.78195 22.26834,-52.43706 2.74094,-2.67325 6.72219,-5.8008 8.8472,-6.95012 l 3.86366,-2.08967 5.83655,5.8177 c 3.21011,3.19974 11.50237,9.79937 18.42725,14.66587 6.92488,4.86648 13.00274,9.41089 13.50633,10.09868 2.79331,3.81497 -28.42521,15.8273 -49.28379,18.96353 -8.02391,1.20645 -9.73307,1.99685 -8.36331,3.86761 1.08258,1.47854 21.40597,-2.10428 32.97929,-5.81395 8.60133,-2.75704 20.60767,-8.10071 24.3383,-10.83227 2.28672,-1.67432 2.54027,-1.64481 2.42815,0.28265 -0.29355,5.04659 -4.66028,10.41157 -15.65131,19.22928 -6.28566,5.04275 -10.81319,9.25525 -11.07719,10.30641 -0.24558,0.97779 0.0771,3.52121 0.71701,5.65205 1.30249,4.33702 2.10576,17.25128 1.47103,23.64991 l -0.41596,4.1932 -12.94889,5.66781 -12.94889,5.66781 -0.89388,5.89524 -0.89389,5.89524 3.23159,-3.20367 c 1.77737,-1.76202 3.42677,-3.90765 3.66534,-4.76807 1.11097,-4.00695 2.193,-0.41938 2.60313,8.63093 0.55447,12.23552 2.14363,22.09348 4.49685,27.89514 0.98358,2.42492 1.46835,4.64323 1.07727,4.92958 -0.39109,0.28635 2.32554,4.66789 6.03694,9.73675 l 6.74801,9.21612 -2.02788,2.73173 c -3.79324,5.10982 -6.35176,7.48505 -7.54254,7.00222 -2.38718,-0.96792 -12.81528,-9.71086 -13.17949,-11.04969 -0.20773,-0.76366 -0.74079,-1.12262 -1.18454,-0.79771 -1.59112,1.16502 0.18877,4.03186 4.4375,7.14736 12.14088,8.90271 13.48496,14.36207 5.06672,20.57996 -3.35752,2.47993 -4.92219,1.50859 -13.1639,-8.17206 -8.74929,-10.27685 -9.42685,-8.31773 -0.9032,2.61154 l 6.88449,8.82748 -1.40532,3.95129 c -0.96674,2.71816 -2.34946,4.52757 -4.43063,5.79786 -2.59216,1.58218 -3.29587,1.55407 -4.91506,-0.19635 -4.20557,-4.54643 -6.43052,-11.74681 -5.88523,-19.0457 l 0.52813,-7.06906 -3.55069,1.74169 c -1.95288,0.95793 -5.45819,3.1062 -7.78957,4.77394 l -4.23885,3.03228 1.57058,4.06165 c 0.86382,2.2339 2.39353,8.94645 3.39936,14.91677 2.18738,12.98375 1.40101,15.10248 -6.74769,18.18033 z m -1.23451,-70.48265 c 0.0792,-0.51245 -0.52288,-1.84261 -1.33802,-2.95589 -0.81515,-1.11329 -2.118,-5.66142 -2.89525,-10.10697 -0.77723,-4.44555 -1.7853,-8.14035 -2.24016,-8.21067 -1.98684,-0.30717 -2.41831,2.97339 -1.25714,9.55835 1.46579,8.31248 4.56781,14.85722 6.4045,13.5124 0.65012,-0.47602 1.24685,-1.28476 1.32607,-1.79722 z m 13.72074,-13.77971 c -2.59032,-5.85871 -2.85325,-9.18228 -1.39467,-17.62924 1.22836,-7.11364 1.18568,-8.74217 -0.2191,-8.36003 -2.355,0.64063 -4.76324,10.82683 -4.22933,17.88885 0.23964,3.16969 1.27661,6.70796 2.48152,8.46729 2.5088,3.66316 5.02211,3.38888 3.36158,-0.36687 z m -87.89267,67.0804 c -0.91148,-1.24486 -7.74816,-4.88681 -8.34845,-4.44728 -1.06007,0.77618 0.005,1.86097 3.86963,3.94131 2.91106,1.56703 5.46715,1.85578 4.47882,0.50597 z m 42.05931,-50.86423 c -0.31778,-5.10349 -0.77712,-9.55143 -1.02075,-9.8843 -0.24363,-0.33286 -1.07608,-0.13687 -1.84988,0.43554 -0.86724,0.64119 -1.16509,4.0837 -0.77669,8.97105 0.71817,9.03677 1.18488,10.63165 2.96156,10.12039 0.72304,-0.20806 1.01638,-4.33285 0.68576,-9.64268 z m -14.74194,17.56644 c 0.11513,-2.90594 -5.60017,-24.05803 -6.53974,-24.20329 -2.31643,-0.35813 -2.16705,3.08277 0.59935,13.80641 2.05543,7.96766 3.44406,11.67067 4.43387,11.8237 0.98982,0.15303 1.46163,-0.29383 1.50652,-1.42682 z m -20.39371,-3.334 c 0.16481,-9.11413 -0.1212,-11.13228 -1.59032,-11.22159 -1.44081,-0.0876 -1.85165,2.15873 -2.09989,11.48147 -0.16975,6.37469 -0.0765,11.90744 0.20732,12.295 0.28376,0.38755 1.13828,0.2216 1.89894,-0.36877 0.78689,-0.61074 1.46961,-5.86324 1.58395,-12.18611 z m -20.42246,9.01179 c 0.0529,-15.08462 -0.33301,-17.43077 -2.59489,-15.77463 -1.31552,0.96321 -1.33752,31.78666 -0.0231,32.31963 2.217,0.89892 2.56446,-1.29698 2.61796,-16.545 z m -10.85965,-2.04879 c -0.4931,-9.6481 -1.11069,-11.81877 -2.97433,-10.45422 -1.24765,0.91353 -0.6236,20.87997 0.65881,21.07823 2.2358,0.34566 2.75455,-2.03435 2.31552,-10.62401 z m 83.80087,-55.85033 c 1.07102,-3.37346 -3.11073,-8.08063 -11.13882,-12.5384 -6.06765,-3.36919 -8.3679,-3.76537 -8.71791,-1.5015 -0.0687,0.44411 2.62892,2.31579 5.99463,4.1593 7.43344,4.07155 11.78252,8.04836 10.29733,9.41592 -0.56219,0.51773 -4.44637,3.50108 -8.63143,6.62975 -6.19614,4.6321 -7.44464,5.91324 -6.72305,6.89875 1.27969,1.74774 17.84929,-9.69363 18.91925,-13.06382 z m 19.23215,-25.54845 c -0.42878,-1.65238 -4.81168,-9.08695 -9.73979,-16.52126 -9.84667,-14.85425 -10.09421,-15.61262 -9.51057,-29.13803 0.20742,-4.80703 -0.18958,-6.12414 -3.00492,-9.96921 -1.78416,-2.43672 -6.89959,-7.43211 -11.36762,-11.10086 -6.11914,-5.0245 -10.43136,-9.55644 -17.47573,-18.36621 l -9.35203,-11.69576 -2.81208,1.29328 c -1.54664,0.71131 -7.1648,1.87536 -12.4848,2.58677 -12.49358,1.67069 -16.19578,4.08467 -18.55893,12.10117 -1.3114,4.44865 -1.24159,6.85739 0.36945,12.74693 1.70198,6.22203 1.71207,8.48245 0.0705,15.7874 -4.12459,18.35395 -4.12345,18.88594 0.0673,31.45619 6.52204,19.56301 6.79839,22.10437 4.1415,38.08531 -1.95184,11.7401 -2.07708,14.95865 -0.69389,17.83251 2.04679,4.25267 5.0669,6.1179 9.52238,5.88103 2.90871,-0.15463 5.05696,-1.49201 18.50598,-11.52081 l 15.21528,-11.34588 -2.97697,-9.38927 c -3.41601,-10.774 -4.84796,-18.62588 -5.20704,-28.55203 -0.28807,-7.96345 -2.47216,-18.02135 -6.12012,-28.18357 -2.65748,-7.40306 -2.64477,-10.14378 0.053,-11.42918 3.02714,-1.44232 6.04925,3.7932 12.77274,22.12759 11.2015,30.54558 15.64432,38.88181 23.67571,44.42374 3.62196,2.49928 5.14486,2.84311 9.97972,2.25315 3.34361,-0.40801 7.77641,-1.86826 10.70803,-3.52745 4.91542,-2.78194 4.98894,-2.88353 4.22292,-5.83555 z m -102.16993,44.12894 c -0.23741,-0.87272 -0.93405,-1.79048 -1.54808,-2.03948 -2.56674,-1.04072 -4.20109,-8.70031 -3.32978,-15.60543 0.49334,-3.90998 0.59039,-7.52783 0.21564,-8.03965 -1.51833,-2.07367 -2.98421,1.12937 -3.75451,8.20385 -0.86793,7.97122 0.3485,13.1635 4.05689,17.3166 2.43042,2.72186 5.08279,2.8217 4.35984,0.16411 z m -19.86973,-8.60619 c 2.61286,-5.02926 3.2078,-9.3124 1.33377,-9.60213 -0.86347,-0.1335 -1.9024,1.35388 -2.89646,4.14687 -0.85253,2.39526 -2.53192,5.59592 -3.73198,7.11258 -2.45724,3.1055 -1.47742,5.84394 1.34976,3.77237 0.99821,-0.73142 2.77342,-3.17478 3.94491,-5.42969 z m 11.64874,-23.86652 c 0.48447,-2.11938 2.23088,-4.79564 4.62748,-7.09132 2.11715,-2.028 4.27353,-4.57127 4.79197,-5.65172 1.12649,-2.34762 -0.62036,-11.20567 -2.44117,-12.37886 -2.24735,-1.44804 -3.88853,0.80062 -2.23378,3.06061 2.34949,3.20882 0.92082,9.76534 -2.70663,12.42135 -3.77815,2.76635 -6.70505,8.13894 -5.83774,10.71573 1.06526,3.16485 2.95265,2.63051 3.79987,-1.07579 z m -17.50312,6.19774 c -0.0886,-1.12688 -7.04809,-14.10288 -8.97642,-16.73651 -2.18121,-2.97899 -4.05229,-0.78508 -2.31461,2.71398 1.69645,3.41606 7.97732,15.09305 8.60917,16.00559 0.56057,0.80962 2.77278,-0.82617 2.68183,-1.98309 z m -32.39557,12.6396 c 0.85765,-0.92339 1.18736,-2.18696 0.73268,-2.80794 -0.66387,-0.90669 -2.68559,0.24931 -10.26528,5.86955 -10.52188,7.80188 -17.29733,11.37926 -27.7896,14.6728 -15.47133,4.85647 -31.96063,6.48833 -51.22639,5.06956 -6.24444,-0.45985 -11.7469,-0.54807 -12.22769,-0.19604 -5.83834,4.27482 30.79236,5.83716 50.35755,2.14781 16.42645,-3.09748 29.99918,-8.83214 41.54749,-17.55435 4.02153,-3.03738 8.01358,-6.278 8.87124,-7.20139 z m 15.30442,-18.09105 c 0.0467,-0.87879 -2.35391,-4.94374 -5.33474,-9.03322 -6.83241,-9.37355 -10.13793,-16.51577 -11.23626,-24.27809 -0.95918,-6.77894 -1.86207,-8.64155 -3.57941,-7.38412 -1.25863,0.92156 0.85399,15.6715 2.58281,18.03264 0.58701,0.80171 0.89671,1.87836 0.68823,2.39255 -0.20849,0.51419 -4.38459,-3.37219 -9.28021,-8.63638 -4.89563,-5.26421 -9.74642,-9.78357 -10.77955,-10.04304 -4.0426,-1.01531 -16.16486,11.93426 -14.489,15.47784 0.89601,1.89461 1.10388,1.7173 7.72706,-6.59121 2.05592,-2.57906 4.30265,-4.84264 4.99273,-5.03016 0.73448,-0.19959 4.85591,3.3113 9.9404,8.46789 4.77714,4.84486 11.19013,11.15809 14.25111,14.02937 3.06098,2.87129 7.09275,7.27625 8.95948,9.7888 3.4706,4.67125 5.40626,5.64901 5.55735,2.80713 z m 36.58833,-38.33937 c 1.53449,-7.41458 1.01235,-38.14334 -0.66649,-39.22507 -0.74526,-0.4802 -1.55171,-0.38796 -1.79212,0.20494 -0.2404,0.59293 -0.32981,8.43198 -0.19867,17.42014 0.13115,8.98815 -0.32486,18.7388 -1.01333,21.66809 -0.68848,2.9293 -0.72834,5.53823 -0.0886,5.79764 1.89877,0.76989 2.61824,-0.35276 3.75919,-5.86574 z m 102.64478,-73.73882 c -0.27105,-0.99641 -2.35086,-1.25364 -6.32757,-0.78262 -3.2581,0.3859 -9.11962,0.37905 -13.02561,-0.0152 -5.56639,-0.56189 -7.15366,-0.35095 -7.34171,0.97568 -0.18723,1.32092 1.35743,1.87592 7.03461,2.52766 6.35795,0.72988 18.0303,0.22275 19.53969,-0.84893 0.28831,-0.2049 0.34266,-1.04022 0.12059,-1.85656 z m 16.67596,-19.43179 c 1.83626,-3.358228 3.17763,-9.921617 4.90037,-23.977628 2.41427,-19.698429 2.27945,-23.737613 -1.0799,-32.354336 -5.41598,-13.892016 -15.02145,-21.029943 -30.61163,-22.747856 -15.90992,-1.753137 -35.19854,3.406115 -49.09853,13.132708 -10.38316,7.265656 -12.23325,9.692566 -11.38573,14.935489 0.38699,2.393966 -0.16226,7.163964 -1.22054,10.599998 -2.88763,9.375513 -2.99551,12.69023 -0.55114,16.933296 2.85767,4.960479 10.06836,9.741988 13.79601,9.148334 1.51304,-0.240969 6.46602,-1.487465 11.0066,-2.769992 13.25464,-3.743895 36.52948,-1.672247 40.38589,3.594665 1.93186,2.638447 0.5669,5.182331 -5.75314,10.722139 -7.62586,6.684437 -8.94288,9.831864 -5.87016,14.028443 3.49519,4.77357 10.12351,4.78421 21.34326,0.0342 8.15428,-3.452178 11.17754,-5.864061 14.13864,-11.2795 z m -140.40801,69.67861 c 3.2403,-5.78936 12.72845,-35.39374 11.76524,-36.70924 -1.54255,-2.10675 -2.8575,0.5872 -8.00942,16.40876 -4.72526,14.5113 -6.07004,17.66124 -9.66716,22.64377 -1.26421,1.75113 0.32382,3.43492 2.30548,2.44449 0.70721,-0.35346 2.32985,-2.50796 3.60586,-4.78778 z m 71.88449,-54.12687 c 0.17767,-1.14916 -0.71003,-1.87506 -3.36657,-2.75299 -5.50978,-1.82085 -11.04435,-9.835736 -11.94684,-17.300846 -0.44456,-3.677141 -1.15099,-5.679062 -2.05321,-5.818549 -2.10279,-0.325098 -2.44625,2.678665 -1.02271,8.944424 1.68027,7.395811 6.27621,13.784701 11.91367,16.561431 4.93857,2.43249 6.1457,2.50081 6.47566,0.36653 z m -164.31862,104.60476 c -0.20373,-2.59213 -2.35334,-2.15498 -7.33325,1.4913 -6.00203,4.39466 -13.64185,7.32346 -17.81321,6.82889 -2.32426,-0.27559 -3.67292,-1.26567 -5.9381,-4.35935 -2.19457,-2.99724 -3.23099,-3.783 -4.12571,-3.12788 -0.65719,0.48119 -0.75695,1.95222 -0.22169,3.26896 2.36426,5.81598 9.1128,8.96262 16.68759,7.7809 4.41903,-0.6894 18.90249,-9.87106 18.74437,-11.88282 z m 77.76541,-62.14674 c 3.32324,-5.81954 16.03856,-33.94458 15.93603,-35.24899 -0.0464,-0.59034 -0.79919,-0.8789 -1.67286,-0.64124 -0.92763,0.25234 -4.65727,6.9991 -8.96467,16.21673 -4.0569,8.68154 -8.27209,17.53863 -9.3671,19.68244 -1.9673,3.85156 -1.73412,5.96526 0.52629,4.77071 0.64033,-0.33839 2.23436,-2.48923 3.54231,-4.77965 z m -30.2997,21.09298 c 3.4153,-4.92412 4.46497,-10.06788 5.89504,-28.88774 1.03695,-13.64627 1.81155,-15.2699 11.20401,-23.48426 4.48528,-3.92269 9.12831,-8.36187 10.31782,-9.86484 2.15535,-2.72329 2.16181,-2.72317 1.88628,0.0371 -0.79077,7.92173 -5.61206,20.4668 -10.17881,26.48536 -3.13857,4.13632 -1.99338,6.52527 1.63163,3.40375 5.40409,-4.65351 10.5593,-18.55392 12.87298,-34.71046 1.18426,-8.269699 1.07261,-9.175679 -1.9386,-15.731036 -2.55991,-5.572906 -3.03111,-7.753819 -2.36982,-10.968674 0.45398,-2.206995 1.70596,-4.657443 2.78217,-5.445444 3.11956,-2.284129 2.19446,-3.562027 -4.43963,-6.132839 -38.51644,-14.925479 -88.95267,3.95596 -120.74967,45.204163 -6.43946,8.35349 -8.68445,12.59309 -12.57765,23.75254 -5.26021,15.0778 -4.66538,24.81612 1.43848,23.5503 2.94113,-0.60994 4.14181,-2.87103 6.61846,-12.46369 l 1.37879,-5.34038 0.41205,5.26853 c 0.22662,2.89771 1.07254,8.96792 1.8798,13.48936 1.40843,7.88857 1.7197,8.56491 7.70144,16.7345 6.06098,8.2778 6.45152,8.62715 14.09532,12.60836 10.23037,5.32843 19.38345,6.65208 31.46289,4.54993 17.60883,-3.06441 33.47061,-11.66447 40.67705,-22.05458 z m -111.42064,70.3672 c -0.0508,-0.64596 -2.12771,-3.44782 -4.61543,-6.22636 -5.28781,-5.90598 -5.33934,-7.17797 -0.58231,-14.38302 1.84676,-2.79713 2.76148,-5.4461 2.4766,-7.17209 -0.76331,-4.62452 -9.97756,-16.21146 -19.76181,-24.85048 -3.41305,-3.01355 -3.81377,0.22987 -1.47314,11.92338 1.51859,7.58668 1.931,12.21953 1.13936,12.79916 -2.90445,2.12663 -9.37815,12.49756 -10.06637,16.12644 -1.86375,9.82711 11.3875,17.13277 26.42547,14.56885 6.40857,-1.09263 6.58474,-1.16864 6.45763,-2.78588 z m 17.31214,-23.27017 c 0.0654,-0.42284 -1.14733,-1.87252 -2.69488,-3.22153 -3.58481,-3.12492 -6.42826,-9.11394 -9.14612,-19.26405 -1.4035,-5.24151 -2.62736,-8.10915 -3.51976,-8.24711 -2.07125,-0.32023 -1.99284,1.53921 0.45238,10.7256 2.40897,9.05028 5.87841,15.88965 10.04058,19.79317 2.38947,2.24097 4.5398,2.33547 4.8678,0.21392 z M -213.07126,4.5165903 c -1.18271,-1.61529 -17.93963,-3.93021025 -26.70155,-3.68875118 -13.37457,0.36858378 -34.07523,3.32984968 -35.17157,5.03136128 -1.42182,2.2066745 1.05271,2.2751596 14.81986,0.4101104 16.00433,-2.1681183 27.62312,-2.3654021 37.30526,-0.6334376 7.55403,1.3512918 11.24651,0.9273127 9.748,-1.1192829 z m -108.3178,75.3891307 c -0.22625,-1.368092 0.0733,-5.104739 0.66559,-8.303653 0.89262,-4.820559 0.58603,-7.250549 -1.79092,-14.195102 -1.57733,-4.608386 -2.91707,-9.004697 -2.97719,-9.769574 -0.0601,-0.764877 2.9429,-4.818953 6.67336,-9.009045 7.51248,-8.438116 11.41492,-14.52114 12.27676,-19.136712 0.72453,-3.880197 -2.61172,-8.728018 -6.7583,-9.8203573 -2.63784,-0.6948811 -3.5858,-0.2993626 -9.25635,3.8620763 -5.84997,4.293243 -6.71112,5.359283 -11.63596,14.406958 -8.78259,16.134919 -15.35909,19.087454 -30.72251,13.792981 -4.55861,-1.570962 -12.63151,-4.366846 -17.93976,-6.213064 -13.99664,-4.868039 -30.86495,-7.922564 -33.42005,-6.051723 -2.71244,1.986035 -2.54635,2.072387 18.03362,9.37591 22.21511,7.883816 27.79626,11.304335 37.57773,23.030232 8.47863,10.164087 8.09021,9.876383 20.19532,14.958651 18.54298,7.785172 19.89403,8.002736 19.07866,3.072422 z M -362.4933,61.923693 c -0.0961,-1.222431 -43.23865,-22.130369 -45.32639,-21.966282 -0.60952,0.0479 -0.91507,0.797109 -0.679,1.664897 0.45361,1.667529 44.23903,22.885779 45.42879,22.014634 0.3699,-0.270837 0.62937,-1.0418 0.5766,-1.713249 z m 86.6628,-68.5590787 c -0.32917,-3.8347883 -4.36865,-12.5836083 -9.12626,-19.7659253 -2.12125,-3.202324 -3.03988,-3.971212 -3.94918,-3.305429 -0.89176,0.652945 0.0123,3.057373 3.65407,9.718499 2.66145,4.867994 5.20935,10.8473166 5.662,13.2873594 0.99008,5.3371662 1.27528,5.80149019 2.85361,4.6458376 0.67217,-0.4921561 1.07977,-2.5533102 0.90576,-4.5803417 z M -518.71641,172.75989 c -0.34198,-0.46705 -4.42011,-3.79643 -9.0625,-7.3986 -9.03858,-7.0133 -19.92227,-16.9475 -30.719,-28.03902 -8.97773,-9.22288 -51.9563,-67.859734 -52.42694,-71.527465 -0.17458,-1.360596 2.93293,-12.523907 6.90556,-24.807368 6.50928,-20.12684 7.51037,-25.426004 4.28861,-22.701396 -0.58616,0.495737 -3.96658,10.081903 -7.51202,21.302623 -3.54539,11.220693 -6.62977,20.535687 -6.85413,20.699962 -0.22435,0.164269 -1.81408,-1.819147 -3.53271,-4.407598 -1.92086,-2.893031 -3.56143,-4.575267 -4.2581,-4.366255 -0.62333,0.187012 -1.37852,10.962294 -1.6782,23.945078 -0.64801,28.072909 -0.71112,26.812129 1.31466,26.261059 1.02949,-0.28005 2.32737,-3.784268 3.666,-9.898105 2.75172,-12.567678 5.13297,-21.31372 5.76688,-21.180957 0.28325,0.05932 3.80465,5.228543 7.82537,11.487129 21.36178,33.251703 46.12847,62.465173 68.7207,81.059313 12.71072,10.46132 14.93284,11.95531 16.60552,11.16426 0.86464,-0.40891 1.29227,-1.12561 0.9503,-1.59266 z M -620.01932,79.781176 c 0.0409,-11.527665 0.39054,-20.237591 0.80967,-20.172792 0.28054,0.04337 1.22123,1.563969 2.09035,3.379165 1.24189,2.59363 1.14807,4.935421 -0.43815,10.936589 -2.24279,8.485225 -2.47316,9.033306 -2.46187,5.857038 z m 271.32653,-47.330902 c -2.38105,-10.306011 -14.49773,-36.1176064 -17.22452,-36.6925818 -2.46379,-0.5195195 -1.55456,2.461752 4.30405,14.1125127 3.25176,6.4666391 6.97396,15.4209051 8.27153,19.8983821 2.73235,9.428354 2.90251,9.747424 4.55356,8.538532 0.70655,-0.517335 0.74753,-3.034064 0.0954,-5.856845 z M -518.5787,158.70217 c -0.24813,-0.7271 -0.92328,-2.38192 -1.50037,-3.67738 -2.99734,-6.72864 -0.14098,-27.79234 10.03794,-74.02299 3.26333,-14.8214 5.88936,-27.50745 5.83562,-28.191226 -0.0537,-0.683785 -0.71692,-1.338971 -1.47373,-1.455976 -1.62445,-0.251146 -17.33828,69.437702 -19.09284,84.674372 -1.20364,10.45239 -0.39284,17.9779 2.38852,22.16954 1.72436,2.59868 4.65203,2.98621 3.80486,0.50366 z M -274.591,-39.878237 c -3.31468,-3.878445 -6.56821,-7.136471 -7.23007,-7.240056 -2.84479,-0.445217 -1.92771,2.266291 2.56517,7.584345 6.41897,7.597889 7.86327,8.778324 9.38095,7.667086 1.15569,-0.846197 0.59812,-1.793385 -4.71605,-8.011375 z m -51.66713,48.3653909 c -0.26213,-2.8059196 -6.48241,-17.265984 -10.93986,-25.4314229 -11.95698,-21.903638 -30.89028,-43.666149 -60.11685,-69.100123 -10.6258,-9.246957 -13.49619,-11.026488 -13.87137,-8.59975 -0.13004,0.841124 2.91107,3.984269 8.27614,8.55571 11.38085,9.696 26.93169,24.488762 35.00877,33.302145 14.54841,15.874638 29.28435,38.493515 35.14568,53.9467319 3.65848,9.6454551 3.94046,10.1285071 5.32206,9.1169011 0.69118,-0.5060801 1.22013,-1.3116688 1.17543,-1.7901921 z M -525.61776,133.38778 c -0.34487,-0.94041 -2.43295,-7.33908 -4.64018,-14.21927 l -4.01316,-12.50943 3.35178,-6.991682 c 3.97563,-8.293008 5.47197,-16.00155 5.6189,-28.946414 0.11954,-10.53062 -2.85411,-31.794504 -4.542,-32.478896 -2.37948,-0.964802 -2.49647,1.149567 -0.66209,11.96577 3.85337,22.720834 2.68309,38.165603 -3.75811,49.597837 -1.91995,3.407645 -3.34534,7.223415 -3.16755,8.479505 0.61311,4.33146 8.64491,27.17322 9.70618,27.60353 1.68362,0.68266 2.79135,-0.63268 2.10623,-2.50095 z m 26.05673,-30.0101 c 6.41577,-9.224759 7.31793,-11.3084 5.04821,-11.659306 -1.9752,-0.305372 -16.54445,20.408006 -15.42747,21.933536 1.26276,1.72461 3.73874,-0.72631 10.37926,-10.27423 z m 201.67867,-146.032461 c -0.48228,-1.362119 -25.23875,-40.554718 -27.83578,-44.067527 -2.74146,-3.708112 -4.27033,-1.078636 -1.8823,3.237315 2.10627,3.80671 24.7421,39.879734 26.64434,42.461091 1.18028,1.601805 3.73785,0.244772 3.07374,-1.630879 z m -145.94625,98.437816 c -0.0571,-0.726961 -0.6884,-1.412116 -1.4028,-1.522565 -1.93227,-0.298735 -35.85022,13.984315 -39.42685,16.602864 -2.50338,1.832803 -2.83895,2.487344 -1.7801,3.472134 0.99505,0.92547 2.27618,0.580789 5.39648,-1.451889 3.18689,-2.076055 22.7482,-10.394588 35.6922,-15.178279 0.89373,-0.330291 1.57819,-1.195329 1.52107,-1.922265 z m -39.05011,-0.83743 c 0.21335,-0.639084 -0.48557,-4.984247 -1.55316,-9.655923 -2.69434,-11.790272 -3.71882,-21.328806 -4.72564,-43.9988194 -0.47769,-10.7559017 -1.25617,-20.0856116 -1.72995,-20.7326826 -2.35644,-3.218316 -2.76266,2.288041 -1.72122,23.3311764 1.10335,22.2936176 3.06823,38.2833526 5.83014,47.4442406 1.2981,4.30555 3.1085,5.982359 3.89983,3.612008 z m 100.81799,-84.830697 c -5.10904,-6.932166 -7.93826,-9.620646 -19.02306,-18.076799 -7.52707,-5.742108 -9.8787,-7.019947 -11.17381,-6.071671 -1.17227,0.858337 0.50857,2.456694 11.17076,10.622542 7.71028,5.905056 11.46302,9.459622 15.36973,14.558074 4.32537,5.644828 5.42402,6.62473 6.7333,6.005533 1.36619,-0.646111 0.97605,-1.538471 -3.07692,-7.037679 z m -30.35723,17.046407 c -0.0488,-0.620435 -0.71627,-1.532458 -1.48335,-2.026708 -1.9704,-1.269585 -3.85813,-7.544094 -4.12961,-13.72618 -0.21001,-4.781935 -1.67939,-7.591145 -3.33612,-6.378093 -0.86655,0.63449 -0.23377,11.782253 0.87469,15.409491 1.66715,5.455489 8.41648,11.0739128 8.07439,6.72149 z M -466.4331,6.5320868 c 0.22727,-2.9872955 -0.40465,-8.8097339 -1.4043,-12.9387621 -2.44054,-10.0807437 -8.45075,-26.0158197 -10.24948,-27.1747847 -2.23515,-1.44018 -3.20945,-0.02152 -1.94866,2.837426 7.05362,15.994644 11.32017,33.0521707 9.81278,39.2311722 -1.11656,4.5768728 -0.44468,6.2741758 1.8256,4.6118818 0.85295,-0.624523 1.73677,-3.5796399 1.96406,-6.5669332 z m -44.88017,23.3150082 c -0.0479,-0.609723 -2.64387,-3.767623 -5.76875,-7.017572 -3.12489,-3.249951 -5.86096,-6.568258 -6.08015,-7.374028 -0.21919,-0.80577 1.90756,-8.8321282 4.72612,-17.8363548 2.81855,-9.0042122 5.51879,-18.4076172 6.00053,-20.8964452 0.9757,-5.040874 0.67263,-14.518905 -0.51618,-16.142527 -1.65068,-2.254427 -3.0125,0.853922 -2.51317,5.736326 0.48636,4.755536 -3.78288,22.278845 -10.62404,43.6068843 -2.22811,6.9463697 -2.31483,6.7446057 6.91276,16.0848297 5.15667,5.219619 8.08372,6.648699 7.86288,3.838887 z m -14.55636,-32.208652 c 6.48556,-7.685539 6.8993,-11.858502 2.20103,-22.199598 -3.68245,-8.105243 -7.26169,-12.606762 -9.0075,-11.328484 -0.93281,0.682997 -0.22529,2.49529 3.08621,7.90527 7.08258,11.570749 7.05474,16.138393 -0.14841,24.343304 -2.73573,3.11619762 -3.69191,4.9450303 -3.16641,6.0561905 0.88946,1.8807616 2.12503,1.041833 7.03508,-4.7766825 z m 64.74841,-51.295494 c 0.0669,-0.432937 -1.85881,-2.508723 -4.2795,-4.612809 -2.42066,-2.104099 -12.77034,-11.246686 -22.9993,-20.316849 -15.32445,-13.588421 -18.7912,-16.28054 -19.69519,-15.294297 -1.39269,1.519412 -1.99484,0.91656 23.206,23.232438 11.45555,10.14413 20.97822,18.648667 21.16149,18.898974 0.43242,0.590584 2.44838,-0.884701 2.6065,-1.907457 z m 73.12413,-60.589409 c -0.39558,-0.56245 -5.66839,-5.34653 -11.7173,-10.63133 -7.06762,-6.17483 -11.36352,-9.34112 -12.02077,-8.85988 -0.56252,0.41187 -0.98939,1.14272 -0.94861,1.62412 0.0595,0.70204 11.26378,10.8056 21.23879,19.15222 1.85629,1.55326 4.6991,0.49366 3.44789,-1.28513 z m -60.15128,31.787671 c -6.46859,-7.922441 -9.74852,-10.565777 -10.121,-8.1566 -0.16745,1.083155 7.32506,11.026228 11.70507,15.533435 2.03903,2.098232 3.38522,2.7888 4.2303,2.170036 1.06899,-0.782707 0.26903,-2.096185 -5.81437,-9.546871 z m -90.92257,21.45314 c 5.98124,-24.671741 6.68506,-29.63008 3.91842,-27.604352 -1.42691,1.044778 -14.00699,51.945642 -13.16123,53.2523 0.35655,0.550786 1.13767,0.963011 1.73589,0.915995 0.59821,-0.04702 3.97632,-12.00079 7.50692,-26.563943 z m 105.76505,-58.402981 c -0.68511,-2.51857 -8.9845,-12.4067 -9.8694,-11.75878 -1.0807,0.79128 7.07259,12.82777 8.87842,13.10695 0.95804,0.14812 1.27917,-0.28876 0.99098,-1.34817 z m 39.77851,564.79513 c -17.02096,-8.59363 -21.76048,-13.60079 -30.50111,-32.22355 l -4.97873,-10.60769 7.64356,9.18882 c 9.02217,10.84615 15.08068,16.45456 24.72576,22.88882 4.58904,3.06135 9.0383,7.00048 12.6394,11.19022 l 5.55739,6.4658 -3.61381,-1.46735 c -1.9876,-0.80704 -7.1502,-3.25282 -11.47246,-5.43507 z m 219.04262,-177.25489 c -0.21723,-0.79856 0.14367,-1.84631 0.80199,-2.32832 1.03271,-0.75615 1.38474,-0.22458 2.56543,3.8738 l 1.36848,4.75019 -2.17047,-2.42187 c -1.19375,-1.33203 -2.34822,-3.07522 -2.56543,-3.8738 z m -57.45508,-283.476289 c -9.74666,-8.46515 -23.43999,-22.729572 -36.6178,-38.144981 -16.79905,-19.651557 -55.92585,-71.13624 -53.45539,-70.33886 5.64064,1.82062 29.06523,23.48095 48.14839,44.522015 12.9926,14.325619 29.26816,36.60567 35.69035,48.85746 4.69352,8.95395 10.68755,17.086797 14.61182,19.825636 1.677,1.170419 1.65739,1.190069 -0.60363,0.605191 -1.28531,-0.332484 -4.78347,-2.729396 -7.77372,-5.326473 z" id="path7079" inkscape:connector-curvature="0" style="fill:#47091f;fill-opacity:1"/>
</g>
</g></g>
</g>
</svg>