<?xml version="1.0" encoding="utf-8"?>
<!-- Created with Inkscape (http://www.inkscape.org/) --><svg height="152.42821mm" id="svg6779" inkscape:version="0.92.2 (unknown)" sodipodi:docname="niveau4.svg" version="1.1" viewBox="0 0 338.49999 540.09995" width="95.532219mm" xmlns="http://www.w3.org/2000/svg" xmlns:cc="http://creativecommons.org/ns#" xmlns:dc="http://purl.org/dc/elements/1.1/" xmlns:inkscape="http://www.inkscape.org/namespaces/inkscape" xmlns:rdf="http://www.w3.org/1999/02/22-rdf-syntax-ns#" xmlns:sodipodi="http://sodipodi.sourceforge.net/DTD/sodipodi-0.dtd" xmlns:svg="http://www.w3.org/2000/svg">
<defs id="defs6781"/>
<sodipodi:namedview bordercolor="#666666" borderopacity="1.0" id="base" inkscape:current-layer="layer1" inkscape:cx="162.31259" inkscape:cy="62.808588" inkscape:document-units="px" inkscape:pageopacity="0.0" inkscape:pageshadow="2" inkscape:window-height="728" inkscape:window-maximized="1" inkscape:window-width="1366" inkscape:window-x="0" inkscape:window-y="21" inkscape:zoom="1.979899" pagecolor="#ffffff" showgrid="false"/>
<metadata id="metadata6784">
<rdf:RDF>
<cc:Work rdf:about="">
<dc:format>image/svg+xml</dc:format>
<dc:type rdf:resource="http://purl.org/dc/dcmitype/StillImage"/>
<dc:title/>
</cc:Work>
</rdf:RDF>
</metadata>
<g id="layer1" inkscape:groupmode="layer" inkscape:label="Calque 1" transform="translate(0,0.23029041)">
<rect height="539.09998" id="rect4326-0-3-6-4-3-2-61-6-9-9-5-0-7-0-5-8-8-9-4-5-5" inkscape:export-xdpi="90" inkscape:export-ydpi="90" style="fill:#ffffff;fill-opacity:1;stroke:#000000;stroke-opacity:1" width="337.5" x="0.5" y="0.26970959"/>
<rect height="486.97104" id="rect2985-3-0-7-7-6-9-6-2-0-3-5-4-5-0-77-3-1-3-5-5-4-3-9-7-0-1-8-1" inkscape:export-filename="/home/thomas/Documents/fallacies/png/rect2985-3-0-7-7.png" inkscape:export-xdpi="90" inkscape:export-ydpi="90" rx="9.2935619" ry="7.1613393" style="fill:#ffffff;fill-opacity:1;stroke:#e42065;stroke-width:12;stroke-miterlimit:4;stroke-dasharray:none;stroke-dashoffset:0;stroke-opacity:1" width="285.0025" x="26.906189" y="26.612749"/>
<ellipse cx="169.40732" cy="279.7749" id="oval" inkscape:label="#path6246-7-6-6-9-7-6-9-3-1-1-722-4-6-4-7-1-9-6-2-0-7-5-4-6-9-9" rx="131.36859" ry="205.59465" style="fill:#e42065;fill-opacity:1;stroke:#e42065;stroke-width:1.01065052;stroke-opacity:1"/>
<rect height="15" id="sfam_1_active" inkscape:label="#rect13148-3-0-9-3-80-7-76" style="fill:#ffffff;fill-opacity:1;stroke:none;stroke-width:5.83799982;stroke-linecap:round;stroke-linejoin:bevel;stroke-miterlimit:4;stroke-dasharray:none;stroke-dashoffset:0;stroke-opacity:1;display:none;" transform="rotate(90)" width="65.714287" x="424.42206" y="-34.320938"/>
<rect height="15" id="sfam_2_active" inkscape:label="#rect13148-3-0-9-3-80-7-76" style="fill:#ffffff;fill-opacity:1;stroke:none;stroke-width:5.83799982;stroke-linecap:round;stroke-linejoin:bevel;stroke-miterlimit:4;stroke-dasharray:none;stroke-dashoffset:0;stroke-opacity:1" transform="rotate(90)" width="65.714287" x="216.29706" y="-34.320938"/>
<rect height="15" id="sfam_3_active" inkscape:label="#rect13148-3-0-9-3-80-7-76" style="fill:#ffffff;fill-opacity:1;stroke:none;stroke-width:5.83799982;stroke-linecap:round;stroke-linejoin:bevel;stroke-miterlimit:4;stroke-dasharray:none;stroke-dashoffset:0;stroke-opacity:1;display:none;" transform="rotate(90)" width="65.714287" x="49.422073" y="-34.320938"/>
<text id="sfam_3" inkscape:label="#text4212-1-29-1-2-8-9-0-9-6-9-8-3-1-0-6-8-0-4-2-3-6-9-3-6-2-6-4-2" style="font-style:normal;font-variant:normal;font-weight:bold;font-stretch:normal;font-size:11.24999994px;line-height:0%;font-family:stix;-inkscape-font-specification:'stix, bold';font-variant-ligatures:normal;font-variant-caps:normal;font-variant-numeric:normal;font-feature-settings:normal;text-align:end;letter-spacing:0px;word-spacing:0px;writing-mode:lr;text-anchor:end;fill:#FFFFFF;fill-opacity:1;stroke:none;" transform="rotate(-90)" x="-51.643555" xml:space="preserve" y="31.116638"><tspan id="tspan4214-27-1-2-9-7-6-4-1-1-1-3-9-59-96-1-6-2-1-8-8-2-7-4-5-4-7-3-9" sodipodi:role="line" style="font-style:normal;font-variant:normal;font-weight:bold;font-stretch:normal;font-size:11.24999994px;line-height:0%;font-family:stix;-inkscape-font-specification:'stix, bold';font-variant-ligatures:normal;font-variant-caps:normal;font-variant-numeric:normal;font-feature-settings:normal;text-align:end;letter-spacing:0px;word-spacing:0px;writing-mode:lr;text-anchor:end;fill:#FFFFFF;fill-opacity:1;stroke:none;" x="-51.643555" y="31.116638">Pensée biaisée</tspan></text>
<rect height="17.763229" id="rect5818-6-6-9-3-0-7" style="fill:#e42065;fill-opacity:1;stroke:none;stroke-width:0.91443771;stroke-linecap:round;stroke-linejoin:bevel;stroke-miterlimit:4;stroke-dasharray:none;stroke-dashoffset:0;stroke-opacity:1" width="278.215" x="30.299866" y="495.76239"/>
<text id="fam_num" inkscape:label="#text5665-3-4-9-4-3-3-5-7-5-8-4-6-8-6-6-3-0-6-3-4" style="font-style:normal;font-weight:normal;line-height:0%;font-family:sans-serif;letter-spacing:0px;word-spacing:0px;fill:#000000;fill-opacity:1;stroke:none" x="40.722107" xml:space="preserve" y="513.8327"><tspan id="tspan5667-04-4-6-18-8-8-0-0-1-5-7-0-9-2-1-9-1-5-0-3" sodipodi:role="line" style="font-style:normal;font-variant:normal;font-weight:bold;font-stretch:normal;font-size:17.5px;line-height:1.25;font-family:STIX;-inkscape-font-specification:'STIX Bold';fill:#ffffff" x="40.722107" y="513.8327">6</tspan></text>
<text id="sfam_2" inkscape:label="#text4212-1-29-1-2-8-9-0-9-6-9-15-4-9-9-24-4-6-7-5-4-2-6-9-5" style="font-style:normal;font-variant:normal;font-weight:bold;font-stretch:normal;font-size:11.25px;line-height:0%;font-family:stix;-inkscape-font-specification:'stix, bold';font-variant-ligatures:normal;font-variant-caps:normal;font-variant-numeric:normal;font-feature-settings:normal;text-align:start;letter-spacing:0px;word-spacing:0px;writing-mode:lr-tb;text-anchor:start;fill:#1b0603;fill-opacity:1;stroke:none" transform="rotate(-90)" x="-271.55652" xml:space="preserve" y="29.420349"><tspan id="tspan4214-27-1-2-9-7-6-4-1-1-1-9-8-7-7-0-88-0-1-6-8-0-3-2-6" sodipodi:role="line" style="font-style:normal;font-variant:normal;font-weight:bold;font-stretch:normal;font-size:11.25px;line-height:0%;font-family:stix;-inkscape-font-specification:'stix, bold';font-variant-ligatures:normal;font-variant-caps:normal;font-variant-numeric:normal;font-feature-settings:normal;text-align:start;letter-spacing:0px;word-spacing:0px;writing-mode:lr-tb;text-anchor:start;fill:#1b0603;fill-opacity:1;stroke:none" x="-271.55652" y="29.420349">Changement de cap</tspan></text>
<text id="sfam_1" inkscape:label="#text4212-1-29-1-2-8-9-0-9-6-9-17-4-1-5-6-8-7-5-1-12-0-9-54-1" style="font-style:normal;font-variant:normal;font-weight:bold;font-stretch:normal;font-size:11.25px;line-height:0%;font-family:stix;-inkscape-font-specification:'stix, bold';font-variant-ligatures:normal;font-variant-caps:normal;font-variant-numeric:normal;font-feature-settings:normal;text-align:start;letter-spacing:0px;word-spacing:0px;writing-mode:lr-tb;text-anchor:start;fill:#FFFFFF;fill-opacity:1;stroke:none" transform="rotate(-90)" x="-486.01733" xml:space="preserve" y="29.420349"><tspan id="tspan4214-27-1-2-9-7-6-4-1-1-1-85-8-3-3-2-9-0-8-7-9-6-4-0-4" sodipodi:role="line" style="font-style:normal;font-variant:normal;font-weight:bold;font-stretch:normal;font-size:11.25px;line-height:0%;font-family:stix;-inkscape-font-specification:'stix, bold';font-variant-ligatures:normal;font-variant-caps:normal;font-variant-numeric:normal;font-feature-settings:normal;text-align:start;letter-spacing:0px;word-spacing:0px;writing-mode:lr-tb;text-anchor:start;fill:#FFFFFF;fill-opacity:1;stroke:none" x="-486.01733" y="29.420349">Arranger les faits</tspan></text>
<rect height="15" id="ssfam_1_active" inkscape:label="#rect13148-3-0-9-3-80-7-7-3-3" style="fill:#ffffff;fill-opacity:1;stroke:none;stroke-width:5.83799982;stroke-linecap:round;stroke-linejoin:bevel;stroke-miterlimit:4;stroke-dasharray:none;stroke-dashoffset:0;stroke-opacity:1" transform="rotate(90)" width="124.30313" x="361.88724" y="-319.71991"/>
<rect height="15" id="ssfam_2_active" inkscape:label="#rect13148-3-0-9-3-80-7-7-3-3" style="fill:#ffffff;fill-opacity:1;stroke:none;stroke-width:5.83799982;stroke-linecap:round;stroke-linejoin:bevel;stroke-miterlimit:4;stroke-dasharray:none;stroke-dashoffset:0;stroke-opacity:1;display:none;" transform="rotate(90)" width="124.30313" x="210.01224" y="-319.71991"/>
<rect height="15" id="ssfam_3_active" inkscape:label="#rect13148-3-0-9-3-80-7-7-3-3" inkscape:transform-center-x="27.937032" inkscape:transform-center-y="5.2085991" style="fill:#ffffff;fill-opacity:1;stroke:none;stroke-width:5.83799982;stroke-linecap:round;stroke-linejoin:bevel;stroke-miterlimit:4;stroke-dasharray:none;stroke-dashoffset:0;stroke-opacity:1;display:none;" transform="rotate(90)" width="124.30313" x="44.250797" y="-319.67227"/>
<text id="ssfam_3" inkscape:label="#text4212-1-29-1-2-8-9-0-9-6-9-8-3-1-0-6-92-3-6-9-3-6-2-3-39-8-5-0" style="font-style:normal;font-variant:normal;font-weight:bold;font-stretch:normal;font-size:11.25px;line-height:0%;font-family:stix;-inkscape-font-specification:'stix, bold';font-variant-ligatures:normal;font-variant-caps:normal;font-variant-numeric:normal;font-feature-settings:normal;text-align:start;letter-spacing:0px;word-spacing:0px;writing-mode:lr-tb;text-anchor:start;fill:#FFFFFF;fill-opacity:1;stroke:none" transform="rotate(90)" x="45.746761" xml:space="preserve" y="-309.22137"><tspan id="tspan4214-27-1-2-9-7-6-4-1-1-1-3-9-59-96-1-318-6-04-1-7-5-8-9-0-1-9-3" sodipodi:role="line" style="font-style:normal;font-variant:normal;font-weight:bold;font-stretch:normal;font-size:11.25px;line-height:0%;font-family:stix;-inkscape-font-specification:'stix, bold';font-variant-ligatures:normal;font-variant-caps:normal;font-variant-numeric:normal;font-feature-settings:normal;text-align:start;letter-spacing:0px;word-spacing:0px;writing-mode:lr-tb;text-anchor:start;fill:#FFFFFF;fill-opacity:1;stroke:none" x="45.746761" y="-309.22137">Exigence relâchée</tspan></text>
<text id="ssfam_2" inkscape:label="#text4212-1-29-1-2-8-9-0-9-6-9-15-7-7-8-9-7-6-1-0-8-29-4-1" style="font-style:normal;font-variant:normal;font-weight:bold;font-stretch:normal;line-height:0%;font-family:stix;-inkscape-font-specification:'stix, bold';letter-spacing:0px;word-spacing:0px;fill:#FFFFFF;fill-opacity:1;stroke:none;font-size:11.24999994px;text-anchor:start;text-align:start;writing-mode:lr;font-variant-ligatures:normal;font-variant-caps:normal;font-variant-numeric:normal;font-feature-settings:normal;" transform="rotate(90)" x="220.50974" xml:space="preserve" y="-309.22137"><tspan id="tspan4214-27-1-2-9-7-6-4-1-1-1-9-41-5-8-6-2-8-2-8-38-3-6-2" sodipodi:role="line" style="font-style:normal;font-variant:normal;font-weight:bold;font-stretch:normal;line-height:0%;font-family:stix;-inkscape-font-specification:'stix, bold';letter-spacing:0px;word-spacing:0px;fill:#FFFFFF;fill-opacity:1;stroke:none;font-size:11.24999994px;text-anchor:start;text-align:start;writing-mode:lr;font-variant-ligatures:normal;font-variant-caps:normal;font-variant-numeric:normal;font-feature-settings:normal;" x="220.50974" y="-309.22137">Beurre et argent du beurre</tspan></text>
<text id="ssfam_1" inkscape:label="#text4212-1-29-1-2-8-9-0-9-6-9-17-63-3-97-3-6-4-4-8-73-9-92-7" style="font-style:normal;font-variant:normal;font-weight:bold;font-stretch:normal;font-size:11.25px;line-height:0%;font-family:stix;-inkscape-font-specification:'stix, bold';font-variant-ligatures:normal;font-variant-caps:normal;font-variant-numeric:normal;font-feature-settings:normal;text-align:end;letter-spacing:0px;word-spacing:0px;writing-mode:lr-tb;text-anchor:end;fill:#1b0603;fill-opacity:1;stroke:none" transform="rotate(90)" x="480.93921" xml:space="preserve" y="-308.55173"><tspan id="tspan4214-27-1-2-9-7-6-4-1-1-1-85-85-5-76-3-4-8-7-5-1-0-2-9" sodipodi:role="line" style="font-style:normal;font-variant:normal;font-weight:bold;font-stretch:normal;font-size:11.25px;line-height:0%;font-family:stix;-inkscape-font-specification:'stix, bold';font-variant-ligatures:normal;font-variant-caps:normal;font-variant-numeric:normal;font-feature-settings:normal;text-align:end;letter-spacing:0px;word-spacing:0px;writing-mode:lr-tb;text-anchor:end;fill:#1b0603;fill-opacity:1;stroke:none" x="480.93921" y="-308.55173">Exigence renforcée</tspan></text>
<rect height="23.57143" id="rect13148-3-36-1-5-8-4-8" rx="8.7534218" ry="9.7777777" style="fill:#ffffff;fill-opacity:1;stroke:none;stroke-width:5.83799982;stroke-linecap:round;stroke-linejoin:bevel;stroke-miterlimit:4;stroke-dasharray:none;stroke-dashoffset:0;stroke-opacity:1" width="103.16534" x="118.54767" y="18.612719"/>
<text id="text" inkscape:label="#text5516-78-3-4-89-9-1-3-6-2-4-3-9-5-3-7-7-2-6-1-6-5-0-5-7-1" style="font-style:normal;font-variant:normal;font-weight:bold;font-stretch:normal;line-height:0%;font-family:STIX;-inkscape-font-specification:'STIX Bold';text-align:center;letter-spacing:0px;word-spacing:0px;writing-mode:lr-tb;text-anchor:middle;fill:#490f07;fill-opacity:1;stroke:none" x="169.24466" xml:space="preserve" y="39.097687"><tspan id="tspan9035" sodipodi:role="line" style="font-style:normal;font-variant:normal;font-weight:bold;font-stretch:normal;font-size:25px;line-height:100%;font-family:STIX;-inkscape-font-specification:'STIX Bold';text-align:center;writing-mode:lr-tb;text-anchor:middle;fill:#490f07;fill-opacity:1" x="169.24466" y="39.097687">Solution parfaite</tspan><tspan id="tspan5336" sodipodi:role="line" style="font-style:normal;font-variant:normal;font-weight:bold;font-stretch:normal;font-size:25px;line-height:100%;font-family:STIX;-inkscape-font-specification:'STIX Bold';text-align:center;writing-mode:lr-tb;text-anchor:middle;fill:#490f07;fill-opacity:1" x="169.24466" y="64.097687"/></text>
<rect height="26.428572" id="rect13148-3-3-2-4-1-4-5-6" rx="8.4705887" ry="15" style="fill:#ffffff;fill-opacity:1;stroke:none;stroke-width:5.83799982;stroke-linecap:round;stroke-linejoin:bevel;stroke-miterlimit:4;stroke-dasharray:none;stroke-dashoffset:0;stroke-opacity:1" width="68.571434" x="135.12161" y="494.59808"/>
<text id="fam_text" inkscape:label="#text4212-1-29-1-2-8-9-0-9-67-9-6-3-5-23-0-1-7-3-2-3-4-7-8-8-8-4-0" style="font-style:normal;font-variant:normal;font-weight:bold;font-stretch:normal;font-size:15px;line-height:0%;font-family:STIX;-inkscape-font-specification:'STIX, Bold';font-variant-ligatures:normal;font-variant-caps:normal;font-variant-numeric:normal;font-feature-settings:normal;text-align:center;letter-spacing:0px;word-spacing:0px;writing-mode:lr-tb;text-anchor:middle;fill:#1b0603;fill-opacity:1;stroke:none" x="164.26151" xml:space="preserve" y="513.46771"><tspan id="tspan4214-27-1-2-9-7-6-4-1-5-2-3-65-0-7-6-31-5-8-5-4-6-0-1-0-5-8-1" sodipodi:role="line" style="font-style:normal;font-variant:normal;font-weight:bold;font-stretch:normal;font-size:15px;line-height:1.25;font-family:STIX;-inkscape-font-specification:'STIX, Bold';font-variant-ligatures:normal;font-variant-caps:normal;font-variant-numeric:normal;font-feature-settings:normal;text-align:center;writing-mode:lr-tb;text-anchor:middle;fill:#1b0603;fill-opacity:1" x="164.26151" y="513.46771">Tricherie</tspan></text>
<flowRoot id="desc" inkscape:label="#flowRoot5388-1-9-2-7-9-4-63-8-65-6-8-7-2-3-5-4-9-17-61-1-0" style="font-style:normal;font-variant:normal;font-weight:bold;font-stretch:normal;line-height:0.01%;font-family:STIX;-inkscape-font-specification:'STIX Bold';text-align:center;letter-spacing:0px;word-spacing:0px;text-anchor:middle;fill:#1b0603;fill-opacity:1;stroke:none" transform="translate(161.20564,945.16255)" xml:space="preserve"><flowRegion id="flowRegion5390-2-2-5-6-3-9-94-3-6-8-8-5-1-8-5-4-6-9-15-2-2"><rect height="77.283951" id="rect5392-7-0-4-8-6-2-8-5-84-3-3-4-2-2-3-3-0-1-9-8-5" style="font-style:normal;font-variant:normal;font-weight:bold;font-stretch:normal;font-size:15px;line-height:100%;font-family:stix;-inkscape-font-specification:'stix bold';text-align:center;text-anchor:middle;fill:#e42065;fill-opacity:1" width="264.06375" x="-123.22692" y="-557.27393"/></flowRegion><flowPara id="flowPara5394-0-2-4-9-0-06-12-6-8-2-1-8-0-3-8-0-7-0-8-9-1" style="font-style:normal;font-variant:normal;font-weight:bold;font-stretch:normal;font-size:15px;line-height:100%;font-family:STIX;-inkscape-font-specification:'STIX Bold';text-align:center;text-anchor:middle;fill:#1b0603;fill-opacity:1">Vous rejetez toute proposition qui ne suffirait pas à résoudre complètement le problème évoqué.</flowPara></flowRoot> <flowRoot id="example" inkscape:label="#flowRoot5388-1-9-2-7-9-4-63-8-92-2-3-8-9-5-4-5-19-0-3-48-36-9" style="font-style:normal;font-variant:normal;font-weight:bold;font-stretch:normal;line-height:0.01%;font-family:STIX;-inkscape-font-specification:'STIX Bold';text-align:center;letter-spacing:0px;word-spacing:0px;text-anchor:middle;fill:#1b0603;fill-opacity:1;stroke:none" transform="translate(158.93154,1003.4804)" xml:space="preserve"><flowRegion id="flowRegion5390-2-2-5-6-3-9-94-3-17-8-6-9-1-6-0-9-6-1-59-1-8-7"><rect height="48.063705" id="rect5392-7-0-4-8-6-2-8-5-7-1-2-6-5-5-9-91-21-0-4-0-0-1" style="font-style:normal;font-variant:normal;font-weight:bold;font-stretch:normal;font-size:15px;line-height:100%;font-family:stix;-inkscape-font-specification:'stix bold';text-align:center;text-anchor:middle;fill:#e42065;fill-opacity:1;stroke-width:0.57831079" width="267.68024" x="-123.22692" y="-557.27393"/></flowRegion><flowPara id="flowPara5394-0-2-4-9-0-06-12-6-9-2-2-4-4-0-4-4-2-1-8-30-2-3" style="font-style:italic;font-variant:normal;font-weight:bold;font-stretch:normal;font-size:12.5px;line-height:100%;font-family:STIX;-inkscape-font-specification:'STIX Bold Italic';text-align:center;text-anchor:middle;fill:#1b0603;fill-opacity:1">Je suis opposée au port obligatoire de la ceinture de sécurité car cette mesure n'empêche nullement les accidents de la route.</flowPara></flowRoot> <g id="illustration" inkscape:groupmode="layer" inkscape:label="#illustration" transform="translate(-6.802157,-67.336793)"><g id="814" inkscape:label="#g9841" transform="translate(691.42567,-802.41342)">
<path d="m -513.18102,1222.6743 6.92174,6.868 m 3.45788,3.434 7.1442,7.077 m 3.45937,3.434 6.36184,6.3155 m 3.9043,3.867 6.80976,6.7635 m 3.68184,3.643 5.24803,5.3152 m -112.44085,-0.1045 7.69363,-7.301 m 3.68483,-3.3294 4.80609,-4.7479 m 4.79415,-4.8823 5.36151,-5.1957 m 4.4627,-4.4344 5.80345,-5.7482 m 3.7968,-3.7624 6.80677,-6.7635 m 4.35818,-4.0909 4.99273,-5.1809 3.0891,3.0607 2.12012,2.1052" id="path8371" inkscape:connector-curvature="0" style="fill:none;stroke:#47091f;stroke-width:0.79102725;stroke-miterlimit:4;stroke-dasharray:none;stroke-opacity:1"/>
<path d="m -513.52143,986.0005 6.92173,6.8659 m 3.45789,3.4307 7.14419,7.0875 m 3.45938,3.4316 6.36035,6.3102 m 3.90579,3.8747 6.80976,6.7554 m 3.68183,3.652 5.80345,5.7572 m 3.9043,3.8744 7.03222,6.9755 m 3.34889,3.322 6.57983,6.5321 m 3.56836,3.5429 6.59924,6.5336 m 4.01628,3.9834 6.68882,6.6441 m 4.24023,4.2073 5.91244,5.8677 m 4.13573,4.0969 3.46385,3.4325 2.47845,2.465 -3.91177,3.8789 -2.67254,2.6576 m -4.13572,4.0954 -6.36035,6.3126 m -3.56837,3.543 -6.03188,5.9781 m -4.34475,4.3164 -6.25584,6.2006 m -4.01628,3.9879 -5.91393,5.8677 m -4.68665,4.6493 -6.02741,5.9796 m -3.79232,3.7625 -6.5843,6.5276 m -3.68483,3.6579 -6.13639,6.0916 m -3.57136,3.5385 -6.80826,6.7485 m -4.13124,4.1059 -6.24837,6.1961 m -3.68483,3.658 -5.91244,5.8676 m -3.90878,3.867 -3.45937,3.434 -2.55608,2.5382 -4.58065,-4.5389 -2.2306,-2.2097 m -2.90247,-2.8816 -7.14271,-7.0919 m -4.01628,-3.9864 -5.58098,-5.5243 m -4.57617,-4.5537 -5.46901,-5.4198 m -4.24023,-4.2103 -6.58431,-6.5246 m -4.01777,-3.9864 -6.58729,-6.5351 m -3.3459,-3.319 -7.14226,-7.086 m -2.90262,-2.8801 -6.3608,-6.3095 m -3.90564,-3.8745 -6.58595,-6.5335 m -3.90565,-3.8745 -6.69778,-6.6455 m -3.45788,-3.4295 -6.5858,-6.5335 m -4.01627,-3.985 -2.90247,-2.8785 -2.66956,-2.6487 3.69975,-3.6699 2.34408,-2.3247 m 3.68482,-3.6549 5.35553,-5.3152 m 45.64971,-45.284 6.91576,-6.862 m 3.68482,-3.6549 6.6948,-6.6421 m 3.57135,-3.5429 6.5858,-6.5325 m 3.79531,-3.7651 6.47083,-6.4196 m 3.7968,-3.7661 6.80528,-6.7518 m -57.70003,57.1252 5.84003,-5.9423 m -16.88778,17.0162 5.74776,-5.7019 m -16.12782,15.9994 7.47774,-7.4189 m -18.63464,18.8287 8.01046,-8.4431 m 86.63217,-85.5572 4.99272,-5.1839 3.0891,3.0653 2.12012,2.1037" id="path8730" inkscape:connector-curvature="0" style="fill:none;stroke:#47091f;stroke-width:0.79102725;stroke-miterlimit:4;stroke-dasharray:none;stroke-opacity:1"/>
<path d="m -581.62002,1153.7217 3.70393,-3.6697 2.3344,-2.3251 m 3.6728,-3.6541 5.35357,-5.3162 m 45.66097,-45.2844 6.91607,-6.8631 m 3.68525,-3.6542 6.69507,-6.6421 m 3.5732,-3.5421 6.58303,-6.5332 m 3.7973,-3.7662 6.47097,-6.418 m 3.7973,-3.7662 6.80401,-6.7542 m -57.69094,57.1275 5.82045,-5.9449 m -16.86997,17.0194 5.72707,-5.7022 m -16.12296,15.9984 7.50122,-7.4171 m -18.64412,18.8277 7.99923,-8.4443 m 86.64069,-85.5575 4.99252,-5.1824" id="rect2686" inkscape:connector-curvature="0" style="fill:none;stroke:#47091f;stroke-width:0.79102731;stroke-miterlimit:4;stroke-dasharray:none;stroke-opacity:1"/>
<path d="m -572.74928,1045.0753 6.94097,6.8663 m 3.45492,3.4331 7.12772,7.0873 m 3.48604,3.43 6.34959,6.3122 m 3.89067,3.8751 6.81647,6.7542 m 3.6728,3.6542 5.82045,5.7551 m 3.89067,3.8751 7.03435,6.9752 m 3.35843,3.3211 6.58613,6.5332 m 3.57009,3.5421 6.58614,6.5332 m 4.01517,3.984 6.69819,6.6453 m 4.24239,4.2082 5.91383,5.8671 m 4.13034,4.0961 3.45804,3.4331 2.48692,2.4652 m -118.40106,-117.4642 3.08142,3.0627 2.11652,2.1041" id="path8732" inkscape:connector-curvature="0" style="fill:none;stroke:#47091f;stroke-width:0.79102731;stroke-miterlimit:4;stroke-dasharray:none;stroke-opacity:1"/>
<path d="m -522.64974,986.9123 c -0.76857,2.7556 -2.25419,1.8452 -3.41621,5.1244 -0.0111,3.2561 -5.69872,5.0019 -5.57983,8.5405 -2.75633,2.1706 -2.87269,3.562 -4.55489,6.0353 -2.28829,1.568 -3.7645,6.9086 -6.94633,9.4515 -1.23574,1.1988 -3.21624,4.924 -4.44106,6.2631 -0.98119,3.4938 -4.37889,5.6417 -5.92148,9.6792 -2.18893,4.39 -2.79011,8.9165 -4.09942,13.2094 -0.65323,6.3089 0.13361,12.8859 1.13877,18.1059 1.46482,4.673 1.6148,9.1375 3.3023,13.5509 -3.38679,2.3664 -5.00728,2.409 -11.10555,1.5943 -6.94237,-0.3253 -14.54335,0.9395 -20.66519,-1.3665 -5.50508,-0.5739 -10.38113,1.188 -14.40793,-0.4555 -11.53405,0.2994 -23.56597,-0.6032 -34.7855,0.4555 -3.13382,1.5853 -2.47212,5.8256 2.8526,5.0104 4.17338,-0.6581 6.61378,3.3523 11.26771,2.2775 4.72077,1.1791 6.19414,0.083 8.65439,-1.3665 5.73645,-0.6467 9.8422,4.2677 14.57586,4.555 3.43733,2.5984 10.837,1.6005 16.1334,1.822 5.52944,0.4978 10.66756,-0.4167 16.72951,1.1713 5.22458,-0.074 13.60338,-0.5888 16.44435,3.7252 2.81432,1.0789 1.91192,3.0549 2.16362,6.9463 1.76882,3.1328 2.68396,5.3275 3.64395,8.6544 0.77457,4.1047 2.9321,10.1483 3.87176,15.2591 2.68435,3.6931 -1.11337,13.5509 -1.02493,16.7452 0,3.7229 -0.91095,9.9153 -0.91095,12.1786 -0.0835,5.386 -2.41619,7.9295 -1.02486,12.7539 -0.76824,5.9482 -2.01719,7.3692 -1.93588,12.1903 -0.55917,3.5004 -0.2767,6.7037 -0.22773,10.8122 -0.61068,4.6707 1.5228,13.6983 1.59423,18.6212 -0.20946,4.5313 0.14081,3.8554 0.22774,7.2281 -0.60466,6.9937 0.75923,13.2374 1.25259,19.4724 1.34673,3.8435 0.72672,7.8157 3.18847,11.3874 1.7178,3.9399 2.25245,8.6081 3.18848,12.2983 1.03268,4.5332 1.89743,7.0349 1.82197,8.6544 -1.01702,2.3928 -4.24647,3.1 -6.49077,5.0105 -1.86145,1.7653 -5.78091,3.6413 -6.58887,4.5529 -2.70143,0.9805 -0.48948,3.1577 2.84256,2.2795 5.16169,0.079 10.19745,-0.7647 14.79205,-1.2526 2.22026,-2.8166 7.35806,0.5658 7.71007,-3.3828 0.85257,-2.7503 -0.66747,-5.3973 -2.24415,-7.5491 -1.49876,-11.6019 -1.06876,-20.0957 -1.25259,-32.6817 -1.42053,-6.5499 -3.12313,-8.5567 -5.35209,-12.8195 -0.33128,-4.4456 1.92631,-7.5196 2.16362,-10.8662 1.71202,-5.8569 -1.21731,-6.6333 0.79712,-11.6151 2.09669,-1.8349 1.40043,-8.087 3.3023,-10.8181 0.93056,-6.3318 1.4812,-7.8701 3.53011,-0.5693 1.33589,4.9177 1.70957,8.3983 2.39136,13.2093 -0.0214,7.6924 0.32883,14.4445 0.91095,21.5338 0.70923,4.2471 -0.63773,7.9831 -0.56931,11.7174 -1.1303,3.6845 -1.01528,7.9106 0.68321,12.418 -0.50254,5.4431 0.99235,6.9401 1.13877,11.8429 0.35825,4.9848 -1.5876,5.8811 -0.91103,10.7639 -3.63477,7.3485 0.62784,8.6505 5.92147,9.1582 4.1487,-0.2928 7.3284,0.6018 10.59605,0.4554 3.60969,-0.1367 4.81925,-0.1477 4.64634,-3.0319 -1.34103,-2.1416 -5.47478,-2.7702 -6.92964,-3.9144 -3.46154,-1.708 -3.74868,-4.1646 -3.98559,-8.8339 0.83493,-3.7156 -0.0316,-7.4457 0.68329,-11.094 1.26311,-3.8473 4.16729,-8.7259 3.64394,-14.4079 -0.18652,-5.0494 -1.24903,-6.3478 -1.13876,-11.8429 -0.29371,-14.9933 0.91546,-25.9471 2.733,-40.7069 1.87173,-8.7617 -2.36311,-22.6562 -1.93588,-31.8846 -3.04427,-8.9019 -0.0498,-20.3581 0.34164,-30.134 1.6758,-5.2255 -0.4917,-4.9902 1.82198,-8.1275 2.2439,-0.2524 2.56965,3.4826 4.32715,5.9214 4.29109,2.4717 3.31156,7.7448 5.12436,12.0706 1.46419,3.8263 3.03208,7.4839 6.94625,10.2486 1.55745,1.1011 5.75757,5.6399 8.19891,8.1989 2.94128,1.0519 4.76096,3.457 3.18848,7.2879 -0.96482,4.0103 -3.21323,5.459 0.1139,9.2238 5.50389,0.3624 6.42457,1.9798 8.99596,-0.5694 2.59252,-1.4898 2.40955,-8.4685 -0.91094,-11.3873 -1.66504,-3.8594 -2.64022,-9.555 -7.06016,-13.7788 -1.04511,-4.8027 -6.17072,-10.7252 -7.4018,-12.526 -1.60452,-3.2918 -6.1451,-6.9032 -6.55485,-8.6687 -1.00824,-5.7092 -4.44549,-11.2394 -4.14925,-17.5938 -0.53236,-4.1025 -2.27136,-7.1139 -1.48041,-12.526 2.923,-0.8304 13.91868,-2.399 15.60072,-4.0281 2.7826,-0.2643 8.57046,0.984 12.53193,0.911 3.74061,0.2819 7.82049,-0.195 11.38731,-1.0248 4.26807,-0.7411 7.797,-0.9989 10.81224,-2.733 1.91705,-3.1989 8.47886,-1.5865 12.29833,-0.911 4.61098,-1.288 7.94651,-1.1924 11.38739,-2.2775 3.86908,0.07 9.06621,-1.6892 9.45151,-4.0994 -2.44063,-1.5049 -6.75157,-1.584 -9.90706,-1.822 -4.95072,-1.0896 -9.50902,0.09 -14.12031,0 -2.48359,0.4884 -7.74036,1.9163 -12.48945,1.3665 -6.00168,0.3739 -12.52853,0.9331 -18.48417,0 -5.14065,1.72 -9.95002,2.0824 -15.89403,1.822 -4.84544,0.1089 -8.98868,1.2166 -12.91598,-1.2526 -9.68565,-2.148 -10.08354,4.125 -16.05619,2.6191 -4.93189,1.343 -8.42998,-7.0326 -6.49085,-10.4765 2.51776,-2.5125 3.44643,-7.6029 1.59423,-8.4382 0.63536,-4.7059 0.83739,-7.8861 -2.0497,-10.6925 -0.60174,-1.7316 -6.31984,-2.9512 -9.79316,-3.0746 -4.80272,-1.5612 -12.89153,2.8729 -10.93184,12.2984 -1.32932,5.2727 -0.21017,3.7649 0.56938,8.996 1.87853,2.6098 3.06523,4.7419 1.36642,9.5654 -2.9957,2.5689 -4.76831,-0.1218 -7.51563,-4.0995 -0.76421,-3.1626 -2.13213,-7.5889 -3.87168,-9.5653 -1.71566,-5.0787 -2.67074,-6.8381 -4.55497,-11.6152 -0.68202,-5.2632 1.8548,-8.9331 4.55497,-12.9816 2.2625,-3.3731 2.48841,-6.2615 4.32716,-9.6792 1.68868,-7.5653 2.10018,-7.4765 3.41621,-10.818 1.4865,-4.6477 2.82839,-6.7531 6.0353,-9.3376 1.25378,-2.2579 5.59533,-5.7919 7.17406,-8.5406 -3.34858,-1.8174 -3.55084,-6.1474 -0.11391,-7.7434 1.44711,-2.4873 1.29492,-3.5968 1.3665,-4.8966 -0.87305,-0.2092 -4.84164,-2.1357 -2.27744,-1.3665 z" id="path4308" inkscape:connector-curvature="0" sodipodi:nodetypes="cccccccccccccccccccccccccccccccccccccccccccccccccccccccccccccccccccccccccccccccccccccccccccccccccccccccccccccc" style="fill:#ffffff;fill-opacity:1;stroke:none;stroke-opacity:1"/>
<path d="m -537.60044,1279.683 c -1.41674,-0.3285 -2.84006,-0.4927 -4.30115,-0.3285 -1.68638,-0.045 -3.50939,-0.3583 -4.98436,-1.1347 -0.34176,-2.0007 1.58889,-2.777 3.09836,-3.3593 1.64398,-0.7913 3.57508,-0.9705 4.97421,-2.2396 1.98828,-1.6722 4.51704,-2.4784 6.56296,-4.0312 0.60109,-0.3285 0.56033,-0.9406 0.56257,-1.5378 0.11019,-2.1799 0.2901,-4.4045 -0.43671,-6.5097 -1.40868,-5.136 -3.3138,-10.1198 -4.76997,-15.235 -1.00571,-2.6456 -2.37408,-5.2062 -2.59863,-8.0803 -0.62484,-4.2477 -0.06,-8.5984 -0.89762,-12.8177 -0.7398,-1.7842 -0.37684,-3.776 -0.49778,-5.6572 -0.1078,-3.8893 0.13975,-7.8071 -0.35997,-11.6726 -1.67803,-6.4633 -1.93976,-13.1925 -1.90273,-19.8395 0.0575,-4.4045 0.36714,-8.8224 1.31611,-13.1313 0.24068,-1.9962 0.52406,-4.0013 1.2122,-5.9005 -0.14288,-3.2234 -0.62468,-6.5096 0.28323,-9.6704 0.94346,-3.431 1.10918,-6.9919 1.11754,-10.5304 0.0406,-2.9727 0.44956,-5.9199 0.72383,-8.8746 0.31175,-2.6636 0.79101,-5.3108 1.27461,-7.94 0.0267,-2.4561 0.23112,-4.9509 -0.17379,-7.3819 -0.95764,-2.705 -2.27763,-5.2791 -3.07999,-8.046 -1.07066,-2.9379 -1.05872,-6.1179 -1.51559,-9.1635 -1.15292,-2.0303 -2.4768,-4.0607 -2.64686,-6.4592 -0.39421,-2.1236 -0.1886,-4.6973 -2.02367,-6.2157 -2.34526,-2.0574 -5.67325,-2.1067 -8.62858,-2.3217 -2.24881,-0.051 -4.49211,-0.1329 -6.71136,-0.4897 -2.82782,-0.2613 -5.70192,-0.33 -8.42224,-1.2377 -0.94957,-0.1583 -1.88123,-0.6555 -2.84126,-0.6346 -6.6485,1.1303 -13.42392,0.2553 -20.0575,-0.542 -3.83263,-0.6614 -7.36666,-2.3619 -10.82603,-4.0625 -2.04397,-0.8525 -4.34176,-1.82 -6.5649,-1.1168 -1.51693,0.9436 -3.25483,1.5065 -5.05543,1.3706 -1.82301,0.1836 -3.53702,-0.4658 -5.30925,-0.7211 -1.66325,-0.1031 -3.34441,-0.2225 -4.88971,-0.9063 -1.61846,-0.315 -3.41011,-0.6465 -4.99422,-0.039 -1.44078,0.7166 -3.15479,0.542 -4.66575,0.1926 -1.37957,-0.4614 -2.43963,-1.3154 -1.69311,-2.8875 -0.93166,-1.8275 1.2228,-2.5561 2.33661,-3.4475 1.65429,-1.5602 4.06555,-1.1033 6.13639,-1.2258 4.12527,0 8.26398,-0.1717 12.36984,0.2852 2.8099,0.016 5.60786,-0.43 8.41627,-0.3643 0.83909,0.1598 1.4811,0.9675 2.39185,0.754 4.55079,-0.022 9.10904,0.025 13.64191,-0.4464 3.65197,-0.1075 7.36517,-0.2135 10.94548,0.6196 2.40827,0.106 4.66127,1.0914 7.03669,1.4393 2.76959,0.5793 5.57651,-0.1643 8.37148,-0.034 2.53518,0.01 5.09724,0.051 7.58599,0.5449 1.55694,-0.4494 3.02624,-1.2228 4.526,-1.814 1.55172,-1.2079 -0.11422,-3.2489 -0.35012,-4.7329 -0.61394,-1.52 -0.60289,-3.222 -1.35389,-4.6957 -0.45493,-1.6542 -0.30368,-3.3996 -0.75831,-5.0614 -0.39924,-2.4008 -0.82729,-4.8105 -1.58442,-7.1188 -0.28621,-2.041 -0.40536,-4.1043 -0.78548,-6.1334 -0.0505,-2.0022 1.08111,-3.7893 1.59247,-5.6795 1.31373,-3.8222 2.58222,-7.6727 3.70215,-11.5471 0.73845,-1.414 1.64712,-2.7189 2.39483,-4.1283 1.98186,-3.3355 4.10616,-6.5813 6.34303,-9.7496 1.91378,-2.9144 3.19944,-6.2588 5.68923,-8.7746 1.69356,-1.7871 3.47909,-3.6221 4.26965,-6.0124 0.95017,-1.1945 1.5456,-2.5979 2.54847,-3.74898 1.34419,-1.8066 2.58072,-3.7058 4.27234,-5.2197 1.53484,-1.3199 2.35601,-3.1802 3.37576,-4.8778 0.67037,-1.1705 2.05293,-3.7475 3.58031,-2.5934 0.49868,1.3467 2.35602,2.8666 0.73159,4.2283 -0.39118,1.5244 -1.87825,2.4351 -2.12012,4.0193 -0.14781,1.2332 -2.47397,3.2712 -0.78086,3.9401 1.99321,-0.1941 3.2608,2.06038 2.00516,3.64148 -0.99437,1.1631 -2.74421,1.5259 -3.00102,3.3191 -1.19891,1.7155 -2.88604,3.1204 -4.85387,3.8595 -1.64384,1.1675 -2.66075,3.0144 -3.75276,4.6672 -1.75253,3.0578 -2.79123,6.441 -3.59807,9.8526 -1.02901,3.637 -1.99396,7.3323 -3.62137,10.7558 -1.50573,2.4113 -2.58057,5.0794 -4.29458,7.3637 -1.263,2.256 -2.49234,4.7419 -2.26494,7.404 -0.0386,1.6542 -0.0342,3.422 1.16855,4.7195 1.98395,2.7531 3.17107,5.9691 4.52227,9.0567 0.97496,2.801 1.7815,5.6975 2.1028,8.6522 0.71158,1.6528 2.22881,2.7995 3.25423,4.2596 0.67127,1.7021 2.48218,1.8962 3.63003,0.4942 1.43391,-1.181 1.2861,-3.3638 0.96152,-5.0166 -0.55915,-1.3527 0.39476,-3.5385 -1.5553,-3.7774 -0.89628,-1.608 -1.04453,-3.5235 -1.4381,-5.3003 -0.39984,-1.7035 1.19682,-3.0547 0.55272,-4.7329 -0.17214,-2.141 -0.42477,-4.3552 0.36804,-6.4111 0.46508,-2.0022 2.10145,-3.44 3.69766,-4.5941 2.47696,-1.4841 5.43616,-1.5557 8.23561,-1.717 1.98276,0.106 3.99836,0.3479 5.89602,0.9406 2.06338,0.9362 3.94909,2.471 4.97929,4.512 0.58676,2.3142 0.41655,4.7464 0.48076,7.1158 -0.18216,1.1198 -0.60469,2.2142 0.73159,2.7144 0.95106,1.5468 0.24037,3.4802 -0.18962,5.0883 -0.38968,1.3138 -1.2228,2.4829 -2.4247,3.1577 -0.10899,1.1915 -0.23441,2.3919 0.0612,3.5624 0.1075,1.6678 -0.42104,4.1208 1.88421,4.4149 1.62294,0.554 3.01893,1.8171 4.77176,1.9186 2.4665,-0.4076 4.55079,-1.9947 6.95309,-2.6561 1.68116,-0.3703 3.43698,-0.3987 5.13456,-0.6137 1.74537,0.4151 3.6042,0.2359 5.27193,0.978 1.32731,0.4837 2.69195,0.8824 4.1402,0.6644 2.42022,-0.073 4.80908,-0.4867 7.18152,-0.9167 3.35934,0.013 6.71271,0.3404 10.04219,0.7823 1.62293,-0.8749 3.27573,-1.8961 5.19578,-1.8006 4.79117,-0.2135 9.5883,-0.027 14.3735,0.2314 5.90199,0 11.78158,-0.5584 17.66416,-0.951 3.65048,-0.4241 7.31291,-0.9272 10.99773,-0.7182 2.79647,0.058 5.57203,0.4345 8.37297,0.3688 1.47214,0.2583 3.76097,-0.1822 4.52391,1.3288 1.33478,1.3617 0.42701,3.1802 -1.01974,3.9954 -1.12576,0.321 -2.22911,0.7375 -3.08463,1.6363 -0.6002,0.2479 -1.36165,0.051 -2.02456,0.1225 -2.32168,0.04 -4.66873,-0.087 -6.94413,0.4404 -1.90661,-0.1493 -3.65645,0.3554 -5.3421,1.2079 -1.76328,1.0944 -3.99836,0.8839 -5.92886,0.43 -1.79314,-0.4882 -3.74305,-1.5886 -5.60189,-0.8227 -2.26195,0.854 -4.56422,1.6125 -6.84111,2.4337 -3.70124,1.2153 -7.45027,2.4336 -11.37248,2.6277 -4.17902,0.2553 -8.37596,0.3434 -12.56095,0.1986 -1.63189,-0.042 -3.18316,-0.8301 -4.81207,-0.7152 -2.6173,0.6137 -5.35255,0.7137 -7.85488,1.7827 -2.44859,0.9302 -5.09127,1.0541 -7.59808,1.7693 -1.36614,0.015 -3.48924,0.112 -2.26495,1.9797 0.77041,3.0145 0.99138,6.1488 1.23923,9.243 0.22993,1.6673 -0.64649,3.3414 0.34937,4.8827 0.96749,2.7818 2.52025,5.3373 3.16674,8.2304 0.51957,1.8758 0.97943,3.7853 1.26609,5.7016 1.60801,2.1373 3.55792,4.0172 5.05544,6.2494 2.83827,3.9402 4.64037,8.4924 7.25468,12.5729 2.29182,3.9402 4.96735,7.6354 7.37861,11.4994 0.85999,1.4916 0.87492,3.2847 1.61845,4.833 0.78235,1.8155 1.47513,3.6878 1.56172,5.6855 0.11795,1.602 0.67187,3.3369 -0.24038,4.815 -1.12575,1.305 -2.85469,2.3352 -4.52839,2.8353 -1.6304,0.109 -3.69229,0.8496 -4.97332,-0.542 -1.13769,-1.0361 -2.23657,-2.1171 -3.45041,-3.0637 0.0672,-1.3243 -0.39864,-2.895 0.58826,-3.955 0.61065,-0.336 1.10932,-0.7047 0.89283,-1.4707 0.0239,-1.7349 -0.10749,-3.5116 0.48972,-5.1719 0.0179,-1.7618 -2.09623,-2.5217 -3.05625,-3.7893 -1.81703,-1.8006 -3.78784,-3.4295 -5.82435,-4.9718 -2.56355,-2.5128 -5.03155,-5.1495 -7.00535,-8.164 -1.12873,-1.4139 -1.81404,-3.0756 -2.36348,-4.7822 -0.96152,-2.35 -1.40644,-4.8718 -1.41689,-7.4055 -0.24188,-1.8839 -1.96783,-3.0661 -2.92338,-4.5881 -1.24818,-1.5524 -2.65014,-3.004 -3.45191,-4.8585 -1.48408,-1.4461 -1.13919,2.5721 -1.83196,3.4982 -0.70023,2.7275 -1.52588,5.4562 -1.80956,8.2641 -0.22993,4.3 0.3434,8.6029 0.0911,12.8984 -0.0567,1.2377 -0.73606,2.3769 -0.98092,3.537 1.44974,3.4564 0.70919,7.2861 1.42585,10.8843 0.62409,3.3295 0.89433,6.7037 1.23773,10.0691 1.01228,5.6302 0.9436,11.3799 0.91076,17.0788 -0.57035,6.1962 -0.84357,12.4341 -1.98724,18.5645 -0.71367,5.2525 -1.93498,10.5364 -1.35867,15.8651 0.11049,2.8875 0.0896,5.7915 -0.14781,8.6641 0.46583,1.8379 1.00034,3.6684 1.25117,5.5586 0.57482,3.6833 1.00482,7.507 0.009,11.1634 -1.39749,5.2003 -3.12792,10.3587 -3.55792,15.7605 -0.24336,2.9324 -0.38669,5.8737 -0.25083,8.815 0.10153,1.8215 2.09175,2.4038 3.21004,3.5086 1.24669,1.0302 2.29779,2.3889 3.95655,2.7621 1.82898,0.7465 3.57584,1.926 4.64336,3.6132 0.33145,1.926 -2.32616,1.7767 -3.59375,2.0902 -2.35303,0.2389 -4.72099,0.7466 -7.09045,0.5077 -1.91258,-0.5674 -3.99537,-0.1493 -5.83629,-1.0153 -2.03949,-0.6868 -4.20888,-0.5972 -6.30809,-0.8958 -1.34822,-0.3583 -3.02192,-1.7917 -2.63373,-3.2847 0.51958,-1.7618 0.80176,-3.6729 2.02755,-5.1211 1.10634,-2.9413 0.81819,-6.1514 1.03916,-9.23 0.10451,-3.6714 -0.31503,-7.3383 -0.6659,-10.9858 -0.35982,-2.1783 -1.33926,-4.1775 -2.05293,-6.2439 -0.30906,-4.2716 0.0209,-8.5865 0.92718,-12.7744 0.34638,-2.3919 1.03169,-4.7897 0.86148,-7.2189 -0.34937,-1.8648 -1.13023,-3.6594 -0.9854,-5.5944 -0.0911,-4.4552 0.20902,-8.9179 -0.0567,-13.3672 -0.49718,-3.5878 -0.30159,-7.2622 -1.22579,-10.7932 -0.857,-3.225 -1.59158,-6.4813 -2.31869,-9.7376 -0.76145,-1.7857 -1.08992,1.2616 -1.20339,1.9111 -1.23474,4.8763 -2.20522,9.8197 -3.6251,14.6482 -0.53003,3.1459 -0.42402,6.3574 -0.46433,9.5346 -0.18216,3.4235 -1.36016,6.6709 -2.08429,9.9944 -0.82117,1.5647 -0.64499,3.2235 0.8361,4.2716 1.3945,1.9872 2.29331,4.2954 3.05924,6.5888 0.85701,2.8158 1.32732,5.7347 1.34225,8.6805 0.27621,3.0771 -0.31802,6.12 -0.44194,9.1882 -0.36729,3.1831 -0.37177,6.426 0.32847,9.5674 0.58975,3.3339 0.78086,6.753 1.98126,9.9481 0.74353,2.5979 1.43033,5.2854 1.47064,8.0027 -0.21798,1.8364 -1.96036,2.3142 -3.55791,2.1649 -3.57434,0.1941 -7.24274,0.1941 -10.62283,1.5378 -1.69341,0.6122 -3.49521,0.5226 -5.25625,0.3584 z m 2.42321,-0.9705 c 1.56366,-0.3583 3.25602,-0.3882 4.60886,-1.3736 1.30119,-1.4482 3.12867,-1.7618 4.99497,-1.5378 1.51693,0.09 2.96966,0.9555 4.52839,0.4778 1.91259,-0.6719 1.93647,-3.0906 1.4154,-4.7181 -0.49867,-1.702 -0.65096,-3.5384 -1.59307,-5.0315 -0.43597,-2.3441 -0.64051,-4.718 -1.11381,-7.0531 -0.31802,-3.3414 -1.20787,-6.6993 -0.58378,-10.0586 0.50913,-4.4821 0.61215,-9.0225 0.33146,-13.524 -0.22993,-2.2978 -0.71815,-4.5672 -1.64235,-6.6903 -0.65544,-1.717 -1.26908,-3.5086 -2.33511,-5.0151 -2.07085,-0.8272 -1.49752,-3.1459 -1.26162,-4.8957 0.93763,-1.9962 1.38703,-4.2104 1.97828,-6.3365 0.40461,-2.8218 0.58676,-5.684 0.47031,-8.5372 -0.0478,-1.9603 -0.215,-3.9759 0.52853,-5.8422 1.71103,-5.9393 3.19212,-11.9712 3.92968,-18.1166 0.29563,-3.0518 0.36132,-6.1573 -0.0269,-9.1986 -0.53451,-1.3676 -1.47363,-2.2381 -2.99803,-1.9708 -1.5647,-0.6122 -1.27804,-2.7383 -0.92568,-4.0372 1.29894,-1.8021 0.64947,1.6394 0.87044,2.3814 1.60502,1.496 1.83346,-1.5498 1.31985,-2.5979 0.0538,-1.708 -1.62592,-2.1052 -2.82782,-2.2246 1.40943,-0.5375 0.86298,-2.0634 -0.58676,-1.8335 -0.76295,0.2658 -2.7681,-0.3986 -1.75283,-0.9824 1.24967,0.052 2.53369,-0.1388 3.75649,0.1628 0.79728,0.9525 1.82748,1.9872 2.41424,2.9711 -0.4718,1.6603 -0.40312,3.5325 0.1508,5.1764 -0.1493,2.0454 2.65612,2.5994 2.93382,0.3389 0.16722,-1.1735 -3.63256,-0.2628 -1.77522,-1.1825 1.49752,0.212 2.25598,-1.0929 1.43033,-2.3247 -0.0523,-1.4811 -0.55093,-3.2324 1.43929,-3.6236 1.49901,-0.6763 1.66474,-2.6651 -0.27024,-2.8994 -1.41092,0.1433 -1.75581,-2.6144 -1.07349,-2.9175 -0.0373,1.1392 1.66921,2.5472 1.7573,0.6316 -0.21499,-1.0959 0.76145,-1.1795 0.73607,-0.082 1.34075,0.9063 1.21086,-1.2736 1.61398,-1.8185 2.05442,-0.1702 -1.47363,3.6699 1.04662,2.6218 1.79911,-0.2792 1.04513,-3.004 2.0589,-3.3713 0.35385,0.6285 -0.34788,2.1395 0.81968,1.8797 1.92005,0.3912 -1.05408,0.7301 -1.43033,1.3826 -0.88239,0.9689 -1.97679,1.705 -2.55011,2.9189 -0.0448,0.6031 2.04098,-0.3867 1.94095,0.3986 -0.95405,0.4375 -3.79232,0 -3.25632,1.5378 0.85402,-0.3478 2.64567,-0.8226 2.92486,0.4002 -1.3945,-0.6734 -3.84756,-0.012 -2.83827,1.9379 0.29413,1.3796 1.13024,3.6221 -0.61662,4.297 -1.23325,1.0601 -2.89948,2.2202 -3.1115,3.9491 0.6017,1.7364 -0.0761,3.4489 0.13886,5.2316 0.37923,3.3967 1.40047,6.6799 2.00515,10.0392 0.87791,3.4773 2.20373,6.8725 2.38737,10.4916 0.17319,2.2873 0.75399,4.5836 0.27173,6.871 0.0388,2.2246 0.38969,4.4507 0.0493,6.6724 -0.0747,2.5859 -0.3628,5.2167 0.0702,7.7802 0.21201,1.7215 1.70654,2.9099 0.90329,4.6359 -0.17917,0.9511 1.393,1.8036 0.32249,2.5128 -1.07349,1.9574 -1.24071,4.2641 -1.64234,6.426 -0.42552,3.2563 -0.24337,6.5455 -0.25382,9.8183 0.99735,2.3769 2.24106,4.7478 2.18283,7.3965 0.0194,2.35 0.31503,4.6807 0.51957,7.0143 -0.0746,2.3187 -0.2359,4.6299 -0.18812,6.959 -0.10152,1.6573 -0.30756,3.3146 -0.61364,4.9569 0.18962,0.8809 2.03352,1.5827 0.215,1.8066 -1.78418,-0.3732 -2.49188,1.508 -2.30077,2.9264 0.54645,1.8364 2.33959,2.8815 4.23276,2.4784 1.54381,0.1344 3.51462,-1.1496 4.29996,0.866 0.91822,0.8809 2.83678,1.7916 3.82517,0.5524 0.71517,0.06 1.80508,1.4632 2.9383,0.7316 1.02423,0.2986 1.80957,-1.7469 0.68232,-1.6722 -1.40943,0.5076 -2.144,-1.6274 -0.3852,-1.3885 1.46318,0.1343 1.30491,3.6579 2.95472,2.5232 0,-0.5226 -0.29263,-2.7771 0.30906,-1.3736 0.7734,1.508 0.80326,-0.3732 1.2452,-0.4628 0.40312,1.3138 1.76328,1.1496 1.41241,-0.2986 0.25531,-0.7466 -0.6002,-0.9407 -1.0496,-1.2841 -1.57367,-0.7763 -3.19362,-1.4482 -4.80461,-2.135 -1.19741,-0.9854 -2.14699,-2.2694 -3.48177,-3.1205 -1.19741,-0.6121 -1.87376,-1.6124 -0.94061,-2.8069 0.58826,-2.5531 0.3001,-5.1958 0.61961,-7.7922 0.15677,-3.0637 0.4076,-6.1513 1.42287,-9.0702 1.28252,-4.5851 2.43813,-9.2583 2.70091,-14.0271 -0.0224,-2.0559 -0.61066,-4.0461 -0.95555,-6.0483 -0.20305,-1.6229 -0.55392,-3.4235 -2.40827,-3.5997 -0.97048,-0.7301 -0.54198,-1.8439 0.63305,-1.7723 0.73009,-1.4154 0.65992,-3.2354 0.72412,-4.8419 0.006,-2.2216 -0.67933,-4.4298 -0.13437,-6.6425 1.10634,-6.4679 1.79463,-12.9999 2.88455,-19.4722 0.43896,-2.6397 0.39566,-5.3227 0.72562,-7.9729 0.2359,-6.438 0.20455,-12.9312 -0.85701,-19.299 -0.98242,-3.0966 -0.72412,-6.4096 -1.28401,-9.5868 -0.27621,-2.4202 -0.71517,-4.8315 -0.8376,-7.2637 0.0209,-1.2183 0.83013,-4.2133 -1.23325,-3.7176 -1.53932,0.9197 -3.2175,1.5229 -4.97182,1.8916 -1.07499,-0.1941 -1.74984,2.7174 -2.15894,0.8346 0.44194,-1.8588 2.82633,-1.5154 3.87295,-2.8576 1.40943,-0.6659 2.79796,-1.5498 3.75201,-2.8114 0.73905,-1.6558 1.20638,-3.4908 0.857,-5.3078 -0.2359,-3.5848 -0.55541,-7.2248 0.22396,-10.7693 0.78833,-5.1925 3.28917,-10.1419 2.79497,-15.5022 -0.18961,-1.9668 -0.18514,-3.959 -0.5151,-5.9074 -1.26759,-1.0895 -2.79945,0.9538 -4.13124,1.2161 -2.56206,1.1505 -5.45258,0.7724 -8.18783,0.8836 -0.6868,0.01 -1.37211,0.012 -2.0589,0.018 -0.29712,-1.6901 2.2933,-0.8672 3.28618,-1.1615 2.15296,-0.068 4.43283,0.023 6.35288,-1.1244 0.85104,-0.6839 2.08578,-0.5861 2.72032,-0.9082 0.42701,-1.0998 -0.32996,-3.4841 1.60651,-2.9108 2.11713,0.5218 2.42619,-2.2615 3.03834,-3.6615 0.39267,-1.282 1.24967,-3.883 -0.50166,-4.3847 -1.60353,-0.6957 1.22728,-2.0962 1.93498,-2.6949 1.02572,-1.0093 3.43996,0.067 3.68333,-1.6408 -0.7719,-1.8425 -2.43963,-3.5236 -4.54332,-3.6341 -1.86481,-0.218 -3.38323,-1.6647 -5.31821,-1.5632 -0.63902,0.042 -0.1717,-0.9421 -0.31503,-1.3587 -2.1022,-1.075 -4.47763,-2.0723 -6.8859,-1.7229 -2.5546,1.2362 -4.73742,3.6415 -7.7892,3.5235 -1.53036,-0.521 -2.82035,0.042 -4.0745,0.748 -1.14367,-0.6659 1.88272,-1.3213 1.08544,-2.5934 -0.87492,-1.3766 1.70057,-2.9547 0.43447,-3.8968 -2.14102,0.2419 -4.30145,0.209 -6.45292,0.2867 -1.17203,-1.1512 -2.00216,-2.6666 -3.55194,-3.3833 -1.27356,-1.3646 -1.76925,0.5734 -1.25117,1.6245 0.47778,1.9379 -2.12758,1.811 -3.3026,2.5023 0.39819,1.3407 2.52921,1.6349 3.72663,2.3381 1.71699,0.6181 3.44444,1.2795 5.22116,1.6871 0.80624,0.039 3.2175,1.2243 1.83644,1.8678 -1.74686,-1.0033 -3.86698,-0.751 -5.67953,-1.605 -1.26759,-1.1258 -2.99623,-1.1332 -4.4185,-2.0574 -1.34732,-1.3079 -3.24527,-0.3061 -4.58348,-1.178 -0.99138,-0.4196 -3.43146,-2.035 -3.64063,-0.1463 -0.0951,2.0335 0.6956,3.9446 0.79579,5.9587 0.38759,2.2336 0.6635,4.5254 1.44854,6.6589 1.52186,1.2602 0.26472,2.7786 -0.12034,4.2563 -0.48449,2.0424 -0.85058,4.5297 0.73996,6.1995 0.94927,1.4516 2.68493,1.9428 3.99089,2.9453 -0.51928,0.898 -2.5304,-0.8031 -3.46191,-1.1411 -1.64817,-1.2047 -2.94114,-2.8922 -3.75425,-4.7598 -1.17368,-1.367 -1.45422,-3.6707 -3.19675,-4.414 -1.48923,0.901 0.39267,3.2905 0.25576,4.7295 0.20111,1.7406 0.81774,3.6685 2.35408,4.6445 0.60348,1.4445 0.33996,3.0227 0.54331,4.5757 0.11362,2.5685 0.70158,5.0864 1.73372,7.4412 0.86477,2.1758 2.10608,4.2093 2.58684,6.5244 0.81968,1.4723 0.16752,3.1519 0.17648,4.7285 -0.1293,1.4259 0.0527,2.8487 0.2147,4.2626 -1.31582,1.4811 -1.25714,3.5759 -1.62368,5.4138 -0.2892,1.8782 -0.56333,4.1521 1.05483,5.5392 1.2231,1.5423 3.4761,1.9066 4.46748,3.6311 0.57631,0.424 0.90567,2.565 -0.0963,1.4258 -0.66142,-1.9305 -2.6182,-2.3829 -4.14513,-3.3623 -1.69236,-1.6364 -2.02113,1.2885 -1.85242,2.5068 0.0143,2.5859 -0.0563,5.1853 -0.71352,7.7041 -0.37326,1.8976 -1.12441,3.7296 -0.99302,5.7019 0.14587,1.5692 -0.36938,3.3787 0.54645,4.7538 -0.0181,1.6946 -1.02064,3.2653 -1.20638,4.9778 -0.4503,2.4815 -0.71367,4.9928 -1.17875,7.4727 -0.60991,6.2439 -0.6329,12.5415 -0.31324,18.8048 0.17304,2.3635 0.55586,4.7121 0.99048,7.0382 1.33956,3.649 0.90374,7.5877 0.88911,11.3964 0.0317,0.6181 -0.11422,1.2975 0.0212,1.8797 1.12202,1.0765 0.38252,2.7547 0.57766,4.1089 -0.0394,1.5677 0.5781,3.0324 0.80848,4.5642 0.88776,1.5752 -0.37655,3.1891 -0.0835,4.8584 0.002,2.4545 0.11914,4.9389 0.76697,7.3144 0.612,2.9323 1.89123,5.675 3.01325,8.4356 1.062,4.2433 2.45561,8.3939 3.82741,12.5431 0.58766,2.4441 0.23769,5.0121 0.64768,7.4756 1.02856,0.3584 1.70939,1.5976 0.20082,1.8962 -1.65653,0.5823 -2.94906,1.926 -4.56975,2.6277 -1.33702,0.7615 -2.96518,1.3886 -3.72125,2.807 0.07,1.6274 -3.25065,0.8211 -2.95533,2.5829 -0.84521,0.2986 -2.63014,0.7615 -1.28984,1.8215 1.40705,0.642 2.95384,-0.2687 4.0669,-0.4628 1.07155,0.8659 2.43052,0.9406 3.72588,0.5823 z m -2.73212,-3.3892 c 0.037,-0.9406 2.80125,-0.1941 0.93987,0.1195 -0.30741,0.03 -0.68724,0.1045 -0.93987,-0.1195 z m 12.17918,-4.7478 c -1.08842,-1.0452 2.08727,-0.1046 1.96186,-1.4632 1.20488,-1.0004 0.21947,2.2694 -0.966,1.5677 -0.33444,0.015 -0.67187,-0.015 -0.99586,-0.1045 z m 0.47628,-13.1403 c -0.9003,-1.4677 -1.23325,-3.1787 -1.88422,-4.7509 -0.54048,-1.7662 -0.91374,-3.5832 -1.6722,-5.2734 -0.58975,-2.8099 -1.61174,-5.5138 -2.07204,-8.3565 -0.57796,-2.477 -1.16457,-4.9808 -1.00467,-7.5458 -0.29129,-0.8884 0.60946,-2.1231 0.64171,-0.5151 0.15662,2.0574 0.27562,4.1252 0.83401,6.1214 0.19455,3.1548 1.60099,6.0483 2.30123,9.1016 0.49718,1.7155 1.40345,3.3056 1.54529,5.1152 0.41208,2.0245 1.18398,3.9461 1.87974,5.8795 -0.0239,0.2598 -0.37475,0.3434 -0.56885,0.224 z m 13.48663,-32.4139 c -0.69277,-0.7376 -0.0104,-2.2306 0.4718,-0.6823 0.31354,0.4598 0.26726,1.4676 -0.4718,0.6823 z m 5.38689,-3.225 c -0.43149,-2.0365 1.72446,0.9332 0,0 z m -28.73057,-0.9047 c 0.50524,-0.9735 2.0059,-0.1553 0.43179,0.2179 -0.14348,0.024 -0.53705,0.066 -0.43179,-0.2179 z m 25.8281,-1.7409 c -0.52704,-0.5181 -0.3419,-3.0981 0.39864,-2.1321 -0.0299,0.4375 0.41806,2.5068 -0.39864,2.1321 z m 2.84424,-2.5337 c -1.06901,-1.8962 2.90546,0.9077 0.17618,0.1567 z m -18.77498,-57.6493 c -0.88686,-0.1105 -3.33097,-1.5647 -1.10335,-1.5572 0.85103,1.1078 2.57549,1.0302 1.59755,-0.6555 -0.0179,-1.2243 -2.41425,-1.6438 -1.78269,-2.6038 1.49453,0.2732 2.06935,1.5408 3.08761,2.4262 0.53451,-0.2524 0.3434,-1.7305 0.92419,-0.327 0.53749,1.1586 1.69759,0.8062 2.12609,-0.061 1.22429,1.1212 -0.74055,2.5575 -1.9962,2.2067 -0.99884,0.5494 -1.58113,1.0914 -2.8532,0.5718 z m -3.76694,-24.4515 c -0.12392,-0.9496 -0.63603,-3.2205 0.37326,-3.4788 0.15229,0.7525 0.5808,3.4758 -0.37326,3.4788 z m 7.1651,-0.5076 c -1.50946,-1.8305 3.20705,-2.3202 2.29033,-0.1747 -0.45389,0.6465 -1.66176,0.43 -2.29033,0.1747 z m 11.84578,-0.6182 c -0.0866,-0.6823 -0.58228,-2.9368 0.54347,-2.4904 -10e-4,0.86 0.46882,3.1339 -0.41208,3.1713 -0.0791,-0.2195 -0.10153,-0.4524 -0.13139,-0.6809 z m -15.01401,-15.5664 c 0.8585,-1.2866 1.67967,-2.9816 3.32202,-3.3616 0.42701,1.3721 -1.67072,2.8761 -2.90546,3.4733 -0.0761,0.052 -0.4285,0.09 -0.41656,-0.1117 z m 6.78438,-0.4303 c -1.09291,0.056 -1.99769,-1.958 -0.88986,-2.1742 0.13288,1.363 2.32019,1.4998 2.41574,2.5027 -0.52853,0.1082 -1.04811,-0.1425 -1.52588,-0.3285 z m 11.52029,-13.7404 c -2.39035,-0.8079 0.74055,-2.951 1.44079,-0.9745 0.51062,1.0083 -0.76892,1.2295 -1.44079,0.9745 z m -28.85748,-0.9383 c -0.77608,-1.5472 1.32239,-3.356 1.8681,-1.161 0.0263,0.8242 -1.15293,1.6533 -1.8681,1.161 z m 11.83638,-22.1612 c -0.55691,-0.9047 0.69277,-2.1231 0.66142,-0.5524 0.097,0.3121 -0.42701,1.1825 -0.66142,0.5524 z m -20.37104,196.8872 c 0.65204,-0.3284 0.93392,-2.0454 -0.017,-1.1944 -0.41073,0.2389 -1.61756,2.8069 0.017,1.1944 z m -1.42668,0.015 c 1.22255,-2.3142 -1.41335,0.9407 0,0 z m 52.46544,-1.06 c -0.44941,-1.5229 -1.19444,0.418 -0.0448,0.2389 z m 29.6473,-108.9307 c 1.28401,-0.2867 2.13654,-2.6009 2.7875,-2.5979 -0.37475,1.4512 0.92569,1.5318 1.26013,0.2389 -0.41955,-1.6588 -0.33892,-3.4072 -1.03468,-5.0181 -0.35385,-1.9022 -0.98093,-3.7371 -1.84838,-5.4631 -0.14781,-1.6125 -0.95854,-2.9353 -2.13804,-3.973 -0.18961,-1.7737 -1.57068,-2.9293 -2.53219,-4.3566 -2.03203,-2.5322 -3.06372,-5.6781 -4.8061,-8.3954 -0.86746,-1.9007 -2.14102,-3.6012 -2.90695,-5.5422 -0.79579,-1.9096 -2.15147,-3.537 -3.37875,-5.1838 -1.14964,-1.5792 -2.85171,-2.6294 -4.05659,-4.1423 -0.67187,-1.3521 -1.15412,-2.8208 -1.15263,-4.3588 -0.24784,-2.0241 -0.9869,-3.9307 -1.79762,-5.7807 -0.89731,-2.7314 -2.47247,-5.2139 -3.0458,-8.0601 -0.20604,-1.0917 -1.65877,-3.4368 0.50316,-2.9816 0.39117,-1.4136 -1.01229,-2.8763 -0.59125,-4.3997 -0.0582,-1.9636 -0.35086,-4.0374 -1.46318,-5.7037 -1.30044,-0.8137 -3.37427,-0.9585 -4.72398,-0.1239 -0.54048,1.5528 0.26278,3.5072 -0.26277,5.1976 -0.24038,1.6495 -1.35718,2.9319 -2.19178,4.2999 -0.18663,0.8623 -0.80923,1.6198 -0.93315,2.4762 0.22246,3.4376 0.46134,6.9112 1.50797,10.2141 0.2777,1.9696 1.73043,3.4502 2.68598,5.1033 1.99171,2.8117 4.19245,5.4744 6.60968,7.9297 0.67187,1.4513 -2.43514,-0.7062 -1.86779,1.4184 0.39416,4.5165 2.47248,8.7836 5.54067,12.0921 1.46617,1.6528 3.04282,3.2116 4.41492,4.9405 1.97231,1.8887 4.43433,3.1891 6.2439,5.2615 0.74353,0.5524 1.98126,3.0129 2.71882,1.505 -0.55093,-1.4244 -1.74835,-2.5292 -2.4023,-3.9297 -0.94659,-0.5704 -0.34638,-1.7648 0.40312,-0.7256 1.01975,1.4333 2.20522,2.8293 2.83081,4.4866 0.64648,1.3004 0.52704,2.4381 -0.31205,3.6639 -0.5584,1.2974 -1.25714,3.1563 0.11646,4.1954 0.67187,1.3333 -0.4718,2.9488 0.67933,4.0656 0.79131,0.424 1.68714,0.6166 2.32616,0.9466 1.05558,-1.2602 -0.24785,-3.3116 0.54794,-4.8241 0.69427,-0.7136 1.57068,-0.088 1.25416,0.7914 -0.8167,1.393 2.38438,3.0144 0.29114,3.4011 -0.75996,0.4584 0.26278,2.1724 -1.00034,1.8364 -0.97197,-0.01 -1.95887,0.121 -2.91889,-0.052 -0.6211,-0.9286 -2.09474,-3.8087 -3.15181,-2.3679 0.93017,1.3691 1.8021,2.8323 2.97265,4.0133 1.46915,0.2777 3.38621,0.5748 4.82252,-0.097 z m -53.28512,-0.3464 c 0.8167,-0.6764 0.34042,-3.8983 -0.88238,-3.0145 0.14333,0.86 -0.84059,3.6266 0.88238,3.0145 z m 45.87964,-2.1291 c -1.0317,-1.2407 -0.67784,1.2975 0.27621,0.6793 -0.007,-0.2553 -0.14035,-0.4762 -0.27621,-0.6793 z m -68.85454,-65.7176 c 0.3428,-1.5732 0.55885,-3.2148 1.26162,-4.6749 -0.76936,-1.5483 -1.09619,-3.3011 -1.35702,-5.0241 -0.0773,-1.8289 -0.68441,-3.5609 -1.04991,-5.3301 -0.215,-1.7528 -0.2795,-3.5206 -0.40446,-5.2809 -1.25535,-1.3631 -3.26946,-1.3527 -4.98646,-1.3348 -1.6195,0.3957 -3.30903,-0.4389 -4.90031,0.1583 -0.0866,0.7137 -0.23276,2.0455 -1.00511,0.7794 -0.9133,-0.215 -3.99538,-0.5719 -3.32545,0.8779 2.38468,1.6124 5.54112,2.247 7.14897,4.8449 1.29626,2.1171 2.75645,4.1252 4.18604,6.1528 1.08171,2.0888 1.24923,4.5373 2.5001,6.5591 0.51644,0.6357 0.94763,2.6306 1.93199,2.2724 z m -4.6989,-5.8544 c -0.61372,-1.4841 -0.83156,-3.207 -1.87794,-4.4642 -1.87242,-1.5079 -2.07981,-4.2805 -4.00732,-5.7094 -1.53828,-0.7181 -3.0037,-1.608 -4.54959,-2.2888 -2.95697,-0.954 -5.95335,-2.0126 -9.10665,-1.9394 -3.58181,-0.124 -7.25618,0.063 -10.59163,1.5005 -1.44526,0.639 -3.42951,1.1705 -4.71502,-0.054 0.9227,-0.7406 2.91889,0.2299 4.11034,-0.8003 1.05409,-1.4736 -2.253,-0.9123 -3.05178,-1.5976 -2.37841,-0.4105 -4.83595,-0.427 -7.18749,-1.0391 -2.83827,-0.3539 -5.6855,-0.01 -8.51182,0.2359 -4.25815,0.1314 -8.52676,0.2672 -12.78491,0.1075 -2.64118,-0.9227 -5.52275,-0.7003 -8.2371,-0.2464 -3.90579,-0.2314 -7.83249,-0.5748 -11.73977,-0.215 -2.88605,-0.034 -6.008,-0.5046 -8.58946,1.1422 -1.29298,0.2673 -1.86332,2.3157 -0.0508,1.6857 1.26461,-0.2554 2.18432,-2.159 3.39368,-0.9168 1.69162,0 3.23691,-0.2209 4.86134,0.1016 1.91856,-0.2942 3.85055,-0.2001 5.75567,0.1119 0.80475,-0.079 3.39368,0.098 1.38554,0.7839 -0.55093,0.3777 -1.11978,0.1642 -1.68713,-0.048 -1.95439,-0.7152 -4.20739,-0.5734 -6.1155,0.215 -1.01825,1.3288 1.72895,2.2291 2.82484,2.0902 1.5871,0.2135 3.17719,0.046 4.63738,0.8555 1.44825,0.9018 3.25483,0.4375 4.87179,0.5704 2.38438,0.2329 3.75052,-2.1619 5.89004,-2.6755 1.62891,0.2597 3.30559,0.5852 4.96884,0.7823 1.77075,0.1344 3.55344,0.01 5.32269,0.1687 0.55392,1.2363 -2.19477,0.5644 -2.96219,0.6764 -1.60502,-0.039 -3.23094,-0.3942 -4.82252,-0.1926 -0.0732,1.1884 2.53369,1.172 3.46236,1.8274 1.61995,0.3434 3.02788,1.1497 4.57169,1.732 1.50797,0.4509 2.98608,1.0018 4.4612,1.5453 1.717,0.2344 3.42653,0.5375 5.148,0.748 4.0133,0.1777 8.07138,1.0989 12.06078,0.1821 1.58263,-0.2911 3.11598,-1.6647 4.57766,-0.1508 1.82749,0.6465 3.80128,0.7943 5.67804,1.2811 4.67769,1.0317 9.50036,0.4852 14.23255,0.9257 1.84644,0.7898 4.20918,0.2314 5.75627,1.7005 0.58875,0.5928 1.73805,1.9275 2.61789,1.3676 z m -31.02836,-7.8608 c -0.84804,-0.7585 -3.1518,-0.8675 -3.19361,-1.9455 1.7812,-1.0048 2.83827,0.4539 4.076,1.4513 0.47777,0.4404 3.39219,1.2377 1.68714,1.6423 -0.90031,-0.2643 -1.72148,-0.7525 -2.56953,-1.1481 z m 89.73172,3.6684 c 3.61017,-0.433 7.20541,-1.2348 10.57222,-2.6233 2.70986,-0.7898 5.45109,-1.7812 7.58763,-3.6923 1.38255,-0.2568 2.34108,-2.6531 3.71319,-1.8977 -1.49155,1.6947 -3.49521,2.8443 -5.36897,4.0656 -0.71666,1.7185 2.49337,1.5035 3.64003,1.8454 1.63637,0.2329 3.27274,-0.2837 4.92554,-0.2329 3.75201,-0.115 7.49805,-0.3255 11.23065,-0.7152 2.1007,0 3.92818,-1.1929 5.95275,-1.5975 1.6931,-0.3121 3.23243,-1.2497 4.97481,-1.2602 0.72711,-0.094 3.25184,-0.5957 2.20372,-1.3198 -1.45571,-0.2299 -3.53402,0.2822 -4.60453,-0.6286 2.32018,-0.3285 4.70606,-0.1329 7.05163,-0.212 1.56321,-0.2419 2.92038,0.5166 4.38207,0.8779 1.47512,0.4449 2.92039,1.2661 4.50152,0.6853 1.39002,-0.069 2.08876,-1.6065 3.39666,-1.708 0.72861,-1.0959 4.33728,0.052 2.76959,-1.9007 -0.0926,-1.1571 1.5453,0.6122 1.57964,1.1512 1.47214,0.8211 4.13273,-1.3049 2.20074,-2.4173 -1.64384,-0.2463 -3.37576,-0.8734 -5.02259,-0.5464 -1.26908,0.1194 -2.74868,1.5632 -3.85204,0.851 -0.0657,-1.7961 2.50233,-1.063 3.64899,-1.6692 1.97529,-0.421 3.87444,0.5032 5.84824,0.4748 1.63488,0.1075 3.30559,0.3091 4.88821,-0.1866 1.06155,0.1881 3.93566,0.86 3.46087,-0.9705 -1.29596,-0.9974 -3.21302,-0.3807 -4.76877,-0.5928 -3.48924,0.034 -6.9725,-0.3672 -10.46024,-0.2329 -2.3605,0.2733 -4.76429,0.5181 -7.03073,1.2617 -1.17203,0.9704 -2.80542,0.5793 -4.13721,0.215 -2.59192,-0.046 -5.13606,0.6524 -7.73694,0.533 -5.03901,0.081 -10.07951,-0.024 -15.10956,-0.327 -2.69942,0 -5.43467,-0.1165 -8.10572,0.2956 -1.22578,0.8451 2.25151,2.1201 0.0776,2.3456 -1.97081,-0.4524 -3.99687,-0.6122 -5.97813,-1.0168 -2.44112,-0.2 -4.90165,-0.6465 -7.35173,-0.4195 -2.12012,0.4464 -4.29399,0.5001 -6.42903,0.7853 -0.19858,2.1649 -2.36647,0.082 -3.34143,-0.436 -1.55425,-0.7077 -3.14135,-1.4392 -4.89568,-1.378 -2.17834,-0.066 -4.28353,0.627 -6.41708,0.9764 -1.58711,0.4629 -3.19063,0.8869 -4.64933,1.6857 -1.26311,1.0107 1.96484,1.7244 2.82931,2.0798 1.13172,0 0.13736,1.9409 1.7155,1.6184 3.35486,-0.1135 7.12778,1.3034 8.6671,4.4717 0.11347,1.4452 0.93464,2.4187 2.45755,1.8424 0.32697,-0.028 0.65544,-0.055 0.98391,-0.081 z m 60.02619,-10.6663 c 0.19857,-0.869 0.95554,0.5658 0,0 z m -65.62509,7.4726 c -0.1508,-1.2272 -2.11564,-0.6076 -0.75697,0.236 0.21798,0.042 0.77936,0.1507 0.75697,-0.236 z m -131.46219,-2.9293 c -0.43895,-1.0406 -2.17237,0.3494 -0.3643,0.3419 0.17468,-0.01 0.37027,-0.1523 0.3643,-0.3419 z m -10.6618,-0.6211 c 0.89284,-1.0675 2.98608,-0.4987 3.5385,-1.3661 -1.36463,-0.6913 -3.27573,-0.1628 -4.41342,0.8316 -1.26759,0.7181 -0.32996,1.5572 0.62857,0.6943 z m 1.92453,0.3061 c 2.04098,-1.1616 -2.55012,-0.3942 -0.82565,0.2284 0.28517,-0.031 0.55989,-0.1224 0.82565,-0.2284 z m 117.35893,-0.015 c 1.38255,-1.1273 2.9398,-2.05 4.53436,-2.8383 1.80957,-0.2284 0.50017,-1.7215 -0.66888,-1.6886 -2.11862,0.048 -2.1022,-1.941 -1.66325,-3.5266 0.28816,-1.1108 -0.42701,-2.3844 -1.36016,-0.9839 -1.26161,1.1825 -3.05326,1.9932 -3.75648,3.658 -0.0597,1.6736 -1.76329,3.1682 -0.39715,4.7523 0.58975,1.1601 2.30077,0.9824 3.31156,0.6271 z m -120.1121,-1.4617 c 1.13322,-1.2437 2.40977,-1.2497 3.93416,-0.966 0.88538,0.3733 2.92935,-0.7391 1.06603,-0.8719 -1.31984,-0.049 -2.69344,-0.2225 -3.99388,-0.1553 -1.05707,0.7107 -2.22015,1.2407 -3.35337,1.7931 -1.502,1.6424 1.9738,1.0422 2.34706,0.2001 z m 223.03035,-1.4154 c 0.21947,-1.0138 -2.62626,-0.7749 -2.5322,-0.049 0.50166,0.5927 1.88571,0.2583 2.5322,0.049 z m 3.1533,-0.5256 c -0.40611,-1.0391 -3.59375,0.1911 -1.45124,0.3509 0.39864,-0.094 1.3527,0.1792 1.45124,-0.3509 z m -127.31154,-0.1045 c 0.17707,-1.5408 -1.87362,-2.5814 -2.42962,-4.0416 -0.60215,-1.5528 -1.7606,-0.7316 -1.83973,0.5628 -0.89851,1.4065 -0.12601,2.574 1.42347,2.7846 0.92344,0.1926 1.89257,1.2243 2.84588,0.6942 z m 130.08859,-1.1048 c 0.90329,-1.4826 -1.78717,-0.3658 -2.56803,-0.645 -1.6931,0.045 0.0209,1.6184 0.94958,0.9884 0.53898,-0.064 1.14964,-0.025 1.61845,-0.3434 z m -4.2253,0.06 c 0.10302,-1.4274 -2.67404,-0.4659 -3.59674,-0.2061 0.2792,0.757 2.71584,0.3225 3.59674,0.2061 z m -131.59358,-0.8078 c 0.63619,-1.3123 1.29999,-2.7576 1.45348,-4.2312 0.23336,-3.2429 -0.70547,-6.3992 -1.72252,-9.4331 -1.35867,-3.0995 -2.91502,-6.1155 -4.74847,-8.9612 -0.66239,-1.5707 -1.65578,-3.3937 -1.08678,-5.1181 0.33354,-1.5632 -0.1729,-3.3041 0.86387,-4.721 2.30928,-4.403 5.34628,-8.4208 7.10911,-13.1059 1.34,-3.222 1.87392,-6.6978 2.87619,-10.0288 0.62424,-2.783 1.68535,-5.4302 3.01863,-7.946 0.68038,-1.6319 1.80852,-2.9801 2.95533,-4.2939 0.95853,-0.8824 -1.51738,-1.3378 0.003,-2.1485 0.59244,-0.2314 3.14703,1.2004 2.0377,-0.2329 -0.93464,-1.511 -2.68239,-1.3438 -3.70692,-0.079 0.009,-1.3586 -1.65354,-3.8804 -2.41066,-1.6005 -0.003,1.7125 -2.27465,2.0723 -3.0352,3.5654 -2.32497,2.3754 -3.64631,5.457 -5.32448,8.2714 -2.67016,3.5594 -5.15726,7.2741 -7.37069,11.1366 -1.02483,1.605 -1.28656,3.5086 -2.20343,5.1599 -1.75866,3.5953 -2.90053,7.4578 -3.61824,11.389 -0.30473,1.2108 -1.03228,2.3007 -1.42197,3.4564 0.31384,1.8289 0.27368,3.7788 1.12471,5.4555 -0.50599,1.6678 0.26233,3.3683 0.43388,5.0435 0.74995,3.7311 1.42645,7.4757 2.38035,11.162 0.53033,2.0753 1.01183,4.1656 1.65937,6.208 1.50065,0.2539 3.26707,-0.2941 4.89896,0.2031 1.80822,0.1732 3.65541,0.2419 5.36972,0.9018 l 0.24486,0.01 0.21992,-0.063 z m 18.74363,-0.052 c 0.15378,-0.6644 0.47478,-1.7528 1.28103,-0.9107 0.34937,2.1813 2.85768,0.4598 3.80128,-0.4196 1.25714,-1.0914 2.66209,-2.0529 3.7744,-3.2846 0.61066,-1.4095 1.90661,-2.9189 1.49752,-4.506 -0.61065,-0.4271 -3.66989,0.527 -2.27091,-0.7092 1.64533,0.094 2.73375,-1.4453 2.83528,-2.9428 1.04214,-1.3005 -1.56023,-3.443 0.58826,-3.6819 0.35982,-1.5229 0.63305,-3.1204 0.1926,-4.6582 0.56736,-1.3632 0.37326,-2.9503 -0.24784,-4.3343 -0.47031,-1.6245 -1.89169,-2.5934 -3.30112,-3.3564 -1.4796,-1.1481 -3.28319,-1.5378 -5.1256,-1.3751 -2.52473,0.054 -5.08978,0 -7.56822,0.5271 -2.2097,0.8913 -4.4303,2.45 -5.10695,4.8568 -0.36415,1.7439 -0.16483,3.5624 -0.14169,5.3332 0.0512,1.3691 0.9127,3.1861 2.061,3.5265 -0.3022,-1.39 -0.58722,-2.898 -0.4076,-4.4149 -0.47628,-1.3497 -0.53481,-3.0234 0.0591,-4.2955 -0.007,1.7096 0.67396,3.3713 0.88,5.045 -0.751,1.1078 -0.54645,2.7114 1.0078,1.5513 1.6095,-0.3524 3.48028,-0.3763 5.00616,0.3225 0.97496,1.6961 3.51611,-1.2691 3.27872,1.2078 -0.94061,0.069 -2.39334,-0.6957 -1.86779,0.9616 0.36579,1.4706 -1.3945,1.9976 -1.42735,0.4643 -1.09589,0.2702 -1.35269,-1.8573 -2.30376,-0.1224 -0.40611,0.309 -1.32881,-1.6289 -1.82599,-0.445 -1.35269,0.9944 -0.61662,-1.0839 0.29114,-0.9436 1.24072,-0.034 2.60984,0.3838 3.7341,-0.2702 -0.53899,-1.2586 -2.9189,-0.7988 -4.21635,-0.8376 -1.47064,0.4569 -1.92901,2.038 -2.60923,3.213 -0.37177,1.9708 0.23082,4.3015 2.11205,5.3018 -0.23739,0.8928 -2.33422,0.037 -1.73491,1.6379 -0.0836,1.7065 0.75249,3.2697 1.99918,4.385 1.40495,0.9227 2.52622,2.2247 3.89534,3.2101 0.60617,0.1045 1.2646,0.1493 1.86033,-0.036 z m 0.44492,-3.3235 c -1.82449,-1.3079 1.96634,-1.5915 1.80509,-0.7166 -0.37475,0.6838 -1.04513,1.0675 -1.80509,0.7166 z m -2.3799,-2.1947 c 0.92867,-1.1691 2.84125,-0.5689 4.20589,-0.7018 0.65395,-0.2642 3.28021,0.5838 1.88123,0.9123 -1.99768,-0.1434 -4.03121,-0.2001 -6.01695,0.033 l -0.0567,-0.081 -0.0134,-0.1628 z m 8.31026,0.1866 c -0.58826,-0.8346 0.536,-2.15 0.49868,-0.6465 0.0104,0.2971 0.007,1.0392 -0.49868,0.6465 z m -11.00669,-0.4449 c -0.37923,-0.7092 0.94658,-3.4519 0.85252,-1.4647 -0.0104,0.3628 -0.23739,2.8353 -0.85252,1.4647 z m 4.8688,-2.371 c -1.44377,0.1613 -3.09507,-1.1601 -1.57665,-2.4471 0.61065,-0.4568 1.52589,-2.3754 1.26759,-0.4972 -1.47064,0.5226 -1.25266,2.4412 0.41208,2.1246 0.9869,1.2826 4.61051,-0.7241 2.52025,-1.8349 -1.87376,-0.3449 0.65246,-3.3086 0.66889,-1.8708 -0.97197,1.39 1.7588,3.4564 -0.48674,4.2193 -0.77936,0.6421 -1.89018,0.6943 -2.80542,0.3061 z m 2.25599,-6.7396 c -0.50615,-1.484 0.7719,-3.2414 2.31869,-3.2712 1.4363,-0.2075 2.92038,-0.1374 4.32981,0.1941 1.11232,-0.8854 -1.08096,-2.5875 0.39715,-3.6834 0.0776,-0.6016 0.15677,-2.7845 1.03169,-1.5243 -0.007,1.6931 -0.98839,3.1966 -0.41954,4.9225 0.21052,0.7092 -0.65395,3.6475 -0.77937,1.6319 -0.95405,-1.4318 -3.18316,-0.9869 -4.68367,-0.863 -1.47811,1.5886 1.76478,0.9735 2.64716,1.1795 0.95704,-0.2239 1.58263,1.5692 0.45389,1.2094 -0.47479,-1.6916 -1.99172,0.7808 -2.93233,-0.5808 -0.66441,0.7868 -1.8245,-0.6166 -2.03203,0.8585 l -0.15976,0.028 -0.17169,-0.1015 z m -3.0473,-5.9766 c -1.31089,-1.2437 3.89385,-0.6047 1.72745,0.084 -0.57632,0.01 -1.15562,-0.01 -1.72745,-0.084 z m 0.78385,-4.0626 c -1.26461,0.058 -1.09739,-1.2258 0.14184,-0.8853 1.11082,0.2209 3.1742,-0.4689 3.69676,0.5121 -1.15561,0.4359 -2.60685,0.5509 -3.8386,0.3732 z m -8.83537,15.4022 c 0.88343,-1.6498 -1.1801,-2.5307 -0.54093,-4.1969 -0.79519,-1.5841 -1.73954,0.8316 -0.92538,1.6214 0.24724,0.7555 0.2992,2.9563 1.46631,2.5755 z m 21.1101,-0.957 c 0.73457,-1.62 1.48707,-3.4788 1.09888,-5.2779 -0.71965,-1.9469 -3.11449,2.1664 -1.11978,0.6853 0.3643,0.3553 -1.6528,1.5453 -0.45538,2.2426 -0.34788,0.9286 -1.42884,2.768 -0.2583,3.2861 0.32101,-0.2433 0.52257,-0.6032 0.73458,-0.9361 z m -22.5688,-4.2671 c 0.40014,-0.2882 1.48931,0.6883 1.12262,-0.6405 -0.44358,-2.0455 -2.54802,0.103 -1.34419,0.8659 z m 7.16585,-56.8639 c 0.93315,-1.3288 1.61099,-2.8876 3.26677,-3.5206 1.99918,-1.3139 -0.88239,-3.02338 -2.038,-1.4692 -0.3867,0.6301 0.321,1.8619 -0.87641,1.4961 -1.59606,-0.045 -3.1981,1.8409 -3.35188,3.3011 0.61065,0.845 2.30525,1.2944 2.99952,0.1926 z m -3.95656,-0.545 c 0.24337,-1.7946 2.19626,-2.6919 2.59491,-4.4612 0.66888,-1.01818 -2.13953,-1.56318 -0.54048,-2.07228 1.63487,-0.1419 0.6211,-2.7547 2.4232,-2.8413 1.18547,-1.3198 2.54414,-2.4829 3.72812,-3.8042 0.84506,-1.4274 -0.8361,-1.5558 -1.4378,-0.5017 -1.13023,1.1601 -2.40528,2.1306 -3.67288,3.113 -1.49304,0.6465 -2.74271,1.7767 -3.37725,3.2638 -1.20205,1.5154 -2.60805,3.04428 -2.80408,5.05988 -0.387,1.1392 0.32877,1.6901 1.26326,1.823 0.39431,0.6599 1.287,1.4512 1.823,0.421 z m 4.3119,-6.77538 c 1.03319,-1.5109 -1.18697,-1.3348 -0.87791,0.1209 0.10302,0.539 0.69427,0.1389 0.87791,-0.1209 z m 1.26162,-1.8842 c 0.82117,-0.978 -0.10451,-1.3199 -0.6435,-0.3464 -0.62708,0.5883 0.30607,0.9735 0.6435,0.3464 z m 0.66888,-5.466 c 0.60319,-1.2169 3.97597,-0.3837 2.64866,-2.156 -1.27655,0.2762 -3.27723,1.2736 -3.58778,2.571 0.35982,0.04 0.6644,-0.2239 0.93912,-0.415 z m 0.93315,-1.9888 c 1.66026,-0.6121 -0.31652,-2.3843 -0.75697,-0.6823 -0.9227,1.2407 -0.21948,1.1676 0.75697,0.6823 z" id="path2251" inkscape:connector-curvature="0" style="fill:#47091f;fill-opacity:1;stroke:none;stroke-opacity:1"/>
<path d="m -511.63593,1055.5465 c 0.003,5.3922 -4.3682,9.7661 -9.75233,9.7661 -5.38706,0 -9.77868,-4.3739 -9.77868,-9.7661 0,-5.3895 4.39162,-9.7634 9.77868,-9.7634 5.38413,0 9.75526,4.3739 9.75233,9.7634 z" id="path8740" inkscape:connector-curvature="0" style="fill:none;stroke:#47091f;stroke-width:0.79102731;stroke-miterlimit:4;stroke-dasharray:none;stroke-opacity:1"/>
<path d="m -511.63593,1074.9451 c 0.003,5.3922 -4.3682,9.766 -9.75233,9.766 -5.38706,0 -9.77868,-4.3738 -9.77868,-9.766 0,-5.3896 4.39162,-9.7634 9.77868,-9.7634 5.38413,0 9.75526,4.3738 9.75233,9.7634 z" id="path9629" inkscape:connector-curvature="0" style="fill:none;stroke:#47091f;stroke-width:0.79102731;stroke-miterlimit:4;stroke-dasharray:none;stroke-opacity:1"/>
<path d="m -511.63593,1104.4433 c 0.003,5.3922 -4.3682,9.766 -9.75233,9.766 -5.38706,0 -9.77868,-4.3738 -9.77868,-9.766 0,-5.3896 4.39162,-9.7634 9.77868,-9.7634 5.38413,0 9.75526,4.3738 9.75233,9.7634 z" id="path9631" inkscape:connector-curvature="0" style="fill:none;stroke:#47091f;stroke-width:0.79102731;stroke-miterlimit:4;stroke-dasharray:none;stroke-opacity:1"/>
<path d="m -511.63593,1133.4898 c 0.003,5.3923 -4.3682,9.7661 -9.75233,9.7661 -5.38706,0 -9.77868,-4.3738 -9.77868,-9.7661 0,-5.3895 4.39162,-9.7634 9.77868,-9.7634 5.38413,0 9.75526,4.3739 9.75233,9.7634 z" id="path9633" inkscape:connector-curvature="0" style="fill:none;stroke:#47091f;stroke-width:0.79102731;stroke-miterlimit:4;stroke-dasharray:none;stroke-opacity:1"/>
<path d="m -511.32156,1152.8063 c 0.003,5.3922 -4.3682,9.766 -9.75233,9.766 -5.38706,0 -9.77868,-4.3738 -9.77868,-9.766 0,-5.3896 4.39162,-9.7634 9.77868,-9.7634 5.38413,0 9.75526,4.3738 9.75233,9.7634 z" id="path9635" inkscape:connector-curvature="0" style="fill:none;stroke:#47091f;stroke-width:0.79102731;stroke-miterlimit:4;stroke-dasharray:none;stroke-opacity:1"/>
<circle cx="-521.23419" cy="1026.7231" id="circle2273" r="19.410427" style="fill:none;stroke:#47091f;stroke-width:0.79102731;stroke-miterlimit:4;stroke-dasharray:none;stroke-opacity:1"/>
<circle cx="-521.23419" cy="987.90662" id="circle2275" r="19.410427" style="fill:none;stroke:#47091f;stroke-width:0.79102731;stroke-miterlimit:4;stroke-dasharray:none;stroke-opacity:1"/>
<circle cx="-521.23419" cy="1065.5427" id="circle2277" r="19.410427" style="fill:none;stroke:#47091f;stroke-width:0.79102731;stroke-miterlimit:4;stroke-dasharray:none;stroke-opacity:1"/>
<circle cx="-521.23419" cy="1104.3623" id="circle2279" r="19.410427" style="fill:none;stroke:#47091f;stroke-width:0.79102731;stroke-miterlimit:4;stroke-dasharray:none;stroke-opacity:1"/>
<circle cx="-521.23419" cy="1143.1758" id="circle2281" r="19.410427" style="fill:none;stroke:#47091f;stroke-width:0.79102731;stroke-miterlimit:4;stroke-dasharray:none;stroke-opacity:1"/>
<circle cx="-521.23419" cy="1220.8119" id="circle2283" r="19.410427" style="fill:none;stroke:#47091f;stroke-width:0.79102731;stroke-miterlimit:4;stroke-dasharray:none;stroke-opacity:1"/>
<circle cx="-521.23419" cy="1181.9954" id="circle2285" r="19.410427" style="fill:none;stroke:#47091f;stroke-width:0.79102731;stroke-miterlimit:4;stroke-dasharray:none;stroke-opacity:1"/>
<circle cx="-521.23419" cy="1259.6315" id="circle2287" r="19.410427" style="fill:none;stroke:#47091f;stroke-width:0.79102731;stroke-miterlimit:4;stroke-dasharray:none;stroke-opacity:1"/>
<circle cx="-521.24176" cy="1046.1368" id="circle2257" r="77.642334" style="fill:none;stroke:#47091f;stroke-width:0.79102731;stroke-miterlimit:4;stroke-dasharray:none;stroke-opacity:1"/>
<circle cx="-521.24176" cy="1123.639" id="circle2259" r="77.642334" style="fill:none;stroke:#47091f;stroke-width:0.79102731;stroke-miterlimit:4;stroke-dasharray:none;stroke-opacity:1"/>
<circle cx="-521.24176" cy="1201.1414" id="circle2261" r="77.642334" style="fill:none;stroke:#47091f;stroke-width:0.79102731;stroke-miterlimit:4;stroke-dasharray:none;stroke-opacity:1"/>
<circle cx="-521.22919" cy="1240.1342" id="circle2264" r="38.819611" style="fill:none;stroke:#47091f;stroke-width:0.79102731;stroke-miterlimit:4;stroke-dasharray:none;stroke-opacity:1"/>
<circle cx="-521.22919" cy="1162.528" id="circle2266" r="38.819611" style="fill:none;stroke:#47091f;stroke-width:0.79102731;stroke-miterlimit:4;stroke-dasharray:none;stroke-opacity:1"/>
<circle cx="-521.22919" cy="1084.922" id="circle2268" r="38.819611" style="fill:none;stroke:#47091f;stroke-width:0.79102731;stroke-miterlimit:4;stroke-dasharray:none;stroke-opacity:1"/>
<circle cx="-521.22919" cy="1007.3162" id="circle2270" r="38.819611" style="fill:none;stroke:#47091f;stroke-width:0.79102731;stroke-miterlimit:4;stroke-dasharray:none;stroke-opacity:1"/>
<path d="m -639.51013,1066.2798 116.45713,202.6205 117.7307,-202.1875 c -73.95625,-36.681 -151.14046,-41.0332 -234.18336,-0.4315 z" id="path9646" inkscape:connector-curvature="0" style="fill:none;stroke:#47091f;stroke-width:0.79102725;stroke-miterlimit:4;stroke-dasharray:none;stroke-opacity:1"/>
</g></g>
</g>
</svg>