<?xml version="1.0" encoding="utf-8"?>
<!-- Created with Inkscape (http://www.inkscape.org/) --><svg height="152.42821mm" id="svg6779" inkscape:version="0.92.2 (unknown)" sodipodi:docname="niveau2.svg" version="1.1" viewBox="0 0 338.49999 540.09995" width="95.532219mm" xmlns="http://www.w3.org/2000/svg" xmlns:cc="http://creativecommons.org/ns#" xmlns:dc="http://purl.org/dc/elements/1.1/" xmlns:inkscape="http://www.inkscape.org/namespaces/inkscape" xmlns:rdf="http://www.w3.org/1999/02/22-rdf-syntax-ns#" xmlns:sodipodi="http://sodipodi.sourceforge.net/DTD/sodipodi-0.dtd" xmlns:svg="http://www.w3.org/2000/svg">
<defs id="defs6781"/>
<sodipodi:namedview bordercolor="#666666" borderopacity="1.0" id="base" inkscape:current-layer="layer1" inkscape:cx="14.891463" inkscape:cy="90.675925" inkscape:document-units="px" inkscape:guide-bbox="true" inkscape:pageopacity="0.0" inkscape:pageshadow="2" inkscape:window-height="722" inkscape:window-maximized="0" inkscape:window-width="1346" inkscape:window-x="18" inkscape:window-y="21" inkscape:zoom="2.5600001" pagecolor="#ffffff" showgrid="false" showguides="true">
<sodipodi:guide id="guide4174" inkscape:locked="false" orientation="1,0" position="22.373299,423.4354"/>
<sodipodi:guide id="guide4176" inkscape:locked="false" orientation="1,0" position="32.869415,443.32278"/>
<sodipodi:guide id="guide3376" inkscape:locked="false" orientation="0,1" position="74.609371,53.124996"/>
</sodipodi:namedview>
<metadata id="metadata6784">
<rdf:RDF>
<cc:Work rdf:about="">
<dc:format>image/svg+xml</dc:format>
<dc:type rdf:resource="http://purl.org/dc/dcmitype/StillImage"/>
<dc:title/>
</cc:Work>
</rdf:RDF>
</metadata>
<g id="layer1" inkscape:groupmode="layer" inkscape:label="Calque 1" transform="translate(0,0.58533621)">
<rect height="539.09998" id="rect4326-0-3-6-4-3-2-61-6-9-9-5-0-7-0-5-8-8-9-4-5-5-9" inkscape:export-xdpi="90" inkscape:export-ydpi="90" style="fill:#ffffff;fill-opacity:1;stroke:none;stroke-opacity:1" width="337.5" x="0.5" y="-0.085336208"/>
<path d="m 130.52594,353.37015 c -15.3738,-12.7245 -30.1139,-35.6783 -46.39294,-53.2035 -21.3224,-27.1442 -39.6243,-59.8886 -39.2009,-95.2479 7.7085,-29.3075 43.5327,-27.7809 63.77714,-43.7739 22.2365,-6.781 36.9664,-22.1115 55.5568,-32.3545 21.8466,-3.1782 13.3402,-47.0349 34.363,-57.7024 1.5322,21.3504 -6.0476,71.1885 30.6893,55.6116 16.9231,-11.9302 31.7638,-65.4677 27.2052,-17.4756 8.4179,24.7972 -30.2579,49.1967 -4.2786,68.1694 24.6173,7.1739 50.3366,48.2231 30.3102,65.9854 -33.1364,18.1149 3.9851,48.8829 2.9241,74.7912 6.6826,23.0171 10.9649,47.0127 9.6395,71.1114 -13.6333,20.2716 -45.7116,18.7809 -65.2208,9.5029 -29.4001,-15.6669 -34.4095,-55.7128 -66.78,-67.4505 -26.2448,-16.5953 -28.3527,-1.5195 -32.592,22.0364 z" id="path4378-28-9-7-0-6-8" inkscape:connector-curvature="0" style="fill:#ff2408;fill-opacity:1;fill-rule:evenodd;stroke:none"/>
<path d="m 251.47654,414.45696 c -1.72,-0.79371 -1.9247,-1.04961 -4.8081,-6.01001 -3.5364,-6.0839 -5.2435,-9.9489 -4.8906,-11.0719 0.1891,-0.6015 -0.072,-2.4681 -0.5787,-4.1481 -0.5074,-1.6799 -0.9225,-3.9678 -0.9225,-5.0842 0,-2.1385 -2.0514,-11.5349 -3.3057,-15.1415 l -0.7388,-2.1248 -0.3497,4.0083 c -0.1924,2.2046 -1.0178,5.6203 -1.8345,7.5905 -1.3697,3.3048 -1.4219,3.8094 -0.6739,6.5164 0.446,1.6138 1.1444,4.4975 1.5521,6.4081 0.4076,1.9107 1.3583,4.2584 2.1124,5.2172 0.7543,0.9588 1.3714,2.4056 1.3714,3.215 0,1.9885 1.9021,3.7545 4.9186,4.5668 2.7956,0.7528 3.7574,1.7507 2.4721,2.5648 -2.2572,1.4297 -6.7022,0.1502 -8.3814,-2.4125 -0.9182,-1.4013 -1.2894,-1.5052 -4.1632,-1.1649 -2.9545,0.35 -3.5002,0.1764 -8.5739,-2.7271 -2.9803,-1.7055 -5.7149,-3.4578 -6.077,-3.8942 -0.362,-0.4362 -0.7441,-2.4635 -0.8489,-4.505 -0.1766,-3.4382 -0.3053,-3.7247 -1.7462,-3.8869 -4.5246,-0.5093 -9.4886,-2.3274 -11.8324,-4.3336 -4.0629,-3.4777 -5.1907,-6.8386 -4.4377,-13.2245 l 0.4035,-3.4222 -9.1491,-9.22 c -5.0321,-5.071 -9.3397,-9.831 -9.5727,-10.5777 -0.2328,-0.7467 -1.4648,-2.6177 -2.7375,-4.1577 -3.05,-3.6904 -3.7501,-5.1173 -3.3195,-6.7642 0.5167,-1.9755 -1.3902,-3.8135 -3.9562,-3.8135 -1.1539,0 -4.4004,-0.7239 -7.2147,-1.6087 -2.8141,-0.8848 -6.3766,-2.0061 -7.9166,-2.4919 -1.5399,-0.4858 -3.264,-0.8819 -3.8312,-0.8802 -1.2839,0 -6.5706,-5.7968 -7.6142,-8.3544 l -0.7737,-1.8961 -2.6071,2.7935 c -1.5239,1.6326 -2.9691,3.9885 -3.4777,5.6692 -0.4787,1.5817 -1.315,3.7356 -1.8584,4.7864 -0.5434,1.0508 -1.2495,3.7568 -1.569,6.0133 -0.5459,3.8541 -1.5815,6.0605 -5.3363,11.3688 -1.0833,1.5316 -2.1858,1.849 -2.1608,0.6222 0.011,-0.4277 1.1286,-3.0146 2.4888,-5.7486 1.3602,-2.734 2.4731,-5.8683 2.4731,-6.9651 0,-1.0968 0.9801,-4.4251 2.1777,-7.3961 1.1978,-2.9711 2.1779,-5.777 2.1779,-6.2354 0,-1.4425 3.7073,-5.1277 5.5699,-5.5368 1.9331,-0.4246 1.877,-0.7878 -0.7202,-4.6733 -1.5484,-2.3162 -5.3414,-18.6747 -6.0321,-26.0139 -0.3988,-4.2391 -0.3908,-7.7204 0.024,-10.2666 l 0.6273,-3.8525 -2.6899,-2.4072 c -5.2227,-4.6737 -19.2268,-13.7506 -28.1833,-18.2671 -1.7208,-0.8677 -3.2686,-1.7871 -3.4397,-2.0431 -0.1711,-0.256 -2.7611,-1.6379 -5.7555,-3.0709 -3.1006,-1.4838 -5.44444,-2.9894 -5.44444,-3.4974 0,-0.4905 0.1212,-0.8919 0.2694,-0.8919 0.99,0 19.08784,9.2247 22.29684,11.365 4.307,2.8726 5.0015,3.3139 9.1668,5.8252 1.5401,0.9284 4.8507,3.0404 7.3568,4.6933 2.7279,1.7991 5.2589,3.0052 6.3062,3.0052 1.7849,0 3.7592,2.0893 3.7592,3.9781 0,1.8593 1.8737,2.8663 5.3333,2.8663 1.8578,0 3.3803,-0.21 3.3833,-0.4666 0,-0.2567 -0.8324,-1.1667 -1.8567,-2.0222 -1.3337,-1.1139 -1.8528,-2.0856 -1.8288,-3.4222 0.019,-1.0267 0.1747,-5.9967 0.3472,-11.0444 0.2689,-7.8726 0.1811,-9.1777 -0.6176,-9.1777 -1.3481,0 -2.6651,5.1465 -3.8572,15.0742 -0.1942,1.6176 -0.5876,3.086 -0.8743,3.2631 -1.6542,1.0224 -1.2965,-6.1982 0.6312,-12.7374 0.6557,-2.2244 1.5728,-5.5844 2.0379,-7.4666 0.4652,-1.8822 0.9584,-3.8355 1.096,-4.3408 0.1593,-0.585 -0.2842,-0.9995 -1.2216,-1.1415 -2.5381,-0.3846 -2.6233,-0.1513 -3.8205,10.46 -0.3283,2.9089 -0.6017,7.1624 -0.6078,9.4522 -0.011,2.2897 -0.2672,4.3215 -0.5802,4.515 -0.313,0.1934 -1.8226,-0.9018 -3.3547,-2.4338 -1.532,-1.532 -4.081,-3.4744 -5.6646,-4.3163 -1.5835,-0.842 -3.9238,-2.3338 -5.2008,-3.3151 -3.359,-2.5814 -4.9427,-3.5175 -16.3217,-9.6477 -11.8259,-6.371 -14.93324,-8.2412 -14.93324,-8.9878 0,-0.452 0.2697,-0.8219 0.59924,-0.8219 1.3037,0 7.2663,2.6699 9.8368,4.4047 1.496,1.0096 2.9627,1.6857 3.2593,1.5024 0.2966,-0.1833 0.7665,0.058 1.0442,0.5356 0.2776,0.4779 2.1849,1.7377 4.2381,2.7996 9.5877,4.9582 20.5512,11.9977 22.8059,14.6433 0.9077,1.065 1.8122,1.7786 2.01,1.5857 0.5993,-0.5846 1.6681,-20.3375 1.2439,-22.9902 -0.2512,-1.5706 -0.121,-2.8052 0.3561,-3.3802 0.4271,-0.5146 0.8351,-3.3313 0.9445,-6.5218 0.1612,-4.6975 0.4547,-6.063 1.7943,-8.3489 0.8809,-1.5031 1.4741,-2.8604 1.3182,-3.0163 -0.1559,-0.1559 -0.035,-4.0427 0.2683,-8.6374 0.3541,-5.3608 0.3338,-8.6216 -0.056,-9.1008 -0.8364,-1.0273 -0.7337,-7.934 0.1425,-9.5711 0.938,-1.7528 0.2512,-6.2498 -1.3759,-9.0073 -1.797,-3.0458 -3.3252,-9.7528 -3.539,-15.5317 -0.124,-3.3565 -0.4904,-5.3049 -1.1304,-6.0139 -0.7943,-0.8798 -0.8341,-1.5749 -0.2468,-4.3131 0.801,-3.7351 1.5711,-4.9047 3.2297,-4.9047 0.8338,0 1.1682,-0.4489 1.1682,-1.5679 0,-2.5356 2.8881,-8.9548 6.3885,-14.1991 3.0045,-4.5014 3.6273,-5.066 8.0643,-7.311 3.6102,-1.8267 5.5483,-2.4308 7.7778,-2.4244 4.7977,0.014 5.8258,0.4732 5.3599,2.3958 -0.2186,0.902 -1.307,2.5355 -2.4187,3.6299 -2.403,2.3656 -5.2781,7.3353 -6.851,11.8425 -1.037,2.9714 -1.0531,3.4293 -0.1848,5.2626 0.8692,1.8354 0.8526,2.2772 -0.1925,5.1366 -0.629,1.7207 -1.1436,4.2009 -1.1436,5.5115 0,1.3107 -0.2467,2.8546 -0.5483,3.431 -1.0039,1.9191 1.802,10.7264 4.5651,14.3283 1.3536,1.7647 2.8049,3.2085 3.2252,3.2085 0.4203,0 2.1561,-0.8654 3.8575,-1.9229 1.9614,-1.2193 4.1964,-2.0255 6.108,-2.2032 1.7871,-0.1661 3.9014,-0.8899 5.1924,-1.7777 2.0633,-1.4188 19.8654,-7.8455 25.1999,-9.0974 1.3688,-0.3212 3.1887,-0.8397 4.0443,-1.1523 0.8556,-0.3126 4.0055,-1.2859 7,-2.1629 2.9943,-0.8771 7.7543,-2.2746 10.5777,-3.1057 7.2499,-2.134 12.1089,-3.0199 15.711,-2.8642 1.711,0.074 3.782,0.1084 4.6022,0.077 0.8201,-0.032 1.8918,0.2748 2.3818,0.6813 1.6953,1.407 3.8859,6.6618 4.2795,10.2654 0.4381,4.0123 1.375,5.1742 4.1716,5.1742 1.9101,0 9.7323,4.7682 11.1613,6.8037 0.4296,0.612 2.2336,1.8717 4.0088,2.7993 4.0144,2.0977 4.4939,2.6776 6.1324,7.4176 1.0331,2.9887 1.627,3.8685 2.7197,4.0291 1.2539,0.1842 6.4289,5.0902 8.4379,7.9994 2.0299,2.9394 4.8323,9.1546 6.0064,13.321 1.0964,3.8911 1.2439,5.6803 0.9484,11.5089 -0.4585,9.0468 -1.8997,12.9919 -6.5131,17.8285 -4.1357,4.3358 -8.422,6.4884 -14.073,7.0674 l -4.1943,0.4297 0.4263,4.4196 c 0.2344,2.4308 0.8087,6.2396 1.2762,8.4641 2.1729,10.3391 2.5102,11.366 4.1692,12.6888 2.0103,1.603 4.3492,8.6439 4.1241,12.4148 -0.085,1.4218 0.1507,3.1502 0.5236,3.841 0.3728,0.6907 0.8725,2.3707 1.1103,3.7333 0.376,2.155 2.9243,8.9961 5.5582,14.9217 0.4564,1.0267 1.2574,2.8467 1.7799,4.0445 0.5226,1.1977 2.0521,4.6977 3.399,7.7777 1.3468,3.0799 2.812,6.7199 3.2559,8.0888 0.4438,1.3689 1.153,3.0489 1.5758,3.7333 0.9317,1.5081 3.6528,9.9675 4.6526,14.4636 0.5559,2.5004 0.5519,4.2935 -0.018,7.6674 -0.4257,2.5237 -0.5502,5.6464 -0.2914,7.3141 0.2483,1.6007 0.4148,5.2227 0.3701,8.0491 -0.142,8.9784 -2.8238,13.8176 -10.2071,18.4181 -1.0829,0.6748 -2.6349,2.9216 -4.1269,5.9749 -3.0526,6.2466 -3.6836,7.119 -6.5618,9.0722 -7.1361,4.8428 -11.8256,6.23551 -15.4437,4.5869 -1.2018,-0.5475 -1.8846,-0.4302 -3.6071,0.6199 -2.4141,1.47171 -9.0504,1.75251 -11.7691,0.49791 z m 9.2971,-2.67831 c 1.3629,-0.5453 2.6475,-1.5253 2.8546,-2.1777 0.4747,-1.496 1.013,-1.4875 3.5442,0.056 3.0346,1.8503 5.6701,1.5806 10.0446,-1.0276 5.4836,-3.2694 6.1179,-3.9795 9.3717,-10.4915 2.5443,-5.0921 3.3482,-6.139 6.0658,-7.9 2.4929,-1.6153 3.5641,-2.8862 5.2439,-6.222 1.9042,-3.7812 2.1082,-4.6963 2.083,-9.3407 -0.015,-2.8319 -0.388,-5.9889 -0.8278,-7.0155 -0.6832,-1.5948 -0.6338,-2.3402 0.3392,-5.1178 1.4044,-4.009 1.4585,-9.1699 0.141,-13.4319 -1.2507,-4.0456 -6.9403,-18.8759 -8.0416,-20.9612 -1.6621,-3.1468 -7.6328,-16.6004 -8.9747,-20.2221 -0.7609,-2.0533 -2.1288,-5.2733 -3.0401,-7.1555 l -1.6567,-3.4221 -4.0445,0.1521 c -2.2243,0.084 -5.7243,0.6957 -7.7777,1.36 -2.0532,0.6644 -5.9732,1.8026 -8.711,2.5293 -2.7377,0.7268 -5.6777,1.6139 -6.5333,1.9715 -0.8556,0.3575 -4.2156,1.4549 -7.4666,2.4387 -3.2511,0.9838 -7.0311,2.3357 -8.3999,3.0042 -2.4117,1.1778 -14.9885,6.2156 -20.9999,8.4117 -3.4065,1.2445 -3.7306,2.3758 -1.6463,5.748 1.0961,1.7737 1.4612,1.9919 2.245,1.3414 1.4591,-1.2109 2.6679,0.9957 2.6679,4.8699 0,2.6412 0.2883,3.555 1.4839,4.7033 2.3985,2.3035 4.7383,6.5423 4.7383,8.5837 0,1.4482 -0.3664,2.0337 -1.5555,2.4858 -1.8908,0.7189 -1.8955,0.843 -0.2028,5.3891 1.6872,4.5315 2.0582,5.019 4.1733,5.4835 0.9387,0.2062 3.3693,1.9019 5.4014,3.7683 2.0321,1.8664 3.9046,3.3957 4.1613,3.3984 1.0767,0.011 0.3487,-2.6525 -1.0889,-3.9849 -3.1428,-2.9127 -1.2675,-4.7755 1.9876,-1.9742 1.7299,1.4888 1.7457,1.5693 1.7457,8.8666 0,5.7146 0.2404,7.852 1.0729,9.5419 1.7024,3.4559 3.4328,9.9129 3.8468,14.3551 0.2746,2.9465 1.2275,6.0188 3.4115,10.999 4.4477,10.1421 5.149,10.8737 11.4117,11.9043 0.2497,0.041 1.5691,-0.3715 2.932,-0.9168 z m 5.4177,-21.8804 c -0.1604,-0.2596 -0.063,-1.7257 0.2178,-3.2579 0.5775,-3.1584 0.1522,-4.3168 -2.685,-7.3144 -1.9654,-2.0764 -3.5366,-2.6265 -3.5366,-1.2381 0,1.3716 -3.1061,4.1936 -4.6157,4.1936 -2.0655,0 -2.6971,-1.0527 -3.1769,-5.295 -0.8063,-7.128 2.7064,-15.275 7.6141,-17.6594 3.6339,-1.7655 5.8646,-1.6785 7.8494,0.3063 2.5382,2.5383 2.7239,3.9791 0.7334,5.6912 l -1.7106,1.4714 2.0486,4.036 c 2.5569,5.0377 3.0271,9.3882 1.516,14.0288 -1.4029,4.3083 -3.3097,6.5661 -4.2545,5.0375 z m 2.3996,-10.7334 c 0.2133,-0.3453 0.2011,-1.2165 -0.028,-1.9361 -0.3732,-1.1757 -0.5119,-1.2116 -1.3697,-0.3538 -0.525,0.525 -0.785,1.3962 -0.5778,1.9361 0.4274,1.1138 1.3976,1.2876 1.9747,0.3538 z m -1.559,-5.9745 c 0,-1.5438 -2.4355,-0.9828 -2.8467,0.6558 -0.6014,2.3958 0.3448,3.2983 1.7014,1.623 0.6299,-0.7779 1.1453,-1.8033 1.1453,-2.2788 z m -8.5577,-2.1347 c 1.0256,-1.868 2.9507,-4.7065 4.2779,-6.3079 1.3272,-1.6014 2.4131,-3.0714 2.4131,-3.2667 0,-0.878 -3.1238,-0.2236 -5.0412,1.056 -1.6286,1.0867 -2.4309,2.3376 -3.4923,5.4444 -2.5122,7.3537 -1.4656,9.0998 1.8425,3.0742 z m 5.2094,0.9337 c 0.8296,-1.266 0.897,-1.8858 0.3388,-3.111 -0.3834,-0.8416 -0.9733,-1.5301 -1.3108,-1.5301 -1.3831,0 -2.5883,4.7062 -1.4871,5.8074 0.7497,0.7497 1.4084,0.4373 2.4591,-1.1663 z m 14.5777,15.1662 c 0.05,-1.389 5.2825,-13.0613 5.9049,-13.1713 1.6306,-0.2879 0.086,4.8532 -3.6002,11.9807 -0.8765,1.695 -2.3498,2.456 -2.3047,1.1906 z m 6.1927,-0.3828 c 0,-0.6668 0.596,-1.9701 1.3245,-2.8962 1.8294,-2.3256 2.8342,-1.1574 1.3263,1.5418 -1.3517,2.4195 -2.6508,3.0833 -2.6508,1.3544 z m -40.8966,-5.9564 c 0.1891,-1.8325 0.9613,-6.4736 1.7159,-10.3136 1.2563,-6.3926 1.2972,-7.2535 0.4849,-10.2014 -1.0529,-3.8209 -0.8343,-5.3975 0.7479,-5.3975 0.8956,0 1.2413,0.6043 1.5128,2.6445 0.5442,4.088 0.051,9.7941 -1.1418,13.2083 -0.5951,1.7035 -1.3811,5.4134 -1.7465,8.2443 -0.734,5.6858 -2.1401,7.3084 -1.5732,1.8154 z m -7.6364,22.6967 c 0,-0.3003 -0.4634,-0.9303 -1.0298,-1.4 -1.362,-1.1296 -2.7035,-4.4214 -2.7035,-6.6342 0,-1.6894 -1.7241,-7.5974 -2.2171,-7.5974 -0.2091,0 -2.587,1.1112 -7.1162,3.3254 -1.343,0.6565 -1.5758,1.2251 -1.7043,4.1619 l -0.1488,3.4015 4.1932,2.6285 c 3.5279,2.2114 4.7114,2.631 7.4598,2.6444 1.7967,0.01 3.2667,-0.2297 3.2667,-0.5301 z m -11.1749,-16.2666 c 3.8524,-1.9654 7.4416,-8.7098 7.4416,-13.9837 0,-2.4753 -0.208,-2.879 -1.9465,-3.7781 -1.8621,-0.9628 -1.9313,-1.1355 -1.5949,-3.9753 0.4925,-4.1586 -1.4978,-5.836 -3.8255,-3.224 -1.2524,1.4055 -8.3931,3.815 -11.3436,3.8276 -2.9292,0.013 -4.9092,1.1651 -6.2157,3.618 -0.6069,1.1394 -1.5811,2.5994 -2.1649,3.2445 -0.8309,0.9182 -1.0023,1.9903 -0.7892,4.9367 0.3354,4.6365 1.6564,6.5648 6.0841,8.8804 4.2133,2.2036 10.5333,2.4034 14.3546,0.4539 z m -19.3013,-19.5935 c 0.9995,-0.5169 2.1076,-1.4821 2.4623,-2.145 0.5441,-1.0165 0.2668,-1.5092 -1.7713,-3.147 -1.329,-1.068 -3.9157,-4.1627 -5.7484,-6.8772 -3.3994,-5.0352 -5.266,-6.2042 -5.6451,-3.5354 -0.1091,0.77 -0.4788,1.4242 -0.821,1.4537 -4.734,0.4089 -3.0838,5.4201 3.7333,11.3371 2.3956,2.0793 4.7195,3.7969 5.1643,3.817 0.4447,0.02 1.6264,-0.3863 2.6259,-0.9032 z m 28.9425,-0.3401 c 0.7165,-1.1593 -0.2971,-3.7964 -1.3774,-3.5837 -1.6246,0.3199 -2.4413,2.1069 -1.4878,3.2558 0.9403,1.1328 2.2734,1.2854 2.8652,0.3279 z m -13.8662,-5.5252 c 2.5241,-0.7789 2.7486,-1.2621 1.5555,-3.3469 -0.4277,-0.7475 -1.1978,-2.6191 -1.7113,-4.1591 -0.7898,-2.3692 -1.1559,-2.7688 -2.3793,-2.5975 -1.2937,0.1812 -1.4247,-0.013 -1.2443,-1.8482 0.2513,-2.556 -1.2771,-3.0969 -3.1304,-1.1076 -0.8034,0.8622 -1.7225,1.2415 -2.5101,1.0355 -0.7538,-0.1971 -1.6576,0.1336 -2.2974,0.8407 -1.0909,1.2053 -1.0168,1.5641 2.502,12.1169 0.2513,0.7532 5.4585,0.2255 9.2153,-0.9338 z m -12.5998,-1.9469 c 0,-1.6333 -2.5524,-4.8604 -3.889,-4.9171 -0.9838,-0.041 -0.3991,1.8316 1.1442,3.6658 1.6374,1.9458 2.7448,2.4507 2.7448,1.2513 z m -19.248,-7.4476 c 0.6993,-0.3742 1.2036,-1.2986 1.2036,-2.206 0,-1.4356 0.169,-1.5301 2.0909,-1.1696 1.6306,0.3059 2.1802,0.1596 2.4965,-0.6647 0.4962,-1.2932 -2.0487,-6.1179 -3.3603,-6.3705 -1.1769,-0.2266 -7.4493,5.5063 -7.4493,6.8086 0,1.1597 2.324,4.2463 3.1971,4.2463 0.3399,0 1.1597,-0.2898 1.8215,-0.6441 z m 14.8637,-6.3958 c -0.7718,-2.4591 -2.0875,-5.3969 -2.9235,-6.5284 -0.8848,-1.1974 -1.7049,-3.4081 -1.9621,-5.2889 -0.5476,-4.0049 -3.3822,-9.0148 -5.3847,-9.5174 -1.9998,-0.502 -7.1096,-6.0829 -7.1808,-7.8429 -0.1717,-4.2449 0.2791,-7.2509 1.3674,-9.1182 1.2543,-2.1521 1.1334,-3.9099 -0.3913,-5.6862 -0.4406,-0.5133 -2.2416,-4.7133 -4.0022,-9.3333 -1.7607,-4.6199 -4.9942,-13.0199 -7.1857,-18.6665 -2.1914,-5.6466 -6.3859,-16.5666 -9.3208,-24.2665 -2.9351,-7.6999 -5.7142,-14.8399 -6.1759,-15.8666 -0.4615,-1.0266 -1.4676,-3.8266 -2.2356,-6.2222 -0.7681,-2.3955 -1.6535,-4.6331 -1.9676,-4.9725 -0.8464,-0.9144 -1.8014,0.9396 -1.1301,2.194 0.3008,0.562 0.4232,1.5571 0.2719,2.2113 -0.8019,3.469 -1.417,13.6399 -0.865,14.3048 0.3992,0.4811 0.2564,4.4482 -0.4155,11.5421 -0.5631,5.9449 -1.1211,13.1675 -1.2401,16.0502 -0.1337,3.2432 -0.506,5.4203 -0.9763,5.711 -1.2022,0.7429 0.04,2.8348 7.486,12.6106 3.7151,4.8773 8.1655,11.5109 9.8897,14.7413 1.7243,3.2304 3.8992,7.2734 4.833,8.9845 0.934,1.7111 2.1,3.9511 2.5914,4.9777 0.4914,1.0267 1.2018,2.4267 1.5787,3.1111 0.377,0.6844 1.3224,2.5122 2.1011,4.0617 1.0064,2.0028 2.0109,3.0405 3.4746,3.5893 2.6782,1.0042 5.0981,3.1805 6.4532,5.8037 0.5968,1.1554 1.8123,3.199 2.701,4.5413 0.8886,1.3423 2.045,3.8623 2.5696,5.6 0.7502,2.4854 1.3732,3.3585 2.9198,4.0927 1.0813,0.5133 2.8827,1.8714 4.0031,3.0179 1.1628,1.1898 2.1408,1.7736 2.2787,1.36 0.1328,-0.3985 -0.3901,-2.7365 -1.162,-5.1956 z m 5.2932,1.052 c 0.8129,-0.3119 0.9309,-0.9211 0.6025,-3.1111 -0.3433,-2.2895 -0.2433,-2.7232 0.6281,-2.7232 0.592,0 1.3152,0.8003 1.6869,1.8667 0.7006,2.0095 2.5822,2.4766 4.9255,1.2225 1.446,-0.7739 1.5413,-1.7715 0.2588,-2.7094 -0.5195,-0.38 -1.7165,-2.7824 -2.66,-5.3387 -1.5076,-4.0844 -1.9517,-4.7156 -3.6631,-5.2064 -1.5516,-0.445 -2.5341,-0.2656 -4.8327,0.8824 -3.5745,1.7852 -4.5496,2.8373 -3.553,3.8338 0.3961,0.3962 0.7202,1.3962 0.7202,2.2222 0,0.8261 0.539,2.5201 1.1977,3.7644 0.6588,1.2444 1.3641,3.0325 1.5674,3.9736 0.3686,1.7054 1.2035,2.0593 3.1217,1.3232 z m -25.0162,-3.1447 c 3.6519,-2.5307 3.8516,-3.3466 1.5514,-6.3394 -1.0873,-1.4148 -2.1753,-2.5723 -2.4175,-2.5723 -0.7499,0 -4.8931,5.1504 -4.8931,6.0825 0,0.9596 2.3317,4.4952 2.9644,4.4952 0.215,0 1.4727,-0.7497 2.7948,-1.666 z m 34.2592,-7.2006 c -0.1484,-0.2567 -0.6735,-0.4667 -1.1666,-0.4667 -1.0966,0 -1.1716,1.3428 -0.1329,2.3814 0.6033,0.6034 0.8482,0.5316 1.1665,-0.3422 0.2216,-0.6082 0.2815,-1.3159 0.133,-1.5725 z m -27.771,1.05 c 0.3106,-0.9437 -2.254,-4.7247 -2.9238,-4.3108 -0.9122,0.5639 -0.7419,2.3326 0.3788,3.9326 0.9654,1.3783 2.1576,1.5555 2.545,0.3782 z m -9.832,-2.9965 c 3.1556,-3.2558 2.614,-5.0881 -2.065,-6.9859 -2.4902,-1.0101 -3.8293,-1.2792 -4.1094,-0.8261 -0.713,1.1537 -0.1058,5.6259 0.9167,6.7562 0.5366,0.5929 0.9756,1.3826 0.9756,1.755 0,0.5943 0.8572,1.205 1.9001,1.3537 0.1895,0.027 1.2614,-0.8968 2.382,-2.0529 z m -9.2598,-5.3764 c 0,-4.7184 -0.1706,-5.3431 -3.1381,-11.4953 -1.7259,-3.5781 -3.7771,-7.2828 -4.5584,-8.2326 -0.7812,-0.9497 -2.2788,-3.5835 -3.328,-5.8527 -2.339,-5.0594 -6.4409,-10.7019 -7.2162,-9.9265 -0.332,0.3319 -0.2571,2.5473 0.1839,5.4396 0.4092,2.6837 0.9599,6.6995 1.2237,8.9239 0.5009,4.2227 2.8135,14.6126 3.9171,17.599 1.2245,3.3132 8.0734,8.3586 11.516,8.4834 1.3397,0.049 1.4,-0.1642 1.4,-4.9388 z m 35.9448,-0.4645 c 1.803,-0.8509 3.4198,-1.776 3.5927,-2.0556 0.4796,-0.7761 -3.9871,-7.4236 -4.9882,-7.4236 -0.4835,0 -1.2574,0.5403 -1.7199,1.2006 -0.6605,0.943 -1.5024,1.1766 -3.9241,1.0889 -3.4381,-0.1246 -3.399,-0.2528 -1.3869,4.5549 2.4144,5.7687 2.0364,5.6505 8.4264,2.6348 z m -50.8781,0.4377 c 0,-0.3635 -0.3922,-1.9735 -0.8716,-3.5778 -2.6856,-8.9885 -5.6214,-28.2864 -4.8872,-32.1268 0.1647,-0.8618 0.1105,-2.3204 -0.1208,-3.2413 l -0.4202,-1.6744 -1.5808,1.7049 c -0.9498,1.0243 -1.9593,1.5596 -2.529,1.341 -0.5215,-0.2 -1.3341,-0.043 -1.806,0.3482 -0.5216,0.4329 -1.8124,0.5593 -3.294,0.3224 -2.2804,-0.3647 -2.46,-0.2802 -2.8093,1.3209 -0.7584,3.4774 4.2354,19.6877 8.2903,26.9104 2.2832,4.0671 3.6571,5.7561 5.947,7.3111 3.1393,2.1319 4.0816,2.4462 4.0816,1.3614 z m 58.4885,-0.6032 c 0,-0.8019 -1.7728,-1.5262 -2.3421,-0.9568 -0.232,0.232 -0.011,0.6823 0.4935,1.0007 1.2043,0.7617 1.8486,0.7464 1.8486,-0.044 z m -37.9556,-5.7359 c -2e-4,-0.086 -0.5409,-1.5556 -1.2015,-3.2667 -2.3666,-6.1296 -8.3965,-17.5005 -11.5485,-21.7776 -1.7654,-2.3955 -4.8087,-6.5955 -6.763,-9.3333 -5.3336,-7.472 -6.1574,-8.3386 -8.3439,-8.7759 -1.5863,-0.3172 -2.0092,-0.1947 -2.0092,0.5817 0,1.3521 2.8205,5.4169 4.8984,7.0592 0.942,0.7446 2.5293,2.5646 3.5272,4.0444 0.998,1.4798 2.7388,3.8496 3.8684,5.2661 1.1297,1.4166 2.6999,3.7966 3.4895,5.2889 6.8243,12.9001 10.2347,19.1081 11.1467,20.2909 0.4926,0.6389 2.9369,1.1569 2.9359,0.6223 z m 24.7544,-4.8499 c 2.4926,-0.7718 4.6782,-1.6398 4.8569,-1.9289 0.4877,-0.7893 -2.3215,-8.0718 -3.2515,-8.4287 -0.4443,-0.1704 -2.5417,0.5565 -4.6609,1.6155 -2.2423,1.1205 -4.8241,1.9254 -6.1759,1.9254 -2.4719,0 -3.0783,0.6986 -3.0783,3.5463 0,1.0074 0.887,2.4648 2.4532,4.0311 2.3078,2.3077 2.5386,2.3996 3.8889,1.548 0.7896,-0.498 3.475,-1.5369 5.9676,-2.3087 z m 15.6972,-5.2994 c 20.7505,-9.0245 50.2938,-18.3172 58.234,-18.3172 l 3.3585,0 -0.011,-2.6444 c 0,-1.4545 -0.6523,-4.0371 -1.4396,-5.7391 l -1.4314,-3.0947 -5.2494,0.1965 c -3.0027,0.1124 -6.714,0.6973 -8.6716,1.3665 -1.8821,0.6435 -6.2221,1.8697 -9.6444,2.7249 -7.7761,1.9432 -14.4192,4.2178 -25.347,8.6788 -4.7008,1.9191 -8.9008,3.4922 -9.3331,3.4958 -1.6194,0.013 -11.3713,5.4547 -11.5681,6.4546 -0.2805,1.4243 3.0371,9.7165 3.8874,9.7165 0.3776,0 3.6232,-1.2772 7.2126,-2.8382 z m -19.4518,-5.572 c 1.297,-0.5189 2.7253,-1.5312 3.1738,-2.2495 0.7125,-1.1409 0.5698,-1.8053 -1.1292,-5.2564 -1.0696,-2.1728 -3.2198,-7.1105 -4.7781,-10.9726 -1.5582,-3.8622 -4.0901,-10.1021 -5.6263,-13.8666 -1.5363,-3.7644 -4.8419,-12.4443 -7.3461,-19.2887 -5.2168,-14.259 -8.5986,-23.2252 -12.4384,-32.9776 -1.4822,-3.7644 -3.1526,-8.4676 -3.7121,-10.4516 -0.5594,-1.984 -1.3581,-3.7381 -1.7749,-3.8981 -0.4168,-0.1599 -1.8644,0.2734 -3.2167,0.9629 -1.3524,0.6894 -2.8325,1.2536 -3.2889,1.2536 -0.5845,0 -0.7393,0.5981 -0.5232,2.0222 0.1688,1.1122 0.4738,3.2683 0.6778,4.7913 0.2039,1.523 0.5951,3.063 0.8692,3.4222 0.2741,0.3592 0.8702,2.0531 1.3246,3.7642 0.4545,1.7111 1.365,4.371 2.0236,5.911 0.6586,1.54 2.2618,5.74 3.5628,9.3333 1.301,3.5933 3.0532,8.3533 3.8939,10.5777 0.8405,2.2245 2.5695,6.8444 3.8421,10.2666 1.2725,3.4222 2.8931,7.4822 3.6012,9.0222 0.708,1.54 2.0603,4.8999 3.0051,7.4666 0.9447,2.5666 2.8957,7.6066 4.3355,11.1999 1.4398,3.5933 3.0358,7.9333 3.5468,9.6444 1.1988,4.0147 5.146,10.1871 6.5431,10.232 0.592,0.019 2.1374,-0.39 3.4344,-0.909 z m 16.4939,-8.2706 c 4.5561,-1.7303 4.7943,-2.2346 2.2961,-4.8624 -2.5114,-2.6421 -7.0427,-4.8255 -12.2436,-5.8997 -6.3297,-1.3074 -7.0564,-0.1184 -3.7938,6.2078 1.4012,2.7169 2.2593,3.7453 2.9556,3.5419 0.5396,-0.1575 2.381,0.2216 4.0921,0.8425 1.7111,0.6209 3.2511,1.1661 3.4222,1.2116 0.1711,0.046 1.6433,-0.4233 3.2714,-1.0417 z m 17.5729,-7.2664 c 5.8703,-2.7356 11.7501,-4.605 30.4886,-9.6931 2.3956,-0.6504 5.2473,-1.1874 6.3373,-1.1933 1.0899,-0.01 2.6974,-0.2827 3.5723,-0.6154 1.3452,-0.5114 1.504,-0.8235 1.0283,-2.0222 -0.7501,-1.8907 -2.5365,-9.2985 -3.2677,-13.5507 -0.8042,-4.6771 -0.6659,-26.8479 0.1887,-30.2419 0.7123,-2.8291 0.4611,-12.7581 -0.3723,-14.7133 -0.3274,-0.768 -0.1803,-1.0889 0.499,-1.0889 1.5614,0 1.8403,1.0868 2.0413,7.9526 0.1047,3.5842 0.3327,6.6589 0.5064,6.8325 0.6444,0.6445 3.982,-1.2465 6.1218,-3.4686 2.5888,-2.6883 6.3779,-9.6699 5.7763,-10.6432 -0.7026,-1.1369 -2.0406,-0.7485 -2.5032,0.7267 l -0.4391,1.4 -0.446,-1.5556 c -0.376,-1.3114 -0.8206,-1.5555 -2.8327,-1.5555 -1.5385,0 -2.5213,-0.3317 -2.7653,-0.9333 -0.7103,-1.7514 -4.8678,-7.7741 -6.4428,-9.3333 -0.8643,-0.8555 -3.2833,-3.0924 -5.3757,-4.9708 -2.0924,-1.8784 -3.8043,-3.8203 -3.8043,-4.3154 0,-0.4951 -0.5248,-1.4782 -1.1663,-2.1847 -1.6707,-1.8401 -3.978,-9.0071 -3.5649,-11.073 0.3767,-1.8833 0.2593,-1.9862 -1.3439,-1.1778 -0.5943,0.2996 -2.7604,1.0236 -4.8138,1.6088 -2.0532,0.5853 -5.1333,1.7816 -6.8443,2.6586 -1.7111,0.877 -4.8189,2.463 -6.906,3.5244 -2.0872,1.0615 -4.7157,2.63 -5.8413,3.4855 -2.9109,2.2126 -8.4911,7.8368 -11.2952,11.3844 -2.6943,3.4084 -2.636,3.8711 1.0007,7.9405 3.218,3.601 7.109,11.3011 9.8167,19.4269 2.2143,6.6454 2.5408,8.3483 2.5905,13.5145 0.051,5.261 -0.1322,6.2962 -1.6625,9.4124 -2.2451,4.5714 -4.0824,6.3296 -9.0839,8.6927 -3.8815,1.834 -4.4065,1.9237 -9.1023,1.5557 -2.7407,-0.2148 -6.3259,-0.5556 -7.9671,-0.7573 -2.5771,-0.3167 -3.3194,-0.1343 -5.4444,1.3383 -1.4628,1.0138 -2.4604,2.2045 -2.4604,2.9367 0,0.6774 0.959,3.2794 2.131,5.7822 1.1721,2.5029 1.9927,5.0801 1.8235,5.7272 -0.4197,1.6049 0.7837,2.4015 4.3256,2.8634 7.8858,1.0283 13.8786,4.4082 15.7478,8.8816 l 0.844,2.0198 3.8972,-1.5642 c 2.1434,-0.8603 5.2972,-2.2165 7.0084,-3.0139 z m 44.7996,-63.7855 c 0.2116,-0.3422 0.6481,-0.6223 0.9701,-0.6223 0.322,0 0.5855,0.2801 0.5855,0.6223 0,0.3422 -0.4365,0.6222 -0.97,0.6222 -0.5335,0 -0.797,-0.28 -0.5856,-0.6222 z m -129.7489,60.71 c 0.7712,-2.0285 0.087,-5.878 -1.1576,-6.5189 -0.552,-0.2841 -2.0193,-0.6997 -3.2607,-0.9235 -1.99,-0.3587 -2.3019,-0.2395 -2.636,1.007 -0.7346,2.7422 -0.378,4.4754 1.2762,6.202 2.1763,2.2716 4.9604,2.384 5.7781,0.2334 z m 50.8133,-4.5549 c -0.2114,-1.2833 -1.0805,-4.0133 -1.9314,-6.0666 -0.851,-2.0533 -1.5538,-4.0833 -1.562,-4.511 -0.024,-1.2715 -1.0864,-0.8835 -1.4566,0.5319 -0.1884,0.7203 0.098,2.3303 0.636,3.5777 0.9675,2.2428 1.1999,2.8296 2.6852,6.7791 1.0517,2.7966 2.1073,2.5949 1.6288,-0.3111 z m -46.8799,-21.9331 c -0.1619,-2.5667 -0.013,-7.3267 0.3306,-10.5777 0.3438,-3.2511 0.4299,-6.1159 0.1915,-6.3661 -0.2383,-0.2503 -1.2647,-0.6213 -2.2806,-0.8245 l -1.8473,-0.3695 0.065,14.1539 c 0.065,14.1464 0.065,14.1546 1.5556,15.366 l 1.491,1.2119 0.3944,-3.9637 c 0.217,-2.18 0.262,-6.0637 0.1004,-8.6303 z m 46.085,2.4195 c 3.333,-2.3237 5.8866,-2.6051 14.093,-1.5531 3.3058,0.4238 4.5075,0.3193 6.5334,-0.5684 1.3652,-0.5982 3.0277,-1.1473 3.6944,-1.2202 0.6667,-0.073 2.5176,-1.5522 4.1131,-3.2873 2.4296,-2.6423 2.9721,-3.6912 3.3388,-6.4562 0.78,-5.8796 -1.2162,-13.7227 -5.9162,-23.2452 -1.3514,-2.7378 -2.4524,-5.4004 -2.4468,-5.917 0.011,-0.5165 -0.5433,-1.2848 -1.2197,-1.7072 -0.6764,-0.4224 -1.7716,-1.8198 -2.4337,-3.1052 -0.662,-1.2855 -3.0644,-4.1355 -5.3386,-6.3334 -3.868,-3.7381 -4.3517,-4.0141 -7.4932,-4.2746 -1.8469,-0.1532 -4.0781,-0.098 -4.9581,0.1231 -2.2295,0.5596 -6.3589,4.4286 -8.8182,8.262 -1.138,1.774 -3.2275,4.154 -4.6433,5.2889 -1.4156,1.1349 -3.7603,3.1134 -5.2101,4.3967 -1.4499,1.2834 -3.0947,2.3333 -3.6554,2.3333 -0.7131,0 -1.0193,0.5496 -1.0193,1.83 0,2.5721 0.6773,2.7286 4.049,0.9359 6.4624,-3.4361 12.7509,-8.9569 12.7509,-11.1943 0,-0.527 1.2759,-2.322 2.8351,-3.989 2.4326,-2.6007 3.2759,-3.0915 5.9414,-3.4581 2.7376,-0.3765 3.4169,-0.2243 5.7205,1.2813 3.4504,2.2552 5.3652,4.5009 9.2281,10.8231 6.548,10.7166 9.292,19.5335 8.3718,26.899 -0.4993,3.9952 -0.5158,4.0233 -4.2904,7.2728 -3.4789,2.9948 -5.5791,3.2606 -12.2526,1.5506 -2.5167,-0.6448 -4.8934,-0.8776 -6.2882,-0.616 -3.352,0.6289 -7.678,3.7985 -9.891,7.2472 -2.3269,3.6262 -1.9201,5.5458 0.5647,2.6642 0.8888,-1.031 2.9772,-2.8233 4.6406,-3.9829 z m 82.2195,-15.6273 c 2.7705,-0.7741 5.6693,-2.6682 9.1962,-6.0088 1.8081,-1.7126 2.7188,-3.381 3.9392,-7.2165 1.3889,-4.3653 1.5376,-5.65 1.1896,-10.2778 -0.5033,-6.6948 -1.7162,-11.0877 -4.4429,-16.0912 -3.0259,-5.5526 -5.5975,-8.5735 -9.6447,-11.3297 -3.4868,-2.3745 -6.7911,-3.6812 -6.748,-2.6686 0.012,0.2938 1.2656,1.3217 2.7848,2.2842 1.5193,0.9625 3.399,2.5756 4.1773,3.5847 0.7783,1.0091 2.7133,3.4446 4.3001,5.4122 3.2673,4.0514 4.5087,6.692 5.8351,12.4114 1.2616,5.4398 1.1598,10.4954 -0.2966,14.7284 -3.0403,8.8367 -5.3363,10.8368 -15.4235,13.4352 -2.9143,0.7507 -3.3815,1.6451 -1.2676,2.4271 1.4503,0.5365 2.3608,0.4382 6.401,-0.6906 z m -127.9888,-7.8153 c -0.1588,-0.825 -1.2332,-1.0103 -6.2565,-1.0789 -5.4589,-0.074 -6.0649,0.029 -6.0649,1.0385 0,0.8832 0.3634,1.0559 1.7111,0.8133 0.9411,-0.1695 3.5312,-0.075 5.7555,0.2099 4.5161,0.5784 5.1316,0.4538 4.8548,-0.9828 z m 0.8761,-7.3631 c 0.2432,-2.4369 0.8238,-5.5387 1.2904,-6.8929 l 0.8483,-2.4621 -3.182,-0.084 c -3.1448,-0.083 -3.1837,-0.061 -3.3318,1.8825 -0.083,1.0815 -0.2625,2.079 -0.4003,2.2167 -0.541,0.5411 -1.5777,-0.6357 -1.5777,-1.7908 0,-1.5621 -2.957,-3.0725 -3.6909,-1.8852 -0.7982,1.2915 -1.3167,9.8644 -0.6956,11.4983 0.7527,1.9798 1.4477,2.2095 6.2532,2.0675 l 4.0444,-0.1196 0.442,-4.4307 z m 23.2602,-10.5119 c 0.2701,-1.076 -0.2961,-3.1687 -1.8128,-6.6991 -1.2131,-2.8238 -2.6607,-6.5296 -3.2169,-8.235 -0.5561,-1.7054 -1.1453,-3.5005 -1.3091,-3.989 -0.2538,-0.7563 -0.4392,-0.7473 -1.2471,0.061 -0.8506,0.8506 -0.811,1.3624 0.3808,4.9327 2.3585,7.0649 5.7907,15.4947 6.3086,15.4947 0.2771,0 0.6805,-0.7042 0.8965,-1.565 z m -21.2521,-3.8794 c 0.1989,-1.9678 0.6289,-5.225 0.9556,-7.2383 0.8208,-5.0581 0.3902,-5.6087 -5.044,-6.4498 -2.4856,-0.3848 -4.7176,-0.577 -4.96,-0.4272 -1.1278,0.697 -2.0768,17.0708 -0.9893,17.0708 0.3549,0 1.1319,-0.4405 1.7267,-0.9788 0.9919,-0.8975 1.1155,-0.8717 1.491,0.3111 0.3401,1.072 0.9203,1.2899 3.4337,1.2899 l 3.0244,0 z m 28.3598,-0.3141 c 1.2033,-1.1106 3.8119,-4.3284 5.797,-7.1506 3.8773,-5.5126 6.9203,-7.8242 11.3039,-8.5865 2.8644,-0.4981 5.1699,-2.4403 7.8445,-6.6084 1.809,-2.819 8.5166,-8.7802 11.7553,-10.4472 0.8556,-0.4403 2.2556,-1.4488 3.1112,-2.2411 0.8554,-0.7923 3.5854,-2.4419 6.0665,-3.6658 2.4811,-1.224 4.5111,-2.5248 4.5111,-2.8909 0,-0.366 -0.35,-0.5204 -0.7778,-0.343 -2.1704,0.9001 -10.2638,2.9644 -13.8443,3.5313 -4.3081,0.682 -11.9485,2.7521 -14.9332,4.046 -2.4611,1.0668 -11.7647,4.6353 -19.5999,7.5177 -5.2912,1.9466 -14.311,6.4465 -14.311,7.1398 0,0.2991 0.6845,2.2994 1.5211,4.445 0.8367,2.1456 2.2841,6.0012 3.2165,8.5678 2.9864,8.2204 3.2548,8.7113 4.7596,8.7081 0.7654,0 2.3762,-0.9116 3.5795,-2.0222 z m 35.2745,-14.5496 c 5.4677,-7.5738 10.3519,-11.5491 20.4038,-16.6066 7.3909,-3.7186 15.2684,-6.0184 20.615,-6.0184 1.7968,0 3.4149,-0.2393 3.5956,-0.5317 0.4247,-0.6872 -1.8377,-2.745 -4.6107,-4.1938 -2.847,-1.4875 -11.2569,-1.5532 -14.011,-0.1095 -1.0329,0.5414 -2.5729,0.8532 -3.4223,0.693 -0.9812,-0.1852 -2.9055,0.4286 -5.2776,1.6832 -2.0534,1.086 -4.8534,2.5469 -6.2223,3.2464 -1.3688,0.6995 -3.7488,2.2888 -5.2888,3.5318 -1.5399,1.2429 -4.2372,3.2993 -5.9937,4.5697 -4.8608,3.5155 -10.8248,10.7142 -10.7965,13.0317 0.011,0.6763 6.3134,4.6563 7.5862,4.7888 0.2423,0.025 1.7823,-1.8129 3.4223,-4.0846 z m -56.7511,1.0193 c 0.2115,-0.3422 0.1047,-0.6222 -0.2377,-0.6222 -0.3422,0 -0.7953,0.28 -1.0067,0.6222 -0.2116,0.3422 -0.1048,0.6222 0.2376,0.6222 0.3422,0 0.7952,-0.28 1.0068,-0.6222 z m 0.1317,-2.2095 c 3.3488,-0.5182 4.479,-1.7333 3.0652,-3.2956 -0.5605,-0.6194 -1.0192,-1.3368 -1.0192,-1.5942 0,-0.2575 -1.0034,-2.4674 -2.2297,-4.911 -1.575,-3.1383 -2.1598,-5.042 -1.9917,-6.4829 0.3181,-2.7241 -0.4126,-2.6223 -5.4566,0.76 -2.2966,1.54 -4.8042,2.8 -5.5725,2.8 -1.9114,0 -2.5668,1.0665 -2.6594,4.3287 -0.1165,4.1014 1.6948,7.7248 4.2911,8.5843 2.0687,0.6849 6.38,0.6144 11.5728,-0.1893 z m 6.0503,-7.0257 c 0.7065,-0.6305 2.9645,-1.778 5.0179,-2.55 2.0533,-0.772 6.5333,-2.6025 9.9554,-4.0678 3.4223,-1.4653 8.4622,-3.3827 11.2,-4.2608 2.7377,-0.8782 8.317,-2.7572 12.3984,-4.1757 12.2775,-4.2671 19.6717,-6.2754 25.2458,-6.8571 2.9088,-0.3035 6.7819,-0.8368 8.6067,-1.185 1.8249,-0.3483 5.0773,-0.6713 7.2275,-0.718 l 3.9094,-0.085 -0.5022,-1.6327 c -0.2763,-0.898 -0.7924,-2.7644 -1.1469,-4.1475 -0.3546,-1.3831 -1.461,-3.2967 -2.4587,-4.2526 l -1.814,-1.7379 -4.8887,0.7122 c -2.6888,0.3917 -7.4088,1.2686 -10.4887,1.9488 -3.08,0.6802 -7,1.5427 -8.711,1.9166 -3.8687,0.8455 -12.191,3.5218 -13.0499,4.1967 -0.3514,0.2761 -1.6189,0.6795 -2.8167,0.8964 -1.1977,0.2169 -3.5552,1.0934 -5.2388,1.9478 -1.6834,0.8543 -3.6574,1.5534 -4.3865,1.5534 -0.7291,0 -1.6275,0.3018 -1.9963,0.6706 -0.3688,0.3688 -1.6148,0.9003 -2.7689,1.181 -1.154,0.2808 -4.0583,1.2707 -6.4538,2.1998 -2.3956,0.9291 -5.4755,2.015 -6.8444,2.413 -4.5624,1.3265 -8.6973,3.0642 -9.9639,4.1873 -0.6891,0.6111 -2.2992,1.5482 -3.5778,2.0824 -1.2787,0.5343 -2.3249,1.3823 -2.3249,1.8846 0,0.9979 3.8189,9.0256 4.2935,9.0256 0.1611,0 0.871,-0.5159 1.5775,-1.1464 z m 4.0846,-9.0422 c 0,-1.8667 0.8032,-2.4797 2.5306,-1.9314 1.956,0.6208 1.3531,3.0447 -0.8195,3.2947 -1.464,0.1685 -1.7111,-0.028 -1.7111,-1.3633 z m 13.2885,-5.0637 c -0.5074,-1.3222 0.9744,-2.8878 2.5236,-2.6665 0.8956,0.128 1.36,0.7167 1.4957,1.8967 0.1773,1.5408 0,1.7111 -1.7306,1.7111 -1.1466,0 -2.0738,-0.3814 -2.2887,-0.9413 z m 13.117,-4.0992 c -0.2329,-0.3768 0.1694,-1.2779 0.894,-2.0025 1.1867,-1.1866 1.4128,-1.2222 2.2762,-0.3588 0.5428,0.5428 0.7849,1.4114 0.5581,2.0025 -0.4477,1.1669 -3.0727,1.4195 -3.7283,0.3588 z m 13.0379,-3.3109 c -0.5675,-1.4785 0.9125,-3.4708 2.5781,-3.4708 1.0999,0 1.5337,0.3394 1.5337,1.2 0,2.3909 -3.3548,4.2437 -4.1118,2.2708 z m 13.8599,-3.2634 c -0.9388,-0.9387 -0.3743,-3.2475 0.8922,-3.6494 1.909,-0.6059 2.8068,0.5563 1.9249,2.4918 -0.6886,1.5114 -1.9465,2.0283 -2.8171,1.1576 z m 11.0417,-2.3028 c -0.6416,-1.6718 0.03,-3.1881 1.5039,-3.3979 1.2846,-0.1828 1.4156,0.014 1.2381,1.8616 -0.2132,2.2173 -2.0795,3.2629 -2.742,1.5363 z m 9.3131,-1.9192 c -0.4379,-1.141 0.1994,-2.2076 1.3191,-2.2076 1.2806,0 1.7657,1.1748 0.9107,2.2051 -0.9572,1.1534 -1.7879,1.1543 -2.2298,0 z m 21.4868,28.4367 c 3.4062,-1.9387 1.9001,-2.8476 -1.7233,-1.04 -1.0828,0.5401 -1.8092,1.2401 -1.6143,1.5555 0.5069,0.8204 1.1704,0.7179 3.3376,-0.5155 z m 9.5299,-2.3718 c 0.7852,-0.7853 -1.7412,-5.4844 -3.5376,-6.5799 -2.4156,-1.4731 -3.7017,-1.5009 -3.2514,-0.071 1.4384,4.5691 2.2924,6.0897 3.6315,6.4659 1.9738,0.5545 2.7426,0.5994 3.1575,0.1844 z m -10.8756,-0.6758 c 3.7833,-0.4544 4.0834,-1.2086 1.7161,-4.3122 -2.0682,-2.7118 -4.9732,-4.1122 -7.5333,-3.632 -1.9249,0.3612 -2.0021,0.4839 -1.6682,2.6519 0.4903,3.1843 1.8792,5.6964 3.146,5.69 0.59,0 2.5429,-0.1819 4.3394,-0.3977 z m -114.4632,-5.1756 c 1.2697,-0.6728 3.0045,-1.7738 3.8551,-2.4465 l 1.5464,-1.2233 -1.4222,-2.3757 c -0.7821,-1.3066 -1.9581,-3.5656 -2.6132,-5.0201 -0.6551,-1.4544 -1.488,-2.6444 -1.851,-2.6444 -1.5069,0 -9.4282,4.4713 -9.1553,5.168 0.1601,0.4087 1.2015,2.7731 2.3143,5.2542 2.2835,5.0912 3.1709,5.4895 7.3259,3.2878 z m 8.2197,-5.8561 c 0,-0.4714 -0.3594,-1.1553 -0.7984,-1.5196 -0.439,-0.3644 -1.489,-2.4969 -2.3333,-4.7388 -1.3378,-3.5525 -2.4683,-5.1874 -2.4683,-3.5693 0,1.1069 2.909,8.7584 3.6855,9.6941 1.011,1.2181 1.9145,1.2812 1.9145,0.1336 z m 76.8438,-4.7428 c 0.4866,-0.7875 -0.3371,-0.7875 -1.5556,0 -0.8043,0.5198 -0.7879,0.6045 0.1189,0.6127 0.5787,0 1.2252,-0.2705 1.4367,-0.6127 z m -89.0545,-3.4144 c 3.1584,-1.3968 3.4995,-1.7344 3.4995,-3.4635 0,-1.7216 -0.1728,-1.8959 -1.7057,-1.7189 -1.1388,0.1314 -1.7713,0.6105 -1.9031,1.4413 -0.4472,2.8204 -0.6596,3.0001 -2.2866,1.934 -2.8725,-1.882 -5.8654,-0.6373 -5.0028,2.0805 0.5547,1.7477 3.0359,1.656 7.3987,-0.2734 z m 6.9565,-6.2634 c -0.2212,-1.1794 -0.6626,-2.1444 -0.9807,-2.1444 -0.5436,0 -0.2807,2.9095 0.45,4.9778 0.5779,1.6358 0.9732,-0.4747 0.5307,-2.8334 z m -9.23,-0.7243 c 0.2645,-0.6893 0.9757,-0.8191 2.9061,-0.5305 l 2.5558,0.3821 0.108,-5.3293 c 0.1026,-5.0773 0.048,-5.3105 -1.1423,-4.9325 -3.3233,1.0548 -8.0601,3.6069 -8.6134,4.6409 -0.6643,1.2412 -0.8575,7.0143 -0.2549,7.6169 0.5897,0.5897 4.0595,-0.854 4.4407,-1.8476 z m 9.765,-4.3077 c 0.5008,-1.3049 -0.1667,-3.4648 -0.9257,-2.9957 -0.7396,0.4571 -0.7589,4.0167 -0.022,4.0167 0.3056,0 0.732,-0.4595 0.9474,-1.021 z m -9.8268,-5.5972 c 4.3505,-2.1164 6.0894,-3.3036 6.5279,-4.4569 1.0998,-2.8927 -0.282,-2.9452 -5.8555,-0.2222 -2.883,1.4085 -5.5383,2.9182 -5.9007,3.3548 -0.815,0.982 -1.6653,4.2092 -1.109,4.2092 0.2238,0 3.0757,-1.2982 6.3373,-2.8849 z m 11.9451,-3.1909 c 0.122,-0.8555 -0.1954,-1.5478 -0.8195,-1.7873 -1.4026,-0.5383 -2.2128,0.4464 -1.7677,2.1484 0.472,1.8048 2.315,1.5476 2.5872,-0.3611 z m -9.8566,-3.7411 c 0.8483,-0.537 2.6684,-1.3083 4.0445,-1.7142 2.3527,-0.6939 2.5981,-0.9981 4.1161,-5.1046 1.705,-4.6124 3.3282,-7.3149 6.3163,-10.5162 1.016,-1.0886 1.5499,-2.1202 1.2071,-2.3321 -1.2063,-0.7455 -9.6166,3.2564 -12.2263,5.8177 -2.9706,2.9153 -6.8801,9.8348 -7.5214,13.3121 -0.4267,2.3139 -0.3889,2.3851 1.0393,1.9574 0.8149,-0.2441 2.176,-0.8832 3.0244,-1.4201 z M 41.4769,208.05885 c -0.2343,-0.3792 -0.33,-2.284 -0.2126,-4.2328 0.1753,-2.9084 0.046,-3.5002 -0.7197,-3.3027 -3.1149,0.803 -3.7333,0.7945 -3.7333,-0.051 0,-1.0714 3.2862,-3.6117 4.6723,-3.6117 0.5443,0 1.8416,-0.4407 2.8831,-0.9793 1.0414,-0.5385 1.9962,-0.8765 2.1216,-0.751 0.1255,0.1255 -0.341,2.0361 -1.0366,4.2458 -0.6957,2.2098 -1.4584,5.1157 -1.6949,6.4577 -0.4338,2.4617 -1.4941,3.4965 -2.2799,2.2251 z m 19.3172,-9.2454 c -0.5316,-1.6748 1.7794,-9.6635 4.9297,-17.0417 0.7248,-1.6974 -0.9414,-1.3451 -3.8886,0.8223 -2.4194,1.7792 -3.8685,1.9707 -3.8685,0.5111 0,-0.9425 3.047,-3.4532 6.8444,-5.6399 1.8822,-1.0838 4.5422,-2.9819 5.911,-4.218 3.683,-3.3256 14.6222,-8.2615 14.6222,-6.5976 0,0.5368 -1.638,2.211 -2.1632,2.211 -0.212,0 -1.8643,0.946 -3.6717,2.1022 -1.8074,1.1562 -3.8908,2.2941 -4.6299,2.5286 -3.4405,1.092 -11.4563,17.2217 -11.536,23.2135 -0.035,2.6565 -0.2432,3.2667 -1.1127,3.2667 -0.5881,0 -1.2346,-0.5212 -1.4367,-1.1582 z m -13.4052,-6.8854 c 0,-1.2587 4.0698,-5.023 5.4307,-5.023 1.2806,0 0.9205,1.2137 -1.1274,3.7993 -2.0662,2.6089 -4.3033,3.245 -4.3033,1.2237 z m 54.36984,-11.009 c -1.0275,-4.0936 3.2412,-18.0829 7.5584,-24.7701 2.3879,-3.6988 5.6294,-6.8886 7.6048,-7.4836 0.77,-0.2319 1.4,-0.2877 1.4,-0.1239 0,0.1638 -1.47,1.8105 -3.2667,3.6592 -5.5257,5.6859 -9.6322,15.1547 -11.2054,25.8378 -0.6915,4.696 -1.393,5.6622 -2.0911,2.8806 z M 86.5887,165.86485 c 0,-0.6118 4.0397,-2.6041 5.2801,-2.6041 0.48534,0 1.70834,-1.2006 2.71794,-2.6679 2.1567,-3.1347 6.5933,-5.7458 10.8241,-6.3703 4.2081,-0.6213 3.7316,0.5003 -0.9334,2.197 -2.9462,1.0716 -4.6549,2.223 -7.0492,4.75 -1.8179,1.9187 -3.7019,3.3356 -4.4351,3.3356 -0.7011,0 -2.27984,0.42 -3.50854,0.9334 -2.5703,1.0739 -2.8959,1.1219 -2.8959,0.4263 z m 28.62204,-2.3493 c 0,-0.8589 5.8286,-7.0992 6.6308,-7.0992 1.1846,0 0.3572,1.4303 -2.7894,4.8222 -2.1786,2.3485 -3.8414,3.3341 -3.8414,2.277 z m 124.7959,-9.2773 c -3.0815,-3.0815 -5.1029,-6.3312 -5.9512,-9.5676 -1.1885,-4.5345 0.2163,-4.4242 2.3739,0.1864 1.9124,4.0869 5.03,8.7173 5.5314,8.2159 0.1463,-0.1464 -0.5211,-1.764 -1.4832,-3.5947 -0.9622,-1.8307 -1.8444,-3.5385 -1.9604,-3.7952 -0.1161,-0.2566 0.3024,-0.4587 0.9298,-0.449 1.7166,0.027 5.3145,6.3052 5.0689,8.8456 -0.2719,2.8117 -1.8023,2.8656 -4.5092,0.1586 z m -122.307,-0.2812 c 0,-1.3748 6.3623,-6.7934 10.5771,-9.0083 3.7974,-1.9955 5.2082,-2.405 8.4844,-2.4629 4.2646,-0.075 5.6109,0.9157 2.0939,1.5413 -1.1977,0.2131 -3.5778,0.9485 -5.2888,1.6343 -1.7112,0.6858 -3.4717,1.1194 -3.9123,0.9635 -1.064,-0.3764 -7.0808,3.8074 -8.7792,6.1046 -1.2883,1.7426 -3.1751,2.472 -3.1751,1.2275 z m 95.5618,-1.8962 c -0.1937,-0.5134 -0.1446,-3.1734 0.1091,-5.9111 0.4289,-4.6262 0.5671,-4.9926 1.9548,-5.1888 1.4568,-0.2059 1.4835,-0.13 1.0943,3.1111 -0.2194,1.8272 -0.4015,3.9211 -0.4044,4.6532 0,0.7321 -0.5446,1.9921 -1.2037,2.8 -0.9637,1.1815 -1.267,1.2863 -1.5504,0.5356 z m 6.5136,-2.7407 c -0.8505,-1.5892 -0.478,-2.8593 0.8385,-2.8593 0.9371,0 2.4177,2.944 1.901,3.78 -0.6403,1.036 -1.9229,0.6049 -2.7395,-0.9207 z m 4.4455,-7.0593 c -4.6462,-4.7224 -5.9501,-6.3777 -5.024,-6.3777 0.688,0 1.762,0.2735 2.3867,0.6079 1.7346,0.9283 9.4805,10.5486 9.1781,11.399 -0.1464,0.4117 -3.0898,-2.1214 -6.5408,-5.6292 z m -12.0176,5.1333 c -0.2117,-0.3422 -0.7395,-1.7422 -1.1728,-3.1111 -1.034,-3.2663 -3.3247,-7.1789 -5.2767,-9.0128 -0.861,-0.8089 -1.5655,-1.8381 -1.5655,-2.2872 0,-1.2354 -4.3265,-2.8764 -5.3481,-2.0285 -0.4507,0.3741 -1.1118,0.4996 -1.469,0.2788 -1.0658,-0.6587 -0.7448,-2.3878 0.8903,-4.7939 1.7857,-2.6279 2.8963,-6.8508 2.1228,-8.0714 -0.2928,-0.4622 -0.5367,-2.1922 -0.542,-3.8444 -0.011,-2.8976 -2.2409,-16.9203 -2.8496,-17.9053 -0.4473,-0.7236 2.0037,-11.4048 3.1064,-13.537 0.5283,-1.0217 1.4005,-4.5918 1.9382,-7.9336 0.5379,-3.3418 1.0899,-6.2573 1.2268,-6.4789 0.137,-0.2217 0.02,-1.219 -0.2609,-2.2163 l -0.5101,-1.8134 -0.8577,1.8667 c -0.4718,1.0267 -3.2219,5.2266 -6.1111,9.3333 -7.995,11.3636 -9.7446,14.0798 -12.7957,19.8646 -3.4673,6.5742 -6.7345,16.1733 -6.3639,18.6979 0.1497,1.0203 0.022,5.4672 -0.2834,9.882 -0.5436,7.8544 -0.5968,8.0655 -2.4678,9.8133 -2.363,2.2074 -3.025,2.2451 -3.025,0.1724 0,-1.1013 -0.4033,-1.7193 -1.2699,-1.9459 -1.8832,-0.4925 -1.1153,-1.6843 1.3147,-2.0403 2.6609,-0.3898 2.8928,-1.2986 2.9927,-11.7303 0.064,-6.7123 0.3025,-8.3691 1.8803,-13.0783 2.4041,-7.1761 6.7144,-15.8551 10.0801,-20.2969 7.5148,-9.9175 10.7555,-14.7121 12.7257,-18.8274 2.1975,-4.59 2.7272,-4.9678 5.4912,-3.9169 1.7364,0.6601 2.8829,4.4142 1.7684,5.7904 -0.3433,0.424 -0.9693,3.8509 -1.3911,7.6154 -0.4219,3.7644 -1.0486,7.5443 -1.3927,8.3999 -0.3439,0.8555 -0.885,2.6755 -1.202,4.0444 -1.5187,6.5544 -1.5553,7.8347 -0.3969,13.8595 1.894,9.8492 2.2847,17.494 1.0809,21.1418 -1.2175,3.6887 0.8383,4.6707 6.5691,3.138 2.4293,-0.6498 3.3758,-0.5804 7.1188,0.5219 l 4.317,1.2713 2.4157,-2.233 c 1.3287,-1.2282 3.3585,-3.633 4.5106,-5.3442 5.4894,-8.1524 11.8448,-15.6724 15.1923,-17.9762 3.7658,-2.5917 6.7505,-5.9465 7.5338,-8.468 1.7862,-5.7495 7.2127,-15.0139 10.1107,-17.2615 0.8095,-0.6279 1.2086,-0.5807 2.1287,0.2519 1.5535,1.4059 1.4498,2.561 -0.9972,11.1182 -3.0169,10.5495 -3.7642,14.7575 -2.9057,16.3617 0.7311,1.3661 0.4137,7.9734 -0.5731,11.9295 -1.861,7.461 -7.0358,18.7597 -9.8449,21.4957 -1.0705,1.0427 -2.3294,3.0027 -2.7973,4.3555 -1.0338,2.9886 -2.4549,3.4138 -3.9226,1.1739 -1.0905,-1.6644 -1.0851,-1.6831 1.0287,-3.5718 1.1687,-1.0442 2.7443,-2.8114 3.5015,-3.9272 2.0382,-3.0034 6.443,-11.5206 6.443,-12.4582 0,-0.4473 0.8492,-2.9509 1.887,-5.5635 1.46,-3.6753 1.725,-4.9453 1.171,-5.6128 -0.885,-1.0664 -0.3257,-8.742 1.061,-14.5581 1.698,-7.1225 3.2288,-12.7002 4.0489,-14.7539 0.4389,-1.0992 0.6162,-2.1803 0.394,-2.4026 -0.7069,-0.7069 -3.4888,2.8596 -4.5718,5.8611 -4.0286,11.165 -8.249,20.2987 -9.2788,20.0813 -0.3423,-0.072 -0.5348,-0.6787 -0.4276,-1.3476 0.4789,-2.9927 -4.5711,0.2323 -8.9874,5.7395 -4.9739,6.2024 -10.1653,13.8172 -10.1754,14.9257 0,0.5703 -0.7611,1.5844 -1.6796,2.2535 l -1.6702,1.2166 2.759,1.3383 c 4.3915,2.1301 5.7941,3.035 6.9987,4.515 0.6207,0.7626 1.7186,1.6835 2.4397,2.0464 2.072,1.0426 1.9578,2.037 -0.2747,2.3922 -1.4685,0.2337 -2.2598,0.034 -2.7926,-0.7032 -3.7925,-5.2504 -5.2546,-6.4418 -9.4168,-7.6728 -1.9407,-0.574 -5.1652,-1.5306 -7.1656,-2.1258 -2.9679,-0.8831 -4.0062,-0.9486 -5.6441,-0.3564 -1.1039,0.3992 -2.6006,0.7258 -3.3262,0.7258 -2.661,0 -2.3321,1.7955 1.1397,6.2222 2.329,2.9697 4.4512,8.1966 4.2044,10.3551 -0.1118,0.978 -0.3765,1.4982 -0.5883,1.1559 z m -25.937,-12.4217 c -1.3774,-1.4526 -1.3938,-1.5878 -0.4215,-3.4681 0.8843,-1.7098 0.8986,-2.0867 0.1139,-2.9888 -0.7507,-0.8631 -0.821,-2.9195 -0.4287,-12.5434 0.5445,-13.3597 1.5879,-18.8187 4.7976,-25.0989 2.6247,-5.1359 3.6687,-4.2642 1.145,0.956 -0.877,1.8142 -1.892,5.1186 -2.2554,7.343 -0.3634,2.2245 -0.9491,5.4444 -1.3016,7.1556 -0.441,2.141 -0.4386,4.9082 0.011,8.8748 0.5231,4.649 0.4785,6.2457 -0.2305,8.2554 -0.9656,2.7367 -0.6823,4.3363 0.768,4.3363 0.9374,0 0.901,1.4556 -0.095,3.8094 -0.3464,0.8184 -0.1212,0.951 1.189,0.7006 l 1.6162,-0.309 -1.3304,2.255 c -0.7318,1.2403 -1.5129,2.2502 -1.7358,2.2443 -0.2228,-0.01 -1.0501,-0.6909 -1.8383,-1.5222 z" id="path4339-88-7-4-9-1-5" inkscape:connector-curvature="0" style="fill:#ff2408;fill-opacity:1"/>
<rect height="486.97104" id="rect2985-3-0-7-7-6-9-6-2-0-3-5-4-5-0-77-3-1-3-5-5-4-3-9-7-0" inkscape:export-filename="/home/thomas/Documents/fallacies/png/rect2985-3-0-7-7.png" inkscape:export-xdpi="90" inkscape:export-ydpi="90" rx="9.2935619" ry="7.1613393" style="fill:#ffffff;fill-opacity:1;stroke:#ff2408;stroke-width:12;stroke-miterlimit:4;stroke-dasharray:none;stroke-dashoffset:0;stroke-opacity:1" width="285.0025" x="27.676758" y="26.257725"/>
<path d="m 303.87114,492.75106 0,-85.00001 c -13.2539,39.47621 -29.5078,65.45241 -71.9999,85.00001 z" id="path9668-2-7-0-6-6-9" inkscape:connector-curvature="0" sodipodi:nodetypes="cccc" style="fill:#ff2408;fill-opacity:1;fill-rule:evenodd;stroke:none"/>
<path d="m 36.485,35.70585 0,85 c 11.5446,-39.4762 25.7023,-65.4525 62.71433,-85 z" id="path9668-6-9-7-9" inkscape:connector-curvature="0" sodipodi:nodetypes="cccc" style="fill:#ff2408;fill-opacity:1;fill-rule:evenodd;stroke:none"/>
<rect height="15" id="sfam_1_active" inkscape:label="#rect13148-3-0-9-3-80-7-76" style="fill:#ffffff;fill-opacity:1;stroke:none;stroke-width:5.83799982;stroke-linecap:round;stroke-linejoin:bevel;stroke-miterlimit:4;stroke-dasharray:none;stroke-dashoffset:0;stroke-opacity:1" transform="matrix(0,1,-1,0,0,0)" width="65.714287" x="424.52872" y="-35.178345"/>
<rect height="15" id="sfam_2_active" inkscape:label="#rect13148-3-0-9-3-80-7-76" style="fill:#ffffff;fill-opacity:1;stroke:none;stroke-width:5.83799982;stroke-linecap:round;stroke-linejoin:bevel;stroke-miterlimit:4;stroke-dasharray:none;stroke-dashoffset:0;stroke-opacity:1;display:none;" transform="matrix(0,1,-1,0,0,0)" width="65.714287" x="233.33081" y="-35.178345"/>
<rect height="15" id="sfam_3_active" inkscape:label="#rect13148-3-0-9-3-80-7-76" style="fill:#ffffff;fill-opacity:1;stroke:none;stroke-width:5.83799982;stroke-linecap:round;stroke-linejoin:bevel;stroke-miterlimit:4;stroke-dasharray:none;stroke-dashoffset:0;stroke-opacity:1;display:none;" transform="matrix(0,1,-1,0,0,0)" width="65.714287" x="41.829155" y="-35.178345"/>
<text id="sfam_3" inkscape:label="#text4212-1-29-1-2-8-9-0-9-6-9-8-3-1-0-6-8-0-4-2-3-6-9-3-6-2" style="font-style:normal;font-variant:normal;font-weight:bold;font-stretch:normal;line-height:0%;font-family:stix;-inkscape-font-specification:'stix, bold';text-align:end;letter-spacing:0px;word-spacing:0px;writing-mode:lr-tb;text-anchor:end;fill:#FFFFFF;fill-opacity:1;stroke:none" transform="rotate(-90)" x="-45.469135" xml:space="preserve" y="30.592529"><tspan id="tspan4214-27-1-2-9-7-6-4-1-1-1-3-9-59-96-1-6-2-1-8-8-2-7-4-5-4" sodipodi:role="line" style="font-style:normal;font-variant:normal;font-weight:bold;font-stretch:normal;line-height:0%;font-family:stix;-inkscape-font-specification:'stix, bold';text-align:end;letter-spacing:0px;word-spacing:0px;writing-mode:lr-tb;text-anchor:end;fill:#FFFFFF;fill-opacity:1;stroke:none" x="-45.469135" y="30.592529">Ad hominem</tspan></text>
<rect height="17.763229" id="rect5818-6-6-9" style="fill:#ff2408;fill-opacity:1;stroke:none" width="278.215" x="31.070435" y="495.40732"/>
<text id="fam_num" inkscape:label="#text5665-3-4-9-4-3-3-5-7-5-8-4-6-8-6-6-3-0" style="font-style:normal;font-weight:normal;line-height:0%;font-family:sans-serif;letter-spacing:0px;word-spacing:0px;fill:#000000;fill-opacity:1;stroke:none" x="41.492676" xml:space="preserve" y="513.47742"><tspan id="tspan5667-04-4-6-18-8-8-0-0-1-5-7-0-9-2-1-9-1" sodipodi:role="line" style="font-style:normal;font-variant:normal;font-weight:bold;font-stretch:normal;font-size:17.5px;line-height:1.25;font-family:STIX;-inkscape-font-specification:'STIX Bold';fill:#ffffff" x="41.492676" y="513.47742">2</tspan></text>
<text id="sfam_2" style="font-style:normal;font-variant:normal;font-weight:bold;font-stretch:normal;line-height:0%;font-family:stix;-inkscape-font-specification:'stix, bold';text-align:center;letter-spacing:0px;word-spacing:0px;writing-mode:lr-tb;text-anchor:middle;fill:#FFFFFF;fill-opacity:1;stroke:none" transform="rotate(-90)" x="-266.51984" xml:space="preserve" y="30.597168"><tspan id="tspan4214-27-1-2-9-7-6-4-1-1-1-9-8-7-7-0-88-0-1-6-8-0" sodipodi:role="line" style="font-style:normal;font-variant:normal;font-weight:bold;font-stretch:normal;line-height:0%;font-family:stix;-inkscape-font-specification:'stix, bold';text-align:center;letter-spacing:0px;word-spacing:0px;writing-mode:lr-tb;text-anchor:middle;fill:#FFFFFF;fill-opacity:1;stroke:none" x="-266.51984" y="30.597168">Saboter
le débat</tspan></text>
<text id="sfam1" style="font-style:normal;font-variant:normal;font-weight:bold;font-stretch:normal;line-height:0%;font-family:STIX;-inkscape-font-specification:'STIX, Bold';text-align:start;letter-spacing:0px;word-spacing:0px;writing-mode:lr-tb;text-anchor:start;fill:#000000;fill-opacity:1;stroke:none" transform="rotate(-90)" x="-487.15427" xml:space="preserve" y="30.690918"><tspan id="tspan4214-27-1-2-9-7-6-4-1-1-1-85-8-3-3-2-9-0-8-7-9-6" sodipodi:role="line" style="font-style:normal;font-variant:normal;font-weight:bold;font-stretch:normal;font-size:11.25px;line-height:125%;font-family:STIX;-inkscape-font-specification:'STIX, Bold';text-align:start;writing-mode:lr-tb;text-anchor:start" x="-487.15427" y="30.690918">Refus
du débat</tspan></text>
<text id="ssfam_3" inkscape:label="#text4212-1-29-1-2-8-9-0-9-6-9-8-3-1-0-6-92-3-6-9-3-6-2-3-39" style="font-style:normal;font-variant:normal;font-weight:bold;font-stretch:normal;line-height:0%;font-family:stix;-inkscape-font-specification:'stix, bold';text-align:start;letter-spacing:0px;word-spacing:0px;writing-mode:lr-tb;text-anchor:start;fill:#FFFFFF;fill-opacity:1;stroke:none" transform="rotate(90)" x="44.917904" xml:space="preserve" y="-309.61694"><tspan id="tspan4214-27-1-2-9-7-6-4-1-1-1-3-9-59-96-1-318-6-04-1-7-5-8-9-0" sodipodi:role="line" style="font-style:normal;font-variant:normal;font-weight:bold;font-stretch:normal;line-height:0%;font-family:stix;-inkscape-font-specification:'stix, bold';text-align:start;letter-spacing:0px;word-spacing:0px;writing-mode:lr-tb;text-anchor:start;fill:#FFFFFF;fill-opacity:1;stroke:none" x="44.917904" y="-309.61694">Preuve par assertion</tspan></text>
<text id="ssfam_2" inkscape:label="#text4212-1-29-1-2-8-9-0-9-6-9-15-7-7-8-9-7-6-1-0-8" style="font-style:normal;font-variant:normal;font-weight:bold;font-stretch:normal;line-height:0%;font-family:stix;-inkscape-font-specification:'stix, bold';text-align:center;letter-spacing:0px;word-spacing:0px;writing-mode:lr-tb;text-anchor:middle;fill:#FFFFFF;fill-opacity:1;stroke:none" transform="rotate(90)" x="265.85608" xml:space="preserve" y="-309.61755"><tspan id="tspan4214-27-1-2-9-7-6-4-1-1-1-9-41-5-8-6-2-8-2-8-38" sodipodi:role="line" style="font-style:normal;font-variant:normal;font-weight:bold;font-stretch:normal;line-height:0%;font-family:stix;-inkscape-font-specification:'stix, bold';text-align:center;letter-spacing:0px;word-spacing:0px;writing-mode:lr-tb;text-anchor:middle;fill:#FFFFFF;fill-opacity:1;stroke:none" x="265.85608" y="-309.61755">Sophisme d'Explication</tspan></text>
<text id="ssfam_1" inkscape:label="#text4212-1-29-1-2-8-9-0-9-6-9-17-63-3-97-3-6-4-4-8-73" style="font-style:normal;font-variant:normal;font-weight:bold;font-stretch:normal;line-height:0%;font-family:stix;-inkscape-font-specification:'stix, bold';text-align:end;letter-spacing:0px;word-spacing:0px;writing-mode:lr-tb;text-anchor:end;fill:#FFFFFF;fill-opacity:1;stroke:none" transform="rotate(90)" x="486.90677" xml:space="preserve" y="-309.68854"><tspan id="tspan4214-27-1-2-9-7-6-4-1-1-1-85-85-5-76-3-4-8-7-5-1" sodipodi:role="line" style="font-style:normal;font-variant:normal;font-weight:bold;font-stretch:normal;line-height:0%;font-family:stix;-inkscape-font-specification:'stix, bold';text-align:end;letter-spacing:0px;word-spacing:0px;writing-mode:lr-tb;text-anchor:end;fill:#FFFFFF;fill-opacity:1;stroke:none" x="486.90677" y="-309.68854">Relativisme
abusif</tspan></text>
<ellipse cx="170.17801" cy="264.22845" id="oval" inkscape:label="#path6246-7-6-6-9-7-6-9-3-1-1-722-4-6-4-7-1-9-6-4-8-2-9-5-42-1-5-9-0-8-00" rx="88.621117" ry="143.69008" style="fill:#f49588;fill-opacity:1;stroke:none"/>
<rect height="23.57143" id="rect13148-3-36-1-5" rx="12.181818" ry="9.7777777" style="fill:#ffffff;fill-opacity:1;stroke:none" width="143.57144" x="98.392288" y="18.257725"/>
<text id="text" inkscape:label="#text5516-78-3-4-89-9-1-3-6-2-4-3-9-5-3-7-7-2-6-1-6-5-0" style="font-style:normal;font-variant:normal;font-weight:bold;font-stretch:normal;line-height:0%;font-family:stix;-inkscape-font-specification:'stix bold';text-align:center;letter-spacing:0px;word-spacing:0px;text-anchor:middle;fill:#490f07;fill-opacity:1;stroke:none" x="169.44051" xml:space="preserve" y="39.208134"><tspan id="tspan3434" sodipodi:role="line" style="font-style:normal;font-variant:normal;font-weight:bold;font-stretch:normal;font-size:25px;line-height:100%;font-family:stix;-inkscape-font-specification:'stix bold';text-align:center;text-anchor:middle;fill:#490f07;fill-opacity:1" x="169.44051" y="39.208134">Refus</tspan><tspan id="tspan5046" sodipodi:role="line" style="font-style:normal;font-variant:normal;font-weight:bold;font-stretch:normal;font-size:25px;line-height:100%;font-family:stix;-inkscape-font-specification:'stix bold';text-align:center;text-anchor:middle;fill:#490f07;fill-opacity:1" x="169.44051" y="64.20813">du débat</tspan></text>
<rect height="26.428572" id="rect13148-3-3-2-4-1" rx="8.4705887" ry="15" style="fill:#ffffff;fill-opacity:1;stroke:none" width="68.571434" x="135.89229" y="494.24301"/>
<text id="fam_text" style="font-style:normal;font-variant:normal;font-weight:bold;font-stretch:normal;line-height:0%;font-family:stix;-inkscape-font-specification:'stix, bold';text-align:center;letter-spacing:0px;word-spacing:0px;writing-mode:lr-tb;text-anchor:middle;fill:#1b0603;fill-opacity:1;stroke:none" x="169.58539" xml:space="preserve" y="513.11243"><tspan id="tspan4214-27-1-2-9-7-6-4-1-5-2-3-65-0-7-6-31-5-8-5-4-6-0-1-0" sodipodi:role="line" style="font-style:normal;font-variant:normal;font-weight:bold;font-stretch:normal;font-size:15px;line-height:1.25;font-family:stix;-inkscape-font-specification:'stix, bold';text-align:center;writing-mode:lr-tb;text-anchor:middle;fill:#1b0603;fill-opacity:1" x="169.58539" y="513.11243">Obstruction</tspan></text>
<flowRoot id="desc" inkscape:label="#flowRoot5388-1-9-2-7-9-4-63-8-65-6-8-7-2-3-5-4-9-17" style="font-style:normal;font-variant:normal;font-weight:bold;font-stretch:normal;line-height:0.01%;font-family:stix;-inkscape-font-specification:'stix bold';text-align:center;letter-spacing:0px;word-spacing:0px;text-anchor:middle;fill:#1b0603;fill-opacity:1;stroke:none" transform="translate(160.86602,944.80751)" xml:space="preserve"><flowRegion id="flowRegion5390-2-2-5-6-3-9-94-3-6-8-8-5-1-8-5-4-6-9"><rect height="77.283951" id="rect5392-7-0-4-8-6-2-8-5-84-3-3-4-2-2-3-3-0-1" style="font-style:normal;font-variant:normal;font-weight:bold;font-stretch:normal;font-size:15px;line-height:100%;font-family:stix;-inkscape-font-specification:'stix bold';text-align:center;text-anchor:middle;fill:#ff2408;fill-opacity:1" width="264.06375" x="-123.22692" y="-557.27393"/></flowRegion><flowPara id="flowPara3438" style="font-style:normal;font-variant:normal;font-weight:bold;font-stretch:normal;font-size:15px;line-height:100%;font-family:stix;-inkscape-font-specification:'stix bold';text-align:center;text-anchor:middle;fill:#1b0603;fill-opacity:1">Vous vous soustrayez à la discussion pour empêcher toute forme d'argumentation.</flowPara></flowRoot> <flowRoot id="example" inkscape:label="#flowRoot5388-1-9-2-7-9-4-63-8-92-2-3-8-9-5-4-5-19-0-3" style="font-style:normal;font-variant:normal;font-weight:bold;font-stretch:normal;line-height:0.01%;font-family:stix;-inkscape-font-specification:'stix bold';text-align:center;letter-spacing:0px;word-spacing:0px;text-anchor:middle;fill:#1b0603;fill-opacity:1;stroke:none" transform="translate(159.42947,1031.7463)" xml:space="preserve"><flowRegion id="flowRegion5390-2-2-5-6-3-9-94-3-17-8-6-9-1-6-0-9-6-1-59"><rect height="40.141094" id="rect5392-7-0-4-8-6-2-8-5-7-1-2-6-5-5-9-91-21-0-4" style="font-style:normal;font-variant:normal;font-weight:bold;font-stretch:normal;font-size:15px;line-height:100%;font-family:stix;-inkscape-font-specification:'stix bold';text-align:center;text-anchor:middle;fill:#ff2408;fill-opacity:1;stroke-width:0.57764798" width="267.68024" x="-123.22692" y="-585.78955"/></flowRegion><flowPara id="flowPara5394-0-2-4-9-0-06-12-6-9-2-2-4-4-0-4-4-2-1-8" style="font-style:italic;font-variant:normal;font-weight:bold;font-stretch:normal;font-size:12.5px;line-height:100%;font-family:stix;-inkscape-font-specification:'stix bold italic';text-align:center;text-anchor:middle;fill:#1b0603;fill-opacity:1">Mes positions sont claires, connues de tous, et elles ne changeront pas.</flowPara></flowRoot> <g id="illustration" inkscape:groupmode="layer" inkscape:label="#illustration" transform="translate(-5.468633,-71.03971)"><g id="893" inkscape:label="#g9176" transform="translate(-1364.2357,601.64034)">
<path d="m 1535.7143,-373.35208 c 15.1498,-10.59914 47.7378,-8.42493 49.5817,13.64684 0.1769,21.3678 -18.8577,39.16809 -20.7575,58.29922 18.2987,-1.17532 35.8911,17.21935 53.6529,8.54048 9.9597,-24.60331 -40.045,-31.54928 -35.6669,-37.78251 10.7293,-1.58773 8.7544,-24.43143 26.5077,-15.28197 21.5512,10.14063 34.1835,34.5838 36.6529,57.46448 0.7249,22.60654 -23.7382,29.29532 -41.8987,29.52944 -29.8242,3.31186 -56.6737,27.53516 -61.5699,57.29239 -10.3622,8.67856 6.2283,27.74902 -13.7249,24.85549 -22.0479,4.5869 -53.5913,20.15477 -71.7787,2.09732 -5.0187,-19.46199 -17.6518,-36.17518 -15.6503,-57.11081 -2.9209,-19.18384 14.7733,-44.28207 -10.3447,-54.27944 -12.9788,-12.9927 -33.6671,-18.59692 -41.7159,-36.06567 1.4624,-21.22853 36.2233,-22.32314 47.035,-40.61712 17.6439,-23.01375 43.8634,1.30284 63.2128,-13.85075 19.9495,0.34764 12.7,34.53582 27.3167,31.68299 -21.9673,1.91234 -50.4999,-17.94965 -67.3984,3.61189 -8.1183,5.42093 -27.5471,19.95676 -8.9056,17.26728 13.8489,6.99854 40.1979,5.89921 57.296,-1.24347 13.3398,-4.21731 25.7675,-18.64949 19.2148,-32.09279 2.3895,-5.66056 8.1534,-9.557 8.941,-15.96329 z" id="path9171" inkscape:connector-curvature="0" style="fill:#ffffff;fill-opacity:1;fill-rule:evenodd;stroke:none;stroke-width:1px;stroke-linecap:butt;stroke-linejoin:miter;stroke-opacity:1"/>
<path d="m 1458.9778,-170.44069 c -0.3343,-0.6547 -0.6079,-1.8879 -0.6079,-2.7404 0,-0.8524 -0.2432,-2.1861 -0.5406,-2.9635 -0.2973,-0.7776 -1.7733,-5.5675 -3.2799,-10.6446 -2.6297,-8.8613 -4.3902,-14.0544 -7.9276,-23.385 -0.8983,-2.3693 -1.8164,-5.277 -2.0403,-6.4616 -0.2238,-1.1847 -0.9351,-3.9539 -1.5805,-6.154 -1.6852,-5.7445 -2.4298,-13.5336 -2.4709,-25.8466 -0.046,-13.745 0.6919,-20.7746 2.3299,-22.1992 1.3796,-1.1998 2.1833,2.1041 1.4196,5.8357 -1.2749,6.2301 -0.6359,25.1508 1.1718,34.6926 0.8747,4.6168 6.5016,22.1843 8.8643,27.6748 2.1176,4.9208 5.2687,15.2241 5.5042,17.9972 0.1293,1.5232 0.7809,4.5362 1.4479,6.6957 0.667,2.1595 1.2127,4.4624 1.2127,5.1175 0,1.7055 -1.0738,3.5717 -2.0553,3.5717 -0.4617,0 -1.113,-0.5357 -1.4474,-1.1903 z m 83.0018,-8.6492 c -2.5033,-2.6974 -5.485,-8.2277 -5.4782,-10.1609 0,-0.6769 2.1081,-3.8615 4.6795,-7.077 2.5714,-3.2154 4.6778,-6.054 4.6809,-6.3078 0,-0.2538 -0.3522,-0.4615 -0.7895,-0.4615 -1.061,0 -3.9028,-2.802 -3.9028,-3.848 0,-0.4563 3.8533,-4.8312 8.563,-9.7218 4.7096,-4.8907 9.6987,-10.4153 11.0868,-12.2769 1.3881,-1.8615 3.4922,-4.4558 4.6756,-5.7649 2.1692,-2.3996 2.4326,-3.6265 0.8477,-3.9489 -0.5092,-0.1036 -2.0267,1.612 -3.7115,4.1961 -2.7572,4.2289 -9.9682,11.6614 -15.7631,16.2473 -1.5491,1.2259 -5.9093,3.767 -9.6894,5.647 -13.4677,6.6978 -16.8711,8.3667 -18.0302,8.8416 -4.7228,1.9347 -6.1833,2.4922 -8.5149,3.2496 -3.4909,1.1341 -5.2851,3.8266 -5.2851,7.9316 0,3.0241 -0.3864,3.5657 -1.6209,2.272 -0.5169,-0.5417 -0.6515,-0.2818 -0.5578,1.0769 0.1833,2.6596 -1.4084,2.2783 -2.7995,-0.6706 -0.7936,-1.6822 -1.1655,-3.7399 -1.1745,-6.4986 -0.012,-3.7076 0.1784,-4.3319 2.3357,-7.6528 1.2919,-1.9888 5.2557,-6.7676 8.8085,-10.6196 3.5527,-3.852 6.4497,-7.193 6.4377,-7.4243 -0.029,-0.5602 -1.7332,-3.5659 -5.0649,-8.9334 -2.6051,-4.197 -10.4824,-12.6656 -18.6111,-20.0082 -2.003,-1.8094 -4.1992,-4.4402 -4.8803,-5.8462 -0.6812,-1.4062 -1.6843,-3.1553 -2.2291,-3.8869 -1.7778,-2.3872 -5.8025,-13.9318 -6.7401,-19.3334 -0.504,-2.9033 -0.9163,-8.0619 -0.9163,-11.4633 0,-8.3949 0.5486,-8.8145 6.5245,-4.9907 4.0457,2.5887 4.2661,2.4482 5.1242,-3.2666 0.8187,-5.4526 1.9158,-8.8309 4.0185,-12.3736 0.7494,-1.2626 1.3625,-2.4395 1.3625,-2.6155 0,-0.1759 -1.6019,-0.3199 -3.5599,-0.3199 -3.3531,0 -8.3132,-1.1773 -10.7376,-2.5486 -1.5745,-0.8906 -1.8075,-0.2806 -1.0253,2.6848 1.1533,4.3726 0.073,10.7453 -2.6638,15.7102 -2.7905,5.0629 -3.9227,2.6364 -1.7213,-3.6891 2.009,-5.7725 2.3254,-12.845 0.6886,-15.3953 -1.6058,-2.5023 -3.3824,-2.7039 -7.3564,-0.835 -4.3149,2.0293 -5.538,2.023 -6.9693,-0.036 -1.127,-1.6213 -1.1769,-1.6317 -3.1407,-0.6551 -1.0976,0.5458 -2.6969,1.2718 -3.554,1.6133 -0.8571,0.3414 -1.9137,1.3978 -2.348,2.3474 -0.4732,1.0347 -1.2571,1.7266 -1.9562,1.7266 -1.0572,0 -1.1743,-0.4503 -1.2493,-4.8048 -0.046,-2.6426 -0.218,-4.9465 -0.3833,-5.1197 -0.1652,-0.1731 -1.5008,0.2582 -2.9679,0.9586 -1.4671,0.7004 -3.3109,1.2735 -4.0973,1.2735 -1.0479,0 -2.0884,0.9144 -3.8966,3.4241 -3.438,4.772 -11.5394,9.9846 -13.0529,8.3986 -1.0827,-1.1347 -0.1233,-2.3274 3.2732,-4.0689 4.9309,-2.5281 9.2193,-8.5474 7.7939,-10.9394 -0.5736,-0.9624 -0.4057,-1.3716 1.0823,-2.6384 0.9687,-0.8246 2.554,-1.8463 3.5229,-2.2704 0.9689,-0.4241 2.8106,-1.5596 4.0927,-2.5233 1.282,-0.9636 3.396,-2.2872 4.6978,-2.9412 1.3018,-0.654 5.1059,-2.994 8.4535,-5.1999 3.3476,-2.206 6.2848,-4.0108 6.5271,-4.0108 1.2279,0 3.4099,-2.645 3.6936,-4.4773 0.8103,-5.2328 -2.9009,-13.7683 -8.2562,-18.9889 -1.5213,-1.483 -3.5843,-3.7976 -4.5845,-5.1435 l -1.8185,-2.4471 -5.4581,5.071 c -3.002,2.7891 -8.033,7.0109 -11.18,9.3818 -5.4222,4.0851 -13.5485,8.6038 -15.4729,8.6038 -0.4865,0 -1.0299,0.2463 -1.2074,0.5473 -0.1775,0.3009 -1.0076,0.7273 -1.8448,0.9475 -2.3668,0.6226 -10.1524,5.7409 -14.0506,9.2371 -1.9379,1.738 -5.3732,4.6524 -7.634,6.4763 -9.4094,7.5911 -9.8244,8.8816 -4.9557,15.4078 0.8838,1.1846 1.7984,2.826 2.0326,3.6475 0.2341,0.8215 1.3785,2.5728 2.5429,3.8917 4.2514,4.8152 9.6265,8.9967 31.5034,24.5074 3.8757,2.7479 7.5753,5.4997 8.2213,6.1152 0.6459,0.6155 3.0242,2.3823 5.285,3.926 3.0595,2.0891 5.0463,4.1089 7.7693,7.8984 3.8533,5.3627 4.4489,7.3874 2.4951,8.4831 -1.3296,0.7457 -2.3367,0.3477 -2.3367,-0.9235 0,-2.8107 -5.8298,-9.5478 -11.9871,-13.8527 -5.9315,-4.1472 -9.0155,-6.4452 -18.1048,-13.4903 -4.5507,-3.5273 -9.2424,-6.9889 -10.426,-7.6925 -6.9449,-4.1283 -16.3587,-13.5306 -18.6787,-18.656 -0.883,-1.9506 -2.4589,-4.8427 -3.5021,-6.4268 -3.4076,-5.1743 -2.7518,-6.5641 6.3813,-13.5239 2.0681,-1.5759 5.7706,-4.8167 8.2278,-7.2017 2.4572,-2.385 5.7604,-5.0829 7.3404,-5.9954 5.1913,-2.9979 11.0486,-6.0817 13.7365,-7.2321 4.5126,-1.9313 9.0258,-4.2536 10.8532,-5.5845 3.8569,-2.8088 10.2038,-8.2156 13.9094,-11.8489 2.1537,-2.1117 4.579,-4.0139 5.3895,-4.2271 1.9455,-0.5117 3.7678,0.1395 4.1777,1.4928 0.1817,0.6001 1.0958,1.8595 2.0312,2.7987 l 1.7009,1.7077 3.0681,-1.6149 c 3.3618,-1.7696 4.2441,-1.6913 7.6628,0.6796 3.0407,2.1088 6.1382,1.4955 9.8078,-1.942 3.9551,-3.7049 5.1107,-3.8329 14.2161,-1.5746 1.4534,0.3604 5.0454,0.8989 7.9823,1.1965 2.9368,0.2976 5.9757,0.9167 6.7531,1.3758 3.1446,1.8572 3.2865,2.1658 3.3805,7.3494 0.049,2.7248 0.3538,5.471 0.6763,6.1026 1.0735,2.102 0.6873,4.7491 -0.8817,6.0424 -0.8074,0.6656 -1.468,1.3457 -1.468,1.5112 0,0.1656 2.0479,0.7988 4.551,1.407 2.5031,0.6082 5.5581,1.6466 6.789,2.3075 1.7868,0.9594 2.5203,1.0667 3.6391,0.5325 1.2015,-0.5737 1.4558,-0.4888 1.7842,0.5957 0.6521,2.153 -0.4677,2.5361 -4.2061,1.4389 -1.9003,-0.5578 -5.0099,-1.421 -6.9102,-1.9182 -3.6354,-0.9513 -8.8194,-3.4407 -9.473,-4.5491 -0.2122,-0.3597 -0.05,-1.0784 0.3611,-1.5971 0.6085,-0.7684 0.5937,-1.0422 -0.08,-1.4784 -0.6747,-0.437 -0.6265,-0.6159 0.2623,-0.9733 0.599,-0.2409 1.5825,-0.115 2.1857,0.2798 0.958,0.627 1.0967,0.5282 1.0967,-0.7809 0,-1.0665 -0.5341,-1.7779 -1.8519,-2.4668 -2.2645,-1.1839 -3.2161,-1.2539 -2.3607,-0.1738 0.4613,0.5824 0.2804,1.4444 -0.6779,3.2308 -1.7673,3.2946 -2.9805,7.3632 -2.5479,8.5447 0.2297,0.6274 1.0826,0.9688 2.42,0.9688 1.9703,0 3.7945,0.3542 9.7162,1.8865 9.5652,2.4751 11.3526,2.3242 12.7069,-1.0727 1.1266,-2.8257 0.6132,-4.9923 -1.3704,-5.7826 -1.5807,-0.6298 -1.6676,-0.5766 -3.0954,1.8918 -0.4296,0.7428 -0.6799,0.7717 -1.2809,0.1478 -0.6043,-0.6271 -0.5697,-1.0975 0.1812,-2.4615 0.5105,-0.9275 1.1095,-2.7416 1.331,-4.0313 0.2214,-1.2898 1.4816,-4.7134 2.8003,-7.608 2.5748,-5.6518 7.977,-12.4166 11.0561,-13.8449 1.397,-0.6481 1.639,-1.0573 1.3468,-2.2777 -0.3248,-1.3558 -0.2187,-1.4515 1.1968,-1.0792 1.1566,0.3042 1.553,0.1754 1.553,-0.5047 0,-0.5022 0.5285,-1.2095 1.1745,-1.5718 0.6459,-0.3623 1.1744,-1.0644 1.1744,-1.5602 0,-1.517 2.8718,-1.1074 3.575,0.5098 0.579,1.3318 0.9668,1.4177 6.8873,1.5249 7.6605,0.1388 11.9657,1.1689 16.3107,3.9028 3.7343,2.3495 8.8627,7.9465 11.496,12.5461 0.9689,1.6924 2.773,3.8389 4.0091,4.77 2.2259,1.6768 4.7004,5.957 4.7004,8.1305 0,2.2672 -2.5175,8.2777 -4.2409,10.125 -0.9739,1.0439 -2.3472,1.898 -3.0517,1.898 -1.7312,0 -2.6903,1.1305 -2.6903,3.1711 0,0.9317 -0.3153,2.4193 -0.7006,3.3056 -0.5714,1.3142 -0.5443,1.7152 0.1468,2.1734 1.4517,0.9626 2.3155,0.6393 2.3155,-0.8667 0,-0.7961 0.6572,-2.3884 1.4605,-3.5385 0.8032,-1.1501 1.7421,-2.8169 2.0863,-3.704 0.3442,-0.8871 1.5133,-2.1138 2.5978,-2.7258 1.3023,-0.735 2.0849,-1.7047 2.3045,-2.8555 0.5005,-2.6225 2.327,-3.2085 6.4729,-2.0768 3.4146,0.932 5.952,2.2888 7.0992,3.7962 0.3229,0.4243 2.1988,1.3164 4.1686,1.9824 5.0024,1.6911 6.5911,2.6547 9.7192,5.895 1.9858,2.0569 3.1963,2.8283 4.4388,2.8283 0.9396,0 2.2213,0.4066 2.8482,0.9035 1.6587,1.3148 2.4689,1.1615 5.01,-0.9476 3.0044,-2.4936 4.7927,-2.2703 5.283,0.6595 0.1983,1.1846 0.903,3.677 1.5661,5.5386 0.6631,1.8615 2.3073,6.5693 3.6538,10.4617 2.5117,7.2608 3.3961,9.5642 5.3165,13.8463 1.239,2.7628 2.3617,6.5675 3.8139,12.9234 0.5412,2.3692 1.2348,4.6293 1.5412,5.0222 0.3557,0.4563 0.3345,0.8585 -0.059,1.1133 -0.3641,0.2358 -0.6167,2.962 -0.618,6.6702 0,6.687 -1.1578,15.6452 -2.3753,18.4168 -1.2078,2.7497 -5.3927,4.0038 -13.7713,4.1271 -13.0119,0.1915 -30.731,2.0631 -34.9403,3.6906 -0.8074,0.3122 -4.2427,0.882 -7.6339,1.2661 -9.096,1.0303 -9.7944,1.1762 -10.6203,2.2191 -0.6201,0.7831 -0.6044,1.0525 0.088,1.506 0.5786,0.379 0.9027,0.2677 1.033,-0.3546 0.1044,-0.4988 0.6329,-0.9043 1.1744,-0.9011 1.1547,0.01 6.8785,3.3428 7.4772,4.358 0.6558,1.112 -0.9098,1.7061 -2.901,1.1008 -3.2837,-0.998 -8.3791,0.022 -11.5582,2.3137 -1.5778,1.1374 -3.2263,2.0681 -3.6631,2.0681 -1.7183,0 -6.3554,3.963 -9.5713,8.1799 -1.8605,2.4396 -7.0944,8.4067 -11.631,13.2602 l -8.2483,8.8246 1.9009,1.6371 c 1.0455,0.9005 1.8985,2.1307 1.8955,2.7339 -0.011,2.1903 -1.6855,5.1336 -4.9792,8.7496 -5.7865,6.3529 -5.7088,5.8285 -1.553,10.4842 3.5866,4.018 4.3496,6.0132 2.8861,7.5469 -1.0339,1.0835 -1.2729,0.9748 -3.7703,-1.7162 z m -38.6995,-17.3886 c 0.2365,-1.5192 1.0758,-3.0344 2.4628,-4.4461 2.0306,-2.0667 12.9289,-8.0084 22.8011,-12.4311 14.0495,-6.2942 18.7081,-9.2251 26.5864,-16.7268 5.2851,-5.0324 7.6797,-8.7045 12.5002,-19.1692 1.6371,-3.554 3.2134,-6.9254 3.503,-7.4921 0.2895,-0.5668 0.8225,-2.9206 1.1843,-5.2309 0.3619,-2.3103 1.0024,-5.7235 1.4234,-7.5851 0.421,-1.8616 1.1021,-5.4617 1.5135,-8.0002 0.8174,-5.0434 1.4342,-6.7693 2.4192,-6.7693 1.1642,0 -0.01,10.905 -2.11,19.6277 -0.5216,2.1644 -0.8497,4.0386 -0.7291,4.1649 0.1205,0.1263 1.3816,-0.323 2.8023,-0.9986 1.4207,-0.6755 3.3453,-1.2342 4.2768,-1.2417 0.9314,-0.01 2.7151,-0.2904 3.9638,-0.6288 1.2486,-0.3385 3.3283,-0.9039 4.6215,-1.2563 1.3612,-0.371 2.7399,-1.2624 3.2741,-2.1168 0.9679,-1.5481 2.5958,-1.4863 2.5958,0.098 0,1.3073 -2.7175,6.0774 -5.9759,10.4897 l -2.8287,3.8304 1.9066,-0.3495 c 1.0486,-0.1922 4.8134,-1.2609 8.3661,-2.375 8.4409,-2.6467 10.9617,-3.2515 15.5616,-3.734 3.8427,-0.4029 19.108,-1.3949 26.6938,-1.7346 3.7449,-0.1677 4.205,-0.3384 5.5183,-2.0478 3.2068,-4.1741 5.0047,-18.674 3.3615,-27.1105 -0.8437,-4.3319 -3.5269,-12.4233 -5.4833,-16.5352 -1.2442,-2.6154 -3.3955,-9.0405 -5.4363,-16.2369 -0.7199,-2.5385 -1.445,-5.0308 -1.6113,-5.5385 -0.5465,-1.6685 -1.1938,1.9035 -1.2824,7.077 -0.1797,10.4941 -4.275,15.7167 -12.4751,15.909 -2.9316,0.069 -3.2444,0.1921 -2.5557,1.0079 1.4129,1.6737 3.3497,6.6616 3.1527,8.1189 -0.1748,1.2921 -0.4689,1.4158 -3.1291,1.3154 l -2.9361,-0.1107 3.0568,2.9336 c 1.6813,1.6135 5.9437,5.0809 9.4719,7.7053 3.5283,2.6246 6.7462,5.4203 7.151,6.2128 0.8499,1.6643 0.4239,3.3702 -0.8418,3.3702 -1.6765,0 -8.5314,-5.6271 -12.4634,-10.2312 -3.4049,-3.9868 -4.0635,-4.5066 -4.6482,-3.6685 -0.5139,0.7364 -1.7294,0.9763 -4.9459,0.9763 -3.7762,0 -4.1785,0.1088 -3.5128,0.9493 1.1186,1.4124 0.026,2.1049 -2.7101,1.7176 -1.8965,-0.2685 -3.3531,-1.2231 -6.9889,-4.58 -2.5262,-2.3324 -4.8989,-4.2408 -5.2728,-4.2408 -0.3738,0 -1.1926,0.4066 -1.8196,0.9035 -1.9889,1.5765 -3.8277,1.0385 -9.4156,-2.755 -4.9559,-3.3645 -5.5825,-3.6328 -6.9536,-2.9782 -1.904,0.9092 -1.8858,1.1766 0.1788,2.626 2.0736,1.4558 5.5888,7.4639 5.1184,8.7485 -0.563,1.5377 -1.7173,0.6531 -3.2916,-2.5225 -1.9623,-3.9584 -3.4945,-4.9999 -9.091,-6.1798 -4.8559,-1.0237 -7.9289,-2.462 -8.3958,-3.9296 -0.3127,-0.9833 1.0648,-0.7947 6.7554,0.9249 l 3.6447,1.1015 2.5212,-1.8871 c 4.217,-3.1562 4.6397,-3.1396 9.9439,0.3895 5.3007,3.5268 7.3267,4.1915 8.9445,2.9345 0.9478,-0.7364 1.5518,-0.6973 4.3905,0.2841 1.8103,0.6259 4.0904,1.929 5.0668,2.8958 2.8839,2.8553 4.0507,3.2174 9.7564,3.0275 l 5.2952,-0.1763 -1.7393,-1.5498 c -1.9079,-1.7 -3.8454,-5.2671 -3.333,-6.136 0.1785,-0.3025 1.1801,-0.7304 2.2261,-0.951 3.1284,-0.6596 3.9571,-0.9803 3.9571,-1.5311 0,-0.288 -1.194,-1.9896 -2.6534,-3.7813 -1.4594,-1.7917 -2.916,-4.2797 -3.2369,-5.5288 -1.0109,-3.9341 0.9945,-7.0195 2.9542,-4.5451 2.0072,2.5346 6.7231,-0.8951 9.6997,-7.0542 0.9924,-2.0533 0.9895,-2.1545 -0.077,-2.7693 -0.6091,-0.351 -2.4948,-2.0499 -4.1904,-3.7753 -2.1462,-2.184 -3.083,-3.6188 -3.083,-4.7221 0,-2.4004 -2.4932,-5.017 -7.1351,-7.4883 -2.301,-1.225 -4.2142,-2.1499 -4.2517,-2.0554 -0.038,0.095 -0.6618,1.0607 -1.3874,2.147 -0.7256,1.0863 -1.3193,2.5189 -1.3193,3.1836 0,0.6647 -0.6606,2.0313 -1.468,3.0369 -1.4258,1.7757 -1.8782,4.4303 -1.1117,6.5235 0.5223,1.4264 1.5419,1.1944 3.183,-0.724 1.9116,-2.2346 4.3522,-3.8411 5.8356,-3.8411 1.8452,0 1.4158,1.6982 -0.7133,2.8213 -1.0497,0.5537 -2.9085,2.0108 -4.1306,3.2381 -2.1404,2.1494 -2.2802,2.1972 -3.8026,1.3017 -1.6146,-0.9497 -2.5664,-2.546 -3.4718,-5.8226 -0.3439,-1.2445 -0.9455,-1.9115 -1.8459,-2.0465 -1.3192,-0.1977 -1.3246,-0.1719 -0.4287,2.0752 0.499,1.2515 0.9073,3.7746 0.9073,5.6069 v 3.3314 l 2.7893,1.2333 c 1.5341,0.6783 3.8301,1.7375 5.1022,2.3537 2.2539,1.0919 2.3812,1.0895 4.9915,-0.093 1.4732,-0.6675 3.6901,-2.4288 4.9264,-3.9141 3.4688,-4.1672 5.2409,-3.538 2.456,0.8721 -1.4646,2.3194 -8.5418,6.8892 -10.669,6.8892 -0.5381,0 -2.0586,-0.6614 -3.3789,-1.4698 -1.3203,-0.8084 -4.1182,-2.2258 -6.2175,-3.1497 -4.7722,-2.1002 -19.946,-7.6884 -20.8766,-7.6884 -0.3803,0 -0.8579,1.2739 -1.0616,2.8307 -0.5504,4.2086 -3.3016,9.0586 -9.0421,15.9398 -2.8239,3.3852 -6.1637,7.5864 -7.4216,9.3359 -3.1094,4.3244 -5.437,5.6004 -8.6011,4.7153 l -2.4037,-0.6723 0.3291,2.2333 c 0.9728,6.6023 3.3257,29.944 3.6898,36.604 0.3149,5.7596 -0.3239,7.7211 -3.2675,10.0336 -1.1771,0.9246 -2.6687,2.169 -3.3147,2.7652 -2.0422,1.8848 -6.345,5.2927 -9.6893,7.6743 -1.7764,1.2649 -5.7402,4.5243 -8.8085,7.243 -5.9506,5.2727 -22.1665,22.0125 -23.7009,24.4666 -1.0903,1.7437 -1.8996,7.9754 -1.2421,9.5645 0.5024,1.2144 0.4735,1.2907 1.1471,-3.0362 z m 54.9838,-83.1537 c -0.7801,-0.985 -0.071,-1.7957 2.4503,-2.8001 1.9716,-0.7855 1.9943,-1.7289 0.1342,-5.5756 -1.5809,-3.2693 -2.1208,-6.3357 -1.1811,-6.7082 0.323,-0.1281 1.7045,2.1566 3.07,5.0769 1.3656,2.9205 2.6243,5.3099 2.7973,5.3099 0.173,0 0.7734,-0.2536 1.3343,-0.5637 0.5608,-0.31 1.9445,-0.9754 3.0749,-1.4786 1.1304,-0.5033 3.3267,-1.5342 4.8806,-2.2911 3.2532,-1.5845 4.588,-1.056 3.5199,1.3935 -0.5898,1.3524 -7.4384,4.6026 -15.7408,7.4704 -3.5367,1.2216 -3.5051,1.2204 -4.3396,0.1666 z m -30.7375,48.2713 c 1.3781,-1.1058 2.7298,-2.4682 3.0036,-3.0275 0.6611,-1.35 -0.1854,-9.0812 -2.0317,-18.5557 -2.1644,-11.1073 -6.406,-23.8045 -12.0262,-36.0007 -6.9913,-15.1716 -7.5606,-31.6383 -1.3869,-40.1206 2.8408,-3.9031 0.4456,-1.9855 -5.6506,4.5239 -3.8482,4.1091 -7.0825,6.9964 -8.6615,7.7324 -2.1856,1.0189 -2.7591,1.7204 -4.3229,5.2886 -2.6944,6.1476 -2.9175,6.8232 -3.7967,11.4986 -1.4668,7.8007 -1.5004,7.7345 5.9155,11.6787 1.9235,1.023 3.5862,2.1721 3.6951,2.5534 0.3167,1.1102 -1.6056,1.5383 -3.1226,0.6955 -3.0035,-1.6687 -12.4232,-7.5399 -14.7866,-9.2163 -1.3726,-0.9737 -2.5182,-1.5493 -2.5458,-1.2793 -0.1663,1.6318 0.2229,7.6329 0.6673,10.2898 1.3348,7.9789 2.4406,11.7208 5.3049,17.951 4.2676,9.2825 6.71,12.8012 13.6341,19.6423 8.1192,8.0218 13.6346,14.6974 15.502,18.763 2.4676,5.3723 2.3717,5.3317 5.4104,2.2895 1.4811,-1.4827 3.8204,-3.6007 5.1986,-4.7066 z m 12.3222,-9.9559 c 7.6043,-6.0091 8.9549,-7.2743 8.9549,-8.3882 0,-0.9531 -4.0351,1.8624 -7.5648,5.2786 -1.1685,1.1308 -3.2436,2.8721 -4.6114,3.8694 -2.173,1.5844 -4.3026,4.2285 -3.4057,4.2285 0.173,0 3.1552,-2.2447 6.627,-4.9883 z m 33.7272,0.1302 c 0.7478,-0.3027 1.9945,-1.1335 2.7706,-1.8462 0.7761,-0.7127 1.7891,-1.2958 2.2511,-1.2958 1.5129,0 0.4227,-1.4378 -1.6424,-2.1659 -3.0231,-1.0661 -2.8805,-2.488 0.5662,-5.6478 4.6028,-4.2195 3.9457,-4.7163 -2.4744,-1.8706 -2.5506,1.1306 -3.0239,1.6758 -4.881,5.622 -1.131,2.4035 -2.3044,4.6331 -2.6073,4.9546 -0.303,0.3215 -0.5509,1.0831 -0.5509,1.6923 0,0.9002 0.4879,1.1078 2.6043,1.1078 1.4324,0 3.2161,-0.2477 3.9638,-0.5504 z m -36.0373,-4.2083 c 4.7636,-3.7036 11.265,-10.2422 11.265,-11.3293 0,-0.6287 -0.1982,-1.1379 -0.4404,-1.1315 -0.2422,0.01 -2.5545,2.2518 -5.1383,4.9898 -2.5838,2.738 -5.5567,5.6734 -6.6063,6.5231 -1.7173,1.3901 -2.4601,2.6296 -1.5757,2.6296 0.183,0 1.3061,-0.7568 2.4957,-1.6817 z m -3.0762,-6.1646 c 1.4823,-3.3875 1.5176,-3.7101 0.8281,-7.5577 -0.8512,-4.7498 -1.0624,-15.9684 -0.36,-19.1275 0.4368,-1.9648 0.2957,-2.4562 -1.2136,-4.2265 l -1.708,-2.0032 -1.695,4.2265 c -0.9322,2.3246 -2.0421,4.4479 -2.4664,4.7185 -1.0068,0.6423 -0.9795,2.9095 0.07,5.8033 1.3674,3.7703 3.2139,12.5589 3.6341,17.2973 0.215,2.4243 0.6095,4.4078 0.8766,4.4078 0.2671,0 1.1825,-1.5923 2.0341,-3.5385 z m 48.0832,-2.4616 c 2.23,-2.5137 2.8387,-4.1409 0.8413,-2.2493 -1.4387,1.3625 -3.6919,4.5571 -3.2143,4.5571 0.1791,0 1.247,-1.0386 2.373,-2.3078 z m 6.8996,-4.6439 c 0.9793,-1.2848 1.647,-2.4761 1.4836,-2.6473 -0.1633,-0.1712 -1.9503,1.8493 -3.9709,4.49 -2.5765,3.367 -3.0197,4.1578 -1.4837,2.6473 1.2047,-1.1846 2.9916,-3.2051 3.971,-4.49 z m -45.393,0.1612 c 3.7684,-4.4742 5.0083,-6.7483 3.6796,-6.7483 -0.7785,0 -8.3239,9.7679 -8.3239,10.7757 0,0.5043 0.108,0.9168 0.2401,0.9168 0.132,0 2.1139,-2.2249 4.4042,-4.9442 z m 36.6087,-1.6173 c -0.4037,-0.1707 -1.0643,-0.1707 -1.4681,0 -0.4037,0.1707 -0.073,0.3104 0.7341,0.3104 0.8074,0 1.1377,-0.1397 0.734,-0.3104 z m -37.7809,-4.5875 c 1.7481,-1.994 2.9784,-3.832 2.734,-4.0845 -0.4727,-0.4882 -6.7933,6.2686 -6.7933,7.2621 0,1.1284 0.9053,0.4198 4.0593,-3.1776 z m -2.0267,-4.2906 c 1.1931,-1.3839 2.0139,-2.6791 1.8239,-2.8782 -0.4003,-0.4196 -3.6928,2.7291 -4.5149,4.3177 -1.0012,1.9345 0.453,1.1567 2.691,-1.4395 z m 6.2471,-5.7915 c -0.3473,-4.8568 -0.3629,-4.8962 -1.1574,-2.9231 -1.1498,2.8557 -2.6206,2.5835 -4.1215,-0.7625 -0.6815,-1.5195 -1.2432,-3.1118 -1.2481,-3.5386 -0.01,-0.5576 -0.1565,-0.5317 -0.5334,0.092 -0.5638,0.9334 -0.3527,1.6556 1.4424,4.9348 1.1124,2.0321 5.6056,7.6284 5.8506,7.2868 0.066,-0.092 -0.039,-2.3818 -0.2326,-5.0896 z m -6.8529,0.5061 c 0.4253,-1.1614 -1.0678,-0.3268 -1.8931,1.0582 -0.6786,1.1386 -0.6448,1.174 0.4417,0.4629 0.647,-0.4235 1.3001,-1.108 1.4514,-1.5211 z m -12.3774,-4.9677 c 0.5218,-1.9462 1.8858,-5.5861 3.0311,-8.0887 l 2.0823,-4.5502 -3.2565,-3.4547 c -7.4499,-7.9035 -12.6084,-19.6105 -11.6189,-26.3687 0.3629,-2.479 -0.3443,-2.535 -2.7146,-0.2146 -1.7603,1.7233 -1.8234,1.9641 -1.8151,6.9232 0.01,4.8455 1.2297,12.2706 2.2561,13.7138 0.2562,0.3602 0.7987,1.9011 1.2056,3.4242 0.4069,1.5231 1.6118,4.7078 2.6777,7.077 2.7014,6.005 4.7184,10.7258 5.5872,13.0772 0.4065,1.1 0.9365,2 1.1777,2 0.2412,0 0.8655,-1.5923 1.3874,-3.5385 z m 17.9806,-3.7935 c 1.1864,-3.7229 1.2722,-4.6037 0.6864,-7.0419 -0.3683,-1.5327 -0.6696,-3.4949 -0.6696,-4.3604 0,-1.9476 -0.9711,-2.0062 -3.9303,-0.2373 -4.4058,2.6339 -4.3824,2.5672 -2.4072,6.8526 3.178,6.8951 4.2756,9.042 4.6224,9.042 0.1882,0 0.9525,-1.9148 1.6983,-4.255 z m -10.4785,-6.0529 c 0.7305,-0.976 0.7097,-0.9978 -0.2217,-0.2323 -0.9782,0.804 -1.2893,1.3093 -0.8059,1.3093 0.1219,0 0.5843,-0.4846 1.0276,-1.077 z m 3.8014,-6.6667 c 1.5823,-0.8744 3.057,-1.7745 3.2772,-2.0001 0.2201,-0.2256 -1.9454,-3.2811 -4.8123,-6.79 -5.455,-6.6766 -7.3595,-10.0786 -8.162,-14.5807 -0.754,-4.2295 0.086,-10.117 1.4432,-10.117 0.6732,0 0.8561,1.0105 0.8631,4.7694 0.014,7.4947 1.3262,10.3797 8.9222,19.614 5.2439,6.3748 8.5193,8.848 11.718,8.848 2.2494,0 3.1005,-0.7482 6.7657,-5.9475 1.2322,-1.748 4.5102,-6.0404 7.2845,-9.5386 5.39,-6.7967 6.0125,-7.7937 6.6608,-10.6682 0.3359,-1.4892 0.2721,-1.6974 -0.3298,-1.0769 -0.8982,0.9259 -3.2329,1.0155 -3.747,0.1438 -0.8882,-1.5061 -1.5094,0.3228 -1.1457,3.3731 0.3428,2.8754 0.2339,3.3943 -0.9564,4.5564 -1.6516,1.6125 -5.8627,1.817 -7.0312,0.3414 -0.6366,-0.8039 -0.6238,-1.0657 0.075,-1.5291 0.606,-0.4019 0.303,-0.5617 -1.0781,-0.5685 -2.3964,-0.012 -3.4678,-1.9106 -2.5326,-4.4884 0.4765,-1.3134 0.991,-1.6749 2.3839,-1.6749 1.3847,0 1.7762,0.2713 1.7762,1.2308 0,0.746 -0.4047,1.2472 -1.0276,1.2724 -0.8182,0.033 -0.7584,0.1778 0.2936,0.7095 0.7267,0.3673 1.3212,1.1573 1.3212,1.7556 0,0.7064 0.6128,1.2289 1.7474,1.49 2.6469,0.6093 3.1395,-0.036 2.7603,-3.6178 -0.6787,-6.4103 0.9756,-10.5671 5.2369,-13.1587 1.8227,-1.1086 2.8393,-1.3218 4.9509,-1.0383 l 2.6572,0.3568 1.242,-3.0808 c 0.6831,-1.6944 1.0949,-3.2349 0.9151,-3.4234 -0.1798,-0.1884 -1.2811,-0.3426 -2.4473,-0.3426 -1.1662,0 -2.7077,-0.4311 -3.4255,-0.9579 -1.6374,-1.202 -1.7117,-3.3536 -0.1306,-3.7869 2.1385,-0.5861 1.3714,-1.9999 -1.005,-1.8523 -2.807,0.1745 -3.2173,-1.3061 -0.7647,-2.759 0.9733,-0.5766 1.7697,-1.3298 1.7697,-1.6738 0,-0.344 -0.9799,0.071 -2.1774,0.923 -2.3493,1.6707 -5.163,1.8127 -5.163,0.2606 0,-0.5077 1.106,-1.4618 2.4579,-2.1203 3.1186,-1.519 4.2107,-3.4379 3.1447,-5.5252 -0.9723,-1.9039 -3.4175,-2.6221 -4.3547,-1.2789 -1.0537,1.5101 -4.957,1.3867 -8.2016,-0.2593 -3.0177,-1.5309 -6.2266,-5.89 -6.2479,-8.4872 -0.01,-1.1365 -1.4738,-2.6371 -2.5737,-2.6371 -0.16,0 0.3703,1.2397 1.1784,2.755 1.8401,3.4501 1.6757,5.4818 -0.4645,5.7415 -0.9517,0.1154 -1.6712,0.6537 -1.8542,1.3872 -0.1906,0.7639 -0.6218,1.0687 -1.1892,0.8405 -2.1995,-0.8845 -2.9324,5.3048 -0.9421,7.9564 1.6572,2.2078 0.9646,3.0852 -2.0893,2.6465 -1.5517,-0.2229 -2.8538,-0.073 -3.4704,0.3995 -0.9915,0.7598 -1.3291,1.2884 -3.6844,5.77 -1.6697,3.1771 -2.9556,4.3132 -3.8366,3.3899 -0.4898,-0.5133 -0.4833,-1.3139 0.025,-3.0915 0.823,-2.8787 0.9063,-8.5023 0.1334,-9.0029 -0.327,-0.2118 -0.4176,0.5131 -0.222,1.7764 0.4496,2.9031 -0.2067,5.4102 -1.352,5.1651 -0.6896,-0.1476 -0.9334,-1.1107 -1.0067,-3.9769 -0.1032,-4.0405 -1.341,-6.3718 -3.3828,-6.3718 -1.4906,0 -1.9333,1.072 -0.6226,1.5079 1.7513,0.5825 2.9796,4.4506 2.8894,9.0992 -0.072,3.7045 -0.1781,4.056 -0.9986,3.3047 -0.9897,-0.9063 -7.4259,-0.6719 -7.9938,0.2911 -0.5834,0.9893 1.3866,8.1092 2.5938,9.3743 l 1.223,1.2817 1.4302,-1.4081 c 1.672,-1.646 3.5169,-1.5109 3.7621,0.2755 0.1261,0.9184 -0.3974,1.5364 -1.9652,2.3198 -1.8358,0.9175 -2.4272,0.958 -4.1967,0.2875 -1.9692,-0.7463 -2.1203,-0.7009 -3.4397,1.0332 -1.7213,2.2622 -2.4269,7.4895 -1.5809,11.7107 1.0705,5.3411 5.1892,13.3084 9.3491,18.0849 4.3276,4.9691 5.0288,5.178 9.3549,2.7873 z m 11.5299,-9.1453 c -1.8536,-1.7912 -2.0909,-2.2956 -1.5311,-3.2561 0.5395,-0.9256 0.3977,-1.4593 -0.764,-2.8746 -2.3456,-2.8576 -1.6711,-3.7597 2.7606,-3.6918 3.0876,0.047 4.34,0.3947 6.6762,1.8521 4.123,2.5718 4.4905,3.4392 2.3761,5.6089 -0.9506,0.9755 -2.1882,2.3828 -2.7503,3.1273 -1.5599,2.0665 -4.1383,1.7748 -6.7675,-0.7658 z m 4.2661,-5.592 c -1.8817,-1.6163 -2.6426,-1.8823 -2.6426,-0.9237 0,0.6304 2.822,2.4302 3.817,2.4345 0.323,0 -0.2055,-0.6785 -1.1744,-1.5108 z m 6.1659,-18.9351 c 0,-1.3582 0.9634,-2.8923 1.8163,-2.8923 0.7896,0 1.1081,1.9501 0.5098,3.1215 -0.8447,1.6541 -2.3261,1.5082 -2.3261,-0.2292 z m -10.5685,-2.0408 c -2.7021,-2.5583 -3.1233,-4.817 -1.0293,-5.5198 3.909,-1.312 7.9359,-0.3642 9.2314,2.1726 0.7127,1.3956 0.8138,5.5726 0.1349,5.5726 -0.8171,0 -1.8791,-1.4358 -1.8791,-2.5406 0,-1.135 -1.4858,-2.9979 -2.3909,-2.9979 -1.0669,0 -0.5249,2.3854 0.6292,2.7693 2.1734,0.7229 1.0543,2.7692 -1.5144,2.7692 -0.4572,0 -1.8889,-1.0014 -3.1818,-2.2254 z m 6.7808,-6.7069 c -3.3692,-3.7637 -4.4679,-4.6247 -5.9016,-4.6249 -2.3419,-4e-4 -3.4971,-0.8255 -3.0117,-2.1511 0.3286,-0.8973 0.86,-0.9976 3.4072,-0.6435 3.9677,0.5515 5.4285,1.4234 9.2737,5.535 1.7654,1.8877 3.549,3.4321 3.9638,3.4321 0.95,0 0.9788,1.3645 0.049,2.3385 -1.6774,1.758 -3.578,0.8088 -7.7808,-3.8861 z m -31.3214,2.663 c -1.0856,-1.1376 -0.8562,-2.7173 0.6635,-4.5688 0.963,-1.1733 1.6914,-1.5488 2.4289,-1.2523 0.9567,0.3848 0.9697,0.5212 0.1416,1.4877 -0.5014,0.5853 -0.9998,1.8736 -1.1076,2.8628 -0.2192,2.0128 -1.0565,2.5918 -2.1264,1.4706 z m 100.2662,26.2835 c 3.6153,-1.9592 6.4727,-7.0154 6.4817,-11.4695 0,-1.5671 -1.9601,-4.8523 -2.8998,-4.8523 -0.2579,0 -0.6416,1.3644 -0.8528,3.0319 -0.7886,6.2305 -6.8957,12.3203 -11.4561,11.4238 l -2.0949,-0.4119 1.1662,1.3586 c 0.6415,0.7472 1.6948,1.5977 2.3408,1.8901 1.4778,0.6691 5.2008,0.175 7.3149,-0.9707 z m -126.3807,-10.8849 c 2.3097,-0.6095 3.5928,-1.6627 8.5518,-7.0199 5.7437,-6.2049 7.881,-7.8425 11.1786,-8.5648 1.2946,-0.2836 1.5728,-0.6009 1.2419,-1.4166 -0.2344,-0.5782 -0.5899,-1.9988 -0.7899,-3.1569 -0.3458,-2.0029 -0.5357,-2.1441 -3.8845,-2.8896 -1.9365,-0.4311 -5.2108,-1.0875 -7.2761,-1.4588 -2.0654,-0.3713 -4.1794,-0.9025 -4.6979,-1.1806 -0.5184,-0.278 -3.884,-0.6846 -7.479,-0.9035 -7.313,-0.4452 -9.8055,-1.1165 -11.9826,-3.2271 -2.4329,-2.3585 -4.4662,-2.3736 -8.7872,-0.065 -2.9244,1.5624 -4.0524,2.559 -4.8233,4.2615 -1.1649,2.5725 -2.3539,3.5125 -9.5639,7.5607 -9.2593,5.1988 -12.8654,7.2605 -14.9966,8.574 -1.1427,0.7043 -2.5784,1.5759 -3.1906,1.937 -1.3458,0.7939 -2.4613,2.5256 -1.9631,3.0477 0.1987,0.2082 1.7,-0.3324 3.3363,-1.2013 4.8791,-2.591 8.0329,-1.7949 8.8436,2.2321 0.4842,2.405 1.7048,2.4418 4.3258,0.1305 2.1785,-1.921 2.8891,-1.8682 5.3512,0.3972 l 2.0412,1.8781 2.7979,-1.3357 c 2.9315,-1.3995 6.624,-1.4177 10.9073,-0.054 3.2828,1.0453 10.0326,2.533 12.4958,2.7541 4.8213,0.4327 5.7094,0.401 8.3633,-0.2993 z m 95.274,-5.5907 c -0.012,-3.3746 -0.37,-3.8852 -3.3072,-4.7123 -2.1624,-0.6089 -3.6706,-2.1712 -2.8879,-2.9914 0.1556,-0.1632 1.351,0.1511 2.6563,0.6985 2.0352,0.8533 2.3733,0.8674 2.3733,0.099 0,-1.154 1.9918,-2.2756 3.1872,-1.7949 0.5079,0.2043 0.9234,0.099 0.9234,-0.2345 0,-1.252 -1.8411,-2.1161 -5.9181,-2.7774 -3.9044,-0.6333 -4.2655,-0.5965 -5.041,0.5149 -1.4505,2.0789 -0.7288,4.0133 2.2655,6.0718 1.5165,1.0427 2.7717,2.1035 2.7893,2.3573 0.045,0.6434 -3.8748,0.5791 -5.1142,-0.084 -1.983,-1.0606 -7.298,-2.4478 -8.117,-2.1184 -1.3504,0.5431 -0.9507,1.8495 0.7846,2.5647 0.8881,0.3661 3.4646,1.2485 5.7255,1.9611 2.2608,0.7125 5.0354,1.6658 6.1659,2.1185 3.2821,1.3144 3.5243,1.1991 3.5144,-1.6727 z m -76.9931,-1.3709 c 2.6628,-3.0274 2.8338,-3.3984 1.5658,-3.3984 -1.0293,0 -3.0318,2.128 -4.1984,4.4616 -1.2582,2.5165 -0.1072,2.0517 2.6326,-1.0632 z m 54.3937,1.2599 c 0,-1.804 -1.2849,-1.8349 -1.6126,-0.039 -0.2245,1.2307 -0.074,1.5502 0.6609,1.4019 0.5234,-0.1056 0.9517,-0.719 0.9517,-1.3631 z m 54.3682,-3.2908 c -0.2195,-0.8603 -0.943,-1.9426 -1.6077,-2.4051 -1.028,-0.7153 -1.3131,-0.7088 -1.9087,0.043 -0.5635,0.7116 -0.3331,1.3221 1.1808,3.1291 2.0189,2.4096 3.0591,2.0679 2.3356,-0.7672 z m 6.7014,-0.044 c 0.3926,-1.9502 0.3406,-2.0377 -0.9658,-1.6232 -2.1967,0.6971 -2.4686,1.3175 -1.3001,2.9669 1.2605,1.7793 1.6882,1.5257 2.2659,-1.3437 z m -57.5462,-0.7164 c 0,-0.6127 -0.727,-0.9777 -2.2022,-1.1057 -2.4589,-0.2132 -2.9879,0.8184 -0.8808,1.7177 1.7799,0.7596 3.083,0.5009 3.083,-0.612 z m -54.9061,-3.0686 c 0,-0.3384 -0.3964,-0.6154 -0.8809,-0.6154 -0.4845,0 -0.8808,0.277 -0.8808,0.6154 0,0.3385 0.3963,0.6154 0.8808,0.6154 0.4845,0 0.8809,-0.2769 0.8809,-0.6154 z m 80.4506,-3.6634 c 0,-2.8234 -1.213,-4.1462 -4.7467,-5.1757 -4.2138,-1.2277 -6.0573,-1.2718 -6.9333,-0.1657 -0.9172,1.1581 0.1595,1.9828 3.2966,2.525 1.3642,0.2357 3.6104,1.2313 4.9915,2.2123 2.9799,2.1166 3.3919,2.19 3.3919,0.6041 z m 2.0803,-6.029 c -0.4965,-2.1223 -1.2649,-2.8872 -3.7828,-3.7654 -3.2006,-1.1164 -5.3442,-0.9106 -5.3442,0.5129 0,1.4599 1.6512,2.4832 4.0069,2.4832 0.9544,0 2.3591,0.5447 3.1216,1.2103 1.9108,1.6683 2.4635,1.5463 1.9985,-0.441 z m -102.4582,-7.5603 c 0.6247,-0.3504 1.1359,-0.8998 1.1359,-1.221 0,-0.3211 0.7927,-2.299 1.7617,-4.3951 0.9689,-2.0962 1.7616,-3.9199 1.7616,-4.0527 0,-0.1328 -0.5945,-0.153 -1.3212,-0.045 -0.9283,0.1381 -1.765,1.1497 -2.813,3.4009 -0.8204,1.7624 -1.6233,3.3422 -1.7842,3.5108 -0.1608,0.1686 -1.3393,-0.069 -2.6189,-0.528 -2.1725,-0.7794 -2.3387,-1.0092 -2.5124,-3.4735 -0.1023,-1.4514 -0.7216,-3.4271 -1.3761,-4.3904 -0.6556,-0.9649 -1.0281,-2.1939 -0.8294,-2.7365 0.5999,-1.6385 2.5042,0.6902 3.9407,4.8187 0.6919,1.9887 1.6091,3.5947 2.0528,3.5947 1.0726,0 1.0156,-0.8945 -0.12,-1.8822 -0.7424,-0.6456 -0.8647,-1.7104 -0.627,-5.46 0.1625,-2.5619 0.4678,-5.7763 0.6785,-7.143 l 0.3831,-2.485 -4.0136,-1.145 c -5.6102,-1.6004 -9.3294,-1.446 -11.2842,0.4684 -1.9065,1.867 -4.9159,3.4927 -6.4656,3.4927 -1.9065,0 -1.9847,1.0249 -0.3955,5.1878 0.8284,2.1699 1.5062,4.914 1.5062,6.0978 0,3.0986 0.5216,4.0993 2.1366,4.0993 1.7928,0 2.3116,-1.3664 1.5308,-4.0323 -0.455,-1.5537 -0.4252,-2.2372 0.1182,-2.7098 1.0913,-0.9491 1.4995,-0.1283 1.4995,3.0154 0,5.0251 2.4991,7.1124 9.5441,7.9713 6.1226,0.7465 6.8478,0.7502 8.1114,0.042 z m -10.342,-16.6396 c -0.4542,-0.7701 1.9365,-3.6468 3.0307,-3.6468 1.3381,0 1.4068,1.0563 0.1753,2.697 -1.2671,1.6881 -2.547,2.0673 -3.206,0.9498 z m -15.6189,14.0175 c 1.5892,-1.3821 -0.7485,-12.3963 -3.5034,-16.506 -1.6887,-2.5194 -4.0341,-3.2835 -6.6129,-2.1544 -2.0899,0.9151 -2.6613,1.8111 -1.5952,2.5016 0.9592,0.6212 5.6863,8.5787 6.6988,11.2764 0.5424,1.4454 0.9862,3.4831 0.9862,4.5284 0,1.7649 0.1149,1.8702 1.6116,1.4765 0.8864,-0.2331 1.9731,-0.7383 2.4149,-1.1225 z m 26.7147,-7.261 c 1.3173,-1.6124 0.9934,-2.0008 -1.0046,-1.2048 -1.5354,0.6118 -1.9135,1.2921 -1.158,2.0838 0.6288,0.659 1.0437,0.4904 2.1626,-0.879 z m 8.4859,-3.1416 c 1.1995,-1.257 0.7914,-2.155 -1.4975,-3.2951 -3.1194,-1.5538 -7.3263,-1.8973 -8.2925,-0.6772 -1.4802,1.869 -0.5787,3.1584 2.2809,3.2621 1.4493,0.053 3.2957,0.3825 4.1031,0.7332 1.9684,0.8547 2.5723,0.8506 3.406,-0.023 z m 0.1174,-6.5528 c 0,-1.668 -4.0558,-3.4336 -6.6952,-2.9147 -2.1891,0.4303 -3.3014,1.4442 -2.0037,1.8262 0.4242,0.1248 2.0925,0.6502 3.7074,1.1676 4.0327,1.2918 4.9915,1.2766 4.9915,-0.079 z m -2.2332,178.6395 c -1.0988,-0.8118 -1.319,-1.4669 -1.1745,-3.4941 0.2044,-2.866 1.34,-3.9119 3.6015,-3.3171 1.8486,0.4862 2.5455,2.6562 1.7687,5.5074 -0.6243,2.2913 -2.1973,2.7801 -4.1957,1.3038 z m 21.1553,-0.6109 c -2.6816,-1.9684 -0.9303,-6.4268 2.5245,-6.4268 2.8225,0 3.5302,1.5928 1.9355,4.3561 -1.8607,3.2242 -2.4903,3.5166 -4.46,2.0707 z m -45.5063,-18.5873 c -0.8816,-0.9643 -1.6029,-1.9313 -1.6029,-2.1489 0,-0.2177 -1.5512,-2.9717 -3.4471,-6.1203 -1.8959,-3.1485 -4.076,-6.7786 -4.8447,-8.0667 -0.7686,-1.2882 -2.6315,-4.3403 -4.1396,-6.7826 -1.5082,-2.4422 -3.673,-6.2346 -4.8107,-8.4273 -1.7862,-3.4426 -2.2935,-3.9868 -3.7157,-3.9868 -1.3573,0 -1.9056,-0.5029 -3.1169,-2.8592 -0.8084,-1.5726 -1.9775,-3.604 -2.5979,-4.5142 -0.9499,-1.3936 -0.9963,-1.7423 -0.2936,-2.2083 1.3283,-0.881 1.6332,-0.7125 3.3357,1.845 1.2122,1.8209 1.9093,2.3427 2.825,2.115 1.3421,-0.3339 3.5477,2.5736 4.9649,6.5448 0.4228,1.1846 1.6062,3.2616 2.6298,4.6155 1.0236,1.3538 3.1441,4.5385 4.7123,7.077 1.5681,2.5385 3.8145,5.8617 4.9919,7.3847 1.1775,1.5232 2.9034,4.2557 3.8354,6.0724 0.932,1.8167 2.699,4.4475 3.9267,5.8462 2.5618,2.919 2.7266,4.9049 0.4303,5.1859 -1.0089,0.1235 -1.9904,-0.3771 -3.0829,-1.5722 z m -30.8189,-16.9169 c -1.1455,-1.2856 -1.8767,-3.0413 -3.9092,-9.3848 -2.8455,-8.8812 -4.6702,-25.9601 -2.843,-26.6108 0.899,-0.3201 1.0088,0.059 1.9122,6.6105 1.6916,12.2657 4.0196,21.6215 6.6101,26.5656 1.1116,2.1214 1.0951,4.2041 -0.033,4.2041 -0.2768,0 -1.0584,-0.6231 -1.7369,-1.3846 z m -0.9739,-41.1803 c -1.1159,-3.7878 -0.9786,-4.0226 3.3269,-5.6896 4.4557,-1.7252 9.3987,-5.9398 12.2593,-10.4527 2.501,-3.9456 4.6272,-5.3213 4.6153,-2.9862 -0.01,2.0176 -3.4536,7.3843 -6.5726,10.2439 -2.7901,2.5581 -9.4543,6.5256 -10.961,6.5256 -0.3209,0 -0.6678,0.6015 -0.7711,1.3365 -0.2153,1.5337 -1.5364,2.2458 -1.8968,1.0225 z m -44.2852,-50.3532 c -0.8416,-0.3798 -1.2895,-1.0301 -1.1683,-1.6959 0.1697,-0.932 1.1609,-1.1319 7.2372,-1.4595 7.5364,-0.4064 10.4568,-0.9077 12.3256,-2.1157 0.646,-0.4176 1.9673,-0.7193 2.9362,-0.6704 1.5208,0.077 1.786,0.3511 1.94,2.0083 0.2149,2.3141 -0.3291,2.5556 -7.5187,3.3372 -9.44,1.0262 -14.3846,1.2133 -15.752,0.596 z" id="path4336" inkscape:connector-curvature="0" style="fill:#3c0b0b;fill-opacity:1"/>
</g></g>
</g>
</svg>